<?xml version="1.0" standalone="yes"?>
<!DOCTYPE svg PUBLIC "-//W3C//DTD SVG 1.1//EN"
  "http://www.w3.org/Graphics/SVG/1.1/DTD/svg11.dtd">
<svg version="1.1" xmlns="http://www.w3.org/2000/svg" xmlns:xlink="http://www.w3.org/1999/xlink" width="52.9901mm" height="35.8593mm" viewBox="-9.00394 -78.9358 150.208 101.648" fill="none" stroke="#404040" stroke-width="0.2" stroke-miterlimit="10" stroke-dasharray="2 2">
 <g transform="scale(1.0, -1.0)">
  <use xlink:href="#g8" />
  <use xlink:href="#g9" />
  <use transform="matrix(1 0 0 1 114.414 -11.6044)" xlink:href="#g7" />
  <path d="M5.65 -8.50V78.84" />
  <use transform="matrix(1 0 0 1 1.61319 -20.1083)" xlink:href="#g3" />
  <path d="M39.39 -8.50V78.84" />
  <use transform="matrix(1 0 0 1 35.3568 -20.1083)" xlink:href="#g4" />
  <path d="M69.70 -8.50V78.84" />
  <use transform="matrix(1 0 0 1 65.6648 -20.1083)" xlink:href="#g5" />
  <path d="M106.30 -8.50V78.84" />
  <use transform="matrix(1 0 0 1 102.266 -20.1083)" xlink:href="#g6" />
  <path transform="matrix(1 0 0 1 39.3902 10.3615)" d="M3.00 0.00C3.00 1.66 1.66 3.00 0.00 3.00C-1.66 3.00 -3.00 1.66 -3.00 0.00C-3.00 -1.66 -1.66 -3.00 0.00 -3.00C1.66 -3.00 3.00 -1.66 3.00 0.00z" fill="#177100" stroke="#000000" stroke-width="0.5" stroke-dasharray="none" />
  <path transform="matrix(1 0 0 1 69.6983 10.3615)" d="M3.00 0.00C3.00 1.66 1.66 3.00 0.00 3.00C-1.66 3.00 -3.00 1.66 -3.00 0.00C-3.00 -1.66 -1.66 -3.00 0.00 -3.00C1.66 -3.00 3.00 -1.66 3.00 0.00z" fill="#177100" stroke="#000000" stroke-width="0.5" stroke-dasharray="none" />
  <path transform="matrix(1 0 0 1 106.299 10.3615)" d="M3.00 0.00C3.00 1.66 1.66 3.00 0.00 3.00C-1.66 3.00 -3.00 1.66 -3.00 0.00C-3.00 -1.66 -1.66 -3.00 0.00 -3.00C1.66 -3.00 3.00 -1.66 3.00 0.00z" fill="#177100" stroke="#000000" stroke-width="0.5" stroke-dasharray="none" />
  <use transform="matrix(1 0 0 1 17.4154 14.6134)" xlink:href="#g2" />
 </g>
 <defs>
  <g id="g8" fill="none" fill-rule="nonzero" fill-opacity="1" stroke="#000000" stroke-width="1" stroke-linecap="butt" stroke-linejoin="miter" stroke-miterlimit="10" stroke-dasharray="none" stroke-opacity="1">
   <path d="M-8.50 0.00C-8.50 0.00 106.08 0.00 124.95 0.00" />
   <path d="M127.56 0.00C127.56 0.00 126.08 -0.54 123.44 -1.50L123.84 0.00L123.44 1.50C126.08 0.54 127.56 0.00 127.56 0.00z" fill="#000000" stroke="none" />
  </g>
  <g id="g9" fill="none" fill-rule="nonzero" fill-opacity="1" stroke="#000000" stroke-width="1" stroke-linecap="butt" stroke-linejoin="miter" stroke-miterlimit="10" stroke-dasharray="none" stroke-opacity="1">
   <path d="M0.00 -8.50C0.00 -8.50 0.00 61.69 0.00 76.22" />
   <path d="M0.00 78.84C0.00 78.84 0.55 77.33 1.50 74.71L0.00 75.12L-1.50 74.71C-0.55 77.33 0.00 78.84 0.00 78.84z" fill="#000000" stroke="none" />
  </g>
  <g id="g7" transform="translate(-72, 78.274)scale(1.0, -1.0)">
<defs>
<g>
<symbol overflow="visible" id="i7-glyph0-0">
<path style="stroke:none;" d=""/>
</symbol>
<symbol overflow="visible" id="i7-glyph0-1">
<path style="stroke:none;" d="M 3.3125 -1.234375 L 3.3125 -1.796875 L 3.0625 -1.796875 L 3.0625 -1.25 C 3.0625 -0.515625 2.765625 -0.140625 2.390625 -0.140625 C 1.71875 -0.140625 1.71875 -1.046875 1.71875 -1.21875 L 1.71875 -3.984375 L 3.15625 -3.984375 L 3.15625 -4.296875 L 1.71875 -4.296875 L 1.71875 -6.125 L 1.46875 -6.125 C 1.46875 -5.3125 1.171875 -4.25 0.1875 -4.203125 L 0.1875 -3.984375 L 1.03125 -3.984375 L 1.03125 -1.234375 C 1.03125 -0.015625 1.96875 0.109375 2.328125 0.109375 C 3.03125 0.109375 3.3125 -0.59375 3.3125 -1.234375 Z M 3.3125 -1.234375 "/>
</symbol>
<symbol overflow="visible" id="i7-glyph0-2">
<path style="stroke:none;" d="M 2.46875 0 L 2.46875 -0.3125 C 1.796875 -0.3125 1.765625 -0.359375 1.765625 -0.75 L 1.765625 -4.40625 L 0.375 -4.296875 L 0.375 -3.984375 C 1.015625 -3.984375 1.109375 -3.921875 1.109375 -3.4375 L 1.109375 -0.75 C 1.109375 -0.3125 1 -0.3125 0.328125 -0.3125 L 0.328125 0 L 1.421875 -0.03125 C 1.78125 -0.03125 2.125 -0.015625 2.46875 0 Z M 1.90625 -6.015625 C 1.90625 -6.296875 1.6875 -6.546875 1.390625 -6.546875 C 1.046875 -6.546875 0.84375 -6.265625 0.84375 -6.015625 C 0.84375 -5.75 1.078125 -5.5 1.375 -5.5 C 1.71875 -5.5 1.90625 -5.765625 1.90625 -6.015625 Z M 1.90625 -6.015625 "/>
</symbol>
<symbol overflow="visible" id="i7-glyph0-3">
<path style="stroke:none;" d="M 8.109375 0 L 8.109375 -0.3125 C 7.59375 -0.3125 7.34375 -0.3125 7.328125 -0.609375 L 7.328125 -2.515625 C 7.328125 -3.375 7.328125 -3.671875 7.015625 -4.03125 C 6.875 -4.203125 6.546875 -4.40625 5.96875 -4.40625 C 5.140625 -4.40625 4.6875 -3.8125 4.53125 -3.421875 C 4.390625 -4.296875 3.65625 -4.40625 3.203125 -4.40625 C 2.46875 -4.40625 2 -3.984375 1.71875 -3.359375 L 1.71875 -4.40625 L 0.3125 -4.296875 L 0.3125 -3.984375 C 1.015625 -3.984375 1.09375 -3.921875 1.09375 -3.421875 L 1.09375 -0.75 C 1.09375 -0.3125 0.984375 -0.3125 0.3125 -0.3125 L 0.3125 0 L 1.453125 -0.03125 L 2.5625 0 L 2.5625 -0.3125 C 1.890625 -0.3125 1.78125 -0.3125 1.78125 -0.75 L 1.78125 -2.59375 C 1.78125 -3.625 2.5 -4.1875 3.125 -4.1875 C 3.765625 -4.1875 3.875 -3.65625 3.875 -3.078125 L 3.875 -0.75 C 3.875 -0.3125 3.765625 -0.3125 3.09375 -0.3125 L 3.09375 0 L 4.21875 -0.03125 L 5.328125 0 L 5.328125 -0.3125 C 4.671875 -0.3125 4.5625 -0.3125 4.5625 -0.75 L 4.5625 -2.59375 C 4.5625 -3.625 5.265625 -4.1875 5.90625 -4.1875 C 6.53125 -4.1875 6.640625 -3.65625 6.640625 -3.078125 L 6.640625 -0.75 C 6.640625 -0.3125 6.53125 -0.3125 5.859375 -0.3125 L 5.859375 0 L 6.984375 -0.03125 Z M 8.109375 0 "/>
</symbol>
<symbol overflow="visible" id="i7-glyph0-4">
<path style="stroke:none;" d="M 4.140625 -1.1875 C 4.140625 -1.28125 4.0625 -1.3125 4 -1.3125 C 3.921875 -1.3125 3.890625 -1.25 3.875 -1.171875 C 3.53125 -0.140625 2.625 -0.140625 2.53125 -0.140625 C 2.03125 -0.140625 1.640625 -0.4375 1.40625 -0.8125 C 1.109375 -1.28125 1.109375 -1.9375 1.109375 -2.296875 L 3.890625 -2.296875 C 4.109375 -2.296875 4.140625 -2.296875 4.140625 -2.515625 C 4.140625 -3.5 3.59375 -4.46875 2.359375 -4.46875 C 1.203125 -4.46875 0.28125 -3.4375 0.28125 -2.1875 C 0.28125 -0.859375 1.328125 0.109375 2.46875 0.109375 C 3.6875 0.109375 4.140625 -1 4.140625 -1.1875 Z M 3.484375 -2.515625 L 1.109375 -2.515625 C 1.171875 -4 2.015625 -4.25 2.359375 -4.25 C 3.375 -4.25 3.484375 -2.90625 3.484375 -2.515625 Z M 3.484375 -2.515625 "/>
</symbol>
<symbol overflow="visible" id="i7-glyph1-0">
<path style="stroke:none;" d=""/>
</symbol>
<symbol overflow="visible" id="i7-glyph1-1">
<path style="stroke:none;" d="M 3.125 -1.421875 C 3.125 -1.53125 3.046875 -1.53125 3.015625 -1.53125 C 2.921875 -1.53125 2.90625 -1.5 2.859375 -1.390625 C 2.4375 -0.34375 1.90625 -0.109375 1.5625 -0.109375 C 1.359375 -0.109375 1.25 -0.234375 1.25 -0.5625 C 1.25 -0.8125 1.28125 -0.875 1.3125 -1.046875 L 2.046875 -3.984375 L 2.984375 -3.984375 C 3.1875 -3.984375 3.296875 -3.984375 3.296875 -4.1875 C 3.296875 -4.296875 3.1875 -4.296875 3.015625 -4.296875 L 2.140625 -4.296875 C 2.5 -5.71875 2.546875 -5.90625 2.546875 -5.96875 C 2.546875 -6.140625 2.421875 -6.234375 2.25 -6.234375 C 2.21875 -6.234375 1.9375 -6.234375 1.859375 -5.875 L 1.46875 -4.296875 L 0.53125 -4.296875 C 0.328125 -4.296875 0.234375 -4.296875 0.234375 -4.109375 C 0.234375 -3.984375 0.3125 -3.984375 0.515625 -3.984375 L 1.390625 -3.984375 C 0.671875 -1.15625 0.625 -0.984375 0.625 -0.8125 C 0.625 -0.265625 1 0.109375 1.546875 0.109375 C 2.5625 0.109375 3.125 -1.34375 3.125 -1.421875 Z M 3.125 -1.421875 "/>
</symbol>
</g>
<clipPath id="i7-clip1">
  <path d="M 72 72 L 92 72 L 92 78.273438 L 72 78.273438 Z M 72 72 "/>
</clipPath>
<clipPath id="i7-clip2">
  <path d="M 94 72 L 98 72 L 98 78.273438 L 94 78.273438 Z M 94 72 "/>
</clipPath>
</defs>
<g id="i7-surface36">
<g> <!-- clip-path="url(#clip1)" clip-rule="nonzero" -->
<g style="fill:rgb(0%,0%,0%);fill-opacity:1;">
  <use xlink:href="#i7-glyph0-1" x="72" y="78.274"/>
  <use xlink:href="#i7-glyph0-2" x="75.874455" y="78.274"/>
  <use xlink:href="#i7-glyph0-3" x="78.642065" y="78.274"/>
  <use xlink:href="#i7-glyph0-4" x="86.9439" y="78.274"/>
</g>
</g>
<g> <!-- clip-path="url(#clip2)" clip-rule="nonzero" -->
<g style="fill:rgb(0%,0%,0%);fill-opacity:1;">
  <use xlink:href="#i7-glyph1-1" x="94.692" y="78.274"/>
</g>
</g>
</g>
</g>
  <g id="g3" transform="translate(-72, 78.1276)scale(1.0, -1.0)">
<defs>
<g>
<symbol overflow="visible" id="i3-glyph0-0">
<path style="stroke:none;" d=""/>
</symbol>
<symbol overflow="visible" id="i3-glyph0-1">
<path style="stroke:none;" d="M 3.125 -1.421875 C 3.125 -1.53125 3.046875 -1.53125 3.015625 -1.53125 C 2.921875 -1.53125 2.90625 -1.5 2.859375 -1.390625 C 2.4375 -0.34375 1.90625 -0.109375 1.5625 -0.109375 C 1.359375 -0.109375 1.25 -0.234375 1.25 -0.5625 C 1.25 -0.8125 1.28125 -0.875 1.3125 -1.046875 L 2.046875 -3.984375 L 2.984375 -3.984375 C 3.1875 -3.984375 3.296875 -3.984375 3.296875 -4.1875 C 3.296875 -4.296875 3.1875 -4.296875 3.015625 -4.296875 L 2.140625 -4.296875 C 2.5 -5.71875 2.546875 -5.90625 2.546875 -5.96875 C 2.546875 -6.140625 2.421875 -6.234375 2.25 -6.234375 C 2.21875 -6.234375 1.9375 -6.234375 1.859375 -5.875 L 1.46875 -4.296875 L 0.53125 -4.296875 C 0.328125 -4.296875 0.234375 -4.296875 0.234375 -4.109375 C 0.234375 -3.984375 0.3125 -3.984375 0.515625 -3.984375 L 1.390625 -3.984375 C 0.671875 -1.15625 0.625 -0.984375 0.625 -0.8125 C 0.625 -0.265625 1 0.109375 1.546875 0.109375 C 2.5625 0.109375 3.125 -1.34375 3.125 -1.421875 Z M 3.125 -1.421875 "/>
</symbol>
<symbol overflow="visible" id="i3-glyph1-0">
<path style="stroke:none;" d=""/>
</symbol>
<symbol overflow="visible" id="i3-glyph1-1">
<path style="stroke:none;" d="M 3.59375 -2.21875 C 3.59375 -2.984375 3.5 -3.546875 3.1875 -4.03125 C 2.96875 -4.34375 2.53125 -4.625 1.984375 -4.625 C 0.359375 -4.625 0.359375 -2.71875 0.359375 -2.21875 C 0.359375 -1.71875 0.359375 0.140625 1.984375 0.140625 C 3.59375 0.140625 3.59375 -1.71875 3.59375 -2.21875 Z M 2.96875 -2.3125 C 2.96875 -1.796875 2.96875 -1.28125 2.875 -0.84375 C 2.734375 -0.203125 2.265625 -0.0625 1.984375 -0.0625 C 1.65625 -0.0625 1.234375 -0.25 1.09375 -0.8125 C 1 -1.21875 1 -1.796875 1 -2.3125 C 1 -2.828125 1 -3.359375 1.09375 -3.734375 C 1.25 -4.28125 1.6875 -4.4375 1.984375 -4.4375 C 2.359375 -4.4375 2.71875 -4.203125 2.84375 -3.796875 C 2.953125 -3.421875 2.96875 -2.921875 2.96875 -2.3125 Z M 2.96875 -2.3125 "/>
</symbol>
</g>
<clipPath id="i3-clip1">
  <path d="M 72 72 L 76 72 L 76 79 L 72 79 Z M 72 72 "/>
</clipPath>
<clipPath id="i3-clip2">
  <path d="M 75 74 L 80 74 L 80 79.621094 L 75 79.621094 Z M 75 74 "/>
</clipPath>
</defs>
<g id="i3-surface16">
<g> <!-- clip-path="url(#clip1)" clip-rule="nonzero" -->
<g style="fill:rgb(0%,0%,0%);fill-opacity:1;">
  <use xlink:href="#i3-glyph0-1" x="72" y="78.128"/>
</g>
</g>
<g> <!-- clip-path="url(#clip2)" clip-rule="nonzero" -->
<g style="fill:rgb(0%,0%,0%);fill-opacity:1;">
  <use xlink:href="#i3-glyph1-1" x="75.598" y="79.622"/>
</g>
</g>
</g>
</g>
  <g id="g4" transform="translate(-72, 78.1276)scale(1.0, -1.0)">
<defs>
<g>
<symbol overflow="visible" id="i4-glyph0-0">
<path style="stroke:none;" d=""/>
</symbol>
<symbol overflow="visible" id="i4-glyph0-1">
<path style="stroke:none;" d="M 3.125 -1.421875 C 3.125 -1.53125 3.046875 -1.53125 3.015625 -1.53125 C 2.921875 -1.53125 2.90625 -1.5 2.859375 -1.390625 C 2.4375 -0.34375 1.90625 -0.109375 1.5625 -0.109375 C 1.359375 -0.109375 1.25 -0.234375 1.25 -0.5625 C 1.25 -0.8125 1.28125 -0.875 1.3125 -1.046875 L 2.046875 -3.984375 L 2.984375 -3.984375 C 3.1875 -3.984375 3.296875 -3.984375 3.296875 -4.1875 C 3.296875 -4.296875 3.1875 -4.296875 3.015625 -4.296875 L 2.140625 -4.296875 C 2.5 -5.71875 2.546875 -5.90625 2.546875 -5.96875 C 2.546875 -6.140625 2.421875 -6.234375 2.25 -6.234375 C 2.21875 -6.234375 1.9375 -6.234375 1.859375 -5.875 L 1.46875 -4.296875 L 0.53125 -4.296875 C 0.328125 -4.296875 0.234375 -4.296875 0.234375 -4.109375 C 0.234375 -3.984375 0.3125 -3.984375 0.515625 -3.984375 L 1.390625 -3.984375 C 0.671875 -1.15625 0.625 -0.984375 0.625 -0.8125 C 0.625 -0.265625 1 0.109375 1.546875 0.109375 C 2.5625 0.109375 3.125 -1.34375 3.125 -1.421875 Z M 3.125 -1.421875 "/>
</symbol>
<symbol overflow="visible" id="i4-glyph1-0">
<path style="stroke:none;" d=""/>
</symbol>
<symbol overflow="visible" id="i4-glyph1-1">
<path style="stroke:none;" d="M 3.296875 0 L 3.296875 -0.25 L 3.03125 -0.25 C 2.328125 -0.25 2.328125 -0.34375 2.328125 -0.578125 L 2.328125 -4.4375 C 2.328125 -4.625 2.328125 -4.625 2.125 -4.625 C 1.671875 -4.1875 1.046875 -4.1875 0.765625 -4.1875 L 0.765625 -3.9375 C 0.921875 -3.9375 1.390625 -3.9375 1.765625 -4.125 L 1.765625 -0.578125 C 1.765625 -0.34375 1.765625 -0.25 1.078125 -0.25 L 0.8125 -0.25 L 0.8125 0 L 2.046875 -0.03125 Z M 3.296875 0 "/>
</symbol>
</g>
<clipPath id="i4-clip1">
  <path d="M 72 72 L 76 72 L 76 79 L 72 79 Z M 72 72 "/>
</clipPath>
<clipPath id="i4-clip2">
  <path d="M 76 74 L 79 74 L 79 79.621094 L 76 79.621094 Z M 76 74 "/>
</clipPath>
</defs>
<g id="i4-surface21">
<g> <!-- clip-path="url(#clip1)" clip-rule="nonzero" -->
<g style="fill:rgb(0%,0%,0%);fill-opacity:1;">
  <use xlink:href="#i4-glyph0-1" x="72" y="78.128"/>
</g>
</g>
<g> <!-- clip-path="url(#clip2)" clip-rule="nonzero" -->
<g style="fill:rgb(0%,0%,0%);fill-opacity:1;">
  <use xlink:href="#i4-glyph1-1" x="75.598" y="79.622"/>
</g>
</g>
</g>
</g>
  <g id="g5" transform="translate(-72, 78.1276)scale(1.0, -1.0)">
<defs>
<g>
<symbol overflow="visible" id="i5-glyph0-0">
<path style="stroke:none;" d=""/>
</symbol>
<symbol overflow="visible" id="i5-glyph0-1">
<path style="stroke:none;" d="M 3.125 -1.421875 C 3.125 -1.53125 3.046875 -1.53125 3.015625 -1.53125 C 2.921875 -1.53125 2.90625 -1.5 2.859375 -1.390625 C 2.4375 -0.34375 1.90625 -0.109375 1.5625 -0.109375 C 1.359375 -0.109375 1.25 -0.234375 1.25 -0.5625 C 1.25 -0.8125 1.28125 -0.875 1.3125 -1.046875 L 2.046875 -3.984375 L 2.984375 -3.984375 C 3.1875 -3.984375 3.296875 -3.984375 3.296875 -4.1875 C 3.296875 -4.296875 3.1875 -4.296875 3.015625 -4.296875 L 2.140625 -4.296875 C 2.5 -5.71875 2.546875 -5.90625 2.546875 -5.96875 C 2.546875 -6.140625 2.421875 -6.234375 2.25 -6.234375 C 2.21875 -6.234375 1.9375 -6.234375 1.859375 -5.875 L 1.46875 -4.296875 L 0.53125 -4.296875 C 0.328125 -4.296875 0.234375 -4.296875 0.234375 -4.109375 C 0.234375 -3.984375 0.3125 -3.984375 0.515625 -3.984375 L 1.390625 -3.984375 C 0.671875 -1.15625 0.625 -0.984375 0.625 -0.8125 C 0.625 -0.265625 1 0.109375 1.546875 0.109375 C 2.5625 0.109375 3.125 -1.34375 3.125 -1.421875 Z M 3.125 -1.421875 "/>
</symbol>
<symbol overflow="visible" id="i5-glyph1-0">
<path style="stroke:none;" d=""/>
</symbol>
<symbol overflow="visible" id="i5-glyph1-1">
<path style="stroke:none;" d="M 3.515625 -1.265625 L 3.28125 -1.265625 C 3.265625 -1.109375 3.1875 -0.703125 3.09375 -0.640625 C 3.046875 -0.59375 2.515625 -0.59375 2.40625 -0.59375 L 1.125 -0.59375 C 1.859375 -1.234375 2.109375 -1.4375 2.515625 -1.765625 C 3.03125 -2.171875 3.515625 -2.609375 3.515625 -3.265625 C 3.515625 -4.109375 2.78125 -4.625 1.890625 -4.625 C 1.03125 -4.625 0.4375 -4.015625 0.4375 -3.375 C 0.4375 -3.03125 0.734375 -2.984375 0.8125 -2.984375 C 0.96875 -2.984375 1.171875 -3.109375 1.171875 -3.359375 C 1.171875 -3.484375 1.125 -3.734375 0.765625 -3.734375 C 0.984375 -4.21875 1.453125 -4.375 1.78125 -4.375 C 2.484375 -4.375 2.84375 -3.828125 2.84375 -3.265625 C 2.84375 -2.65625 2.40625 -2.1875 2.1875 -1.9375 L 0.515625 -0.265625 C 0.4375 -0.203125 0.4375 -0.1875 0.4375 0 L 3.3125 0 Z M 3.515625 -1.265625 "/>
</symbol>
</g>
<clipPath id="i5-clip1">
  <path d="M 72 72 L 76 72 L 76 79 L 72 79 Z M 72 72 "/>
</clipPath>
<clipPath id="i5-clip2">
  <path d="M 76 74 L 80 74 L 80 79.621094 L 76 79.621094 Z M 76 74 "/>
</clipPath>
</defs>
<g id="i5-surface26">
<g> <!-- clip-path="url(#clip1)" clip-rule="nonzero" -->
<g style="fill:rgb(0%,0%,0%);fill-opacity:1;">
  <use xlink:href="#i5-glyph0-1" x="72" y="78.128"/>
</g>
</g>
<g> <!-- clip-path="url(#clip2)" clip-rule="nonzero" -->
<g style="fill:rgb(0%,0%,0%);fill-opacity:1;">
  <use xlink:href="#i5-glyph1-1" x="75.598" y="79.622"/>
</g>
</g>
</g>
</g>
  <g id="g6" transform="translate(-72, 78.1276)scale(1.0, -1.0)">
<defs>
<g>
<symbol overflow="visible" id="i6-glyph0-0">
<path style="stroke:none;" d=""/>
</symbol>
<symbol overflow="visible" id="i6-glyph0-1">
<path style="stroke:none;" d="M 3.125 -1.421875 C 3.125 -1.53125 3.046875 -1.53125 3.015625 -1.53125 C 2.921875 -1.53125 2.90625 -1.5 2.859375 -1.390625 C 2.4375 -0.34375 1.90625 -0.109375 1.5625 -0.109375 C 1.359375 -0.109375 1.25 -0.234375 1.25 -0.5625 C 1.25 -0.8125 1.28125 -0.875 1.3125 -1.046875 L 2.046875 -3.984375 L 2.984375 -3.984375 C 3.1875 -3.984375 3.296875 -3.984375 3.296875 -4.1875 C 3.296875 -4.296875 3.1875 -4.296875 3.015625 -4.296875 L 2.140625 -4.296875 C 2.5 -5.71875 2.546875 -5.90625 2.546875 -5.96875 C 2.546875 -6.140625 2.421875 -6.234375 2.25 -6.234375 C 2.21875 -6.234375 1.9375 -6.234375 1.859375 -5.875 L 1.46875 -4.296875 L 0.53125 -4.296875 C 0.328125 -4.296875 0.234375 -4.296875 0.234375 -4.109375 C 0.234375 -3.984375 0.3125 -3.984375 0.515625 -3.984375 L 1.390625 -3.984375 C 0.671875 -1.15625 0.625 -0.984375 0.625 -0.8125 C 0.625 -0.265625 1 0.109375 1.546875 0.109375 C 2.5625 0.109375 3.125 -1.34375 3.125 -1.421875 Z M 3.125 -1.421875 "/>
</symbol>
<symbol overflow="visible" id="i6-glyph1-0">
<path style="stroke:none;" d=""/>
</symbol>
<symbol overflow="visible" id="i6-glyph1-1">
<path style="stroke:none;" d="M 3.578125 -1.203125 C 3.578125 -1.75 3.140625 -2.296875 2.375 -2.453125 C 3.09375 -2.71875 3.359375 -3.234375 3.359375 -3.671875 C 3.359375 -4.21875 2.734375 -4.625 1.953125 -4.625 C 1.1875 -4.625 0.59375 -4.25 0.59375 -3.6875 C 0.59375 -3.453125 0.75 -3.328125 0.953125 -3.328125 C 1.171875 -3.328125 1.3125 -3.484375 1.3125 -3.671875 C 1.3125 -3.875 1.171875 -4.03125 0.953125 -4.046875 C 1.203125 -4.34375 1.671875 -4.421875 1.9375 -4.421875 C 2.25 -4.421875 2.6875 -4.265625 2.6875 -3.671875 C 2.6875 -3.375 2.59375 -3.046875 2.40625 -2.84375 C 2.1875 -2.578125 1.984375 -2.5625 1.640625 -2.53125 C 1.46875 -2.515625 1.453125 -2.515625 1.421875 -2.515625 C 1.421875 -2.515625 1.34375 -2.5 1.34375 -2.421875 C 1.34375 -2.328125 1.40625 -2.328125 1.53125 -2.328125 L 1.90625 -2.328125 C 2.453125 -2.328125 2.84375 -1.953125 2.84375 -1.203125 C 2.84375 -0.34375 2.328125 -0.078125 1.9375 -0.078125 C 1.65625 -0.078125 1.03125 -0.15625 0.75 -0.578125 C 1.078125 -0.578125 1.15625 -0.8125 1.15625 -0.96875 C 1.15625 -1.1875 0.984375 -1.34375 0.765625 -1.34375 C 0.578125 -1.34375 0.375 -1.21875 0.375 -0.9375 C 0.375 -0.28125 1.09375 0.140625 1.9375 0.140625 C 2.90625 0.140625 3.578125 -0.515625 3.578125 -1.203125 Z M 3.578125 -1.203125 "/>
</symbol>
</g>
<clipPath id="i6-clip1">
  <path d="M 72 72 L 76 72 L 76 79 L 72 79 Z M 72 72 "/>
</clipPath>
<clipPath id="i6-clip2">
  <path d="M 75 74 L 80 74 L 80 79.621094 L 75 79.621094 Z M 75 74 "/>
</clipPath>
</defs>
<g id="i6-surface31">
<g> <!-- clip-path="url(#clip1)" clip-rule="nonzero" -->
<g style="fill:rgb(0%,0%,0%);fill-opacity:1;">
  <use xlink:href="#i6-glyph0-1" x="72" y="78.128"/>
</g>
</g>
<g> <!-- clip-path="url(#clip2)" clip-rule="nonzero" -->
<g style="fill:rgb(0%,0%,0%);fill-opacity:1;">
  <use xlink:href="#i6-glyph1-1" x="75.598" y="79.622"/>
</g>
</g>
</g>
</g>
  <g id="g2" transform="translate(-72, 79.4723)scale(1.0, -1.0)">
<defs>
<g>
<symbol overflow="visible" id="i2-glyph0-0">
<path style="stroke:none;" d=""/>
</symbol>
<symbol overflow="visible" id="i2-glyph0-1">
<path style="stroke:none;" d="M 4.28125 -1.0625 C 4.28125 -1.125 4.234375 -1.203125 4.171875 -1.203125 C 4.109375 -1.203125 4.09375 -1.171875 4.03125 -1.09375 C 3.25 -0.109375 2.15625 -0.109375 2.046875 -0.109375 C 1.421875 -0.109375 1.140625 -0.59375 1.140625 -1.203125 C 1.140625 -1.609375 1.34375 -2.578125 1.6875 -3.1875 C 2 -3.765625 2.546875 -4.1875 3.09375 -4.1875 C 3.421875 -4.1875 3.8125 -4.0625 3.953125 -3.78125 C 3.78125 -3.78125 3.65625 -3.78125 3.515625 -3.65625 C 3.34375 -3.5 3.328125 -3.328125 3.328125 -3.265625 C 3.328125 -3.015625 3.515625 -2.90625 3.703125 -2.90625 C 3.984375 -2.90625 4.25 -3.15625 4.25 -3.546875 C 4.25 -4.03125 3.78125 -4.40625 3.078125 -4.40625 C 1.734375 -4.40625 0.40625 -2.984375 0.40625 -1.578125 C 0.40625 -0.671875 0.984375 0.109375 2.03125 0.109375 C 3.453125 0.109375 4.28125 -0.953125 4.28125 -1.0625 Z M 4.28125 -1.0625 "/>
</symbol>
<symbol overflow="visible" id="i2-glyph0-2">
<path style="stroke:none;" d="M 3.125 -1.421875 C 3.125 -1.53125 3.046875 -1.53125 3.015625 -1.53125 C 2.921875 -1.53125 2.90625 -1.5 2.859375 -1.390625 C 2.4375 -0.34375 1.90625 -0.109375 1.5625 -0.109375 C 1.359375 -0.109375 1.25 -0.234375 1.25 -0.5625 C 1.25 -0.8125 1.28125 -0.875 1.3125 -1.046875 L 2.046875 -3.984375 L 2.984375 -3.984375 C 3.1875 -3.984375 3.296875 -3.984375 3.296875 -4.1875 C 3.296875 -4.296875 3.1875 -4.296875 3.015625 -4.296875 L 2.140625 -4.296875 C 2.5 -5.71875 2.546875 -5.90625 2.546875 -5.96875 C 2.546875 -6.140625 2.421875 -6.234375 2.25 -6.234375 C 2.21875 -6.234375 1.9375 -6.234375 1.859375 -5.875 L 1.46875 -4.296875 L 0.53125 -4.296875 C 0.328125 -4.296875 0.234375 -4.296875 0.234375 -4.109375 C 0.234375 -3.984375 0.3125 -3.984375 0.515625 -3.984375 L 1.390625 -3.984375 C 0.671875 -1.15625 0.625 -0.984375 0.625 -0.8125 C 0.625 -0.265625 1 0.109375 1.546875 0.109375 C 2.5625 0.109375 3.125 -1.34375 3.125 -1.421875 Z M 3.125 -1.421875 "/>
</symbol>
<symbol overflow="visible" id="i2-glyph1-0">
<path style="stroke:none;" d=""/>
</symbol>
<symbol overflow="visible" id="i2-glyph1-1">
<path style="stroke:none;" d="M 3.296875 2.390625 C 3.296875 2.359375 3.296875 2.34375 3.125 2.171875 C 1.890625 0.921875 1.5625 -0.96875 1.5625 -2.5 C 1.5625 -4.234375 1.9375 -5.96875 3.171875 -7.203125 C 3.296875 -7.328125 3.296875 -7.34375 3.296875 -7.375 C 3.296875 -7.453125 3.265625 -7.484375 3.203125 -7.484375 C 3.09375 -7.484375 2.203125 -6.796875 1.609375 -5.53125 C 1.109375 -4.4375 0.984375 -3.328125 0.984375 -2.5 C 0.984375 -1.71875 1.09375 -0.515625 1.640625 0.625 C 2.25 1.84375 3.09375 2.5 3.203125 2.5 C 3.265625 2.5 3.296875 2.46875 3.296875 2.390625 Z M 3.296875 2.390625 "/>
</symbol>
<symbol overflow="visible" id="i2-glyph1-2">
<path style="stroke:none;" d="M 2.875 -2.5 C 2.875 -3.265625 2.765625 -4.46875 2.21875 -5.609375 C 1.625 -6.828125 0.765625 -7.484375 0.671875 -7.484375 C 0.609375 -7.484375 0.5625 -7.4375 0.5625 -7.375 C 0.5625 -7.34375 0.5625 -7.328125 0.75 -7.140625 C 1.734375 -6.15625 2.296875 -4.578125 2.296875 -2.5 C 2.296875 -0.78125 1.9375 0.96875 0.703125 2.21875 C 0.5625 2.34375 0.5625 2.359375 0.5625 2.390625 C 0.5625 2.453125 0.609375 2.5 0.671875 2.5 C 0.765625 2.5 1.671875 1.8125 2.25 0.546875 C 2.765625 -0.546875 2.875 -1.65625 2.875 -2.5 Z M 2.875 -2.5 "/>
</symbol>
<symbol overflow="visible" id="i2-glyph2-0">
<path style="stroke:none;" d=""/>
</symbol>
<symbol overflow="visible" id="i2-glyph2-1">
<path style="stroke:none;" d="M 2.265625 -4.359375 C 2.265625 -4.46875 2.171875 -4.625 1.984375 -4.625 C 1.796875 -4.625 1.59375 -4.4375 1.59375 -4.234375 C 1.59375 -4.125 1.671875 -3.96875 1.875 -3.96875 C 2.0625 -3.96875 2.265625 -4.171875 2.265625 -4.359375 Z M 2.4375 -1 C 2.4375 -1.09375 2.34375 -1.09375 2.328125 -1.09375 C 2.234375 -1.09375 2.21875 -1.046875 2.1875 -0.96875 C 2.03125 -0.40625 1.734375 -0.125 1.453125 -0.125 C 1.3125 -0.125 1.28125 -0.21875 1.28125 -0.375 C 1.28125 -0.53125 1.328125 -0.65625 1.390625 -0.8125 L 1.609375 -1.375 L 1.953125 -2.265625 C 1.984375 -2.328125 2 -2.40625 2 -2.484375 C 2 -2.8125 1.71875 -3.078125 1.34375 -3.078125 C 0.640625 -3.078125 0.328125 -2.125 0.328125 -2 C 0.328125 -1.921875 0.421875 -1.921875 0.453125 -1.921875 C 0.546875 -1.921875 0.546875 -1.953125 0.578125 -2.03125 C 0.75 -2.625 1.0625 -2.875 1.3125 -2.875 C 1.421875 -2.875 1.484375 -2.828125 1.484375 -2.640625 C 1.484375 -2.46875 1.453125 -2.375 1.28125 -1.9375 L 0.84375 -0.8125 C 0.8125 -0.71875 0.78125 -0.640625 0.78125 -0.515625 C 0.78125 -0.1875 1.046875 0.0625 1.4375 0.0625 C 2.125 0.0625 2.4375 -0.890625 2.4375 -1 Z M 2.4375 -1 "/>
</symbol>
</g>
<clipPath id="i2-clip1">
  <path d="M 77 72 L 80 72 L 80 81.964844 L 77 81.964844 Z M 77 72 "/>
</clipPath>
<clipPath id="i2-clip2">
  <path d="M 84 76 L 87 76 L 87 81.964844 L 84 81.964844 Z M 84 76 "/>
</clipPath>
<clipPath id="i2-clip3">
  <path d="M 87 72 L 90 72 L 90 81.964844 L 87 81.964844 Z M 87 72 "/>
</clipPath>
</defs>
<g id="i2-surface11">
<g style="fill:rgb(0%,0%,0%);fill-opacity:1;">
  <use xlink:href="#i2-glyph0-1" x="72" y="79.472"/>
</g>
<g> <!-- clip-path="url(#clip1)" clip-rule="nonzero" -->
<g style="fill:rgb(0%,0%,0%);fill-opacity:1;">
  <use xlink:href="#i2-glyph1-1" x="76.311" y="79.472"/>
</g>
</g>
<g style="fill:rgb(0%,0%,0%);fill-opacity:1;">
  <use xlink:href="#i2-glyph0-2" x="80.186" y="79.472"/>
</g>
<g> <!-- clip-path="url(#clip2)" clip-rule="nonzero" -->
<g style="fill:rgb(0%,0%,0%);fill-opacity:1;">
  <use xlink:href="#i2-glyph2-1" x="83.783" y="80.967"/>
</g>
</g>
<g> <!-- clip-path="url(#clip3)" clip-rule="nonzero" -->
<g style="fill:rgb(0%,0%,0%);fill-opacity:1;">
  <use xlink:href="#i2-glyph1-2" x="87.1" y="79.472"/>
</g>
</g>
</g>
</g>
 </defs>
</svg>
