<?xml version="1.0" standalone="yes"?>
<!DOCTYPE svg PUBLIC "-//W3C//DTD SVG 1.1//EN"
  "http://www.w3.org/Graphics/SVG/1.1/DTD/svg11.dtd">
<svg version="1.1" xmlns="http://www.w3.org/2000/svg" xmlns:xlink="http://www.w3.org/1999/xlink" width="13.7773cm" height="46.5598mm" viewBox="-96.0563 -65.9903 390.538 131.981" fill="none" stroke="#ffffff" stroke-width="0" stroke-miterlimit="10">
 <g transform="scale(1.0, -1.0)">
  <path transform="matrix(0.965926 0.258819 -0.258819 0.965926 0 0)" d="M0.00 0.00H0.00" />
  <path transform="matrix(0.965926 0.258819 -0.258819 0.965926 0 0)" d="M60.12 -30.06C75.51 -22.36 85.04 -11.73 85.04 0.00C85.04 23.47 46.93 42.52 0.00 42.52C-46.93 42.52 -85.04 23.47 -85.04 0.00C-85.04 -11.73 -75.51 -22.36 -60.12 -30.06" fill="url(#g2)" stroke="none" />
  <path transform="matrix(0.965926 0.258819 -0.258819 0.965926 0 0)" d="M-85.04 -42.52H85.04V42.52H-85.04z" stroke="#000000" stroke-width="0.15" stroke-dasharray="5.66929 5.66929" />
  <path transform="matrix(0.965926 0.258819 -0.258819 0.965926 198.425 0)" d="M0.00 0.00H0.00" />
  <path transform="matrix(0.965926 0.258819 -0.258819 0.965926 198.425 0)" d="M60.12 -30.06C75.51 -22.36 85.04 -11.73 85.04 0.00C85.04 23.47 46.93 42.52 0.00 42.52C-46.93 42.52 -85.04 23.47 -85.04 0.00C-85.04 -11.73 -75.51 -22.36 -60.12 -30.06" fill="url(#g4)" stroke="none" />
  <path transform="matrix(0.965926 0.258819 -0.258819 0.965926 198.425 0)" d="M-85.04 -42.52H85.04V42.52H-85.04z" stroke="#000000" stroke-width="0.15" stroke-dasharray="5.66929 5.66929" />
 </g>
 <defs>
  <linearGradient id="g2" gradientUnits="userSpaceOnUse" x1="0" y1="0" x2="0" y2="85.0394" xlink:href="#g1" />
  <linearGradient id="g4" gradientUnits="userSpaceOnUse" x1="0" y1="0" x2="0" y2="85.0394" xlink:href="#g3" />
  <linearGradient id="g1" spreadMethod="repeat">
   <stop offset="0" stop-color="#ffffff" />
   <stop offset="0.0555556" stop-color="#e5e5e5" />
   <stop offset="0.111111" stop-color="#a3a3a3" />
   <stop offset="0.166667" stop-color="#5c5c5c" />
   <stop offset="0.222222" stop-color="#2c2c2c" />
   <stop offset="0.277778" stop-color="#141414" />
   <stop offset="0.333333" stop-color="#0b0b0b" />
   <stop offset="0.388889" stop-color="#060606" />
   <stop offset="0.444444" stop-color="#020202" />
   <stop offset="0.5" stop-color="#000000" />
   <stop offset="0.555556" stop-color="#020202" />
   <stop offset="0.611111" stop-color="#060606" />
   <stop offset="0.666667" stop-color="#0b0b0b" />
   <stop offset="0.722222" stop-color="#141414" />
   <stop offset="0.777778" stop-color="#2c2c2c" />
   <stop offset="0.833333" stop-color="#5c5c5c" />
   <stop offset="0.888889" stop-color="#a3a3a3" />
   <stop offset="0.944444" stop-color="#e5e5e5" />
   <stop offset="1" stop-color="#ffffff" />
  </linearGradient>
  <linearGradient id="g3" spreadMethod="repeat">
   <stop offset="0" stop-color="#ffffff" />
   <stop offset="0.0555556" stop-color="#fbfbfb" />
   <stop offset="0.111111" stop-color="#ededed" />
   <stop offset="0.166667" stop-color="#d7d7d7" />
   <stop offset="0.222222" stop-color="#b8b8b8" />
   <stop offset="0.277778" stop-color="#939393" />
   <stop offset="0.333333" stop-color="#6a6a6a" />
   <stop offset="0.388889" stop-color="#404040" />
   <stop offset="0.444444" stop-color="#191919" />
   <stop offset="0.5" stop-color="#000000" />
   <stop offset="0.555556" stop-color="#191919" />
   <stop offset="0.611111" stop-color="#404040" />
   <stop offset="0.666667" stop-color="#6a6a6a" />
   <stop offset="0.722222" stop-color="#939393" />
   <stop offset="0.777778" stop-color="#b8b8b8" />
   <stop offset="0.833333" stop-color="#d7d7d7" />
   <stop offset="0.888889" stop-color="#ededed" />
   <stop offset="0.944444" stop-color="#fbfbfb" />
   <stop offset="1" stop-color="#ffffff" />
  </linearGradient>
 </defs>
</svg>
