<?xml version="1.0" standalone="yes"?>
<!DOCTYPE svg PUBLIC "-//W3C//DTD SVG 1.1//EN"
  "http://www.w3.org/Graphics/SVG/1.1/DTD/svg11.dtd">
<svg version="1.1" xmlns="http://www.w3.org/2000/svg" xmlns:xlink="http://www.w3.org/1999/xlink" width="13.7773cm" height="46.5598mm" viewBox="-96.0563 -65.9903 390.538 131.981" fill="#4d3333" stroke="#000000" stroke-width="0.5" stroke-miterlimit="10">
 <g transform="scale(1.0, -1.0)">
  <path transform="matrix(0.965926 0.258819 -0.258819 0.965926 0 0)" d="M8.50 42.52C8.50 47.21 4.69 51.02 0.00 51.02C-4.69 51.02 -8.50 47.21 -8.50 42.52C-8.50 37.83 -4.69 34.02 0.00 34.02C4.69 34.02 8.50 37.83 8.50 42.52z" />
  <path transform="matrix(0.965926 0.258819 -0.258819 0.965926 0 0)" d="M-76.54 0.00C-76.54 4.69 -80.35 8.50 -85.04 8.50C-89.73 8.50 -93.54 4.69 -93.54 0.00C-93.54 -4.69 -89.73 -8.50 -85.04 -8.50C-80.35 -8.50 -76.54 -4.69 -76.54 0.00z" fill="#ffcdcd" />
  <path transform="matrix(0.965926 0.258819 -0.258819 0.965926 0 0)" d="M60.12 -30.06C75.51 -22.36 85.04 -11.73 85.04 0.00C85.04 23.47 46.93 42.52 0.00 42.52C-46.93 42.52 -85.04 23.47 -85.04 0.00C-85.04 -11.73 -75.51 -22.36 -60.12 -30.06" fill="url(#g2)" stroke="none" />
  <path transform="matrix(0.965926 0.258819 -0.258819 0.965926 0 0)" d="M-85.04 -42.52H85.04V42.52H-85.04z" fill="none" stroke-width="0.15" stroke-dasharray="5.66929 5.66929" />
  <path transform="matrix(0.965926 0.258819 -0.258819 0.965926 198.425 0)" d="M8.50 42.52C8.50 47.21 4.69 51.02 0.00 51.02C-4.69 51.02 -8.50 47.21 -8.50 42.52C-8.50 37.83 -4.69 34.02 0.00 34.02C4.69 34.02 8.50 37.83 8.50 42.52z" />
  <path transform="matrix(0.965926 0.258819 -0.258819 0.965926 198.425 0)" d="M-76.54 0.00C-76.54 4.69 -80.35 8.50 -85.04 8.50C-89.73 8.50 -93.54 4.69 -93.54 0.00C-93.54 -4.69 -89.73 -8.50 -85.04 -8.50C-80.35 -8.50 -76.54 -4.69 -76.54 0.00z" fill="#ffcdcd" />
  <path transform="matrix(0.965926 0.258819 -0.258819 0.965926 198.425 0)" d="M60.12 -30.06C75.51 -22.36 85.04 -11.73 85.04 0.00C85.04 23.47 46.93 42.52 0.00 42.52C-46.93 42.52 -85.04 23.47 -85.04 0.00C-85.04 -11.73 -75.51 -22.36 -60.12 -30.06" fill="url(#g4)" stroke="none" />
  <path transform="matrix(0.965926 0.258819 -0.258819 0.965926 198.425 0)" d="M-85.04 -42.52H85.04V42.52H-85.04z" fill="none" stroke-width="0.15" stroke-dasharray="5.66929 5.66929" />
 </g>
 <defs>
  <linearGradient id="g2" gradientUnits="userSpaceOnUse" x1="0" y1="0" x2="0" y2="85.0394" xlink:href="#g1" />
  <linearGradient id="g4" gradientUnits="userSpaceOnUse" x1="0" y1="0" x2="0" y2="85.0394" xlink:href="#g3" />
  <linearGradient id="g1" spreadMethod="repeat">
   <stop offset="0" stop-color="#ffcdcd" />
   <stop offset="0.0555556" stop-color="#edbcbc" />
   <stop offset="0.111111" stop-color="#bf9595" />
   <stop offset="0.166667" stop-color="#8d6b6b" />
   <stop offset="0.222222" stop-color="#6c4e4e" />
   <stop offset="0.277778" stop-color="#5b3f3f" />
   <stop offset="0.333333" stop-color="#553a3a" />
   <stop offset="0.388889" stop-color="#513737" />
   <stop offset="0.444444" stop-color="#4f3535" />
   <stop offset="0.5" stop-color="#4d3333" />
   <stop offset="0.555556" stop-color="#4f3535" />
   <stop offset="0.611111" stop-color="#513737" />
   <stop offset="0.666667" stop-color="#553a3a" />
   <stop offset="0.722222" stop-color="#5b3f3f" />
   <stop offset="0.777778" stop-color="#6c4e4e" />
   <stop offset="0.833333" stop-color="#8d6b6b" />
   <stop offset="0.888889" stop-color="#bf9595" />
   <stop offset="0.944444" stop-color="#edbcbc" />
   <stop offset="1" stop-color="#ffcdcd" />
  </linearGradient>
  <linearGradient id="g3" spreadMethod="repeat">
   <stop offset="0" stop-color="#ffcdcd" />
   <stop offset="0.0555556" stop-color="#fdcaca" />
   <stop offset="0.111111" stop-color="#f3c2c2" />
   <stop offset="0.166667" stop-color="#e3b4b4" />
   <stop offset="0.222222" stop-color="#cea2a2" />
   <stop offset="0.277778" stop-color="#b48b8b" />
   <stop offset="0.333333" stop-color="#977373" />
   <stop offset="0.388889" stop-color="#795959" />
   <stop offset="0.444444" stop-color="#5e4242" />
   <stop offset="0.5" stop-color="#4d3333" />
   <stop offset="0.555556" stop-color="#5e4242" />
   <stop offset="0.611111" stop-color="#795959" />
   <stop offset="0.666667" stop-color="#977373" />
   <stop offset="0.722222" stop-color="#b48b8b" />
   <stop offset="0.777778" stop-color="#cea2a2" />
   <stop offset="0.833333" stop-color="#e3b4b4" />
   <stop offset="0.888889" stop-color="#f3c2c2" />
   <stop offset="0.944444" stop-color="#fdcaca" />
   <stop offset="1" stop-color="#ffcdcd" />
  </linearGradient>
 </defs>
</svg>
