<?xml version="1.0" standalone="yes"?>
<!DOCTYPE svg PUBLIC "-//W3C//DTD SVG 1.1//EN"
  "http://www.w3.org/Graphics/SVG/1.1/DTD/svg11.dtd">
<svg version="1.1" xmlns="http://www.w3.org/2000/svg" xmlns:xlink="http://www.w3.org/1999/xlink" width="57.2302mm" height="66.0674mm" viewBox="-65.5819 -93.6388 162.227 187.278" fill="#aedadf" stroke="#000000" stroke-width="0.3" stroke-miterlimit="10">
 <g transform="scale(1.0, -1.0)">
  <path d="M11.46 -19.84H96.50V19.84L11.46 19.84L-31.06 93.49L-65.43 73.65L-22.91 0.00L-65.43 -73.65L-31.06 -93.49z" />
  <path d="M11.46 -19.84L11.46 19.84L-22.91 0.00z" fill="none" stroke-dasharray="2 2" />
  <use transform="matrix(0.5 0.866025 -0.866025 0.5 -43.2561 -79.9031)" xlink:href="#g6" />
  <use transform="matrix(0.5 -0.866025 0.866025 0.5 -47.5701 77.4124)" xlink:href="#g7" />
  <use transform="matrix(1 0 0 1 17.1254 -2.49067)" xlink:href="#g5" />
  <use xlink:href="#g10" />
  <use xlink:href="#g11" />
  <use xlink:href="#g12" />
  <path d="M1.50 0.00C1.50 0.83 0.83 1.50 0.00 1.50C-0.83 1.50 -1.50 0.83 -1.50 0.00C-1.50 -0.83 -0.83 -1.50 0.00 -1.50C0.83 -1.50 1.50 -0.83 1.50 0.00z" fill="#fb1708" stroke="none" />
 </g>
 <defs>
  <g id="g6" transform="translate(-72, 84.619)scale(1.0, -1.0)">
<defs>
<g>
<symbol overflow="visible" id="i6-glyph0-0">
<path style="stroke:none;" d=""/>
</symbol>
<symbol overflow="visible" id="i6-glyph0-1">
<path style="stroke:none;" d="M 8.453125 -1.421875 C 8.453125 -1.53125 8.359375 -1.53125 8.328125 -1.53125 C 8.234375 -1.53125 8.234375 -1.5 8.1875 -1.34375 C 8.03125 -0.8125 7.71875 -0.109375 7.171875 -0.109375 C 7 -0.109375 6.921875 -0.203125 6.921875 -0.4375 C 6.921875 -0.6875 7.015625 -0.921875 7.109375 -1.140625 C 7.296875 -1.671875 7.71875 -2.765625 7.71875 -3.34375 C 7.71875 -3.984375 7.3125 -4.40625 6.5625 -4.40625 C 5.828125 -4.40625 5.3125 -3.96875 4.9375 -3.4375 C 4.9375 -3.5625 4.90625 -3.90625 4.625 -4.140625 C 4.375 -4.359375 4.0625 -4.40625 3.8125 -4.40625 C 2.90625 -4.40625 2.421875 -3.765625 2.25 -3.53125 C 2.203125 -4.109375 1.78125 -4.40625 1.328125 -4.40625 C 0.875 -4.40625 0.6875 -4.015625 0.59375 -3.84375 C 0.421875 -3.484375 0.296875 -2.90625 0.296875 -2.875 C 0.296875 -2.765625 0.40625 -2.765625 0.40625 -2.765625 C 0.515625 -2.765625 0.515625 -2.78125 0.578125 -3 C 0.75 -3.703125 0.953125 -4.1875 1.3125 -4.1875 C 1.46875 -4.1875 1.609375 -4.109375 1.609375 -3.734375 C 1.609375 -3.515625 1.578125 -3.40625 1.453125 -2.890625 L 0.875 -0.59375 C 0.84375 -0.4375 0.78125 -0.203125 0.78125 -0.15625 C 0.78125 0.015625 0.921875 0.109375 1.078125 0.109375 C 1.203125 0.109375 1.375 0.03125 1.453125 -0.171875 C 1.453125 -0.1875 1.578125 -0.65625 1.640625 -0.90625 L 1.859375 -1.796875 C 1.90625 -2.03125 1.96875 -2.25 2.03125 -2.46875 L 2.15625 -2.96875 C 2.296875 -3.28125 2.828125 -4.1875 3.78125 -4.1875 C 4.234375 -4.1875 4.3125 -3.8125 4.3125 -3.484375 C 4.3125 -3.234375 4.25 -2.953125 4.171875 -2.65625 L 3.890625 -1.5 C 3.78125 -1.140625 3.78125 -1.078125 3.6875 -0.75 C 3.65625 -0.546875 3.5625 -0.203125 3.5625 -0.15625 C 3.5625 0.015625 3.703125 0.109375 3.84375 0.109375 C 4.15625 0.109375 4.21875 -0.140625 4.296875 -0.453125 L 4.890625 -2.859375 C 4.921875 -2.984375 5.453125 -4.1875 6.546875 -4.1875 C 6.96875 -4.1875 7.078125 -3.84375 7.078125 -3.484375 C 7.078125 -2.921875 6.65625 -1.78125 6.453125 -1.25 C 6.375 -1.015625 6.328125 -0.90625 6.328125 -0.703125 C 6.328125 -0.234375 6.671875 0.109375 7.140625 0.109375 C 8.078125 0.109375 8.453125 -1.34375 8.453125 -1.421875 Z M 8.453125 -1.421875 "/>
</symbol>
<symbol overflow="visible" id="i6-glyph0-2">
<path style="stroke:none;" d="M 7.15625 -0.203125 C 7.15625 -0.3125 7.0625 -0.3125 6.875 -0.3125 C 6.515625 -0.3125 6.234375 -0.3125 6.234375 -0.484375 C 6.234375 -0.546875 6.25 -0.59375 6.265625 -0.65625 L 7.609375 -6.046875 C 7.703125 -6.40625 7.71875 -6.5 8.4375 -6.5 C 8.703125 -6.5 8.78125 -6.5 8.78125 -6.703125 C 8.78125 -6.8125 8.671875 -6.8125 8.640625 -6.8125 L 7.359375 -6.78125 L 6.078125 -6.8125 C 6 -6.8125 5.890625 -6.8125 5.890625 -6.609375 C 5.890625 -6.5 5.984375 -6.5 6.171875 -6.5 C 6.171875 -6.5 6.375 -6.5 6.546875 -6.484375 C 6.734375 -6.453125 6.8125 -6.453125 6.8125 -6.3125 C 6.8125 -6.28125 6.8125 -6.265625 6.78125 -6.125 L 6.1875 -3.703125 L 3.140625 -3.703125 L 3.734375 -6.046875 C 3.8125 -6.40625 3.84375 -6.5 4.5625 -6.5 C 4.828125 -6.5 4.90625 -6.5 4.90625 -6.703125 C 4.90625 -6.8125 4.796875 -6.8125 4.765625 -6.8125 L 3.484375 -6.78125 L 2.203125 -6.8125 C 2.125 -6.8125 2.015625 -6.8125 2.015625 -6.609375 C 2.015625 -6.5 2.109375 -6.5 2.296875 -6.5 C 2.296875 -6.5 2.5 -6.5 2.671875 -6.484375 C 2.84375 -6.453125 2.9375 -6.453125 2.9375 -6.3125 C 2.9375 -6.28125 2.9375 -6.25 2.90625 -6.125 L 1.5625 -0.78125 C 1.46875 -0.390625 1.453125 -0.3125 0.65625 -0.3125 C 0.484375 -0.3125 0.390625 -0.3125 0.390625 -0.109375 C 0.390625 0 0.53125 0 0.53125 0 L 1.796875 -0.03125 L 2.4375 -0.015625 C 2.65625 -0.015625 2.875 0 3.078125 0 C 3.15625 0 3.28125 0 3.28125 -0.203125 C 3.28125 -0.3125 3.1875 -0.3125 3 -0.3125 C 2.625 -0.3125 2.359375 -0.3125 2.359375 -0.484375 C 2.359375 -0.546875 2.375 -0.59375 2.375 -0.65625 L 3.0625 -3.390625 L 6.09375 -3.390625 L 5.40625 -0.640625 C 5.3125 -0.3125 5.125 -0.3125 4.5 -0.3125 C 4.359375 -0.3125 4.265625 -0.3125 4.265625 -0.109375 C 4.265625 0 4.40625 0 4.40625 0 L 5.671875 -0.03125 L 6.3125 -0.015625 C 6.53125 -0.015625 6.75 0 6.953125 0 C 7.03125 0 7.15625 0 7.15625 -0.203125 Z M 7.15625 -0.203125 "/>
</symbol>
<symbol overflow="visible" id="i6-glyph0-3">
<path style="stroke:none;" d="M 5.4375 -1.421875 C 5.4375 -1.53125 5.359375 -1.53125 5.328125 -1.53125 C 5.21875 -1.53125 5.21875 -1.5 5.171875 -1.34375 C 5.03125 -0.8125 4.703125 -0.109375 4.15625 -0.109375 C 3.984375 -0.109375 3.921875 -0.203125 3.921875 -0.4375 C 3.921875 -0.6875 4 -0.921875 4.09375 -1.140625 C 4.25 -1.578125 4.703125 -2.765625 4.703125 -3.34375 C 4.703125 -3.984375 4.3125 -4.40625 3.5625 -4.40625 C 2.9375 -4.40625 2.453125 -4.09375 2.078125 -3.640625 L 2.859375 -6.8125 C 2.859375 -6.8125 2.859375 -6.921875 2.734375 -6.921875 C 2.5 -6.921875 1.78125 -6.84375 1.515625 -6.8125 C 1.4375 -6.8125 1.328125 -6.796875 1.328125 -6.625 C 1.328125 -6.5 1.421875 -6.5 1.5625 -6.5 C 2.046875 -6.5 2.0625 -6.4375 2.0625 -6.328125 L 2.03125 -6.125 L 0.59375 -0.390625 C 0.546875 -0.25 0.546875 -0.234375 0.546875 -0.171875 C 0.546875 0.0625 0.75 0.109375 0.84375 0.109375 C 1 0.109375 1.15625 -0.015625 1.203125 -0.15625 L 1.390625 -0.90625 L 1.609375 -1.796875 C 1.671875 -2.03125 1.734375 -2.25 1.78125 -2.46875 C 1.796875 -2.53125 1.890625 -2.859375 1.890625 -2.921875 C 1.921875 -3.015625 2.234375 -3.5625 2.578125 -3.84375 C 2.796875 -4 3.09375 -4.1875 3.53125 -4.1875 C 3.953125 -4.1875 4.0625 -3.84375 4.0625 -3.484375 C 4.0625 -2.953125 3.6875 -1.859375 3.453125 -1.25 C 3.375 -1.03125 3.3125 -0.90625 3.3125 -0.703125 C 3.3125 -0.234375 3.671875 0.109375 4.140625 0.109375 C 5.078125 0.109375 5.4375 -1.34375 5.4375 -1.421875 Z M 5.4375 -1.421875 "/>
</symbol>
<symbol overflow="visible" id="i6-glyph1-0">
<path style="stroke:none;" d=""/>
</symbol>
<symbol overflow="visible" id="i6-glyph1-1">
<path style="stroke:none;" d="M 4.15625 0 L 4.15625 -0.25 C 3.703125 -0.25 3.640625 -0.25 3.640625 -0.546875 L 3.640625 -4.84375 C 3.578125 -4.828125 3.375 -4.796875 3.359375 -4.796875 C 3.359375 -4.796875 3.328125 -4.796875 3.296875 -4.8125 C 3.03125 -4.90625 2.734375 -4.90625 2.609375 -4.90625 C 1.75 -4.90625 0.859375 -4.53125 0.859375 -3.765625 L 0.859375 -3 L 0.265625 -3 L 0.265625 -2.75 L 0.859375 -2.75 L 0.859375 -0.546875 C 0.859375 -0.25 0.796875 -0.25 0.34375 -0.25 L 0.34375 0 C 0.34375 0 0.84375 -0.03125 1.125 -0.03125 C 1.390625 -0.03125 1.640625 -0.015625 1.90625 0 L 1.90625 -0.25 C 1.453125 -0.25 1.390625 -0.25 1.390625 -0.546875 L 1.390625 -2.75 L 3.109375 -2.75 L 3.109375 -0.546875 C 3.109375 -0.25 3.046875 -0.25 2.59375 -0.25 L 2.59375 0 C 2.59375 0 3.09375 -0.03125 3.375 -0.03125 C 3.640625 -0.03125 3.890625 -0.015625 4.15625 0 Z M 3.109375 -3 L 1.359375 -3 L 1.359375 -3.765625 C 1.359375 -4.375 1.9375 -4.703125 2.59375 -4.703125 C 2.78125 -4.703125 2.90625 -4.703125 3.09375 -4.65625 C 3 -4.609375 2.953125 -4.5 2.953125 -4.390625 C 2.953125 -4.359375 2.96875 -4.203125 3.109375 -4.125 Z M 3.109375 -3 "/>
</symbol>
<symbol overflow="visible" id="i6-glyph1-2">
<path style="stroke:none;" d="M 3.6875 -1.484375 C 3.6875 -2.359375 2.9375 -3.109375 1.984375 -3.109375 C 1.015625 -3.109375 0.265625 -2.359375 0.265625 -1.484375 C 0.265625 -0.625 1.03125 0.0625 1.984375 0.0625 C 2.921875 0.0625 3.6875 -0.625 3.6875 -1.484375 Z M 3.046875 -1.546875 C 3.046875 -1.21875 3.03125 -0.84375 2.828125 -0.5625 C 2.640625 -0.296875 2.328125 -0.15625 1.984375 -0.15625 C 1.71875 -0.15625 1.34375 -0.234375 1.109375 -0.578125 C 0.921875 -0.859375 0.90625 -1.21875 0.90625 -1.546875 C 0.90625 -1.84375 0.90625 -2.265625 1.15625 -2.5625 C 1.328125 -2.765625 1.625 -2.90625 1.984375 -2.90625 C 2.390625 -2.90625 2.6875 -2.71875 2.84375 -2.5 C 3.03125 -2.234375 3.046875 -1.875 3.046875 -1.546875 Z M 3.046875 -1.546875 "/>
</symbol>
<symbol overflow="visible" id="i6-glyph1-3">
<path style="stroke:none;" d="M 5.46875 -2.75 L 5.46875 -3 C 5.28125 -2.984375 5.15625 -2.96875 4.96875 -2.96875 C 4.75 -2.96875 4.484375 -2.984375 4.28125 -3 L 4.28125 -2.75 C 4.515625 -2.75 4.640625 -2.609375 4.640625 -2.453125 C 4.640625 -2.390625 4.640625 -2.375 4.59375 -2.28125 L 3.921875 -0.546875 L 3.171875 -2.453125 C 3.15625 -2.484375 3.140625 -2.53125 3.140625 -2.578125 C 3.140625 -2.734375 3.3125 -2.75 3.515625 -2.75 L 3.515625 -3 C 3.265625 -2.984375 3.015625 -2.96875 2.765625 -2.96875 C 2.5625 -2.96875 2.34375 -2.984375 2.140625 -3 L 2.140625 -2.75 C 2.3125 -2.75 2.453125 -2.75 2.546875 -2.703125 C 2.640625 -2.625 2.703125 -2.390625 2.703125 -2.390625 C 2.703125 -2.390625 2.6875 -2.328125 2.671875 -2.3125 L 2.015625 -0.640625 L 1.3125 -2.453125 C 1.28125 -2.546875 1.28125 -2.546875 1.28125 -2.578125 C 1.28125 -2.75 1.53125 -2.75 1.65625 -2.75 L 1.65625 -3 C 1.65625 -3 1.140625 -2.96875 0.859375 -2.96875 C 0.640625 -2.96875 0.421875 -2.984375 0.203125 -3 L 0.203125 -2.75 C 0.484375 -2.75 0.640625 -2.75 0.703125 -2.546875 L 1.671875 -0.09375 C 1.71875 0.015625 1.734375 0.0625 1.875 0.0625 C 2 0.0625 2.015625 0.015625 2.046875 -0.078125 L 2.84375 -2.0625 L 3.609375 -0.09375 C 3.65625 0 3.671875 0.0625 3.8125 0.0625 C 3.9375 0.0625 3.953125 0.015625 4 -0.09375 L 4.875 -2.328125 C 5.015625 -2.671875 5.25 -2.75 5.46875 -2.75 Z M 5.46875 -2.75 "/>
</symbol>
<symbol overflow="visible" id="i6-glyph1-4">
<path style="stroke:none;" d="M 3.296875 0 L 3.296875 -0.25 L 3.03125 -0.25 C 2.328125 -0.25 2.328125 -0.34375 2.328125 -0.578125 L 2.328125 -4.4375 C 2.328125 -4.625 2.328125 -4.625 2.125 -4.625 C 1.671875 -4.1875 1.046875 -4.1875 0.765625 -4.1875 L 0.765625 -3.9375 C 0.921875 -3.9375 1.390625 -3.9375 1.765625 -4.125 L 1.765625 -0.578125 C 1.765625 -0.34375 1.765625 -0.25 1.078125 -0.25 L 0.8125 -0.25 L 0.8125 0 L 2.046875 -0.03125 Z M 3.296875 0 "/>
</symbol>
<symbol overflow="visible" id="i6-glyph1-5">
<path style="stroke:none;" d="M 6.25 0 L 6.25 -0.25 C 5.796875 -0.25 5.734375 -0.25 5.734375 -0.546875 L 5.734375 -2.109375 C 5.734375 -2.71875 5.421875 -3.078125 4.6875 -3.078125 C 4.125 -3.078125 3.75 -2.78125 3.5625 -2.421875 C 3.421875 -2.921875 3.046875 -3.078125 2.546875 -3.078125 C 1.96875 -3.078125 1.609375 -2.765625 1.40625 -2.390625 L 1.40625 -3.078125 L 0.375 -3 L 0.375 -2.75 C 0.84375 -2.75 0.90625 -2.703125 0.90625 -2.359375 L 0.90625 -0.546875 C 0.90625 -0.25 0.828125 -0.25 0.375 -0.25 L 0.375 0 C 0.375 0 0.875 -0.03125 1.171875 -0.03125 C 1.421875 -0.03125 1.90625 0 1.96875 0 L 1.96875 -0.25 C 1.515625 -0.25 1.453125 -0.25 1.453125 -0.546875 L 1.453125 -1.8125 C 1.453125 -2.53125 2.03125 -2.875 2.484375 -2.875 C 2.96875 -2.875 3.03125 -2.5 3.03125 -2.140625 L 3.03125 -0.546875 C 3.03125 -0.25 2.96875 -0.25 2.515625 -0.25 L 2.515625 0 C 2.515625 0 3.015625 -0.03125 3.3125 -0.03125 C 3.5625 -0.03125 4.046875 0 4.109375 0 L 4.109375 -0.25 C 3.65625 -0.25 3.59375 -0.25 3.59375 -0.546875 L 3.59375 -1.8125 C 3.59375 -2.53125 4.171875 -2.875 4.625 -2.875 C 5.109375 -2.875 5.171875 -2.5 5.171875 -2.140625 L 5.171875 -0.546875 C 5.171875 -0.25 5.109375 -0.25 4.65625 -0.25 L 4.65625 0 C 4.65625 0 5.15625 -0.03125 5.453125 -0.03125 C 5.703125 -0.03125 6.1875 0 6.25 0 Z M 6.25 0 "/>
</symbol>
<symbol overflow="visible" id="i6-glyph1-6">
<path style="stroke:none;" d="M 1.90625 0 L 1.90625 -0.25 C 1.5 -0.25 1.4375 -0.25 1.4375 -0.546875 L 1.4375 -3.078125 L 0.40625 -3 L 0.40625 -2.75 C 0.84375 -2.75 0.90625 -2.703125 0.90625 -2.359375 L 0.90625 -0.546875 C 0.90625 -0.25 0.84375 -0.25 0.390625 -0.25 L 0.390625 0 C 0.390625 0 0.890625 -0.03125 1.171875 -0.03125 C 1.421875 -0.03125 1.671875 -0.015625 1.90625 0 Z M 1.53125 -4.1875 C 1.53125 -4.421875 1.359375 -4.59375 1.125 -4.59375 C 0.890625 -4.59375 0.734375 -4.40625 0.734375 -4.203125 C 0.734375 -3.984375 0.90625 -3.796875 1.125 -3.796875 C 1.359375 -3.796875 1.53125 -4 1.53125 -4.1875 Z M 1.53125 -4.1875 "/>
</symbol>
<symbol overflow="visible" id="i6-glyph1-7">
<path style="stroke:none;" d="M 4 0 L 4 -0.25 C 3.53125 -0.25 3.484375 -0.296875 3.3125 -0.46875 L 2.359375 -1.5625 L 2.3125 -1.625 C 2.3125 -1.65625 2.765625 -2.140625 2.828125 -2.203125 C 3.078125 -2.484375 3.3125 -2.75 3.875 -2.75 L 3.875 -3 C 3.671875 -2.984375 3.46875 -2.96875 3.28125 -2.96875 C 3.078125 -2.96875 2.796875 -2.984375 2.59375 -3 L 2.59375 -2.75 C 2.703125 -2.734375 2.734375 -2.65625 2.734375 -2.59375 C 2.734375 -2.59375 2.734375 -2.46875 2.625 -2.359375 L 2.140625 -1.8125 L 1.5625 -2.46875 C 1.484375 -2.546875 1.484375 -2.578125 1.484375 -2.609375 C 1.484375 -2.703125 1.578125 -2.75 1.671875 -2.75 L 1.671875 -3 C 1.421875 -2.984375 1.15625 -2.96875 0.890625 -2.96875 C 0.6875 -2.96875 0.421875 -2.984375 0.21875 -3 L 0.21875 -2.75 C 0.53125 -2.75 0.71875 -2.75 0.90625 -2.546875 L 1.765625 -1.546875 L 1.828125 -1.46875 C 1.828125 -1.453125 1.296875 -0.875 1.234375 -0.796875 C 0.96875 -0.515625 0.734375 -0.265625 0.1875 -0.25 L 0.1875 0 C 0.390625 -0.015625 0.546875 -0.03125 0.765625 -0.03125 C 0.96875 -0.03125 1.25 -0.015625 1.453125 0 L 1.453125 -0.25 C 1.375 -0.265625 1.3125 -0.3125 1.3125 -0.40625 C 1.3125 -0.546875 1.390625 -0.640625 1.5 -0.75 L 2 -1.296875 L 2.59375 -0.59375 C 2.734375 -0.453125 2.734375 -0.4375 2.734375 -0.390625 C 2.734375 -0.265625 2.578125 -0.25 2.546875 -0.25 L 2.546875 0 C 2.609375 0 3.109375 -0.03125 3.328125 -0.03125 C 3.546875 -0.03125 3.78125 -0.015625 4 0 Z M 4 0 "/>
</symbol>
<symbol overflow="visible" id="i6-glyph2-0">
<path style="stroke:none;" d=""/>
</symbol>
<symbol overflow="visible" id="i6-glyph2-1">
<path style="stroke:none;" d="M 1.671875 -0.046875 C 1.671875 -0.46875 1.5 -0.796875 1.171875 -0.796875 C 0.953125 -0.796875 0.78125 -0.625 0.78125 -0.40625 C 0.78125 -0.1875 0.9375 0 1.1875 0 C 1.359375 0 1.46875 -0.109375 1.46875 -0.109375 C 1.46875 0.265625 1.40625 0.71875 0.921875 1.15625 C 0.90625 1.1875 0.875 1.21875 0.875 1.25 C 0.875 1.296875 0.9375 1.34375 0.96875 1.34375 C 1.078125 1.34375 1.671875 0.78125 1.671875 -0.046875 Z M 1.671875 -0.046875 "/>
</symbol>
<symbol overflow="visible" id="i6-glyph3-0">
<path style="stroke:none;" d=""/>
</symbol>
<symbol overflow="visible" id="i6-glyph3-1">
<path style="stroke:none;" d="M 2.03125 -0.015625 C 2.03125 -0.640625 1.78125 -1.0625 1.390625 -1.0625 C 1.03125 -1.0625 0.859375 -0.78125 0.859375 -0.53125 C 0.859375 -0.265625 1.03125 0 1.390625 0 C 1.53125 0 1.671875 -0.0625 1.78125 -0.15625 C 1.796875 0.625 1.53125 1.234375 1.09375 1.703125 C 1.03125 1.765625 1.015625 1.78125 1.015625 1.8125 C 1.015625 1.890625 1.0625 1.921875 1.109375 1.921875 C 1.234375 1.921875 2.03125 1.140625 2.03125 -0.015625 Z M 2.03125 -0.015625 "/>
</symbol>
</g>
<clipPath id="i6-clip1">
  <path d="M 132 87 L 145.699219 87 L 145.699219 92.257812 L 132 92.257812 Z M 132 87 "/>
</clipPath>
</defs>
<g id="i6-surface31">
<g style="fill:rgb(0%,0%,0%);fill-opacity:1;">
  <use xlink:href="#i6-glyph0-1" x="81.003" y="78.807"/>
</g>
<g style="fill:rgb(0%,0%,0%);fill-opacity:1;">
  <use xlink:href="#i6-glyph1-1" x="89.751" y="80.302"/>
  <use xlink:href="#i6-glyph1-2" x="94.262351" y="80.302"/>
</g>
<g style="fill:rgb(0%,0%,0%);fill-opacity:1;">
  <use xlink:href="#i6-glyph1-3" x="98.017045" y="80.302"/>
</g>
<g style="fill:rgb(0%,0%,0%);fill-opacity:1;">
  <use xlink:href="#i6-glyph2-1" x="103.706" y="80.302"/>
</g>
<g style="fill:rgb(0%,0%,0%);fill-opacity:1;">
  <use xlink:href="#i6-glyph1-4" x="106.072" y="80.302"/>
</g>
<g style="fill:rgb(0%,0%,0%);fill-opacity:1;">
  <use xlink:href="#i6-glyph3-1" x="110.541" y="78.807"/>
</g>
<g style="fill:rgb(0%,0%,0%);fill-opacity:1;">
  <use xlink:href="#i6-glyph0-2" x="116.629" y="78.807"/>
</g>
<g style="fill:rgb(0%,0%,0%);fill-opacity:1;">
  <use xlink:href="#i6-glyph1-1" x="124.911" y="80.302"/>
  <use xlink:href="#i6-glyph1-2" x="129.422351" y="80.302"/>
</g>
<g style="fill:rgb(0%,0%,0%);fill-opacity:1;">
  <use xlink:href="#i6-glyph1-3" x="133.177045" y="80.302"/>
</g>
<g style="fill:rgb(0%,0%,0%);fill-opacity:1;">
  <use xlink:href="#i6-glyph2-1" x="138.865" y="80.302"/>
</g>
<g style="fill:rgb(0%,0%,0%);fill-opacity:1;">
  <use xlink:href="#i6-glyph1-4" x="141.232" y="80.302"/>
</g>
<g style="fill:rgb(0%,0%,0%);fill-opacity:1;">
  <use xlink:href="#i6-glyph0-3" x="126.465" y="90.763"/>
</g>
<g> <!-- clip-path="url(#clip1)" clip-rule="nonzero" -->
<g style="fill:rgb(0%,0%,0%);fill-opacity:1;">
  <use xlink:href="#i6-glyph1-5" x="132.205" y="92.257"/>
  <use xlink:href="#i6-glyph1-6" x="138.749911" y="92.257"/>
  <use xlink:href="#i6-glyph1-7" x="141.005238" y="92.257"/>
</g>
</g>
</g>
</g>
  <g id="g7" transform="translate(-72, 84.619)scale(1.0, -1.0)">
<defs>
<g>
<symbol overflow="visible" id="i7-glyph0-0">
<path style="stroke:none;" d=""/>
</symbol>
<symbol overflow="visible" id="i7-glyph0-1">
<path style="stroke:none;" d="M 8.453125 -1.421875 C 8.453125 -1.53125 8.359375 -1.53125 8.328125 -1.53125 C 8.234375 -1.53125 8.234375 -1.5 8.1875 -1.34375 C 8.03125 -0.8125 7.71875 -0.109375 7.171875 -0.109375 C 7 -0.109375 6.921875 -0.203125 6.921875 -0.4375 C 6.921875 -0.6875 7.015625 -0.921875 7.109375 -1.140625 C 7.296875 -1.671875 7.71875 -2.765625 7.71875 -3.34375 C 7.71875 -3.984375 7.3125 -4.40625 6.5625 -4.40625 C 5.828125 -4.40625 5.3125 -3.96875 4.9375 -3.4375 C 4.9375 -3.5625 4.90625 -3.90625 4.625 -4.140625 C 4.375 -4.359375 4.0625 -4.40625 3.8125 -4.40625 C 2.90625 -4.40625 2.421875 -3.765625 2.25 -3.53125 C 2.203125 -4.109375 1.78125 -4.40625 1.328125 -4.40625 C 0.875 -4.40625 0.6875 -4.015625 0.59375 -3.84375 C 0.421875 -3.484375 0.296875 -2.90625 0.296875 -2.875 C 0.296875 -2.765625 0.40625 -2.765625 0.40625 -2.765625 C 0.515625 -2.765625 0.515625 -2.78125 0.578125 -3 C 0.75 -3.703125 0.953125 -4.1875 1.3125 -4.1875 C 1.46875 -4.1875 1.609375 -4.109375 1.609375 -3.734375 C 1.609375 -3.515625 1.578125 -3.40625 1.453125 -2.890625 L 0.875 -0.59375 C 0.84375 -0.4375 0.78125 -0.203125 0.78125 -0.15625 C 0.78125 0.015625 0.921875 0.109375 1.078125 0.109375 C 1.203125 0.109375 1.375 0.03125 1.453125 -0.171875 C 1.453125 -0.1875 1.578125 -0.65625 1.640625 -0.90625 L 1.859375 -1.796875 C 1.90625 -2.03125 1.96875 -2.25 2.03125 -2.46875 L 2.15625 -2.96875 C 2.296875 -3.28125 2.828125 -4.1875 3.78125 -4.1875 C 4.234375 -4.1875 4.3125 -3.8125 4.3125 -3.484375 C 4.3125 -3.234375 4.25 -2.953125 4.171875 -2.65625 L 3.890625 -1.5 C 3.78125 -1.140625 3.78125 -1.078125 3.6875 -0.75 C 3.65625 -0.546875 3.5625 -0.203125 3.5625 -0.15625 C 3.5625 0.015625 3.703125 0.109375 3.84375 0.109375 C 4.15625 0.109375 4.21875 -0.140625 4.296875 -0.453125 L 4.890625 -2.859375 C 4.921875 -2.984375 5.453125 -4.1875 6.546875 -4.1875 C 6.96875 -4.1875 7.078125 -3.84375 7.078125 -3.484375 C 7.078125 -2.921875 6.65625 -1.78125 6.453125 -1.25 C 6.375 -1.015625 6.328125 -0.90625 6.328125 -0.703125 C 6.328125 -0.234375 6.671875 0.109375 7.140625 0.109375 C 8.078125 0.109375 8.453125 -1.34375 8.453125 -1.421875 Z M 8.453125 -1.421875 "/>
</symbol>
<symbol overflow="visible" id="i7-glyph0-2">
<path style="stroke:none;" d="M 7.15625 -0.203125 C 7.15625 -0.3125 7.0625 -0.3125 6.875 -0.3125 C 6.515625 -0.3125 6.234375 -0.3125 6.234375 -0.484375 C 6.234375 -0.546875 6.25 -0.59375 6.265625 -0.65625 L 7.609375 -6.046875 C 7.703125 -6.40625 7.71875 -6.5 8.4375 -6.5 C 8.703125 -6.5 8.78125 -6.5 8.78125 -6.703125 C 8.78125 -6.8125 8.671875 -6.8125 8.640625 -6.8125 L 7.359375 -6.78125 L 6.078125 -6.8125 C 6 -6.8125 5.890625 -6.8125 5.890625 -6.609375 C 5.890625 -6.5 5.984375 -6.5 6.171875 -6.5 C 6.171875 -6.5 6.375 -6.5 6.546875 -6.484375 C 6.734375 -6.453125 6.8125 -6.453125 6.8125 -6.3125 C 6.8125 -6.28125 6.8125 -6.265625 6.78125 -6.125 L 6.1875 -3.703125 L 3.140625 -3.703125 L 3.734375 -6.046875 C 3.8125 -6.40625 3.84375 -6.5 4.5625 -6.5 C 4.828125 -6.5 4.90625 -6.5 4.90625 -6.703125 C 4.90625 -6.8125 4.796875 -6.8125 4.765625 -6.8125 L 3.484375 -6.78125 L 2.203125 -6.8125 C 2.125 -6.8125 2.015625 -6.8125 2.015625 -6.609375 C 2.015625 -6.5 2.109375 -6.5 2.296875 -6.5 C 2.296875 -6.5 2.5 -6.5 2.671875 -6.484375 C 2.84375 -6.453125 2.9375 -6.453125 2.9375 -6.3125 C 2.9375 -6.28125 2.9375 -6.25 2.90625 -6.125 L 1.5625 -0.78125 C 1.46875 -0.390625 1.453125 -0.3125 0.65625 -0.3125 C 0.484375 -0.3125 0.390625 -0.3125 0.390625 -0.109375 C 0.390625 0 0.53125 0 0.53125 0 L 1.796875 -0.03125 L 2.4375 -0.015625 C 2.65625 -0.015625 2.875 0 3.078125 0 C 3.15625 0 3.28125 0 3.28125 -0.203125 C 3.28125 -0.3125 3.1875 -0.3125 3 -0.3125 C 2.625 -0.3125 2.359375 -0.3125 2.359375 -0.484375 C 2.359375 -0.546875 2.375 -0.59375 2.375 -0.65625 L 3.0625 -3.390625 L 6.09375 -3.390625 L 5.40625 -0.640625 C 5.3125 -0.3125 5.125 -0.3125 4.5 -0.3125 C 4.359375 -0.3125 4.265625 -0.3125 4.265625 -0.109375 C 4.265625 0 4.40625 0 4.40625 0 L 5.671875 -0.03125 L 6.3125 -0.015625 C 6.53125 -0.015625 6.75 0 6.953125 0 C 7.03125 0 7.15625 0 7.15625 -0.203125 Z M 7.15625 -0.203125 "/>
</symbol>
<symbol overflow="visible" id="i7-glyph0-3">
<path style="stroke:none;" d="M 5.4375 -1.421875 C 5.4375 -1.53125 5.359375 -1.53125 5.328125 -1.53125 C 5.21875 -1.53125 5.21875 -1.5 5.171875 -1.34375 C 5.03125 -0.8125 4.703125 -0.109375 4.15625 -0.109375 C 3.984375 -0.109375 3.921875 -0.203125 3.921875 -0.4375 C 3.921875 -0.6875 4 -0.921875 4.09375 -1.140625 C 4.25 -1.578125 4.703125 -2.765625 4.703125 -3.34375 C 4.703125 -3.984375 4.3125 -4.40625 3.5625 -4.40625 C 2.9375 -4.40625 2.453125 -4.09375 2.078125 -3.640625 L 2.859375 -6.8125 C 2.859375 -6.8125 2.859375 -6.921875 2.734375 -6.921875 C 2.5 -6.921875 1.78125 -6.84375 1.515625 -6.8125 C 1.4375 -6.8125 1.328125 -6.796875 1.328125 -6.625 C 1.328125 -6.5 1.421875 -6.5 1.5625 -6.5 C 2.046875 -6.5 2.0625 -6.4375 2.0625 -6.328125 L 2.03125 -6.125 L 0.59375 -0.390625 C 0.546875 -0.25 0.546875 -0.234375 0.546875 -0.171875 C 0.546875 0.0625 0.75 0.109375 0.84375 0.109375 C 1 0.109375 1.15625 -0.015625 1.203125 -0.15625 L 1.390625 -0.90625 L 1.609375 -1.796875 C 1.671875 -2.03125 1.734375 -2.25 1.78125 -2.46875 C 1.796875 -2.53125 1.890625 -2.859375 1.890625 -2.921875 C 1.921875 -3.015625 2.234375 -3.5625 2.578125 -3.84375 C 2.796875 -4 3.09375 -4.1875 3.53125 -4.1875 C 3.953125 -4.1875 4.0625 -3.84375 4.0625 -3.484375 C 4.0625 -2.953125 3.6875 -1.859375 3.453125 -1.25 C 3.375 -1.03125 3.3125 -0.90625 3.3125 -0.703125 C 3.3125 -0.234375 3.671875 0.109375 4.140625 0.109375 C 5.078125 0.109375 5.4375 -1.34375 5.4375 -1.421875 Z M 5.4375 -1.421875 "/>
</symbol>
<symbol overflow="visible" id="i7-glyph1-0">
<path style="stroke:none;" d=""/>
</symbol>
<symbol overflow="visible" id="i7-glyph1-1">
<path style="stroke:none;" d="M 4.15625 0 L 4.15625 -0.25 C 3.703125 -0.25 3.640625 -0.25 3.640625 -0.546875 L 3.640625 -4.84375 C 3.578125 -4.828125 3.375 -4.796875 3.359375 -4.796875 C 3.359375 -4.796875 3.328125 -4.796875 3.296875 -4.8125 C 3.03125 -4.90625 2.734375 -4.90625 2.609375 -4.90625 C 1.75 -4.90625 0.859375 -4.53125 0.859375 -3.765625 L 0.859375 -3 L 0.265625 -3 L 0.265625 -2.75 L 0.859375 -2.75 L 0.859375 -0.546875 C 0.859375 -0.25 0.796875 -0.25 0.34375 -0.25 L 0.34375 0 C 0.34375 0 0.84375 -0.03125 1.125 -0.03125 C 1.390625 -0.03125 1.640625 -0.015625 1.90625 0 L 1.90625 -0.25 C 1.453125 -0.25 1.390625 -0.25 1.390625 -0.546875 L 1.390625 -2.75 L 3.109375 -2.75 L 3.109375 -0.546875 C 3.109375 -0.25 3.046875 -0.25 2.59375 -0.25 L 2.59375 0 C 2.59375 0 3.09375 -0.03125 3.375 -0.03125 C 3.640625 -0.03125 3.890625 -0.015625 4.15625 0 Z M 3.109375 -3 L 1.359375 -3 L 1.359375 -3.765625 C 1.359375 -4.375 1.9375 -4.703125 2.59375 -4.703125 C 2.78125 -4.703125 2.90625 -4.703125 3.09375 -4.65625 C 3 -4.609375 2.953125 -4.5 2.953125 -4.390625 C 2.953125 -4.359375 2.96875 -4.203125 3.109375 -4.125 Z M 3.109375 -3 "/>
</symbol>
<symbol overflow="visible" id="i7-glyph1-2">
<path style="stroke:none;" d="M 3.6875 -1.484375 C 3.6875 -2.359375 2.9375 -3.109375 1.984375 -3.109375 C 1.015625 -3.109375 0.265625 -2.359375 0.265625 -1.484375 C 0.265625 -0.625 1.03125 0.0625 1.984375 0.0625 C 2.921875 0.0625 3.6875 -0.625 3.6875 -1.484375 Z M 3.046875 -1.546875 C 3.046875 -1.21875 3.03125 -0.84375 2.828125 -0.5625 C 2.640625 -0.296875 2.328125 -0.15625 1.984375 -0.15625 C 1.71875 -0.15625 1.34375 -0.234375 1.109375 -0.578125 C 0.921875 -0.859375 0.90625 -1.21875 0.90625 -1.546875 C 0.90625 -1.84375 0.90625 -2.265625 1.15625 -2.5625 C 1.328125 -2.765625 1.625 -2.90625 1.984375 -2.90625 C 2.390625 -2.90625 2.6875 -2.71875 2.84375 -2.5 C 3.03125 -2.234375 3.046875 -1.875 3.046875 -1.546875 Z M 3.046875 -1.546875 "/>
</symbol>
<symbol overflow="visible" id="i7-glyph1-3">
<path style="stroke:none;" d="M 5.46875 -2.75 L 5.46875 -3 C 5.28125 -2.984375 5.15625 -2.96875 4.96875 -2.96875 C 4.75 -2.96875 4.484375 -2.984375 4.28125 -3 L 4.28125 -2.75 C 4.515625 -2.75 4.640625 -2.609375 4.640625 -2.453125 C 4.640625 -2.390625 4.640625 -2.375 4.59375 -2.28125 L 3.921875 -0.546875 L 3.171875 -2.453125 C 3.15625 -2.484375 3.140625 -2.53125 3.140625 -2.578125 C 3.140625 -2.734375 3.3125 -2.75 3.515625 -2.75 L 3.515625 -3 C 3.265625 -2.984375 3.015625 -2.96875 2.765625 -2.96875 C 2.5625 -2.96875 2.34375 -2.984375 2.140625 -3 L 2.140625 -2.75 C 2.3125 -2.75 2.453125 -2.75 2.546875 -2.703125 C 2.640625 -2.625 2.703125 -2.390625 2.703125 -2.390625 C 2.703125 -2.390625 2.6875 -2.328125 2.671875 -2.3125 L 2.015625 -0.640625 L 1.3125 -2.453125 C 1.28125 -2.546875 1.28125 -2.546875 1.28125 -2.578125 C 1.28125 -2.75 1.53125 -2.75 1.65625 -2.75 L 1.65625 -3 C 1.65625 -3 1.140625 -2.96875 0.859375 -2.96875 C 0.640625 -2.96875 0.421875 -2.984375 0.203125 -3 L 0.203125 -2.75 C 0.484375 -2.75 0.640625 -2.75 0.703125 -2.546875 L 1.671875 -0.09375 C 1.71875 0.015625 1.734375 0.0625 1.875 0.0625 C 2 0.0625 2.015625 0.015625 2.046875 -0.078125 L 2.84375 -2.0625 L 3.609375 -0.09375 C 3.65625 0 3.671875 0.0625 3.8125 0.0625 C 3.9375 0.0625 3.953125 0.015625 4 -0.09375 L 4.875 -2.328125 C 5.015625 -2.671875 5.25 -2.75 5.46875 -2.75 Z M 5.46875 -2.75 "/>
</symbol>
<symbol overflow="visible" id="i7-glyph1-4">
<path style="stroke:none;" d="M 3.515625 -1.265625 L 3.28125 -1.265625 C 3.265625 -1.109375 3.1875 -0.703125 3.09375 -0.640625 C 3.046875 -0.59375 2.515625 -0.59375 2.40625 -0.59375 L 1.125 -0.59375 C 1.859375 -1.234375 2.109375 -1.4375 2.515625 -1.765625 C 3.03125 -2.171875 3.515625 -2.609375 3.515625 -3.265625 C 3.515625 -4.109375 2.78125 -4.625 1.890625 -4.625 C 1.03125 -4.625 0.4375 -4.015625 0.4375 -3.375 C 0.4375 -3.03125 0.734375 -2.984375 0.8125 -2.984375 C 0.96875 -2.984375 1.171875 -3.109375 1.171875 -3.359375 C 1.171875 -3.484375 1.125 -3.734375 0.765625 -3.734375 C 0.984375 -4.21875 1.453125 -4.375 1.78125 -4.375 C 2.484375 -4.375 2.84375 -3.828125 2.84375 -3.265625 C 2.84375 -2.65625 2.40625 -2.1875 2.1875 -1.9375 L 0.515625 -0.265625 C 0.4375 -0.203125 0.4375 -0.1875 0.4375 0 L 3.3125 0 Z M 3.515625 -1.265625 "/>
</symbol>
<symbol overflow="visible" id="i7-glyph1-5">
<path style="stroke:none;" d="M 6.25 0 L 6.25 -0.25 C 5.796875 -0.25 5.734375 -0.25 5.734375 -0.546875 L 5.734375 -2.109375 C 5.734375 -2.71875 5.421875 -3.078125 4.6875 -3.078125 C 4.125 -3.078125 3.75 -2.78125 3.5625 -2.421875 C 3.421875 -2.921875 3.046875 -3.078125 2.546875 -3.078125 C 1.96875 -3.078125 1.609375 -2.765625 1.40625 -2.390625 L 1.40625 -3.078125 L 0.375 -3 L 0.375 -2.75 C 0.84375 -2.75 0.90625 -2.703125 0.90625 -2.359375 L 0.90625 -0.546875 C 0.90625 -0.25 0.828125 -0.25 0.375 -0.25 L 0.375 0 C 0.375 0 0.875 -0.03125 1.171875 -0.03125 C 1.421875 -0.03125 1.90625 0 1.96875 0 L 1.96875 -0.25 C 1.515625 -0.25 1.453125 -0.25 1.453125 -0.546875 L 1.453125 -1.8125 C 1.453125 -2.53125 2.03125 -2.875 2.484375 -2.875 C 2.96875 -2.875 3.03125 -2.5 3.03125 -2.140625 L 3.03125 -0.546875 C 3.03125 -0.25 2.96875 -0.25 2.515625 -0.25 L 2.515625 0 C 2.515625 0 3.015625 -0.03125 3.3125 -0.03125 C 3.5625 -0.03125 4.046875 0 4.109375 0 L 4.109375 -0.25 C 3.65625 -0.25 3.59375 -0.25 3.59375 -0.546875 L 3.59375 -1.8125 C 3.59375 -2.53125 4.171875 -2.875 4.625 -2.875 C 5.109375 -2.875 5.171875 -2.5 5.171875 -2.140625 L 5.171875 -0.546875 C 5.171875 -0.25 5.109375 -0.25 4.65625 -0.25 L 4.65625 0 C 4.65625 0 5.15625 -0.03125 5.453125 -0.03125 C 5.703125 -0.03125 6.1875 0 6.25 0 Z M 6.25 0 "/>
</symbol>
<symbol overflow="visible" id="i7-glyph1-6">
<path style="stroke:none;" d="M 1.90625 0 L 1.90625 -0.25 C 1.5 -0.25 1.4375 -0.25 1.4375 -0.546875 L 1.4375 -3.078125 L 0.40625 -3 L 0.40625 -2.75 C 0.84375 -2.75 0.90625 -2.703125 0.90625 -2.359375 L 0.90625 -0.546875 C 0.90625 -0.25 0.84375 -0.25 0.390625 -0.25 L 0.390625 0 C 0.390625 0 0.890625 -0.03125 1.171875 -0.03125 C 1.421875 -0.03125 1.671875 -0.015625 1.90625 0 Z M 1.53125 -4.1875 C 1.53125 -4.421875 1.359375 -4.59375 1.125 -4.59375 C 0.890625 -4.59375 0.734375 -4.40625 0.734375 -4.203125 C 0.734375 -3.984375 0.90625 -3.796875 1.125 -3.796875 C 1.359375 -3.796875 1.53125 -4 1.53125 -4.1875 Z M 1.53125 -4.1875 "/>
</symbol>
<symbol overflow="visible" id="i7-glyph1-7">
<path style="stroke:none;" d="M 4 0 L 4 -0.25 C 3.53125 -0.25 3.484375 -0.296875 3.3125 -0.46875 L 2.359375 -1.5625 L 2.3125 -1.625 C 2.3125 -1.65625 2.765625 -2.140625 2.828125 -2.203125 C 3.078125 -2.484375 3.3125 -2.75 3.875 -2.75 L 3.875 -3 C 3.671875 -2.984375 3.46875 -2.96875 3.28125 -2.96875 C 3.078125 -2.96875 2.796875 -2.984375 2.59375 -3 L 2.59375 -2.75 C 2.703125 -2.734375 2.734375 -2.65625 2.734375 -2.59375 C 2.734375 -2.59375 2.734375 -2.46875 2.625 -2.359375 L 2.140625 -1.8125 L 1.5625 -2.46875 C 1.484375 -2.546875 1.484375 -2.578125 1.484375 -2.609375 C 1.484375 -2.703125 1.578125 -2.75 1.671875 -2.75 L 1.671875 -3 C 1.421875 -2.984375 1.15625 -2.96875 0.890625 -2.96875 C 0.6875 -2.96875 0.421875 -2.984375 0.21875 -3 L 0.21875 -2.75 C 0.53125 -2.75 0.71875 -2.75 0.90625 -2.546875 L 1.765625 -1.546875 L 1.828125 -1.46875 C 1.828125 -1.453125 1.296875 -0.875 1.234375 -0.796875 C 0.96875 -0.515625 0.734375 -0.265625 0.1875 -0.25 L 0.1875 0 C 0.390625 -0.015625 0.546875 -0.03125 0.765625 -0.03125 C 0.96875 -0.03125 1.25 -0.015625 1.453125 0 L 1.453125 -0.25 C 1.375 -0.265625 1.3125 -0.3125 1.3125 -0.40625 C 1.3125 -0.546875 1.390625 -0.640625 1.5 -0.75 L 2 -1.296875 L 2.59375 -0.59375 C 2.734375 -0.453125 2.734375 -0.4375 2.734375 -0.390625 C 2.734375 -0.265625 2.578125 -0.25 2.546875 -0.25 L 2.546875 0 C 2.609375 0 3.109375 -0.03125 3.328125 -0.03125 C 3.546875 -0.03125 3.78125 -0.015625 4 0 Z M 4 0 "/>
</symbol>
<symbol overflow="visible" id="i7-glyph2-0">
<path style="stroke:none;" d=""/>
</symbol>
<symbol overflow="visible" id="i7-glyph2-1">
<path style="stroke:none;" d="M 1.671875 -0.046875 C 1.671875 -0.46875 1.5 -0.796875 1.171875 -0.796875 C 0.953125 -0.796875 0.78125 -0.625 0.78125 -0.40625 C 0.78125 -0.1875 0.9375 0 1.1875 0 C 1.359375 0 1.46875 -0.109375 1.46875 -0.109375 C 1.46875 0.265625 1.40625 0.71875 0.921875 1.15625 C 0.90625 1.1875 0.875 1.21875 0.875 1.25 C 0.875 1.296875 0.9375 1.34375 0.96875 1.34375 C 1.078125 1.34375 1.671875 0.78125 1.671875 -0.046875 Z M 1.671875 -0.046875 "/>
</symbol>
<symbol overflow="visible" id="i7-glyph3-0">
<path style="stroke:none;" d=""/>
</symbol>
<symbol overflow="visible" id="i7-glyph3-1">
<path style="stroke:none;" d="M 2.03125 -0.015625 C 2.03125 -0.640625 1.78125 -1.0625 1.390625 -1.0625 C 1.03125 -1.0625 0.859375 -0.78125 0.859375 -0.53125 C 0.859375 -0.265625 1.03125 0 1.390625 0 C 1.53125 0 1.671875 -0.0625 1.78125 -0.15625 C 1.796875 0.625 1.53125 1.234375 1.09375 1.703125 C 1.03125 1.765625 1.015625 1.78125 1.015625 1.8125 C 1.015625 1.890625 1.0625 1.921875 1.109375 1.921875 C 1.234375 1.921875 2.03125 1.140625 2.03125 -0.015625 Z M 2.03125 -0.015625 "/>
</symbol>
</g>
<clipPath id="i7-clip1">
  <path d="M 132 87 L 145.699219 87 L 145.699219 92.257812 L 132 92.257812 Z M 132 87 "/>
</clipPath>
</defs>
<g id="i7-surface36">
<g style="fill:rgb(0%,0%,0%);fill-opacity:1;">
  <use xlink:href="#i7-glyph0-1" x="81.003" y="78.807"/>
</g>
<g style="fill:rgb(0%,0%,0%);fill-opacity:1;">
  <use xlink:href="#i7-glyph1-1" x="89.751" y="80.302"/>
  <use xlink:href="#i7-glyph1-2" x="94.262351" y="80.302"/>
</g>
<g style="fill:rgb(0%,0%,0%);fill-opacity:1;">
  <use xlink:href="#i7-glyph1-3" x="98.017045" y="80.302"/>
</g>
<g style="fill:rgb(0%,0%,0%);fill-opacity:1;">
  <use xlink:href="#i7-glyph2-1" x="103.706" y="80.302"/>
</g>
<g style="fill:rgb(0%,0%,0%);fill-opacity:1;">
  <use xlink:href="#i7-glyph1-4" x="106.072" y="80.302"/>
</g>
<g style="fill:rgb(0%,0%,0%);fill-opacity:1;">
  <use xlink:href="#i7-glyph3-1" x="110.541" y="78.807"/>
</g>
<g style="fill:rgb(0%,0%,0%);fill-opacity:1;">
  <use xlink:href="#i7-glyph0-2" x="116.629" y="78.807"/>
</g>
<g style="fill:rgb(0%,0%,0%);fill-opacity:1;">
  <use xlink:href="#i7-glyph1-1" x="124.911" y="80.302"/>
  <use xlink:href="#i7-glyph1-2" x="129.422351" y="80.302"/>
</g>
<g style="fill:rgb(0%,0%,0%);fill-opacity:1;">
  <use xlink:href="#i7-glyph1-3" x="133.177045" y="80.302"/>
</g>
<g style="fill:rgb(0%,0%,0%);fill-opacity:1;">
  <use xlink:href="#i7-glyph2-1" x="138.865" y="80.302"/>
</g>
<g style="fill:rgb(0%,0%,0%);fill-opacity:1;">
  <use xlink:href="#i7-glyph1-4" x="141.232" y="80.302"/>
</g>
<g style="fill:rgb(0%,0%,0%);fill-opacity:1;">
  <use xlink:href="#i7-glyph0-3" x="126.465" y="90.763"/>
</g>
<g> <!-- clip-path="url(#clip1)" clip-rule="nonzero" -->
<g style="fill:rgb(0%,0%,0%);fill-opacity:1;">
  <use xlink:href="#i7-glyph1-5" x="132.205" y="92.257"/>
  <use xlink:href="#i7-glyph1-6" x="138.749911" y="92.257"/>
  <use xlink:href="#i7-glyph1-7" x="141.005238" y="92.257"/>
</g>
</g>
</g>
</g>
  <g id="g5" transform="translate(-72, 84.619)scale(1.0, -1.0)">
<defs>
<g>
<symbol overflow="visible" id="i5-glyph0-0">
<path style="stroke:none;" d=""/>
</symbol>
<symbol overflow="visible" id="i5-glyph0-1">
<path style="stroke:none;" d="M 8.453125 -1.421875 C 8.453125 -1.53125 8.359375 -1.53125 8.328125 -1.53125 C 8.234375 -1.53125 8.234375 -1.5 8.1875 -1.34375 C 8.03125 -0.8125 7.71875 -0.109375 7.171875 -0.109375 C 7 -0.109375 6.921875 -0.203125 6.921875 -0.4375 C 6.921875 -0.6875 7.015625 -0.921875 7.109375 -1.140625 C 7.296875 -1.671875 7.71875 -2.765625 7.71875 -3.34375 C 7.71875 -3.984375 7.3125 -4.40625 6.5625 -4.40625 C 5.828125 -4.40625 5.3125 -3.96875 4.9375 -3.4375 C 4.9375 -3.5625 4.90625 -3.90625 4.625 -4.140625 C 4.375 -4.359375 4.0625 -4.40625 3.8125 -4.40625 C 2.90625 -4.40625 2.421875 -3.765625 2.25 -3.53125 C 2.203125 -4.109375 1.78125 -4.40625 1.328125 -4.40625 C 0.875 -4.40625 0.6875 -4.015625 0.59375 -3.84375 C 0.421875 -3.484375 0.296875 -2.90625 0.296875 -2.875 C 0.296875 -2.765625 0.40625 -2.765625 0.40625 -2.765625 C 0.515625 -2.765625 0.515625 -2.78125 0.578125 -3 C 0.75 -3.703125 0.953125 -4.1875 1.3125 -4.1875 C 1.46875 -4.1875 1.609375 -4.109375 1.609375 -3.734375 C 1.609375 -3.515625 1.578125 -3.40625 1.453125 -2.890625 L 0.875 -0.59375 C 0.84375 -0.4375 0.78125 -0.203125 0.78125 -0.15625 C 0.78125 0.015625 0.921875 0.109375 1.078125 0.109375 C 1.203125 0.109375 1.375 0.03125 1.453125 -0.171875 C 1.453125 -0.1875 1.578125 -0.65625 1.640625 -0.90625 L 1.859375 -1.796875 C 1.90625 -2.03125 1.96875 -2.25 2.03125 -2.46875 L 2.15625 -2.96875 C 2.296875 -3.28125 2.828125 -4.1875 3.78125 -4.1875 C 4.234375 -4.1875 4.3125 -3.8125 4.3125 -3.484375 C 4.3125 -3.234375 4.25 -2.953125 4.171875 -2.65625 L 3.890625 -1.5 C 3.78125 -1.140625 3.78125 -1.078125 3.6875 -0.75 C 3.65625 -0.546875 3.5625 -0.203125 3.5625 -0.15625 C 3.5625 0.015625 3.703125 0.109375 3.84375 0.109375 C 4.15625 0.109375 4.21875 -0.140625 4.296875 -0.453125 L 4.890625 -2.859375 C 4.921875 -2.984375 5.453125 -4.1875 6.546875 -4.1875 C 6.96875 -4.1875 7.078125 -3.84375 7.078125 -3.484375 C 7.078125 -2.921875 6.65625 -1.78125 6.453125 -1.25 C 6.375 -1.015625 6.328125 -0.90625 6.328125 -0.703125 C 6.328125 -0.234375 6.671875 0.109375 7.140625 0.109375 C 8.078125 0.109375 8.453125 -1.34375 8.453125 -1.421875 Z M 8.453125 -1.421875 "/>
</symbol>
<symbol overflow="visible" id="i5-glyph0-2">
<path style="stroke:none;" d="M 7.15625 -0.203125 C 7.15625 -0.3125 7.0625 -0.3125 6.875 -0.3125 C 6.515625 -0.3125 6.234375 -0.3125 6.234375 -0.484375 C 6.234375 -0.546875 6.25 -0.59375 6.265625 -0.65625 L 7.609375 -6.046875 C 7.703125 -6.40625 7.71875 -6.5 8.4375 -6.5 C 8.703125 -6.5 8.78125 -6.5 8.78125 -6.703125 C 8.78125 -6.8125 8.671875 -6.8125 8.640625 -6.8125 L 7.359375 -6.78125 L 6.078125 -6.8125 C 6 -6.8125 5.890625 -6.8125 5.890625 -6.609375 C 5.890625 -6.5 5.984375 -6.5 6.171875 -6.5 C 6.171875 -6.5 6.375 -6.5 6.546875 -6.484375 C 6.734375 -6.453125 6.8125 -6.453125 6.8125 -6.3125 C 6.8125 -6.28125 6.8125 -6.265625 6.78125 -6.125 L 6.1875 -3.703125 L 3.140625 -3.703125 L 3.734375 -6.046875 C 3.8125 -6.40625 3.84375 -6.5 4.5625 -6.5 C 4.828125 -6.5 4.90625 -6.5 4.90625 -6.703125 C 4.90625 -6.8125 4.796875 -6.8125 4.765625 -6.8125 L 3.484375 -6.78125 L 2.203125 -6.8125 C 2.125 -6.8125 2.015625 -6.8125 2.015625 -6.609375 C 2.015625 -6.5 2.109375 -6.5 2.296875 -6.5 C 2.296875 -6.5 2.5 -6.5 2.671875 -6.484375 C 2.84375 -6.453125 2.9375 -6.453125 2.9375 -6.3125 C 2.9375 -6.28125 2.9375 -6.25 2.90625 -6.125 L 1.5625 -0.78125 C 1.46875 -0.390625 1.453125 -0.3125 0.65625 -0.3125 C 0.484375 -0.3125 0.390625 -0.3125 0.390625 -0.109375 C 0.390625 0 0.53125 0 0.53125 0 L 1.796875 -0.03125 L 2.4375 -0.015625 C 2.65625 -0.015625 2.875 0 3.078125 0 C 3.15625 0 3.28125 0 3.28125 -0.203125 C 3.28125 -0.3125 3.1875 -0.3125 3 -0.3125 C 2.625 -0.3125 2.359375 -0.3125 2.359375 -0.484375 C 2.359375 -0.546875 2.375 -0.59375 2.375 -0.65625 L 3.0625 -3.390625 L 6.09375 -3.390625 L 5.40625 -0.640625 C 5.3125 -0.3125 5.125 -0.3125 4.5 -0.3125 C 4.359375 -0.3125 4.265625 -0.3125 4.265625 -0.109375 C 4.265625 0 4.40625 0 4.40625 0 L 5.671875 -0.03125 L 6.3125 -0.015625 C 6.53125 -0.015625 6.75 0 6.953125 0 C 7.03125 0 7.15625 0 7.15625 -0.203125 Z M 7.15625 -0.203125 "/>
</symbol>
<symbol overflow="visible" id="i5-glyph0-3">
<path style="stroke:none;" d="M 5.4375 -1.421875 C 5.4375 -1.53125 5.359375 -1.53125 5.328125 -1.53125 C 5.21875 -1.53125 5.21875 -1.5 5.171875 -1.34375 C 5.03125 -0.8125 4.703125 -0.109375 4.15625 -0.109375 C 3.984375 -0.109375 3.921875 -0.203125 3.921875 -0.4375 C 3.921875 -0.6875 4 -0.921875 4.09375 -1.140625 C 4.25 -1.578125 4.703125 -2.765625 4.703125 -3.34375 C 4.703125 -3.984375 4.3125 -4.40625 3.5625 -4.40625 C 2.9375 -4.40625 2.453125 -4.09375 2.078125 -3.640625 L 2.859375 -6.8125 C 2.859375 -6.8125 2.859375 -6.921875 2.734375 -6.921875 C 2.5 -6.921875 1.78125 -6.84375 1.515625 -6.8125 C 1.4375 -6.8125 1.328125 -6.796875 1.328125 -6.625 C 1.328125 -6.5 1.421875 -6.5 1.5625 -6.5 C 2.046875 -6.5 2.0625 -6.4375 2.0625 -6.328125 L 2.03125 -6.125 L 0.59375 -0.390625 C 0.546875 -0.25 0.546875 -0.234375 0.546875 -0.171875 C 0.546875 0.0625 0.75 0.109375 0.84375 0.109375 C 1 0.109375 1.15625 -0.015625 1.203125 -0.15625 L 1.390625 -0.90625 L 1.609375 -1.796875 C 1.671875 -2.03125 1.734375 -2.25 1.78125 -2.46875 C 1.796875 -2.53125 1.890625 -2.859375 1.890625 -2.921875 C 1.921875 -3.015625 2.234375 -3.5625 2.578125 -3.84375 C 2.796875 -4 3.09375 -4.1875 3.53125 -4.1875 C 3.953125 -4.1875 4.0625 -3.84375 4.0625 -3.484375 C 4.0625 -2.953125 3.6875 -1.859375 3.453125 -1.25 C 3.375 -1.03125 3.3125 -0.90625 3.3125 -0.703125 C 3.3125 -0.234375 3.671875 0.109375 4.140625 0.109375 C 5.078125 0.109375 5.4375 -1.34375 5.4375 -1.421875 Z M 5.4375 -1.421875 "/>
</symbol>
<symbol overflow="visible" id="i5-glyph1-0">
<path style="stroke:none;" d=""/>
</symbol>
<symbol overflow="visible" id="i5-glyph1-1">
<path style="stroke:none;" d="M 4.15625 0 L 4.15625 -0.25 C 3.703125 -0.25 3.640625 -0.25 3.640625 -0.546875 L 3.640625 -4.84375 C 3.578125 -4.828125 3.375 -4.796875 3.359375 -4.796875 C 3.359375 -4.796875 3.328125 -4.796875 3.296875 -4.8125 C 3.03125 -4.90625 2.734375 -4.90625 2.609375 -4.90625 C 1.75 -4.90625 0.859375 -4.53125 0.859375 -3.765625 L 0.859375 -3 L 0.265625 -3 L 0.265625 -2.75 L 0.859375 -2.75 L 0.859375 -0.546875 C 0.859375 -0.25 0.796875 -0.25 0.34375 -0.25 L 0.34375 0 C 0.34375 0 0.84375 -0.03125 1.125 -0.03125 C 1.390625 -0.03125 1.640625 -0.015625 1.90625 0 L 1.90625 -0.25 C 1.453125 -0.25 1.390625 -0.25 1.390625 -0.546875 L 1.390625 -2.75 L 3.109375 -2.75 L 3.109375 -0.546875 C 3.109375 -0.25 3.046875 -0.25 2.59375 -0.25 L 2.59375 0 C 2.59375 0 3.09375 -0.03125 3.375 -0.03125 C 3.640625 -0.03125 3.890625 -0.015625 4.15625 0 Z M 3.109375 -3 L 1.359375 -3 L 1.359375 -3.765625 C 1.359375 -4.375 1.9375 -4.703125 2.59375 -4.703125 C 2.78125 -4.703125 2.90625 -4.703125 3.09375 -4.65625 C 3 -4.609375 2.953125 -4.5 2.953125 -4.390625 C 2.953125 -4.359375 2.96875 -4.203125 3.109375 -4.125 Z M 3.109375 -3 "/>
</symbol>
<symbol overflow="visible" id="i5-glyph1-2">
<path style="stroke:none;" d="M 3.6875 -1.484375 C 3.6875 -2.359375 2.9375 -3.109375 1.984375 -3.109375 C 1.015625 -3.109375 0.265625 -2.359375 0.265625 -1.484375 C 0.265625 -0.625 1.03125 0.0625 1.984375 0.0625 C 2.921875 0.0625 3.6875 -0.625 3.6875 -1.484375 Z M 3.046875 -1.546875 C 3.046875 -1.21875 3.03125 -0.84375 2.828125 -0.5625 C 2.640625 -0.296875 2.328125 -0.15625 1.984375 -0.15625 C 1.71875 -0.15625 1.34375 -0.234375 1.109375 -0.578125 C 0.921875 -0.859375 0.90625 -1.21875 0.90625 -1.546875 C 0.90625 -1.84375 0.90625 -2.265625 1.15625 -2.5625 C 1.328125 -2.765625 1.625 -2.90625 1.984375 -2.90625 C 2.390625 -2.90625 2.6875 -2.71875 2.84375 -2.5 C 3.03125 -2.234375 3.046875 -1.875 3.046875 -1.546875 Z M 3.046875 -1.546875 "/>
</symbol>
<symbol overflow="visible" id="i5-glyph1-3">
<path style="stroke:none;" d="M 5.46875 -2.75 L 5.46875 -3 C 5.28125 -2.984375 5.15625 -2.96875 4.96875 -2.96875 C 4.75 -2.96875 4.484375 -2.984375 4.28125 -3 L 4.28125 -2.75 C 4.515625 -2.75 4.640625 -2.609375 4.640625 -2.453125 C 4.640625 -2.390625 4.640625 -2.375 4.59375 -2.28125 L 3.921875 -0.546875 L 3.171875 -2.453125 C 3.15625 -2.484375 3.140625 -2.53125 3.140625 -2.578125 C 3.140625 -2.734375 3.3125 -2.75 3.515625 -2.75 L 3.515625 -3 C 3.265625 -2.984375 3.015625 -2.96875 2.765625 -2.96875 C 2.5625 -2.96875 2.34375 -2.984375 2.140625 -3 L 2.140625 -2.75 C 2.3125 -2.75 2.453125 -2.75 2.546875 -2.703125 C 2.640625 -2.625 2.703125 -2.390625 2.703125 -2.390625 C 2.703125 -2.390625 2.6875 -2.328125 2.671875 -2.3125 L 2.015625 -0.640625 L 1.3125 -2.453125 C 1.28125 -2.546875 1.28125 -2.546875 1.28125 -2.578125 C 1.28125 -2.75 1.53125 -2.75 1.65625 -2.75 L 1.65625 -3 C 1.65625 -3 1.140625 -2.96875 0.859375 -2.96875 C 0.640625 -2.96875 0.421875 -2.984375 0.203125 -3 L 0.203125 -2.75 C 0.484375 -2.75 0.640625 -2.75 0.703125 -2.546875 L 1.671875 -0.09375 C 1.71875 0.015625 1.734375 0.0625 1.875 0.0625 C 2 0.0625 2.015625 0.015625 2.046875 -0.078125 L 2.84375 -2.0625 L 3.609375 -0.09375 C 3.65625 0 3.671875 0.0625 3.8125 0.0625 C 3.9375 0.0625 3.953125 0.015625 4 -0.09375 L 4.875 -2.328125 C 5.015625 -2.671875 5.25 -2.75 5.46875 -2.75 Z M 5.46875 -2.75 "/>
</symbol>
<symbol overflow="visible" id="i5-glyph1-4">
<path style="stroke:none;" d="M 3.578125 -1.203125 C 3.578125 -1.75 3.140625 -2.296875 2.375 -2.453125 C 3.09375 -2.71875 3.359375 -3.234375 3.359375 -3.671875 C 3.359375 -4.21875 2.734375 -4.625 1.953125 -4.625 C 1.1875 -4.625 0.59375 -4.25 0.59375 -3.6875 C 0.59375 -3.453125 0.75 -3.328125 0.953125 -3.328125 C 1.171875 -3.328125 1.3125 -3.484375 1.3125 -3.671875 C 1.3125 -3.875 1.171875 -4.03125 0.953125 -4.046875 C 1.203125 -4.34375 1.671875 -4.421875 1.9375 -4.421875 C 2.25 -4.421875 2.6875 -4.265625 2.6875 -3.671875 C 2.6875 -3.375 2.59375 -3.046875 2.40625 -2.84375 C 2.1875 -2.578125 1.984375 -2.5625 1.640625 -2.53125 C 1.46875 -2.515625 1.453125 -2.515625 1.421875 -2.515625 C 1.421875 -2.515625 1.34375 -2.5 1.34375 -2.421875 C 1.34375 -2.328125 1.40625 -2.328125 1.53125 -2.328125 L 1.90625 -2.328125 C 2.453125 -2.328125 2.84375 -1.953125 2.84375 -1.203125 C 2.84375 -0.34375 2.328125 -0.078125 1.9375 -0.078125 C 1.65625 -0.078125 1.03125 -0.15625 0.75 -0.578125 C 1.078125 -0.578125 1.15625 -0.8125 1.15625 -0.96875 C 1.15625 -1.1875 0.984375 -1.34375 0.765625 -1.34375 C 0.578125 -1.34375 0.375 -1.21875 0.375 -0.9375 C 0.375 -0.28125 1.09375 0.140625 1.9375 0.140625 C 2.90625 0.140625 3.578125 -0.515625 3.578125 -1.203125 Z M 3.578125 -1.203125 "/>
</symbol>
<symbol overflow="visible" id="i5-glyph1-5">
<path style="stroke:none;" d="M 6.25 0 L 6.25 -0.25 C 5.796875 -0.25 5.734375 -0.25 5.734375 -0.546875 L 5.734375 -2.109375 C 5.734375 -2.71875 5.421875 -3.078125 4.6875 -3.078125 C 4.125 -3.078125 3.75 -2.78125 3.5625 -2.421875 C 3.421875 -2.921875 3.046875 -3.078125 2.546875 -3.078125 C 1.96875 -3.078125 1.609375 -2.765625 1.40625 -2.390625 L 1.40625 -3.078125 L 0.375 -3 L 0.375 -2.75 C 0.84375 -2.75 0.90625 -2.703125 0.90625 -2.359375 L 0.90625 -0.546875 C 0.90625 -0.25 0.828125 -0.25 0.375 -0.25 L 0.375 0 C 0.375 0 0.875 -0.03125 1.171875 -0.03125 C 1.421875 -0.03125 1.90625 0 1.96875 0 L 1.96875 -0.25 C 1.515625 -0.25 1.453125 -0.25 1.453125 -0.546875 L 1.453125 -1.8125 C 1.453125 -2.53125 2.03125 -2.875 2.484375 -2.875 C 2.96875 -2.875 3.03125 -2.5 3.03125 -2.140625 L 3.03125 -0.546875 C 3.03125 -0.25 2.96875 -0.25 2.515625 -0.25 L 2.515625 0 C 2.515625 0 3.015625 -0.03125 3.3125 -0.03125 C 3.5625 -0.03125 4.046875 0 4.109375 0 L 4.109375 -0.25 C 3.65625 -0.25 3.59375 -0.25 3.59375 -0.546875 L 3.59375 -1.8125 C 3.59375 -2.53125 4.171875 -2.875 4.625 -2.875 C 5.109375 -2.875 5.171875 -2.5 5.171875 -2.140625 L 5.171875 -0.546875 C 5.171875 -0.25 5.109375 -0.25 4.65625 -0.25 L 4.65625 0 C 4.65625 0 5.15625 -0.03125 5.453125 -0.03125 C 5.703125 -0.03125 6.1875 0 6.25 0 Z M 6.25 0 "/>
</symbol>
<symbol overflow="visible" id="i5-glyph1-6">
<path style="stroke:none;" d="M 1.90625 0 L 1.90625 -0.25 C 1.5 -0.25 1.4375 -0.25 1.4375 -0.546875 L 1.4375 -3.078125 L 0.40625 -3 L 0.40625 -2.75 C 0.84375 -2.75 0.90625 -2.703125 0.90625 -2.359375 L 0.90625 -0.546875 C 0.90625 -0.25 0.84375 -0.25 0.390625 -0.25 L 0.390625 0 C 0.390625 0 0.890625 -0.03125 1.171875 -0.03125 C 1.421875 -0.03125 1.671875 -0.015625 1.90625 0 Z M 1.53125 -4.1875 C 1.53125 -4.421875 1.359375 -4.59375 1.125 -4.59375 C 0.890625 -4.59375 0.734375 -4.40625 0.734375 -4.203125 C 0.734375 -3.984375 0.90625 -3.796875 1.125 -3.796875 C 1.359375 -3.796875 1.53125 -4 1.53125 -4.1875 Z M 1.53125 -4.1875 "/>
</symbol>
<symbol overflow="visible" id="i5-glyph1-7">
<path style="stroke:none;" d="M 4 0 L 4 -0.25 C 3.53125 -0.25 3.484375 -0.296875 3.3125 -0.46875 L 2.359375 -1.5625 L 2.3125 -1.625 C 2.3125 -1.65625 2.765625 -2.140625 2.828125 -2.203125 C 3.078125 -2.484375 3.3125 -2.75 3.875 -2.75 L 3.875 -3 C 3.671875 -2.984375 3.46875 -2.96875 3.28125 -2.96875 C 3.078125 -2.96875 2.796875 -2.984375 2.59375 -3 L 2.59375 -2.75 C 2.703125 -2.734375 2.734375 -2.65625 2.734375 -2.59375 C 2.734375 -2.59375 2.734375 -2.46875 2.625 -2.359375 L 2.140625 -1.8125 L 1.5625 -2.46875 C 1.484375 -2.546875 1.484375 -2.578125 1.484375 -2.609375 C 1.484375 -2.703125 1.578125 -2.75 1.671875 -2.75 L 1.671875 -3 C 1.421875 -2.984375 1.15625 -2.96875 0.890625 -2.96875 C 0.6875 -2.96875 0.421875 -2.984375 0.21875 -3 L 0.21875 -2.75 C 0.53125 -2.75 0.71875 -2.75 0.90625 -2.546875 L 1.765625 -1.546875 L 1.828125 -1.46875 C 1.828125 -1.453125 1.296875 -0.875 1.234375 -0.796875 C 0.96875 -0.515625 0.734375 -0.265625 0.1875 -0.25 L 0.1875 0 C 0.390625 -0.015625 0.546875 -0.03125 0.765625 -0.03125 C 0.96875 -0.03125 1.25 -0.015625 1.453125 0 L 1.453125 -0.25 C 1.375 -0.265625 1.3125 -0.3125 1.3125 -0.40625 C 1.3125 -0.546875 1.390625 -0.640625 1.5 -0.75 L 2 -1.296875 L 2.59375 -0.59375 C 2.734375 -0.453125 2.734375 -0.4375 2.734375 -0.390625 C 2.734375 -0.265625 2.578125 -0.25 2.546875 -0.25 L 2.546875 0 C 2.609375 0 3.109375 -0.03125 3.328125 -0.03125 C 3.546875 -0.03125 3.78125 -0.015625 4 0 Z M 4 0 "/>
</symbol>
<symbol overflow="visible" id="i5-glyph2-0">
<path style="stroke:none;" d=""/>
</symbol>
<symbol overflow="visible" id="i5-glyph2-1">
<path style="stroke:none;" d="M 1.671875 -0.046875 C 1.671875 -0.46875 1.5 -0.796875 1.171875 -0.796875 C 0.953125 -0.796875 0.78125 -0.625 0.78125 -0.40625 C 0.78125 -0.1875 0.9375 0 1.1875 0 C 1.359375 0 1.46875 -0.109375 1.46875 -0.109375 C 1.46875 0.265625 1.40625 0.71875 0.921875 1.15625 C 0.90625 1.1875 0.875 1.21875 0.875 1.25 C 0.875 1.296875 0.9375 1.34375 0.96875 1.34375 C 1.078125 1.34375 1.671875 0.78125 1.671875 -0.046875 Z M 1.671875 -0.046875 "/>
</symbol>
<symbol overflow="visible" id="i5-glyph3-0">
<path style="stroke:none;" d=""/>
</symbol>
<symbol overflow="visible" id="i5-glyph3-1">
<path style="stroke:none;" d="M 2.03125 -0.015625 C 2.03125 -0.640625 1.78125 -1.0625 1.390625 -1.0625 C 1.03125 -1.0625 0.859375 -0.78125 0.859375 -0.53125 C 0.859375 -0.265625 1.03125 0 1.390625 0 C 1.53125 0 1.671875 -0.0625 1.78125 -0.15625 C 1.796875 0.625 1.53125 1.234375 1.09375 1.703125 C 1.03125 1.765625 1.015625 1.78125 1.015625 1.8125 C 1.015625 1.890625 1.0625 1.921875 1.109375 1.921875 C 1.234375 1.921875 2.03125 1.140625 2.03125 -0.015625 Z M 2.03125 -0.015625 "/>
</symbol>
</g>
<clipPath id="i5-clip1">
  <path d="M 78 87 L 91 87 L 91 92.257812 L 78 92.257812 Z M 78 87 "/>
</clipPath>
</defs>
<g id="i5-surface26">
<g style="fill:rgb(0%,0%,0%);fill-opacity:1;">
  <use xlink:href="#i5-glyph0-1" x="72" y="78.807"/>
</g>
<g style="fill:rgb(0%,0%,0%);fill-opacity:1;">
  <use xlink:href="#i5-glyph1-1" x="80.747" y="80.302"/>
  <use xlink:href="#i5-glyph1-2" x="85.258351" y="80.302"/>
</g>
<g style="fill:rgb(0%,0%,0%);fill-opacity:1;">
  <use xlink:href="#i5-glyph1-3" x="89.013045" y="80.302"/>
</g>
<g style="fill:rgb(0%,0%,0%);fill-opacity:1;">
  <use xlink:href="#i5-glyph2-1" x="94.702" y="80.302"/>
</g>
<g style="fill:rgb(0%,0%,0%);fill-opacity:1;">
  <use xlink:href="#i5-glyph1-4" x="97.068" y="80.302"/>
</g>
<g style="fill:rgb(0%,0%,0%);fill-opacity:1;">
  <use xlink:href="#i5-glyph3-1" x="101.538" y="78.807"/>
</g>
<g style="fill:rgb(0%,0%,0%);fill-opacity:1;">
  <use xlink:href="#i5-glyph0-2" x="107.626" y="78.807"/>
</g>
<g style="fill:rgb(0%,0%,0%);fill-opacity:1;">
  <use xlink:href="#i5-glyph1-1" x="115.907" y="80.302"/>
  <use xlink:href="#i5-glyph1-2" x="120.418351" y="80.302"/>
</g>
<g style="fill:rgb(0%,0%,0%);fill-opacity:1;">
  <use xlink:href="#i5-glyph1-3" x="124.173045" y="80.302"/>
</g>
<g style="fill:rgb(0%,0%,0%);fill-opacity:1;">
  <use xlink:href="#i5-glyph2-1" x="129.862" y="80.302"/>
</g>
<g style="fill:rgb(0%,0%,0%);fill-opacity:1;">
  <use xlink:href="#i5-glyph1-4" x="132.228" y="80.302"/>
</g>
<g style="fill:rgb(0%,0%,0%);fill-opacity:1;">
  <use xlink:href="#i5-glyph0-3" x="72" y="90.763"/>
</g>
<g> <!-- clip-path="url(#clip1)" clip-rule="nonzero" -->
<g style="fill:rgb(0%,0%,0%);fill-opacity:1;">
  <use xlink:href="#i5-glyph1-5" x="77.74" y="92.257"/>
  <use xlink:href="#i5-glyph1-6" x="84.284911" y="92.257"/>
  <use xlink:href="#i5-glyph1-7" x="86.540238" y="92.257"/>
</g>
</g>
</g>
</g>
  <g id="g10" fill="none" fill-rule="nonzero" fill-opacity="1" stroke="#fb1708" stroke-width="0.8" stroke-linecap="butt" stroke-linejoin="miter" stroke-miterlimit="10" stroke-dasharray="none" stroke-opacity="1">
   <path d="M0.00 0.00C0.00 0.00 9.67 -3.31 14.23 -4.87" />
   <path d="M16.56 -5.67C16.56 -5.67 14.69 -5.71 12.17 -5.75L13.04 -4.46L13.15 -2.92C15.10 -4.50 16.56 -5.67 16.56 -5.67z" fill="#fb1708" stroke="none" />
  </g>
  <g id="g11" fill="none" fill-rule="nonzero" fill-opacity="1" stroke="#fb1708" stroke-width="0.8" stroke-linecap="butt" stroke-linejoin="miter" stroke-miterlimit="10" stroke-dasharray="none" stroke-opacity="1">
   <path d="M0.00 0.00C0.00 0.00 -7.70 6.72 -11.33 9.89" />
   <path d="M-13.19 11.51C-13.19 11.51 -11.45 10.83 -9.10 9.93L-10.39 9.06L-11.07 7.67C-12.29 9.87 -13.19 11.51 -13.19 11.51z" fill="#fb1708" stroke="none" />
  </g>
  <g id="g12" fill="none" fill-rule="nonzero" fill-opacity="1" stroke="#fb1708" stroke-width="0.8" stroke-linecap="butt" stroke-linejoin="miter" stroke-miterlimit="10" stroke-dasharray="none" stroke-opacity="1">
   <path d="M0.00 0.00C0.00 0.00 -1.97 -10.03 -2.90 -14.76" />
   <path d="M-3.37 -17.17C-3.37 -17.17 -3.66 -15.33 -4.05 -12.84L-2.65 -13.52L-1.10 -13.42C-2.40 -15.57 -3.37 -17.17 -3.37 -17.17z" fill="#fb1708" stroke="none" />
  </g>
 </defs>
</svg>
