<?xml version="1.0" standalone="yes"?>
<!DOCTYPE svg PUBLIC "-//W3C//DTD SVG 1.1//EN"
  "http://www.w3.org/Graphics/SVG/1.1/DTD/svg11.dtd">
<svg version="1.1" xmlns="http://www.w3.org/2000/svg" xmlns:xlink="http://www.w3.org/1999/xlink" width="13.0106cm" height="54.1058mm" viewBox="-124.874 -76.6854 368.804 153.371" fill="none" stroke="#000000" stroke-width="0.3" stroke-miterlimit="10">
 <g transform="scale(1.0, -1.0)">
  <use transform="matrix(1 0 0 1 -67.7426 24.6703)" xlink:href="#g8" />
  <path transform="matrix(1 0 0 1 -62.5122 28.3465)" d="M-19.84 -11.34H19.84V11.34H-19.84z" />
  <use transform="matrix(1 0 0 1 -67.7426 -32.0227)" xlink:href="#g9" />
  <path transform="matrix(1 0 0 1 -62.5122 -28.3465)" d="M-19.84 -11.34H19.84V11.34H-19.84z" />
  <use transform="matrix(1 0 0 1 48.7779 24.6703)" xlink:href="#g11" />
  <path transform="matrix(1 0 0 1 54.0083 28.3465)" d="M-19.84 -11.34H19.84V11.34H-19.84z" />
  <use transform="matrix(1 0 0 1 48.7779 -40.5266)" xlink:href="#g12" />
  <path transform="matrix(1 0 0 1 54.0083 -36.8504)" d="M-19.84 -11.34H19.84V11.34H-19.84z" />
  <use transform="matrix(1 0 0 1 193.195 -49.1805)" xlink:href="#g14" />
  <path transform="matrix(1 0 0 1 198.425 -45.5043)" d="M-19.84 -11.34H19.84V11.34H-19.84z" />
  <use transform="matrix(1 0 0 1 116.659 41.6781)" xlink:href="#g10" />
  <path d="M0.00 -56.69H141.73V56.69H0.00z" />
  <use transform="matrix(1 0 0 1 -98.7737 50.1821)" xlink:href="#g7" />
  <path d="M-113.39 -65.20H155.91V65.20H-113.39z" />
  <use transform="matrix(1 0 0 1 215.872 58.686)" xlink:href="#g13" />
  <path d="M-121.89 -73.70H240.94V73.70H-121.89z" />
  <use transform="matrix(1 0 0 1 2.27598 -16.1563)" xlink:href="#g5" />
  <use transform="matrix(1 0 0 1 180.119 17.3079)" xlink:href="#g6" />
  <use transform="matrix(1 0 0 1 95.0795 8.80394)" xlink:href="#g15" />
  <path d="M0.00 0.00L-42.52 28.35" stroke-width="0.6" />
  <path d="M0.00 0.00L-42.52 -28.35" stroke-width="0.6" />
  <path d="M0.00 0.00L34.02 28.35" stroke-width="0.6" />
  <path d="M0.00 0.00L34.02 -36.85" stroke-width="0.6" />
  <path d="M0.00 0.00H113.39" stroke-width="0.6" />
  <path d="M113.39 0.00L198.43 8.50" stroke-width="0.6" stroke-dasharray="3 3" />
  <path d="M198.43 8.50V-34.02" stroke-width="0.6" />
  <path transform="matrix(1 0 0 1 -42.5197 28.3465)" d="M4.25 0.00C4.25 2.35 2.35 4.25 0.00 4.25C-2.35 4.25 -4.25 2.35 -4.25 0.00C-4.25 -2.35 -2.35 -4.25 0.00 -4.25C2.35 -4.25 4.25 -2.35 4.25 0.00z" fill="#000000" stroke-width="0.6" />
  <path transform="matrix(1 0 0 1 -42.5197 -28.3465)" d="M4.25 0.00C4.25 2.35 2.35 4.25 0.00 4.25C-2.35 4.25 -4.25 2.35 -4.25 0.00C-4.25 -2.35 -2.35 -4.25 0.00 -4.25C2.35 -4.25 4.25 -2.35 4.25 0.00z" fill="#000000" stroke-width="0.6" />
  <path transform="matrix(1 0 0 1 34.0157 28.3465)" d="M4.25 0.00C4.25 2.35 2.35 4.25 0.00 4.25C-2.35 4.25 -4.25 2.35 -4.25 0.00C-4.25 -2.35 -2.35 -4.25 0.00 -4.25C2.35 -4.25 4.25 -2.35 4.25 0.00z" fill="#000000" stroke-width="0.6" />
  <path transform="matrix(1 0 0 1 34.0157 -36.8504)" d="M4.25 0.00C4.25 2.35 2.35 4.25 0.00 4.25C-2.35 4.25 -4.25 2.35 -4.25 0.00C-4.25 -2.35 -2.35 -4.25 0.00 -4.25C2.35 -4.25 4.25 -2.35 4.25 0.00z" fill="#000000" stroke-width="0.6" />
  <path d="M4.25 0.00C4.25 2.35 2.35 4.25 0.00 4.25C-2.35 4.25 -4.25 2.35 -4.25 0.00C-4.25 -2.35 -2.35 -4.25 0.00 -4.25C2.35 -4.25 4.25 -2.35 4.25 0.00z" fill="#000000" stroke-width="0.6" />
  <path transform="matrix(1 0 0 1 113.386 0)" d="M4.25 0.00C4.25 2.35 2.35 4.25 0.00 4.25C-2.35 4.25 -4.25 2.35 -4.25 0.00C-4.25 -2.35 -2.35 -4.25 0.00 -4.25C2.35 -4.25 4.25 -2.35 4.25 0.00z" fill="#cdcdcd" stroke-width="0.6" />
  <path transform="matrix(1 0 0 1 198.425 8.50394)" d="M4.25 0.00C4.25 2.35 2.35 4.25 0.00 4.25C-2.35 4.25 -4.25 2.35 -4.25 0.00C-4.25 -2.35 -2.35 -4.25 0.00 -4.25C2.35 -4.25 4.25 -2.35 4.25 0.00z" fill="#000000" stroke-width="0.6" />
  <path transform="matrix(1 0 0 1 198.425 -34.0157)" d="M4.25 0.00C4.25 2.35 2.35 4.25 0.00 4.25C-2.35 4.25 -4.25 2.35 -4.25 0.00C-4.25 -2.35 -2.35 -4.25 0.00 -4.25C2.35 -4.25 4.25 -2.35 4.25 0.00z" fill="#000000" stroke-width="0.6" />
 </g>
 <defs>
  <g id="g8" transform="translate(-72, 77.968)scale(1.0, -1.0)">
<defs>
<g>
<symbol overflow="visible" id="i8-glyph0-0">
<path style="stroke:none;" d=""/>
</symbol>
<symbol overflow="visible" id="i8-glyph0-1">
<path style="stroke:none;" d="M 5.140625 -0.296875 C 5.140625 -0.609375 4.9375 -0.609375 4.578125 -0.609375 L 4.578125 -3.015625 C 4.578125 -3.21875 4.578125 -4.359375 3.6875 -4.359375 C 3.390625 -4.359375 2.984375 -4.234375 2.703125 -3.84375 C 2.546875 -4.171875 2.265625 -4.359375 1.9375 -4.359375 C 1.625 -4.359375 1.328125 -4.21875 1.09375 -4 C 1.0625 -4.296875 0.875 -4.296875 0.6875 -4.296875 L 0.375 -4.296875 C 0.21875 -4.296875 -0.046875 -4.296875 -0.046875 -4 C -0.046875 -3.6875 0.171875 -3.6875 0.53125 -3.6875 L 0.53125 -0.609375 C 0.171875 -0.609375 -0.046875 -0.609375 -0.046875 -0.296875 C -0.046875 0 0.234375 0 0.375 0 L 1.25 0 C 1.390625 0 1.65625 0 1.65625 -0.296875 C 1.65625 -0.609375 1.453125 -0.609375 1.09375 -0.609375 L 1.09375 -2.390625 C 1.09375 -3.28125 1.5 -3.75 1.90625 -3.75 C 2.140625 -3.75 2.265625 -3.578125 2.265625 -2.9375 L 2.265625 -0.609375 C 2.078125 -0.609375 1.828125 -0.609375 1.828125 -0.296875 C 1.828125 0 2.109375 0 2.25 0 L 2.984375 0 C 3.140625 0 3.40625 0 3.40625 -0.296875 C 3.40625 -0.609375 3.1875 -0.609375 2.828125 -0.609375 L 2.828125 -2.390625 C 2.828125 -3.28125 3.234375 -3.75 3.65625 -3.75 C 3.875 -3.75 4.015625 -3.578125 4.015625 -2.9375 L 4.015625 -0.609375 C 3.828125 -0.609375 3.578125 -0.609375 3.578125 -0.296875 C 3.578125 0 3.84375 0 3.984375 0 L 4.734375 0 C 4.890625 0 5.140625 0 5.140625 -0.296875 Z M 5.140625 -0.296875 "/>
</symbol>
<symbol overflow="visible" id="i8-glyph0-2">
<path style="stroke:none;" d="M 4.40625 -0.296875 C 4.40625 -0.609375 4.171875 -0.609375 4 -0.609375 L 3.09375 -0.609375 L 3.09375 -5.796875 C 3.09375 -5.953125 3.09375 -6.203125 2.796875 -6.203125 C 2.609375 -6.203125 2.546875 -6.078125 2.5 -5.96875 C 2.125 -5.109375 1.609375 -5 1.421875 -4.984375 C 1.25 -4.96875 1.046875 -4.953125 1.046875 -4.671875 C 1.046875 -4.421875 1.21875 -4.375 1.375 -4.375 C 1.5625 -4.375 1.96875 -4.4375 2.40625 -4.8125 L 2.40625 -0.609375 L 1.5 -0.609375 C 1.34375 -0.609375 1.109375 -0.609375 1.109375 -0.296875 C 1.109375 0 1.359375 0 1.5 0 L 4 0 C 4.15625 0 4.40625 0 4.40625 -0.296875 Z M 4.40625 -0.296875 "/>
</symbol>
</g>
<clipPath id="i8-clip1">
  <path d="M 72 72 L 82 72 L 82 77.96875 L 72 77.96875 Z M 72 72 "/>
</clipPath>
</defs>
<g id="i8-surface41">
<g> <!-- clip-path="url(#clip1)" clip-rule="nonzero" -->
<g style="fill:rgb(0%,0%,0%);fill-opacity:1;">
  <use xlink:href="#i8-glyph0-1" x="72" y="77.968"/>
  <use xlink:href="#i8-glyph0-2" x="77.230365" y="77.968"/>
</g>
</g>
</g>
</g>
  <g id="g9" transform="translate(-72, 77.968)scale(1.0, -1.0)">
<defs>
<g>
<symbol overflow="visible" id="i9-glyph0-0">
<path style="stroke:none;" d=""/>
</symbol>
<symbol overflow="visible" id="i9-glyph0-1">
<path style="stroke:none;" d="M 5.140625 -0.296875 C 5.140625 -0.609375 4.9375 -0.609375 4.578125 -0.609375 L 4.578125 -3.015625 C 4.578125 -3.21875 4.578125 -4.359375 3.6875 -4.359375 C 3.390625 -4.359375 2.984375 -4.234375 2.703125 -3.84375 C 2.546875 -4.171875 2.265625 -4.359375 1.9375 -4.359375 C 1.625 -4.359375 1.328125 -4.21875 1.09375 -4 C 1.0625 -4.296875 0.875 -4.296875 0.6875 -4.296875 L 0.375 -4.296875 C 0.21875 -4.296875 -0.046875 -4.296875 -0.046875 -4 C -0.046875 -3.6875 0.171875 -3.6875 0.53125 -3.6875 L 0.53125 -0.609375 C 0.171875 -0.609375 -0.046875 -0.609375 -0.046875 -0.296875 C -0.046875 0 0.234375 0 0.375 0 L 1.25 0 C 1.390625 0 1.65625 0 1.65625 -0.296875 C 1.65625 -0.609375 1.453125 -0.609375 1.09375 -0.609375 L 1.09375 -2.390625 C 1.09375 -3.28125 1.5 -3.75 1.90625 -3.75 C 2.140625 -3.75 2.265625 -3.578125 2.265625 -2.9375 L 2.265625 -0.609375 C 2.078125 -0.609375 1.828125 -0.609375 1.828125 -0.296875 C 1.828125 0 2.109375 0 2.25 0 L 2.984375 0 C 3.140625 0 3.40625 0 3.40625 -0.296875 C 3.40625 -0.609375 3.1875 -0.609375 2.828125 -0.609375 L 2.828125 -2.390625 C 2.828125 -3.28125 3.234375 -3.75 3.65625 -3.75 C 3.875 -3.75 4.015625 -3.578125 4.015625 -2.9375 L 4.015625 -0.609375 C 3.828125 -0.609375 3.578125 -0.609375 3.578125 -0.296875 C 3.578125 0 3.84375 0 3.984375 0 L 4.734375 0 C 4.890625 0 5.140625 0 5.140625 -0.296875 Z M 5.140625 -0.296875 "/>
</symbol>
<symbol overflow="visible" id="i9-glyph0-2">
<path style="stroke:none;" d="M 4.703125 -0.40625 L 4.703125 -0.671875 C 4.703125 -0.859375 4.703125 -1.078125 4.359375 -1.078125 C 4.015625 -1.078125 4.015625 -0.890625 4.015625 -0.609375 L 1.640625 -0.609375 C 2.234375 -1.109375 3.1875 -1.859375 3.625 -2.265625 C 4.25 -2.828125 4.703125 -3.453125 4.703125 -4.25 C 4.703125 -5.453125 3.703125 -6.203125 2.484375 -6.203125 C 1.3125 -6.203125 0.515625 -5.390625 0.515625 -4.53125 C 0.515625 -4.171875 0.796875 -4.0625 0.96875 -4.0625 C 1.171875 -4.0625 1.40625 -4.234375 1.40625 -4.5 C 1.40625 -4.625 1.359375 -4.75 1.265625 -4.828125 C 1.421875 -5.28125 1.890625 -5.59375 2.4375 -5.59375 C 3.25 -5.59375 4.015625 -5.140625 4.015625 -4.25 C 4.015625 -3.5625 3.53125 -2.984375 2.875 -2.4375 L 0.671875 -0.578125 C 0.578125 -0.5 0.515625 -0.453125 0.515625 -0.3125 C 0.515625 0 0.765625 0 0.921875 0 L 4.3125 0 C 4.640625 0 4.703125 -0.09375 4.703125 -0.40625 Z M 4.703125 -0.40625 "/>
</symbol>
</g>
<clipPath id="i9-clip1">
  <path d="M 72 72 L 82 72 L 82 77.96875 L 72 77.96875 Z M 72 72 "/>
</clipPath>
</defs>
<g id="i9-surface46">
<g> <!-- clip-path="url(#clip1)" clip-rule="nonzero" -->
<g style="fill:rgb(0%,0%,0%);fill-opacity:1;">
  <use xlink:href="#i9-glyph0-1" x="72" y="77.968"/>
  <use xlink:href="#i9-glyph0-2" x="77.230365" y="77.968"/>
</g>
</g>
</g>
</g>
  <g id="g11" transform="translate(-72, 77.968)scale(1.0, -1.0)">
<defs>
<g>
<symbol overflow="visible" id="i11-glyph0-0">
<path style="stroke:none;" d=""/>
</symbol>
<symbol overflow="visible" id="i11-glyph0-1">
<path style="stroke:none;" d="M 5.140625 -0.296875 C 5.140625 -0.609375 4.9375 -0.609375 4.578125 -0.609375 L 4.578125 -3.015625 C 4.578125 -3.21875 4.578125 -4.359375 3.6875 -4.359375 C 3.390625 -4.359375 2.984375 -4.234375 2.703125 -3.84375 C 2.546875 -4.171875 2.265625 -4.359375 1.9375 -4.359375 C 1.625 -4.359375 1.328125 -4.21875 1.09375 -4 C 1.0625 -4.296875 0.875 -4.296875 0.6875 -4.296875 L 0.375 -4.296875 C 0.21875 -4.296875 -0.046875 -4.296875 -0.046875 -4 C -0.046875 -3.6875 0.171875 -3.6875 0.53125 -3.6875 L 0.53125 -0.609375 C 0.171875 -0.609375 -0.046875 -0.609375 -0.046875 -0.296875 C -0.046875 0 0.234375 0 0.375 0 L 1.25 0 C 1.390625 0 1.65625 0 1.65625 -0.296875 C 1.65625 -0.609375 1.453125 -0.609375 1.09375 -0.609375 L 1.09375 -2.390625 C 1.09375 -3.28125 1.5 -3.75 1.90625 -3.75 C 2.140625 -3.75 2.265625 -3.578125 2.265625 -2.9375 L 2.265625 -0.609375 C 2.078125 -0.609375 1.828125 -0.609375 1.828125 -0.296875 C 1.828125 0 2.109375 0 2.25 0 L 2.984375 0 C 3.140625 0 3.40625 0 3.40625 -0.296875 C 3.40625 -0.609375 3.1875 -0.609375 2.828125 -0.609375 L 2.828125 -2.390625 C 2.828125 -3.28125 3.234375 -3.75 3.65625 -3.75 C 3.875 -3.75 4.015625 -3.578125 4.015625 -2.9375 L 4.015625 -0.609375 C 3.828125 -0.609375 3.578125 -0.609375 3.578125 -0.296875 C 3.578125 0 3.84375 0 3.984375 0 L 4.734375 0 C 4.890625 0 5.140625 0 5.140625 -0.296875 Z M 5.140625 -0.296875 "/>
</symbol>
<symbol overflow="visible" id="i11-glyph0-2">
<path style="stroke:none;" d="M 4.9375 -1.984375 C 4.9375 -2.296875 4.6875 -2.296875 4.53125 -2.296875 L 3.765625 -2.296875 L 3.765625 -5.796875 C 3.765625 -6.125 3.6875 -6.203125 3.34375 -6.203125 L 3.078125 -6.203125 C 2.828125 -6.203125 2.78125 -6.203125 2.65625 -6 L 0.375 -2.4375 C 0.296875 -2.296875 0.296875 -2.28125 0.296875 -2.078125 C 0.296875 -1.75 0.375 -1.6875 0.6875 -1.6875 L 3.203125 -1.6875 L 3.203125 -0.609375 L 2.578125 -0.609375 C 2.421875 -0.609375 2.1875 -0.609375 2.1875 -0.296875 C 2.1875 0 2.4375 0 2.578125 0 L 4.375 0 C 4.53125 0 4.78125 0 4.78125 -0.296875 C 4.78125 -0.609375 4.53125 -0.609375 4.375 -0.609375 L 3.765625 -0.609375 L 3.765625 -1.6875 L 4.53125 -1.6875 C 4.6875 -1.6875 4.9375 -1.6875 4.9375 -1.984375 Z M 3.203125 -2.296875 L 0.984375 -2.296875 L 3.203125 -5.765625 Z M 3.203125 -2.296875 "/>
</symbol>
</g>
<clipPath id="i11-clip1">
  <path d="M 72 72 L 82.460938 72 L 82.460938 77.96875 L 72 77.96875 Z M 72 72 "/>
</clipPath>
</defs>
<g id="i11-surface56">
<g> <!-- clip-path="url(#clip1)" clip-rule="nonzero" -->
<g style="fill:rgb(0%,0%,0%);fill-opacity:1;">
  <use xlink:href="#i11-glyph0-1" x="72" y="77.968"/>
  <use xlink:href="#i11-glyph0-2" x="77.230365" y="77.968"/>
</g>
</g>
</g>
</g>
  <g id="g12" transform="translate(-72, 77.968)scale(1.0, -1.0)">
<defs>
<g>
<symbol overflow="visible" id="i12-glyph0-0">
<path style="stroke:none;" d=""/>
</symbol>
<symbol overflow="visible" id="i12-glyph0-1">
<path style="stroke:none;" d="M 5.140625 -0.296875 C 5.140625 -0.609375 4.9375 -0.609375 4.578125 -0.609375 L 4.578125 -3.015625 C 4.578125 -3.21875 4.578125 -4.359375 3.6875 -4.359375 C 3.390625 -4.359375 2.984375 -4.234375 2.703125 -3.84375 C 2.546875 -4.171875 2.265625 -4.359375 1.9375 -4.359375 C 1.625 -4.359375 1.328125 -4.21875 1.09375 -4 C 1.0625 -4.296875 0.875 -4.296875 0.6875 -4.296875 L 0.375 -4.296875 C 0.21875 -4.296875 -0.046875 -4.296875 -0.046875 -4 C -0.046875 -3.6875 0.171875 -3.6875 0.53125 -3.6875 L 0.53125 -0.609375 C 0.171875 -0.609375 -0.046875 -0.609375 -0.046875 -0.296875 C -0.046875 0 0.234375 0 0.375 0 L 1.25 0 C 1.390625 0 1.65625 0 1.65625 -0.296875 C 1.65625 -0.609375 1.453125 -0.609375 1.09375 -0.609375 L 1.09375 -2.390625 C 1.09375 -3.28125 1.5 -3.75 1.90625 -3.75 C 2.140625 -3.75 2.265625 -3.578125 2.265625 -2.9375 L 2.265625 -0.609375 C 2.078125 -0.609375 1.828125 -0.609375 1.828125 -0.296875 C 1.828125 0 2.109375 0 2.25 0 L 2.984375 0 C 3.140625 0 3.40625 0 3.40625 -0.296875 C 3.40625 -0.609375 3.1875 -0.609375 2.828125 -0.609375 L 2.828125 -2.390625 C 2.828125 -3.28125 3.234375 -3.75 3.65625 -3.75 C 3.875 -3.75 4.015625 -3.578125 4.015625 -2.9375 L 4.015625 -0.609375 C 3.828125 -0.609375 3.578125 -0.609375 3.578125 -0.296875 C 3.578125 0 3.84375 0 3.984375 0 L 4.734375 0 C 4.890625 0 5.140625 0 5.140625 -0.296875 Z M 5.140625 -0.296875 "/>
</symbol>
<symbol overflow="visible" id="i12-glyph0-2">
<path style="stroke:none;" d="M 4.703125 -1.890625 C 4.703125 -2.90625 3.9375 -3.875 2.765625 -3.875 C 2.40625 -3.875 1.96875 -3.8125 1.5625 -3.59375 L 1.5625 -5.484375 L 3.953125 -5.484375 C 4.109375 -5.484375 4.359375 -5.484375 4.359375 -5.78125 C 4.359375 -6.09375 4.109375 -6.09375 3.953125 -6.09375 L 1.28125 -6.09375 C 0.953125 -6.09375 0.875 -6 0.875 -5.6875 L 0.875 -3.03125 C 0.875 -2.84375 0.875 -2.625 1.203125 -2.625 C 1.375 -2.625 1.421875 -2.671875 1.5 -2.765625 C 1.765625 -3.09375 2.171875 -3.265625 2.75 -3.265625 C 3.5625 -3.265625 4.015625 -2.546875 4.015625 -1.890625 C 4.015625 -1.09375 3.3125 -0.5 2.46875 -0.5 C 2.1875 -0.5 1.5625 -0.578125 1.28125 -1.125 C 1.328125 -1.171875 1.40625 -1.25 1.40625 -1.453125 C 1.40625 -1.734375 1.171875 -1.890625 0.96875 -1.890625 C 0.8125 -1.890625 0.515625 -1.796875 0.515625 -1.421875 C 0.515625 -0.59375 1.359375 0.109375 2.46875 0.109375 C 3.71875 0.109375 4.703125 -0.78125 4.703125 -1.890625 Z M 4.703125 -1.890625 "/>
</symbol>
</g>
<clipPath id="i12-clip1">
  <path d="M 72 72 L 82 72 L 82 77.96875 L 72 77.96875 Z M 72 72 "/>
</clipPath>
</defs>
<g id="i12-surface61">
<g> <!-- clip-path="url(#clip1)" clip-rule="nonzero" -->
<g style="fill:rgb(0%,0%,0%);fill-opacity:1;">
  <use xlink:href="#i12-glyph0-1" x="72" y="77.968"/>
  <use xlink:href="#i12-glyph0-2" x="77.230365" y="77.968"/>
</g>
</g>
</g>
</g>
  <g id="g14" transform="translate(-72, 77.968)scale(1.0, -1.0)">
<defs>
<g>
<symbol overflow="visible" id="i14-glyph0-0">
<path style="stroke:none;" d=""/>
</symbol>
<symbol overflow="visible" id="i14-glyph0-1">
<path style="stroke:none;" d="M 5.140625 -0.296875 C 5.140625 -0.609375 4.9375 -0.609375 4.578125 -0.609375 L 4.578125 -3.015625 C 4.578125 -3.21875 4.578125 -4.359375 3.6875 -4.359375 C 3.390625 -4.359375 2.984375 -4.234375 2.703125 -3.84375 C 2.546875 -4.171875 2.265625 -4.359375 1.9375 -4.359375 C 1.625 -4.359375 1.328125 -4.21875 1.09375 -4 C 1.0625 -4.296875 0.875 -4.296875 0.6875 -4.296875 L 0.375 -4.296875 C 0.21875 -4.296875 -0.046875 -4.296875 -0.046875 -4 C -0.046875 -3.6875 0.171875 -3.6875 0.53125 -3.6875 L 0.53125 -0.609375 C 0.171875 -0.609375 -0.046875 -0.609375 -0.046875 -0.296875 C -0.046875 0 0.234375 0 0.375 0 L 1.25 0 C 1.390625 0 1.65625 0 1.65625 -0.296875 C 1.65625 -0.609375 1.453125 -0.609375 1.09375 -0.609375 L 1.09375 -2.390625 C 1.09375 -3.28125 1.5 -3.75 1.90625 -3.75 C 2.140625 -3.75 2.265625 -3.578125 2.265625 -2.9375 L 2.265625 -0.609375 C 2.078125 -0.609375 1.828125 -0.609375 1.828125 -0.296875 C 1.828125 0 2.109375 0 2.25 0 L 2.984375 0 C 3.140625 0 3.40625 0 3.40625 -0.296875 C 3.40625 -0.609375 3.1875 -0.609375 2.828125 -0.609375 L 2.828125 -2.390625 C 2.828125 -3.28125 3.234375 -3.75 3.65625 -3.75 C 3.875 -3.75 4.015625 -3.578125 4.015625 -2.9375 L 4.015625 -0.609375 C 3.828125 -0.609375 3.578125 -0.609375 3.578125 -0.296875 C 3.578125 0 3.84375 0 3.984375 0 L 4.734375 0 C 4.890625 0 5.140625 0 5.140625 -0.296875 Z M 5.140625 -0.296875 "/>
</symbol>
<symbol overflow="visible" id="i14-glyph0-2">
<path style="stroke:none;" d="M 4.78125 -5.78125 C 4.78125 -6.09375 4.546875 -6.09375 4.390625 -6.09375 L 1.09375 -6.09375 C 1.03125 -6.25 0.859375 -6.25 0.78125 -6.25 C 0.4375 -6.25 0.4375 -6.03125 0.4375 -5.84375 L 0.4375 -5.421875 C 0.4375 -5.234375 0.4375 -5.015625 0.78125 -5.015625 C 1.125 -5.015625 1.125 -5.203125 1.125 -5.484375 L 3.765625 -5.484375 C 2.03125 -3.65625 1.6875 -1.453125 1.6875 -0.359375 C 1.6875 -0.21875 1.6875 0.109375 2.046875 0.109375 C 2.21875 0.109375 2.375 0 2.375 -0.296875 C 2.4375 -3.125 3.953125 -4.859375 4.5625 -5.4375 C 4.765625 -5.625 4.78125 -5.640625 4.78125 -5.78125 Z M 4.78125 -5.78125 "/>
</symbol>
</g>
<clipPath id="i14-clip1">
  <path d="M 72 72 L 82.460938 72 L 82.460938 77.96875 L 72 77.96875 Z M 72 72 "/>
</clipPath>
</defs>
<g id="i14-surface71">
<g> <!-- clip-path="url(#clip1)" clip-rule="nonzero" -->
<g style="fill:rgb(0%,0%,0%);fill-opacity:1;">
  <use xlink:href="#i14-glyph0-1" x="72" y="77.968"/>
  <use xlink:href="#i14-glyph0-2" x="77.230365" y="77.968"/>
</g>
</g>
</g>
</g>
  <g id="g10" transform="translate(-72, 77.968)scale(1.0, -1.0)">
<defs>
<g>
<symbol overflow="visible" id="i10-glyph0-0">
<path style="stroke:none;" d=""/>
</symbol>
<symbol overflow="visible" id="i10-glyph0-1">
<path style="stroke:none;" d="M 5.140625 -0.296875 C 5.140625 -0.609375 4.9375 -0.609375 4.578125 -0.609375 L 4.578125 -3.015625 C 4.578125 -3.21875 4.578125 -4.359375 3.6875 -4.359375 C 3.390625 -4.359375 2.984375 -4.234375 2.703125 -3.84375 C 2.546875 -4.171875 2.265625 -4.359375 1.9375 -4.359375 C 1.625 -4.359375 1.328125 -4.21875 1.09375 -4 C 1.0625 -4.296875 0.875 -4.296875 0.6875 -4.296875 L 0.375 -4.296875 C 0.21875 -4.296875 -0.046875 -4.296875 -0.046875 -4 C -0.046875 -3.6875 0.171875 -3.6875 0.53125 -3.6875 L 0.53125 -0.609375 C 0.171875 -0.609375 -0.046875 -0.609375 -0.046875 -0.296875 C -0.046875 0 0.234375 0 0.375 0 L 1.25 0 C 1.390625 0 1.65625 0 1.65625 -0.296875 C 1.65625 -0.609375 1.453125 -0.609375 1.09375 -0.609375 L 1.09375 -2.390625 C 1.09375 -3.28125 1.5 -3.75 1.90625 -3.75 C 2.140625 -3.75 2.265625 -3.578125 2.265625 -2.9375 L 2.265625 -0.609375 C 2.078125 -0.609375 1.828125 -0.609375 1.828125 -0.296875 C 1.828125 0 2.109375 0 2.25 0 L 2.984375 0 C 3.140625 0 3.40625 0 3.40625 -0.296875 C 3.40625 -0.609375 3.1875 -0.609375 2.828125 -0.609375 L 2.828125 -2.390625 C 2.828125 -3.28125 3.234375 -3.75 3.65625 -3.75 C 3.875 -3.75 4.015625 -3.578125 4.015625 -2.9375 L 4.015625 -0.609375 C 3.828125 -0.609375 3.578125 -0.609375 3.578125 -0.296875 C 3.578125 0 3.84375 0 3.984375 0 L 4.734375 0 C 4.890625 0 5.140625 0 5.140625 -0.296875 Z M 5.140625 -0.296875 "/>
</symbol>
<symbol overflow="visible" id="i10-glyph0-2">
<path style="stroke:none;" d="M 4.78125 -1.734375 C 4.78125 -2.4375 4.3125 -3.03125 3.65625 -3.328125 C 4.21875 -3.6875 4.5 -4.25 4.5 -4.796875 C 4.5 -5.53125 3.765625 -6.203125 2.625 -6.203125 C 1.421875 -6.203125 0.734375 -5.71875 0.734375 -5.03125 C 0.734375 -4.703125 0.984375 -4.5625 1.171875 -4.5625 C 1.390625 -4.5625 1.609375 -4.734375 1.609375 -5.015625 C 1.609375 -5.15625 1.5625 -5.25 1.53125 -5.28125 C 1.828125 -5.59375 2.546875 -5.59375 2.625 -5.59375 C 3.3125 -5.59375 3.8125 -5.234375 3.8125 -4.78125 C 3.8125 -4.484375 3.65625 -4.140625 3.390625 -3.921875 C 3.078125 -3.65625 2.828125 -3.640625 2.46875 -3.625 C 1.890625 -3.578125 1.75 -3.578125 1.75 -3.296875 C 1.75 -2.984375 1.984375 -2.984375 2.140625 -2.984375 L 2.609375 -2.984375 C 3.59375 -2.984375 4.09375 -2.3125 4.09375 -1.734375 C 4.09375 -1.125 3.53125 -0.5 2.625 -0.5 C 2.234375 -0.5 1.46875 -0.609375 1.203125 -1.078125 C 1.25 -1.125 1.328125 -1.1875 1.328125 -1.390625 C 1.328125 -1.625 1.140625 -1.828125 0.890625 -1.828125 C 0.65625 -1.828125 0.4375 -1.671875 0.4375 -1.359375 C 0.4375 -0.46875 1.40625 0.109375 2.625 0.109375 C 3.9375 0.109375 4.78125 -0.8125 4.78125 -1.734375 Z M 4.78125 -1.734375 "/>
</symbol>
</g>
<clipPath id="i10-clip1">
  <path d="M 72 72 L 82.460938 72 L 82.460938 77.96875 L 72 77.96875 Z M 72 72 "/>
</clipPath>
</defs>
<g id="i10-surface51">
<g> <!-- clip-path="url(#clip1)" clip-rule="nonzero" -->
<g style="fill:rgb(0%,0%,0%);fill-opacity:1;">
  <use xlink:href="#i10-glyph0-1" x="72" y="77.968"/>
  <use xlink:href="#i10-glyph0-2" x="77.230365" y="77.968"/>
</g>
</g>
</g>
</g>
  <g id="g7" transform="translate(-72, 77.968)scale(1.0, -1.0)">
<defs>
<g>
<symbol overflow="visible" id="i7-glyph0-0">
<path style="stroke:none;" d=""/>
</symbol>
<symbol overflow="visible" id="i7-glyph0-1">
<path style="stroke:none;" d="M 5.140625 -0.296875 C 5.140625 -0.609375 4.9375 -0.609375 4.578125 -0.609375 L 4.578125 -3.015625 C 4.578125 -3.21875 4.578125 -4.359375 3.6875 -4.359375 C 3.390625 -4.359375 2.984375 -4.234375 2.703125 -3.84375 C 2.546875 -4.171875 2.265625 -4.359375 1.9375 -4.359375 C 1.625 -4.359375 1.328125 -4.21875 1.09375 -4 C 1.0625 -4.296875 0.875 -4.296875 0.6875 -4.296875 L 0.375 -4.296875 C 0.21875 -4.296875 -0.046875 -4.296875 -0.046875 -4 C -0.046875 -3.6875 0.171875 -3.6875 0.53125 -3.6875 L 0.53125 -0.609375 C 0.171875 -0.609375 -0.046875 -0.609375 -0.046875 -0.296875 C -0.046875 0 0.234375 0 0.375 0 L 1.25 0 C 1.390625 0 1.65625 0 1.65625 -0.296875 C 1.65625 -0.609375 1.453125 -0.609375 1.09375 -0.609375 L 1.09375 -2.390625 C 1.09375 -3.28125 1.5 -3.75 1.90625 -3.75 C 2.140625 -3.75 2.265625 -3.578125 2.265625 -2.9375 L 2.265625 -0.609375 C 2.078125 -0.609375 1.828125 -0.609375 1.828125 -0.296875 C 1.828125 0 2.109375 0 2.25 0 L 2.984375 0 C 3.140625 0 3.40625 0 3.40625 -0.296875 C 3.40625 -0.609375 3.1875 -0.609375 2.828125 -0.609375 L 2.828125 -2.390625 C 2.828125 -3.28125 3.234375 -3.75 3.65625 -3.75 C 3.875 -3.75 4.015625 -3.578125 4.015625 -2.9375 L 4.015625 -0.609375 C 3.828125 -0.609375 3.578125 -0.609375 3.578125 -0.296875 C 3.578125 0 3.84375 0 3.984375 0 L 4.734375 0 C 4.890625 0 5.140625 0 5.140625 -0.296875 Z M 5.140625 -0.296875 "/>
</symbol>
<symbol overflow="visible" id="i7-glyph0-2">
<path style="stroke:none;" d="M 4.71875 -3.046875 C 4.71875 -4.890625 3.703125 -6.203125 2.609375 -6.203125 C 1.5 -6.203125 0.5 -4.859375 0.5 -3.046875 C 0.5 -1.203125 1.515625 0.109375 2.609375 0.109375 C 3.734375 0.109375 4.71875 -1.21875 4.71875 -3.046875 Z M 4.03125 -3.15625 C 4.03125 -1.671875 3.390625 -0.5 2.609375 -0.5 C 1.828125 -0.5 1.1875 -1.671875 1.1875 -3.15625 C 1.1875 -4.609375 1.875 -5.59375 2.609375 -5.59375 C 3.34375 -5.59375 4.03125 -4.609375 4.03125 -3.15625 Z M 4.03125 -3.15625 "/>
</symbol>
</g>
<clipPath id="i7-clip1">
  <path d="M 72 72 L 82 72 L 82 77.96875 L 72 77.96875 Z M 72 72 "/>
</clipPath>
</defs>
<g id="i7-surface36">
<g> <!-- clip-path="url(#clip1)" clip-rule="nonzero" -->
<g style="fill:rgb(0%,0%,0%);fill-opacity:1;">
  <use xlink:href="#i7-glyph0-1" x="72" y="77.968"/>
  <use xlink:href="#i7-glyph0-2" x="77.230365" y="77.968"/>
</g>
</g>
</g>
</g>
  <g id="g13" transform="translate(-72, 77.968)scale(1.0, -1.0)">
<defs>
<g>
<symbol overflow="visible" id="i13-glyph0-0">
<path style="stroke:none;" d=""/>
</symbol>
<symbol overflow="visible" id="i13-glyph0-1">
<path style="stroke:none;" d="M 5.140625 -0.296875 C 5.140625 -0.609375 4.9375 -0.609375 4.578125 -0.609375 L 4.578125 -3.015625 C 4.578125 -3.21875 4.578125 -4.359375 3.6875 -4.359375 C 3.390625 -4.359375 2.984375 -4.234375 2.703125 -3.84375 C 2.546875 -4.171875 2.265625 -4.359375 1.9375 -4.359375 C 1.625 -4.359375 1.328125 -4.21875 1.09375 -4 C 1.0625 -4.296875 0.875 -4.296875 0.6875 -4.296875 L 0.375 -4.296875 C 0.21875 -4.296875 -0.046875 -4.296875 -0.046875 -4 C -0.046875 -3.6875 0.171875 -3.6875 0.53125 -3.6875 L 0.53125 -0.609375 C 0.171875 -0.609375 -0.046875 -0.609375 -0.046875 -0.296875 C -0.046875 0 0.234375 0 0.375 0 L 1.25 0 C 1.390625 0 1.65625 0 1.65625 -0.296875 C 1.65625 -0.609375 1.453125 -0.609375 1.09375 -0.609375 L 1.09375 -2.390625 C 1.09375 -3.28125 1.5 -3.75 1.90625 -3.75 C 2.140625 -3.75 2.265625 -3.578125 2.265625 -2.9375 L 2.265625 -0.609375 C 2.078125 -0.609375 1.828125 -0.609375 1.828125 -0.296875 C 1.828125 0 2.109375 0 2.25 0 L 2.984375 0 C 3.140625 0 3.40625 0 3.40625 -0.296875 C 3.40625 -0.609375 3.1875 -0.609375 2.828125 -0.609375 L 2.828125 -2.390625 C 2.828125 -3.28125 3.234375 -3.75 3.65625 -3.75 C 3.875 -3.75 4.015625 -3.578125 4.015625 -2.9375 L 4.015625 -0.609375 C 3.828125 -0.609375 3.578125 -0.609375 3.578125 -0.296875 C 3.578125 0 3.84375 0 3.984375 0 L 4.734375 0 C 4.890625 0 5.140625 0 5.140625 -0.296875 Z M 5.140625 -0.296875 "/>
</symbol>
<symbol overflow="visible" id="i13-glyph0-2">
<path style="stroke:none;" d="M 4.6875 -1.921875 C 4.6875 -3.0625 3.8125 -3.953125 2.71875 -3.953125 C 2.203125 -3.953125 1.6875 -3.78125 1.234375 -3.375 C 1.375 -4.78125 2.3125 -5.59375 3.1875 -5.59375 C 3.53125 -5.59375 3.6875 -5.484375 3.734375 -5.4375 C 3.6875 -5.390625 3.640625 -5.328125 3.640625 -5.140625 C 3.640625 -4.90625 3.8125 -4.703125 4.078125 -4.703125 C 4.328125 -4.703125 4.53125 -4.875 4.53125 -5.171875 C 4.53125 -5.65625 4.171875 -6.203125 3.203125 -6.203125 C 1.859375 -6.203125 0.53125 -5 0.53125 -2.984375 C 0.53125 -0.625 1.640625 0.109375 2.625 0.109375 C 3.71875 0.109375 4.6875 -0.734375 4.6875 -1.921875 Z M 4 -1.921875 C 4 -1.0625 3.34375 -0.5 2.625 -0.5 C 1.984375 -0.5 1.59375 -0.984375 1.390625 -1.59375 C 1.296875 -1.828125 1.3125 -2.078125 1.3125 -2.21875 C 1.3125 -2.828125 1.90625 -3.328125 2.671875 -3.328125 C 3.484375 -3.328125 4 -2.65625 4 -1.921875 Z M 4 -1.921875 "/>
</symbol>
</g>
<clipPath id="i13-clip1">
  <path d="M 72 72 L 82 72 L 82 77.96875 L 72 77.96875 Z M 72 72 "/>
</clipPath>
</defs>
<g id="i13-surface66">
<g> <!-- clip-path="url(#clip1)" clip-rule="nonzero" -->
<g style="fill:rgb(0%,0%,0%);fill-opacity:1;">
  <use xlink:href="#i13-glyph0-1" x="72" y="77.968"/>
  <use xlink:href="#i13-glyph0-2" x="77.230365" y="77.968"/>
</g>
</g>
</g>
</g>
  <g id="g5" transform="translate(-72, 76.222)scale(1.0, -1.0)">
<defs>
<g>
<symbol overflow="visible" id="i5-glyph0-0">
<path style="stroke:none;" d=""/>
</symbol>
<symbol overflow="visible" id="i5-glyph0-1">
<path style="stroke:none;" d="M 4.640625 -1.09375 C 4.640625 -1.359375 4.359375 -1.359375 4.296875 -1.359375 C 4.140625 -1.359375 4.03125 -1.34375 3.96875 -1.140625 C 3.90625 -1.015625 3.71875 -0.546875 2.984375 -0.546875 C 2.140625 -0.546875 1.421875 -1.25 1.421875 -2.15625 C 1.421875 -2.625 1.6875 -3.78125 3.046875 -3.78125 C 3.25 -3.78125 3.640625 -3.78125 3.640625 -3.6875 C 3.65625 -3.34375 3.84375 -3.203125 4.078125 -3.203125 C 4.3125 -3.203125 4.53125 -3.375 4.53125 -3.65625 C 4.53125 -4.390625 3.484375 -4.390625 3.046875 -4.390625 C 1.328125 -4.390625 0.734375 -3.03125 0.734375 -2.15625 C 0.734375 -0.953125 1.671875 0.0625 2.921875 0.0625 C 4.3125 0.0625 4.640625 -0.921875 4.640625 -1.09375 Z M 4.640625 -1.09375 "/>
</symbol>
</g>
<clipPath id="i5-clip1">
  <path d="M 72 72 L 77 72 L 77 76.222656 L 72 76.222656 Z M 72 72 "/>
</clipPath>
</defs>
<g id="i5-surface26">
<g> <!-- clip-path="url(#clip1)" clip-rule="nonzero" -->
<g style="fill:rgb(0%,0%,0%);fill-opacity:1;">
  <use xlink:href="#i5-glyph0-1" x="72" y="76.222"/>
</g>
</g>
</g>
</g>
  <g id="g6" transform="translate(-72, 77.973)scale(1.0, -1.0)">
<defs>
<g>
<symbol overflow="visible" id="i6-glyph0-0">
<path style="stroke:none;" d=""/>
</symbol>
<symbol overflow="visible" id="i6-glyph0-1">
<path style="stroke:none;" d="M 4.5625 -0.375 C 4.5625 -0.734375 4.265625 -0.75 4.09375 -0.75 L 3.15625 -0.75 L 3.15625 -3.875 C 3.15625 -4.234375 3.078125 -4.34375 2.6875 -4.34375 L 1.3125 -4.34375 C 1.125 -4.34375 0.828125 -4.328125 0.828125 -3.984375 C 0.828125 -3.609375 1.125 -3.59375 1.3125 -3.59375 L 2.328125 -3.59375 L 2.328125 -0.75 L 1.21875 -0.75 C 1.03125 -0.75 0.75 -0.734375 0.75 -0.375 C 0.75 -0.015625 1.046875 0 1.21875 0 L 4.09375 0 C 4.265625 0 4.5625 -0.015625 4.5625 -0.375 Z M 3.1875 -5.484375 C 3.1875 -5.796875 2.9375 -6.046875 2.625 -6.046875 C 2.296875 -6.046875 2.046875 -5.796875 2.046875 -5.484375 C 2.046875 -5.15625 2.296875 -4.921875 2.625 -4.921875 C 2.9375 -4.921875 3.1875 -5.15625 3.1875 -5.484375 Z M 3.1875 -5.484375 "/>
</symbol>
<symbol overflow="visible" id="i6-glyph0-2">
<path style="stroke:none;" d="M 5.109375 -0.375 C 5.109375 -0.734375 4.828125 -0.75 4.640625 -0.75 L 4.296875 -0.75 L 4.296875 -2.921875 C 4.296875 -3.953125 3.765625 -4.390625 2.953125 -4.390625 C 2.390625 -4.390625 2 -4.171875 1.75 -3.984375 C 1.75 -4.234375 1.671875 -4.34375 1.28125 -4.34375 L 0.578125 -4.34375 C 0.390625 -4.34375 0.109375 -4.328125 0.109375 -3.96875 C 0.109375 -3.609375 0.40625 -3.59375 0.5625 -3.59375 L 0.921875 -3.59375 L 0.921875 -0.75 L 0.578125 -0.75 C 0.390625 -0.75 0.109375 -0.734375 0.109375 -0.375 C 0.109375 -0.015625 0.40625 0 0.5625 0 L 2.109375 0 C 2.28125 0 2.578125 -0.015625 2.578125 -0.375 C 2.578125 -0.734375 2.296875 -0.75 2.109375 -0.75 L 1.75 -0.75 L 1.75 -2.390625 C 1.75 -3.296875 2.4375 -3.65625 2.890625 -3.65625 C 3.359375 -3.65625 3.46875 -3.40625 3.46875 -2.875 L 3.46875 -0.75 L 3.171875 -0.75 C 2.984375 -0.75 2.6875 -0.734375 2.6875 -0.375 C 2.6875 -0.015625 3 0 3.171875 0 L 4.65625 0 C 4.8125 0 5.109375 -0.015625 5.109375 -0.375 Z M 5.109375 -0.375 "/>
</symbol>
<symbol overflow="visible" id="i6-glyph0-3">
<path style="stroke:none;" d="M 4.65625 -1.140625 C 4.65625 -1.46875 4.3125 -1.484375 4.234375 -1.484375 C 4.015625 -1.484375 3.921875 -1.453125 3.84375 -1.21875 C 3.640625 -0.765625 3.15625 -0.6875 2.90625 -0.6875 C 2.234375 -0.6875 1.5625 -1.109375 1.390625 -1.859375 L 4.1875 -1.859375 C 4.4375 -1.859375 4.65625 -1.859375 4.65625 -2.296875 C 4.65625 -3.4375 4 -4.421875 2.6875 -4.421875 C 1.5 -4.421875 0.515625 -3.421875 0.515625 -2.1875 C 0.515625 -0.953125 1.53125 0.0625 2.828125 0.0625 C 4.1875 0.0625 4.65625 -0.875 4.65625 -1.140625 Z M 3.796875 -2.59375 L 1.390625 -2.59375 C 1.5625 -3.21875 2.078125 -3.671875 2.6875 -3.671875 C 3.15625 -3.671875 3.6875 -3.453125 3.796875 -2.59375 Z M 3.796875 -2.59375 "/>
</symbol>
<symbol overflow="visible" id="i6-glyph0-4">
<path style="stroke:none;" d="M 4.875 -3.71875 C 4.875 -3.9375 4.75 -4.390625 3.875 -4.390625 C 3.40625 -4.390625 2.828125 -4.25 2.296875 -3.734375 L 2.296875 -3.875 C 2.296875 -4.234375 2.234375 -4.34375 1.828125 -4.34375 L 0.765625 -4.34375 C 0.59375 -4.34375 0.296875 -4.328125 0.296875 -3.984375 C 0.296875 -3.609375 0.578125 -3.59375 0.765625 -3.59375 L 1.46875 -3.59375 L 1.46875 -0.75 L 0.765625 -0.75 C 0.59375 -0.75 0.296875 -0.734375 0.296875 -0.375 C 0.296875 -0.015625 0.578125 0 0.765625 0 L 3.296875 0 C 3.484375 0 3.78125 -0.015625 3.78125 -0.375 C 3.78125 -0.734375 3.484375 -0.75 3.296875 -0.75 L 2.296875 -0.75 L 2.296875 -1.890625 C 2.296875 -2.734375 2.828125 -3.625 3.890625 -3.65625 C 3.890625 -3.40625 4.125 -3.234375 4.390625 -3.234375 C 4.640625 -3.234375 4.875 -3.40625 4.875 -3.71875 Z M 4.875 -3.71875 "/>
</symbol>
<symbol overflow="visible" id="i6-glyph1-0">
<path style="stroke:none;" d=""/>
</symbol>
<symbol overflow="visible" id="i6-glyph1-1">
<path style="stroke:none;" d="M 5.109375 -0.3125 C 5.109375 -0.609375 4.84375 -0.609375 4.703125 -0.609375 L 4.25 -0.609375 L 4.25 -5.6875 C 4.25 -5.984375 4.203125 -6.09375 3.859375 -6.09375 L 3.125 -6.09375 C 2.96875 -6.09375 2.71875 -6.09375 2.71875 -5.78125 C 2.71875 -5.484375 2.984375 -5.484375 3.125 -5.484375 L 3.5625 -5.484375 L 3.5625 -3.90625 C 3.234375 -4.203125 2.828125 -4.359375 2.40625 -4.359375 C 1.3125 -4.359375 0.359375 -3.40625 0.359375 -2.140625 C 0.359375 -0.90625 1.25 0.0625 2.3125 0.0625 C 2.875 0.0625 3.296875 -0.203125 3.5625 -0.5 C 3.5625 -0.140625 3.5625 0 3.96875 0 L 4.6875 0 C 4.859375 0 5.109375 0 5.109375 -0.3125 Z M 3.5625 -1.9375 C 3.5625 -1.375 3.125 -0.546875 2.359375 -0.546875 C 1.640625 -0.546875 1.046875 -1.25 1.046875 -2.140625 C 1.046875 -3.09375 1.75 -3.75 2.4375 -3.75 C 3.078125 -3.75 3.5625 -3.1875 3.5625 -2.640625 Z M 3.5625 -1.9375 "/>
</symbol>
</g>
<clipPath id="i6-clip1">
  <path d="M 72 72 L 98 72 L 98 77.972656 L 72 77.972656 Z M 72 72 "/>
</clipPath>
<clipPath id="i6-clip2">
  <path d="M 103 72 L 108.613281 72 L 108.613281 77.972656 L 103 77.972656 Z M 103 72 "/>
</clipPath>
</defs>
<g id="i6-surface31">
<g> <!-- clip-path="url(#clip1)" clip-rule="nonzero" -->
<g style="fill:rgb(0%,19.999695%,46.998596%);fill-opacity:1;">
  <use xlink:href="#i6-glyph0-1" x="72" y="77.973"/>
  <use xlink:href="#i6-glyph0-2" x="77.230365" y="77.973"/>
  <use xlink:href="#i6-glyph0-2" x="82.46073" y="77.973"/>
  <use xlink:href="#i6-glyph0-3" x="87.691095" y="77.973"/>
  <use xlink:href="#i6-glyph0-4" x="92.92146" y="77.973"/>
</g>
</g>
<g> <!-- clip-path="url(#clip2)" clip-rule="nonzero" -->
<g style="fill:rgb(0%,0%,0%);fill-opacity:1;">
  <use xlink:href="#i6-glyph1-1" x="103.382" y="77.973"/>
</g>
</g>
</g>
</g>
  <g id="g15" transform="translate(-72, 77.968)scale(1.0, -1.0)">
<defs>
<g>
<symbol overflow="visible" id="i15-glyph0-0">
<path style="stroke:none;" d=""/>
</symbol>
<symbol overflow="visible" id="i15-glyph0-1">
<path style="stroke:none;" d="M 4.6875 -2.171875 C 4.6875 -3.4375 3.734375 -4.421875 2.609375 -4.421875 C 1.484375 -4.421875 0.53125 -3.4375 0.53125 -2.171875 C 0.53125 -0.890625 1.5 0.0625 2.609375 0.0625 C 3.71875 0.0625 4.6875 -0.90625 4.6875 -2.171875 Z M 3.859375 -2.25 C 3.859375 -1.390625 3.296875 -0.6875 2.609375 -0.6875 C 1.9375 -0.6875 1.359375 -1.390625 1.359375 -2.25 C 1.359375 -3.078125 1.96875 -3.671875 2.609375 -3.671875 C 3.265625 -3.671875 3.859375 -3.078125 3.859375 -2.25 Z M 3.859375 -2.25 "/>
</symbol>
<symbol overflow="visible" id="i15-glyph0-2">
<path style="stroke:none;" d="M 5.109375 -0.375 C 5.109375 -0.734375 4.8125 -0.75 4.65625 -0.75 L 4.296875 -0.75 L 4.296875 -3.875 C 4.296875 -4.234375 4.21875 -4.34375 3.828125 -4.34375 L 3.125 -4.34375 C 2.9375 -4.34375 2.640625 -4.328125 2.640625 -3.96875 C 2.640625 -3.609375 2.9375 -3.59375 3.109375 -3.59375 L 3.46875 -3.59375 L 3.46875 -1.609375 C 3.46875 -0.796875 2.734375 -0.6875 2.4375 -0.6875 C 1.765625 -0.6875 1.75 -0.96875 1.75 -1.25 L 1.75 -3.875 C 1.75 -4.234375 1.6875 -4.34375 1.28125 -4.34375 L 0.578125 -4.34375 C 0.390625 -4.34375 0.109375 -4.328125 0.109375 -3.96875 C 0.109375 -3.609375 0.40625 -3.59375 0.5625 -3.59375 L 0.921875 -3.59375 L 0.921875 -1.1875 C 0.921875 -0.203125 1.640625 0.0625 2.390625 0.0625 C 2.765625 0.0625 3.140625 -0.03125 3.484375 -0.25 C 3.546875 -0.015625 3.75 0 3.9375 0 L 4.640625 0 C 4.828125 0 5.109375 -0.015625 5.109375 -0.375 Z M 5.109375 -0.375 "/>
</symbol>
<symbol overflow="visible" id="i15-glyph0-3">
<path style="stroke:none;" d="M 4.5 -1.3125 C 4.5 -1.515625 4.5 -1.75 4.078125 -1.75 C 3.6875 -1.75 3.671875 -1.515625 3.671875 -1.3125 C 3.671875 -0.78125 3.171875 -0.6875 2.953125 -0.6875 C 2.296875 -0.6875 2.296875 -1.140625 2.296875 -1.359375 L 2.296875 -3.59375 L 3.8125 -3.59375 C 3.984375 -3.59375 4.28125 -3.609375 4.28125 -3.96875 C 4.28125 -4.34375 4 -4.34375 3.8125 -4.34375 L 2.296875 -4.34375 L 2.296875 -5.0625 C 2.296875 -5.28125 2.28125 -5.53125 1.890625 -5.53125 C 1.46875 -5.53125 1.46875 -5.296875 1.46875 -5.0625 L 1.46875 -4.34375 L 0.703125 -4.34375 C 0.515625 -4.34375 0.234375 -4.328125 0.234375 -3.96875 C 0.234375 -3.609375 0.515625 -3.59375 0.6875 -3.59375 L 1.46875 -3.59375 L 1.46875 -1.3125 C 1.46875 -0.3125 2.15625 0.0625 2.921875 0.0625 C 3.671875 0.0625 4.5 -0.390625 4.5 -1.3125 Z M 4.5 -1.3125 "/>
</symbol>
<symbol overflow="visible" id="i15-glyph0-4">
<path style="stroke:none;" d="M 4.65625 -1.140625 C 4.65625 -1.46875 4.3125 -1.484375 4.234375 -1.484375 C 4.015625 -1.484375 3.921875 -1.453125 3.84375 -1.21875 C 3.640625 -0.765625 3.15625 -0.6875 2.90625 -0.6875 C 2.234375 -0.6875 1.5625 -1.109375 1.390625 -1.859375 L 4.1875 -1.859375 C 4.4375 -1.859375 4.65625 -1.859375 4.65625 -2.296875 C 4.65625 -3.4375 4 -4.421875 2.6875 -4.421875 C 1.5 -4.421875 0.515625 -3.421875 0.515625 -2.1875 C 0.515625 -0.953125 1.53125 0.0625 2.828125 0.0625 C 4.1875 0.0625 4.65625 -0.875 4.65625 -1.140625 Z M 3.796875 -2.59375 L 1.390625 -2.59375 C 1.5625 -3.21875 2.078125 -3.671875 2.6875 -3.671875 C 3.15625 -3.671875 3.6875 -3.453125 3.796875 -2.59375 Z M 3.796875 -2.59375 "/>
</symbol>
<symbol overflow="visible" id="i15-glyph0-5">
<path style="stroke:none;" d="M 4.875 -3.71875 C 4.875 -3.9375 4.75 -4.390625 3.875 -4.390625 C 3.40625 -4.390625 2.828125 -4.25 2.296875 -3.734375 L 2.296875 -3.875 C 2.296875 -4.234375 2.234375 -4.34375 1.828125 -4.34375 L 0.765625 -4.34375 C 0.59375 -4.34375 0.296875 -4.328125 0.296875 -3.984375 C 0.296875 -3.609375 0.578125 -3.59375 0.765625 -3.59375 L 1.46875 -3.59375 L 1.46875 -0.75 L 0.765625 -0.75 C 0.59375 -0.75 0.296875 -0.734375 0.296875 -0.375 C 0.296875 -0.015625 0.578125 0 0.765625 0 L 3.296875 0 C 3.484375 0 3.78125 -0.015625 3.78125 -0.375 C 3.78125 -0.734375 3.484375 -0.75 3.296875 -0.75 L 2.296875 -0.75 L 2.296875 -1.890625 C 2.296875 -2.734375 2.828125 -3.625 3.890625 -3.65625 C 3.890625 -3.40625 4.125 -3.234375 4.390625 -3.234375 C 4.640625 -3.234375 4.875 -3.40625 4.875 -3.71875 Z M 4.875 -3.71875 "/>
</symbol>
<symbol overflow="visible" id="i15-glyph1-0">
<path style="stroke:none;" d=""/>
</symbol>
<symbol overflow="visible" id="i15-glyph1-1">
<path style="stroke:none;" d="M 5.109375 -0.3125 C 5.109375 -0.609375 4.84375 -0.609375 4.703125 -0.609375 L 4.25 -0.609375 L 4.25 -5.6875 C 4.25 -5.984375 4.203125 -6.09375 3.859375 -6.09375 L 3.125 -6.09375 C 2.96875 -6.09375 2.71875 -6.09375 2.71875 -5.78125 C 2.71875 -5.484375 2.984375 -5.484375 3.125 -5.484375 L 3.5625 -5.484375 L 3.5625 -3.90625 C 3.234375 -4.203125 2.828125 -4.359375 2.40625 -4.359375 C 1.3125 -4.359375 0.359375 -3.40625 0.359375 -2.140625 C 0.359375 -0.90625 1.25 0.0625 2.3125 0.0625 C 2.875 0.0625 3.296875 -0.203125 3.5625 -0.5 C 3.5625 -0.140625 3.5625 0 3.96875 0 L 4.6875 0 C 4.859375 0 5.109375 0 5.109375 -0.3125 Z M 3.5625 -1.9375 C 3.5625 -1.375 3.125 -0.546875 2.359375 -0.546875 C 1.640625 -0.546875 1.046875 -1.25 1.046875 -2.140625 C 1.046875 -3.09375 1.75 -3.75 2.4375 -3.75 C 3.078125 -3.75 3.5625 -3.1875 3.5625 -2.640625 Z M 3.5625 -1.9375 "/>
</symbol>
</g>
<clipPath id="i15-clip1">
  <path d="M 72 72 L 98 72 L 98 77.96875 L 72 77.96875 Z M 72 72 "/>
</clipPath>
<clipPath id="i15-clip2">
  <path d="M 103 72 L 108.613281 72 L 108.613281 77.96875 L 103 77.96875 Z M 103 72 "/>
</clipPath>
</defs>
<g id="i15-surface76">
<g> <!-- clip-path="url(#clip1)" clip-rule="nonzero" -->
<g style="fill:rgb(0%,19.999695%,46.998596%);fill-opacity:1;">
  <use xlink:href="#i15-glyph0-1" x="72" y="77.968"/>
  <use xlink:href="#i15-glyph0-2" x="77.230365" y="77.968"/>
  <use xlink:href="#i15-glyph0-3" x="82.46073" y="77.968"/>
  <use xlink:href="#i15-glyph0-4" x="87.691095" y="77.968"/>
  <use xlink:href="#i15-glyph0-5" x="92.92146" y="77.968"/>
</g>
</g>
<g> <!-- clip-path="url(#clip2)" clip-rule="nonzero" -->
<g style="fill:rgb(0%,0%,0%);fill-opacity:1;">
  <use xlink:href="#i15-glyph1-1" x="103.382" y="77.968"/>
</g>
</g>
</g>
</g>
 </defs>
</svg>
