<?xml version="1.0" encoding="UTF-8" standalone="no"?>
<svg
   xmlns:dc="http://purl.org/dc/elements/1.1/"
   xmlns:cc="http://creativecommons.org/ns#"
   xmlns:rdf="http://www.w3.org/1999/02/22-rdf-syntax-ns#"
   xmlns:svg="http://www.w3.org/2000/svg"
   xmlns="http://www.w3.org/2000/svg"
   viewBox="0 0 505.04398 254.14658"
   height="254.14658"
   width="505.04398"
   xml:space="preserve"
   id="svg358"
   version="1.1"><metadata
     id="metadata364"><rdf:RDF><cc:Work
         rdf:about=""><dc:format>image/svg+xml</dc:format><dc:type
           rdf:resource="http://purl.org/dc/dcmitype/StillImage" /><dc:title></dc:title></cc:Work></rdf:RDF></metadata><defs
     id="defs362" /><g
     transform="matrix(1.3333333,0,0,-1.3333333,2,252.14657)"
     id="g366"><g
       transform="scale(0.1)"
       id="g368"><path
         id="path370"
         style="fill:#dedede;fill-opacity:1;fill-rule:nonzero;stroke:none"
         d="m 1845.13,395.281 h 35.25 V 135.109 h 131.76 v -33.558 h -167.01 v 293.73" /><path
         id="path372"
         style="fill:#dedede;fill-opacity:1;fill-rule:nonzero;stroke:none"
         d="m 2197.63,156.941 v 27.27 c 0,0 -19.31,13.848 -50.78,13.848 -30.21,0 -49.09,-15.11 -49.09,-35.25 0,-25.18 22.65,-35.25 44.48,-35.25 34.4,0 55.39,29.382 55.39,29.382 z m 35.24,72.168 V 101.551 h -32.31 v 28.109 c 0,0 -21.82,-33.1483 -65.88,-33.1483 -34.82,0 -72.17,24.3403 -72.17,66.2973 0,37.769 33.15,64.621 76.79,64.621 35.66,0 58.33,-15.942 58.33,-15.942 v 10.492 c 0,40.282 -33.58,45.739 -49.1,45.739 -29.38,0 -57.9,-16.367 -57.9,-16.367 l -14.69,29.378 c 0,0 30.2,19.711 72.59,19.711 57.07,0 84.34,-35.242 84.34,-71.332" /><path
         id="path374"
         style="fill:#dedede;fill-opacity:1;fill-rule:nonzero;stroke:none"
         d="M 2481.3,226.18 V 101.551 h -35.25 v 118.75 c 0,33.148 -20.56,47.418 -46.58,47.418 -31.47,0 -48.26,-32.739 -48.26,-32.739 V 101.551 h -35.24 V 295.41 h 32.73 v -27.269 c 0,0 17.62,32.3 59.58,32.3 38.61,0 73.02,-26.429 73.02,-74.261" /><path
         id="path376"
         style="fill:#dedede;fill-opacity:1;fill-rule:nonzero;stroke:none"
         d="m 2707.47,234.98 c 0,0 -18.87,32.739 -57.06,32.739 -39.44,0 -64.21,-31.059 -64.21,-69.239 0,-38.179 24.77,-69.242 64.21,-69.242 38.61,0 57.06,32.731 57.06,32.731 z m 0,-109.101 c -6.71,-8.809 -26.85,-29.3673 -62.52,-29.3673 -52.45,0 -93.99,44.8983 -93.99,101.9683 0,57.071 41.54,101.961 93.99,101.961 46.59,0 65.46,-33.14 65.46,-33.14 v 28.109 h 32.32 V 100.711 C 2742.73,33.5703 2696.98,0 2640.75,0 2587.46,0 2556,36.9297 2556,36.9297 l 21.39,26.4297 c 0,0 23.5,-30.6289 63.36,-30.6289 41.13,0 66.72,22.6484 66.72,66.3008 v 26.8477" /><path
         id="path378"
         style="fill:#dedede;fill-opacity:1;fill-rule:nonzero;stroke:none"
         d="M 2825.82,170.781 V 295.41 h 35.25 V 176.648 c 0,-33.136 20.56,-47.41 46.58,-47.41 32.72,0 48.25,31.903 48.25,31.903 V 295.41 h 35.25 V 101.551 h -32.73 v 29.789 c 0,0 -17.63,-34.8283 -59.58,-34.8283 -38.61,0 -73.02,26.4293 -73.02,74.2693" /><path
         id="path380"
         style="fill:#dedede;fill-opacity:1;fill-rule:nonzero;stroke:none"
         d="m 3200.14,156.941 v 27.27 c 0,0 -19.31,13.848 -50.78,13.848 -30.21,0 -49.09,-15.11 -49.09,-35.25 0,-25.18 22.65,-35.25 44.48,-35.25 34.4,0 55.39,29.382 55.39,29.382 z m 35.24,72.168 V 101.551 h -32.31 v 28.109 c 0,0 -21.82,-33.1483 -65.88,-33.1483 -34.82,0 -72.17,24.3403 -72.17,66.2973 0,37.769 33.15,64.621 76.79,64.621 35.66,0 58.33,-15.942 58.33,-15.942 v 10.492 c 0,40.282 -33.58,45.739 -49.1,45.739 -29.38,0 -57.9,-16.367 -57.9,-16.367 l -14.69,29.378 c 0,0 30.2,19.711 72.59,19.711 57.07,0 84.34,-35.242 84.34,-71.332" /><path
         id="path382"
         style="fill:#dedede;fill-opacity:1;fill-rule:nonzero;stroke:none"
         d="m 3461.56,234.98 c 0,0 -18.87,32.739 -57.06,32.739 -39.44,0 -64.21,-31.059 -64.21,-69.239 0,-38.179 24.77,-69.242 64.21,-69.242 38.61,0 57.06,32.731 57.06,32.731 z m 0,-109.101 c -6.7,-8.809 -26.85,-29.3673 -62.52,-29.3673 -52.45,0 -93.99,44.8983 -93.99,101.9683 0,57.071 41.54,101.961 93.99,101.961 46.59,0 65.46,-33.14 65.46,-33.14 v 28.109 h 32.32 V 100.711 C 3496.82,33.5703 3451.08,0 3394.85,0 c -53.3,0 -84.76,36.9297 -84.76,36.9297 l 21.4,26.4297 c 0,0 23.49,-30.6289 63.36,-30.6289 41.12,0 66.71,22.6484 66.71,66.3008 v 26.8477" /><path
         id="path384"
         style="fill:#dedede;fill-opacity:1;fill-rule:nonzero;stroke:none"
         d="m 3723.42,215.27 c -1.26,21.812 -20.98,52.449 -60,52.449 -41.96,0 -59.17,-32.321 -61.69,-52.449 z m 34.41,-18.051 c 0,-3.778 0,-6.719 -0.42,-11.328 h -156.52 c 2.1,-29.371 30.22,-56.653 66.72,-56.653 38.19,0 58.33,28.543 58.33,28.543 l 22.24,-23.082 c 0,0 -29.37,-38.1873 -80.57,-38.1873 -58.74,0 -101.12,44.4763 -101.12,101.9683 0,56.649 38.6,101.961 96.93,101.961 54.13,0 94.41,-40.703 94.41,-103.222" /><path
         id="path386"
         style="fill:#de1d31;fill-opacity:1;fill-rule:nonzero;stroke:none"
         d="m 2600.45,1192.23 c 0,56.47 45.77,102.23 102.24,102.23 56.45,0 102.22,-45.76 102.22,-102.23 0,-56.46 -45.77,-102.23 -102.22,-102.23 -56.47,0 -102.24,45.77 -102.24,102.23" /><path
         id="path388"
         style="fill:#707a84;fill-opacity:1;fill-rule:nonzero;stroke:none"
         d="M 638.063,451.852 325.793,99.4805 H 599.094 L 788.066,330.629 C 728.535,358.078 677.188,399.961 638.063,451.852 Z M 2888.34,1873.34 c -127.61,-4.66 -270.77,-143.16 -270.77,-141.6 1.56,79.36 -57.57,155.61 -166.5,138.49 -108.93,-17.12 -245.87,-154.05 -247.43,-154.05 4.67,57.57 -33.51,125.25 -93.36,147.82 -85.42,32.24 -212.15,8.25 -376.06,-173.25 -128.94,-142.75 -456.44,-516.17 -579.78,-656.1 43.66,-25.89 81.86,-59.837 112.65,-100.013 l 391.92,484.323 c 0,0 227.1,297.77 351.68,326.77 103.13,24.02 119.2,-74.59 80.91,-166.5 -77.89,-186.93 -269.21,-497.95 -269.21,-497.95 0,0 267.66,347.01 312.79,404.59 45.11,57.57 270.76,340.79 370.35,241.2 97.06,-97.06 -194.51,-516.63 -194.51,-516.63 l 149.39,192.96 c 0,0 303.44,398.36 435.71,348.56 132.27,-49.79 -85.59,-413.92 -85.59,-412.37 0,0 130.48,99.46 200.74,312.79 32.13,97.54 4.68,225.63 -122.93,220.96" /><path
         id="path390"
         style="fill:#dedede;fill-opacity:1;fill-rule:nonzero;stroke:none"
         d="m 0.0507813,883.734 c 0,85.758 69.1015187,158.186 172.3442187,158.186 54.121,0 99.91,-19.98 129.882,-50.775 30.817,30.795 75.766,50.775 129.887,50.775 104.082,0 169.856,-72.428 169.856,-158.186 l -0.051,-376.773 h -94.926 l 0.051,362.617 c 0,59.113 -29.957,91.578 -76.586,91.578 -45.805,0 -81.606,-32.465 -81.606,-91.578 l -0.047,-362.617 h -95.742 l 0.047,362.617 c 0,59.113 -35.797,91.578 -82.422,91.578 -45.808,0 -75.781,-32.465 -75.781,-91.578 L 94.9102,506.961 H 0 l 0.0507813,376.773" /><path
         id="path392"
         style="fill:#dedede;fill-opacity:1;fill-rule:nonzero;stroke:none"
         d="m 1485.39,591.5 c 54.13,0 97.42,43.281 97.42,97.398 0,54.122 -43.29,97.422 -97.42,97.422 -54.1,0 -97.4,-43.3 -97.4,-97.422 0,-54.117 43.3,-97.398 97.4,-97.398 z m 96.6,441.27 h 95.75 V 692.23 c 0,-105.71 -85.77,-192.3 -192.35,-192.3 -105.73,0 -191.49,86.59 -191.49,192.3 0,106.571 80.77,192.344 184.83,192.344 44.97,0 81.61,-20.824 103.26,-39.144 v 187.34" /><path
         id="path394"
         style="fill:#dedede;fill-opacity:1;fill-rule:nonzero;stroke:none"
         d="m 1051.74,690.988 c 0,55.371 -37.44,102.543 -98.056,102.543 -60.621,0 -98.024,-47.172 -98.024,-102.543 0,-55.367 37.403,-102.539 98.024,-102.539 60.616,0 98.056,47.172 98.056,102.539 z m 91.3,0 c 0,-104.027 -83.83,-186.347 -189.356,-186.347 -105.528,0 -189.332,82.32 -189.332,186.347 0,104.774 83.804,186.34 189.332,186.34 105.526,0 189.356,-81.566 189.356,-186.34" /><path
         id="path396"
         style="fill:#dedede;fill-opacity:1;fill-rule:nonzero;stroke:none"
         d="m 2094.85,723.91 c -1.53,30.68 -29.97,71.852 -89.09,71.852 -57.62,0 -83.8,-40.403 -86.79,-71.852 z m 89.78,-31.43 c 0,-6.742 0,-20.191 -0.73,-33.679 h -264.93 c 6.71,-31.422 43.39,-71.84 99.52,-71.84 62.11,0 97.28,35.93 97.28,35.93 l 44.92,-67.36 c 0,0 -56.14,-50.89 -142.2,-50.89 -107.76,0 -190.83,82.32 -190.83,186.347 0,104.032 75.6,186.34 178.1,186.34 97.3,0 178.87,-75.566 178.87,-184.848" /><path
         id="path398"
         style="fill:#dedede;fill-opacity:1;fill-rule:nonzero;stroke:none"
         d="m 2360.79,1032.77 h 93.4 V 506.961 h -93.4 v 525.809" /><path
         id="path400"
         style="fill:#dedede;fill-opacity:1;fill-rule:nonzero;stroke:none"
         d="m 3181.31,631.871 59.12,-59.891 c 0,0 -50.88,-67.339 -146.68,-67.339 -106.26,0 -190.82,82.32 -190.82,186.347 0,104.774 84.56,186.34 190.82,186.34 95.07,0 145.19,-65.867 145.19,-65.867 l -62.11,-55.371 c 0,0 -29.16,37.441 -83.08,37.441 -60.61,0 -99.51,-47.172 -99.51,-102.543 0,-55.367 38.9,-102.539 99.51,-102.539 60.63,0 87.56,43.422 87.56,43.422" /><path
         id="path402"
         style="fill:#dedede;fill-opacity:1;fill-rule:nonzero;stroke:none"
         d="m 2653.74,877.035 h 94.16 V 506.961 h -94.16 v 370.074" /><path
         id="path404"
         style="fill:#dedede;fill-opacity:1;fill-rule:nonzero;stroke:none"
         d="m 3562.5,588.449 c -60.61,0 -98.02,47.172 -98.02,102.539 0,55.371 37.41,102.543 98.02,102.543 60.62,0 98.06,-47.172 98.06,-102.543 0,-55.367 -37.44,-102.539 -98.06,-102.539 z m 98.06,288.586 v -26.183 c -28.54,16.757 -61.96,26.476 -98.06,26.476 -105.53,0 -189.33,-81.566 -189.33,-186.34 0,-104.027 83.8,-186.347 189.33,-186.347 36.1,0 69.52,9.82 98.06,26.64 v -24.562 h 94.16 v 370.316 h -94.16" /></g></g></svg>