<?xml version="1.0" standalone="yes"?>
<!DOCTYPE svg PUBLIC "-//W3C//DTD SVG 1.1//EN"
  "http://www.w3.org/Graphics/SVG/1.1/DTD/svg11.dtd">
<svg version="1.1" xmlns="http://www.w3.org/2000/svg" xmlns:xlink="http://www.w3.org/1999/xlink" width="14.303cm" height="39.4157mm" viewBox="-6.27418 -39.544 405.439 111.729" fill="none" stroke="#000000" stroke-width="2" stroke-miterlimit="10">
 <g transform="scale(1.0, -1.0)">
  <path d="M0.00 0.00H396.85" />
  <use transform="matrix(1 0 0 1 167.043 32.5984)" xlink:href="#g20" />
  <use xlink:href="#g23" />
  <g fill="#000000" stroke="none" stroke-width="0.3">
   <path transform="matrix(1 0 0 1 113.386 0)" d="M2.83 0.00C2.83 1.56 1.56 2.83 0.00 2.83C-1.56 2.83 -2.83 1.56 -2.83 0.00C-2.83 -1.56 -1.56 -2.83 0.00 -2.83C1.56 -2.83 2.83 -1.56 2.83 0.00z" />
   <use transform="matrix(1 0 0 1 94.6227 7.08661)" xlink:href="#g14" />
   <use transform="matrix(1 0 0 1 93.4942 21.2598)" xlink:href="#g8" />
   <path transform="matrix(1 0 0 1 28.3465 -28.3465)" d="M2.83 0.00C2.83 1.56 1.56 2.83 0.00 2.83C-1.56 2.83 -2.83 1.56 -2.83 0.00C-2.83 -1.56 -1.56 -2.83 0.00 -2.83C1.56 -2.83 2.83 -1.56 2.83 0.00z" />
   <use transform="matrix(1 0 0 1 34.0157 -35.6989)" xlink:href="#g5" />
   <path transform="matrix(1 0 0 1 14.1732 -56.6929)" d="M2.83 0.00C2.83 1.56 1.56 2.83 0.00 2.83C-1.56 2.83 -2.83 1.56 -2.83 0.00C-2.83 -1.56 -1.56 -2.83 0.00 -2.83C1.56 -2.83 2.83 -1.56 2.83 0.00z" />
   <use transform="matrix(1 0 0 1 -5.77418 -71.1319)" xlink:href="#g11" />
   <path transform="matrix(1 0 0 1 28.3465 -28.3465)" d="M0.00 0.00L-14.17 -28.35" fill="none" stroke="#000000" />
   <g stroke-width="0.15" stroke-dasharray="2.83465 2.83465">
    <path transform="matrix(1 0 0 1 76.5354 -28.3465)" d="M2.83 0.00C2.83 1.56 1.56 2.83 0.00 2.83C-1.56 2.83 -2.83 1.56 -2.83 0.00C-2.83 -1.56 -1.56 -2.83 0.00 -2.83C1.56 -2.83 2.83 -1.56 2.83 0.00z" />
    <use transform="matrix(1 0 0 1 82.2047 -35.6989)" xlink:href="#g10" />
    <path transform="matrix(1 0 0 1 76.5354 -28.3465)" d="M0.00 0.00L-14.17 -28.35" fill="none" stroke="#000000" />
    <path transform="matrix(1 0 0 1 76.5354 -28.3465)" d="M0.00 0.00L14.17 -28.35" fill="none" stroke="#000000" />
   </g>
   <path transform="matrix(1 0 0 1 141.732 -28.3465)" d="M2.83 0.00C2.83 1.56 1.56 2.83 0.00 2.83C-1.56 2.83 -2.83 1.56 -2.83 0.00C-2.83 -1.56 -1.56 -2.83 0.00 -2.83C1.56 -2.83 2.83 -1.56 2.83 0.00z" />
   <use transform="matrix(1 0 0 1 147.402 -35.6989)" xlink:href="#g13" />
   <path transform="matrix(1 0 0 1 133.228 -56.6929)" d="M2.83 0.00C2.83 1.56 1.56 2.83 0.00 2.83C-1.56 2.83 -2.83 1.56 -2.83 0.00C-2.83 -1.56 -1.56 -2.83 0.00 -2.83C1.56 -2.83 2.83 -1.56 2.83 0.00z" />
   <use transform="matrix(1 0 0 1 100.923 -71.1319)" xlink:href="#g18" />
   <path transform="matrix(1 0 0 1 161.575 -56.6929)" d="M2.83 0.00C2.83 1.56 1.56 2.83 0.00 2.83C-1.56 2.83 -2.83 1.56 -2.83 0.00C-2.83 -1.56 -1.56 -2.83 0.00 -2.83C1.56 -2.83 2.83 -1.56 2.83 0.00z" />
   <use transform="matrix(1 0 0 1 148.188 -71.1319)" xlink:href="#g19" />
   <path transform="matrix(1 0 0 1 141.732 -28.3465)" d="M0.00 0.00L-8.50 -28.35" fill="none" stroke="#000000" />
   <path transform="matrix(1 0 0 1 141.732 -28.3465)" d="M0.00 0.00L19.84 -28.35" fill="none" stroke="#000000" />
   <path transform="matrix(1 0 0 1 141.732 -28.3465)" d="M0.00 0.00L-36.85 -28.35" fill="none" stroke="#000000" stroke-width="0.15" stroke-dasharray="2.83465 2.83465" />
   <path transform="matrix(1 0 0 1 198.425 -28.3465)" d="M2.83 0.00C2.83 1.56 1.56 2.83 0.00 2.83C-1.56 2.83 -2.83 1.56 -2.83 0.00C-2.83 -1.56 -1.56 -2.83 0.00 -2.83C1.56 -2.83 2.83 -1.56 2.83 0.00z" />
   <use transform="matrix(1 0 0 1 204.094 -35.6989)" xlink:href="#g12" />
   <path transform="matrix(1 0 0 1 113.386 0)" d="M0.00 0.00L-85.04 -28.35" fill="none" stroke="#000000" />
   <path transform="matrix(1 0 0 1 113.386 0)" d="M0.00 0.00L-36.85 -28.35" fill="none" stroke="#000000" />
   <path transform="matrix(1 0 0 1 113.386 0)" d="M0.00 0.00L28.35 -28.35" fill="none" stroke="#000000" />
   <path transform="matrix(1 0 0 1 113.386 0)" d="M0.00 0.00L85.04 -28.35" fill="none" stroke="#000000" />
   <path transform="matrix(1 0 0 1 113.386 0)" d="M0.00 0.00L-113.39 -28.35" fill="none" stroke="#000000" stroke-width="0.15" stroke-dasharray="2.83465 2.83465" />
  </g>
  <g fill="#000000" stroke="none" stroke-width="0.3">
   <path transform="matrix(1 0 0 1 274.961 0)" d="M2.83 0.00C2.83 1.56 1.56 2.83 0.00 2.83C-1.56 2.83 -2.83 1.56 -2.83 0.00C-2.83 -1.56 -1.56 -2.83 0.00 -2.83C1.56 -2.83 2.83 -1.56 2.83 0.00z" />
   <use transform="matrix(1 0 0 1 261.843 7.08661)" xlink:href="#g15" />
   <use transform="matrix(1 0 0 1 260.459 21.2598)" xlink:href="#g6" />
   <path transform="matrix(1 0 0 1 260.787 -28.3465)" d="M2.83 0.00C2.83 1.56 1.56 2.83 0.00 2.83C-1.56 2.83 -2.83 1.56 -2.83 0.00C-2.83 -1.56 -1.56 -2.83 0.00 -2.83C1.56 -2.83 2.83 -1.56 2.83 0.00z" />
   <use transform="matrix(1 0 0 1 244.436 -42.7855)" xlink:href="#g16" />
   <path transform="matrix(1 0 0 1 289.134 -28.3465)" d="M2.83 0.00C2.83 1.56 1.56 2.83 0.00 2.83C-1.56 2.83 -2.83 1.56 -2.83 0.00C-2.83 -1.56 -1.56 -2.83 0.00 -2.83C1.56 -2.83 2.83 -1.56 2.83 0.00z" />
   <use transform="matrix(1 0 0 1 280.329 -42.7855)" xlink:href="#g17" />
   <path transform="matrix(1 0 0 1 274.961 0)" d="M0.00 0.00L-14.17 -28.35" fill="none" stroke="#000000" />
   <path transform="matrix(1 0 0 1 274.961 0)" d="M0.00 0.00L14.17 -28.35" fill="none" stroke="#000000" />
  </g>
  <g fill="#000000" stroke="none">
   <path transform="matrix(1 0 0 1 354.331 0)" d="M2.83 0.00C2.83 1.56 1.56 2.83 0.00 2.83C-1.56 2.83 -2.83 1.56 -2.83 0.00C-2.83 -1.56 -1.56 -2.83 0.00 -2.83C1.56 -2.83 2.83 -1.56 2.83 0.00z" />
   <use transform="matrix(1 0 0 1 309.997 7.08661)" xlink:href="#g9" />
   <use transform="matrix(1 0 0 1 339.829 21.2598)" xlink:href="#g7" />
  </g>
 </g>
 <defs>
  <g id="g20" transform="translate(-72, 77.968)scale(1.0, -1.0)">
<defs>
<g>
<symbol overflow="visible" id="i20-glyph0-0">
<path style="stroke:none;" d=""/>
</symbol>
<symbol overflow="visible" id="i20-glyph0-1">
<path style="stroke:none;" d="M 5.046875 -0.296875 C 5.046875 -0.609375 4.84375 -0.609375 4.53125 -0.609375 L 4.53125 -5.484375 C 4.84375 -5.484375 5.046875 -5.484375 5.046875 -5.796875 C 5.046875 -6.09375 4.8125 -6.09375 4.65625 -6.09375 L 4.09375 -6.09375 C 3.6875 -6.09375 3.65625 -5.953125 3.5625 -5.6875 L 2.890625 -3.671875 C 2.765625 -3.3125 2.6875 -3.03125 2.625 -2.734375 L 2.609375 -2.734375 C 2.515625 -3.203125 1.640625 -5.796875 1.609375 -5.859375 C 1.515625 -6.09375 1.265625 -6.09375 1.125 -6.09375 L 0.5625 -6.09375 C 0.421875 -6.09375 0.171875 -6.09375 0.171875 -5.796875 C 0.171875 -5.484375 0.375 -5.484375 0.703125 -5.484375 L 0.703125 -0.609375 C 0.375 -0.609375 0.171875 -0.609375 0.171875 -0.296875 C 0.171875 0 0.421875 0 0.5625 0 L 1.390625 0 C 1.53125 0 1.78125 0 1.78125 -0.296875 C 1.78125 -0.609375 1.578125 -0.609375 1.25 -0.609375 L 1.25 -5.359375 L 1.265625 -5.359375 C 1.375 -4.90625 2.015625 -2.984375 2.046875 -2.859375 C 2.140625 -2.625 2.265625 -2.25 2.3125 -2.1875 C 2.375 -2.109375 2.5 -2.03125 2.609375 -2.03125 C 2.734375 -2.03125 2.875 -2.109375 2.953125 -2.25 C 2.984375 -2.3125 3.84375 -4.828125 3.953125 -5.359375 L 3.96875 -5.359375 L 3.96875 -0.609375 C 3.65625 -0.609375 3.4375 -0.609375 3.4375 -0.296875 C 3.4375 0 3.6875 0 3.84375 0 L 4.65625 0 C 4.8125 0 5.046875 0 5.046875 -0.296875 Z M 5.046875 -0.296875 "/>
</symbol>
<symbol overflow="visible" id="i20-glyph0-2">
<path style="stroke:none;" d="M 4.671875 -3.046875 C 4.671875 -5.921875 4.453125 -6.203125 2.609375 -6.203125 C 0.765625 -6.203125 0.5625 -5.9375 0.5625 -3.046875 C 0.5625 -0.15625 0.765625 0.109375 2.609375 0.109375 C 4.453125 0.109375 4.671875 -0.15625 4.671875 -3.046875 Z M 3.984375 -3.125 C 3.984375 -2.515625 3.984375 -1.796875 3.875 -1.265625 C 3.765625 -0.703125 3.5 -0.5 2.609375 -0.5 C 1.734375 -0.5 1.484375 -0.703125 1.359375 -1.203125 C 1.25 -1.71875 1.25 -2.578125 1.25 -3.125 C 1.25 -3.75 1.25 -4.421875 1.359375 -4.890625 C 1.484375 -5.46875 1.796875 -5.59375 2.609375 -5.59375 C 3.359375 -5.59375 3.703125 -5.5 3.859375 -4.953125 C 3.984375 -4.484375 3.984375 -3.734375 3.984375 -3.125 Z M 3.984375 -3.125 "/>
</symbol>
<symbol overflow="visible" id="i20-glyph0-3">
<path style="stroke:none;" d="M 4.828125 -3 C 4.828125 -4.59375 3.984375 -6.09375 2.65625 -6.09375 L 0.59375 -6.09375 C 0.4375 -6.09375 0.1875 -6.09375 0.1875 -5.78125 C 0.1875 -5.484375 0.453125 -5.484375 0.59375 -5.484375 L 0.8125 -5.484375 L 0.8125 -0.609375 L 0.59375 -0.609375 C 0.4375 -0.609375 0.1875 -0.609375 0.1875 -0.296875 C 0.1875 0 0.453125 0 0.59375 0 L 2.65625 0 C 3.953125 0 4.828125 -1.390625 4.828125 -3 Z M 4.140625 -3 C 4.140625 -1.828125 3.5625 -0.609375 2.46875 -0.609375 L 1.5 -0.609375 L 1.5 -5.484375 L 2.46875 -5.484375 C 3.59375 -5.484375 4.140625 -4.15625 4.140625 -3 Z M 4.140625 -3 "/>
</symbol>
<symbol overflow="visible" id="i20-glyph0-4">
<path style="stroke:none;" d="M 5 -0.40625 L 5 -1.296875 C 5 -1.484375 5 -1.703125 4.671875 -1.703125 C 4.3125 -1.703125 4.3125 -1.5 4.3125 -1.296875 L 4.3125 -0.609375 L 1.65625 -0.609375 L 1.65625 -2.84375 L 2.953125 -2.84375 C 2.953125 -2.4375 2.953125 -2.28125 3.3125 -2.28125 C 3.65625 -2.28125 3.65625 -2.5 3.65625 -2.6875 L 3.65625 -3.625 C 3.65625 -3.8125 3.65625 -4.03125 3.3125 -4.03125 C 2.953125 -4.03125 2.953125 -3.875 2.953125 -3.453125 L 1.65625 -3.453125 L 1.65625 -5.484375 L 4.09375 -5.484375 L 4.09375 -4.953125 C 4.09375 -4.765625 4.09375 -4.546875 4.4375 -4.546875 C 4.78125 -4.546875 4.78125 -4.75 4.78125 -4.953125 L 4.78125 -5.6875 C 4.78125 -5.984375 4.71875 -6.09375 4.390625 -6.09375 L 0.671875 -6.09375 C 0.515625 -6.09375 0.265625 -6.09375 0.265625 -5.796875 C 0.265625 -5.484375 0.515625 -5.484375 0.671875 -5.484375 L 0.96875 -5.484375 L 0.96875 -0.609375 L 0.671875 -0.609375 C 0.515625 -0.609375 0.265625 -0.609375 0.265625 -0.296875 C 0.265625 0 0.515625 0 0.671875 0 L 4.609375 0 C 4.9375 0 5 -0.09375 5 -0.40625 Z M 5 -0.40625 "/>
</symbol>
<symbol overflow="visible" id="i20-glyph0-5">
<path style="stroke:none;" d="M 4.859375 -0.40625 L 4.859375 -1.296875 C 4.859375 -1.5 4.859375 -1.703125 4.53125 -1.703125 C 4.171875 -1.703125 4.171875 -1.5 4.171875 -1.296875 L 4.171875 -0.609375 L 1.78125 -0.609375 L 1.78125 -5.484375 L 2.328125 -5.484375 C 2.46875 -5.484375 2.734375 -5.484375 2.734375 -5.78125 C 2.734375 -6.09375 2.484375 -6.09375 2.328125 -6.09375 L 0.71875 -6.09375 C 0.5625 -6.09375 0.3125 -6.09375 0.3125 -5.78125 C 0.3125 -5.484375 0.5625 -5.484375 0.71875 -5.484375 L 1.09375 -5.484375 L 1.09375 -0.609375 L 0.71875 -0.609375 C 0.5625 -0.609375 0.3125 -0.609375 0.3125 -0.296875 C 0.3125 0 0.5625 0 0.71875 0 L 4.46875 0 C 4.796875 0 4.859375 -0.09375 4.859375 -0.40625 Z M 4.859375 -0.40625 "/>
</symbol>
<symbol overflow="visible" id="i20-glyph0-6">
<path style="stroke:none;" d="M 4.453125 -0.296875 C 4.453125 -0.609375 4.1875 -0.609375 4.03125 -0.609375 L 2.953125 -0.609375 L 2.953125 -5.484375 L 4.03125 -5.484375 C 4.1875 -5.484375 4.453125 -5.484375 4.453125 -5.78125 C 4.453125 -6.09375 4.1875 -6.09375 4.03125 -6.09375 L 1.203125 -6.09375 C 1.046875 -6.09375 0.78125 -6.09375 0.78125 -5.796875 C 0.78125 -5.484375 1.046875 -5.484375 1.203125 -5.484375 L 2.265625 -5.484375 L 2.265625 -0.609375 L 1.203125 -0.609375 C 1.046875 -0.609375 0.78125 -0.609375 0.78125 -0.3125 C 0.78125 0 1.046875 0 1.203125 0 L 4.03125 0 C 4.1875 0 4.453125 0 4.453125 -0.296875 Z M 4.453125 -0.296875 "/>
</symbol>
<symbol overflow="visible" id="i20-glyph0-7">
<path style="stroke:none;" d="M 4.828125 -1.671875 C 4.828125 -2 4.578125 -2 4.46875 -2 C 4.390625 -2 4.15625 -2 4.140625 -1.71875 C 4.0625 -0.734375 3.265625 -0.5 2.84375 -0.5 C 1.9375 -0.5 1.09375 -1.5625 1.09375 -3.046875 C 1.09375 -4.53125 1.953125 -5.59375 2.84375 -5.59375 C 3.4375 -5.59375 3.984375 -5.140625 4.125 -4.328125 C 4.15625 -4.15625 4.171875 -4 4.46875 -4 C 4.828125 -4 4.828125 -4.203125 4.828125 -4.40625 L 4.828125 -5.796875 C 4.828125 -5.953125 4.828125 -6.203125 4.53125 -6.203125 C 4.34375 -6.203125 4.296875 -6.09375 4.25 -6.03125 C 4.234375 -5.984375 4.234375 -5.96875 4.09375 -5.71875 C 3.765625 -6 3.3125 -6.203125 2.796875 -6.203125 C 1.515625 -6.203125 0.40625 -4.859375 0.40625 -3.046875 C 0.40625 -1.21875 1.515625 0.109375 2.8125 0.109375 C 3.96875 0.109375 4.828125 -0.78125 4.828125 -1.671875 Z M 4.828125 -1.671875 "/>
</symbol>
<symbol overflow="visible" id="i20-glyph0-8">
<path style="stroke:none;" d="M 4.953125 -0.296875 C 4.953125 -0.421875 4.90625 -0.53125 4.78125 -0.578125 C 4.71875 -0.609375 4.5 -0.609375 4.359375 -0.609375 L 3.15625 -5.828125 C 3.0625 -6.203125 2.921875 -6.203125 2.609375 -6.203125 C 2.328125 -6.203125 2.15625 -6.203125 2.078125 -5.828125 L 0.875 -0.609375 C 0.734375 -0.609375 0.5 -0.609375 0.4375 -0.59375 C 0.328125 -0.53125 0.265625 -0.421875 0.265625 -0.296875 C 0.265625 0 0.53125 0 0.703125 0 L 1.71875 0 C 1.890625 0 2.140625 0 2.140625 -0.296875 C 2.140625 -0.609375 1.9375 -0.609375 1.578125 -0.609375 L 1.796875 -1.640625 L 3.421875 -1.640625 L 3.65625 -0.609375 C 3.296875 -0.609375 3.09375 -0.609375 3.09375 -0.296875 C 3.09375 0 3.328125 0 3.515625 0 L 4.53125 0 C 4.6875 0 4.953125 0 4.953125 -0.296875 Z M 3.265625 -2.25 L 1.953125 -2.25 L 2.609375 -5.390625 Z M 3.265625 -2.25 "/>
</symbol>
<symbol overflow="visible" id="i20-glyph0-9">
<path style="stroke:none;" d="M 4.78125 -4.265625 C 4.78125 -5.1875 4.046875 -6.09375 2.90625 -6.09375 L 0.671875 -6.09375 C 0.515625 -6.09375 0.265625 -6.09375 0.265625 -5.796875 C 0.265625 -5.484375 0.515625 -5.484375 0.671875 -5.484375 L 0.96875 -5.484375 L 0.96875 -0.609375 L 0.671875 -0.609375 C 0.515625 -0.609375 0.265625 -0.609375 0.265625 -0.296875 C 0.265625 0 0.515625 0 0.671875 0 L 1.953125 0 C 2.109375 0 2.359375 0 2.359375 -0.296875 C 2.359375 -0.609375 2.109375 -0.609375 1.953125 -0.609375 L 1.65625 -0.609375 L 1.65625 -2.4375 L 2.90625 -2.4375 C 4.0625 -2.4375 4.78125 -3.34375 4.78125 -4.265625 Z M 4.09375 -4.265625 C 4.09375 -3.734375 3.671875 -3.046875 2.71875 -3.046875 L 1.65625 -3.046875 L 1.65625 -5.484375 L 2.71875 -5.484375 C 3.671875 -5.484375 4.09375 -4.796875 4.09375 -4.265625 Z M 4.09375 -4.265625 "/>
</symbol>
<symbol overflow="visible" id="i20-glyph0-10">
<path style="stroke:none;" d="M 4.96875 -4.953125 L 4.96875 -5.6875 C 4.96875 -5.984375 4.90625 -6.09375 4.5625 -6.09375 L 0.671875 -6.09375 C 0.34375 -6.09375 0.265625 -6.015625 0.265625 -5.6875 L 0.265625 -4.953125 C 0.265625 -4.765625 0.265625 -4.546875 0.59375 -4.546875 C 0.953125 -4.546875 0.953125 -4.75 0.953125 -4.953125 L 0.953125 -5.484375 L 2.265625 -5.484375 L 2.265625 -0.609375 L 1.75 -0.609375 C 1.609375 -0.609375 1.359375 -0.609375 1.359375 -0.3125 C 1.359375 0 1.59375 0 1.75 0 L 3.484375 0 C 3.625 0 3.875 0 3.875 -0.296875 C 3.875 -0.609375 3.640625 -0.609375 3.484375 -0.609375 L 2.953125 -0.609375 L 2.953125 -5.484375 L 4.28125 -5.484375 L 4.28125 -4.953125 C 4.28125 -4.765625 4.28125 -4.546875 4.609375 -4.546875 C 4.96875 -4.546875 4.96875 -4.75 4.96875 -4.953125 Z M 4.96875 -4.953125 "/>
</symbol>
<symbol overflow="visible" id="i20-glyph0-11">
<path style="stroke:none;" d="M 5 -0.296875 C 5 -0.609375 4.765625 -0.609375 4.609375 -0.609375 L 4.359375 -0.609375 L 4.359375 -5.484375 L 4.609375 -5.484375 C 4.75 -5.484375 5 -5.484375 5 -5.78125 C 5 -6.09375 4.765625 -6.09375 4.609375 -6.09375 L 3.421875 -6.09375 C 3.265625 -6.09375 3.015625 -6.09375 3.015625 -5.796875 C 3.015625 -5.484375 3.265625 -5.484375 3.421875 -5.484375 L 3.671875 -5.484375 L 3.671875 -3.46875 L 1.5625 -3.46875 L 1.5625 -5.484375 L 1.796875 -5.484375 C 1.953125 -5.484375 2.203125 -5.484375 2.203125 -5.78125 C 2.203125 -6.09375 1.96875 -6.09375 1.796875 -6.09375 L 0.625 -6.09375 C 0.453125 -6.09375 0.21875 -6.09375 0.21875 -5.78125 C 0.21875 -5.484375 0.46875 -5.484375 0.625 -5.484375 L 0.875 -5.484375 L 0.875 -0.609375 L 0.625 -0.609375 C 0.453125 -0.609375 0.21875 -0.609375 0.21875 -0.296875 C 0.21875 0 0.46875 0 0.625 0 L 1.796875 0 C 1.953125 0 2.203125 0 2.203125 -0.296875 C 2.203125 -0.609375 1.96875 -0.609375 1.796875 -0.609375 L 1.5625 -0.609375 L 1.5625 -2.859375 L 3.671875 -2.859375 L 3.671875 -0.609375 L 3.421875 -0.609375 C 3.265625 -0.609375 3.015625 -0.609375 3.015625 -0.3125 C 3.015625 0 3.265625 0 3.421875 0 L 4.609375 0 C 4.75 0 5 0 5 -0.296875 Z M 5 -0.296875 "/>
</symbol>
</g>
<clipPath id="i20-clip1">
  <path d="M 72 72 L 134.765625 72 L 134.765625 77.96875 L 72 77.96875 Z M 72 72 "/>
</clipPath>
</defs>
<g id="i20-surface101">
<g> <!-- clip-path="url(#clip1)" clip-rule="nonzero" -->
<g style="fill:rgb(0%,0%,0%);fill-opacity:1;">
  <use xlink:href="#i20-glyph0-1" x="72" y="77.968"/>
  <use xlink:href="#i20-glyph0-2" x="77.230365" y="77.968"/>
  <use xlink:href="#i20-glyph0-3" x="82.46073" y="77.968"/>
  <use xlink:href="#i20-glyph0-4" x="87.691095" y="77.968"/>
  <use xlink:href="#i20-glyph0-5" x="92.92146" y="77.968"/>
  <use xlink:href="#i20-glyph0-6" x="98.151825" y="77.968"/>
  <use xlink:href="#i20-glyph0-7" x="103.38219" y="77.968"/>
  <use xlink:href="#i20-glyph0-8" x="108.612555" y="77.968"/>
  <use xlink:href="#i20-glyph0-9" x="113.84292" y="77.968"/>
  <use xlink:href="#i20-glyph0-8" x="119.073285" y="77.968"/>
  <use xlink:href="#i20-glyph0-10" x="124.30365" y="77.968"/>
  <use xlink:href="#i20-glyph0-11" x="129.534015" y="77.968"/>
</g>
</g>
</g>
</g>
  <g id="g23" fill="none" fill-rule="nonzero" fill-opacity="1" stroke="#000000" stroke-width="0.3" stroke-linecap="butt" stroke-linejoin="miter" stroke-miterlimit="10" stroke-dasharray="none" stroke-opacity="1">
   <path d="M198.43 28.35C198.43 28.35 193.15 11.38 190.91 4.18" />
   <path d="M189.92 1.00C189.92 1.00 189.77 4.12 189.57 8.30L191.76 6.92L194.35 6.82C191.81 3.49 189.92 1.00 189.92 1.00z" fill="#000000" stroke="none" />
  </g>
  <g id="g14" transform="translate(-72, 78.919)scale(1.0, -1.0)">
<defs>
<g>
<symbol overflow="visible" id="i14-glyph0-0">
<path style="stroke:none;" d=""/>
</symbol>
<symbol overflow="visible" id="i14-glyph0-1">
<path style="stroke:none;" d="M 7.71875 0 L 7.71875 -6.921875 L 6.578125 -6.921875 L 5.28125 -3.53125 C 4.9375 -2.625 4.46875 -1.390625 4.359375 -0.921875 L 4.34375 -0.921875 C 4.296875 -1.140625 4.171875 -1.5 4.03125 -1.921875 L 2.46875 -6.046875 L 2.125 -6.921875 L 1 -6.921875 L 1 0 L 1.78125 0 L 1.78125 -6.1875 C 1.84375 -5.859375 2.25 -4.78125 2.5 -4.09375 L 3.984375 -0.21875 L 4.703125 -0.21875 L 6.03125 -3.6875 L 6.515625 -4.953125 C 6.609375 -5.25 6.875 -5.96875 6.921875 -6.1875 L 6.9375 -6.1875 L 6.9375 0 Z M 7.71875 0 "/>
</symbol>
<symbol overflow="visible" id="i14-glyph0-2">
<path style="stroke:none;" d="M 4.671875 -2.1875 C 4.671875 -3.53125 3.671875 -4.59375 2.5 -4.59375 C 1.265625 -4.59375 0.296875 -3.5 0.296875 -2.1875 C 0.296875 -0.875 1.3125 0.109375 2.484375 0.109375 C 3.671875 0.109375 4.671875 -0.890625 4.671875 -2.1875 Z M 3.890625 -2.296875 C 3.890625 -1.109375 3.21875 -0.53125 2.484375 -0.53125 C 1.796875 -0.53125 1.078125 -1.09375 1.078125 -2.296875 C 1.078125 -3.5 1.828125 -3.984375 2.484375 -3.984375 C 3.1875 -3.984375 3.890625 -3.46875 3.890625 -2.296875 Z M 3.890625 -2.296875 "/>
</symbol>
<symbol overflow="visible" id="i14-glyph0-3">
<path style="stroke:none;" d="M 4.328125 0 L 4.328125 -6.921875 L 3.578125 -6.921875 L 3.578125 -3.984375 C 3.046875 -4.421875 2.5 -4.53125 2.125 -4.53125 C 1.140625 -4.53125 0.359375 -3.5 0.359375 -2.21875 C 0.359375 -0.90625 1.125 0.109375 2.078125 0.109375 C 2.40625 0.109375 2.984375 0.015625 3.546875 -0.515625 L 3.546875 0 Z M 3.546875 -1.390625 C 3.546875 -1.25 3.53125 -1.0625 3.21875 -0.78125 C 2.984375 -0.578125 2.734375 -0.5 2.484375 -0.5 C 1.859375 -0.5 1.140625 -0.96875 1.140625 -2.203125 C 1.140625 -3.515625 2 -3.921875 2.578125 -3.921875 C 3.03125 -3.921875 3.328125 -3.703125 3.546875 -3.375 Z M 3.546875 -1.390625 "/>
</symbol>
<symbol overflow="visible" id="i14-glyph0-4">
<path style="stroke:none;" d="M 4.125 -2.1875 C 4.125 -2.515625 4.109375 -3.265625 3.734375 -3.875 C 3.3125 -4.484375 2.71875 -4.59375 2.359375 -4.59375 C 1.25 -4.59375 0.34375 -3.53125 0.34375 -2.25 C 0.34375 -0.9375 1.3125 0.109375 2.5 0.109375 C 3.125 0.109375 3.703125 -0.125 4.09375 -0.40625 L 4.03125 -1.0625 C 3.40625 -0.53125 2.734375 -0.5 2.515625 -0.5 C 1.71875 -0.5 1.078125 -1.203125 1.046875 -2.1875 Z M 3.5625 -2.734375 L 1.09375 -2.734375 C 1.25 -3.484375 1.78125 -3.984375 2.359375 -3.984375 C 2.875 -3.984375 3.421875 -3.65625 3.5625 -2.734375 Z M 3.5625 -2.734375 "/>
</symbol>
<symbol overflow="visible" id="i14-glyph0-5">
<path style="stroke:none;" d="M 1.5625 0 L 1.5625 -6.921875 L 0.8125 -6.921875 L 0.8125 0 Z M 1.5625 0 "/>
</symbol>
<symbol overflow="visible" id="i14-glyph0-6">
<path style="stroke:none;" d="M 1.5625 0 L 1.5625 -4.421875 L 0.8125 -4.421875 L 0.8125 0 Z M 1.640625 -5.640625 L 1.640625 -6.53125 L 0.75 -6.53125 L 0.75 -5.640625 Z M 1.640625 -5.640625 "/>
</symbol>
<symbol overflow="visible" id="i14-glyph0-7">
<path style="stroke:none;" d="M 4.140625 -0.40625 L 4.078125 -1.0625 C 3.5625 -0.671875 3.03125 -0.53125 2.515625 -0.53125 C 1.6875 -0.53125 1.140625 -1.25 1.140625 -2.21875 C 1.140625 -3 1.5 -3.953125 2.5625 -3.953125 C 3.078125 -3.953125 3.421875 -3.875 3.96875 -3.515625 L 4.09375 -4.171875 C 3.5 -4.5 3.15625 -4.59375 2.546875 -4.59375 C 1.171875 -4.59375 0.359375 -3.390625 0.359375 -2.21875 C 0.359375 -0.984375 1.265625 0.109375 2.515625 0.109375 C 3.046875 0.109375 3.59375 -0.03125 4.140625 -0.40625 Z M 4.140625 -0.40625 "/>
</symbol>
<symbol overflow="visible" id="i14-glyph0-8">
<path style="stroke:none;" d="M 4.078125 0 L 4.078125 -2.875 C 4.078125 -3.890625 3.34375 -4.59375 2.4375 -4.59375 C 1.78125 -4.59375 1.328125 -4.4375 0.875 -4.171875 L 0.921875 -3.515625 C 1.453125 -3.875 1.9375 -4 2.4375 -4 C 2.90625 -4 3.296875 -3.609375 3.296875 -2.875 L 3.296875 -2.4375 C 1.796875 -2.421875 0.53125 -2 0.53125 -1.125 C 0.53125 -0.703125 0.8125 0.109375 1.671875 0.109375 C 1.8125 0.109375 2.75 0.09375 3.328125 -0.359375 L 3.328125 0 Z M 3.296875 -1.3125 C 3.296875 -1.125 3.296875 -0.875 2.953125 -0.6875 C 2.671875 -0.515625 2.296875 -0.5 2.1875 -0.5 C 1.703125 -0.5 1.25 -0.734375 1.25 -1.140625 C 1.25 -1.84375 2.875 -1.90625 3.296875 -1.9375 Z M 3.296875 -1.3125 "/>
</symbol>
</g>
<clipPath id="i14-clip1">
  <path d="M 72 72 L 86 72 L 86 78.917969 L 72 78.917969 Z M 72 72 "/>
</clipPath>
<clipPath id="i14-clip2">
  <path d="M 86 72 L 109 72 L 109 78.917969 L 86 78.917969 Z M 86 72 "/>
</clipPath>
</defs>
<g id="i14-surface71">
<g> <!-- clip-path="url(#clip1)" clip-rule="nonzero" -->
<g style="fill:rgb(0%,0%,0%);fill-opacity:1;">
  <use xlink:href="#i14-glyph0-1" x="72" y="78.919"/>
  <use xlink:href="#i14-glyph0-2" x="80.717275" y="78.919"/>
</g>
</g>
<g> <!-- clip-path="url(#clip2)" clip-rule="nonzero" -->
<g style="fill:rgb(0%,0%,0%);fill-opacity:1;">
  <use xlink:href="#i14-glyph0-3" x="85.977528" y="78.919"/>
  <use xlink:href="#i14-glyph0-4" x="91.125203" y="78.919"/>
  <use xlink:href="#i14-glyph0-5" x="95.553579" y="78.919"/>
  <use xlink:href="#i14-glyph0-6" x="97.933644" y="78.919"/>
  <use xlink:href="#i14-glyph0-7" x="100.313709" y="78.919"/>
  <use xlink:href="#i14-glyph0-8" x="104.742085" y="78.919"/>
</g>
</g>
</g>
</g>
  <g id="g8" transform="translate(-72, 79.3373)scale(1.0, -1.0)">
<defs>
<g>
<symbol overflow="visible" id="i8-glyph0-0">
<path style="stroke:none;" d=""/>
</symbol>
<symbol overflow="visible" id="i8-glyph0-1">
<path style="stroke:none;" d="M 5.859375 -0.453125 L 5.796875 -1.140625 C 5.5 -0.9375 5.21875 -0.75 4.875 -0.640625 C 4.5625 -0.53125 4.203125 -0.53125 3.875 -0.53125 C 3.21875 -0.53125 2.625 -0.875 2.21875 -1.390625 C 1.765625 -1.96875 1.546875 -2.71875 1.546875 -3.453125 C 1.546875 -4.203125 1.765625 -4.953125 2.21875 -5.546875 C 2.625 -6.046875 3.21875 -6.40625 3.875 -6.40625 C 4.171875 -6.40625 4.46875 -6.375 4.765625 -6.28125 C 5.0625 -6.1875 5.34375 -6.046875 5.609375 -5.859375 L 5.734375 -6.671875 C 5.4375 -6.796875 5.140625 -6.890625 4.8125 -6.953125 C 4.5 -7.015625 4.1875 -7.03125 3.875 -7.03125 C 2.984375 -7.03125 2.1875 -6.640625 1.59375 -5.984375 C 0.984375 -5.296875 0.65625 -4.390625 0.65625 -3.453125 C 0.65625 -2.53125 0.984375 -1.625 1.59375 -0.9375 C 2.1875 -0.296875 2.984375 0.109375 3.875 0.109375 C 4.21875 0.109375 4.5625 0.09375 4.90625 0 C 5.25 -0.09375 5.546875 -0.265625 5.859375 -0.453125 Z M 5.859375 -0.453125 "/>
</symbol>
<symbol overflow="visible" id="i8-glyph0-2">
<path style="stroke:none;" d="M 1.796875 -3.59375 L 1.796875 -4.421875 L 0.96875 -4.421875 L 0.96875 -3.59375 Z M 1.796875 0 L 1.796875 -0.828125 L 0.96875 -0.828125 L 0.96875 0 Z M 1.796875 0 "/>
</symbol>
<symbol overflow="visible" id="i8-glyph0-3">
<path style="stroke:none;" d="M 4.421875 2.296875 C 4.421875 2.296875 4.421875 2.25 4.359375 2.109375 L 0.984375 -7.25 C 0.9375 -7.359375 0.890625 -7.484375 0.75 -7.484375 C 0.640625 -7.484375 0.5625 -7.390625 0.5625 -7.28125 C 0.5625 -7.28125 0.5625 -7.234375 0.609375 -7.09375 L 4 2.265625 C 4.03125 2.375 4.078125 2.5 4.21875 2.5 C 4.328125 2.5 4.421875 2.40625 4.421875 2.296875 Z M 4.421875 2.296875 "/>
</symbol>
<symbol overflow="visible" id="i8-glyph0-4">
<path style="stroke:none;" d="M 1.5625 0 L 1.5625 -6.921875 L 0.8125 -6.921875 L 0.8125 0 Z M 1.5625 0 "/>
</symbol>
<symbol overflow="visible" id="i8-glyph0-5">
<path style="stroke:none;" d="M 1.5625 0 L 1.5625 -4.421875 L 0.8125 -4.421875 L 0.8125 0 Z M 1.640625 -5.640625 L 1.640625 -6.53125 L 0.75 -6.53125 L 0.75 -5.640625 Z M 1.640625 -5.640625 "/>
</symbol>
<symbol overflow="visible" id="i8-glyph0-6">
<path style="stroke:none;" d="M 4.78125 -2.21875 C 4.78125 -3.453125 4.109375 -4.53125 3.171875 -4.53125 C 2.78125 -4.53125 2.15625 -4.4375 1.5625 -3.953125 L 1.5625 -6.921875 L 0.8125 -6.921875 L 0.8125 0 L 1.59375 0 L 1.59375 -0.453125 C 1.828125 -0.234375 2.265625 0.109375 2.9375 0.109375 C 3.921875 0.109375 4.78125 -0.890625 4.78125 -2.21875 Z M 4 -2.21875 C 4 -0.921875 3.171875 -0.5 2.5625 -0.5 C 2.171875 -0.5 1.84375 -0.671875 1.59375 -1.140625 L 1.59375 -3.34375 C 1.75 -3.578125 2.109375 -3.921875 2.65625 -3.921875 C 3.25 -3.921875 4 -3.5 4 -2.21875 Z M 4 -2.21875 "/>
</symbol>
<symbol overflow="visible" id="i8-glyph0-7">
<path style="stroke:none;" d="M 3.265625 -3.875 L 3.265625 -4.53125 C 2.375 -4.53125 1.828125 -4.03125 1.515625 -3.578125 L 1.515625 -4.484375 L 0.8125 -4.484375 L 0.8125 0 L 1.5625 0 L 1.5625 -2.140625 C 1.5625 -3.125 2.28125 -3.84375 3.265625 -3.875 Z M 3.265625 -3.875 "/>
</symbol>
<symbol overflow="visible" id="i8-glyph0-8">
<path style="stroke:none;" d="M 4.078125 0 L 4.078125 -2.875 C 4.078125 -3.890625 3.34375 -4.59375 2.4375 -4.59375 C 1.78125 -4.59375 1.328125 -4.4375 0.875 -4.171875 L 0.921875 -3.515625 C 1.453125 -3.875 1.9375 -4 2.4375 -4 C 2.90625 -4 3.296875 -3.609375 3.296875 -2.875 L 3.296875 -2.4375 C 1.796875 -2.421875 0.53125 -2 0.53125 -1.125 C 0.53125 -0.703125 0.8125 0.109375 1.671875 0.109375 C 1.8125 0.109375 2.75 0.09375 3.328125 -0.359375 L 3.328125 0 Z M 3.296875 -1.3125 C 3.296875 -1.125 3.296875 -0.875 2.953125 -0.6875 C 2.671875 -0.515625 2.296875 -0.5 2.1875 -0.5 C 1.703125 -0.5 1.25 -0.734375 1.25 -1.140625 C 1.25 -1.84375 2.875 -1.90625 3.296875 -1.9375 Z M 3.296875 -1.3125 "/>
</symbol>
<symbol overflow="visible" id="i8-glyph0-9">
<path style="stroke:none;" d="M 4.453125 -4.421875 L 3.703125 -4.421875 C 2.40625 -1.25 2.375 -0.796875 2.375 -0.5625 L 2.359375 -0.5625 C 2.296875 -1.234375 1.5 -3.09375 1.46875 -3.1875 L 0.921875 -4.421875 L 0.140625 -4.421875 L 2.078125 0 L 1.71875 0.890625 C 1.453125 1.46875 1.28125 1.46875 1.140625 1.46875 C 0.984375 1.46875 0.671875 1.4375 0.375 1.3125 L 0.421875 1.96875 C 0.640625 2.015625 0.921875 2.046875 1.140625 2.046875 C 1.5 2.046875 1.859375 1.921875 2.265625 0.90625 Z M 4.453125 -4.421875 "/>
</symbol>
</g>
<clipPath id="i8-clip1">
  <path d="M 72 72 L 96 72 L 96 81.828125 L 72 81.828125 Z M 72 72 "/>
</clipPath>
<clipPath id="i8-clip2">
  <path d="M 104 74 L 111.78125 74 L 111.78125 81.828125 L 104 81.828125 Z M 104 74 "/>
</clipPath>
</defs>
<g id="i8-surface41">
<g> <!-- clip-path="url(#clip1)" clip-rule="nonzero" -->
<g style="fill:rgb(0%,0%,0%);fill-opacity:1;">
  <use xlink:href="#i8-glyph0-1" x="72" y="79.337"/>
  <use xlink:href="#i8-glyph0-2" x="78.365105" y="79.337"/>
  <use xlink:href="#i8-glyph0-3" x="81.132715" y="79.337"/>
  <use xlink:href="#i8-glyph0-4" x="86.114015" y="79.337"/>
  <use xlink:href="#i8-glyph0-5" x="88.494081" y="79.337"/>
  <use xlink:href="#i8-glyph0-6" x="90.874146" y="79.337"/>
</g>
</g>
<g style="fill:rgb(0%,0%,0%);fill-opacity:1;">
  <use xlink:href="#i8-glyph0-7" x="95.742868" y="79.337"/>
  <use xlink:href="#i8-glyph0-8" x="99.147089" y="79.337"/>
</g>
<g> <!-- clip-path="url(#clip2)" clip-rule="nonzero" -->
<g style="fill:rgb(0%,0%,0%);fill-opacity:1;">
  <use xlink:href="#i8-glyph0-7" x="103.656162" y="79.337"/>
  <use xlink:href="#i8-glyph0-9" x="107.060382" y="79.337"/>
</g>
</g>
</g>
</g>
  <g id="g5" transform="translate(-72, 78.919)scale(1.0, -1.0)">
<defs>
<g>
<symbol overflow="visible" id="i5-glyph0-0">
<path style="stroke:none;" d=""/>
</symbol>
<symbol overflow="visible" id="i5-glyph0-1">
<path style="stroke:none;" d="M 6.078125 -1.875 C 6.078125 -2.734375 5.21875 -3.453125 4.15625 -3.625 C 5.0625 -3.84375 5.8125 -4.421875 5.8125 -5.1875 C 5.8125 -6.09375 4.75 -6.921875 3.328125 -6.921875 L 0.96875 -6.921875 L 0.96875 0 L 3.59375 0 C 5.03125 0 6.078125 -0.890625 6.078125 -1.875 Z M 5.03125 -5.171875 C 5.03125 -4.578125 4.328125 -3.890625 2.953125 -3.890625 L 1.796875 -3.890625 L 1.796875 -6.359375 L 3.046875 -6.359375 C 4.15625 -6.359375 5.03125 -5.828125 5.03125 -5.171875 Z M 5.28125 -1.890625 C 5.28125 -1.140625 4.390625 -0.5625 3.3125 -0.5625 L 1.796875 -0.5625 L 1.796875 -3.296875 L 3.234375 -3.296875 C 4.296875 -3.296875 5.28125 -2.6875 5.28125 -1.890625 Z M 5.28125 -1.890625 "/>
</symbol>
<symbol overflow="visible" id="i5-glyph0-2">
<path style="stroke:none;" d="M 1.5625 0 L 1.5625 -6.921875 L 0.8125 -6.921875 L 0.8125 0 Z M 1.5625 0 "/>
</symbol>
<symbol overflow="visible" id="i5-glyph0-3">
<path style="stroke:none;" d="M 4.671875 -2.1875 C 4.671875 -3.53125 3.671875 -4.59375 2.5 -4.59375 C 1.265625 -4.59375 0.296875 -3.5 0.296875 -2.1875 C 0.296875 -0.875 1.3125 0.109375 2.484375 0.109375 C 3.671875 0.109375 4.671875 -0.890625 4.671875 -2.1875 Z M 3.890625 -2.296875 C 3.890625 -1.109375 3.21875 -0.53125 2.484375 -0.53125 C 1.796875 -0.53125 1.078125 -1.09375 1.078125 -2.296875 C 1.078125 -3.5 1.828125 -3.984375 2.484375 -3.984375 C 3.1875 -3.984375 3.890625 -3.46875 3.890625 -2.296875 Z M 3.890625 -2.296875 "/>
</symbol>
<symbol overflow="visible" id="i5-glyph0-4">
<path style="stroke:none;" d="M 4.140625 -0.40625 L 4.078125 -1.0625 C 3.5625 -0.671875 3.03125 -0.53125 2.515625 -0.53125 C 1.6875 -0.53125 1.140625 -1.25 1.140625 -2.21875 C 1.140625 -3 1.5 -3.953125 2.5625 -3.953125 C 3.078125 -3.953125 3.421875 -3.875 3.96875 -3.515625 L 4.09375 -4.171875 C 3.5 -4.5 3.15625 -4.59375 2.546875 -4.59375 C 1.171875 -4.59375 0.359375 -3.390625 0.359375 -2.21875 C 0.359375 -0.984375 1.265625 0.109375 2.515625 0.109375 C 3.046875 0.109375 3.59375 -0.03125 4.140625 -0.40625 Z M 4.140625 -0.40625 "/>
</symbol>
<symbol overflow="visible" id="i5-glyph0-5">
<path style="stroke:none;" d="M 4.6875 0 L 2.796875 -2.71875 L 4.46875 -4.421875 L 3.578125 -4.421875 L 1.5625 -2.359375 L 1.5625 -6.921875 L 0.84375 -6.921875 L 0.84375 0 L 1.53125 0 L 1.53125 -1.40625 L 2.328125 -2.234375 L 3.875 0 Z M 4.6875 0 "/>
</symbol>
<symbol overflow="visible" id="i5-glyph0-6">
<path style="stroke:none;" d="M 3.59375 -1.28125 C 3.59375 -1.828125 3.21875 -2.15625 3.203125 -2.1875 C 2.8125 -2.546875 2.546875 -2.609375 2.046875 -2.6875 C 1.5 -2.796875 1.03125 -2.90625 1.03125 -3.390625 C 1.03125 -4 1.75 -4 1.890625 -4 C 2.203125 -4 2.734375 -3.96875 3.296875 -3.625 L 3.421875 -4.28125 C 2.90625 -4.515625 2.5 -4.59375 1.984375 -4.59375 C 1.734375 -4.59375 0.328125 -4.59375 0.328125 -3.296875 C 0.328125 -2.796875 0.625 -2.484375 0.875 -2.296875 C 1.171875 -2.078125 1.390625 -2.03125 1.9375 -1.921875 C 2.296875 -1.859375 2.875 -1.734375 2.875 -1.203125 C 2.875 -0.515625 2.09375 -0.515625 1.9375 -0.515625 C 1.140625 -0.515625 0.578125 -0.890625 0.40625 -1 L 0.28125 -0.328125 C 0.59375 -0.171875 1.140625 0.109375 1.953125 0.109375 C 2.140625 0.109375 2.6875 0.109375 3.109375 -0.203125 C 3.421875 -0.453125 3.59375 -0.84375 3.59375 -1.28125 Z M 3.59375 -1.28125 "/>
</symbol>
</g>
<clipPath id="i5-clip1">
  <path d="M 72 72 L 86 72 L 86 78.917969 L 72 78.917969 Z M 72 72 "/>
</clipPath>
<clipPath id="i5-clip2">
  <path d="M 86 72 L 99.441406 72 L 99.441406 78.917969 L 86 78.917969 Z M 86 72 "/>
</clipPath>
</defs>
<g id="i5-surface26">
<g> <!-- clip-path="url(#clip1)" clip-rule="nonzero" -->
<g style="fill:rgb(0%,0%,0%);fill-opacity:1;">
  <use xlink:href="#i5-glyph0-1" x="72" y="78.919"/>
  <use xlink:href="#i5-glyph0-2" x="78.642065" y="78.919"/>
  <use xlink:href="#i5-glyph0-3" x="81.022131" y="78.919"/>
</g>
</g>
<g> <!-- clip-path="url(#clip2)" clip-rule="nonzero" -->
<g style="fill:rgb(0%,0%,0%);fill-opacity:1;">
  <use xlink:href="#i5-glyph0-4" x="86.282383" y="78.919"/>
  <use xlink:href="#i5-glyph0-5" x="90.710759" y="78.919"/>
  <use xlink:href="#i5-glyph0-6" x="95.581474" y="78.919"/>
</g>
</g>
</g>
</g>
  <g id="g11" transform="translate(-72, 78.919)scale(1.0, -1.0)">
<defs>
<g>
<symbol overflow="visible" id="i11-glyph0-0">
<path style="stroke:none;" d=""/>
</symbol>
<symbol overflow="visible" id="i11-glyph0-1">
<path style="stroke:none;" d="M 1.828125 0 L 1.828125 -6.921875 L 0.9375 -6.921875 L 0.9375 0 Z M 1.828125 0 "/>
</symbol>
<symbol overflow="visible" id="i11-glyph0-2">
<path style="stroke:none;" d="M 4.34375 0 L 4.34375 -2.96875 C 4.34375 -3.625 4.1875 -4.53125 2.96875 -4.53125 C 2.078125 -4.53125 1.578125 -3.859375 1.53125 -3.78125 L 1.53125 -4.484375 L 0.8125 -4.484375 L 0.8125 0 L 1.578125 0 L 1.578125 -2.4375 C 1.578125 -3.09375 1.828125 -3.921875 2.59375 -3.921875 C 3.546875 -3.921875 3.5625 -3.21875 3.5625 -2.90625 L 3.5625 0 Z M 4.34375 0 "/>
</symbol>
<symbol overflow="visible" id="i11-glyph0-3">
<path style="stroke:none;" d="M 3.3125 -0.265625 L 3.15625 -0.859375 C 2.890625 -0.640625 2.578125 -0.53125 2.25 -0.53125 C 1.890625 -0.53125 1.75 -0.828125 1.75 -1.359375 L 1.75 -3.84375 L 3.15625 -3.84375 L 3.15625 -4.421875 L 1.75 -4.421875 L 1.75 -5.6875 L 1.0625 -5.6875 L 1.0625 -4.421875 L 0.1875 -4.421875 L 0.1875 -3.84375 L 1.03125 -3.84375 L 1.03125 -1.1875 C 1.03125 -0.59375 1.171875 0.109375 1.859375 0.109375 C 2.546875 0.109375 3.0625 -0.140625 3.3125 -0.265625 Z M 3.3125 -0.265625 "/>
</symbol>
<symbol overflow="visible" id="i11-glyph0-4">
<path style="stroke:none;" d="M 4.125 -2.1875 C 4.125 -2.515625 4.109375 -3.265625 3.734375 -3.875 C 3.3125 -4.484375 2.71875 -4.59375 2.359375 -4.59375 C 1.25 -4.59375 0.34375 -3.53125 0.34375 -2.25 C 0.34375 -0.9375 1.3125 0.109375 2.5 0.109375 C 3.125 0.109375 3.703125 -0.125 4.09375 -0.40625 L 4.03125 -1.0625 C 3.40625 -0.53125 2.734375 -0.5 2.515625 -0.5 C 1.71875 -0.5 1.078125 -1.203125 1.046875 -2.1875 Z M 3.5625 -2.734375 L 1.09375 -2.734375 C 1.25 -3.484375 1.78125 -3.984375 2.359375 -3.984375 C 2.875 -3.984375 3.421875 -3.65625 3.5625 -2.734375 Z M 3.5625 -2.734375 "/>
</symbol>
<symbol overflow="visible" id="i11-glyph0-5">
<path style="stroke:none;" d="M 3.265625 -3.875 L 3.265625 -4.53125 C 2.375 -4.53125 1.828125 -4.03125 1.515625 -3.578125 L 1.515625 -4.484375 L 0.8125 -4.484375 L 0.8125 0 L 1.5625 0 L 1.5625 -2.140625 C 1.5625 -3.125 2.28125 -3.84375 3.265625 -3.875 Z M 3.265625 -3.875 "/>
</symbol>
<symbol overflow="visible" id="i11-glyph0-6">
<path style="stroke:none;" d="M 3.453125 -6.25 L 3.453125 -6.921875 C 3.34375 -6.953125 3.03125 -7.03125 2.65625 -7.03125 C 1.71875 -7.03125 1 -6.3125 1 -5.328125 L 1 -4.421875 L 0.265625 -4.421875 L 0.265625 -3.84375 L 1 -3.84375 L 1 0 L 1.75 0 L 1.75 -3.84375 L 2.84375 -3.84375 L 2.84375 -4.421875 L 1.71875 -4.421875 L 1.71875 -5.609375 C 1.71875 -6.34375 2.390625 -6.421875 2.65625 -6.421875 C 2.84375 -6.421875 3.125 -6.40625 3.453125 -6.25 Z M 3.453125 -6.25 "/>
</symbol>
<symbol overflow="visible" id="i11-glyph0-7">
<path style="stroke:none;" d="M 4.078125 0 L 4.078125 -2.875 C 4.078125 -3.890625 3.34375 -4.59375 2.4375 -4.59375 C 1.78125 -4.59375 1.328125 -4.4375 0.875 -4.171875 L 0.921875 -3.515625 C 1.453125 -3.875 1.9375 -4 2.4375 -4 C 2.90625 -4 3.296875 -3.609375 3.296875 -2.875 L 3.296875 -2.4375 C 1.796875 -2.421875 0.53125 -2 0.53125 -1.125 C 0.53125 -0.703125 0.8125 0.109375 1.671875 0.109375 C 1.8125 0.109375 2.75 0.09375 3.328125 -0.359375 L 3.328125 0 Z M 3.296875 -1.3125 C 3.296875 -1.125 3.296875 -0.875 2.953125 -0.6875 C 2.671875 -0.515625 2.296875 -0.5 2.1875 -0.5 C 1.703125 -0.5 1.25 -0.734375 1.25 -1.140625 C 1.25 -1.84375 2.875 -1.90625 3.296875 -1.9375 Z M 3.296875 -1.3125 "/>
</symbol>
<symbol overflow="visible" id="i11-glyph0-8">
<path style="stroke:none;" d="M 4.140625 -0.40625 L 4.078125 -1.0625 C 3.5625 -0.671875 3.03125 -0.53125 2.515625 -0.53125 C 1.6875 -0.53125 1.140625 -1.25 1.140625 -2.21875 C 1.140625 -3 1.5 -3.953125 2.5625 -3.953125 C 3.078125 -3.953125 3.421875 -3.875 3.96875 -3.515625 L 4.09375 -4.171875 C 3.5 -4.5 3.15625 -4.59375 2.546875 -4.59375 C 1.171875 -4.59375 0.359375 -3.390625 0.359375 -2.21875 C 0.359375 -0.984375 1.265625 0.109375 2.515625 0.109375 C 3.046875 0.109375 3.59375 -0.03125 4.140625 -0.40625 Z M 4.140625 -0.40625 "/>
</symbol>
<symbol overflow="visible" id="i11-glyph0-9">
<path style="stroke:none;" d="M 3.59375 -1.28125 C 3.59375 -1.828125 3.21875 -2.15625 3.203125 -2.1875 C 2.8125 -2.546875 2.546875 -2.609375 2.046875 -2.6875 C 1.5 -2.796875 1.03125 -2.90625 1.03125 -3.390625 C 1.03125 -4 1.75 -4 1.890625 -4 C 2.203125 -4 2.734375 -3.96875 3.296875 -3.625 L 3.421875 -4.28125 C 2.90625 -4.515625 2.5 -4.59375 1.984375 -4.59375 C 1.734375 -4.59375 0.328125 -4.59375 0.328125 -3.296875 C 0.328125 -2.796875 0.625 -2.484375 0.875 -2.296875 C 1.171875 -2.078125 1.390625 -2.03125 1.9375 -1.921875 C 2.296875 -1.859375 2.875 -1.734375 2.875 -1.203125 C 2.875 -0.515625 2.09375 -0.515625 1.9375 -0.515625 C 1.140625 -0.515625 0.578125 -0.890625 0.40625 -1 L 0.28125 -0.328125 C 0.59375 -0.171875 1.140625 0.109375 1.953125 0.109375 C 2.140625 0.109375 2.6875 0.109375 3.109375 -0.203125 C 3.421875 -0.453125 3.59375 -0.84375 3.59375 -1.28125 Z M 3.59375 -1.28125 "/>
</symbol>
</g>
<clipPath id="i11-clip1">
  <path d="M 72 72 L 111.894531 72 L 111.894531 78.917969 L 72 78.917969 Z M 72 72 "/>
</clipPath>
</defs>
<g id="i11-surface56">
<g> <!-- clip-path="url(#clip1)" clip-rule="nonzero" -->
<g style="fill:rgb(0%,0%,0%);fill-opacity:1;">
  <use xlink:href="#i11-glyph0-1" x="72" y="78.919"/>
  <use xlink:href="#i11-glyph0-2" x="74.76761" y="78.919"/>
  <use xlink:href="#i11-glyph0-3" x="79.915286" y="78.919"/>
  <use xlink:href="#i11-glyph0-4" x="83.512781" y="78.919"/>
  <use xlink:href="#i11-glyph0-5" x="87.941156" y="78.919"/>
  <use xlink:href="#i11-glyph0-6" x="91.345377" y="78.919"/>
  <use xlink:href="#i11-glyph0-7" x="94.389947" y="78.919"/>
  <use xlink:href="#i11-glyph0-8" x="99.177973" y="78.919"/>
  <use xlink:href="#i11-glyph0-4" x="103.606349" y="78.919"/>
  <use xlink:href="#i11-glyph0-9" x="108.034724" y="78.919"/>
</g>
</g>
</g>
</g>
  <g id="g10" transform="translate(-72, 78.919)scale(1.0, -1.0)">
<defs>
<g>
<symbol overflow="visible" id="i10-glyph0-0">
<path style="stroke:none;" d=""/>
</symbol>
<symbol overflow="visible" id="i10-glyph0-1">
<path style="stroke:none;" d="M 5.515625 0 L 5.515625 -0.703125 L 4.265625 -0.703125 C 4.140625 -0.703125 4.03125 -0.703125 3.90625 -0.703125 L 1.828125 -0.703125 L 1.828125 -3.28125 L 5.109375 -3.28125 L 5.109375 -3.890625 L 1.828125 -3.890625 L 1.828125 -6.25 L 3.203125 -6.25 C 3.3125 -6.25 3.4375 -6.234375 3.5625 -6.234375 L 5.390625 -6.234375 L 5.390625 -6.890625 L 0.9375 -6.890625 L 0.9375 0 Z M 5.515625 0 "/>
</symbol>
<symbol overflow="visible" id="i10-glyph0-2">
<path style="stroke:none;" d="M 1.5625 0 L 1.5625 -6.921875 L 0.8125 -6.921875 L 0.8125 0 Z M 1.5625 0 "/>
</symbol>
<symbol overflow="visible" id="i10-glyph0-3">
<path style="stroke:none;" d="M 4.125 -2.1875 C 4.125 -2.515625 4.109375 -3.265625 3.734375 -3.875 C 3.3125 -4.484375 2.71875 -4.59375 2.359375 -4.59375 C 1.25 -4.59375 0.34375 -3.53125 0.34375 -2.25 C 0.34375 -0.9375 1.3125 0.109375 2.5 0.109375 C 3.125 0.109375 3.703125 -0.125 4.09375 -0.40625 L 4.03125 -1.0625 C 3.40625 -0.53125 2.734375 -0.5 2.515625 -0.5 C 1.71875 -0.5 1.078125 -1.203125 1.046875 -2.1875 Z M 3.5625 -2.734375 L 1.09375 -2.734375 C 1.25 -3.484375 1.78125 -3.984375 2.359375 -3.984375 C 2.875 -3.984375 3.421875 -3.65625 3.5625 -2.734375 Z M 3.5625 -2.734375 "/>
</symbol>
<symbol overflow="visible" id="i10-glyph0-4">
<path style="stroke:none;" d="M 4.140625 -0.40625 L 4.078125 -1.0625 C 3.5625 -0.671875 3.03125 -0.53125 2.515625 -0.53125 C 1.6875 -0.53125 1.140625 -1.25 1.140625 -2.21875 C 1.140625 -3 1.5 -3.953125 2.5625 -3.953125 C 3.078125 -3.953125 3.421875 -3.875 3.96875 -3.515625 L 4.09375 -4.171875 C 3.5 -4.5 3.15625 -4.59375 2.546875 -4.59375 C 1.171875 -4.59375 0.359375 -3.390625 0.359375 -2.21875 C 0.359375 -0.984375 1.265625 0.109375 2.515625 0.109375 C 3.046875 0.109375 3.59375 -0.03125 4.140625 -0.40625 Z M 4.140625 -0.40625 "/>
</symbol>
<symbol overflow="visible" id="i10-glyph0-5">
<path style="stroke:none;" d="M 3.3125 -0.265625 L 3.15625 -0.859375 C 2.890625 -0.640625 2.578125 -0.53125 2.25 -0.53125 C 1.890625 -0.53125 1.75 -0.828125 1.75 -1.359375 L 1.75 -3.84375 L 3.15625 -3.84375 L 3.15625 -4.421875 L 1.75 -4.421875 L 1.75 -5.6875 L 1.0625 -5.6875 L 1.0625 -4.421875 L 0.1875 -4.421875 L 0.1875 -3.84375 L 1.03125 -3.84375 L 1.03125 -1.1875 C 1.03125 -0.59375 1.171875 0.109375 1.859375 0.109375 C 2.546875 0.109375 3.0625 -0.140625 3.3125 -0.265625 Z M 3.3125 -0.265625 "/>
</symbol>
<symbol overflow="visible" id="i10-glyph0-6">
<path style="stroke:none;" d="M 3.265625 -3.875 L 3.265625 -4.53125 C 2.375 -4.53125 1.828125 -4.03125 1.515625 -3.578125 L 1.515625 -4.484375 L 0.8125 -4.484375 L 0.8125 0 L 1.5625 0 L 1.5625 -2.140625 C 1.5625 -3.125 2.28125 -3.84375 3.265625 -3.875 Z M 3.265625 -3.875 "/>
</symbol>
<symbol overflow="visible" id="i10-glyph0-7">
<path style="stroke:none;" d="M 1.5625 0 L 1.5625 -4.421875 L 0.8125 -4.421875 L 0.8125 0 Z M 1.640625 -5.640625 L 1.640625 -6.53125 L 0.75 -6.53125 L 0.75 -5.640625 Z M 1.640625 -5.640625 "/>
</symbol>
<symbol overflow="visible" id="i10-glyph0-8">
<path style="stroke:none;" d="M 4.078125 0 L 4.078125 -2.875 C 4.078125 -3.890625 3.34375 -4.59375 2.4375 -4.59375 C 1.78125 -4.59375 1.328125 -4.4375 0.875 -4.171875 L 0.921875 -3.515625 C 1.453125 -3.875 1.9375 -4 2.4375 -4 C 2.90625 -4 3.296875 -3.609375 3.296875 -2.875 L 3.296875 -2.4375 C 1.796875 -2.421875 0.53125 -2 0.53125 -1.125 C 0.53125 -0.703125 0.8125 0.109375 1.671875 0.109375 C 1.8125 0.109375 2.75 0.09375 3.328125 -0.359375 L 3.328125 0 Z M 3.296875 -1.3125 C 3.296875 -1.125 3.296875 -0.875 2.953125 -0.6875 C 2.671875 -0.515625 2.296875 -0.5 2.1875 -0.5 C 1.703125 -0.5 1.25 -0.734375 1.25 -1.140625 C 1.25 -1.84375 2.875 -1.90625 3.296875 -1.9375 Z M 3.296875 -1.3125 "/>
</symbol>
</g>
<clipPath id="i10-clip1">
  <path d="M 72 72 L 110 72 L 110 78.917969 L 72 78.917969 Z M 72 72 "/>
</clipPath>
</defs>
<g id="i10-surface51">
<g> <!-- clip-path="url(#clip1)" clip-rule="nonzero" -->
<g style="fill:rgb(0%,0%,0%);fill-opacity:1;">
  <use xlink:href="#i10-glyph0-1" x="72" y="78.919"/>
  <use xlink:href="#i10-glyph0-2" x="77.949665" y="78.919"/>
  <use xlink:href="#i10-glyph0-3" x="80.32973" y="78.919"/>
  <use xlink:href="#i10-glyph0-4" x="84.758106" y="78.919"/>
  <use xlink:href="#i10-glyph0-5" x="89.186481" y="78.919"/>
  <use xlink:href="#i10-glyph0-6" x="92.783976" y="78.919"/>
  <use xlink:href="#i10-glyph0-7" x="96.188197" y="78.919"/>
  <use xlink:href="#i10-glyph0-4" x="98.568262" y="78.919"/>
  <use xlink:href="#i10-glyph0-8" x="102.996637" y="78.919"/>
  <use xlink:href="#i10-glyph0-2" x="107.784663" y="78.919"/>
</g>
</g>
</g>
</g>
  <g id="g13" transform="translate(-72, 78.919)scale(1.0, -1.0)">
<defs>
<g>
<symbol overflow="visible" id="i13-glyph0-0">
<path style="stroke:none;" d=""/>
</symbol>
<symbol overflow="visible" id="i13-glyph0-1">
<path style="stroke:none;" d="M 7.71875 0 L 7.71875 -6.921875 L 6.578125 -6.921875 L 5.28125 -3.53125 C 4.9375 -2.625 4.46875 -1.390625 4.359375 -0.921875 L 4.34375 -0.921875 C 4.296875 -1.140625 4.171875 -1.5 4.03125 -1.921875 L 2.46875 -6.046875 L 2.125 -6.921875 L 1 -6.921875 L 1 0 L 1.78125 0 L 1.78125 -6.1875 C 1.84375 -5.859375 2.25 -4.78125 2.5 -4.09375 L 3.984375 -0.21875 L 4.703125 -0.21875 L 6.03125 -3.6875 L 6.515625 -4.953125 C 6.609375 -5.25 6.875 -5.96875 6.921875 -6.1875 L 6.9375 -6.1875 L 6.9375 0 Z M 7.71875 0 "/>
</symbol>
<symbol overflow="visible" id="i13-glyph0-2">
<path style="stroke:none;" d="M 4.125 -2.1875 C 4.125 -2.515625 4.109375 -3.265625 3.734375 -3.875 C 3.3125 -4.484375 2.71875 -4.59375 2.359375 -4.59375 C 1.25 -4.59375 0.34375 -3.53125 0.34375 -2.25 C 0.34375 -0.9375 1.3125 0.109375 2.5 0.109375 C 3.125 0.109375 3.703125 -0.125 4.09375 -0.40625 L 4.03125 -1.0625 C 3.40625 -0.53125 2.734375 -0.5 2.515625 -0.5 C 1.71875 -0.5 1.078125 -1.203125 1.046875 -2.1875 Z M 3.5625 -2.734375 L 1.09375 -2.734375 C 1.25 -3.484375 1.78125 -3.984375 2.359375 -3.984375 C 2.875 -3.984375 3.421875 -3.65625 3.5625 -2.734375 Z M 3.5625 -2.734375 "/>
</symbol>
<symbol overflow="visible" id="i13-glyph0-3">
<path style="stroke:none;" d="M 4.140625 -0.40625 L 4.078125 -1.0625 C 3.5625 -0.671875 3.03125 -0.53125 2.515625 -0.53125 C 1.6875 -0.53125 1.140625 -1.25 1.140625 -2.21875 C 1.140625 -3 1.5 -3.953125 2.5625 -3.953125 C 3.078125 -3.953125 3.421875 -3.875 3.96875 -3.515625 L 4.09375 -4.171875 C 3.5 -4.5 3.15625 -4.59375 2.546875 -4.59375 C 1.171875 -4.59375 0.359375 -3.390625 0.359375 -2.21875 C 0.359375 -0.984375 1.265625 0.109375 2.515625 0.109375 C 3.046875 0.109375 3.59375 -0.03125 4.140625 -0.40625 Z M 4.140625 -0.40625 "/>
</symbol>
<symbol overflow="visible" id="i13-glyph0-4">
<path style="stroke:none;" d="M 4.34375 0 L 4.34375 -2.96875 C 4.34375 -3.625 4.1875 -4.53125 2.96875 -4.53125 C 2.359375 -4.53125 1.875 -4.234375 1.5625 -3.8125 L 1.5625 -6.921875 L 0.8125 -6.921875 L 0.8125 0 L 1.578125 0 L 1.578125 -2.4375 C 1.578125 -3.09375 1.828125 -3.921875 2.59375 -3.921875 C 3.546875 -3.921875 3.5625 -3.21875 3.5625 -2.90625 L 3.5625 0 Z M 4.34375 0 "/>
</symbol>
<symbol overflow="visible" id="i13-glyph0-5">
<path style="stroke:none;" d="M 4.078125 0 L 4.078125 -2.875 C 4.078125 -3.890625 3.34375 -4.59375 2.4375 -4.59375 C 1.78125 -4.59375 1.328125 -4.4375 0.875 -4.171875 L 0.921875 -3.515625 C 1.453125 -3.875 1.9375 -4 2.4375 -4 C 2.90625 -4 3.296875 -3.609375 3.296875 -2.875 L 3.296875 -2.4375 C 1.796875 -2.421875 0.53125 -2 0.53125 -1.125 C 0.53125 -0.703125 0.8125 0.109375 1.671875 0.109375 C 1.8125 0.109375 2.75 0.09375 3.328125 -0.359375 L 3.328125 0 Z M 3.296875 -1.3125 C 3.296875 -1.125 3.296875 -0.875 2.953125 -0.6875 C 2.671875 -0.515625 2.296875 -0.5 2.1875 -0.5 C 1.703125 -0.5 1.25 -0.734375 1.25 -1.140625 C 1.25 -1.84375 2.875 -1.90625 3.296875 -1.9375 Z M 3.296875 -1.3125 "/>
</symbol>
<symbol overflow="visible" id="i13-glyph0-6">
<path style="stroke:none;" d="M 4.34375 0 L 4.34375 -2.96875 C 4.34375 -3.625 4.1875 -4.53125 2.96875 -4.53125 C 2.078125 -4.53125 1.578125 -3.859375 1.53125 -3.78125 L 1.53125 -4.484375 L 0.8125 -4.484375 L 0.8125 0 L 1.578125 0 L 1.578125 -2.4375 C 1.578125 -3.09375 1.828125 -3.921875 2.59375 -3.921875 C 3.546875 -3.921875 3.5625 -3.21875 3.5625 -2.90625 L 3.5625 0 Z M 4.34375 0 "/>
</symbol>
<symbol overflow="visible" id="i13-glyph0-7">
<path style="stroke:none;" d="M 1.5625 0 L 1.5625 -4.421875 L 0.8125 -4.421875 L 0.8125 0 Z M 1.640625 -5.640625 L 1.640625 -6.53125 L 0.75 -6.53125 L 0.75 -5.640625 Z M 1.640625 -5.640625 "/>
</symbol>
<symbol overflow="visible" id="i13-glyph0-8">
<path style="stroke:none;" d="M 3.59375 -1.28125 C 3.59375 -1.828125 3.21875 -2.15625 3.203125 -2.1875 C 2.8125 -2.546875 2.546875 -2.609375 2.046875 -2.6875 C 1.5 -2.796875 1.03125 -2.90625 1.03125 -3.390625 C 1.03125 -4 1.75 -4 1.890625 -4 C 2.203125 -4 2.734375 -3.96875 3.296875 -3.625 L 3.421875 -4.28125 C 2.90625 -4.515625 2.5 -4.59375 1.984375 -4.59375 C 1.734375 -4.59375 0.328125 -4.59375 0.328125 -3.296875 C 0.328125 -2.796875 0.625 -2.484375 0.875 -2.296875 C 1.171875 -2.078125 1.390625 -2.03125 1.9375 -1.921875 C 2.296875 -1.859375 2.875 -1.734375 2.875 -1.203125 C 2.875 -0.515625 2.09375 -0.515625 1.9375 -0.515625 C 1.140625 -0.515625 0.578125 -0.890625 0.40625 -1 L 0.28125 -0.328125 C 0.59375 -0.171875 1.140625 0.109375 1.953125 0.109375 C 2.140625 0.109375 2.6875 0.109375 3.109375 -0.203125 C 3.421875 -0.453125 3.59375 -0.84375 3.59375 -1.28125 Z M 3.59375 -1.28125 "/>
</symbol>
</g>
<clipPath id="i13-clip1">
  <path d="M 72 72 L 115.328125 72 L 115.328125 78.917969 L 72 78.917969 Z M 72 72 "/>
</clipPath>
</defs>
<g id="i13-surface66">
<g> <!-- clip-path="url(#clip1)" clip-rule="nonzero" -->
<g style="fill:rgb(0%,0%,0%);fill-opacity:1;">
  <use xlink:href="#i13-glyph0-1" x="72" y="78.919"/>
  <use xlink:href="#i13-glyph0-2" x="80.717275" y="78.919"/>
  <use xlink:href="#i13-glyph0-3" x="85.145651" y="78.919"/>
  <use xlink:href="#i13-glyph0-4" x="89.574026" y="78.919"/>
  <use xlink:href="#i13-glyph0-5" x="94.721702" y="78.919"/>
  <use xlink:href="#i13-glyph0-6" x="99.509727" y="78.919"/>
  <use xlink:href="#i13-glyph0-7" x="104.657403" y="78.919"/>
  <use xlink:href="#i13-glyph0-3" x="107.037468" y="78.919"/>
  <use xlink:href="#i13-glyph0-8" x="111.465844" y="78.919"/>
</g>
</g>
</g>
</g>
  <g id="g18" transform="translate(-72, 78.919)scale(1.0, -1.0)">
<defs>
<g>
<symbol overflow="visible" id="i18-glyph0-0">
<path style="stroke:none;" d=""/>
</symbol>
<symbol overflow="visible" id="i18-glyph0-1">
<path style="stroke:none;" d="M 6.15625 0 L 4.171875 -3.25 C 5.203125 -3.546875 5.875 -4.25 5.875 -5.0625 C 5.875 -6.046875 4.78125 -6.921875 3.359375 -6.921875 L 0.953125 -6.921875 L 0.953125 0 L 1.8125 0 L 1.8125 -3.15625 L 3.390625 -3.15625 L 5.265625 0 Z M 5.0625 -5.0625 C 5.0625 -4.359375 4.421875 -3.765625 3.25 -3.765625 L 1.8125 -3.765625 L 1.8125 -6.359375 L 3.25 -6.359375 C 4.40625 -6.359375 5.0625 -5.765625 5.0625 -5.0625 Z M 5.0625 -5.0625 "/>
</symbol>
<symbol overflow="visible" id="i18-glyph0-2">
<path style="stroke:none;" d="M 4.671875 -2.1875 C 4.671875 -3.53125 3.671875 -4.59375 2.5 -4.59375 C 1.265625 -4.59375 0.296875 -3.5 0.296875 -2.1875 C 0.296875 -0.875 1.3125 0.109375 2.484375 0.109375 C 3.671875 0.109375 4.671875 -0.890625 4.671875 -2.1875 Z M 3.890625 -2.296875 C 3.890625 -1.109375 3.21875 -0.53125 2.484375 -0.53125 C 1.796875 -0.53125 1.078125 -1.09375 1.078125 -2.296875 C 1.078125 -3.5 1.828125 -3.984375 2.484375 -3.984375 C 3.1875 -3.984375 3.890625 -3.46875 3.890625 -2.296875 Z M 3.890625 -2.296875 "/>
</symbol>
<symbol overflow="visible" id="i18-glyph0-3">
<path style="stroke:none;" d="M 3.3125 -0.265625 L 3.15625 -0.859375 C 2.890625 -0.640625 2.578125 -0.53125 2.25 -0.53125 C 1.890625 -0.53125 1.75 -0.828125 1.75 -1.359375 L 1.75 -3.84375 L 3.15625 -3.84375 L 3.15625 -4.421875 L 1.75 -4.421875 L 1.75 -5.6875 L 1.0625 -5.6875 L 1.0625 -4.421875 L 0.1875 -4.421875 L 0.1875 -3.84375 L 1.03125 -3.84375 L 1.03125 -1.1875 C 1.03125 -0.59375 1.171875 0.109375 1.859375 0.109375 C 2.546875 0.109375 3.0625 -0.140625 3.3125 -0.265625 Z M 3.3125 -0.265625 "/>
</symbol>
<symbol overflow="visible" id="i18-glyph0-4">
<path style="stroke:none;" d="M 4.078125 0 L 4.078125 -2.875 C 4.078125 -3.890625 3.34375 -4.59375 2.4375 -4.59375 C 1.78125 -4.59375 1.328125 -4.4375 0.875 -4.171875 L 0.921875 -3.515625 C 1.453125 -3.875 1.9375 -4 2.4375 -4 C 2.90625 -4 3.296875 -3.609375 3.296875 -2.875 L 3.296875 -2.4375 C 1.796875 -2.421875 0.53125 -2 0.53125 -1.125 C 0.53125 -0.703125 0.8125 0.109375 1.671875 0.109375 C 1.8125 0.109375 2.75 0.09375 3.328125 -0.359375 L 3.328125 0 Z M 3.296875 -1.3125 C 3.296875 -1.125 3.296875 -0.875 2.953125 -0.6875 C 2.671875 -0.515625 2.296875 -0.5 2.1875 -0.5 C 1.703125 -0.5 1.25 -0.734375 1.25 -1.140625 C 1.25 -1.84375 2.875 -1.90625 3.296875 -1.9375 Z M 3.296875 -1.3125 "/>
</symbol>
<symbol overflow="visible" id="i18-glyph0-5">
<path style="stroke:none;" d="M 1.5625 0 L 1.5625 -4.421875 L 0.8125 -4.421875 L 0.8125 0 Z M 1.640625 -5.640625 L 1.640625 -6.53125 L 0.75 -6.53125 L 0.75 -5.640625 Z M 1.640625 -5.640625 "/>
</symbol>
<symbol overflow="visible" id="i18-glyph0-6">
<path style="stroke:none;" d="M 4.34375 0 L 4.34375 -2.96875 C 4.34375 -3.625 4.1875 -4.53125 2.96875 -4.53125 C 2.078125 -4.53125 1.578125 -3.859375 1.53125 -3.78125 L 1.53125 -4.484375 L 0.8125 -4.484375 L 0.8125 0 L 1.578125 0 L 1.578125 -2.4375 C 1.578125 -3.09375 1.828125 -3.921875 2.59375 -3.921875 C 3.546875 -3.921875 3.5625 -3.21875 3.5625 -2.90625 L 3.5625 0 Z M 4.34375 0 "/>
</symbol>
<symbol overflow="visible" id="i18-glyph0-7">
<path style="stroke:none;" d="M 1.5625 0 L 1.5625 -6.921875 L 0.8125 -6.921875 L 0.8125 0 Z M 1.5625 0 "/>
</symbol>
</g>
<clipPath id="i18-clip1">
  <path d="M 72 72 L 115 72 L 115 78.917969 L 72 78.917969 Z M 72 72 "/>
</clipPath>
</defs>
<g id="i18-surface91">
<g> <!-- clip-path="url(#clip1)" clip-rule="nonzero" -->
<g style="fill:rgb(0%,0%,0%);fill-opacity:1;">
  <use xlink:href="#i18-glyph0-1" x="72" y="78.919"/>
  <use xlink:href="#i18-glyph0-2" x="78.433847" y="78.919"/>
  <use xlink:href="#i18-glyph0-3" x="83.415147" y="78.919"/>
  <use xlink:href="#i18-glyph0-4" x="87.012642" y="78.919"/>
  <use xlink:href="#i18-glyph0-3" x="91.800668" y="78.919"/>
  <use xlink:href="#i18-glyph0-5" x="95.398162" y="78.919"/>
  <use xlink:href="#i18-glyph0-2" x="97.778227" y="78.919"/>
  <use xlink:href="#i18-glyph0-6" x="102.759528" y="78.919"/>
  <use xlink:href="#i18-glyph0-4" x="107.907203" y="78.919"/>
  <use xlink:href="#i18-glyph0-7" x="112.695228" y="78.919"/>
</g>
</g>
</g>
</g>
  <g id="g19" transform="translate(-72, 78.919)scale(1.0, -1.0)">
<defs>
<g>
<symbol overflow="visible" id="i19-glyph0-0">
<path style="stroke:none;" d=""/>
</symbol>
<symbol overflow="visible" id="i19-glyph0-1">
<path style="stroke:none;" d="M 6.421875 -6.203125 L 6.421875 -6.859375 L 0.359375 -6.859375 L 0.359375 -6.203125 L 1.6875 -6.203125 C 1.8125 -6.203125 1.9375 -6.21875 2.046875 -6.21875 L 2.953125 -6.21875 L 2.953125 0 L 3.84375 0 L 3.84375 -6.21875 L 4.71875 -6.21875 C 4.84375 -6.21875 4.96875 -6.203125 5.078125 -6.203125 Z M 6.421875 -6.203125 "/>
</symbol>
<symbol overflow="visible" id="i19-glyph0-2">
<path style="stroke:none;" d="M 3.265625 -3.875 L 3.265625 -4.53125 C 2.375 -4.53125 1.828125 -4.03125 1.515625 -3.578125 L 1.515625 -4.484375 L 0.8125 -4.484375 L 0.8125 0 L 1.5625 0 L 1.5625 -2.140625 C 1.5625 -3.125 2.28125 -3.84375 3.265625 -3.875 Z M 3.265625 -3.875 "/>
</symbol>
<symbol overflow="visible" id="i19-glyph0-3">
<path style="stroke:none;" d="M 4.078125 0 L 4.078125 -2.875 C 4.078125 -3.890625 3.34375 -4.59375 2.4375 -4.59375 C 1.78125 -4.59375 1.328125 -4.4375 0.875 -4.171875 L 0.921875 -3.515625 C 1.453125 -3.875 1.9375 -4 2.4375 -4 C 2.90625 -4 3.296875 -3.609375 3.296875 -2.875 L 3.296875 -2.4375 C 1.796875 -2.421875 0.53125 -2 0.53125 -1.125 C 0.53125 -0.703125 0.8125 0.109375 1.671875 0.109375 C 1.8125 0.109375 2.75 0.09375 3.328125 -0.359375 L 3.328125 0 Z M 3.296875 -1.3125 C 3.296875 -1.125 3.296875 -0.875 2.953125 -0.6875 C 2.671875 -0.515625 2.296875 -0.5 2.1875 -0.5 C 1.703125 -0.5 1.25 -0.734375 1.25 -1.140625 C 1.25 -1.84375 2.875 -1.90625 3.296875 -1.9375 Z M 3.296875 -1.3125 "/>
</symbol>
<symbol overflow="visible" id="i19-glyph0-4">
<path style="stroke:none;" d="M 4.34375 0 L 4.34375 -2.96875 C 4.34375 -3.625 4.1875 -4.53125 2.96875 -4.53125 C 2.078125 -4.53125 1.578125 -3.859375 1.53125 -3.78125 L 1.53125 -4.484375 L 0.8125 -4.484375 L 0.8125 0 L 1.578125 0 L 1.578125 -2.4375 C 1.578125 -3.09375 1.828125 -3.921875 2.59375 -3.921875 C 3.546875 -3.921875 3.5625 -3.21875 3.5625 -2.90625 L 3.5625 0 Z M 4.34375 0 "/>
</symbol>
<symbol overflow="visible" id="i19-glyph0-5">
<path style="stroke:none;" d="M 3.59375 -1.28125 C 3.59375 -1.828125 3.21875 -2.15625 3.203125 -2.1875 C 2.8125 -2.546875 2.546875 -2.609375 2.046875 -2.6875 C 1.5 -2.796875 1.03125 -2.90625 1.03125 -3.390625 C 1.03125 -4 1.75 -4 1.890625 -4 C 2.203125 -4 2.734375 -3.96875 3.296875 -3.625 L 3.421875 -4.28125 C 2.90625 -4.515625 2.5 -4.59375 1.984375 -4.59375 C 1.734375 -4.59375 0.328125 -4.59375 0.328125 -3.296875 C 0.328125 -2.796875 0.625 -2.484375 0.875 -2.296875 C 1.171875 -2.078125 1.390625 -2.03125 1.9375 -1.921875 C 2.296875 -1.859375 2.875 -1.734375 2.875 -1.203125 C 2.875 -0.515625 2.09375 -0.515625 1.9375 -0.515625 C 1.140625 -0.515625 0.578125 -0.890625 0.40625 -1 L 0.28125 -0.328125 C 0.59375 -0.171875 1.140625 0.109375 1.953125 0.109375 C 2.140625 0.109375 2.6875 0.109375 3.109375 -0.203125 C 3.421875 -0.453125 3.59375 -0.84375 3.59375 -1.28125 Z M 3.59375 -1.28125 "/>
</symbol>
<symbol overflow="visible" id="i19-glyph0-6">
<path style="stroke:none;" d="M 1.5625 0 L 1.5625 -6.921875 L 0.8125 -6.921875 L 0.8125 0 Z M 1.5625 0 "/>
</symbol>
<symbol overflow="visible" id="i19-glyph0-7">
<path style="stroke:none;" d="M 3.3125 -0.265625 L 3.15625 -0.859375 C 2.890625 -0.640625 2.578125 -0.53125 2.25 -0.53125 C 1.890625 -0.53125 1.75 -0.828125 1.75 -1.359375 L 1.75 -3.84375 L 3.15625 -3.84375 L 3.15625 -4.421875 L 1.75 -4.421875 L 1.75 -5.6875 L 1.0625 -5.6875 L 1.0625 -4.421875 L 0.1875 -4.421875 L 0.1875 -3.84375 L 1.03125 -3.84375 L 1.03125 -1.1875 C 1.03125 -0.59375 1.171875 0.109375 1.859375 0.109375 C 2.546875 0.109375 3.0625 -0.140625 3.3125 -0.265625 Z M 3.3125 -0.265625 "/>
</symbol>
<symbol overflow="visible" id="i19-glyph0-8">
<path style="stroke:none;" d="M 1.5625 0 L 1.5625 -4.421875 L 0.8125 -4.421875 L 0.8125 0 Z M 1.640625 -5.640625 L 1.640625 -6.53125 L 0.75 -6.53125 L 0.75 -5.640625 Z M 1.640625 -5.640625 "/>
</symbol>
<symbol overflow="visible" id="i19-glyph0-9">
<path style="stroke:none;" d="M 4.671875 -2.1875 C 4.671875 -3.53125 3.671875 -4.59375 2.5 -4.59375 C 1.265625 -4.59375 0.296875 -3.5 0.296875 -2.1875 C 0.296875 -0.875 1.3125 0.109375 2.484375 0.109375 C 3.671875 0.109375 4.671875 -0.890625 4.671875 -2.1875 Z M 3.890625 -2.296875 C 3.890625 -1.109375 3.21875 -0.53125 2.484375 -0.53125 C 1.796875 -0.53125 1.078125 -1.09375 1.078125 -2.296875 C 1.078125 -3.5 1.828125 -3.984375 2.484375 -3.984375 C 3.1875 -3.984375 3.890625 -3.46875 3.890625 -2.296875 Z M 3.890625 -2.296875 "/>
</symbol>
</g>
<clipPath id="i19-clip1">
  <path d="M 72 72 L 79 72 L 79 78.917969 L 72 78.917969 Z M 72 72 "/>
</clipPath>
<clipPath id="i19-clip2">
  <path d="M 78 72 L 102 72 L 102 78.917969 L 78 78.917969 Z M 78 72 "/>
</clipPath>
<clipPath id="i19-clip3">
  <path d="M 102 72 L 125 72 L 125 78.917969 L 102 78.917969 Z M 102 72 "/>
</clipPath>
</defs>
<g id="i19-surface96">
<g> <!-- clip-path="url(#clip1)" clip-rule="nonzero" -->
<g style="fill:rgb(0%,0%,0%);fill-opacity:1;">
  <use xlink:href="#i19-glyph0-1" x="72" y="78.919"/>
</g>
</g>
<g> <!-- clip-path="url(#clip2)" clip-rule="nonzero" -->
<g style="fill:rgb(0%,0%,0%);fill-opacity:1;">
  <use xlink:href="#i19-glyph0-2" x="77.95365" y="78.919"/>
  <use xlink:href="#i19-glyph0-3" x="81.35787" y="78.919"/>
  <use xlink:href="#i19-glyph0-4" x="86.145896" y="78.919"/>
  <use xlink:href="#i19-glyph0-5" x="91.293571" y="78.919"/>
  <use xlink:href="#i19-glyph0-6" x="95.112236" y="78.919"/>
  <use xlink:href="#i19-glyph0-3" x="97.492301" y="78.919"/>
</g>
</g>
<g> <!-- clip-path="url(#clip3)" clip-rule="nonzero" -->
<g style="fill:rgb(0%,0%,0%);fill-opacity:1;">
  <use xlink:href="#i19-glyph0-7" x="102.270364" y="78.919"/>
  <use xlink:href="#i19-glyph0-8" x="105.867859" y="78.919"/>
  <use xlink:href="#i19-glyph0-9" x="108.247924" y="78.919"/>
  <use xlink:href="#i19-glyph0-4" x="113.229224" y="78.919"/>
  <use xlink:href="#i19-glyph0-3" x="118.376899" y="78.919"/>
  <use xlink:href="#i19-glyph0-6" x="123.164925" y="78.919"/>
</g>
</g>
</g>
</g>
  <g id="g12" transform="translate(-72, 78.919)scale(1.0, -1.0)">
<defs>
<g>
<symbol overflow="visible" id="i12-glyph0-0">
<path style="stroke:none;" d=""/>
</symbol>
<symbol overflow="visible" id="i12-glyph0-1">
<path style="stroke:none;" d="M 7.71875 0 L 7.71875 -6.921875 L 6.578125 -6.921875 L 5.28125 -3.53125 C 4.9375 -2.625 4.46875 -1.390625 4.359375 -0.921875 L 4.34375 -0.921875 C 4.296875 -1.140625 4.171875 -1.5 4.03125 -1.921875 L 2.46875 -6.046875 L 2.125 -6.921875 L 1 -6.921875 L 1 0 L 1.78125 0 L 1.78125 -6.1875 C 1.84375 -5.859375 2.25 -4.78125 2.5 -4.09375 L 3.984375 -0.21875 L 4.703125 -0.21875 L 6.03125 -3.6875 L 6.515625 -4.953125 C 6.609375 -5.25 6.875 -5.96875 6.921875 -6.1875 L 6.9375 -6.1875 L 6.9375 0 Z M 7.71875 0 "/>
</symbol>
<symbol overflow="visible" id="i12-glyph0-2">
<path style="stroke:none;" d="M 4.078125 0 L 4.078125 -2.875 C 4.078125 -3.890625 3.34375 -4.59375 2.4375 -4.59375 C 1.78125 -4.59375 1.328125 -4.4375 0.875 -4.171875 L 0.921875 -3.515625 C 1.453125 -3.875 1.9375 -4 2.4375 -4 C 2.90625 -4 3.296875 -3.609375 3.296875 -2.875 L 3.296875 -2.4375 C 1.796875 -2.421875 0.53125 -2 0.53125 -1.125 C 0.53125 -0.703125 0.8125 0.109375 1.671875 0.109375 C 1.8125 0.109375 2.75 0.09375 3.328125 -0.359375 L 3.328125 0 Z M 3.296875 -1.3125 C 3.296875 -1.125 3.296875 -0.875 2.953125 -0.6875 C 2.671875 -0.515625 2.296875 -0.5 2.1875 -0.5 C 1.703125 -0.5 1.25 -0.734375 1.25 -1.140625 C 1.25 -1.84375 2.875 -1.90625 3.296875 -1.9375 Z M 3.296875 -1.3125 "/>
</symbol>
<symbol overflow="visible" id="i12-glyph0-3">
<path style="stroke:none;" d="M 3.3125 -0.265625 L 3.15625 -0.859375 C 2.890625 -0.640625 2.578125 -0.53125 2.25 -0.53125 C 1.890625 -0.53125 1.75 -0.828125 1.75 -1.359375 L 1.75 -3.84375 L 3.15625 -3.84375 L 3.15625 -4.421875 L 1.75 -4.421875 L 1.75 -5.6875 L 1.0625 -5.6875 L 1.0625 -4.421875 L 0.1875 -4.421875 L 0.1875 -3.84375 L 1.03125 -3.84375 L 1.03125 -1.1875 C 1.03125 -0.59375 1.171875 0.109375 1.859375 0.109375 C 2.546875 0.109375 3.0625 -0.140625 3.3125 -0.265625 Z M 3.3125 -0.265625 "/>
</symbol>
<symbol overflow="visible" id="i12-glyph0-4">
<path style="stroke:none;" d="M 4.34375 0 L 4.34375 -2.96875 C 4.34375 -3.625 4.1875 -4.53125 2.96875 -4.53125 C 2.359375 -4.53125 1.875 -4.234375 1.5625 -3.8125 L 1.5625 -6.921875 L 0.8125 -6.921875 L 0.8125 0 L 1.578125 0 L 1.578125 -2.4375 C 1.578125 -3.09375 1.828125 -3.921875 2.59375 -3.921875 C 3.546875 -3.921875 3.5625 -3.21875 3.5625 -2.90625 L 3.5625 0 Z M 4.34375 0 "/>
</symbol>
</g>
<clipPath id="i12-clip1">
  <path d="M 72 72 L 94 72 L 94 78.917969 L 72 78.917969 Z M 72 72 "/>
</clipPath>
</defs>
<g id="i12-surface61">
<g> <!-- clip-path="url(#clip1)" clip-rule="nonzero" -->
<g style="fill:rgb(0%,0%,0%);fill-opacity:1;">
  <use xlink:href="#i12-glyph0-1" x="72" y="78.919"/>
  <use xlink:href="#i12-glyph0-2" x="80.717275" y="78.919"/>
  <use xlink:href="#i12-glyph0-3" x="85.505301" y="78.919"/>
  <use xlink:href="#i12-glyph0-4" x="89.102795" y="78.919"/>
</g>
</g>
</g>
</g>
  <g id="g15" transform="translate(-72, 78.9188)scale(1.0, -1.0)">
<defs>
<g>
<symbol overflow="visible" id="i15-glyph0-0">
<path style="stroke:none;" d=""/>
</symbol>
<symbol overflow="visible" id="i15-glyph0-1">
<path style="stroke:none;" d="M 7.71875 0 L 7.71875 -6.921875 L 6.578125 -6.921875 L 5.28125 -3.53125 C 4.9375 -2.625 4.46875 -1.390625 4.359375 -0.921875 L 4.34375 -0.921875 C 4.296875 -1.140625 4.171875 -1.5 4.03125 -1.921875 L 2.46875 -6.046875 L 2.125 -6.921875 L 1 -6.921875 L 1 0 L 1.78125 0 L 1.78125 -6.1875 C 1.84375 -5.859375 2.25 -4.78125 2.5 -4.09375 L 3.984375 -0.21875 L 4.703125 -0.21875 L 6.03125 -3.6875 L 6.515625 -4.953125 C 6.609375 -5.25 6.875 -5.96875 6.921875 -6.1875 L 6.9375 -6.1875 L 6.9375 0 Z M 7.71875 0 "/>
</symbol>
<symbol overflow="visible" id="i15-glyph0-2">
<path style="stroke:none;" d="M 4.453125 -4.421875 L 3.703125 -4.421875 C 2.40625 -1.25 2.375 -0.796875 2.375 -0.5625 L 2.359375 -0.5625 C 2.296875 -1.234375 1.5 -3.09375 1.46875 -3.1875 L 0.921875 -4.421875 L 0.140625 -4.421875 L 2.078125 0 L 1.71875 0.890625 C 1.453125 1.46875 1.28125 1.46875 1.140625 1.46875 C 0.984375 1.46875 0.671875 1.4375 0.375 1.3125 L 0.421875 1.96875 C 0.640625 2.015625 0.921875 2.046875 1.140625 2.046875 C 1.5 2.046875 1.859375 1.921875 2.265625 0.90625 Z M 4.453125 -4.421875 "/>
</symbol>
<symbol overflow="visible" id="i15-glyph0-3">
<path style="stroke:none;" d="M 4.96875 0 L 4.96875 -0.65625 L 2.3125 -0.640625 L 1.828125 -0.640625 L 1.828125 -6.921875 L 0.9375 -6.921875 L 0.9375 0 Z M 4.96875 0 "/>
</symbol>
<symbol overflow="visible" id="i15-glyph0-4">
<path style="stroke:none;" d="M 1.5625 0 L 1.5625 -4.421875 L 0.8125 -4.421875 L 0.8125 0 Z M 1.640625 -5.640625 L 1.640625 -6.53125 L 0.75 -6.53125 L 0.75 -5.640625 Z M 1.640625 -5.640625 "/>
</symbol>
<symbol overflow="visible" id="i15-glyph0-5">
<path style="stroke:none;" d="M 4.78125 -2.21875 C 4.78125 -3.453125 4.109375 -4.53125 3.171875 -4.53125 C 2.78125 -4.53125 2.15625 -4.4375 1.5625 -3.953125 L 1.5625 -6.921875 L 0.8125 -6.921875 L 0.8125 0 L 1.59375 0 L 1.59375 -0.453125 C 1.828125 -0.234375 2.265625 0.109375 2.9375 0.109375 C 3.921875 0.109375 4.78125 -0.890625 4.78125 -2.21875 Z M 4 -2.21875 C 4 -0.921875 3.171875 -0.5 2.5625 -0.5 C 2.171875 -0.5 1.84375 -0.671875 1.59375 -1.140625 L 1.59375 -3.34375 C 1.75 -3.578125 2.109375 -3.921875 2.65625 -3.921875 C 3.25 -3.921875 4 -3.5 4 -2.21875 Z M 4 -2.21875 "/>
</symbol>
</g>
<clipPath id="i15-clip1">
  <path d="M 72 72 L 98 72 L 98 80.855469 L 72 80.855469 Z M 72 72 "/>
</clipPath>
</defs>
<g id="i15-surface76">
<g> <!-- clip-path="url(#clip1)" clip-rule="nonzero" -->
<g style="fill:rgb(0%,0%,0%);fill-opacity:1;">
  <use xlink:href="#i15-glyph0-1" x="72" y="78.919"/>
  <use xlink:href="#i15-glyph0-2" x="80.717275" y="78.919"/>
  <use xlink:href="#i15-glyph0-3" x="85.31103" y="78.919"/>
  <use xlink:href="#i15-glyph0-4" x="90.70777" y="78.919"/>
  <use xlink:href="#i15-glyph0-5" x="93.087835" y="78.919"/>
</g>
</g>
</g>
</g>
  <g id="g6" transform="translate(-72, 79.3373)scale(1.0, -1.0)">
<defs>
<g>
<symbol overflow="visible" id="i6-glyph0-0">
<path style="stroke:none;" d=""/>
</symbol>
<symbol overflow="visible" id="i6-glyph0-1">
<path style="stroke:none;" d="M 5.859375 -0.453125 L 5.796875 -1.140625 C 5.5 -0.9375 5.21875 -0.75 4.875 -0.640625 C 4.5625 -0.53125 4.203125 -0.53125 3.875 -0.53125 C 3.21875 -0.53125 2.625 -0.875 2.21875 -1.390625 C 1.765625 -1.96875 1.546875 -2.71875 1.546875 -3.453125 C 1.546875 -4.203125 1.765625 -4.953125 2.21875 -5.546875 C 2.625 -6.046875 3.21875 -6.40625 3.875 -6.40625 C 4.171875 -6.40625 4.46875 -6.375 4.765625 -6.28125 C 5.0625 -6.1875 5.34375 -6.046875 5.609375 -5.859375 L 5.734375 -6.671875 C 5.4375 -6.796875 5.140625 -6.890625 4.8125 -6.953125 C 4.5 -7.015625 4.1875 -7.03125 3.875 -7.03125 C 2.984375 -7.03125 2.1875 -6.640625 1.59375 -5.984375 C 0.984375 -5.296875 0.65625 -4.390625 0.65625 -3.453125 C 0.65625 -2.53125 0.984375 -1.625 1.59375 -0.9375 C 2.1875 -0.296875 2.984375 0.109375 3.875 0.109375 C 4.21875 0.109375 4.5625 0.09375 4.90625 0 C 5.25 -0.09375 5.546875 -0.265625 5.859375 -0.453125 Z M 5.859375 -0.453125 "/>
</symbol>
<symbol overflow="visible" id="i6-glyph0-2">
<path style="stroke:none;" d="M 1.796875 -3.59375 L 1.796875 -4.421875 L 0.96875 -4.421875 L 0.96875 -3.59375 Z M 1.796875 0 L 1.796875 -0.828125 L 0.96875 -0.828125 L 0.96875 0 Z M 1.796875 0 "/>
</symbol>
<symbol overflow="visible" id="i6-glyph0-3">
<path style="stroke:none;" d="M 4.421875 2.296875 C 4.421875 2.296875 4.421875 2.25 4.359375 2.109375 L 0.984375 -7.25 C 0.9375 -7.359375 0.890625 -7.484375 0.75 -7.484375 C 0.640625 -7.484375 0.5625 -7.390625 0.5625 -7.28125 C 0.5625 -7.28125 0.5625 -7.234375 0.609375 -7.09375 L 4 2.265625 C 4.03125 2.375 4.078125 2.5 4.21875 2.5 C 4.328125 2.5 4.421875 2.40625 4.421875 2.296875 Z M 4.421875 2.296875 "/>
</symbol>
<symbol overflow="visible" id="i6-glyph0-4">
<path style="stroke:none;" d="M 1.5625 0 L 1.5625 -6.921875 L 0.8125 -6.921875 L 0.8125 0 Z M 1.5625 0 "/>
</symbol>
<symbol overflow="visible" id="i6-glyph0-5">
<path style="stroke:none;" d="M 1.5625 0 L 1.5625 -4.421875 L 0.8125 -4.421875 L 0.8125 0 Z M 1.640625 -5.640625 L 1.640625 -6.53125 L 0.75 -6.53125 L 0.75 -5.640625 Z M 1.640625 -5.640625 "/>
</symbol>
<symbol overflow="visible" id="i6-glyph0-6">
<path style="stroke:none;" d="M 4.78125 -2.21875 C 4.78125 -3.453125 4.109375 -4.53125 3.171875 -4.53125 C 2.78125 -4.53125 2.15625 -4.4375 1.5625 -3.953125 L 1.5625 -6.921875 L 0.8125 -6.921875 L 0.8125 0 L 1.59375 0 L 1.59375 -0.453125 C 1.828125 -0.234375 2.265625 0.109375 2.9375 0.109375 C 3.921875 0.109375 4.78125 -0.890625 4.78125 -2.21875 Z M 4 -2.21875 C 4 -0.921875 3.171875 -0.5 2.5625 -0.5 C 2.171875 -0.5 1.84375 -0.671875 1.59375 -1.140625 L 1.59375 -3.34375 C 1.75 -3.578125 2.109375 -3.921875 2.65625 -3.921875 C 3.25 -3.921875 4 -3.5 4 -2.21875 Z M 4 -2.21875 "/>
</symbol>
<symbol overflow="visible" id="i6-glyph0-7">
<path style="stroke:none;" d="M 4.234375 0 L 4.234375 -0.578125 L 2.984375 -0.578125 L 2.984375 -6.765625 L 2.78125 -6.765625 C 2.1875 -6.15625 1.359375 -6.125 0.890625 -6.09375 L 0.890625 -5.515625 C 1.21875 -5.53125 1.6875 -5.546875 2.1875 -5.765625 L 2.1875 -0.578125 L 0.953125 -0.578125 L 0.953125 0 Z M 4.234375 0 "/>
</symbol>
</g>
<clipPath id="i6-clip1">
  <path d="M 72 72 L 101 72 L 101 81.828125 L 72 81.828125 Z M 72 72 "/>
</clipPath>
</defs>
<g id="i6-surface31">
<g> <!-- clip-path="url(#clip1)" clip-rule="nonzero" -->
<g style="fill:rgb(0%,0%,0%);fill-opacity:1;">
  <use xlink:href="#i6-glyph0-1" x="72" y="79.337"/>
  <use xlink:href="#i6-glyph0-2" x="78.365105" y="79.337"/>
  <use xlink:href="#i6-glyph0-3" x="81.132715" y="79.337"/>
  <use xlink:href="#i6-glyph0-4" x="86.114015" y="79.337"/>
  <use xlink:href="#i6-glyph0-5" x="88.494081" y="79.337"/>
  <use xlink:href="#i6-glyph0-6" x="90.874146" y="79.337"/>
  <use xlink:href="#i6-glyph0-7" x="96.021821" y="79.337"/>
</g>
</g>
</g>
</g>
  <g id="g16" transform="translate(-72, 78.919)scale(1.0, -1.0)">
<defs>
<g>
<symbol overflow="visible" id="i16-glyph0-0">
<path style="stroke:none;" d=""/>
</symbol>
<symbol overflow="visible" id="i16-glyph0-1">
<path style="stroke:none;" d="M 5.796875 -4.90625 C 5.796875 -5.96875 4.8125 -6.921875 3.4375 -6.921875 L 0.953125 -6.921875 L 0.953125 0 L 1.84375 0 L 1.84375 -2.875 L 3.515625 -2.875 C 4.75 -2.875 5.796875 -3.78125 5.796875 -4.90625 Z M 5 -4.90625 C 5 -4.109375 4.359375 -3.453125 3.21875 -3.453125 L 1.8125 -3.453125 L 1.8125 -6.359375 L 3.21875 -6.359375 C 4.3125 -6.359375 5 -5.75 5 -4.90625 Z M 5 -4.90625 "/>
</symbol>
<symbol overflow="visible" id="i16-glyph0-2">
<path style="stroke:none;" d="M 4.078125 0 L 4.078125 -2.875 C 4.078125 -3.890625 3.34375 -4.59375 2.4375 -4.59375 C 1.78125 -4.59375 1.328125 -4.4375 0.875 -4.171875 L 0.921875 -3.515625 C 1.453125 -3.875 1.9375 -4 2.4375 -4 C 2.90625 -4 3.296875 -3.609375 3.296875 -2.875 L 3.296875 -2.4375 C 1.796875 -2.421875 0.53125 -2 0.53125 -1.125 C 0.53125 -0.703125 0.8125 0.109375 1.671875 0.109375 C 1.8125 0.109375 2.75 0.09375 3.328125 -0.359375 L 3.328125 0 Z M 3.296875 -1.3125 C 3.296875 -1.125 3.296875 -0.875 2.953125 -0.6875 C 2.671875 -0.515625 2.296875 -0.5 2.1875 -0.5 C 1.703125 -0.5 1.25 -0.734375 1.25 -1.140625 C 1.25 -1.84375 2.875 -1.90625 3.296875 -1.9375 Z M 3.296875 -1.3125 "/>
</symbol>
<symbol overflow="visible" id="i16-glyph0-3">
<path style="stroke:none;" d="M 4.140625 -0.40625 L 4.078125 -1.0625 C 3.5625 -0.671875 3.03125 -0.53125 2.515625 -0.53125 C 1.6875 -0.53125 1.140625 -1.25 1.140625 -2.21875 C 1.140625 -3 1.5 -3.953125 2.5625 -3.953125 C 3.078125 -3.953125 3.421875 -3.875 3.96875 -3.515625 L 4.09375 -4.171875 C 3.5 -4.5 3.15625 -4.59375 2.546875 -4.59375 C 1.171875 -4.59375 0.359375 -3.390625 0.359375 -2.21875 C 0.359375 -0.984375 1.265625 0.109375 2.515625 0.109375 C 3.046875 0.109375 3.59375 -0.03125 4.140625 -0.40625 Z M 4.140625 -0.40625 "/>
</symbol>
<symbol overflow="visible" id="i16-glyph0-4">
<path style="stroke:none;" d="M 4.6875 0 L 2.796875 -2.71875 L 4.46875 -4.421875 L 3.578125 -4.421875 L 1.5625 -2.359375 L 1.5625 -6.921875 L 0.84375 -6.921875 L 0.84375 0 L 1.53125 0 L 1.53125 -1.40625 L 2.328125 -2.234375 L 3.875 0 Z M 4.6875 0 "/>
</symbol>
<symbol overflow="visible" id="i16-glyph0-5">
<path style="stroke:none;" d="M 4.234375 0 L 4.234375 -0.578125 L 2.984375 -0.578125 L 2.984375 -6.765625 L 2.78125 -6.765625 C 2.1875 -6.15625 1.359375 -6.125 0.890625 -6.09375 L 0.890625 -5.515625 C 1.21875 -5.53125 1.6875 -5.546875 2.1875 -5.765625 L 2.1875 -0.578125 L 0.953125 -0.578125 L 0.953125 0 Z M 4.234375 0 "/>
</symbol>
</g>
<clipPath id="i16-clip1">
  <path d="M 72 72 L 78 72 L 78 78.917969 L 72 78.917969 Z M 72 72 "/>
</clipPath>
<clipPath id="i16-clip2">
  <path d="M 78 72 L 97 72 L 97 78.917969 L 78 78.917969 Z M 78 72 "/>
</clipPath>
</defs>
<g id="i16-surface81">
<g> <!-- clip-path="url(#clip1)" clip-rule="nonzero" -->
<g style="fill:rgb(0%,0%,0%);fill-opacity:1;">
  <use xlink:href="#i16-glyph0-1" x="72" y="78.919"/>
</g>
</g>
<g> <!-- clip-path="url(#clip2)" clip-rule="nonzero" -->
<g style="fill:rgb(0%,0%,0%);fill-opacity:1;">
  <use xlink:href="#i16-glyph0-2" x="78.086152" y="78.919"/>
  <use xlink:href="#i16-glyph0-3" x="82.874178" y="78.919"/>
  <use xlink:href="#i16-glyph0-4" x="87.302554" y="78.919"/>
  <use xlink:href="#i16-glyph0-5" x="92.173269" y="78.919"/>
</g>
</g>
</g>
</g>
  <g id="g17" transform="translate(-72, 78.919)scale(1.0, -1.0)">
<defs>
<g>
<symbol overflow="visible" id="i17-glyph0-0">
<path style="stroke:none;" d=""/>
</symbol>
<symbol overflow="visible" id="i17-glyph0-1">
<path style="stroke:none;" d="M 5.796875 -4.90625 C 5.796875 -5.96875 4.8125 -6.921875 3.4375 -6.921875 L 0.953125 -6.921875 L 0.953125 0 L 1.84375 0 L 1.84375 -2.875 L 3.515625 -2.875 C 4.75 -2.875 5.796875 -3.78125 5.796875 -4.90625 Z M 5 -4.90625 C 5 -4.109375 4.359375 -3.453125 3.21875 -3.453125 L 1.8125 -3.453125 L 1.8125 -6.359375 L 3.21875 -6.359375 C 4.3125 -6.359375 5 -5.75 5 -4.90625 Z M 5 -4.90625 "/>
</symbol>
<symbol overflow="visible" id="i17-glyph0-2">
<path style="stroke:none;" d="M 4.078125 0 L 4.078125 -2.875 C 4.078125 -3.890625 3.34375 -4.59375 2.4375 -4.59375 C 1.78125 -4.59375 1.328125 -4.4375 0.875 -4.171875 L 0.921875 -3.515625 C 1.453125 -3.875 1.9375 -4 2.4375 -4 C 2.90625 -4 3.296875 -3.609375 3.296875 -2.875 L 3.296875 -2.4375 C 1.796875 -2.421875 0.53125 -2 0.53125 -1.125 C 0.53125 -0.703125 0.8125 0.109375 1.671875 0.109375 C 1.8125 0.109375 2.75 0.09375 3.328125 -0.359375 L 3.328125 0 Z M 3.296875 -1.3125 C 3.296875 -1.125 3.296875 -0.875 2.953125 -0.6875 C 2.671875 -0.515625 2.296875 -0.5 2.1875 -0.5 C 1.703125 -0.5 1.25 -0.734375 1.25 -1.140625 C 1.25 -1.84375 2.875 -1.90625 3.296875 -1.9375 Z M 3.296875 -1.3125 "/>
</symbol>
<symbol overflow="visible" id="i17-glyph0-3">
<path style="stroke:none;" d="M 4.140625 -0.40625 L 4.078125 -1.0625 C 3.5625 -0.671875 3.03125 -0.53125 2.515625 -0.53125 C 1.6875 -0.53125 1.140625 -1.25 1.140625 -2.21875 C 1.140625 -3 1.5 -3.953125 2.5625 -3.953125 C 3.078125 -3.953125 3.421875 -3.875 3.96875 -3.515625 L 4.09375 -4.171875 C 3.5 -4.5 3.15625 -4.59375 2.546875 -4.59375 C 1.171875 -4.59375 0.359375 -3.390625 0.359375 -2.21875 C 0.359375 -0.984375 1.265625 0.109375 2.515625 0.109375 C 3.046875 0.109375 3.59375 -0.03125 4.140625 -0.40625 Z M 4.140625 -0.40625 "/>
</symbol>
<symbol overflow="visible" id="i17-glyph0-4">
<path style="stroke:none;" d="M 4.6875 0 L 2.796875 -2.71875 L 4.46875 -4.421875 L 3.578125 -4.421875 L 1.5625 -2.359375 L 1.5625 -6.921875 L 0.84375 -6.921875 L 0.84375 0 L 1.53125 0 L 1.53125 -1.40625 L 2.328125 -2.234375 L 3.875 0 Z M 4.6875 0 "/>
</symbol>
<symbol overflow="visible" id="i17-glyph0-5">
<path style="stroke:none;" d="M 4.46875 0 L 4.46875 -0.703125 L 2.65625 -0.703125 C 2.546875 -0.703125 2.421875 -0.703125 2.296875 -0.703125 L 1.21875 -0.703125 C 1.53125 -0.984375 2.296875 -1.71875 2.609375 -2.015625 C 2.796875 -2.1875 3.296875 -2.609375 3.484375 -2.796875 C 3.9375 -3.234375 4.46875 -3.765625 4.46875 -4.609375 C 4.46875 -5.765625 3.671875 -6.765625 2.359375 -6.765625 C 1.21875 -6.765625 0.65625 -5.984375 0.421875 -5.125 C 0.53125 -4.953125 0.59375 -4.890625 0.609375 -4.859375 C 0.625 -4.84375 0.734375 -4.71875 0.828125 -4.578125 C 1.03125 -5.34375 1.3125 -6.125 2.21875 -6.125 C 3.15625 -6.125 3.65625 -5.375 3.65625 -4.59375 C 3.65625 -3.75 3.09375 -3.1875 2.5 -2.578125 L 1.734375 -1.875 L 0.5 -0.640625 L 0.5 0 Z M 4.46875 0 "/>
</symbol>
</g>
<clipPath id="i17-clip1">
  <path d="M 72 72 L 78 72 L 78 78.917969 L 72 78.917969 Z M 72 72 "/>
</clipPath>
<clipPath id="i17-clip2">
  <path d="M 78 72 L 97 72 L 97 78.917969 L 78 78.917969 Z M 78 72 "/>
</clipPath>
</defs>
<g id="i17-surface86">
<g> <!-- clip-path="url(#clip1)" clip-rule="nonzero" -->
<g style="fill:rgb(0%,0%,0%);fill-opacity:1;">
  <use xlink:href="#i17-glyph0-1" x="72" y="78.919"/>
</g>
</g>
<g> <!-- clip-path="url(#clip2)" clip-rule="nonzero" -->
<g style="fill:rgb(0%,0%,0%);fill-opacity:1;">
  <use xlink:href="#i17-glyph0-2" x="78.086152" y="78.919"/>
  <use xlink:href="#i17-glyph0-3" x="82.874178" y="78.919"/>
  <use xlink:href="#i17-glyph0-4" x="87.302554" y="78.919"/>
  <use xlink:href="#i17-glyph0-5" x="92.173269" y="78.919"/>
</g>
</g>
</g>
</g>
  <g id="g9" transform="translate(-72, 78.9188)scale(1.0, -1.0)">
<defs>
<g>
<symbol overflow="visible" id="i9-glyph0-0">
<path style="stroke:none;" d=""/>
</symbol>
<symbol overflow="visible" id="i9-glyph0-1">
<path style="stroke:none;" d="M 5.859375 -0.453125 L 5.796875 -1.140625 C 5.5 -0.9375 5.21875 -0.75 4.875 -0.640625 C 4.5625 -0.53125 4.203125 -0.53125 3.875 -0.53125 C 3.21875 -0.53125 2.625 -0.875 2.21875 -1.390625 C 1.765625 -1.96875 1.546875 -2.71875 1.546875 -3.453125 C 1.546875 -4.203125 1.765625 -4.953125 2.21875 -5.546875 C 2.625 -6.046875 3.21875 -6.40625 3.875 -6.40625 C 4.171875 -6.40625 4.46875 -6.375 4.765625 -6.28125 C 5.0625 -6.1875 5.34375 -6.046875 5.609375 -5.859375 L 5.734375 -6.671875 C 5.4375 -6.796875 5.140625 -6.890625 4.8125 -6.953125 C 4.5 -7.015625 4.1875 -7.03125 3.875 -7.03125 C 2.984375 -7.03125 2.1875 -6.640625 1.59375 -5.984375 C 0.984375 -5.296875 0.65625 -4.390625 0.65625 -3.453125 C 0.65625 -2.53125 0.984375 -1.625 1.59375 -0.9375 C 2.1875 -0.296875 2.984375 0.109375 3.875 0.109375 C 4.21875 0.109375 4.5625 0.09375 4.90625 0 C 5.25 -0.09375 5.546875 -0.265625 5.859375 -0.453125 Z M 5.859375 -0.453125 "/>
</symbol>
<symbol overflow="visible" id="i9-glyph0-2">
<path style="stroke:none;" d="M 4.671875 -2.1875 C 4.671875 -3.53125 3.671875 -4.59375 2.5 -4.59375 C 1.265625 -4.59375 0.296875 -3.5 0.296875 -2.1875 C 0.296875 -0.875 1.3125 0.109375 2.484375 0.109375 C 3.671875 0.109375 4.671875 -0.890625 4.671875 -2.1875 Z M 3.890625 -2.296875 C 3.890625 -1.109375 3.21875 -0.53125 2.484375 -0.53125 C 1.796875 -0.53125 1.078125 -1.09375 1.078125 -2.296875 C 1.078125 -3.5 1.828125 -3.984375 2.484375 -3.984375 C 3.1875 -3.984375 3.890625 -3.46875 3.890625 -2.296875 Z M 3.890625 -2.296875 "/>
</symbol>
<symbol overflow="visible" id="i9-glyph0-3">
<path style="stroke:none;" d="M 7.109375 0 L 7.109375 -2.96875 C 7.109375 -3.640625 6.953125 -4.53125 5.734375 -4.53125 C 5.140625 -4.53125 4.625 -4.25 4.25 -3.71875 C 4 -4.46875 3.296875 -4.53125 2.984375 -4.53125 C 2.265625 -4.53125 1.796875 -4.125 1.53125 -3.765625 L 1.53125 -4.484375 L 0.8125 -4.484375 L 0.8125 0 L 1.578125 0 L 1.578125 -2.4375 C 1.578125 -3.125 1.859375 -3.921875 2.59375 -3.921875 C 3.515625 -3.921875 3.5625 -3.28125 3.5625 -2.90625 L 3.5625 0 L 4.34375 0 L 4.34375 -2.4375 C 4.34375 -3.125 4.609375 -3.921875 5.359375 -3.921875 C 6.28125 -3.921875 6.328125 -3.28125 6.328125 -2.90625 L 6.328125 0 Z M 7.109375 0 "/>
</symbol>
<symbol overflow="visible" id="i9-glyph0-4">
<path style="stroke:none;" d="M 4.78125 -2.21875 C 4.78125 -3.421875 4.15625 -4.53125 3.203125 -4.53125 C 2.609375 -4.53125 2.03125 -4.328125 1.5625 -3.9375 L 1.5625 -4.421875 L 0.8125 -4.421875 L 0.8125 1.9375 L 1.59375 1.9375 L 1.59375 -0.453125 C 1.90625 -0.171875 2.34375 0.109375 2.9375 0.109375 C 3.90625 0.109375 4.78125 -0.875 4.78125 -2.21875 Z M 4 -2.21875 C 4 -1.203125 3.296875 -0.5 2.546875 -0.5 C 2.15625 -0.5 1.890625 -0.703125 1.6875 -0.96875 C 1.59375 -1.109375 1.59375 -1.140625 1.59375 -1.3125 L 1.59375 -3.3125 C 1.828125 -3.671875 2.21875 -3.890625 2.65625 -3.890625 C 3.40625 -3.890625 4 -3.140625 4 -2.21875 Z M 4 -2.21875 "/>
</symbol>
<symbol overflow="visible" id="i9-glyph0-5">
<path style="stroke:none;" d="M 1.5625 0 L 1.5625 -6.921875 L 0.8125 -6.921875 L 0.8125 0 Z M 1.5625 0 "/>
</symbol>
<symbol overflow="visible" id="i9-glyph0-6">
<path style="stroke:none;" d="M 4.125 -2.1875 C 4.125 -2.515625 4.109375 -3.265625 3.734375 -3.875 C 3.3125 -4.484375 2.71875 -4.59375 2.359375 -4.59375 C 1.25 -4.59375 0.34375 -3.53125 0.34375 -2.25 C 0.34375 -0.9375 1.3125 0.109375 2.5 0.109375 C 3.125 0.109375 3.703125 -0.125 4.09375 -0.40625 L 4.03125 -1.0625 C 3.40625 -0.53125 2.734375 -0.5 2.515625 -0.5 C 1.71875 -0.5 1.078125 -1.203125 1.046875 -2.1875 Z M 3.5625 -2.734375 L 1.09375 -2.734375 C 1.25 -3.484375 1.78125 -3.984375 2.359375 -3.984375 C 2.875 -3.984375 3.421875 -3.65625 3.5625 -2.734375 Z M 3.5625 -2.734375 "/>
</symbol>
<symbol overflow="visible" id="i9-glyph0-7">
<path style="stroke:none;" d="M 4.578125 0 L 2.59375 -2.28125 L 4.421875 -4.421875 L 3.59375 -4.421875 L 2.265625 -2.78125 L 0.890625 -4.421875 L 0.0625 -4.421875 L 1.9375 -2.28125 L 0 0 L 0.8125 0 L 2.265625 -1.875 L 3.765625 0 Z M 4.578125 0 "/>
</symbol>
<symbol overflow="visible" id="i9-glyph0-8">
<path style="stroke:none;" d="M 6.09375 0 L 6.09375 -6.921875 L 5.3125 -6.921875 L 5.3125 -0.703125 L 5.296875 -0.703125 L 4.640625 -2.078125 L 2.1875 -6.921875 L 0.953125 -6.921875 L 0.953125 0 L 1.734375 0 L 1.734375 -6.203125 L 1.75 -6.203125 L 2.40625 -4.84375 L 4.859375 0 Z M 6.09375 0 "/>
</symbol>
<symbol overflow="visible" id="i9-glyph0-9">
<path style="stroke:none;" d="M 4.34375 0 L 4.34375 -4.421875 L 3.5625 -4.421875 L 3.5625 -1.53125 C 3.5625 -0.78125 3 -0.4375 2.359375 -0.4375 C 1.65625 -0.4375 1.578125 -0.703125 1.578125 -1.125 L 1.578125 -4.421875 L 0.8125 -4.421875 L 0.8125 -1.09375 C 0.8125 -0.375 1.03125 0.109375 1.859375 0.109375 C 2.390625 0.109375 3.09375 -0.046875 3.59375 -0.484375 L 3.59375 0 Z M 4.34375 0 "/>
</symbol>
<symbol overflow="visible" id="i9-glyph0-10">
<path style="stroke:none;" d="M 4.78125 -2.21875 C 4.78125 -3.453125 4.109375 -4.53125 3.171875 -4.53125 C 2.78125 -4.53125 2.15625 -4.4375 1.5625 -3.953125 L 1.5625 -6.921875 L 0.8125 -6.921875 L 0.8125 0 L 1.59375 0 L 1.59375 -0.453125 C 1.828125 -0.234375 2.265625 0.109375 2.9375 0.109375 C 3.921875 0.109375 4.78125 -0.890625 4.78125 -2.21875 Z M 4 -2.21875 C 4 -0.921875 3.171875 -0.5 2.5625 -0.5 C 2.171875 -0.5 1.84375 -0.671875 1.59375 -1.140625 L 1.59375 -3.34375 C 1.75 -3.578125 2.109375 -3.921875 2.65625 -3.921875 C 3.25 -3.921875 4 -3.5 4 -2.21875 Z M 4 -2.21875 "/>
</symbol>
<symbol overflow="visible" id="i9-glyph0-11">
<path style="stroke:none;" d="M 3.265625 -3.875 L 3.265625 -4.53125 C 2.375 -4.53125 1.828125 -4.03125 1.515625 -3.578125 L 1.515625 -4.484375 L 0.8125 -4.484375 L 0.8125 0 L 1.5625 0 L 1.5625 -2.140625 C 1.5625 -3.125 2.28125 -3.84375 3.265625 -3.875 Z M 3.265625 -3.875 "/>
</symbol>
<symbol overflow="visible" id="i9-glyph0-12">
<path style="stroke:none;" d="M 3.59375 -1.28125 C 3.59375 -1.828125 3.21875 -2.15625 3.203125 -2.1875 C 2.8125 -2.546875 2.546875 -2.609375 2.046875 -2.6875 C 1.5 -2.796875 1.03125 -2.90625 1.03125 -3.390625 C 1.03125 -4 1.75 -4 1.890625 -4 C 2.203125 -4 2.734375 -3.96875 3.296875 -3.625 L 3.421875 -4.28125 C 2.90625 -4.515625 2.5 -4.59375 1.984375 -4.59375 C 1.734375 -4.59375 0.328125 -4.59375 0.328125 -3.296875 C 0.328125 -2.796875 0.625 -2.484375 0.875 -2.296875 C 1.171875 -2.078125 1.390625 -2.03125 1.9375 -1.921875 C 2.296875 -1.859375 2.875 -1.734375 2.875 -1.203125 C 2.875 -0.515625 2.09375 -0.515625 1.9375 -0.515625 C 1.140625 -0.515625 0.578125 -0.890625 0.40625 -1 L 0.28125 -0.328125 C 0.59375 -0.171875 1.140625 0.109375 1.953125 0.109375 C 2.140625 0.109375 2.6875 0.109375 3.109375 -0.203125 C 3.421875 -0.453125 3.59375 -0.84375 3.59375 -1.28125 Z M 3.59375 -1.28125 "/>
</symbol>
<symbol overflow="visible" id="i9-glyph0-13">
<path style="stroke:none;" d="M 1.796875 0 L 1.796875 -0.828125 L 0.96875 -0.828125 L 0.96875 0 Z M 1.796875 0 "/>
</symbol>
</g>
<clipPath id="i9-clip1">
  <path d="M 72 72 L 133 72 L 133 80.855469 L 72 80.855469 Z M 72 72 "/>
</clipPath>
<clipPath id="i9-clip2">
  <path d="M 148 74 L 160.667969 74 L 160.667969 80 L 148 80 Z M 148 74 "/>
</clipPath>
</defs>
<g id="i9-surface46">
<g> <!-- clip-path="url(#clip1)" clip-rule="nonzero" -->
<g style="fill:rgb(0%,0%,0%);fill-opacity:1;">
  <use xlink:href="#i9-glyph0-1" x="72" y="78.919"/>
  <use xlink:href="#i9-glyph0-2" x="78.365105" y="78.919"/>
  <use xlink:href="#i9-glyph0-3" x="83.346405" y="78.919"/>
  <use xlink:href="#i9-glyph0-4" x="91.261691" y="78.919"/>
  <use xlink:href="#i9-glyph0-5" x="96.409366" y="78.919"/>
  <use xlink:href="#i9-glyph0-6" x="98.789431" y="78.919"/>
  <use xlink:href="#i9-glyph0-7" x="103.217807" y="78.919"/>
  <use xlink:href="#i9-glyph0-8" x="107.811562" y="78.919"/>
  <use xlink:href="#i9-glyph0-9" x="114.868072" y="78.919"/>
  <use xlink:href="#i9-glyph0-3" x="120.015747" y="78.919"/>
  <use xlink:href="#i9-glyph0-10" x="127.931033" y="78.919"/>
</g>
</g>
<g style="fill:rgb(0%,0%,0%);fill-opacity:1;">
  <use xlink:href="#i9-glyph0-6" x="133.357661" y="78.919"/>
  <use xlink:href="#i9-glyph0-11" x="137.786037" y="78.919"/>
</g>
<g style="fill:rgb(0%,0%,0%);fill-opacity:1;">
  <use xlink:href="#i9-glyph0-12" x="141.180294" y="78.919"/>
</g>
<g style="fill:rgb(0%,0%,0%);fill-opacity:1;">
  <use xlink:href="#i9-glyph0-13" x="145.008922" y="78.919"/>
</g>
<g> <!-- clip-path="url(#clip2)" clip-rule="nonzero" -->
<g style="fill:rgb(0%,0%,0%);fill-opacity:1;">
  <use xlink:href="#i9-glyph0-3" x="147.766569" y="78.919"/>
  <use xlink:href="#i9-glyph0-2" x="155.681855" y="78.919"/>
</g>
</g>
</g>
</g>
  <g id="g7" transform="translate(-72, 79.3373)scale(1.0, -1.0)">
<defs>
<g>
<symbol overflow="visible" id="i7-glyph0-0">
<path style="stroke:none;" d=""/>
</symbol>
<symbol overflow="visible" id="i7-glyph0-1">
<path style="stroke:none;" d="M 5.859375 -0.453125 L 5.796875 -1.140625 C 5.5 -0.9375 5.21875 -0.75 4.875 -0.640625 C 4.5625 -0.53125 4.203125 -0.53125 3.875 -0.53125 C 3.21875 -0.53125 2.625 -0.875 2.21875 -1.390625 C 1.765625 -1.96875 1.546875 -2.71875 1.546875 -3.453125 C 1.546875 -4.203125 1.765625 -4.953125 2.21875 -5.546875 C 2.625 -6.046875 3.21875 -6.40625 3.875 -6.40625 C 4.171875 -6.40625 4.46875 -6.375 4.765625 -6.28125 C 5.0625 -6.1875 5.34375 -6.046875 5.609375 -5.859375 L 5.734375 -6.671875 C 5.4375 -6.796875 5.140625 -6.890625 4.8125 -6.953125 C 4.5 -7.015625 4.1875 -7.03125 3.875 -7.03125 C 2.984375 -7.03125 2.1875 -6.640625 1.59375 -5.984375 C 0.984375 -5.296875 0.65625 -4.390625 0.65625 -3.453125 C 0.65625 -2.53125 0.984375 -1.625 1.59375 -0.9375 C 2.1875 -0.296875 2.984375 0.109375 3.875 0.109375 C 4.21875 0.109375 4.5625 0.09375 4.90625 0 C 5.25 -0.09375 5.546875 -0.265625 5.859375 -0.453125 Z M 5.859375 -0.453125 "/>
</symbol>
<symbol overflow="visible" id="i7-glyph0-2">
<path style="stroke:none;" d="M 1.796875 -3.59375 L 1.796875 -4.421875 L 0.96875 -4.421875 L 0.96875 -3.59375 Z M 1.796875 0 L 1.796875 -0.828125 L 0.96875 -0.828125 L 0.96875 0 Z M 1.796875 0 "/>
</symbol>
<symbol overflow="visible" id="i7-glyph0-3">
<path style="stroke:none;" d="M 4.421875 2.296875 C 4.421875 2.296875 4.421875 2.25 4.359375 2.109375 L 0.984375 -7.25 C 0.9375 -7.359375 0.890625 -7.484375 0.75 -7.484375 C 0.640625 -7.484375 0.5625 -7.390625 0.5625 -7.28125 C 0.5625 -7.28125 0.5625 -7.234375 0.609375 -7.09375 L 4 2.265625 C 4.03125 2.375 4.078125 2.5 4.21875 2.5 C 4.328125 2.5 4.421875 2.40625 4.421875 2.296875 Z M 4.421875 2.296875 "/>
</symbol>
<symbol overflow="visible" id="i7-glyph0-4">
<path style="stroke:none;" d="M 1.5625 0 L 1.5625 -6.921875 L 0.8125 -6.921875 L 0.8125 0 Z M 1.5625 0 "/>
</symbol>
<symbol overflow="visible" id="i7-glyph0-5">
<path style="stroke:none;" d="M 1.5625 0 L 1.5625 -4.421875 L 0.8125 -4.421875 L 0.8125 0 Z M 1.640625 -5.640625 L 1.640625 -6.53125 L 0.75 -6.53125 L 0.75 -5.640625 Z M 1.640625 -5.640625 "/>
</symbol>
<symbol overflow="visible" id="i7-glyph0-6">
<path style="stroke:none;" d="M 4.78125 -2.21875 C 4.78125 -3.453125 4.109375 -4.53125 3.171875 -4.53125 C 2.78125 -4.53125 2.15625 -4.4375 1.5625 -3.953125 L 1.5625 -6.921875 L 0.8125 -6.921875 L 0.8125 0 L 1.59375 0 L 1.59375 -0.453125 C 1.828125 -0.234375 2.265625 0.109375 2.9375 0.109375 C 3.921875 0.109375 4.78125 -0.890625 4.78125 -2.21875 Z M 4 -2.21875 C 4 -0.921875 3.171875 -0.5 2.5625 -0.5 C 2.171875 -0.5 1.84375 -0.671875 1.59375 -1.140625 L 1.59375 -3.34375 C 1.75 -3.578125 2.109375 -3.921875 2.65625 -3.921875 C 3.25 -3.921875 4 -3.5 4 -2.21875 Z M 4 -2.21875 "/>
</symbol>
<symbol overflow="visible" id="i7-glyph0-7">
<path style="stroke:none;" d="M 4.46875 0 L 4.46875 -0.703125 L 2.65625 -0.703125 C 2.546875 -0.703125 2.421875 -0.703125 2.296875 -0.703125 L 1.21875 -0.703125 C 1.53125 -0.984375 2.296875 -1.71875 2.609375 -2.015625 C 2.796875 -2.1875 3.296875 -2.609375 3.484375 -2.796875 C 3.9375 -3.234375 4.46875 -3.765625 4.46875 -4.609375 C 4.46875 -5.765625 3.671875 -6.765625 2.359375 -6.765625 C 1.21875 -6.765625 0.65625 -5.984375 0.421875 -5.125 C 0.53125 -4.953125 0.59375 -4.890625 0.609375 -4.859375 C 0.625 -4.84375 0.734375 -4.71875 0.828125 -4.578125 C 1.03125 -5.34375 1.3125 -6.125 2.21875 -6.125 C 3.15625 -6.125 3.65625 -5.375 3.65625 -4.59375 C 3.65625 -3.75 3.09375 -3.1875 2.5 -2.578125 L 1.734375 -1.875 L 0.5 -0.640625 L 0.5 0 Z M 4.46875 0 "/>
</symbol>
</g>
<clipPath id="i7-clip1">
  <path d="M 72 72 L 101 72 L 101 81.828125 L 72 81.828125 Z M 72 72 "/>
</clipPath>
</defs>
<g id="i7-surface36">
<g> <!-- clip-path="url(#clip1)" clip-rule="nonzero" -->
<g style="fill:rgb(0%,0%,0%);fill-opacity:1;">
  <use xlink:href="#i7-glyph0-1" x="72" y="79.337"/>
  <use xlink:href="#i7-glyph0-2" x="78.365105" y="79.337"/>
  <use xlink:href="#i7-glyph0-3" x="81.132715" y="79.337"/>
  <use xlink:href="#i7-glyph0-4" x="86.114015" y="79.337"/>
  <use xlink:href="#i7-glyph0-5" x="88.494081" y="79.337"/>
  <use xlink:href="#i7-glyph0-6" x="90.874146" y="79.337"/>
  <use xlink:href="#i7-glyph0-7" x="96.021821" y="79.337"/>
</g>
</g>
</g>
</g>
 </defs>
</svg>
