<?xml version="1.0" standalone="yes"?>
<!DOCTYPE svg PUBLIC "-//W3C//DTD SVG 1.1//EN"
  "http://www.w3.org/Graphics/SVG/1.1/DTD/svg11.dtd">
<svg version="1.1" xmlns="http://www.w3.org/2000/svg" xmlns:xlink="http://www.w3.org/1999/xlink" width="75.2305mm" height="45.9273mm" viewBox="-88.2775 -104.426 213.252 130.188" fill="#4d3333" stroke="#000000" stroke-width="0.5" stroke-miterlimit="10">
 <g transform="scale(1.0, -1.0)">
  <path d="M-19.84 -14.17C-19.84 -9.48 -23.65 -5.67 -28.35 -5.67C-33.04 -5.67 -36.85 -9.48 -36.85 -14.17C-36.85 -18.87 -33.04 -22.68 -28.35 -22.68C-23.65 -22.68 -19.84 -18.87 -19.84 -14.17z" />
  <path d="M121.89 56.69C121.89 61.39 118.08 65.20 113.39 65.20C108.69 65.20 104.88 61.39 104.88 56.69C104.88 52.00 108.69 48.19 113.39 48.19C118.08 48.19 121.89 52.00 121.89 56.69z" />
  <path d="M-34.02 85.04C-34.02 89.73 -37.83 93.54 -42.52 93.54C-47.21 93.54 -51.02 89.73 -51.02 85.04C-51.02 80.35 -47.21 76.54 -42.52 76.54C-37.83 76.54 -34.02 80.35 -34.02 85.04z" />
  <path d="M-28.35 -14.17L113.39 56.69L-42.52 85.04z" fill="url(#g2)" stroke="none" />
  <path d="M-67.66 1.61C-36.37 -21.86 25.70 -22.58 70.87 -0.00C116.03 22.58 127.29 59.97 96.00 83.43C64.71 106.90 2.64 107.62 -42.52 85.04C-87.68 62.46 -98.95 25.07 -67.66 1.61z" fill="none" stroke-width="0.15" stroke-dasharray="5.66929 5.66929" />
 </g>
 <defs>
  <radialGradient id="g2" gradientUnits="userSpaceOnUse" gradientTransform="matrix(98.2737 -0 15.8867 59.0079 14.1732 42.5197)" cx="-3.46945e-18" cy="-0" r="2" fx="3.46945e-18" fy="0" xlink:href="#g1" />
  <linearGradient id="g1" spreadMethod="repeat">
   <stop offset="0" stop-color="#ffcdcd" />
   <stop offset="0.0555556" stop-color="#fdcaca" />
   <stop offset="0.111111" stop-color="#f3c2c2" />
   <stop offset="0.166667" stop-color="#e3b4b4" />
   <stop offset="0.222222" stop-color="#cea2a2" />
   <stop offset="0.277778" stop-color="#b48b8b" />
   <stop offset="0.333333" stop-color="#977373" />
   <stop offset="0.388889" stop-color="#795959" />
   <stop offset="0.444444" stop-color="#5e4242" />
   <stop offset="0.5" stop-color="#4d3333" />
   <stop offset="0.555556" stop-color="#5e4242" />
   <stop offset="0.611111" stop-color="#795959" />
   <stop offset="0.666667" stop-color="#977373" />
   <stop offset="0.722222" stop-color="#b48b8b" />
   <stop offset="0.777778" stop-color="#cea2a2" />
   <stop offset="0.833333" stop-color="#e3b4b4" />
   <stop offset="0.888889" stop-color="#f3c2c2" />
   <stop offset="0.944444" stop-color="#fdcaca" />
   <stop offset="1" stop-color="#ffcdcd" />
  </linearGradient>
 </defs>
</svg>
