<?xml version="1.0" standalone="yes"?>
<!DOCTYPE svg PUBLIC "-//W3C//DTD SVG 1.1//EN"
  "http://www.w3.org/Graphics/SVG/1.1/DTD/svg11.dtd">
<svg version="1.1" xmlns="http://www.w3.org/2000/svg" xmlns:xlink="http://www.w3.org/1999/xlink" width="84.755mm" height="48.5498mm" viewBox="-120.125 -68.8108 240.25 137.622" fill="#4d3333" stroke="#000000" stroke-width="0.5" stroke-miterlimit="10">
 <g transform="scale(1.0, -1.0)">
  <path transform="matrix(0.965926 0.258819 -0.258819 0.965926 0 0)" d="M93.54 -42.52C93.54 -37.83 89.73 -34.02 85.04 -34.02C80.35 -34.02 76.54 -37.83 76.54 -42.52C76.54 -47.21 80.35 -51.02 85.04 -51.02C89.73 -51.02 93.54 -47.21 93.54 -42.52z" />
  <path transform="matrix(1.93185 0.517638 -0.258819 0.965926 0 0)" d="M-42.52 -42.52H42.52V42.52H-42.52z" fill="url(#g2)" stroke="none" />
  <path transform="matrix(0.965926 0.258819 -0.258819 0.965926 0 0)" d="M0.00 0.00L14.17 28.35H-14.17z" fill="#ffcdcd" stroke="none" />
  <path transform="matrix(0.965926 0.258819 -0.258819 0.965926 0 0)" d="M120.26 0.00C120.26 33.19 66.38 60.13 0.00 60.13C-66.38 60.13 -120.26 33.19 -120.26 0.00C-120.26 -33.19 -66.38 -60.13 0.00 -60.13C66.38 -60.13 120.26 -33.19 120.26 0.00z" fill="none" stroke-width="0.15" stroke-dasharray="5.66929 5.66929" />
 </g>
 <defs>
  <radialGradient id="g2" gradientUnits="userSpaceOnUse" cx="0" cy="0" r="120.264" fx="0" fy="0" xlink:href="#g1" />
  <linearGradient id="g1" spreadMethod="repeat">
   <stop offset="0" stop-color="#ffcdcd" />
   <stop offset="0.0555556" stop-color="#fdcaca" />
   <stop offset="0.111111" stop-color="#f3c2c2" />
   <stop offset="0.166667" stop-color="#e3b4b4" />
   <stop offset="0.222222" stop-color="#cea2a2" />
   <stop offset="0.277778" stop-color="#b48b8b" />
   <stop offset="0.333333" stop-color="#977373" />
   <stop offset="0.388889" stop-color="#795959" />
   <stop offset="0.444444" stop-color="#5e4242" />
   <stop offset="0.5" stop-color="#4d3333" />
   <stop offset="0.555556" stop-color="#5e4242" />
   <stop offset="0.611111" stop-color="#795959" />
   <stop offset="0.666667" stop-color="#977373" />
   <stop offset="0.722222" stop-color="#b48b8b" />
   <stop offset="0.777778" stop-color="#cea2a2" />
   <stop offset="0.833333" stop-color="#e3b4b4" />
   <stop offset="0.888889" stop-color="#f3c2c2" />
   <stop offset="0.944444" stop-color="#fdcaca" />
   <stop offset="1" stop-color="#ffcdcd" />
  </linearGradient>
 </defs>
</svg>
