<?xml version="1.0" standalone="yes"?>
<!DOCTYPE svg PUBLIC "-//W3C//DTD SVG 1.1//EN"
  "http://www.w3.org/Graphics/SVG/1.1/DTD/svg11.dtd">
<svg version="1.1" xmlns="http://www.w3.org/2000/svg" xmlns:xlink="http://www.w3.org/1999/xlink" width="87.5462mm" height="44.3373mm" viewBox="-124.081 -39.9241 248.162 125.681" fill="none" stroke="#5f5f5f" stroke-width="0.478125" stroke-miterlimit="10" font-family="Helvetica" font-size="9">
 <g transform="scale(1.0, -1.0)">
  <path d="M113.39 -2.83V2.83C113.39 9.09 108.31 14.17 102.05 14.17H-102.05C-108.31 14.17 -113.39 9.09 -113.39 2.83V-2.83C-113.39 -9.09 -108.31 -14.17 -102.05 -14.17H102.05C108.31 -14.17 113.39 -9.09 113.39 -2.83z" />
  <text transform="matrix(1 0 0 1 -11.5155 -3.096)scale(1.0, -1.0)" xml:space="preserve" opacity="1" fill="#000000" stroke="none"><tspan x="0" y="0">state1</tspan></text>
  <path transform="matrix(1 0 0 1 0 -71.3443)" d="M113.39 -2.83V2.83C113.39 9.09 108.31 14.17 102.05 14.17H-102.05C-108.31 14.17 -113.39 9.09 -113.39 2.83V-2.83C-113.39 -9.09 -108.31 -14.17 -102.05 -14.17H102.05C108.31 -14.17 113.39 -9.09 113.39 -2.83z" />
  <text transform="matrix(1 0 0 1 -12.1815 -74.4403)scale(1.0, -1.0)" xml:space="preserve" opacity="1" fill="#000000" stroke="none"><tspan x="0" y="0">state2</tspan></text>
  <use xlink:href="#g12" />
  <use xlink:href="#g13" />
  <path d="M-78.58 -45.59H-72.92" stroke="#b0b0b0" stroke-width="0.95625" />
  <use transform="matrix(1 0 0 1 -86.8787 -49.2696)" xlink:href="#g9" />
  <use xlink:href="#g14" />
  <path d="M-40.71 -22.92H-35.04" stroke="#b0b0b0" stroke-width="0.95625" />
  <use transform="matrix(1 0 0 1 -58.9666 -26.5924)" xlink:href="#g3" />
  <use xlink:href="#g15" />
  <path d="M-2.83 -45.59H2.83" stroke="#b0b0b0" stroke-width="0.95625" />
  <use transform="matrix(1 0 0 1 -19.9848 -49.2696)" xlink:href="#g4" />
  <use xlink:href="#g16" />
  <path d="M35.04 -22.92H40.71" stroke="#b0b0b0" stroke-width="0.95625" />
  <use transform="matrix(1 0 0 1 16.7833 -26.5924)" xlink:href="#g5" />
  <use xlink:href="#g17" />
  <path d="M72.92 -45.59H78.58" stroke="#b0b0b0" stroke-width="0.95625" />
  <path d="M79.06 -45.59L107.41 -31.42" stroke="#b0b0b0" stroke-width="0.3" />
  <use transform="matrix(1 0 0 1 110.244 -35.0964)" xlink:href="#g6" />
 </g>
 <defs>
  <g id="g12" fill="none" fill-rule="nonzero" fill-opacity="1" stroke="#b0b0b0" stroke-width="0.95625" stroke-linecap="butt" stroke-linejoin="miter" stroke-miterlimit="10" stroke-dasharray="none" stroke-opacity="1">
   <path d="M0.00 37.09C0.00 37.09 0.00 24.38 0.00 17.99" />
   <path d="M2.83 37.09C2.83 38.65 1.56 39.92 0.00 39.92C-1.56 39.92 -2.83 38.65 -2.83 37.09C-2.83 35.52 -1.56 34.25 0.00 34.25C1.56 34.25 2.83 35.52 2.83 37.09z" fill="#b0b0b0" stroke="none" />
   <path d="M0.00 14.41C0.00 14.41 -0.92 16.94 -2.13 20.25H0.00H2.13C0.92 16.94 0.00 14.41 0.00 14.41z" fill="#b0b0b0" stroke="none" />
  </g>
  <g id="g13" fill="none" fill-rule="nonzero" fill-opacity="1" stroke="#b0b0b0" stroke-width="0.95625" stroke-linecap="butt" stroke-linejoin="miter" stroke-miterlimit="10" stroke-dasharray="none" stroke-opacity="1">
   <path d="M-75.75 -14.41C-75.75 -14.41 -75.75 -43.11 -75.75 -53.35" />
   <path d="M-75.75 -56.93C-75.75 -56.93 -76.59 -54.61 -77.88 -51.09H-75.75H-73.62C-74.91 -54.61 -75.75 -56.93 -75.75 -56.93z" fill="#b0b0b0" stroke="none" />
  </g>
  <g id="g9" transform="translate(-72, 76.289)scale(1.0, -1.0)">
<defs>
<g>
<symbol overflow="visible" id="i9-glyph0-0">
<path style="stroke:none;" d=""/>
</symbol>
<symbol overflow="visible" id="i9-glyph0-1">
<path style="stroke:none;" d="M 4.8125 -0.890625 L 4.8125 -1.453125 L 4.5625 -1.453125 L 4.5625 -0.890625 C 4.5625 -0.3125 4.3125 -0.25 4.203125 -0.25 C 3.875 -0.25 3.84375 -0.703125 3.84375 -0.75 L 3.84375 -2.734375 C 3.84375 -3.15625 3.84375 -3.546875 3.484375 -3.921875 C 3.09375 -4.3125 2.59375 -4.46875 2.109375 -4.46875 C 1.296875 -4.46875 0.609375 -4 0.609375 -3.34375 C 0.609375 -3.046875 0.8125 -2.875 1.0625 -2.875 C 1.34375 -2.875 1.53125 -3.078125 1.53125 -3.328125 C 1.53125 -3.453125 1.46875 -3.78125 1.015625 -3.78125 C 1.28125 -4.140625 1.78125 -4.25 2.09375 -4.25 C 2.578125 -4.25 3.15625 -3.859375 3.15625 -2.96875 L 3.15625 -2.609375 C 2.640625 -2.578125 1.9375 -2.546875 1.3125 -2.25 C 0.5625 -1.90625 0.3125 -1.390625 0.3125 -0.953125 C 0.3125 -0.140625 1.28125 0.109375 1.90625 0.109375 C 2.578125 0.109375 3.03125 -0.296875 3.21875 -0.75 C 3.265625 -0.359375 3.53125 0.0625 4 0.0625 C 4.203125 0.0625 4.8125 -0.078125 4.8125 -0.890625 Z M 3.15625 -1.390625 C 3.15625 -0.453125 2.4375 -0.109375 1.984375 -0.109375 C 1.5 -0.109375 1.09375 -0.453125 1.09375 -0.953125 C 1.09375 -1.5 1.5 -2.328125 3.15625 -2.390625 Z M 3.15625 -1.390625 "/>
</symbol>
</g>
<clipPath id="i9-clip1">
  <path d="M 72 72 L 76.980469 72 L 76.980469 76.289062 L 72 76.289062 Z M 72 72 "/>
</clipPath>
</defs>
<g id="i9-surface46">
<g> <!-- clip-path="url(#clip1)" clip-rule="nonzero" -->
<g style="fill:rgb(0%,0%,0%);fill-opacity:1;">
  <use xlink:href="#i9-glyph0-1" x="72" y="76.289"/>
</g>
</g>
</g>
</g>
  <g id="g14" fill="none" fill-rule="nonzero" fill-opacity="1" stroke="#b0b0b0" stroke-width="0.95625" stroke-linecap="butt" stroke-linejoin="miter" stroke-miterlimit="10" stroke-dasharray="none" stroke-opacity="1">
   <path d="M-37.87 -14.41C-37.87 -14.41 -37.87 -43.11 -37.87 -53.35" />
   <path d="M-37.87 -56.93C-37.87 -56.93 -38.72 -54.61 -40.00 -51.09H-37.87H-35.75C-37.03 -54.61 -37.87 -56.93 -37.87 -56.93z" fill="#b0b0b0" stroke="none" />
  </g>
  <g id="g3" transform="translate(-72, 78.863)scale(1.0, -1.0)">
<defs>
<g>
<symbol overflow="visible" id="i3-glyph0-0">
<path style="stroke:none;" d=""/>
</symbol>
<symbol overflow="visible" id="i3-glyph0-1">
<path style="stroke:none;" d="M 4.46875 -1.734375 L 4.234375 -1.734375 C 4.171875 -1.4375 4.109375 -1 4 -0.84375 C 3.9375 -0.765625 3.28125 -0.765625 3.0625 -0.765625 L 1.265625 -0.765625 L 2.328125 -1.796875 C 3.875 -3.171875 4.46875 -3.703125 4.46875 -4.703125 C 4.46875 -5.84375 3.578125 -6.640625 2.359375 -6.640625 C 1.234375 -6.640625 0.5 -5.71875 0.5 -4.828125 C 0.5 -4.28125 1 -4.28125 1.03125 -4.28125 C 1.203125 -4.28125 1.546875 -4.390625 1.546875 -4.8125 C 1.546875 -5.0625 1.359375 -5.328125 1.015625 -5.328125 C 0.9375 -5.328125 0.921875 -5.328125 0.890625 -5.3125 C 1.109375 -5.96875 1.65625 -6.328125 2.234375 -6.328125 C 3.140625 -6.328125 3.5625 -5.515625 3.5625 -4.703125 C 3.5625 -3.90625 3.078125 -3.125 2.515625 -2.5 L 0.609375 -0.375 C 0.5 -0.265625 0.5 -0.234375 0.5 0 L 4.203125 0 Z M 4.46875 -1.734375 "/>
</symbol>
<symbol overflow="visible" id="i3-glyph0-2">
<path style="stroke:none;" d="M 1.90625 -3.765625 C 1.90625 -4.0625 1.671875 -4.296875 1.390625 -4.296875 C 1.09375 -4.296875 0.859375 -4.0625 0.859375 -3.765625 C 0.859375 -3.484375 1.09375 -3.234375 1.390625 -3.234375 C 1.671875 -3.234375 1.90625 -3.484375 1.90625 -3.765625 Z M 1.90625 -0.53125 C 1.90625 -0.8125 1.671875 -1.0625 1.390625 -1.0625 C 1.09375 -1.0625 0.859375 -0.8125 0.859375 -0.53125 C 0.859375 -0.234375 1.09375 0 1.390625 0 C 1.671875 0 1.90625 -0.234375 1.90625 -0.53125 Z M 1.90625 -0.53125 "/>
</symbol>
<symbol overflow="visible" id="i3-glyph0-3">
<path style="stroke:none;" d="M 5.1875 -2.15625 C 5.1875 -3.421875 4.21875 -4.40625 3.078125 -4.40625 C 2.296875 -4.40625 1.875 -3.9375 1.71875 -3.765625 L 1.71875 -6.921875 L 0.28125 -6.8125 L 0.28125 -6.5 C 0.984375 -6.5 1.0625 -6.4375 1.0625 -5.9375 L 1.0625 0 L 1.3125 0 L 1.671875 -0.625 C 1.8125 -0.390625 2.234375 0.109375 2.96875 0.109375 C 4.15625 0.109375 5.1875 -0.875 5.1875 -2.15625 Z M 4.359375 -2.15625 C 4.359375 -1.796875 4.34375 -1.203125 4.0625 -0.75 C 3.84375 -0.4375 3.46875 -0.109375 2.9375 -0.109375 C 2.484375 -0.109375 2.125 -0.34375 1.890625 -0.71875 C 1.75 -0.921875 1.75 -0.953125 1.75 -1.140625 L 1.75 -3.1875 C 1.75 -3.375 1.75 -3.390625 1.859375 -3.546875 C 2.25 -4.109375 2.796875 -4.1875 3.03125 -4.1875 C 3.484375 -4.1875 3.84375 -3.921875 4.078125 -3.546875 C 4.34375 -3.140625 4.359375 -2.578125 4.359375 -2.15625 Z M 4.359375 -2.15625 "/>
</symbol>
</g>
<clipPath id="i3-clip1">
  <path d="M 72 72 L 79 72 L 79 78.863281 L 72 78.863281 Z M 72 72 "/>
</clipPath>
<clipPath id="i3-clip2">
  <path d="M 81 72 L 86.945312 72 L 86.945312 78.863281 L 81 78.863281 Z M 81 72 "/>
</clipPath>
</defs>
<g id="i3-surface16">
<g> <!-- clip-path="url(#clip1)" clip-rule="nonzero" -->
<g style="fill:rgb(0%,0%,0%);fill-opacity:1;">
  <use xlink:href="#i3-glyph0-1" x="72" y="78.863"/>
  <use xlink:href="#i3-glyph0-2" x="76.9813" y="78.863"/>
</g>
</g>
<g> <!-- clip-path="url(#clip2)" clip-rule="nonzero" -->
<g style="fill:rgb(0%,0%,0%);fill-opacity:1;">
  <use xlink:href="#i3-glyph0-3" x="81.412664" y="78.863"/>
</g>
</g>
</g>
</g>
  <g id="g15" fill="none" stroke="#b0b0b0" stroke-width="0.95625" stroke-linecap="butt" stroke-linejoin="miter" stroke-miterlimit="10" stroke-dasharray="none" stroke-opacity="1">
   <path d="M0.00 -14.41C0.00 -14.41 0.00 -51.78 0.00 -56.45" />
   <path d="M2.08 -51.21C0.83 -54.66 0.00 -56.93 0.00 -56.93H0.00C0.00 -56.93 -0.83 -54.66 -2.08 -51.21" stroke-linecap="round" />
  </g>
  <g id="g4" transform="translate(-72, 78.274)scale(1.0, -1.0)">
<defs>
<g>
<symbol overflow="visible" id="i4-glyph0-0">
<path style="stroke:none;" d=""/>
</symbol>
<symbol overflow="visible" id="i4-glyph0-1">
<path style="stroke:none;" d="M 4.5625 -1.703125 C 4.5625 -2.515625 3.921875 -3.296875 2.890625 -3.515625 C 3.703125 -3.78125 4.28125 -4.46875 4.28125 -5.265625 C 4.28125 -6.078125 3.40625 -6.640625 2.453125 -6.640625 C 1.453125 -6.640625 0.6875 -6.046875 0.6875 -5.28125 C 0.6875 -4.953125 0.90625 -4.765625 1.203125 -4.765625 C 1.5 -4.765625 1.703125 -4.984375 1.703125 -5.28125 C 1.703125 -5.765625 1.234375 -5.765625 1.09375 -5.765625 C 1.390625 -6.265625 2.046875 -6.390625 2.40625 -6.390625 C 2.828125 -6.390625 3.375 -6.171875 3.375 -5.28125 C 3.375 -5.15625 3.34375 -4.578125 3.09375 -4.140625 C 2.796875 -3.65625 2.453125 -3.625 2.203125 -3.625 C 2.125 -3.609375 1.890625 -3.59375 1.8125 -3.59375 C 1.734375 -3.578125 1.671875 -3.5625 1.671875 -3.46875 C 1.671875 -3.359375 1.734375 -3.359375 1.90625 -3.359375 L 2.34375 -3.359375 C 3.15625 -3.359375 3.53125 -2.6875 3.53125 -1.703125 C 3.53125 -0.34375 2.84375 -0.0625 2.40625 -0.0625 C 1.96875 -0.0625 1.21875 -0.234375 0.875 -0.8125 C 1.21875 -0.765625 1.53125 -0.984375 1.53125 -1.359375 C 1.53125 -1.71875 1.265625 -1.921875 0.984375 -1.921875 C 0.734375 -1.921875 0.421875 -1.78125 0.421875 -1.34375 C 0.421875 -0.4375 1.34375 0.21875 2.4375 0.21875 C 3.65625 0.21875 4.5625 -0.6875 4.5625 -1.703125 Z M 4.5625 -1.703125 "/>
</symbol>
<symbol overflow="visible" id="i4-glyph0-2">
<path style="stroke:none;" d="M 1.90625 -3.765625 C 1.90625 -4.0625 1.671875 -4.296875 1.390625 -4.296875 C 1.09375 -4.296875 0.859375 -4.0625 0.859375 -3.765625 C 0.859375 -3.484375 1.09375 -3.234375 1.390625 -3.234375 C 1.671875 -3.234375 1.90625 -3.484375 1.90625 -3.765625 Z M 1.90625 -0.53125 C 1.90625 -0.8125 1.671875 -1.0625 1.390625 -1.0625 C 1.09375 -1.0625 0.859375 -0.8125 0.859375 -0.53125 C 0.859375 -0.234375 1.09375 0 1.390625 0 C 1.671875 0 1.90625 -0.234375 1.90625 -0.53125 Z M 1.90625 -0.53125 "/>
</symbol>
<symbol overflow="visible" id="i4-glyph0-3">
<path style="stroke:none;" d="M 4.140625 -1.1875 C 4.140625 -1.28125 4.03125 -1.28125 4 -1.28125 C 3.921875 -1.28125 3.890625 -1.25 3.875 -1.1875 C 3.59375 -0.265625 2.9375 -0.140625 2.578125 -0.140625 C 2.046875 -0.140625 1.171875 -0.5625 1.171875 -2.171875 C 1.171875 -3.796875 1.984375 -4.21875 2.515625 -4.21875 C 2.609375 -4.21875 3.234375 -4.203125 3.578125 -3.84375 C 3.171875 -3.8125 3.109375 -3.515625 3.109375 -3.390625 C 3.109375 -3.125 3.296875 -2.9375 3.5625 -2.9375 C 3.828125 -2.9375 4.03125 -3.09375 4.03125 -3.40625 C 4.03125 -4.078125 3.265625 -4.46875 2.5 -4.46875 C 1.25 -4.46875 0.34375 -3.390625 0.34375 -2.15625 C 0.34375 -0.875 1.328125 0.109375 2.484375 0.109375 C 3.8125 0.109375 4.140625 -1.09375 4.140625 -1.1875 Z M 4.140625 -1.1875 "/>
</symbol>
</g>
<clipPath id="i4-clip1">
  <path d="M 72 72 L 79 72 L 79 78.273438 L 72 78.273438 Z M 72 72 "/>
</clipPath>
<clipPath id="i4-clip2">
  <path d="M 81 73 L 85.835938 73 L 85.835938 78.273438 L 81 78.273438 Z M 81 73 "/>
</clipPath>
</defs>
<g id="i4-surface21">
<g> <!-- clip-path="url(#clip1)" clip-rule="nonzero" -->
<g style="fill:rgb(0%,0%,0%);fill-opacity:1;">
  <use xlink:href="#i4-glyph0-1" x="72" y="78.274"/>
  <use xlink:href="#i4-glyph0-2" x="76.9813" y="78.274"/>
</g>
</g>
<g> <!-- clip-path="url(#clip2)" clip-rule="nonzero" -->
<g style="fill:rgb(0%,0%,0%);fill-opacity:1;">
  <use xlink:href="#i4-glyph0-3" x="81.412664" y="78.274"/>
</g>
</g>
</g>
</g>
  <g id="g16" fill="none" stroke="#b0b0b0" stroke-width="0.95625" stroke-linecap="butt" stroke-linejoin="miter" stroke-miterlimit="10" stroke-dasharray="none" stroke-opacity="1">
   <path d="M37.87 -14.41C37.87 -14.41 37.87 -51.78 37.87 -56.45" />
   <path d="M39.96 -51.21C38.70 -54.66 37.87 -56.93 37.87 -56.93H37.87C37.87 -56.93 37.05 -54.66 35.79 -51.21" stroke-linecap="round" />
  </g>
  <g id="g5" transform="translate(-72, 78.863)scale(1.0, -1.0)">
<defs>
<g>
<symbol overflow="visible" id="i5-glyph0-0">
<path style="stroke:none;" d=""/>
</symbol>
<symbol overflow="visible" id="i5-glyph0-1">
<path style="stroke:none;" d="M 4.6875 -1.640625 L 4.6875 -1.953125 L 3.703125 -1.953125 L 3.703125 -6.484375 C 3.703125 -6.6875 3.703125 -6.75 3.53125 -6.75 C 3.453125 -6.75 3.421875 -6.75 3.34375 -6.625 L 0.28125 -1.953125 L 0.28125 -1.640625 L 2.9375 -1.640625 L 2.9375 -0.78125 C 2.9375 -0.421875 2.90625 -0.3125 2.171875 -0.3125 L 1.96875 -0.3125 L 1.96875 0 C 2.375 -0.03125 2.890625 -0.03125 3.3125 -0.03125 C 3.734375 -0.03125 4.25 -0.03125 4.671875 0 L 4.671875 -0.3125 L 4.453125 -0.3125 C 3.71875 -0.3125 3.703125 -0.421875 3.703125 -0.78125 L 3.703125 -1.640625 Z M 2.984375 -1.953125 L 0.5625 -1.953125 L 2.984375 -5.671875 Z M 2.984375 -1.953125 "/>
</symbol>
<symbol overflow="visible" id="i5-glyph0-2">
<path style="stroke:none;" d="M 1.90625 -3.765625 C 1.90625 -4.0625 1.671875 -4.296875 1.390625 -4.296875 C 1.09375 -4.296875 0.859375 -4.0625 0.859375 -3.765625 C 0.859375 -3.484375 1.09375 -3.234375 1.390625 -3.234375 C 1.671875 -3.234375 1.90625 -3.484375 1.90625 -3.765625 Z M 1.90625 -0.53125 C 1.90625 -0.8125 1.671875 -1.0625 1.390625 -1.0625 C 1.09375 -1.0625 0.859375 -0.8125 0.859375 -0.53125 C 0.859375 -0.234375 1.09375 0 1.390625 0 C 1.671875 0 1.90625 -0.234375 1.90625 -0.53125 Z M 1.90625 -0.53125 "/>
</symbol>
<symbol overflow="visible" id="i5-glyph0-3">
<path style="stroke:none;" d="M 5.25 0 L 5.25 -0.3125 C 4.5625 -0.3125 4.46875 -0.375 4.46875 -0.875 L 4.46875 -6.921875 L 3.046875 -6.8125 L 3.046875 -6.5 C 3.734375 -6.5 3.8125 -6.4375 3.8125 -5.9375 L 3.8125 -3.78125 C 3.53125 -4.140625 3.09375 -4.40625 2.5625 -4.40625 C 1.390625 -4.40625 0.34375 -3.421875 0.34375 -2.140625 C 0.34375 -0.875 1.3125 0.109375 2.453125 0.109375 C 3.09375 0.109375 3.53125 -0.234375 3.78125 -0.546875 L 3.78125 0.109375 Z M 3.78125 -1.171875 C 3.78125 -1 3.78125 -0.984375 3.671875 -0.8125 C 3.375 -0.328125 2.9375 -0.109375 2.5 -0.109375 C 2.046875 -0.109375 1.6875 -0.375 1.453125 -0.75 C 1.203125 -1.15625 1.171875 -1.71875 1.171875 -2.140625 C 1.171875 -2.5 1.1875 -3.09375 1.46875 -3.546875 C 1.6875 -3.859375 2.0625 -4.1875 2.609375 -4.1875 C 2.953125 -4.1875 3.375 -4.03125 3.671875 -3.59375 C 3.78125 -3.421875 3.78125 -3.40625 3.78125 -3.21875 Z M 3.78125 -1.171875 "/>
</symbol>
</g>
<clipPath id="i5-clip1">
  <path d="M 72 72 L 79 72 L 79 78.863281 L 72 78.863281 Z M 72 72 "/>
</clipPath>
<clipPath id="i5-clip2">
  <path d="M 81 72 L 86.945312 72 L 86.945312 78.863281 L 81 78.863281 Z M 81 72 "/>
</clipPath>
</defs>
<g id="i5-surface26">
<g> <!-- clip-path="url(#clip1)" clip-rule="nonzero" -->
<g style="fill:rgb(0%,0%,0%);fill-opacity:1;">
  <use xlink:href="#i5-glyph0-1" x="72" y="78.863"/>
  <use xlink:href="#i5-glyph0-2" x="76.9813" y="78.863"/>
</g>
</g>
<g> <!-- clip-path="url(#clip2)" clip-rule="nonzero" -->
<g style="fill:rgb(0%,0%,0%);fill-opacity:1;">
  <use xlink:href="#i5-glyph0-3" x="81.412664" y="78.863"/>
</g>
</g>
</g>
</g>
  <g id="g17" fill="none" fill-rule="nonzero" fill-opacity="1" stroke="#b0b0b0" stroke-width="0.95625" stroke-linecap="butt" stroke-linejoin="miter" stroke-miterlimit="10" stroke-dasharray="none" stroke-opacity="1">
   <path d="M75.75 -14.41C75.75 -14.41 75.75 -43.11 75.75 -53.35" />
   <path d="M78.58 -14.41C78.58 -14.41 78.58 -16.64 78.58 -20.08H72.92C72.92 -16.64 72.92 -14.41 72.92 -14.41" stroke-linecap="round" />
   <path d="M75.75 -56.93C75.75 -56.93 74.91 -54.61 73.62 -51.09H75.75H77.88C76.59 -54.61 75.75 -56.93 75.75 -56.93z" fill="#b0b0b0" stroke="none" />
  </g>
  <g id="g6" transform="translate(-72, 78.274)scale(1.0, -1.0)">
<defs>
<g>
<symbol overflow="visible" id="i6-glyph0-0">
<path style="stroke:none;" d=""/>
</symbol>
<symbol overflow="visible" id="i6-glyph0-1">
<path style="stroke:none;" d="M 4.46875 -2 C 4.46875 -3.1875 3.65625 -4.1875 2.578125 -4.1875 C 2.109375 -4.1875 1.671875 -4.03125 1.3125 -3.671875 L 1.3125 -5.625 C 1.515625 -5.5625 1.84375 -5.5 2.15625 -5.5 C 3.390625 -5.5 4.09375 -6.40625 4.09375 -6.53125 C 4.09375 -6.59375 4.0625 -6.640625 3.984375 -6.640625 C 3.984375 -6.640625 3.953125 -6.640625 3.90625 -6.609375 C 3.703125 -6.515625 3.21875 -6.3125 2.546875 -6.3125 C 2.15625 -6.3125 1.6875 -6.390625 1.21875 -6.59375 C 1.140625 -6.625 1.109375 -6.625 1.109375 -6.625 C 1 -6.625 1 -6.546875 1 -6.390625 L 1 -3.4375 C 1 -3.265625 1 -3.1875 1.140625 -3.1875 C 1.21875 -3.1875 1.234375 -3.203125 1.28125 -3.265625 C 1.390625 -3.421875 1.75 -3.96875 2.5625 -3.96875 C 3.078125 -3.96875 3.328125 -3.515625 3.40625 -3.328125 C 3.5625 -2.953125 3.59375 -2.578125 3.59375 -2.078125 C 3.59375 -1.71875 3.59375 -1.125 3.34375 -0.703125 C 3.109375 -0.3125 2.734375 -0.0625 2.28125 -0.0625 C 1.5625 -0.0625 0.984375 -0.59375 0.8125 -1.171875 C 0.84375 -1.171875 0.875 -1.15625 0.984375 -1.15625 C 1.3125 -1.15625 1.484375 -1.40625 1.484375 -1.640625 C 1.484375 -1.890625 1.3125 -2.140625 0.984375 -2.140625 C 0.84375 -2.140625 0.5 -2.0625 0.5 -1.609375 C 0.5 -0.75 1.1875 0.21875 2.296875 0.21875 C 3.453125 0.21875 4.46875 -0.734375 4.46875 -2 Z M 4.46875 -2 "/>
</symbol>
<symbol overflow="visible" id="i6-glyph0-2">
<path style="stroke:none;" d="M 1.90625 -3.765625 C 1.90625 -4.0625 1.671875 -4.296875 1.390625 -4.296875 C 1.09375 -4.296875 0.859375 -4.0625 0.859375 -3.765625 C 0.859375 -3.484375 1.09375 -3.234375 1.390625 -3.234375 C 1.671875 -3.234375 1.90625 -3.484375 1.90625 -3.765625 Z M 1.90625 -0.53125 C 1.90625 -0.8125 1.671875 -1.0625 1.390625 -1.0625 C 1.09375 -1.0625 0.859375 -0.8125 0.859375 -0.53125 C 0.859375 -0.234375 1.09375 0 1.390625 0 C 1.671875 0 1.90625 -0.234375 1.90625 -0.53125 Z M 1.90625 -0.53125 "/>
</symbol>
<symbol overflow="visible" id="i6-glyph0-3">
<path style="stroke:none;" d="M 4.140625 -1.1875 C 4.140625 -1.28125 4.0625 -1.3125 4 -1.3125 C 3.921875 -1.3125 3.890625 -1.25 3.875 -1.171875 C 3.53125 -0.140625 2.625 -0.140625 2.53125 -0.140625 C 2.03125 -0.140625 1.640625 -0.4375 1.40625 -0.8125 C 1.109375 -1.28125 1.109375 -1.9375 1.109375 -2.296875 L 3.890625 -2.296875 C 4.109375 -2.296875 4.140625 -2.296875 4.140625 -2.515625 C 4.140625 -3.5 3.59375 -4.46875 2.359375 -4.46875 C 1.203125 -4.46875 0.28125 -3.4375 0.28125 -2.1875 C 0.28125 -0.859375 1.328125 0.109375 2.46875 0.109375 C 3.6875 0.109375 4.140625 -1 4.140625 -1.1875 Z M 3.484375 -2.515625 L 1.109375 -2.515625 C 1.171875 -4 2.015625 -4.25 2.359375 -4.25 C 3.375 -4.25 3.484375 -2.90625 3.484375 -2.515625 Z M 3.484375 -2.515625 "/>
</symbol>
</g>
<clipPath id="i6-clip1">
  <path d="M 72 72 L 79 72 L 79 78.273438 L 72 78.273438 Z M 72 72 "/>
</clipPath>
<clipPath id="i6-clip2">
  <path d="M 81 73 L 85.835938 73 L 85.835938 78.273438 L 81 78.273438 Z M 81 73 "/>
</clipPath>
</defs>
<g id="i6-surface31">
<g> <!-- clip-path="url(#clip1)" clip-rule="nonzero" -->
<g style="fill:rgb(0%,0%,0%);fill-opacity:1;">
  <use xlink:href="#i6-glyph0-1" x="72" y="78.274"/>
  <use xlink:href="#i6-glyph0-2" x="76.9813" y="78.274"/>
</g>
</g>
<g> <!-- clip-path="url(#clip2)" clip-rule="nonzero" -->
<g style="fill:rgb(0%,0%,0%);fill-opacity:1;">
  <use xlink:href="#i6-glyph0-3" x="81.412664" y="78.274"/>
</g>
</g>
</g>
</g>
 </defs>
</svg>
