<?xml version="1.0" standalone="yes"?>
<!DOCTYPE svg PUBLIC "-//W3C//DTD SVG 1.1//EN"
  "http://www.w3.org/Graphics/SVG/1.1/DTD/svg11.dtd">
<svg version="1.1" xmlns="http://www.w3.org/2000/svg" xmlns:xlink="http://www.w3.org/1999/xlink" width="87.4492mm" height="51.2117mm" viewBox="-123.944 -45.5043 247.887 145.167" fill="none" stroke="#5f5f5f" stroke-width="0.3" stroke-miterlimit="10">
 <g transform="scale(1.0, -1.0)">
  <path d="M113.39 -2.83V2.83C113.39 9.09 108.31 14.17 102.05 14.17H-102.05C-108.31 14.17 -113.39 9.09 -113.39 2.83V-2.83C-113.39 -9.09 -108.31 -14.17 -102.05 -14.17H102.05C108.31 -14.17 113.39 -9.09 113.39 -2.83z" />
  <use transform="matrix(1 0 0 1 -13.0346 -3.6762)" xlink:href="#g7" />
  <path transform="matrix(1 0 0 1 0 -85.3394)" d="M113.39 -2.83V2.83C113.39 9.09 108.31 14.17 102.05 14.17H-102.05C-108.31 14.17 -113.39 9.09 -113.39 2.83V-2.83C-113.39 -9.09 -108.31 -14.17 -102.05 -14.17H102.05C108.31 -14.17 113.39 -9.09 113.39 -2.83z" />
  <use transform="matrix(1 0 0 1 -13.0346 -89.0156)" xlink:href="#g8" />
  <use xlink:href="#g9" />
  <use xlink:href="#g10" />
  <path d="M-78.53 -59.68H-72.86" stroke="#b0b0b0" stroke-width="0.8" />
  <use transform="matrix(1 0 0 1 -86.7412 -63.3538)" xlink:href="#g6" />
  <use xlink:href="#g11" />
  <path d="M-40.68 -25.66H-35.01" stroke="#b0b0b0" stroke-width="0.8" />
  <use transform="matrix(1 0 0 1 -58.8588 -29.338)" xlink:href="#g2" />
  <use xlink:href="#g12" />
  <path d="M-2.83 -59.68H2.83" stroke="#b0b0b0" stroke-width="0.8" />
  <use transform="matrix(1 0 0 1 -19.9067 -63.3538)" xlink:href="#g3" />
  <use xlink:href="#g13" />
  <path d="M35.01 -25.66H40.68" stroke="#b0b0b0" stroke-width="0.8" />
  <use transform="matrix(1 0 0 1 16.8318 -29.338)" xlink:href="#g4" />
  <use xlink:href="#g14" />
  <path d="M72.86 -59.68H78.53" stroke="#b0b0b0" stroke-width="0.8" />
  <path d="M78.93 -59.68L107.27 -45.50" stroke="#b0b0b0" />
  <use transform="matrix(1 0 0 1 110.106 -49.1805)" xlink:href="#g5" />
 </g>
 <defs>
  <g id="g7" transform="translate(-72, 78.274)scale(1.0, -1.0)">
<defs>
<g>
<symbol overflow="visible" id="i7-glyph0-0">
<path style="stroke:none;" d=""/>
</symbol>
<symbol overflow="visible" id="i7-glyph0-1">
<path style="stroke:none;" d="M 3.59375 -1.28125 C 3.59375 -1.796875 3.296875 -2.109375 3.171875 -2.21875 C 2.84375 -2.546875 2.453125 -2.625 2.03125 -2.703125 C 1.46875 -2.8125 0.8125 -2.9375 0.8125 -3.515625 C 0.8125 -3.875 1.0625 -4.28125 1.921875 -4.28125 C 3.015625 -4.28125 3.078125 -3.375 3.09375 -3.078125 C 3.09375 -2.984375 3.203125 -2.984375 3.203125 -2.984375 C 3.34375 -2.984375 3.34375 -3.03125 3.34375 -3.21875 L 3.34375 -4.234375 C 3.34375 -4.390625 3.34375 -4.46875 3.234375 -4.46875 C 3.1875 -4.46875 3.15625 -4.46875 3.03125 -4.34375 C 3 -4.3125 2.90625 -4.21875 2.859375 -4.1875 C 2.484375 -4.46875 2.078125 -4.46875 1.921875 -4.46875 C 0.703125 -4.46875 0.328125 -3.796875 0.328125 -3.234375 C 0.328125 -2.890625 0.484375 -2.609375 0.75 -2.390625 C 1.078125 -2.140625 1.359375 -2.078125 2.078125 -1.9375 C 2.296875 -1.890625 3.109375 -1.734375 3.109375 -1.015625 C 3.109375 -0.515625 2.765625 -0.109375 1.984375 -0.109375 C 1.140625 -0.109375 0.78125 -0.671875 0.59375 -1.53125 C 0.5625 -1.65625 0.5625 -1.6875 0.453125 -1.6875 C 0.328125 -1.6875 0.328125 -1.625 0.328125 -1.453125 L 0.328125 -0.125 C 0.328125 0.046875 0.328125 0.109375 0.4375 0.109375 C 0.484375 0.109375 0.5 0.09375 0.6875 -0.09375 C 0.703125 -0.109375 0.703125 -0.125 0.890625 -0.3125 C 1.328125 0.09375 1.78125 0.109375 1.984375 0.109375 C 3.125 0.109375 3.59375 -0.5625 3.59375 -1.28125 Z M 3.59375 -1.28125 "/>
</symbol>
<symbol overflow="visible" id="i7-glyph0-2">
<path style="stroke:none;" d="M 3.3125 -1.234375 L 3.3125 -1.796875 L 3.0625 -1.796875 L 3.0625 -1.25 C 3.0625 -0.515625 2.765625 -0.140625 2.390625 -0.140625 C 1.71875 -0.140625 1.71875 -1.046875 1.71875 -1.21875 L 1.71875 -3.984375 L 3.15625 -3.984375 L 3.15625 -4.296875 L 1.71875 -4.296875 L 1.71875 -6.125 L 1.46875 -6.125 C 1.46875 -5.3125 1.171875 -4.25 0.1875 -4.203125 L 0.1875 -3.984375 L 1.03125 -3.984375 L 1.03125 -1.234375 C 1.03125 -0.015625 1.96875 0.109375 2.328125 0.109375 C 3.03125 0.109375 3.3125 -0.59375 3.3125 -1.234375 Z M 3.3125 -1.234375 "/>
</symbol>
<symbol overflow="visible" id="i7-glyph0-3">
<path style="stroke:none;" d="M 4.8125 -0.890625 L 4.8125 -1.453125 L 4.5625 -1.453125 L 4.5625 -0.890625 C 4.5625 -0.3125 4.3125 -0.25 4.203125 -0.25 C 3.875 -0.25 3.84375 -0.703125 3.84375 -0.75 L 3.84375 -2.734375 C 3.84375 -3.15625 3.84375 -3.546875 3.484375 -3.921875 C 3.09375 -4.3125 2.59375 -4.46875 2.109375 -4.46875 C 1.296875 -4.46875 0.609375 -4 0.609375 -3.34375 C 0.609375 -3.046875 0.8125 -2.875 1.0625 -2.875 C 1.34375 -2.875 1.53125 -3.078125 1.53125 -3.328125 C 1.53125 -3.453125 1.46875 -3.78125 1.015625 -3.78125 C 1.28125 -4.140625 1.78125 -4.25 2.09375 -4.25 C 2.578125 -4.25 3.15625 -3.859375 3.15625 -2.96875 L 3.15625 -2.609375 C 2.640625 -2.578125 1.9375 -2.546875 1.3125 -2.25 C 0.5625 -1.90625 0.3125 -1.390625 0.3125 -0.953125 C 0.3125 -0.140625 1.28125 0.109375 1.90625 0.109375 C 2.578125 0.109375 3.03125 -0.296875 3.21875 -0.75 C 3.265625 -0.359375 3.53125 0.0625 4 0.0625 C 4.203125 0.0625 4.8125 -0.078125 4.8125 -0.890625 Z M 3.15625 -1.390625 C 3.15625 -0.453125 2.4375 -0.109375 1.984375 -0.109375 C 1.5 -0.109375 1.09375 -0.453125 1.09375 -0.953125 C 1.09375 -1.5 1.5 -2.328125 3.15625 -2.390625 Z M 3.15625 -1.390625 "/>
</symbol>
<symbol overflow="visible" id="i7-glyph0-4">
<path style="stroke:none;" d="M 4.140625 -1.1875 C 4.140625 -1.28125 4.0625 -1.3125 4 -1.3125 C 3.921875 -1.3125 3.890625 -1.25 3.875 -1.171875 C 3.53125 -0.140625 2.625 -0.140625 2.53125 -0.140625 C 2.03125 -0.140625 1.640625 -0.4375 1.40625 -0.8125 C 1.109375 -1.28125 1.109375 -1.9375 1.109375 -2.296875 L 3.890625 -2.296875 C 4.109375 -2.296875 4.140625 -2.296875 4.140625 -2.515625 C 4.140625 -3.5 3.59375 -4.46875 2.359375 -4.46875 C 1.203125 -4.46875 0.28125 -3.4375 0.28125 -2.1875 C 0.28125 -0.859375 1.328125 0.109375 2.46875 0.109375 C 3.6875 0.109375 4.140625 -1 4.140625 -1.1875 Z M 3.484375 -2.515625 L 1.109375 -2.515625 C 1.171875 -4 2.015625 -4.25 2.359375 -4.25 C 3.375 -4.25 3.484375 -2.90625 3.484375 -2.515625 Z M 3.484375 -2.515625 "/>
</symbol>
<symbol overflow="visible" id="i7-glyph0-5">
<path style="stroke:none;" d="M 4.171875 0 L 4.171875 -0.3125 L 3.859375 -0.3125 C 2.953125 -0.3125 2.9375 -0.421875 2.9375 -0.78125 L 2.9375 -6.375 C 2.9375 -6.625 2.9375 -6.640625 2.703125 -6.640625 C 2.078125 -6 1.203125 -6 0.890625 -6 L 0.890625 -5.6875 C 1.09375 -5.6875 1.671875 -5.6875 2.1875 -5.953125 L 2.1875 -0.78125 C 2.1875 -0.421875 2.15625 -0.3125 1.265625 -0.3125 L 0.953125 -0.3125 L 0.953125 0 C 1.296875 -0.03125 2.15625 -0.03125 2.5625 -0.03125 C 2.953125 -0.03125 3.828125 -0.03125 4.171875 0 Z M 4.171875 0 "/>
</symbol>
</g>
<clipPath id="i7-clip1">
  <path d="M 72 72 L 98 72 L 98 78.273438 L 72 78.273438 Z M 72 72 "/>
</clipPath>
</defs>
<g id="i7-surface36">
<g> <!-- clip-path="url(#clip1)" clip-rule="nonzero" -->
<g style="fill:rgb(0%,0%,0%);fill-opacity:1;">
  <use xlink:href="#i7-glyph0-1" x="72" y="78.274"/>
  <use xlink:href="#i7-glyph0-2" x="75.930246" y="78.274"/>
  <use xlink:href="#i7-glyph0-3" x="79.804701" y="78.274"/>
  <use xlink:href="#i7-glyph0-2" x="84.786001" y="78.274"/>
  <use xlink:href="#i7-glyph0-4" x="88.660456" y="78.274"/>
  <use xlink:href="#i7-glyph0-5" x="93.088832" y="78.274"/>
</g>
</g>
</g>
</g>
  <g id="g8" transform="translate(-72, 78.274)scale(1.0, -1.0)">
<defs>
<g>
<symbol overflow="visible" id="i8-glyph0-0">
<path style="stroke:none;" d=""/>
</symbol>
<symbol overflow="visible" id="i8-glyph0-1">
<path style="stroke:none;" d="M 3.59375 -1.28125 C 3.59375 -1.796875 3.296875 -2.109375 3.171875 -2.21875 C 2.84375 -2.546875 2.453125 -2.625 2.03125 -2.703125 C 1.46875 -2.8125 0.8125 -2.9375 0.8125 -3.515625 C 0.8125 -3.875 1.0625 -4.28125 1.921875 -4.28125 C 3.015625 -4.28125 3.078125 -3.375 3.09375 -3.078125 C 3.09375 -2.984375 3.203125 -2.984375 3.203125 -2.984375 C 3.34375 -2.984375 3.34375 -3.03125 3.34375 -3.21875 L 3.34375 -4.234375 C 3.34375 -4.390625 3.34375 -4.46875 3.234375 -4.46875 C 3.1875 -4.46875 3.15625 -4.46875 3.03125 -4.34375 C 3 -4.3125 2.90625 -4.21875 2.859375 -4.1875 C 2.484375 -4.46875 2.078125 -4.46875 1.921875 -4.46875 C 0.703125 -4.46875 0.328125 -3.796875 0.328125 -3.234375 C 0.328125 -2.890625 0.484375 -2.609375 0.75 -2.390625 C 1.078125 -2.140625 1.359375 -2.078125 2.078125 -1.9375 C 2.296875 -1.890625 3.109375 -1.734375 3.109375 -1.015625 C 3.109375 -0.515625 2.765625 -0.109375 1.984375 -0.109375 C 1.140625 -0.109375 0.78125 -0.671875 0.59375 -1.53125 C 0.5625 -1.65625 0.5625 -1.6875 0.453125 -1.6875 C 0.328125 -1.6875 0.328125 -1.625 0.328125 -1.453125 L 0.328125 -0.125 C 0.328125 0.046875 0.328125 0.109375 0.4375 0.109375 C 0.484375 0.109375 0.5 0.09375 0.6875 -0.09375 C 0.703125 -0.109375 0.703125 -0.125 0.890625 -0.3125 C 1.328125 0.09375 1.78125 0.109375 1.984375 0.109375 C 3.125 0.109375 3.59375 -0.5625 3.59375 -1.28125 Z M 3.59375 -1.28125 "/>
</symbol>
<symbol overflow="visible" id="i8-glyph0-2">
<path style="stroke:none;" d="M 3.3125 -1.234375 L 3.3125 -1.796875 L 3.0625 -1.796875 L 3.0625 -1.25 C 3.0625 -0.515625 2.765625 -0.140625 2.390625 -0.140625 C 1.71875 -0.140625 1.71875 -1.046875 1.71875 -1.21875 L 1.71875 -3.984375 L 3.15625 -3.984375 L 3.15625 -4.296875 L 1.71875 -4.296875 L 1.71875 -6.125 L 1.46875 -6.125 C 1.46875 -5.3125 1.171875 -4.25 0.1875 -4.203125 L 0.1875 -3.984375 L 1.03125 -3.984375 L 1.03125 -1.234375 C 1.03125 -0.015625 1.96875 0.109375 2.328125 0.109375 C 3.03125 0.109375 3.3125 -0.59375 3.3125 -1.234375 Z M 3.3125 -1.234375 "/>
</symbol>
<symbol overflow="visible" id="i8-glyph0-3">
<path style="stroke:none;" d="M 4.8125 -0.890625 L 4.8125 -1.453125 L 4.5625 -1.453125 L 4.5625 -0.890625 C 4.5625 -0.3125 4.3125 -0.25 4.203125 -0.25 C 3.875 -0.25 3.84375 -0.703125 3.84375 -0.75 L 3.84375 -2.734375 C 3.84375 -3.15625 3.84375 -3.546875 3.484375 -3.921875 C 3.09375 -4.3125 2.59375 -4.46875 2.109375 -4.46875 C 1.296875 -4.46875 0.609375 -4 0.609375 -3.34375 C 0.609375 -3.046875 0.8125 -2.875 1.0625 -2.875 C 1.34375 -2.875 1.53125 -3.078125 1.53125 -3.328125 C 1.53125 -3.453125 1.46875 -3.78125 1.015625 -3.78125 C 1.28125 -4.140625 1.78125 -4.25 2.09375 -4.25 C 2.578125 -4.25 3.15625 -3.859375 3.15625 -2.96875 L 3.15625 -2.609375 C 2.640625 -2.578125 1.9375 -2.546875 1.3125 -2.25 C 0.5625 -1.90625 0.3125 -1.390625 0.3125 -0.953125 C 0.3125 -0.140625 1.28125 0.109375 1.90625 0.109375 C 2.578125 0.109375 3.03125 -0.296875 3.21875 -0.75 C 3.265625 -0.359375 3.53125 0.0625 4 0.0625 C 4.203125 0.0625 4.8125 -0.078125 4.8125 -0.890625 Z M 3.15625 -1.390625 C 3.15625 -0.453125 2.4375 -0.109375 1.984375 -0.109375 C 1.5 -0.109375 1.09375 -0.453125 1.09375 -0.953125 C 1.09375 -1.5 1.5 -2.328125 3.15625 -2.390625 Z M 3.15625 -1.390625 "/>
</symbol>
<symbol overflow="visible" id="i8-glyph0-4">
<path style="stroke:none;" d="M 4.140625 -1.1875 C 4.140625 -1.28125 4.0625 -1.3125 4 -1.3125 C 3.921875 -1.3125 3.890625 -1.25 3.875 -1.171875 C 3.53125 -0.140625 2.625 -0.140625 2.53125 -0.140625 C 2.03125 -0.140625 1.640625 -0.4375 1.40625 -0.8125 C 1.109375 -1.28125 1.109375 -1.9375 1.109375 -2.296875 L 3.890625 -2.296875 C 4.109375 -2.296875 4.140625 -2.296875 4.140625 -2.515625 C 4.140625 -3.5 3.59375 -4.46875 2.359375 -4.46875 C 1.203125 -4.46875 0.28125 -3.4375 0.28125 -2.1875 C 0.28125 -0.859375 1.328125 0.109375 2.46875 0.109375 C 3.6875 0.109375 4.140625 -1 4.140625 -1.1875 Z M 3.484375 -2.515625 L 1.109375 -2.515625 C 1.171875 -4 2.015625 -4.25 2.359375 -4.25 C 3.375 -4.25 3.484375 -2.90625 3.484375 -2.515625 Z M 3.484375 -2.515625 "/>
</symbol>
<symbol overflow="visible" id="i8-glyph0-5">
<path style="stroke:none;" d="M 4.46875 -1.734375 L 4.234375 -1.734375 C 4.171875 -1.4375 4.109375 -1 4 -0.84375 C 3.9375 -0.765625 3.28125 -0.765625 3.0625 -0.765625 L 1.265625 -0.765625 L 2.328125 -1.796875 C 3.875 -3.171875 4.46875 -3.703125 4.46875 -4.703125 C 4.46875 -5.84375 3.578125 -6.640625 2.359375 -6.640625 C 1.234375 -6.640625 0.5 -5.71875 0.5 -4.828125 C 0.5 -4.28125 1 -4.28125 1.03125 -4.28125 C 1.203125 -4.28125 1.546875 -4.390625 1.546875 -4.8125 C 1.546875 -5.0625 1.359375 -5.328125 1.015625 -5.328125 C 0.9375 -5.328125 0.921875 -5.328125 0.890625 -5.3125 C 1.109375 -5.96875 1.65625 -6.328125 2.234375 -6.328125 C 3.140625 -6.328125 3.5625 -5.515625 3.5625 -4.703125 C 3.5625 -3.90625 3.078125 -3.125 2.515625 -2.5 L 0.609375 -0.375 C 0.5 -0.265625 0.5 -0.234375 0.5 0 L 4.203125 0 Z M 4.46875 -1.734375 "/>
</symbol>
</g>
<clipPath id="i8-clip1">
  <path d="M 72 72 L 98 72 L 98 78.273438 L 72 78.273438 Z M 72 72 "/>
</clipPath>
</defs>
<g id="i8-surface41">
<g> <!-- clip-path="url(#clip1)" clip-rule="nonzero" -->
<g style="fill:rgb(0%,0%,0%);fill-opacity:1;">
  <use xlink:href="#i8-glyph0-1" x="72" y="78.274"/>
  <use xlink:href="#i8-glyph0-2" x="75.930246" y="78.274"/>
  <use xlink:href="#i8-glyph0-3" x="79.804701" y="78.274"/>
  <use xlink:href="#i8-glyph0-2" x="84.786001" y="78.274"/>
  <use xlink:href="#i8-glyph0-4" x="88.660456" y="78.274"/>
  <use xlink:href="#i8-glyph0-5" x="93.088832" y="78.274"/>
</g>
</g>
</g>
</g>
  <g id="g9" fill="none" fill-rule="nonzero" fill-opacity="1" stroke="#b0b0b0" stroke-width="0.8" stroke-linecap="butt" stroke-linejoin="miter" stroke-miterlimit="10" stroke-dasharray="none" stroke-opacity="1">
   <path d="M0.00 42.67C0.00 42.67 0.00 26.74 0.00 18.77" />
   <path d="M2.83 42.67C2.83 44.23 1.56 45.50 0.00 45.50C-1.56 45.50 -2.83 44.23 -2.83 42.67C-2.83 41.11 -1.56 39.84 0.00 39.84C1.56 39.84 2.83 41.11 2.83 42.67z" fill="#5f5f5f" stroke="none" />
   <path d="M0.00 14.32C0.00 14.32 -1.24 17.73 -2.83 22.11H0.00H2.83C1.24 17.73 0.00 14.32 0.00 14.32z" fill="#b0b0b0" stroke="none" />
  </g>
  <g id="g10" fill="none" fill-rule="nonzero" fill-opacity="1" stroke="#b0b0b0" stroke-width="0.8" stroke-linecap="butt" stroke-linejoin="miter" stroke-miterlimit="10" stroke-dasharray="none" stroke-opacity="1">
   <path d="M-75.69 -14.32C-75.69 -14.32 -75.69 -53.21 -75.69 -66.57" />
   <path d="M-75.69 -71.02C-75.69 -71.02 -76.82 -67.92 -78.53 -63.23H-75.69H-72.86C-74.56 -67.92 -75.69 -71.02 -75.69 -71.02z" fill="#b0b0b0" stroke="none" />
  </g>
  <g id="g6" transform="translate(-72, 76.289)scale(1.0, -1.0)">
<defs>
<g>
<symbol overflow="visible" id="i6-glyph0-0">
<path style="stroke:none;" d=""/>
</symbol>
<symbol overflow="visible" id="i6-glyph0-1">
<path style="stroke:none;" d="M 4.8125 -0.890625 L 4.8125 -1.453125 L 4.5625 -1.453125 L 4.5625 -0.890625 C 4.5625 -0.3125 4.3125 -0.25 4.203125 -0.25 C 3.875 -0.25 3.84375 -0.703125 3.84375 -0.75 L 3.84375 -2.734375 C 3.84375 -3.15625 3.84375 -3.546875 3.484375 -3.921875 C 3.09375 -4.3125 2.59375 -4.46875 2.109375 -4.46875 C 1.296875 -4.46875 0.609375 -4 0.609375 -3.34375 C 0.609375 -3.046875 0.8125 -2.875 1.0625 -2.875 C 1.34375 -2.875 1.53125 -3.078125 1.53125 -3.328125 C 1.53125 -3.453125 1.46875 -3.78125 1.015625 -3.78125 C 1.28125 -4.140625 1.78125 -4.25 2.09375 -4.25 C 2.578125 -4.25 3.15625 -3.859375 3.15625 -2.96875 L 3.15625 -2.609375 C 2.640625 -2.578125 1.9375 -2.546875 1.3125 -2.25 C 0.5625 -1.90625 0.3125 -1.390625 0.3125 -0.953125 C 0.3125 -0.140625 1.28125 0.109375 1.90625 0.109375 C 2.578125 0.109375 3.03125 -0.296875 3.21875 -0.75 C 3.265625 -0.359375 3.53125 0.0625 4 0.0625 C 4.203125 0.0625 4.8125 -0.078125 4.8125 -0.890625 Z M 3.15625 -1.390625 C 3.15625 -0.453125 2.4375 -0.109375 1.984375 -0.109375 C 1.5 -0.109375 1.09375 -0.453125 1.09375 -0.953125 C 1.09375 -1.5 1.5 -2.328125 3.15625 -2.390625 Z M 3.15625 -1.390625 "/>
</symbol>
</g>
<clipPath id="i6-clip1">
  <path d="M 72 72 L 76.980469 72 L 76.980469 76.289062 L 72 76.289062 Z M 72 72 "/>
</clipPath>
</defs>
<g id="i6-surface31">
<g> <!-- clip-path="url(#clip1)" clip-rule="nonzero" -->
<g style="fill:rgb(0%,0%,0%);fill-opacity:1;">
  <use xlink:href="#i6-glyph0-1" x="72" y="76.289"/>
</g>
</g>
</g>
</g>
  <g id="g11" fill="none" fill-rule="nonzero" fill-opacity="1" stroke="#b0b0b0" stroke-width="0.8" stroke-linecap="butt" stroke-linejoin="miter" stroke-miterlimit="10" stroke-dasharray="none" stroke-opacity="1">
   <path d="M-37.85 -14.32C-37.85 -14.32 -37.85 -53.21 -37.85 -66.57" />
   <path d="M-37.85 -71.02C-37.85 -71.02 -38.97 -67.92 -40.68 -63.23H-37.85H-35.01C-36.72 -67.92 -37.85 -71.02 -37.85 -71.02z" fill="#b0b0b0" stroke="none" />
  </g>
  <g id="g2" transform="translate(-72, 78.863)scale(1.0, -1.0)">
<defs>
<g>
<symbol overflow="visible" id="i2-glyph0-0">
<path style="stroke:none;" d=""/>
</symbol>
<symbol overflow="visible" id="i2-glyph0-1">
<path style="stroke:none;" d="M 4.46875 -1.734375 L 4.234375 -1.734375 C 4.171875 -1.4375 4.109375 -1 4 -0.84375 C 3.9375 -0.765625 3.28125 -0.765625 3.0625 -0.765625 L 1.265625 -0.765625 L 2.328125 -1.796875 C 3.875 -3.171875 4.46875 -3.703125 4.46875 -4.703125 C 4.46875 -5.84375 3.578125 -6.640625 2.359375 -6.640625 C 1.234375 -6.640625 0.5 -5.71875 0.5 -4.828125 C 0.5 -4.28125 1 -4.28125 1.03125 -4.28125 C 1.203125 -4.28125 1.546875 -4.390625 1.546875 -4.8125 C 1.546875 -5.0625 1.359375 -5.328125 1.015625 -5.328125 C 0.9375 -5.328125 0.921875 -5.328125 0.890625 -5.3125 C 1.109375 -5.96875 1.65625 -6.328125 2.234375 -6.328125 C 3.140625 -6.328125 3.5625 -5.515625 3.5625 -4.703125 C 3.5625 -3.90625 3.078125 -3.125 2.515625 -2.5 L 0.609375 -0.375 C 0.5 -0.265625 0.5 -0.234375 0.5 0 L 4.203125 0 Z M 4.46875 -1.734375 "/>
</symbol>
<symbol overflow="visible" id="i2-glyph0-2">
<path style="stroke:none;" d="M 1.90625 -3.765625 C 1.90625 -4.0625 1.671875 -4.296875 1.390625 -4.296875 C 1.09375 -4.296875 0.859375 -4.0625 0.859375 -3.765625 C 0.859375 -3.484375 1.09375 -3.234375 1.390625 -3.234375 C 1.671875 -3.234375 1.90625 -3.484375 1.90625 -3.765625 Z M 1.90625 -0.53125 C 1.90625 -0.8125 1.671875 -1.0625 1.390625 -1.0625 C 1.09375 -1.0625 0.859375 -0.8125 0.859375 -0.53125 C 0.859375 -0.234375 1.09375 0 1.390625 0 C 1.671875 0 1.90625 -0.234375 1.90625 -0.53125 Z M 1.90625 -0.53125 "/>
</symbol>
<symbol overflow="visible" id="i2-glyph0-3">
<path style="stroke:none;" d="M 5.1875 -2.15625 C 5.1875 -3.421875 4.21875 -4.40625 3.078125 -4.40625 C 2.296875 -4.40625 1.875 -3.9375 1.71875 -3.765625 L 1.71875 -6.921875 L 0.28125 -6.8125 L 0.28125 -6.5 C 0.984375 -6.5 1.0625 -6.4375 1.0625 -5.9375 L 1.0625 0 L 1.3125 0 L 1.671875 -0.625 C 1.8125 -0.390625 2.234375 0.109375 2.96875 0.109375 C 4.15625 0.109375 5.1875 -0.875 5.1875 -2.15625 Z M 4.359375 -2.15625 C 4.359375 -1.796875 4.34375 -1.203125 4.0625 -0.75 C 3.84375 -0.4375 3.46875 -0.109375 2.9375 -0.109375 C 2.484375 -0.109375 2.125 -0.34375 1.890625 -0.71875 C 1.75 -0.921875 1.75 -0.953125 1.75 -1.140625 L 1.75 -3.1875 C 1.75 -3.375 1.75 -3.390625 1.859375 -3.546875 C 2.25 -4.109375 2.796875 -4.1875 3.03125 -4.1875 C 3.484375 -4.1875 3.84375 -3.921875 4.078125 -3.546875 C 4.34375 -3.140625 4.359375 -2.578125 4.359375 -2.15625 Z M 4.359375 -2.15625 "/>
</symbol>
</g>
<clipPath id="i2-clip1">
  <path d="M 72 72 L 79 72 L 79 78.863281 L 72 78.863281 Z M 72 72 "/>
</clipPath>
<clipPath id="i2-clip2">
  <path d="M 81 72 L 86.945312 72 L 86.945312 78.863281 L 81 78.863281 Z M 81 72 "/>
</clipPath>
</defs>
<g id="i2-surface11">
<g> <!-- clip-path="url(#clip1)" clip-rule="nonzero" -->
<g style="fill:rgb(0%,0%,0%);fill-opacity:1;">
  <use xlink:href="#i2-glyph0-1" x="72" y="78.863"/>
  <use xlink:href="#i2-glyph0-2" x="76.9813" y="78.863"/>
</g>
</g>
<g> <!-- clip-path="url(#clip2)" clip-rule="nonzero" -->
<g style="fill:rgb(0%,0%,0%);fill-opacity:1;">
  <use xlink:href="#i2-glyph0-3" x="81.412664" y="78.863"/>
</g>
</g>
</g>
</g>
  <g id="g12" fill="none" stroke="#b0b0b0" stroke-width="0.8" stroke-linecap="butt" stroke-linejoin="miter" stroke-miterlimit="10" stroke-dasharray="none" stroke-opacity="1">
   <path d="M0.00 -14.32C0.00 -14.32 0.00 -65.56 0.00 -70.62" />
   <path d="M2.78 -63.39C1.10 -67.99 0.00 -71.02 0.00 -71.02H0.00C0.00 -71.02 -1.10 -67.99 -2.78 -63.39" stroke-linecap="round" />
  </g>
  <g id="g3" transform="translate(-72, 78.274)scale(1.0, -1.0)">
<defs>
<g>
<symbol overflow="visible" id="i3-glyph0-0">
<path style="stroke:none;" d=""/>
</symbol>
<symbol overflow="visible" id="i3-glyph0-1">
<path style="stroke:none;" d="M 4.5625 -1.703125 C 4.5625 -2.515625 3.921875 -3.296875 2.890625 -3.515625 C 3.703125 -3.78125 4.28125 -4.46875 4.28125 -5.265625 C 4.28125 -6.078125 3.40625 -6.640625 2.453125 -6.640625 C 1.453125 -6.640625 0.6875 -6.046875 0.6875 -5.28125 C 0.6875 -4.953125 0.90625 -4.765625 1.203125 -4.765625 C 1.5 -4.765625 1.703125 -4.984375 1.703125 -5.28125 C 1.703125 -5.765625 1.234375 -5.765625 1.09375 -5.765625 C 1.390625 -6.265625 2.046875 -6.390625 2.40625 -6.390625 C 2.828125 -6.390625 3.375 -6.171875 3.375 -5.28125 C 3.375 -5.15625 3.34375 -4.578125 3.09375 -4.140625 C 2.796875 -3.65625 2.453125 -3.625 2.203125 -3.625 C 2.125 -3.609375 1.890625 -3.59375 1.8125 -3.59375 C 1.734375 -3.578125 1.671875 -3.5625 1.671875 -3.46875 C 1.671875 -3.359375 1.734375 -3.359375 1.90625 -3.359375 L 2.34375 -3.359375 C 3.15625 -3.359375 3.53125 -2.6875 3.53125 -1.703125 C 3.53125 -0.34375 2.84375 -0.0625 2.40625 -0.0625 C 1.96875 -0.0625 1.21875 -0.234375 0.875 -0.8125 C 1.21875 -0.765625 1.53125 -0.984375 1.53125 -1.359375 C 1.53125 -1.71875 1.265625 -1.921875 0.984375 -1.921875 C 0.734375 -1.921875 0.421875 -1.78125 0.421875 -1.34375 C 0.421875 -0.4375 1.34375 0.21875 2.4375 0.21875 C 3.65625 0.21875 4.5625 -0.6875 4.5625 -1.703125 Z M 4.5625 -1.703125 "/>
</symbol>
<symbol overflow="visible" id="i3-glyph0-2">
<path style="stroke:none;" d="M 1.90625 -3.765625 C 1.90625 -4.0625 1.671875 -4.296875 1.390625 -4.296875 C 1.09375 -4.296875 0.859375 -4.0625 0.859375 -3.765625 C 0.859375 -3.484375 1.09375 -3.234375 1.390625 -3.234375 C 1.671875 -3.234375 1.90625 -3.484375 1.90625 -3.765625 Z M 1.90625 -0.53125 C 1.90625 -0.8125 1.671875 -1.0625 1.390625 -1.0625 C 1.09375 -1.0625 0.859375 -0.8125 0.859375 -0.53125 C 0.859375 -0.234375 1.09375 0 1.390625 0 C 1.671875 0 1.90625 -0.234375 1.90625 -0.53125 Z M 1.90625 -0.53125 "/>
</symbol>
<symbol overflow="visible" id="i3-glyph0-3">
<path style="stroke:none;" d="M 4.140625 -1.1875 C 4.140625 -1.28125 4.03125 -1.28125 4 -1.28125 C 3.921875 -1.28125 3.890625 -1.25 3.875 -1.1875 C 3.59375 -0.265625 2.9375 -0.140625 2.578125 -0.140625 C 2.046875 -0.140625 1.171875 -0.5625 1.171875 -2.171875 C 1.171875 -3.796875 1.984375 -4.21875 2.515625 -4.21875 C 2.609375 -4.21875 3.234375 -4.203125 3.578125 -3.84375 C 3.171875 -3.8125 3.109375 -3.515625 3.109375 -3.390625 C 3.109375 -3.125 3.296875 -2.9375 3.5625 -2.9375 C 3.828125 -2.9375 4.03125 -3.09375 4.03125 -3.40625 C 4.03125 -4.078125 3.265625 -4.46875 2.5 -4.46875 C 1.25 -4.46875 0.34375 -3.390625 0.34375 -2.15625 C 0.34375 -0.875 1.328125 0.109375 2.484375 0.109375 C 3.8125 0.109375 4.140625 -1.09375 4.140625 -1.1875 Z M 4.140625 -1.1875 "/>
</symbol>
</g>
<clipPath id="i3-clip1">
  <path d="M 72 72 L 79 72 L 79 78.273438 L 72 78.273438 Z M 72 72 "/>
</clipPath>
<clipPath id="i3-clip2">
  <path d="M 81 73 L 85.835938 73 L 85.835938 78.273438 L 81 78.273438 Z M 81 73 "/>
</clipPath>
</defs>
<g id="i3-surface16">
<g> <!-- clip-path="url(#clip1)" clip-rule="nonzero" -->
<g style="fill:rgb(0%,0%,0%);fill-opacity:1;">
  <use xlink:href="#i3-glyph0-1" x="72" y="78.274"/>
  <use xlink:href="#i3-glyph0-2" x="76.9813" y="78.274"/>
</g>
</g>
<g> <!-- clip-path="url(#clip2)" clip-rule="nonzero" -->
<g style="fill:rgb(0%,0%,0%);fill-opacity:1;">
  <use xlink:href="#i3-glyph0-3" x="81.412664" y="78.274"/>
</g>
</g>
</g>
</g>
  <g id="g13" fill="none" stroke="#b0b0b0" stroke-width="0.8" stroke-linecap="butt" stroke-linejoin="miter" stroke-miterlimit="10" stroke-dasharray="none" stroke-opacity="1">
   <path d="M37.85 -14.32C37.85 -14.32 37.85 -65.56 37.85 -70.62" />
   <path d="M40.62 -63.39C38.95 -67.99 37.85 -71.02 37.85 -71.02H37.85C37.85 -71.02 36.74 -67.99 35.07 -63.39" stroke-linecap="round" />
  </g>
  <g id="g4" transform="translate(-72, 78.863)scale(1.0, -1.0)">
<defs>
<g>
<symbol overflow="visible" id="i4-glyph0-0">
<path style="stroke:none;" d=""/>
</symbol>
<symbol overflow="visible" id="i4-glyph0-1">
<path style="stroke:none;" d="M 4.6875 -1.640625 L 4.6875 -1.953125 L 3.703125 -1.953125 L 3.703125 -6.484375 C 3.703125 -6.6875 3.703125 -6.75 3.53125 -6.75 C 3.453125 -6.75 3.421875 -6.75 3.34375 -6.625 L 0.28125 -1.953125 L 0.28125 -1.640625 L 2.9375 -1.640625 L 2.9375 -0.78125 C 2.9375 -0.421875 2.90625 -0.3125 2.171875 -0.3125 L 1.96875 -0.3125 L 1.96875 0 C 2.375 -0.03125 2.890625 -0.03125 3.3125 -0.03125 C 3.734375 -0.03125 4.25 -0.03125 4.671875 0 L 4.671875 -0.3125 L 4.453125 -0.3125 C 3.71875 -0.3125 3.703125 -0.421875 3.703125 -0.78125 L 3.703125 -1.640625 Z M 2.984375 -1.953125 L 0.5625 -1.953125 L 2.984375 -5.671875 Z M 2.984375 -1.953125 "/>
</symbol>
<symbol overflow="visible" id="i4-glyph0-2">
<path style="stroke:none;" d="M 1.90625 -3.765625 C 1.90625 -4.0625 1.671875 -4.296875 1.390625 -4.296875 C 1.09375 -4.296875 0.859375 -4.0625 0.859375 -3.765625 C 0.859375 -3.484375 1.09375 -3.234375 1.390625 -3.234375 C 1.671875 -3.234375 1.90625 -3.484375 1.90625 -3.765625 Z M 1.90625 -0.53125 C 1.90625 -0.8125 1.671875 -1.0625 1.390625 -1.0625 C 1.09375 -1.0625 0.859375 -0.8125 0.859375 -0.53125 C 0.859375 -0.234375 1.09375 0 1.390625 0 C 1.671875 0 1.90625 -0.234375 1.90625 -0.53125 Z M 1.90625 -0.53125 "/>
</symbol>
<symbol overflow="visible" id="i4-glyph0-3">
<path style="stroke:none;" d="M 5.25 0 L 5.25 -0.3125 C 4.5625 -0.3125 4.46875 -0.375 4.46875 -0.875 L 4.46875 -6.921875 L 3.046875 -6.8125 L 3.046875 -6.5 C 3.734375 -6.5 3.8125 -6.4375 3.8125 -5.9375 L 3.8125 -3.78125 C 3.53125 -4.140625 3.09375 -4.40625 2.5625 -4.40625 C 1.390625 -4.40625 0.34375 -3.421875 0.34375 -2.140625 C 0.34375 -0.875 1.3125 0.109375 2.453125 0.109375 C 3.09375 0.109375 3.53125 -0.234375 3.78125 -0.546875 L 3.78125 0.109375 Z M 3.78125 -1.171875 C 3.78125 -1 3.78125 -0.984375 3.671875 -0.8125 C 3.375 -0.328125 2.9375 -0.109375 2.5 -0.109375 C 2.046875 -0.109375 1.6875 -0.375 1.453125 -0.75 C 1.203125 -1.15625 1.171875 -1.71875 1.171875 -2.140625 C 1.171875 -2.5 1.1875 -3.09375 1.46875 -3.546875 C 1.6875 -3.859375 2.0625 -4.1875 2.609375 -4.1875 C 2.953125 -4.1875 3.375 -4.03125 3.671875 -3.59375 C 3.78125 -3.421875 3.78125 -3.40625 3.78125 -3.21875 Z M 3.78125 -1.171875 "/>
</symbol>
</g>
<clipPath id="i4-clip1">
  <path d="M 72 72 L 79 72 L 79 78.863281 L 72 78.863281 Z M 72 72 "/>
</clipPath>
<clipPath id="i4-clip2">
  <path d="M 81 72 L 86.945312 72 L 86.945312 78.863281 L 81 78.863281 Z M 81 72 "/>
</clipPath>
</defs>
<g id="i4-surface21">
<g> <!-- clip-path="url(#clip1)" clip-rule="nonzero" -->
<g style="fill:rgb(0%,0%,0%);fill-opacity:1;">
  <use xlink:href="#i4-glyph0-1" x="72" y="78.863"/>
  <use xlink:href="#i4-glyph0-2" x="76.9813" y="78.863"/>
</g>
</g>
<g> <!-- clip-path="url(#clip2)" clip-rule="nonzero" -->
<g style="fill:rgb(0%,0%,0%);fill-opacity:1;">
  <use xlink:href="#i4-glyph0-3" x="81.412664" y="78.863"/>
</g>
</g>
</g>
</g>
  <g id="g14" fill="none" fill-rule="nonzero" fill-opacity="1" stroke="#b0b0b0" stroke-width="0.8" stroke-linecap="butt" stroke-linejoin="miter" stroke-miterlimit="10" stroke-dasharray="none" stroke-opacity="1">
   <path d="M75.69 -14.32C75.69 -14.32 75.69 -53.21 75.69 -66.57" />
   <path d="M79.94 -14.32C79.94 -14.32 79.94 -17.71 79.94 -22.83H71.44C71.44 -17.71 71.44 -14.32 71.44 -14.32" stroke-linecap="round" />
   <path d="M75.69 -71.02C75.69 -71.02 74.56 -67.92 72.86 -63.23H75.69H78.53C76.82 -67.92 75.69 -71.02 75.69 -71.02z" fill="#b0b0b0" stroke="none" />
  </g>
  <g id="g5" transform="translate(-72, 78.274)scale(1.0, -1.0)">
<defs>
<g>
<symbol overflow="visible" id="i5-glyph0-0">
<path style="stroke:none;" d=""/>
</symbol>
<symbol overflow="visible" id="i5-glyph0-1">
<path style="stroke:none;" d="M 4.46875 -2 C 4.46875 -3.1875 3.65625 -4.1875 2.578125 -4.1875 C 2.109375 -4.1875 1.671875 -4.03125 1.3125 -3.671875 L 1.3125 -5.625 C 1.515625 -5.5625 1.84375 -5.5 2.15625 -5.5 C 3.390625 -5.5 4.09375 -6.40625 4.09375 -6.53125 C 4.09375 -6.59375 4.0625 -6.640625 3.984375 -6.640625 C 3.984375 -6.640625 3.953125 -6.640625 3.90625 -6.609375 C 3.703125 -6.515625 3.21875 -6.3125 2.546875 -6.3125 C 2.15625 -6.3125 1.6875 -6.390625 1.21875 -6.59375 C 1.140625 -6.625 1.109375 -6.625 1.109375 -6.625 C 1 -6.625 1 -6.546875 1 -6.390625 L 1 -3.4375 C 1 -3.265625 1 -3.1875 1.140625 -3.1875 C 1.21875 -3.1875 1.234375 -3.203125 1.28125 -3.265625 C 1.390625 -3.421875 1.75 -3.96875 2.5625 -3.96875 C 3.078125 -3.96875 3.328125 -3.515625 3.40625 -3.328125 C 3.5625 -2.953125 3.59375 -2.578125 3.59375 -2.078125 C 3.59375 -1.71875 3.59375 -1.125 3.34375 -0.703125 C 3.109375 -0.3125 2.734375 -0.0625 2.28125 -0.0625 C 1.5625 -0.0625 0.984375 -0.59375 0.8125 -1.171875 C 0.84375 -1.171875 0.875 -1.15625 0.984375 -1.15625 C 1.3125 -1.15625 1.484375 -1.40625 1.484375 -1.640625 C 1.484375 -1.890625 1.3125 -2.140625 0.984375 -2.140625 C 0.84375 -2.140625 0.5 -2.0625 0.5 -1.609375 C 0.5 -0.75 1.1875 0.21875 2.296875 0.21875 C 3.453125 0.21875 4.46875 -0.734375 4.46875 -2 Z M 4.46875 -2 "/>
</symbol>
<symbol overflow="visible" id="i5-glyph0-2">
<path style="stroke:none;" d="M 1.90625 -3.765625 C 1.90625 -4.0625 1.671875 -4.296875 1.390625 -4.296875 C 1.09375 -4.296875 0.859375 -4.0625 0.859375 -3.765625 C 0.859375 -3.484375 1.09375 -3.234375 1.390625 -3.234375 C 1.671875 -3.234375 1.90625 -3.484375 1.90625 -3.765625 Z M 1.90625 -0.53125 C 1.90625 -0.8125 1.671875 -1.0625 1.390625 -1.0625 C 1.09375 -1.0625 0.859375 -0.8125 0.859375 -0.53125 C 0.859375 -0.234375 1.09375 0 1.390625 0 C 1.671875 0 1.90625 -0.234375 1.90625 -0.53125 Z M 1.90625 -0.53125 "/>
</symbol>
<symbol overflow="visible" id="i5-glyph0-3">
<path style="stroke:none;" d="M 4.140625 -1.1875 C 4.140625 -1.28125 4.0625 -1.3125 4 -1.3125 C 3.921875 -1.3125 3.890625 -1.25 3.875 -1.171875 C 3.53125 -0.140625 2.625 -0.140625 2.53125 -0.140625 C 2.03125 -0.140625 1.640625 -0.4375 1.40625 -0.8125 C 1.109375 -1.28125 1.109375 -1.9375 1.109375 -2.296875 L 3.890625 -2.296875 C 4.109375 -2.296875 4.140625 -2.296875 4.140625 -2.515625 C 4.140625 -3.5 3.59375 -4.46875 2.359375 -4.46875 C 1.203125 -4.46875 0.28125 -3.4375 0.28125 -2.1875 C 0.28125 -0.859375 1.328125 0.109375 2.46875 0.109375 C 3.6875 0.109375 4.140625 -1 4.140625 -1.1875 Z M 3.484375 -2.515625 L 1.109375 -2.515625 C 1.171875 -4 2.015625 -4.25 2.359375 -4.25 C 3.375 -4.25 3.484375 -2.90625 3.484375 -2.515625 Z M 3.484375 -2.515625 "/>
</symbol>
</g>
<clipPath id="i5-clip1">
  <path d="M 72 72 L 79 72 L 79 78.273438 L 72 78.273438 Z M 72 72 "/>
</clipPath>
<clipPath id="i5-clip2">
  <path d="M 81 73 L 85.835938 73 L 85.835938 78.273438 L 81 78.273438 Z M 81 73 "/>
</clipPath>
</defs>
<g id="i5-surface26">
<g> <!-- clip-path="url(#clip1)" clip-rule="nonzero" -->
<g style="fill:rgb(0%,0%,0%);fill-opacity:1;">
  <use xlink:href="#i5-glyph0-1" x="72" y="78.274"/>
  <use xlink:href="#i5-glyph0-2" x="76.9813" y="78.274"/>
</g>
</g>
<g> <!-- clip-path="url(#clip2)" clip-rule="nonzero" -->
<g style="fill:rgb(0%,0%,0%);fill-opacity:1;">
  <use xlink:href="#i5-glyph0-3" x="81.412664" y="78.274"/>
</g>
</g>
</g>
</g>
 </defs>
</svg>
