<?xml version="1.0" standalone="no"?>
<!DOCTYPE svg PUBLIC "-//W3C//DTD SVG 1.1//EN" "http://www.w3.org/Graphics/SVG/1.1/DTD/svg11.dtd">
<svg viewBox="0 0 584 361" version="1.1" xmlns="http://www.w3.org/2000/svg" xmlns:xlink="http://www.w3.org/1999/xlink">
	<polyline fill="none" stroke="rgb(240,240,240)" stroke-width="1" stroke-opacity="1" points="61,18 61,333"/>
	<polyline fill="none" stroke="rgb(240,240,240)" stroke-width="1" stroke-opacity="1" points="110.5,18 110.5,333"/>
	<polyline fill="none" stroke="rgb(240,240,240)" stroke-width="1" stroke-opacity="1" points="160,18 160,333"/>
	<polyline fill="none" stroke="rgb(240,240,240)" stroke-width="1" stroke-opacity="1" points="209.5,18 209.5,333"/>
	<polyline fill="none" stroke="rgb(240,240,240)" stroke-width="1" stroke-opacity="1" points="259,18 259,333"/>
	<polyline fill="none" stroke="rgb(240,240,240)" stroke-width="1" stroke-opacity="1" points="308.5,18 308.5,333"/>
	<polyline fill="none" stroke="rgb(240,240,240)" stroke-width="1" stroke-opacity="1" points="358,18 358,333"/>
	<polyline fill="none" stroke="rgb(240,240,240)" stroke-width="1" stroke-opacity="1" points="407.5,18 407.5,333"/>
	<polyline fill="none" stroke="rgb(240,240,240)" stroke-width="1" stroke-opacity="1" points="457,18 457,333"/>
	<polyline fill="none" stroke="rgb(240,240,240)" stroke-width="1" stroke-opacity="1" points="506.5,18 506.5,333"/>
	<polyline fill="none" stroke="rgb(240,240,240)" stroke-width="1" stroke-opacity="1" points="556,18 556,333"/>
	<rect fill="rgb(240,240,240)" stroke="rgb(240,240,240)" stroke-width="1" stroke-opacity="1" x="61" y="39.2019" width="495" height="52.2476"/>
	<rect fill="rgb(240,240,240)" stroke="rgb(240,240,240)" stroke-width="1" stroke-opacity="1" x="61" y="112.651" width="495" height="52.2476"/>
	<rect fill="rgb(240,240,240)" stroke="rgb(240,240,240)" stroke-width="1" stroke-opacity="1" x="61" y="186.101" width="495" height="52.2476"/>
	<rect fill="rgb(240,240,240)" stroke="rgb(240,240,240)" stroke-width="1" stroke-opacity="1" x="61" y="259.55" width="495" height="52.2476"/>
	<polyline fill="none" stroke="rgb(0,0,0)" stroke-width="1" stroke-opacity="1" points="61,333 556,333"/>
	<polyline fill="none" stroke="rgb(0,0,0)" stroke-width="1" stroke-opacity="1" points="556,333 556,18"/>
	<polyline fill="none" stroke="rgb(0,0,0)" stroke-width="1" stroke-opacity="1" points="556,18 61,18"/>
	<polyline fill="none" stroke="rgb(0,0,0)" stroke-width="1" stroke-opacity="1" points="61,18 61,333"/>
	<polyline fill="none" stroke="rgb(0,0,0)" stroke-width="1" stroke-opacity="1" points="61,333 61,337"/>
	<polyline fill="none" stroke="rgb(0,0,0)" stroke-width="1" stroke-opacity="1" points="110.5,333 110.5,337"/>
	<polyline fill="none" stroke="rgb(0,0,0)" stroke-width="1" stroke-opacity="1" points="160,333 160,337"/>
	<polyline fill="none" stroke="rgb(0,0,0)" stroke-width="1" stroke-opacity="1" points="209.5,333 209.5,337"/>
	<polyline fill="none" stroke="rgb(0,0,0)" stroke-width="1" stroke-opacity="1" points="259,333 259,337"/>
	<polyline fill="none" stroke="rgb(0,0,0)" stroke-width="1" stroke-opacity="1" points="308.5,333 308.5,337"/>
	<polyline fill="none" stroke="rgb(0,0,0)" stroke-width="1" stroke-opacity="1" points="358,333 358,337"/>
	<polyline fill="none" stroke="rgb(0,0,0)" stroke-width="1" stroke-opacity="1" points="407.5,333 407.5,337"/>
	<polyline fill="none" stroke="rgb(0,0,0)" stroke-width="1" stroke-opacity="1" points="457,333 457,337"/>
	<polyline fill="none" stroke="rgb(0,0,0)" stroke-width="1" stroke-opacity="1" points="506.5,333 506.5,337"/>
	<polyline fill="none" stroke="rgb(0,0,0)" stroke-width="1" stroke-opacity="1" points="556,333 556,337"/>
	<polyline fill="none" stroke="rgb(0,0,0)" stroke-width="1" stroke-opacity="1" points="61,333 61,339.4"/>
	<text fill="rgb(0,0,0)" font-size="13" font-family="Arial" text-anchor="middle" dominant-baseline="central" x="61" y="348.5">0.0</text>
	<polyline fill="none" stroke="rgb(0,0,0)" stroke-width="1" stroke-opacity="1" points="160,333 160,339.4"/>
	<text fill="rgb(0,0,0)" font-size="13" font-family="Arial" text-anchor="middle" dominant-baseline="central" x="160" y="348.5">0.2</text>
	<polyline fill="none" stroke="rgb(0,0,0)" stroke-width="1" stroke-opacity="1" points="259,333 259,339.4"/>
	<text fill="rgb(0,0,0)" font-size="13" font-family="Arial" text-anchor="middle" dominant-baseline="central" x="259" y="348.5">0.4</text>
	<polyline fill="none" stroke="rgb(0,0,0)" stroke-width="1" stroke-opacity="1" points="358,333 358,339.4"/>
	<text fill="rgb(0,0,0)" font-size="13" font-family="Arial" text-anchor="middle" dominant-baseline="central" x="358" y="348.5">0.6</text>
	<polyline fill="none" stroke="rgb(0,0,0)" stroke-width="1" stroke-opacity="1" points="457,333 457,339.4"/>
	<text fill="rgb(0,0,0)" font-size="13" font-family="Arial" text-anchor="middle" dominant-baseline="central" x="457" y="348.5">0.8</text>
	<polyline fill="none" stroke="rgb(0,0,0)" stroke-width="1" stroke-opacity="1" points="556,333 556,339.4"/>
	<text fill="rgb(0,0,0)" font-size="13" font-family="Arial" text-anchor="middle" dominant-baseline="central" x="556" y="348.5">1.0</text>
	<polyline fill="none" stroke="rgb(0,0,0)" stroke-width="1" stroke-opacity="1" points="57,91.4495 61,91.4495"/>
	<text fill="rgb(0,0,0)" font-size="13" font-family="Arial" text-anchor="end" dominant-baseline="central" x="53" y="91.4495">false</text>
	<polyline fill="none" stroke="rgb(0,0,0)" stroke-width="1" stroke-opacity="1" points="57,39.2019 61,39.2019"/>
	<text fill="rgb(0,0,0)" font-size="13" font-family="Arial" text-anchor="end" dominant-baseline="central" x="53" y="39.2019">true</text>
	<polyline fill="none" stroke="rgb(0,0,0)" stroke-width="1" stroke-opacity="1" points="57,164.899 61,164.899"/>
	<text fill="rgb(0,0,0)" font-size="13" font-family="Arial" text-anchor="end" dominant-baseline="central" x="53" y="164.899">false</text>
	<polyline fill="none" stroke="rgb(0,0,0)" stroke-width="1" stroke-opacity="1" points="57,112.651 61,112.651"/>
	<text fill="rgb(0,0,0)" font-size="13" font-family="Arial" text-anchor="end" dominant-baseline="central" x="53" y="112.651">true</text>
	<polyline fill="none" stroke="rgb(0,0,0)" stroke-width="1" stroke-opacity="1" points="57,238.349 61,238.349"/>
	<text fill="rgb(0,0,0)" font-size="13" font-family="Arial" text-anchor="end" dominant-baseline="central" x="53" y="238.349">false</text>
	<polyline fill="none" stroke="rgb(0,0,0)" stroke-width="1" stroke-opacity="1" points="57,186.101 61,186.101"/>
	<text fill="rgb(0,0,0)" font-size="13" font-family="Arial" text-anchor="end" dominant-baseline="central" x="53" y="186.101">true</text>
	<polyline fill="none" stroke="rgb(0,0,0)" stroke-width="1" stroke-opacity="1" points="57,311.798 61,311.798"/>
	<text fill="rgb(0,0,0)" font-size="13" font-family="Arial" text-anchor="end" dominant-baseline="central" x="53" y="311.798">false</text>
	<polyline fill="none" stroke="rgb(0,0,0)" stroke-width="1" stroke-opacity="1" points="57,259.55 61,259.55"/>
	<text fill="rgb(0,0,0)" font-size="13" font-family="Arial" text-anchor="end" dominant-baseline="central" x="53" y="259.55">true</text>
	<clipPath id="clipArea1">
		<rect x="61" y="18" width="496" height="315">
		</rect>
	</clipPath>
	<polyline fill="none" stroke="rgb(28,108,200)" stroke-width="1" stroke-opacity="1" clip-path="url(#clipArea1)" points="61,39.2019 61.99,39.2019 62.98,39.2019 63.97,39.2019 64.96,39.2019 65.95,39.2019 66.94,39.2019 67.93,39.2019 68.92,39.2019 69.91,39.2019 70.9,39.2019 71.89,39.2019 72.88,39.2019 73.87,39.2019 74.86,39.2019 75.85,39.2019 75.85,91.4495 76.84,91.4495 77.83,91.4495 78.82,91.4495 79.81,91.4495 80.8,91.4495 81.79,91.4495 82.78,91.4495 83.77,91.4495 84.76,91.4495 85.75,91.4495 86.74,91.4495 87.73,91.4495 88.72,91.4495 89.71,91.4495 90.7,91.4495 91.69,91.4495 92.68,91.4495 93.67,91.4495 94.66,91.4495 95.65,91.4495 96.64,91.4495 97.63,91.4495 98.62,91.4495 99.61,91.4495 100.6,91.4495 101.59,91.4495 102.58,91.4495 103.57,91.4495 104.56,91.4495 105.55,91.4495 106.54,91.4495 107.53,91.4495 108.52,91.4495 109.51,91.4495 110.5,91.4495 110.5,39.2019 111.49,39.2019 112.48,39.2019 113.47,39.2019 114.46,39.2019 115.45,39.2019 116.44,39.2019 117.43,39.2019 118.42,39.2019 119.41,39.2019 120.4,39.2019 121.39,39.2019 122.38,39.2019 123.37,39.2019 124.36,39.2019 125.35,39.2019 125.35,91.4495 126.34,91.4495 127.33,91.4495 128.32,91.4495 129.31,91.4495 130.3,91.4495 131.29,91.4495 132.28,91.4495 133.27,91.4495 134.26,91.4495 135.25,91.4495 136.24,91.4495 137.23,91.4495 138.22,91.4495 139.21,91.4495 140.2,91.4495 141.19,91.4495 142.18,91.4495 143.17,91.4495 144.16,91.4495 145.15,91.4495 146.14,91.4495 147.13,91.4495 148.12,91.4495 149.11,91.4495 150.1,91.4495 151.09,91.4495 152.08,91.4495 153.07,91.4495 154.06,91.4495 155.05,91.4495 156.04,91.4495 157.03,91.4495 158.02,91.4495 159.01,91.4495 160,91.4495 160,39.2019 160.99,39.2019 161.98,39.2019 162.97,39.2019 163.96,39.2019 164.95,39.2019 165.94,39.2019 166.93,39.2019 167.92,39.2019 168.91,39.2019 169.9,39.2019 170.89,39.2019 171.88,39.2019 172.87,39.2019 173.86,39.2019 174.85,39.2019 174.85,91.4495 175.84,91.4495 176.83,91.4495 177.82,91.4495 178.81,91.4495 179.8,91.4495 180.79,91.4495 181.78,91.4495 182.77,91.4495 183.76,91.4495 184.75,91.4495 185.74,91.4495 186.73,91.4495 187.72,91.4495 188.71,91.4495 189.7,91.4495 190.69,91.4495 191.68,91.4495 192.67,91.4495 193.66,91.4495 194.65,91.4495 195.64,91.4495 196.63,91.4495 197.62,91.4495 198.61,91.4495 199.6,91.4495 200.59,91.4495 201.58,91.4495 202.57,91.4495 203.56,91.4495 204.55,91.4495 205.54,91.4495 206.53,91.4495 207.52,91.4495 208.51,91.4495 209.5,91.4495 209.5,39.2019 210.49,39.2019 211.48,39.2019 212.47,39.2019 213.46,39.2019 214.45,39.2019 215.44,39.2019 216.43,39.2019 217.42,39.2019 218.41,39.2019 219.4,39.2019 220.39,39.2019 221.38,39.2019 222.37,39.2019 223.36,39.2019 224.35,39.2019 224.35,91.4495 225.34,91.4495 226.33,91.4495 227.32,91.4495 228.31,91.4495 229.3,91.4495 230.29,91.4495 231.28,91.4495 232.27,91.4495 233.26,91.4495 234.25,91.4495 235.24,91.4495 236.23,91.4495 237.22,91.4495 238.21,91.4495 239.2,91.4495 240.19,91.4495 241.18,91.4495 242.17,91.4495 243.16,91.4495 244.15,91.4495 245.14,91.4495 246.13,91.4495 247.12,91.4495 248.11,91.4495 249.1,91.4495 250.09,91.4495 251.08,91.4495 252.07,91.4495 253.06,91.4495 254.05,91.4495 255.04,91.4495 256.03,91.4495 257.02,91.4495 258.01,91.4495 259,91.4495 259,39.2019 259.99,39.2019 260.98,39.2019 261.97,39.2019 262.96,39.2019 263.95,39.2019 264.94,39.2019 265.93,39.2019 266.92,39.2019 267.91,39.2019 268.9,39.2019 269.89,39.2019 270.88,39.2019 271.87,39.2019 272.86,39.2019 273.85,39.2019 273.85,91.4495 274.84,91.4495 275.83,91.4495 276.82,91.4495 277.81,91.4495 278.8,91.4495 279.79,91.4495 280.78,91.4495 281.77,91.4495 282.76,91.4495 283.75,91.4495 284.74,91.4495 285.73,91.4495 286.72,91.4495 287.71,91.4495 288.7,91.4495 289.69,91.4495 290.68,91.4495 291.67,91.4495 292.66,91.4495 293.65,91.4495 294.64,91.4495 295.63,91.4495 296.62,91.4495 297.61,91.4495 298.6,91.4495 299.59,91.4495 300.58,91.4495 301.57,91.4495 302.56,91.4495 303.55,91.4495 304.54,91.4495 305.53,91.4495 306.52,91.4495 307.51,91.4495 308.5,91.4495 308.5,39.2019 309.49,39.2019 310.48,39.2019 311.47,39.2019 312.46,39.2019 313.45,39.2019 314.44,39.2019 315.43,39.2019 316.42,39.2019 317.41,39.2019 318.4,39.2019 319.39,39.2019 320.38,39.2019 321.37,39.2019 322.36,39.2019 323.35,39.2019 323.35,91.4495 324.34,91.4495 325.33,91.4495 326.32,91.4495 327.31,91.4495 328.3,91.4495 329.29,91.4495 330.28,91.4495 331.27,91.4495 332.26,91.4495 333.25,91.4495 333.25,91.4495 334.24,91.4495 335.23,91.4495 336.22,91.4495 337.21,91.4495 338.2,91.4495 339.19,91.4495 340.18,91.4495 341.17,91.4495 342.16,91.4495 343.15,91.4495 344.14,91.4495 345.13,91.4495 346.12,91.4495 347.11,91.4495 348.1,91.4495 349.09,91.4495 350.08,91.4495 351.07,91.4495 352.06,91.4495 353.05,91.4495 354.04,91.4495 355.03,91.4495 356.02,91.4495 357.01,91.4495 358,91.4495 358,39.2019 358.99,39.2019 359.98,39.2019 360.97,39.2019 361.96,39.2019 362.95,39.2019 363.94,39.2019 364.93,39.2019 365.92,39.2019 366.91,39.2019 367.9,39.2019 368.89,39.2019 369.88,39.2019 370.87,39.2019 371.86,39.2019 372.85,39.2019 372.85,91.4495 373.84,91.4495 374.83,91.4495 375.82,91.4495 376.81,91.4495 377.8,91.4495 378.79,91.4495 379.78,91.4495 380.77,91.4495 381.76,91.4495 382.75,91.4495 383.74,91.4495 384.73,91.4495 385.72,91.4495 386.71,91.4495 387.7,91.4495 388.69,91.4495 389.68,91.4495 390.67,91.4495 391.66,91.4495 392.65,91.4495 393.64,91.4495 394.63,91.4495 395.62,91.4495 396.61,91.4495 397.6,91.4495 398.59,91.4495 399.58,91.4495 400.57,91.4495 401.56,91.4495 402.55,91.4495 403.54,91.4495 404.53,91.4495 405.52,91.4495 406.51,91.4495 407.5,91.4495 407.5,39.2019 408.49,39.2019 409.48,39.2019 410.47,39.2019 411.46,39.2019 412.45,39.2019 413.44,39.2019 414.43,39.2019 415.42,39.2019 416.41,39.2019 417.4,39.2019 418.39,39.2019 419.38,39.2019 420.37,39.2019 421.36,39.2019 422.35,39.2019 422.35,91.4495 423.34,91.4495 424.33,91.4495 425.32,91.4495 426.31,91.4495 427.3,91.4495 428.29,91.4495 429.28,91.4495 430.27,91.4495 431.26,91.4495 432.25,91.4495 433.24,91.4495 434.23,91.4495 435.22,91.4495 436.21,91.4495 437.2,91.4495 438.19,91.4495 439.18,91.4495 440.17,91.4495 441.16,91.4495 442.15,91.4495 443.14,91.4495 444.13,91.4495 445.12,91.4495 446.11,91.4495 447.1,91.4495 448.09,91.4495 449.08,91.4495 450.07,91.4495 451.06,91.4495 452.05,91.4495 453.04,91.4495 454.03,91.4495 455.02,91.4495 456.01,91.4495 457,91.4495 457,39.2019 457.99,39.2019 458.98,39.2019 459.97,39.2019 460.96,39.2019 461.95,39.2019 462.94,39.2019 463.93,39.2019 464.92,39.2019 465.91,39.2019 466.9,39.2019 467.89,39.2019 468.88,39.2019 469.87,39.2019 470.86,39.2019 471.85,39.2019 471.85,91.4495 472.84,91.4495 473.83,91.4495 474.82,91.4495 475.81,91.4495 476.8,91.4495 477.79,91.4495 478.78,91.4495 479.77,91.4495 480.76,91.4495 481.75,91.4495 482.74,91.4495 483.73,91.4495 484.72,91.4495 485.71,91.4495 486.7,91.4495 487.69,91.4495 488.68,91.4495 489.67,91.4495 490.66,91.4495 491.65,91.4495 492.64,91.4495 493.63,91.4495 494.62,91.4495 495.61,91.4495 496.6,91.4495 497.59,91.4495 498.58,91.4495 499.57,91.4495 500.56,91.4495 501.55,91.4495 502.54,91.4495 503.53,91.4495 504.52,91.4495 505.51,91.4495 506.5,91.4495 506.5,39.2019 507.49,39.2019 508.48,39.2019 509.47,39.2019 510.46,39.2019 511.45,39.2019 512.44,39.2019 513.43,39.2019 514.42,39.2019 515.41,39.2019 516.4,39.2019 517.39,39.2019 518.38,39.2019 519.37,39.2019 520.36,39.2019 521.35,39.2019 521.35,91.4495 522.34,91.4495 523.33,91.4495 524.32,91.4495 525.31,91.4495 526.3,91.4495 527.29,91.4495 528.28,91.4495 529.27,91.4495 530.26,91.4495 531.25,91.4495 531.25,91.4495 532.24,91.4495 533.23,91.4495 534.22,91.4495 535.21,91.4495 536.2,91.4495 537.19,91.4495 538.18,91.4495 539.17,91.4495 540.16,91.4495 541.15,91.4495 542.14,91.4495 543.13,91.4495 544.12,91.4495 545.11,91.4495 546.1,91.4495 547.09,91.4495 548.08,91.4495 549.07,91.4495 550.06,91.4495 551.05,91.4495 552.04,91.4495 553.03,91.4495 554.02,91.4495 555.01,91.4495 556,91.4495 556,39.2019"/>
	<polyline fill="none" stroke="rgb(28,108,200)" stroke-width="1" stroke-opacity="1" clip-path="url(#clipArea1)" points="61,112.651 61.99,112.651 62.98,112.651 63.97,112.651 64.96,112.651 65.95,112.651 66.94,112.651 67.93,112.651 68.92,112.651 69.91,112.651 70.9,112.651 71.89,112.651 72.88,112.651 73.87,112.651 74.86,112.651 75.85,112.651 75.85,112.651 76.84,112.651 77.83,112.651 78.82,112.651 79.81,112.651 80.8,112.651 81.79,112.651 82.78,112.651 83.77,112.651 84.76,112.651 85.75,112.651 86.74,112.651 87.73,112.651 88.72,112.651 89.71,112.651 90.7,112.651 91.69,112.651 92.68,112.651 93.67,112.651 94.66,112.651 95.65,112.651 96.64,112.651 97.63,112.651 98.62,112.651 99.61,112.651 100.6,112.651 101.59,112.651 102.58,112.651 103.57,112.651 104.56,112.651 105.55,112.651 106.54,112.651 107.53,112.651 108.52,112.651 109.51,112.651 110.5,112.651 110.5,112.651 111.49,112.651 112.48,112.651 113.47,112.651 114.46,112.651 115.45,112.651 116.44,112.651 117.43,112.651 118.42,112.651 119.41,112.651 120.4,112.651 121.39,112.651 122.38,112.651 123.37,112.651 124.36,112.651 125.35,112.651 125.35,112.651 126.34,112.651 127.33,112.651 128.32,112.651 129.31,112.651 130.3,112.651 131.29,112.651 132.28,112.651 133.27,112.651 134.26,112.651 135.25,112.651 136.24,112.651 137.23,112.651 138.22,112.651 139.21,112.651 140.2,112.651 141.19,112.651 142.18,112.651 143.17,112.651 144.16,112.651 145.15,112.651 146.14,112.651 147.13,112.651 148.12,112.651 149.11,112.651 150.1,112.651 151.09,112.651 152.08,112.651 153.07,112.651 154.06,112.651 155.05,112.651 156.04,112.651 157.03,112.651 158.02,112.651 159.01,112.651 160,112.651 160,164.899 160.99,164.899 161.98,164.899 162.97,164.899 163.96,164.899 164.95,164.899 165.94,164.899 166.93,164.899 167.92,164.899 168.91,164.899 169.9,164.899 170.89,164.899 171.88,164.899 172.87,164.899 173.86,164.899 174.85,164.899 174.85,164.899 175.84,164.899 176.83,164.899 177.82,164.899 178.81,164.899 179.8,164.899 180.79,164.899 181.78,164.899 182.77,164.899 183.76,164.899 184.75,164.899 185.74,164.899 186.73,164.899 187.72,164.899 188.71,164.899 189.7,164.899 190.69,164.899 191.68,164.899 192.67,164.899 193.66,164.899 194.65,164.899 195.64,164.899 196.63,164.899 197.62,164.899 198.61,164.899 199.6,164.899 200.59,164.899 201.58,164.899 202.57,164.899 203.56,164.899 204.55,164.899 205.54,164.899 206.53,164.899 207.52,164.899 208.51,164.899 209.5,164.899 209.5,164.899 210.49,164.899 211.48,164.899 212.47,164.899 213.46,164.899 214.45,164.899 215.44,164.899 216.43,164.899 217.42,164.899 218.41,164.899 219.4,164.899 220.39,164.899 221.38,164.899 222.37,164.899 223.36,164.899 224.35,164.899 224.35,164.899 225.34,164.899 226.33,164.899 227.32,164.899 228.31,164.899 229.3,164.899 230.29,164.899 231.28,164.899 232.27,164.899 233.26,164.899 234.25,164.899 235.24,164.899 236.23,164.899 237.22,164.899 238.21,164.899 239.2,164.899 240.19,164.899 241.18,164.899 242.17,164.899 243.16,164.899 244.15,164.899 245.14,164.899 246.13,164.899 247.12,164.899 248.11,164.899 249.1,164.899 250.09,164.899 251.08,164.899 252.07,164.899 253.06,164.899 254.05,164.899 255.04,164.899 256.03,164.899 257.02,164.899 258.01,164.899 259,164.899 259,112.651 259.99,112.651 260.98,112.651 261.97,112.651 262.96,112.651 263.95,112.651 264.94,112.651 265.93,112.651 266.92,112.651 267.91,112.651 268.9,112.651 269.89,112.651 270.88,112.651 271.87,112.651 272.86,112.651 273.85,112.651 273.85,112.651 274.84,112.651 275.83,112.651 276.82,112.651 277.81,112.651 278.8,112.651 279.79,112.651 280.78,112.651 281.77,112.651 282.76,112.651 283.75,112.651 284.74,112.651 285.73,112.651 286.72,112.651 287.71,112.651 288.7,112.651 289.69,112.651 290.68,112.651 291.67,112.651 292.66,112.651 293.65,112.651 294.64,112.651 295.63,112.651 296.62,112.651 297.61,112.651 298.6,112.651 299.59,112.651 300.58,112.651 301.57,112.651 302.56,112.651 303.55,112.651 304.54,112.651 305.53,112.651 306.52,112.651 307.51,112.651 308.5,112.651 308.5,112.651 309.49,112.651 310.48,112.651 311.47,112.651 312.46,112.651 313.45,112.651 314.44,112.651 315.43,112.651 316.42,112.651 317.41,112.651 318.4,112.651 319.39,112.651 320.38,112.651 321.37,112.651 322.36,112.651 323.35,112.651 323.35,112.651 324.34,112.651 325.33,112.651 326.32,112.651 327.31,112.651 328.3,112.651 329.29,112.651 330.28,112.651 331.27,112.651 332.26,112.651 333.25,112.651 333.25,112.651 334.24,112.651 335.23,112.651 336.22,112.651 337.21,112.651 338.2,112.651 339.19,112.651 340.18,112.651 341.17,112.651 342.16,112.651 343.15,112.651 344.14,112.651 345.13,112.651 346.12,112.651 347.11,112.651 348.1,112.651 349.09,112.651 350.08,112.651 351.07,112.651 352.06,112.651 353.05,112.651 354.04,112.651 355.03,112.651 356.02,112.651 357.01,112.651 358,112.651 358,164.899 358.99,164.899 359.98,164.899 360.97,164.899 361.96,164.899 362.95,164.899 363.94,164.899 364.93,164.899 365.92,164.899 366.91,164.899 367.9,164.899 368.89,164.899 369.88,164.899 370.87,164.899 371.86,164.899 372.85,164.899 372.85,164.899 373.84,164.899 374.83,164.899 375.82,164.899 376.81,164.899 377.8,164.899 378.79,164.899 379.78,164.899 380.77,164.899 381.76,164.899 382.75,164.899 383.74,164.899 384.73,164.899 385.72,164.899 386.71,164.899 387.7,164.899 388.69,164.899 389.68,164.899 390.67,164.899 391.66,164.899 392.65,164.899 393.64,164.899 394.63,164.899 395.62,164.899 396.61,164.899 397.6,164.899 398.59,164.899 399.58,164.899 400.57,164.899 401.56,164.899 402.55,164.899 403.54,164.899 404.53,164.899 405.52,164.899 406.51,164.899 407.5,164.899 407.5,164.899 408.49,164.899 409.48,164.899 410.47,164.899 411.46,164.899 412.45,164.899 413.44,164.899 414.43,164.899 415.42,164.899 416.41,164.899 417.4,164.899 418.39,164.899 419.38,164.899 420.37,164.899 421.36,164.899 422.35,164.899 422.35,164.899 423.34,164.899 424.33,164.899 425.32,164.899 426.31,164.899 427.3,164.899 428.29,164.899 429.28,164.899 430.27,164.899 431.26,164.899 432.25,164.899 433.24,164.899 434.23,164.899 435.22,164.899 436.21,164.899 437.2,164.899 438.19,164.899 439.18,164.899 440.17,164.899 441.16,164.899 442.15,164.899 443.14,164.899 444.13,164.899 445.12,164.899 446.11,164.899 447.1,164.899 448.09,164.899 449.08,164.899 450.07,164.899 451.06,164.899 452.05,164.899 453.04,164.899 454.03,164.899 455.02,164.899 456.01,164.899 457,164.899 457,112.651 457.99,112.651 458.98,112.651 459.97,112.651 460.96,112.651 461.95,112.651 462.94,112.651 463.93,112.651 464.92,112.651 465.91,112.651 466.9,112.651 467.89,112.651 468.88,112.651 469.87,112.651 470.86,112.651 471.85,112.651 471.85,112.651 472.84,112.651 473.83,112.651 474.82,112.651 475.81,112.651 476.8,112.651 477.79,112.651 478.78,112.651 479.77,112.651 480.76,112.651 481.75,112.651 482.74,112.651 483.73,112.651 484.72,112.651 485.71,112.651 486.7,112.651 487.69,112.651 488.68,112.651 489.67,112.651 490.66,112.651 491.65,112.651 492.64,112.651 493.63,112.651 494.62,112.651 495.61,112.651 496.6,112.651 497.59,112.651 498.58,112.651 499.57,112.651 500.56,112.651 501.55,112.651 502.54,112.651 503.53,112.651 504.52,112.651 505.51,112.651 506.5,112.651 506.5,112.651 507.49,112.651 508.48,112.651 509.47,112.651 510.46,112.651 511.45,112.651 512.44,112.651 513.43,112.651 514.42,112.651 515.41,112.651 516.4,112.651 517.39,112.651 518.38,112.651 519.37,112.651 520.36,112.651 521.35,112.651 521.35,112.651 522.34,112.651 523.33,112.651 524.32,112.651 525.31,112.651 526.3,112.651 527.29,112.651 528.28,112.651 529.27,112.651 530.26,112.651 531.25,112.651 531.25,112.651 532.24,112.651 533.23,112.651 534.22,112.651 535.21,112.651 536.2,112.651 537.19,112.651 538.18,112.651 539.17,112.651 540.16,112.651 541.15,112.651 542.14,112.651 543.13,112.651 544.12,112.651 545.11,112.651 546.1,112.651 547.09,112.651 548.08,112.651 549.07,112.651 550.06,112.651 551.05,112.651 552.04,112.651 553.03,112.651 554.02,112.651 555.01,112.651 556,112.651 556,164.899"/>
	<polyline fill="none" stroke="rgb(28,108,200)" stroke-width="1" stroke-opacity="1" clip-path="url(#clipArea1)" points="61,186.101 61.99,186.101 62.98,186.101 63.97,186.101 64.96,186.101 65.95,186.101 66.94,186.101 67.93,186.101 68.92,186.101 69.91,186.101 70.9,186.101 71.89,186.101 72.88,186.101 73.87,186.101 74.86,186.101 75.85,186.101 75.85,238.349 76.84,238.349 77.83,238.349 78.82,238.349 79.81,238.349 80.8,238.349 81.79,238.349 82.78,238.349 83.77,238.349 84.76,238.349 85.75,238.349 86.74,238.349 87.73,238.349 88.72,238.349 89.71,238.349 90.7,238.349 91.69,238.349 92.68,238.349 93.67,238.349 94.66,238.349 95.65,238.349 96.64,238.349 97.63,238.349 98.62,238.349 99.61,238.349 100.6,238.349 101.59,238.349 102.58,238.349 103.57,238.349 104.56,238.349 105.55,238.349 106.54,238.349 107.53,238.349 108.52,238.349 109.51,238.349 110.5,238.349 110.5,186.101 111.49,186.101 112.48,186.101 113.47,186.101 114.46,186.101 115.45,186.101 116.44,186.101 117.43,186.101 118.42,186.101 119.41,186.101 120.4,186.101 121.39,186.101 122.38,186.101 123.37,186.101 124.36,186.101 125.35,186.101 125.35,238.349 126.34,238.349 127.33,238.349 128.32,238.349 129.31,238.349 130.3,238.349 131.29,238.349 132.28,238.349 133.27,238.349 134.26,238.349 135.25,238.349 136.24,238.349 137.23,238.349 138.22,238.349 139.21,238.349 140.2,238.349 141.19,238.349 142.18,238.349 143.17,238.349 144.16,238.349 145.15,238.349 146.14,238.349 147.13,238.349 148.12,238.349 149.11,238.349 150.1,238.349 151.09,238.349 152.08,238.349 153.07,238.349 154.06,238.349 155.05,238.349 156.04,238.349 157.03,238.349 158.02,238.349 159.01,238.349 160,238.349 160,238.349 160.99,238.349 161.98,238.349 162.97,238.349 163.96,238.349 164.95,238.349 165.94,238.349 166.93,238.349 167.92,238.349 168.91,238.349 169.9,238.349 170.89,238.349 171.88,238.349 172.87,238.349 173.86,238.349 174.85,238.349 174.85,238.349 175.84,238.349 176.83,238.349 177.82,238.349 178.81,238.349 179.8,238.349 180.79,238.349 181.78,238.349 182.77,238.349 183.76,238.349 184.75,238.349 185.74,238.349 186.73,238.349 187.72,238.349 188.71,238.349 189.7,238.349 190.69,238.349 191.68,238.349 192.67,238.349 193.66,238.349 194.65,238.349 195.64,238.349 196.63,238.349 197.62,238.349 198.61,238.349 199.6,238.349 200.59,238.349 201.58,238.349 202.57,238.349 203.56,238.349 204.55,238.349 205.54,238.349 206.53,238.349 207.52,238.349 208.51,238.349 209.5,238.349 209.5,238.349 210.49,238.349 211.48,238.349 212.47,238.349 213.46,238.349 214.45,238.349 215.44,238.349 216.43,238.349 217.42,238.349 218.41,238.349 219.4,238.349 220.39,238.349 221.38,238.349 222.37,238.349 223.36,238.349 224.35,238.349 224.35,238.349 225.34,238.349 226.33,238.349 227.32,238.349 228.31,238.349 229.3,238.349 230.29,238.349 231.28,238.349 232.27,238.349 233.26,238.349 234.25,238.349 235.24,238.349 236.23,238.349 237.22,238.349 238.21,238.349 239.2,238.349 240.19,238.349 241.18,238.349 242.17,238.349 243.16,238.349 244.15,238.349 245.14,238.349 246.13,238.349 247.12,238.349 248.11,238.349 249.1,238.349 250.09,238.349 251.08,238.349 252.07,238.349 253.06,238.349 254.05,238.349 255.04,238.349 256.03,238.349 257.02,238.349 258.01,238.349 259,238.349 259,186.101 259.99,186.101 260.98,186.101 261.97,186.101 262.96,186.101 263.95,186.101 264.94,186.101 265.93,186.101 266.92,186.101 267.91,186.101 268.9,186.101 269.89,186.101 270.88,186.101 271.87,186.101 272.86,186.101 273.85,186.101 273.85,238.349 274.84,238.349 275.83,238.349 276.82,238.349 277.81,238.349 278.8,238.349 279.79,238.349 280.78,238.349 281.77,238.349 282.76,238.349 283.75,238.349 284.74,238.349 285.73,238.349 286.72,238.349 287.71,238.349 288.7,238.349 289.69,238.349 290.68,238.349 291.67,238.349 292.66,238.349 293.65,238.349 294.64,238.349 295.63,238.349 296.62,238.349 297.61,238.349 298.6,238.349 299.59,238.349 300.58,238.349 301.57,238.349 302.56,238.349 303.55,238.349 304.54,238.349 305.53,238.349 306.52,238.349 307.51,238.349 308.5,238.349 308.5,186.101 309.49,186.101 310.48,186.101 311.47,186.101 312.46,186.101 313.45,186.101 314.44,186.101 315.43,186.101 316.42,186.101 317.41,186.101 318.4,186.101 319.39,186.101 320.38,186.101 321.37,186.101 322.36,186.101 323.35,186.101 323.35,238.349 324.34,238.349 325.33,238.349 326.32,238.349 327.31,238.349 328.3,238.349 329.29,238.349 330.28,238.349 331.27,238.349 332.26,238.349 333.25,238.349 333.25,238.349 334.24,238.349 335.23,238.349 336.22,238.349 337.21,238.349 338.2,238.349 339.19,238.349 340.18,238.349 341.17,238.349 342.16,238.349 343.15,238.349 344.14,238.349 345.13,238.349 346.12,238.349 347.11,238.349 348.1,238.349 349.09,238.349 350.08,238.349 351.07,238.349 352.06,238.349 353.05,238.349 354.04,238.349 355.03,238.349 356.02,238.349 357.01,238.349 358,238.349 358,238.349 358.99,238.349 359.98,238.349 360.97,238.349 361.96,238.349 362.95,238.349 363.94,238.349 364.93,238.349 365.92,238.349 366.91,238.349 367.9,238.349 368.89,238.349 369.88,238.349 370.87,238.349 371.86,238.349 372.85,238.349 372.85,238.349 373.84,238.349 374.83,238.349 375.82,238.349 376.81,238.349 377.8,238.349 378.79,238.349 379.78,238.349 380.77,238.349 381.76,238.349 382.75,238.349 383.74,238.349 384.73,238.349 385.72,238.349 386.71,238.349 387.7,238.349 388.69,238.349 389.68,238.349 390.67,238.349 391.66,238.349 392.65,238.349 393.64,238.349 394.63,238.349 395.62,238.349 396.61,238.349 397.6,238.349 398.59,238.349 399.58,238.349 400.57,238.349 401.56,238.349 402.55,238.349 403.54,238.349 404.53,238.349 405.52,238.349 406.51,238.349 407.5,238.349 407.5,238.349 408.49,238.349 409.48,238.349 410.47,238.349 411.46,238.349 412.45,238.349 413.44,238.349 414.43,238.349 415.42,238.349 416.41,238.349 417.4,238.349 418.39,238.349 419.38,238.349 420.37,238.349 421.36,238.349 422.35,238.349 422.35,238.349 423.34,238.349 424.33,238.349 425.32,238.349 426.31,238.349 427.3,238.349 428.29,238.349 429.28,238.349 430.27,238.349 431.26,238.349 432.25,238.349 433.24,238.349 434.23,238.349 435.22,238.349 436.21,238.349 437.2,238.349 438.19,238.349 439.18,238.349 440.17,238.349 441.16,238.349 442.15,238.349 443.14,238.349 444.13,238.349 445.12,238.349 446.11,238.349 447.1,238.349 448.09,238.349 449.08,238.349 450.07,238.349 451.06,238.349 452.05,238.349 453.04,238.349 454.03,238.349 455.02,238.349 456.01,238.349 457,238.349 457,186.101 457.99,186.101 458.98,186.101 459.97,186.101 460.96,186.101 461.95,186.101 462.94,186.101 463.93,186.101 464.92,186.101 465.91,186.101 466.9,186.101 467.89,186.101 468.88,186.101 469.87,186.101 470.86,186.101 471.85,186.101 471.85,238.349 472.84,238.349 473.83,238.349 474.82,238.349 475.81,238.349 476.8,238.349 477.79,238.349 478.78,238.349 479.77,238.349 480.76,238.349 481.75,238.349 482.74,238.349 483.73,238.349 484.72,238.349 485.71,238.349 486.7,238.349 487.69,238.349 488.68,238.349 489.67,238.349 490.66,238.349 491.65,238.349 492.64,238.349 493.63,238.349 494.62,238.349 495.61,238.349 496.6,238.349 497.59,238.349 498.58,238.349 499.57,238.349 500.56,238.349 501.55,238.349 502.54,238.349 503.53,238.349 504.52,238.349 505.51,238.349 506.5,238.349 506.5,186.101 507.49,186.101 508.48,186.101 509.47,186.101 510.46,186.101 511.45,186.101 512.44,186.101 513.43,186.101 514.42,186.101 515.41,186.101 516.4,186.101 517.39,186.101 518.38,186.101 519.37,186.101 520.36,186.101 521.35,186.101 521.35,238.349 522.34,238.349 523.33,238.349 524.32,238.349 525.31,238.349 526.3,238.349 527.29,238.349 528.28,238.349 529.27,238.349 530.26,238.349 531.25,238.349 531.25,238.349 532.24,238.349 533.23,238.349 534.22,238.349 535.21,238.349 536.2,238.349 537.19,238.349 538.18,238.349 539.17,238.349 540.16,238.349 541.15,238.349 542.14,238.349 543.13,238.349 544.12,238.349 545.11,238.349 546.1,238.349 547.09,238.349 548.08,238.349 549.07,238.349 550.06,238.349 551.05,238.349 552.04,238.349 553.03,238.349 554.02,238.349 555.01,238.349 556,238.349 556,238.349"/>
	<polyline fill="none" stroke="rgb(28,108,200)" stroke-width="1" stroke-opacity="1" clip-path="url(#clipArea1)" points="61,259.55 61.99,259.55 62.98,259.55 63.97,259.55 64.96,259.55 65.95,259.55 66.94,259.55 67.93,259.55 68.92,259.55 69.91,259.55 70.9,259.55 71.89,259.55 72.88,259.55 73.87,259.55 74.86,259.55 75.85,259.55 75.85,259.55 76.84,259.55 77.83,259.55 78.82,259.55 79.81,259.55 80.8,259.55 81.79,259.55 82.78,259.55 83.77,259.55 84.76,259.55 85.75,259.55 86.74,259.55 87.73,259.55 88.72,259.55 89.71,259.55 90.7,259.55 91.69,259.55 92.68,259.55 93.67,259.55 94.66,259.55 95.65,259.55 96.64,259.55 97.63,259.55 98.62,259.55 99.61,259.55 100.6,259.55 101.59,259.55 102.58,259.55 103.57,259.55 104.56,259.55 105.55,259.55 106.54,259.55 107.53,259.55 108.52,259.55 109.51,259.55 110.5,259.55 110.5,259.55 111.49,259.55 112.48,259.55 113.47,259.55 114.46,259.55 115.45,259.55 116.44,259.55 117.43,259.55 118.42,259.55 119.41,259.55 120.4,259.55 121.39,259.55 122.38,259.55 123.37,259.55 124.36,259.55 125.35,259.55 125.35,259.55 126.34,259.55 127.33,259.55 128.32,259.55 129.31,259.55 130.3,259.55 131.29,259.55 132.28,259.55 133.27,259.55 134.26,259.55 135.25,259.55 136.24,259.55 137.23,259.55 138.22,259.55 139.21,259.55 140.2,259.55 141.19,259.55 142.18,259.55 143.17,259.55 144.16,259.55 145.15,259.55 146.14,259.55 147.13,259.55 148.12,259.55 149.11,259.55 150.1,259.55 151.09,259.55 152.08,259.55 153.07,259.55 154.06,259.55 155.05,259.55 156.04,259.55 157.03,259.55 158.02,259.55 159.01,259.55 160,259.55 160,311.798 160.99,311.798 161.98,311.798 162.97,311.798 163.96,311.798 164.95,311.798 165.94,311.798 166.93,311.798 167.92,311.798 168.91,311.798 169.9,311.798 170.89,311.798 171.88,311.798 172.87,311.798 173.86,311.798 174.85,311.798 174.85,311.798 175.84,311.798 176.83,311.798 177.82,311.798 178.81,311.798 179.8,311.798 180.79,311.798 181.78,311.798 182.77,311.798 183.76,311.798 184.75,311.798 185.74,311.798 186.73,311.798 187.72,311.798 188.71,311.798 189.7,311.798 190.69,311.798 191.68,311.798 192.67,311.798 193.66,311.798 194.65,311.798 195.64,311.798 196.63,311.798 197.62,311.798 198.61,311.798 199.6,311.798 200.59,311.798 201.58,311.798 202.57,311.798 203.56,311.798 204.55,311.798 205.54,311.798 206.53,311.798 207.52,311.798 208.51,311.798 209.5,311.798 209.5,311.798 210.49,311.798 211.48,311.798 212.47,311.798 213.46,311.798 214.45,311.798 215.44,311.798 216.43,311.798 217.42,311.798 218.41,311.798 219.4,311.798 220.39,311.798 221.38,311.798 222.37,311.798 223.36,311.798 224.35,311.798 224.35,311.798 225.34,311.798 226.33,311.798 227.32,311.798 228.31,311.798 229.3,311.798 230.29,311.798 231.28,311.798 232.27,311.798 233.26,311.798 234.25,311.798 235.24,311.798 236.23,311.798 237.22,311.798 238.21,311.798 239.2,311.798 240.19,311.798 241.18,311.798 242.17,311.798 243.16,311.798 244.15,311.798 245.14,311.798 246.13,311.798 247.12,311.798 248.11,311.798 249.1,311.798 250.09,311.798 251.08,311.798 252.07,311.798 253.06,311.798 254.05,311.798 255.04,311.798 256.03,311.798 257.02,311.798 258.01,311.798 259,311.798 259,311.798 259.99,311.798 260.98,311.798 261.97,311.798 262.96,311.798 263.95,311.798 264.94,311.798 265.93,311.798 266.92,311.798 267.91,311.798 268.9,311.798 269.89,311.798 270.88,311.798 271.87,311.798 272.86,311.798 273.85,311.798 273.85,311.798 274.84,311.798 275.83,311.798 276.82,311.798 277.81,311.798 278.8,311.798 279.79,311.798 280.78,311.798 281.77,311.798 282.76,311.798 283.75,311.798 284.74,311.798 285.73,311.798 286.72,311.798 287.71,311.798 288.7,311.798 289.69,311.798 290.68,311.798 291.67,311.798 292.66,311.798 293.65,311.798 294.64,311.798 295.63,311.798 296.62,311.798 297.61,311.798 298.6,311.798 299.59,311.798 300.58,311.798 301.57,311.798 302.56,311.798 303.55,311.798 304.54,311.798 305.53,311.798 306.52,311.798 307.51,311.798 308.5,311.798 308.5,311.798 309.49,311.798 310.48,311.798 311.47,311.798 312.46,311.798 313.45,311.798 314.44,311.798 315.43,311.798 316.42,311.798 317.41,311.798 318.4,311.798 319.39,311.798 320.38,311.798 321.37,311.798 322.36,311.798 323.35,311.798 323.35,311.798 324.34,311.798 325.33,311.798 326.32,311.798 327.31,311.798 328.3,311.798 329.29,311.798 330.28,311.798 331.27,311.798 332.26,311.798 333.25,311.798 333.25,259.55 334.24,259.55 335.23,259.55 336.22,259.55 337.21,259.55 338.2,259.55 339.19,259.55 340.18,259.55 341.17,259.55 342.16,259.55 343.15,259.55 344.14,259.55 345.13,259.55 346.12,259.55 347.11,259.55 348.1,259.55 349.09,259.55 350.08,259.55 351.07,259.55 352.06,259.55 353.05,259.55 354.04,259.55 355.03,259.55 356.02,259.55 357.01,259.55 358,259.55 358,311.798 358.99,311.798 359.98,311.798 360.97,311.798 361.96,311.798 362.95,311.798 363.94,311.798 364.93,311.798 365.92,311.798 366.91,311.798 367.9,311.798 368.89,311.798 369.88,311.798 370.87,311.798 371.86,311.798 372.85,311.798 372.85,311.798 373.84,311.798 374.83,311.798 375.82,311.798 376.81,311.798 377.8,311.798 378.79,311.798 379.78,311.798 380.77,311.798 381.76,311.798 382.75,311.798 383.74,311.798 384.73,311.798 385.72,311.798 386.71,311.798 387.7,311.798 388.69,311.798 389.68,311.798 390.67,311.798 391.66,311.798 392.65,311.798 393.64,311.798 394.63,311.798 395.62,311.798 396.61,311.798 397.6,311.798 398.59,311.798 399.58,311.798 400.57,311.798 401.56,311.798 402.55,311.798 403.54,311.798 404.53,311.798 405.52,311.798 406.51,311.798 407.5,311.798 407.5,311.798 408.49,311.798 409.48,311.798 410.47,311.798 411.46,311.798 412.45,311.798 413.44,311.798 414.43,311.798 415.42,311.798 416.41,311.798 417.4,311.798 418.39,311.798 419.38,311.798 420.37,311.798 421.36,311.798 422.35,311.798 422.35,311.798 423.34,311.798 424.33,311.798 425.32,311.798 426.31,311.798 427.3,311.798 428.29,311.798 429.28,311.798 430.27,311.798 431.26,311.798 432.25,311.798 433.24,311.798 434.23,311.798 435.22,311.798 436.21,311.798 437.2,311.798 438.19,311.798 439.18,311.798 440.17,311.798 441.16,311.798 442.15,311.798 443.14,311.798 444.13,311.798 445.12,311.798 446.11,311.798 447.1,311.798 448.09,311.798 449.08,311.798 450.07,311.798 451.06,311.798 452.05,311.798 453.04,311.798 454.03,311.798 455.02,311.798 456.01,311.798 457,311.798 457,311.798 457.99,311.798 458.98,311.798 459.97,311.798 460.96,311.798 461.95,311.798 462.94,311.798 463.93,311.798 464.92,311.798 465.91,311.798 466.9,311.798 467.89,311.798 468.88,311.798 469.87,311.798 470.86,311.798 471.85,311.798 471.85,311.798 472.84,311.798 473.83,311.798 474.82,311.798 475.81,311.798 476.8,311.798 477.79,311.798 478.78,311.798 479.77,311.798 480.76,311.798 481.75,311.798 482.74,311.798 483.73,311.798 484.72,311.798 485.71,311.798 486.7,311.798 487.69,311.798 488.68,311.798 489.67,311.798 490.66,311.798 491.65,311.798 492.64,311.798 493.63,311.798 494.62,311.798 495.61,311.798 496.6,311.798 497.59,311.798 498.58,311.798 499.57,311.798 500.56,311.798 501.55,311.798 502.54,311.798 503.53,311.798 504.52,311.798 505.51,311.798 506.5,311.798 506.5,311.798 507.49,311.798 508.48,311.798 509.47,311.798 510.46,311.798 511.45,311.798 512.44,311.798 513.43,311.798 514.42,311.798 515.41,311.798 516.4,311.798 517.39,311.798 518.38,311.798 519.37,311.798 520.36,311.798 521.35,311.798 521.35,311.798 522.34,311.798 523.33,311.798 524.32,311.798 525.31,311.798 526.3,311.798 527.29,311.798 528.28,311.798 529.27,311.798 530.26,311.798 531.25,311.798 531.25,259.55 532.24,259.55 533.23,259.55 534.22,259.55 535.21,259.55 536.2,259.55 537.19,259.55 538.18,259.55 539.17,259.55 540.16,259.55 541.15,259.55 542.14,259.55 543.13,259.55 544.12,259.55 545.11,259.55 546.1,259.55 547.09,259.55 548.08,259.55 549.07,259.55 550.06,259.55 551.05,259.55 552.04,259.55 553.03,259.55 554.02,259.55 555.01,259.55 556,259.55 556,311.798"/>
	<text fill="rgb(0,0,0)" font-size="13" font-family="Arial" text-anchor="start" dominant-baseline="central" x="64" y="30.5">u1</text>
	<text fill="rgb(0,0,0)" font-size="13" font-family="Arial" text-anchor="start" dominant-baseline="central" x="64" y="103.5">u2</text>
	<text fill="rgb(0,0,0)" font-size="13" font-family="Arial" text-anchor="start" dominant-baseline="central" x="64" y="177.5">y1</text>
	<text fill="rgb(0,0,0)" font-size="13" font-family="Arial" text-anchor="start" dominant-baseline="central" x="64" y="250.5">y2</text>
</svg>
