<?xml version="1.0" standalone="no"?>
<!DOCTYPE svg PUBLIC "-//W3C//DTD SVG 1.1//EN" "http://www.w3.org/Graphics/SVG/1.1/DTD/svg11.dtd">
<svg viewBox="-11.4 -11.4 468.8 250.8" version="1.1" xmlns="http://www.w3.org/2000/svg" xmlns:xlink="http://www.w3.org/1999/xlink">
	<rect fill="rgb(255,255,255)" stroke="rgb(95,95,95)" stroke-width="2" stroke-opacity="1" x="168.56" y="57.16" rx="8.08" ry="8.08" width="48.48" height="48.48"/>
	<rect fill="rgb(255,255,255)" stroke="rgb(0,0,127)" stroke-opacity="1" x="172.6" y="61.2" width="40.4" height="40.4"/>
	<text fill="rgb(0,0,255)" font-size="10" font-family="Arial" text-anchor="middle" dominant-baseline="central" x="192.8" y="55.14">asin1</text>
	<polygon fill="rgb(192,192,192)" stroke="rgb(192,192,192)" stroke-opacity="1" points="192.8,63.22 191.184,67.664 194.416,67.664 192.8,63.22"/>
	<polyline fill="none" stroke="rgb(192,192,192)" stroke-opacity="1" points="192.8,97.56 192.8,67.664"/>
	<polyline fill="none" stroke="rgb(0,0,0)" stroke-opacity="1" points="176.64,97.56 176.68,97.1964 176.688,97.1266 176.695,97.0626 176.702,97.0045 176.708,96.9522 176.713,96.9058 176.717,96.8651 176.721,96.8304 176.725,96.8014 176.727,96.7783 176.729,96.761 176.729,96.761 176.729,96.761 176.731,96.7467 176.733,96.7324 176.734,96.7182 176.736,96.7039 176.738,96.6898 176.74,96.6756 176.742,96.6615 176.743,96.6475 176.745,96.6334 176.747,96.6194 176.747,96.6194 176.747,96.6194 176.749,96.6055 176.751,96.5916 176.753,96.5777 176.755,96.5639 176.757,96.5501 176.759,96.5363 176.76,96.5226 176.762,96.5089 176.764,96.4953 176.766,96.4817 176.766,96.4817 176.766,96.4817 176.768,96.4681 176.771,96.4546 176.773,96.4411 176.775,96.4276 176.777,96.4142 176.779,96.4009 176.781,96.3875 176.783,96.3742 176.785,96.361 176.787,96.3477 176.787,96.3477 176.787,96.3477 176.79,96.3346 176.792,96.3214 176.794,96.3083 176.796,96.2953 176.799,96.2822 176.801,96.2692 176.803,96.2563 176.805,96.2434 176.808,96.2305 176.81,96.2177 176.81,96.2177 176.81,96.2177 176.812,96.2049 176.815,96.1921 176.817,96.1794 176.82,96.1667 176.822,96.1541 176.824,96.1414 176.827,96.1289 176.829,96.1164 176.832,96.1039 176.834,96.0914 176.834,96.0914 176.834,96.0914 176.837,96.079 176.839,96.0666 176.842,96.0543 176.844,96.042 176.847,96.0297 176.85,96.0175 176.852,96.0053 176.855,95.9932 176.858,95.9811 176.86,95.969 176.86,95.969 176.86,95.969 176.863,95.957 176.866,95.945 176.868,95.933 176.871,95.9211 176.874,95.9092 176.876,95.8974 176.879,95.8856 176.882,95.8738 176.885,95.8621 176.888,95.8504 176.888,95.8504 176.888,95.8504 176.89,95.8388 176.893,95.8272 176.896,95.8156 176.899,95.8041 176.902,95.7926 176.905,95.7811 176.908,95.7697 176.911,95.7583 176.914,95.747 176.917,95.7357 176.917,95.7357 176.917,95.7357 176.92,95.7244 176.923,95.7132 176.926,95.702 176.929,95.6909 176.932,95.6798 176.935,95.6687 176.938,95.6577 176.941,95.6467 176.944,95.6357 176.947,95.6248 176.947,95.6248 176.947,95.6248 176.951,95.6139 176.954,95.603 176.957,95.5921 176.96,95.5811 176.964,95.5702 176.967,95.5592 176.97,95.5483 176.974,95.5373 176.977,95.5263 176.981,95.5154 176.981,95.5154 176.981,95.5154 176.984,95.5043 176.988,95.4933 176.991,95.4821 176.995,95.4709 176.999,95.4597 177.002,95.4484 177.006,95.437 177.01,95.4256 177.014,95.4142 177.018,95.4026 177.018,95.4026 177.018,95.4026 177.022,95.3911 177.026,95.3794 177.03,95.3677 177.034,95.356 177.038,95.3442 177.042,95.3323 177.047,95.3204 177.051,95.3084 177.055,95.2964 177.06,95.2843 177.06,95.2843 177.06,95.2843 177.064,95.2721 177.069,95.2599 177.073,95.2477 177.078,95.2353 177.083,95.223 177.087,95.2105 177.092,95.198 177.097,95.1855 177.102,95.1729 177.107,95.1602 177.107,95.1602 177.107,95.1602 177.112,95.1475 177.117,95.1348 177.122,95.1219 177.127,95.109 177.132,95.0961 177.137,95.0831 177.142,95.0701 177.148,95.0569 177.153,95.0438 177.158,95.0306 177.158,95.0306 177.158,95.0306 177.164,95.0173 177.169,95.0039 177.175,94.9905 177.18,94.9771 177.186,94.9636 177.192,94.95 177.197,94.9364 177.203,94.9227 177.209,94.909 177.215,94.8952 177.215,94.8952 177.215,94.8952 177.221,94.8814 177.227,94.8675 177.233,94.8535 177.239,94.8395 177.245,94.8254 177.251,94.8113 177.257,94.7971 177.264,94.7829 177.27,94.7686 177.276,94.7542 177.276,94.7542 177.276,94.7542 177.283,94.7398 177.289,94.7253 177.296,94.7108 177.302,94.6962 177.309,94.6816 177.315,94.6669 177.322,94.6522 177.329,94.6374 177.336,94.6225 177.343,94.6076 177.343,94.6076 177.343,94.6076 177.349,94.5926 177.356,94.5776 177.363,94.5625 177.37,94.5473 177.378,94.5321 177.385,94.5169 177.392,94.5015 177.399,94.4862 177.406,94.4707 177.414,94.4553 177.414,94.4553 177.414,94.4553 177.421,94.4397 177.428,94.4241 177.436,94.4085 177.443,94.3928 177.451,94.377 177.459,94.3612 177.466,94.3453 177.474,94.3293 177.482,94.3133 177.49,94.2973 177.49,94.2973 177.49,94.2973 177.497,94.2812 177.505,94.2651 177.513,94.2489 177.521,94.2326 177.53,94.2164 177.538,94.2 177.546,94.1837 177.554,94.1673 177.562,94.1508 177.571,94.1343 177.571,94.1343 177.571,94.1343 177.579,94.1178 177.588,94.1012 177.596,94.0847 177.605,94.068 177.614,94.0514 177.623,94.0347 177.631,94.018 177.64,94.0013 177.649,93.9845 177.658,93.9677 177.658,93.9677 177.658,93.9677 177.667,93.9509 177.677,93.934 177.686,93.9171 177.695,93.9002 177.705,93.8832 177.714,93.8662 177.724,93.8492 177.733,93.8322 177.743,93.8151 177.752,93.798 177.752,93.798 177.752,93.798 177.762,93.7809 177.772,93.7637 177.782,93.7465 177.792,93.7293 177.802,93.712 177.812,93.6947 177.822,93.6774 177.833,93.6601 177.843,93.6427 177.853,93.6253 177.853,93.6253 177.853,93.6253 177.864,93.6079 177.874,93.5904 177.885,93.5729 177.895,93.5554 177.906,93.5378 177.917,93.5202 177.928,93.5026 177.939,93.4849 177.95,93.4673 177.961,93.4496 177.961,93.4496 177.961,93.4496 177.972,93.4318 177.983,93.414 177.994,93.3962 178.006,93.3784 178.017,93.3605 178.028,93.3427 178.04,93.3247 178.051,93.3068 178.063,93.2888 178.075,93.2708 178.075,93.2708 178.075,93.2708 178.087,93.2527 178.098,93.2347 178.11,93.2166 178.122,93.1984 178.134,93.1803 178.147,93.1621 178.159,93.1438 178.171,93.1256 178.183,93.1073 178.196,93.089 178.196,93.089 178.196,93.089 178.208,93.0706 178.221,93.0523 178.233,93.0339 178.246,93.0154 178.259,92.9969 178.271,92.9784 178.284,92.9599 178.297,92.9414 178.31,92.9228 178.323,92.9042 178.323,92.9042 178.323,92.9042 178.336,92.8855 178.349,92.8668 178.363,92.8481 178.376,92.8294 178.389,92.8106 178.403,92.7918 178.416,92.773 178.43,92.7541 178.444,92.7352 178.457,92.7163 178.457,92.7163 178.457,92.7163 178.471,92.6973 178.485,92.6784 178.499,92.6593 178.513,92.6403 178.527,92.6212 178.541,92.6021 178.555,92.583 178.569,92.5638 178.584,92.5446 178.598,92.5254 178.598,92.5254 178.598,92.5254 178.612,92.5061 178.627,92.4868 178.642,92.4675 178.656,92.4481 178.671,92.4286 178.686,92.4092 178.701,92.3896 178.716,92.3701 178.731,92.3504 178.747,92.3308 178.747,92.3308 178.747,92.3308 178.762,92.3111 178.777,92.2913 178.793,92.2715 178.809,92.2516 178.825,92.2316 178.84,92.2116 178.856,92.1915 178.873,92.1714 178.889,92.1512 178.905,92.131 178.905,92.131 178.905,92.131 178.922,92.1107 178.938,92.0903 178.955,92.0699 178.972,92.0494 178.989,92.0289 179.006,92.0083 179.023,91.9877 179.04,91.967 179.057,91.9462 179.075,91.9254 179.075,91.9254 179.075,91.9254 179.092,91.9045 179.11,91.8835 179.128,91.8625 179.146,91.8415 179.164,91.8203 179.182,91.7992 179.2,91.7779 179.219,91.7566 179.237,91.7353 179.256,91.7139 179.256,91.7139 179.256,91.7139 179.274,91.6924 179.293,91.6709 179.312,91.6493 179.331,91.6276 179.35,91.6059 179.369,91.5842 179.389,91.5623 179.408,91.5405 179.428,91.5185 179.448,91.4965 179.448,91.4965 179.448,91.4965 179.467,91.4745 179.487,91.4523 179.507,91.4302 179.527,91.4079 179.548,91.3856 179.568,91.3633 179.588,91.3409 179.609,91.3184 179.63,91.2959 179.651,91.2733 179.651,91.2733 179.651,91.2733 179.671,91.2507 179.692,91.228 179.714,91.2052 179.735,91.1824 179.756,91.1595 179.778,91.1366 179.799,91.1136 179.821,91.0905 179.843,91.0674 179.865,91.0442 179.865,91.0442 179.865,91.0442 179.887,91.021 179.909,90.9977 179.931,90.9744 179.953,90.951 179.976,90.9275 179.998,90.904 180.021,90.8804 180.044,90.8568 180.067,90.8331 180.09,90.8093 180.09,90.8093 180.09,90.8093 180.113,90.7855 180.136,90.7616 180.16,90.7377 180.183,90.7137 180.207,90.6897 180.23,90.6655 180.254,90.6414 180.278,90.6172 180.302,90.5929 180.326,90.5685 180.326,90.5685 180.326,90.5685 180.35,90.5441 180.375,90.5197 180.399,90.4951 180.424,90.4706 180.449,90.4459 180.473,90.4212 180.498,90.3965 180.523,90.3717 180.548,90.3468 180.574,90.3219 180.574,90.3219 180.574,90.3219 180.598,90.2982 180.619,90.277 180.638,90.2582 180.655,90.242 180.669,90.2283 180.68,90.2171 180.689,90.2083 180.695,90.2021 180.699,90.1983 180.7,90.1971 180.7,90.1971 180.7,90.1971 180.702,90.1958 180.706,90.1919 180.712,90.1855 180.722,90.1765 180.734,90.1649 180.749,90.1507 180.766,90.134 180.786,90.1147 180.809,90.0928 180.835,90.0683 180.835,90.0683 180.835,90.0683 180.862,90.0425 180.889,90.0165 180.916,89.9905 180.944,89.9644 180.972,89.9382 181,89.9118 181.028,89.8854 181.057,89.8589 181.086,89.8322 181.115,89.8055 181.115,89.8055 181.115,89.8055 181.144,89.7786 181.173,89.7517 181.203,89.7246 181.232,89.6975 181.262,89.6702 181.293,89.6428 181.323,89.6154 181.354,89.5878 181.384,89.5601 181.416,89.5324 181.416,89.5324 181.416,89.5324 181.447,89.5045 181.478,89.4765 181.51,89.4484 181.542,89.4202 181.574,89.392 181.606,89.3636 181.639,89.3351 181.672,89.3065 181.705,89.2778 181.738,89.249 181.738,89.249 181.738,89.249 181.771,89.2201 181.805,89.191 181.839,89.1619 181.873,89.1327 181.907,89.1034 181.941,89.074 181.976,89.0444 182.011,89.0148 182.046,88.9851 182.081,88.9553 182.081,88.9553 182.081,88.9553 182.117,88.9253 182.152,88.8953 182.188,88.8651 182.224,88.8349 182.261,88.8045 182.297,88.7741 182.334,88.7435 182.371,88.7129 182.408,88.6821 182.446,88.6512 182.446,88.6512 182.446,88.6512 182.483,88.6203 182.521,88.5892 182.559,88.558 182.598,88.5268 182.636,88.4954 182.675,88.4639 182.714,88.4323 182.753,88.4006 182.792,88.3688 182.832,88.3369 182.832,88.3369 182.832,88.3369 182.871,88.3049 182.911,88.2728 182.951,88.2406 182.992,88.2083 183.032,88.1759 183.073,88.1434 183.114,88.1108 183.155,88.0781 183.197,88.0452 183.239,88.0123 183.239,88.0123 183.239,88.0123 183.28,87.9793 183.323,87.9462 183.365,87.9129 183.407,87.8796 183.45,87.8461 183.493,87.8126 183.536,87.779 183.579,87.7452 183.623,87.7114 183.667,87.6774 183.667,87.6774 183.667,87.6774 183.711,87.6433 183.755,87.6092 183.799,87.5749 183.844,87.5406 183.889,87.5061 183.934,87.4715 183.979,87.4368 184.025,87.4021 184.07,87.3672 184.116,87.3322 184.116,87.3322 184.116,87.3322 184.16,87.2989 184.199,87.2691 184.234,87.2428 184.263,87.2201 184.289,87.2008 184.309,87.185 184.326,87.1728 184.337,87.164 184.344,87.1588 184.346,87.157 184.346,87.157 184.346,87.157 184.349,87.1551 184.357,87.1493 184.369,87.1398 184.388,87.1264 184.411,87.1092 184.439,87.0881 184.473,87.0632 184.511,87.0345 184.555,87.002 184.604,86.9657 184.604,86.9657 184.604,86.9657 184.656,86.9271 184.709,86.888 184.763,86.8484 184.817,86.8082 184.873,86.7675 184.929,86.7263 184.987,86.6845 185.045,86.6421 185.104,86.5992 185.164,86.5558 185.164,86.5558 185.164,86.5558 185.225,86.5118 185.287,86.4673 185.35,86.4222 185.413,86.3766 185.478,86.3305 185.543,86.2838 185.609,86.2366 185.677,86.1888 185.745,86.1405 185.814,86.0916 185.814,86.0916 185.814,86.0916 185.884,86.0422 185.954,85.9922 186.026,85.9417 186.099,85.8907 186.172,85.8391 186.247,85.787 186.322,85.7343 186.398,85.6811 186.475,85.6274 186.553,85.5731 186.553,85.5731 186.553,85.5731 186.632,85.5182 186.711,85.4628 186.792,85.4069 186.874,85.3504 186.956,85.2934 187.039,85.2359 187.124,85.1778 187.209,85.1191 187.295,85.0599 187.382,85.0002 187.382,85.0002 187.382,85.0002 187.469,84.9399 187.558,84.8791 187.648,84.8177 187.738,84.7558 187.829,84.6934 187.922,84.6304 188.015,84.5669 188.109,84.5028 188.204,84.4382 188.3,84.373 188.3,84.373 188.3,84.373 188.396,84.3073 188.494,84.241 188.592,84.1742 188.692,84.1069 188.792,84.039 188.893,83.9706 188.995,83.9016 189.098,83.8321 189.202,83.762 189.307,83.6914 189.307,83.6914 189.307,83.6914 189.413,83.6203 189.519,83.5486 189.627,83.4764 189.735,83.4036 189.845,83.3303 189.955,83.2564 190.066,83.182 190.178,83.1071 190.29,83.0316 190.404,82.9556 190.404,82.9556 190.404,82.9556 190.519,82.879 190.634,82.8019 190.751,82.7242 190.868,82.646 190.986,82.5672 191.105,82.4879 191.225,82.4081 191.346,82.3277 191.468,82.2468 191.591,82.1653 191.591,82.1653 191.591,82.1653 191.714,82.0833 191.839,82.0008 191.964,81.9177 192.09,81.834 192.218,81.7498 192.346,81.6651 192.475,81.5798 192.604,81.494 192.735,81.4077 192.867,81.3208 192.867,81.3208 192.867,81.3208 192.992,81.238 193.105,81.1639 193.204,81.0985 193.289,81.0418 193.362,80.9939 193.422,80.9546 193.468,80.9241 193.501,80.9023 193.521,80.8893 193.527,80.8849 193.527,80.8849 193.527,80.8849 193.534,80.8805 193.554,80.8675 193.586,80.8457 193.633,80.8153 193.692,80.7761 193.764,80.7283 193.85,80.6717 193.949,80.6065 194.061,80.5325 194.186,80.4498 194.186,80.4498 194.186,80.4498 194.317,80.3631 194.448,80.277 194.577,80.1914 194.705,80.1064 194.833,80.022 194.959,79.9381 195.085,79.8549 195.209,79.7722 195.333,79.6901 195.456,79.6085 195.456,79.6085 195.456,79.6085 195.577,79.5275 195.698,79.4472 195.818,79.3673 195.937,79.2881 196.054,79.2094 196.171,79.1313 196.287,79.0538 196.402,78.9769 196.516,78.9005 196.629,78.8248 196.629,78.8248 196.629,78.8248 196.741,78.7495 196.852,78.6749 196.963,78.6009 197.072,78.5274 197.18,78.4545 197.287,78.3821 197.394,78.3104 197.499,78.2392 197.603,78.1686 197.707,78.0986 197.707,78.0986 197.707,78.0986 197.809,78.0291 197.911,77.9602 198.011,77.8919 198.111,77.8242 198.21,77.7571 198.307,77.6905 198.404,77.6245 198.5,77.5591 198.595,77.4942 198.689,77.4299 198.689,77.4299 198.689,77.4299 198.781,77.3662 198.873,77.3031 198.964,77.2406 199.054,77.1786 199.143,77.1172 199.232,77.0564 199.319,76.9962 199.405,76.9365 199.49,76.8774 199.574,76.8189 199.574,76.8189 199.574,76.8189 199.658,76.761 199.74,76.7036 199.821,76.6468 199.902,76.5906 199.981,76.535 200.06,76.4799 200.137,76.4254 200.214,76.3715 200.289,76.3182 200.364,76.2654 200.364,76.2654 200.364,76.2654 200.438,76.2132 200.511,76.1616 200.582,76.1106 200.653,76.0601 200.723,76.0103 200.792,75.961 200.86,75.9122 200.927,75.8641 200.993,75.8165 201.058,75.7695 201.058,75.7695 201.058,75.7695 201.122,75.7231 201.185,75.6772 201.247,75.632 201.309,75.5873 201.369,75.5431 201.428,75.4996 201.487,75.4566 201.544,75.4142 201.6,75.3724 201.656,75.3312 201.656,75.3312 201.656,75.3312 201.71,75.2905 201.764,75.2504 201.817,75.2109 201.868,75.1719 201.919,75.1336 201.969,75.0958 202.017,75.0586 202.065,75.0219 202.112,74.9859 202.158,74.9504 202.158,74.9504 202.158,74.9504 202.203,74.9154 202.248,74.8807 202.292,74.8463 202.335,74.8122 202.378,74.7785 202.42,74.7451 202.462,74.7121 202.503,74.6793 202.543,74.6469 202.583,74.6149 202.583,74.6149 202.583,74.6149 202.623,74.583 202.662,74.5512 202.702,74.5195 202.741,74.4879 202.78,74.4564 202.818,74.4249 202.857,74.3936 202.895,74.3623 202.933,74.3311 202.971,74.3 202.971,74.3 202.971,74.3 203.009,74.2689 203.047,74.238 203.084,74.2071 203.122,74.1763 203.159,74.1456 203.196,74.115 203.232,74.0844 203.269,74.054 203.305,74.0236 203.342,73.9933 203.342,73.9933 203.342,73.9933 203.378,73.9631 203.413,73.933 203.449,73.9029 203.485,73.873 203.52,73.8431 203.555,73.8133 203.59,73.7836 203.625,73.754 203.659,73.7244 203.694,73.695 203.694,73.695 203.694,73.695 203.728,73.6656 203.762,73.6363 203.796,73.6071 203.829,73.5779 203.863,73.5489 203.896,73.5199 203.929,73.491 203.962,73.4622 203.995,73.4335 204.028,73.4049 204.028,73.4049 204.028,73.4049 204.06,73.3763 204.092,73.3479 204.124,73.3195 204.156,73.2912 204.188,73.263 204.22,73.2348 204.251,73.2068 204.282,73.1788 204.313,73.1509 204.344,73.1231 204.344,73.1231 204.344,73.1231 204.374,73.0954 204.405,73.0677 204.435,73.0402 204.465,73.0127 204.495,72.9853 204.525,72.958 204.554,72.9308 204.584,72.9036 204.613,72.8766 204.642,72.8496 204.642,72.8496 204.642,72.8496 204.671,72.8227 204.699,72.7959 204.728,72.7692 204.756,72.7425 204.784,72.7159 204.812,72.6895 204.84,72.6631 204.868,72.6367 204.895,72.6105 204.922,72.5844 204.922,72.5844 204.922,72.5844 204.949,72.5583 204.976,72.5323 205.003,72.5064 205.029,72.4806 205.056,72.4549 205.082,72.4292 205.108,72.4036 205.133,72.3781 205.159,72.3527 205.184,72.3274 205.184,72.3274 205.184,72.3274 205.21,72.3022 205.235,72.277 205.26,72.252 205.284,72.227 205.309,72.2021 205.333,72.1772 205.357,72.1525 205.381,72.1278 205.405,72.1033 205.429,72.0788 205.429,72.0788 205.429,72.0788 205.452,72.0543 205.475,72.03 205.499,72.0057 205.522,71.9815 205.544,71.9573 205.567,71.9332 205.59,71.9092 205.612,71.8852 205.635,71.8614 205.657,71.8375 205.657,71.8375 205.657,71.8375 205.679,71.8138 205.701,71.79 205.723,71.7664 205.745,71.7427 205.767,71.7191 205.788,71.6956 205.81,71.6721 205.831,71.6487 205.852,71.6253 205.874,71.602 205.874,71.602 205.874,71.602 205.895,71.5787 205.916,71.5555 205.937,71.5323 205.958,71.5091 205.979,71.486 205.999,71.463 206.02,71.44 206.04,71.4171 206.061,71.3942 206.081,71.3713 206.081,71.3713 206.081,71.3713 206.101,71.3485 206.121,71.3258 206.141,71.303 206.161,71.2804 206.181,71.2578 206.201,71.2352 206.22,71.2127 206.24,71.1902 206.259,71.1678 206.279,71.1455 206.279,71.1455 206.279,71.1455 206.298,71.1232 206.317,71.1009 206.336,71.0787 206.355,71.0565 206.374,71.0344 206.393,71.0123 206.411,70.9903 206.43,70.9683 206.449,70.9464 206.467,70.9245 206.467,70.9245 206.467,70.9245 206.485,70.9026 206.503,70.8809 206.522,70.8591 206.54,70.8374 206.558,70.8158 206.575,70.7942 206.593,70.7727 206.611,70.7512 206.628,70.7297 206.646,70.7083 206.646,70.7083 206.646,70.7083 206.663,70.687 206.68,70.6657 206.698,70.6444 206.715,70.6232 206.732,70.6021 206.748,70.581 206.765,70.5599 206.782,70.5389 206.799,70.518 206.815,70.497 206.815,70.497 206.815,70.497 206.831,70.4762 206.848,70.4554 206.864,70.4346 206.88,70.4139 206.896,70.3932 206.912,70.3726 206.928,70.352 206.944,70.3315 206.959,70.311 206.975,70.2906 206.975,70.2906 206.975,70.2906 206.99,70.2702 207.006,70.2499 207.021,70.2296 207.036,70.2094 207.051,70.1892 207.066,70.1691 207.081,70.149 207.096,70.1289 207.11,70.109 207.125,70.089 207.125,70.089 207.125,70.089 207.14,70.0691 207.154,70.0493 207.168,70.0295 207.183,70.0097 207.197,69.99 207.211,69.9704 207.225,69.9508 207.238,69.9312 207.252,69.9117 207.266,69.8923 207.266,69.8923 207.266,69.8923 207.279,69.8729 207.293,69.8535 207.306,69.8343 207.32,69.8151 207.333,69.7959 207.346,69.7769 207.359,69.7579 207.372,69.7389 207.385,69.7201 207.397,69.7013 207.397,69.7013 207.397,69.7013 207.41,69.6825 207.423,69.6639 207.435,69.6454 207.448,69.6269 207.46,69.6085 207.472,69.5902 207.484,69.572 207.497,69.5539 207.509,69.5358 207.52,69.5179 207.52,69.5179 207.52,69.5179 207.532,69.5 207.544,69.4822 207.556,69.4645 207.567,69.4469 207.579,69.4293 207.59,69.4119 207.602,69.3945 207.613,69.3772 207.624,69.36 207.635,69.3429 207.635,69.3429 207.635,69.3429 207.646,69.3259 207.657,69.309 207.668,69.2921 207.679,69.2753 207.689,69.2586 207.7,69.242 207.711,69.2255 207.721,69.2091 207.731,69.1927 207.742,69.1765 207.742,69.1765 207.742,69.1765 207.752,69.1603 207.762,69.1442 207.772,69.1282 207.782,69.1123 207.792,69.0964 207.802,69.0807 207.811,69.065 207.821,69.0494 207.83,69.0339 207.84,69.0185 207.84,69.0185 207.84,69.0185 207.849,69.0032 207.859,68.9879 207.868,68.9728 207.877,68.9577 207.886,68.9427 207.895,68.9278 207.904,68.913 207.912,68.8982 207.921,68.8836 207.93,68.869 207.93,68.869 207.93,68.869 207.938,68.8545 207.947,68.8402 207.955,68.8258 207.963,68.8116 207.972,68.7975 207.98,68.7834 207.988,68.7694 207.996,68.7556 208.004,68.7418 208.011,68.728 208.011,68.728 208.011,68.728 208.019,68.7144 208.027,68.7009 208.034,68.6874 208.042,68.674 208.049,68.6607 208.056,68.6475 208.064,68.6344 208.071,68.6213 208.078,68.6084 208.085,68.5955 208.085,68.5955 208.085,68.5955 208.092,68.5827 208.098,68.57 208.105,68.5574 208.112,68.5449 208.118,68.5324 208.125,68.5201 208.131,68.5078 208.137,68.4956 208.144,68.4835 208.15,68.4715 208.15,68.4715 208.15,68.4715 208.156,68.4596 208.162,68.4477 208.168,68.4359 208.173,68.4243 208.179,68.4127 208.185,68.4012 208.19,68.3897 208.196,68.3784 208.201,68.3671 208.206,68.356 208.206,68.356 208.206,68.356 208.212,68.3448 208.217,68.3336 208.222,68.3224 208.227,68.3112 208.232,68.2999 208.237,68.2886 208.242,68.2773 208.247,68.2659 208.252,68.2546 208.257,68.2431 208.257,68.2431 208.257,68.2431 208.262,68.2316 208.267,68.22 208.272,68.2082 208.276,68.1962 208.281,68.1841 208.286,68.1719 208.291,68.1595 208.296,68.147 208.301,68.1343 208.306,68.1215 208.306,68.1215 208.306,68.1215 208.31,68.1086 208.315,68.0955 208.32,68.0822 208.325,68.0688 208.33,68.0553 208.335,68.0416 208.339,68.0278 208.344,68.0138 208.349,67.9997 208.354,67.9854 208.354,67.9854 208.354,67.9854 208.359,67.971 208.364,67.9564 208.369,67.9417 208.373,67.9269 208.378,67.9119 208.383,67.8967 208.388,67.8814 208.393,67.866 208.398,67.8504 208.402,67.8347 208.402,67.8347 208.402,67.8347 208.407,67.8188 208.412,67.8028 208.417,67.7866 208.422,67.7703 208.427,67.7539 208.432,67.7373 208.436,67.7206 208.441,67.7037 208.446,67.6866 208.451,67.6695 208.451,67.6695 208.451,67.6695 208.456,67.6521 208.461,67.6347 208.466,67.617 208.47,67.5993 208.475,67.5814 208.48,67.5633 208.485,67.5451 208.49,67.5268 208.495,67.5083 208.499,67.4897 208.499,67.4897 208.499,67.4897 208.504,67.4709 208.509,67.452 208.514,67.4329 208.519,67.4137 208.524,67.3943 208.529,67.3748 208.533,67.3552 208.538,67.3354 208.543,67.3154 208.548,67.2953 208.548,67.2953 208.548,67.2953 208.553,67.2751 208.558,67.2547 208.562,67.2342 208.567,67.2135 208.572,67.1927 208.577,67.1718 208.582,67.1507 208.587,67.1294 208.592,67.108 208.596,67.0865 208.596,67.0865 208.596,67.0865 208.601,67.0648 208.606,67.043 208.611,67.021 208.616,66.9989 208.621,66.9766 208.625,66.9542 208.63,66.9316 208.635,66.9089 208.64,66.8861 208.645,66.8631 208.645,66.8631 208.645,66.8631 208.65,66.8399 208.655,66.8166 208.659,66.7932 208.664,66.7696 208.669,66.7459 208.674,66.722 208.679,66.698 208.684,66.6739 208.689,66.6496 208.693,66.6251 208.693,66.6251 208.693,66.6251 208.699,66.5955 208.707,66.5557 208.717,66.5058 208.728,66.4456 208.742,66.3753 208.757,66.2949 208.775,66.2042 208.794,66.1034 208.816,65.9924 208.839,65.8712 208.839,65.8712 208.96,65.24"/>
	<polyline fill="none" stroke="rgb(192,192,192)" stroke-opacity="1" points="174.62,81.4 206.536,81.4"/>
	<polygon fill="rgb(192,192,192)" stroke="rgb(192,192,192)" stroke-opacity="1" points="210.98,81.4 206.536,79.784 206.536,83.016 210.98,81.4"/>
	<text fill="rgb(192,192,192)" font-size="10" font-family="Arial" text-anchor="middle" dominant-baseline="central" x="182.296" y="70.492">asin</text>
	<rect fill="rgb(255,255,255)" stroke="rgb(95,95,95)" stroke-width="1" stroke-opacity="1" x="168.56" y="174.32" rx="8.08" ry="8.08" width="48.48" height="48.48"/>
	<rect fill="rgb(255,255,255)" stroke="rgb(0,0,127)" stroke-opacity="1" x="172.6" y="178.36" width="40.4" height="40.4"/>
	<text fill="rgb(0,0,255)" font-size="10" font-family="Arial" text-anchor="middle" dominant-baseline="central" x="192.8" y="172.3">const</text>
	<polyline fill="none" stroke="rgb(192,192,192)" stroke-opacity="1" points="176.64,184.824 176.64,214.72"/>
	<polygon fill="rgb(192,192,192)" stroke="rgb(192,192,192)" stroke-opacity="1" points="176.64,180.38 175.024,184.824 178.256,184.824 176.64,180.38"/>
	<polyline fill="none" stroke="rgb(192,192,192)" stroke-opacity="1" points="174.62,212.7 209.364,212.7"/>
	<polygon fill="rgb(192,192,192)" stroke="rgb(192,192,192)" stroke-opacity="1" points="210.98,212.7 206.536,211.084 206.536,214.316 210.98,212.7"/>
	<polyline fill="none" stroke="rgb(0,0,0)" stroke-opacity="1" points="176.64,198.56 208.96,198.56"/>
	<text fill="rgb(0,0,0)" font-size="10" font-family="Arial" text-anchor="middle" dominant-baseline="central" x="192.8" y="224.82">k=0.5</text>
	<rect fill="rgb(255,255,255)" stroke="rgb(0,0,127)" stroke-opacity="1" x="11" y="61.2" width="40.4" height="40.4"/>
	<text fill="rgb(0,0,255)" font-size="10" font-family="Arial" text-anchor="middle" dominant-baseline="central" x="31.2" y="55.14">continuousClock</text>
	<ellipse fill-opacity="0" stroke="rgb(160,160,164)" stroke-opacity="1" cx="31.2" cy="81.4" rx="16.16" ry="16.16"/>
	<polyline fill="none" stroke="rgb(160,160,164)" stroke-opacity="1" points="31.2,65.24 31.2,69.28"/>
	<polyline fill="none" stroke="rgb(160,160,164)" stroke-opacity="1" points="47.36,81.4 43.32,81.4"/>
	<polyline fill="none" stroke="rgb(160,160,164)" stroke-opacity="1" points="31.2,97.56 31.2,93.52"/>
	<polyline fill="none" stroke="rgb(160,160,164)" stroke-opacity="1" points="15.04,81.4 19.08,81.4"/>
	<polyline fill="none" stroke="rgb(160,160,164)" stroke-opacity="1" points="38.674,67.26 36.452,71.3"/>
	<polyline fill="none" stroke="rgb(160,160,164)" stroke-opacity="1" points="45.34,73.724 41.098,76.148"/>
	<polyline fill="none" stroke="rgb(160,160,164)" stroke-opacity="1" points="45.542,88.874 41.704,86.854"/>
	<polyline fill="none" stroke="rgb(160,160,164)" stroke-opacity="1" points="39.078,95.54 37.058,91.702"/>
	<polyline fill="none" stroke="rgb(160,160,164)" stroke-opacity="1" points="23.322,95.54 25.342,91.904"/>
	<polyline fill="none" stroke="rgb(160,160,164)" stroke-opacity="1" points="16.858,88.874 21.1,86.652"/>
	<polyline fill="none" stroke="rgb(160,160,164)" stroke-opacity="1" points="16.858,73.926 20.292,75.744"/>
	<polyline fill="none" stroke="rgb(160,160,164)" stroke-opacity="1" points="23.524,67.26 25.544,71.098"/>
	<polyline fill="none" stroke="rgb(0,0,0)" stroke-width="2" stroke-opacity="1" points="31.2,81.4 21.1,71.3"/>
	<polyline fill="none" stroke="rgb(0,0,0)" stroke-width="2" stroke-opacity="1" points="31.2,81.4 39.28,81.4"/>
	<text fill="rgb(0,0,0)" font-size="10" font-family="Arial" text-anchor="middle" dominant-baseline="central" x="31.2" y="107.66">startTime=0 s</text>
	<polyline fill="none" stroke="rgb(175,175,175)" stroke-width="1" stroke-opacity="1" points="196.84,57.16 196.84,4.64"/>
	<polygon fill="rgb(175,175,175)" stroke="none" stroke-opacity="1" points="196.84,57.16 200.173,47.06 193.507,47.06 196.84,57.16"/>
	<ellipse fill="rgb(175,175,175)" stroke="rgb(175,175,175)" stroke-width="1" stroke-opacity="1" cx="196.84" cy="4.64" rx="4.04" ry="4.04"/>
	<polyline fill="none" stroke="rgb(255,255,255)" stroke-width="5" stroke-opacity="1" points="215.02,81.4 402.88,81.4 402.88,125.84 431.16,125.84"/>
	<polyline fill="none" stroke="rgb(0,0,127)" stroke-opacity="1" points="215.02,81.4 402.88,81.4 402.88,125.84 431.16,125.84"/>
	<polyline fill="none" stroke="rgb(255,255,255)" stroke-width="5" stroke-opacity="1" points="215.02,198.56 402.88,198.56 402.88,125.84 431.16,125.84"/>
	<polyline fill="none" stroke="rgb(0,0,127)" stroke-opacity="1" points="215.02,198.56 402.88,198.56 402.88,125.84 431.16,125.84"/>
	<polyline fill="none" stroke="rgb(175,175,175)" stroke-width="1" stroke-opacity="1" points="192.8,105.64 192.8,113.72 192.8,115.271 192.8,116.694 192.8,117.987 192.8,119.151 192.8,120.187 192.8,121.093 192.8,121.87 192.8,122.518 192.8,123.036 192.8,123.426 192.8,123.426 192.8,123.426 192.8,123.752 192.8,124.077 192.8,124.404 192.8,124.73 192.8,125.057 192.8,125.385 192.8,125.713 192.8,126.041 192.8,126.369 192.8,126.698 192.8,126.698 192.8,126.698 192.8,127.028 192.8,127.358 192.8,127.688 192.8,128.019 192.8,128.35 192.8,128.681 192.8,129.013 192.8,129.346 192.8,129.678 192.8,130.011 192.8,130.011 192.8,130.011 192.8,130.345 192.8,130.679 192.8,131.013 192.8,131.348 192.8,131.683 192.8,132.018 192.8,132.354 192.8,132.691 192.8,133.027 192.8,133.364 192.8,133.364 192.8,133.364 192.8,133.702 192.8,134.04 192.8,134.378 192.8,134.717 192.8,135.056 192.8,135.396 192.8,135.736 192.8,136.076 192.8,136.417 192.8,136.758 192.8,136.758 192.8,136.758 192.8,137.1 192.8,137.442 192.8,137.784 192.8,138.127 192.8,138.47 192.8,138.814 192.8,139.158 192.8,139.502 192.8,139.847 192.8,140.192 192.8,140.192 192.8,140.192 192.8,140.538 192.8,140.884 192.8,141.23 192.8,141.577 192.8,141.924 192.8,142.272 192.8,142.62 192.8,142.968 192.8,143.317 192.8,143.666 192.8,143.666 192.8,143.666 192.8,144.016 192.8,144.366 192.8,144.717 192.8,145.068 192.8,145.419 192.8,145.771 192.8,146.123 192.8,146.475 192.8,146.828 192.8,147.181 192.8,147.181 192.8,147.181 192.8,147.535 192.8,147.889 192.8,148.244 192.8,148.599 192.8,148.954 192.8,149.31 192.8,149.666 192.8,150.022 192.8,150.379 192.8,150.737 192.8,150.737 192.8,150.737 192.8,151.094 192.8,151.452 192.8,151.811 192.8,152.17 192.8,152.529 192.8,152.889 192.8,153.249 192.8,153.61 192.8,153.971 192.8,154.332 192.8,154.332 192.8,154.332 192.8,154.676 192.8,154.983 192.8,155.254 192.8,155.489 192.8,155.688 192.8,155.851 192.8,155.977 192.8,156.068 192.8,156.122 192.8,156.14 192.8,156.14 192.8,156.14 192.8,156.231 192.8,156.504 192.8,156.958 192.8,157.594 192.8,158.412 192.8,159.412 192.8,160.594 192.8,161.958 192.8,163.503 192.8,165.23 192.8,165.23 192.8,174.32"/>
	<polyline fill="none" stroke="rgb(175,175,175)" stroke-width="1" stroke-opacity="1" points="196.133,164.22 192.8,174.32 189.467,164.22"/>
	<polyline fill="none" stroke="rgb(175,175,175)" stroke-width="2" stroke-opacity="1" points="188.76,162.2 196.84,162.2"/>
	<text fill="rgb(0,0,0)" font-size="14" font-family="Arial" font-weight="bold" text-anchor="end" dominant-baseline="central" x="184.72" y="160.18">time &gt; 0.5</text>
	<polyline fill="none" stroke="rgb(255,255,255)" stroke-width="5" stroke-opacity="1" points="53.42,81.4 168.56,81.4"/>
	<polyline fill="none" stroke="rgb(0,0,127)" stroke-opacity="1" points="53.42,81.4 168.56,81.4"/>
	<polyline fill="none" stroke="rgb(175,175,175)" stroke-width="1" stroke-opacity="1" points="217.04,186.44 217.04,176.34 217.04,174.402 217.04,172.627 217.04,171.015 217.04,169.567 217.04,168.283 217.04,167.162 217.04,166.204 217.04,165.409 217.04,164.778 217.04,164.311 217.04,164.311 217.04,164.311 217.04,163.927 217.04,163.547 217.04,163.17 217.04,162.797 217.04,162.427 217.04,162.061 217.04,161.699 217.04,161.341 217.04,160.986 217.04,160.635 217.04,160.635 217.04,160.635 217.04,160.287 217.04,159.943 217.04,159.602 217.04,159.266 217.04,158.933 217.04,158.603 217.04,158.277 217.04,157.955 217.04,157.637 217.04,157.322 217.04,157.322 217.04,157.322 217.04,157.01 217.04,156.703 217.04,156.399 217.04,156.098 217.04,155.802 217.04,155.509 217.04,155.219 217.04,154.933 217.04,154.651 217.04,154.373 217.04,154.373 217.04,154.373 217.04,154.098 217.04,153.826 217.04,153.559 217.04,153.295 217.04,153.034 217.04,152.778 217.04,152.524 217.04,152.275 217.04,152.029 217.04,151.787 217.04,151.787 217.04,151.787 217.04,151.548 217.04,151.313 217.04,151.082 217.04,150.854 217.04,150.63 217.04,150.41 217.04,150.193 217.04,149.98 217.04,149.771 217.04,149.565 217.04,149.565 217.04,149.565 217.04,149.363 217.04,149.164 217.04,148.969 217.04,148.778 217.04,148.59 217.04,148.406 217.04,148.226 217.04,148.049 217.04,147.876 217.04,147.707 217.04,147.707 217.04,147.707 217.04,147.541 217.04,147.378 217.04,147.22 217.04,147.065 217.04,146.914 217.04,146.766 217.04,146.622 217.04,146.482 217.04,146.345 217.04,146.212 217.04,146.212 217.04,146.212 217.04,146.082 217.04,145.956 217.04,145.834 217.04,145.716 217.04,145.601 217.04,145.489 217.04,145.382 217.04,145.278 217.04,145.177 217.04,145.081 217.04,145.081 217.04,145.081 217.04,144.987 217.04,144.898 217.04,144.812 217.04,144.73 217.04,144.651 217.04,144.576 217.04,144.505 217.04,144.437 217.04,144.373 217.04,144.313 217.04,144.313 217.04,144.313 217.04,144.257 217.04,144.207 217.04,144.164 217.04,144.125 217.04,144.093 217.04,144.067 217.04,144.046 217.04,144.032 217.04,144.023 217.04,144.02 217.04,144.02 217.04,144.02 217.04,144.017 217.04,144.008 217.04,143.994 217.039,143.974 217.039,143.948 217.038,143.916 217.038,143.879 217.037,143.836 217.036,143.787 217.035,143.732 217.035,143.732 217.035,143.732 217.034,143.673 217.033,143.61 217.031,143.544 217.029,143.474 217.027,143.401 217.025,143.325 217.023,143.245 217.02,143.162 217.018,143.075 217.015,142.985 217.015,142.985 217.015,142.985 217.012,142.891 217.008,142.794 217.005,142.694 217.001,142.59 216.997,142.482 216.993,142.371 216.989,142.257 216.984,142.14 216.979,142.018 216.974,141.894 216.974,141.894 216.974,141.894 216.969,141.766 216.964,141.635 216.958,141.5 216.953,141.361 216.947,141.22 216.94,141.075 216.934,140.926 216.927,140.774 216.921,140.619 216.914,140.46 216.914,140.46 216.914,140.46 216.907,140.297 216.899,140.132 216.892,139.963 216.884,139.79 216.876,139.614 216.868,139.434 216.859,139.251 216.851,139.065 216.842,138.875 216.833,138.682 216.833,138.682 216.833,138.682 216.824,138.486 216.814,138.285 216.805,138.082 216.795,137.875 216.785,137.665 216.775,137.451 216.764,137.234 216.754,137.013 216.743,136.789 216.732,136.561 216.732,136.561 216.732,136.561 216.721,136.33 216.709,136.096 216.698,135.858 216.686,135.617 216.674,135.372 216.662,135.124 216.649,134.872 216.637,134.617 216.624,134.359 216.611,134.097 216.611,134.097 216.611,134.097 216.598,133.831 216.584,133.563 216.57,133.29 216.557,133.015 216.543,132.736 216.528,132.453 216.514,132.167 216.499,131.878 216.484,131.585 216.469,131.289 216.469,131.289 216.469,131.289 216.454,130.989 216.439,130.686 216.423,130.38 216.407,130.07 216.391,129.756 216.375,129.439 216.358,129.119 216.342,128.795 216.325,128.468 216.308,128.138 216.308,128.138 216.308,128.138 216.29,127.804 216.273,127.466 216.255,127.125 216.237,126.781 216.219,126.433 216.201,126.082 216.183,125.728 216.164,125.37 216.145,125.008 216.126,124.643 216.126,124.643 216.126,124.643 216.108,124.295 216.091,123.983 216.077,123.708 216.065,123.47 216.054,123.268 216.045,123.103 216.039,122.975 216.034,122.883 216.031,122.828 216.03,122.81 216.03,122.81 216.03,122.81 216.025,122.714 216.01,122.426 215.985,121.946 215.949,121.275 215.904,120.411 215.848,119.356 215.783,118.108 215.707,116.669 215.621,115.038 215.525,113.215 215.525,113.215 215.02,103.62"/>
	<polyline fill="none" stroke="rgb(175,175,175)" stroke-width="1" stroke-opacity="1" points="212.221,113.881 215.02,103.62 218.878,113.531"/>
	<polyline fill="none" stroke="rgb(175,175,175)" stroke-width="2" stroke-opacity="1" points="219.69,115.512 211.621,115.935"/>
	<text fill="rgb(0,0,0)" font-size="14" font-family="Arial" font-weight="bold" text-anchor="start" dominant-baseline="central" x="223.1" y="117.76">time &lt;= 0.5</text>
	<ellipse fill="rgb(0,0,127)" stroke="rgb(0,0,127)" cx="402.88" cy="125.84" rx="3" ry="3"/>
	<polygon fill="rgb(0,0,127)" stroke="rgb(0,0,127)" stroke-opacity="1" points="164.52,77.36 172.6,81.4 164.52,85.44 164.52,77.36"/>
	<polygon fill="rgb(255,255,255)" stroke="rgb(0,0,127)" stroke-opacity="1" points="213,79.38 217.04,81.4 213,83.42 213,79.38"/>
	<polygon fill="rgb(255,255,255)" stroke="rgb(0,0,127)" stroke-opacity="1" points="213,196.54 217.04,198.56 213,200.58 213,196.54"/>
	<polygon fill="rgb(255,255,255)" stroke="rgb(0,0,127)" stroke-opacity="1" points="410.96,115.74 431.16,125.84 410.96,135.94 410.96,115.74"/>
	<text fill="rgb(0,0,127)" font-size="10" font-family="Arial" text-anchor="middle" dominant-baseline="central" x="437.22" y="108.67">yTemp</text>
	<polygon fill="rgb(255,255,255)" stroke="rgb(0,0,127)" stroke-opacity="1" points="51.4,79.38 55.44,81.4 51.4,83.42 51.4,79.38"/>
</svg>
