<?xml version="1.0" standalone="no"?>
<!DOCTYPE svg PUBLIC "-//W3C//DTD SVG 1.1//EN" "http://www.w3.org/Graphics/SVG/1.1/DTD/svg11.dtd">
<svg viewBox="0 0 584 361" version="1.1" xmlns="http://www.w3.org/2000/svg" xmlns:xlink="http://www.w3.org/1999/xlink">
	<polyline fill="none" stroke="rgb(229,229,229)" stroke-width="1" stroke-opacity="1" points="81,36 81,333"/>
	<polyline fill="none" stroke="rgb(229,229,229)" stroke-width="1" stroke-opacity="1" points="128.5,36 128.5,333"/>
	<polyline fill="none" stroke="rgb(229,229,229)" stroke-width="1" stroke-opacity="1" points="176,36 176,333"/>
	<polyline fill="none" stroke="rgb(229,229,229)" stroke-width="1" stroke-opacity="1" points="223.5,36 223.5,333"/>
	<polyline fill="none" stroke="rgb(229,229,229)" stroke-width="1" stroke-opacity="1" points="271,36 271,333"/>
	<polyline fill="none" stroke="rgb(229,229,229)" stroke-width="1" stroke-opacity="1" points="318.5,36 318.5,333"/>
	<polyline fill="none" stroke="rgb(229,229,229)" stroke-width="1" stroke-opacity="1" points="366,36 366,333"/>
	<polyline fill="none" stroke="rgb(229,229,229)" stroke-width="1" stroke-opacity="1" points="413.5,36 413.5,333"/>
	<polyline fill="none" stroke="rgb(229,229,229)" stroke-width="1" stroke-opacity="1" points="461,36 461,333"/>
	<polyline fill="none" stroke="rgb(229,229,229)" stroke-width="1" stroke-opacity="1" points="508.5,36 508.5,333"/>
	<polyline fill="none" stroke="rgb(229,229,229)" stroke-width="1" stroke-opacity="1" points="556,36 556,333"/>
	<polyline fill="none" stroke="rgb(229,229,229)" stroke-width="1" stroke-opacity="1" points="81,333 556,333"/>
	<polyline fill="none" stroke="rgb(229,229,229)" stroke-width="1" stroke-opacity="1" points="81,290.571 556,290.571"/>
	<polyline fill="none" stroke="rgb(229,229,229)" stroke-width="1" stroke-opacity="1" points="81,248.143 556,248.143"/>
	<polyline fill="none" stroke="rgb(229,229,229)" stroke-width="1" stroke-opacity="1" points="81,205.714 556,205.714"/>
	<polyline fill="none" stroke="rgb(229,229,229)" stroke-width="1" stroke-opacity="1" points="81,163.286 556,163.286"/>
	<polyline fill="none" stroke="rgb(229,229,229)" stroke-width="1" stroke-opacity="1" points="81,120.857 556,120.857"/>
	<polyline fill="none" stroke="rgb(229,229,229)" stroke-width="1" stroke-opacity="1" points="81,78.4286 556,78.4286"/>
	<polyline fill="none" stroke="rgb(229,229,229)" stroke-width="1" stroke-opacity="1" points="81,36 556,36"/>
	<polyline fill="none" stroke="rgb(192,192,192)" stroke-width="1" stroke-opacity="1" points="81,290.571 556,290.571"/>
	<polyline fill="none" stroke="rgb(0,0,0)" stroke-width="1" stroke-opacity="1" points="81,333 556,333"/>
	<polyline fill="none" stroke="rgb(0,0,0)" stroke-width="1" stroke-opacity="1" points="556,333 556,36"/>
	<polyline fill="none" stroke="rgb(0,0,0)" stroke-width="1" stroke-opacity="1" points="556,36 81,36"/>
	<polyline fill="none" stroke="rgb(0,0,0)" stroke-width="1" stroke-opacity="1" points="81,36 81,333"/>
	<polyline fill="none" stroke="rgb(0,0,0)" stroke-width="1" stroke-opacity="1" points="81,333 81,337"/>
	<polyline fill="none" stroke="rgb(0,0,0)" stroke-width="1" stroke-opacity="1" points="128.5,333 128.5,337"/>
	<polyline fill="none" stroke="rgb(0,0,0)" stroke-width="1" stroke-opacity="1" points="176,333 176,337"/>
	<polyline fill="none" stroke="rgb(0,0,0)" stroke-width="1" stroke-opacity="1" points="223.5,333 223.5,337"/>
	<polyline fill="none" stroke="rgb(0,0,0)" stroke-width="1" stroke-opacity="1" points="271,333 271,337"/>
	<polyline fill="none" stroke="rgb(0,0,0)" stroke-width="1" stroke-opacity="1" points="318.5,333 318.5,337"/>
	<polyline fill="none" stroke="rgb(0,0,0)" stroke-width="1" stroke-opacity="1" points="366,333 366,337"/>
	<polyline fill="none" stroke="rgb(0,0,0)" stroke-width="1" stroke-opacity="1" points="413.5,333 413.5,337"/>
	<polyline fill="none" stroke="rgb(0,0,0)" stroke-width="1" stroke-opacity="1" points="461,333 461,337"/>
	<polyline fill="none" stroke="rgb(0,0,0)" stroke-width="1" stroke-opacity="1" points="508.5,333 508.5,337"/>
	<polyline fill="none" stroke="rgb(0,0,0)" stroke-width="1" stroke-opacity="1" points="556,333 556,337"/>
	<polyline fill="none" stroke="rgb(0,0,0)" stroke-width="1" stroke-opacity="1" points="81,333 81,339.4"/>
	<text fill="rgb(0,0,0)" font-size="13" font-family="Arial" text-anchor="middle" dominant-baseline="central" x="81" y="348.5">0.0</text>
	<polyline fill="none" stroke="rgb(0,0,0)" stroke-width="1" stroke-opacity="1" points="176,333 176,339.4"/>
	<text fill="rgb(0,0,0)" font-size="13" font-family="Arial" text-anchor="middle" dominant-baseline="central" x="176" y="348.5">0.2</text>
	<polyline fill="none" stroke="rgb(0,0,0)" stroke-width="1" stroke-opacity="1" points="271,333 271,339.4"/>
	<text fill="rgb(0,0,0)" font-size="13" font-family="Arial" text-anchor="middle" dominant-baseline="central" x="271" y="348.5">0.4</text>
	<polyline fill="none" stroke="rgb(0,0,0)" stroke-width="1" stroke-opacity="1" points="366,333 366,339.4"/>
	<text fill="rgb(0,0,0)" font-size="13" font-family="Arial" text-anchor="middle" dominant-baseline="central" x="366" y="348.5">0.6</text>
	<polyline fill="none" stroke="rgb(0,0,0)" stroke-width="1" stroke-opacity="1" points="461,333 461,339.4"/>
	<text fill="rgb(0,0,0)" font-size="13" font-family="Arial" text-anchor="middle" dominant-baseline="central" x="461" y="348.5">0.8</text>
	<polyline fill="none" stroke="rgb(0,0,0)" stroke-width="1" stroke-opacity="1" points="556,333 556,339.4"/>
	<text fill="rgb(0,0,0)" font-size="13" font-family="Arial" text-anchor="middle" dominant-baseline="central" x="556" y="348.5">1.0</text>
	<polyline fill="none" stroke="rgb(0,0,0)" stroke-width="1" stroke-opacity="1" points="77,333 81,333"/>
	<polyline fill="none" stroke="rgb(0,0,0)" stroke-width="1" stroke-opacity="1" points="77,290.571 81,290.571"/>
	<polyline fill="none" stroke="rgb(0,0,0)" stroke-width="1" stroke-opacity="1" points="77,248.143 81,248.143"/>
	<polyline fill="none" stroke="rgb(0,0,0)" stroke-width="1" stroke-opacity="1" points="77,205.714 81,205.714"/>
	<polyline fill="none" stroke="rgb(0,0,0)" stroke-width="1" stroke-opacity="1" points="77,163.286 81,163.286"/>
	<polyline fill="none" stroke="rgb(0,0,0)" stroke-width="1" stroke-opacity="1" points="77,120.857 81,120.857"/>
	<polyline fill="none" stroke="rgb(0,0,0)" stroke-width="1" stroke-opacity="1" points="77,78.4286 81,78.4286"/>
	<polyline fill="none" stroke="rgb(0,0,0)" stroke-width="1" stroke-opacity="1" points="77,36 81,36"/>
	<rect fill="none" stroke="none" stroke-dasharray="none" stroke-width="1" stroke-opacity="1" x="19" y="326" width="54" height="14"/>
	<polyline fill="none" stroke="rgb(0,0,0)" stroke-width="1" stroke-opacity="1" points="74.6,333 81,333"/>
	<text fill="rgb(0,0,0)" font-size="13" font-family="Arial" text-anchor="end" dominant-baseline="central" x="73" y="333">-0.1</text>
	<polyline fill="none" stroke="rgb(0,0,0)" stroke-width="1" stroke-opacity="1" points="74.6,290.571 81,290.571"/>
	<text fill="rgb(0,0,0)" font-size="13" font-family="Arial" text-anchor="end" dominant-baseline="central" x="73" y="290.571">0.0</text>
	<polyline fill="none" stroke="rgb(0,0,0)" stroke-width="1" stroke-opacity="1" points="74.6,248.143 81,248.143"/>
	<text fill="rgb(0,0,0)" font-size="13" font-family="Arial" text-anchor="end" dominant-baseline="central" x="73" y="248.143">0.1</text>
	<polyline fill="none" stroke="rgb(0,0,0)" stroke-width="1" stroke-opacity="1" points="74.6,205.714 81,205.714"/>
	<text fill="rgb(0,0,0)" font-size="13" font-family="Arial" text-anchor="end" dominant-baseline="central" x="73" y="205.714">0.2</text>
	<polyline fill="none" stroke="rgb(0,0,0)" stroke-width="1" stroke-opacity="1" points="74.6,163.286 81,163.286"/>
	<text fill="rgb(0,0,0)" font-size="13" font-family="Arial" text-anchor="end" dominant-baseline="central" x="73" y="163.286">0.3</text>
	<polyline fill="none" stroke="rgb(0,0,0)" stroke-width="1" stroke-opacity="1" points="74.6,120.857 81,120.857"/>
	<text fill="rgb(0,0,0)" font-size="13" font-family="Arial" text-anchor="end" dominant-baseline="central" x="73" y="120.857">0.4</text>
	<polyline fill="none" stroke="rgb(0,0,0)" stroke-width="1" stroke-opacity="1" points="74.6,78.4286 81,78.4286"/>
	<text fill="rgb(0,0,0)" font-size="13" font-family="Arial" text-anchor="end" dominant-baseline="central" x="73" y="78.4286">0.5</text>
	<polyline fill="none" stroke="rgb(0,0,0)" stroke-width="1" stroke-opacity="1" points="74.6,36 81,36"/>
	<text fill="rgb(0,0,0)" font-size="13" font-family="Arial" text-anchor="end" dominant-baseline="central" x="73" y="36">0.6</text>
	<text fill="rgb(0,0,0)" font-size="13" font-family="Arial" text-anchor="middle" dominant-baseline="central" transform="translate(27, 184.5) rotate(-90)">[rad]</text>
	<clipPath id="clipArea1">
		<rect x="81" y="36" width="476" height="297">
		</rect>
	</clipPath>
	<polyline fill="none" stroke="rgb(28,108,200)" stroke-width="1" stroke-opacity="1" clip-path="url(#clipArea1)" points="81,290.571 81.95,289.723 82.9,288.874 83.85,288.026 84.8,287.177 85.75,286.329 86.7,285.48 87.65,284.631 88.6,283.783 89.55,282.934 90.5,282.085 91.45,281.236 92.4,280.388 93.35,279.539 94.3,278.69 95.25,277.841 96.2,276.992 97.15,276.143 98.1,275.294 99.05,274.445 100,273.595 100.95,272.746 101.9,271.897 102.85,271.047 103.8,270.198 104.75,269.348 105.7,268.499 106.65,267.649 107.6,266.799 108.55,265.949 109.5,265.099 110.45,264.249 111.4,263.399 112.35,262.548 113.3,261.698 114.25,260.847 115.2,259.996 116.15,259.146 117.1,258.295 118.05,257.443 119,256.592 119.95,255.741 120.9,254.889 121.85,254.038 122.8,253.186 123.75,252.334 124.7,251.482 125.65,250.63 126.6,249.777 127.55,248.925 128.5,248.072 129.45,247.219 130.4,246.366 131.35,245.512 132.3,244.659 133.25,243.805 134.2,242.952 135.15,242.097 136.1,241.243 137.05,240.389 138,239.534 138.95,238.679 139.9,237.824 140.85,236.969 141.8,236.113 142.75,235.258 143.7,234.402 144.65,233.546 145.6,232.689 146.55,231.833 147.5,230.976 148.45,230.119 149.4,229.261 150.35,228.404 151.3,227.546 152.25,226.687 153.2,225.829 154.15,224.97 155.1,224.111 156.05,223.252 157,222.393 157.95,221.533 158.9,220.673 159.85,219.812 160.8,218.952 161.75,218.091 162.7,217.23 163.65,216.368 164.6,215.506 165.55,214.644 166.5,213.781 167.45,212.919 168.4,212.055 169.35,211.192 170.3,210.328 171.25,209.464 172.2,208.6 173.15,207.735 174.1,206.87 175.05,206.004 176,205.138 176.95,204.272 177.9,203.405 178.85,202.538 179.8,201.671 180.75,200.803 181.7,199.935 182.65,199.067 183.6,198.198 184.55,197.328 185.5,196.459 186.45,195.589 187.4,194.718 188.35,193.847 189.3,192.976 190.25,192.104 191.2,191.232 192.15,190.359 193.1,189.486 194.05,188.613 195,187.739 195.95,186.865 196.9,185.99 197.85,185.115 198.8,184.239 199.75,183.363 200.7,182.486 201.65,181.609 202.6,180.731 203.55,179.853 204.5,178.975 205.45,178.096 206.4,177.216 207.35,176.336 208.3,175.456 209.25,174.575 210.2,173.693 211.15,172.811 212.1,171.928 213.05,171.045 214,170.162 214.95,169.277 215.9,168.393 216.85,167.507 217.8,166.622 218.75,165.735 219.7,164.848 220.65,163.961 221.6,163.073 222.55,162.184 223.5,161.295 224.45,160.405 225.4,159.514 226.35,158.623 227.3,157.732 228.25,156.84 229.2,155.947 230.15,155.053 231.1,154.159 232.05,153.264 233,152.369 233.95,151.473 234.9,150.576 235.85,149.679 236.8,148.781 237.75,147.883 238.7,146.983 239.65,146.083 240.6,145.183 241.55,144.282 242.5,143.38 243.45,142.477 244.4,141.573 245.35,140.669 246.3,139.765 247.25,138.859 248.2,137.953 249.15,137.046 250.1,136.138 251.05,135.23 252,134.321 252.95,133.411 253.9,132.5 254.85,131.589 255.8,130.676 256.75,129.763 257.7,128.85 258.65,127.935 259.6,127.02 260.55,126.103 261.5,125.186 262.45,124.269 263.4,123.35 264.35,122.431 265.3,121.51 266.25,120.589 267.2,119.667 268.15,118.744 269.1,117.821 270.05,116.896 271,115.971 271.95,115.044 272.9,114.117 273.85,113.189 274.8,112.26 275.75,111.33 276.7,110.399 277.65,109.468 278.6,108.535 279.55,107.601 280.5,106.667 281.45,105.731 282.4,104.795 283.35,103.857 284.3,102.919 285.25,101.979 286.2,101.039 287.15,100.098 288.1,99.1553 289.05,98.2119 290,97.2674 290.95,96.3219 291.9,95.3754 292.85,94.4279 293.8,93.4792 294.75,92.5296 295.7,91.5788 296.65,90.627 297.6,89.674 298.55,88.72 299.5,87.7649 300.45,86.8086 301.4,85.8513 302.35,84.8928 303.3,83.9331 304.25,82.9723 305.2,82.0104 306.15,81.0473 307.1,80.083 308.05,79.1175 309,78.1508 309.95,77.1829 310.9,76.2138 311.85,75.2434 312.8,74.2719 313.75,73.2991 314.7,72.325 315.65,71.3497 316.6,70.373 317.55,69.3951 318.5,68.4159 318.5,68.4159 318.5,78.4286 319.45,78.4286 320.4,78.4286 321.35,78.4286 322.3,78.4286 323.25,78.4286 324.2,78.4286 325.15,78.4286 326.1,78.4286 327.05,78.4286 328,78.4286 328.95,78.4286 329.9,78.4286 330.85,78.4286 331.8,78.4286 332.75,78.4286 333.7,78.4286 334.65,78.4286 335.6,78.4286 336.55,78.4286 337.5,78.4286 338.45,78.4286 339.4,78.4286 340.35,78.4286 341.3,78.4286 342.25,78.4286 343.2,78.4286 344.15,78.4286 345.1,78.4286 346.05,78.4286 347,78.4286 347.95,78.4286 348.9,78.4286 349.85,78.4286 350.8,78.4286 351.75,78.4286 352.7,78.4286 353.65,78.4286 354.6,78.4286 355.55,78.4286 356.5,78.4286 357.45,78.4286 358.4,78.4286 359.35,78.4286 360.3,78.4286 361.25,78.4286 362.2,78.4286 363.15,78.4286 364.1,78.4286 365.05,78.4286 366,78.4286 366.95,78.4286 367.9,78.4286 368.85,78.4286 369.8,78.4286 370.75,78.4286 371.7,78.4286 372.65,78.4286 373.6,78.4286 374.55,78.4286 375.5,78.4286 376.45,78.4286 377.4,78.4286 378.35,78.4286 379.3,78.4286 380.25,78.4286 381.2,78.4286 382.15,78.4286 383.1,78.4286 384.05,78.4286 385,78.4286 385.95,78.4286 386.9,78.4286 387.85,78.4286 388.8,78.4286 389.75,78.4286 390.7,78.4286 391.65,78.4286 392.6,78.4286 393.55,78.4286 394.5,78.4286 395.45,78.4286 396.4,78.4286 397.35,78.4286 398.3,78.4286 399.25,78.4286 400.2,78.4286 401.15,78.4286 402.1,78.4286 403.05,78.4286 404,78.4286 404.95,78.4286 405.9,78.4286 406.85,78.4286 407.8,78.4286 408.75,78.4286 409.7,78.4286 410.65,78.4286 411.6,78.4286 412.55,78.4286 413.5,78.4286 414.45,78.4286 415.4,78.4286 416.35,78.4286 417.3,78.4286 418.25,78.4286 419.2,78.4286 420.15,78.4286 421.1,78.4286 422.05,78.4286 423,78.4286 423.95,78.4286 424.9,78.4286 425.85,78.4286 426.8,78.4286 427.75,78.4286 428.7,78.4286 429.65,78.4286 430.6,78.4286 431.55,78.4286 432.5,78.4286 433.45,78.4286 434.4,78.4286 435.35,78.4286 436.3,78.4286 437.25,78.4286 438.2,78.4286 439.15,78.4286 440.1,78.4286 441.05,78.4286 442,78.4286 442.95,78.4286 443.9,78.4286 444.85,78.4286 445.8,78.4286 446.75,78.4286 447.7,78.4286 448.65,78.4286 449.6,78.4286 450.55,78.4286 451.5,78.4286 452.45,78.4286 453.4,78.4286 454.35,78.4286 455.3,78.4286 456.25,78.4286 457.2,78.4286 458.15,78.4286 459.1,78.4286 460.05,78.4286 461,78.4286 461.95,78.4286 462.9,78.4286 463.85,78.4286 464.8,78.4286 465.75,78.4286 466.7,78.4286 467.65,78.4286 468.6,78.4286 469.55,78.4286 470.5,78.4286 471.45,78.4286 472.4,78.4286 473.35,78.4286 474.3,78.4286 475.25,78.4286 476.2,78.4286 477.15,78.4286 478.1,78.4286 479.05,78.4286 480,78.4286 480.95,78.4286 481.9,78.4286 482.85,78.4286 483.8,78.4286 484.75,78.4286 485.7,78.4286 486.65,78.4286 487.6,78.4286 488.55,78.4286 489.5,78.4286 490.45,78.4286 491.4,78.4286 492.35,78.4286 493.3,78.4286 494.25,78.4286 495.2,78.4286 496.15,78.4286 497.1,78.4286 498.05,78.4286 499,78.4286 499.95,78.4286 500.9,78.4286 501.85,78.4286 502.8,78.4286 503.75,78.4286 504.7,78.4286 505.65,78.4286 506.6,78.4286 507.55,78.4286 508.5,78.4286 509.45,78.4286 510.4,78.4286 511.35,78.4286 512.3,78.4286 513.25,78.4286 514.2,78.4286 515.15,78.4286 516.1,78.4286 517.05,78.4286 518,78.4286 518.95,78.4286 519.9,78.4286 520.85,78.4286 521.8,78.4286 522.75,78.4286 523.7,78.4286 524.65,78.4286 525.6,78.4286 526.55,78.4286 527.5,78.4286 528.45,78.4286 529.4,78.4286 530.35,78.4286 531.3,78.4286 532.25,78.4286 533.2,78.4286 534.15,78.4286 535.1,78.4286 536.05,78.4286 537,78.4286 537.95,78.4286 538.9,78.4286 539.85,78.4286 540.8,78.4286 541.75,78.4286 542.7,78.4286 543.65,78.4286 544.6,78.4286 545.55,78.4286 546.5,78.4286 547.45,78.4286 548.4,78.4286 549.35,78.4286 550.3,78.4286 551.25,78.4286 552.2,78.4286 553.15,78.4286 554.1,78.4286 555.05,78.4286 556,78.4286 556,78.4286"/>
	<rect fill="rgb(255,255,255)" stroke="none" stroke-opacity="0.7" transform="translate(103.5, 18) translate(0, 0) scale(1,-1)" x="-22.5" y="-9" width="45" height="18"/>
	<polyline fill="none" stroke="rgb(28,108,200)" stroke-width="1" stroke-opacity="1" points="81,18 111,18"/>
	<text fill="rgb(0,0,0)" font-size="13" font-family="Arial" text-anchor="start" dominant-baseline="central" x="116" y="18">y</text>
</svg>
