<?xml version="1.0" standalone="yes"?>
<!DOCTYPE svg PUBLIC "-//W3C//DTD SVG 1.1//EN"
  "http://www.w3.org/Graphics/SVG/1.1/DTD/svg11.dtd">
<svg version="1.1" xmlns="http://www.w3.org/2000/svg" xmlns:xlink="http://www.w3.org/1999/xlink" width="69.2302mm" height="79.9238mm" viewBox="-76.9204 -113.278 196.243 226.556" fill="#aedadf" stroke="#000000" stroke-width="0.3" stroke-miterlimit="10">
 <g transform="scale(1.0, -1.0)">
  <path d="M11.46 -19.84H119.17V19.84L11.46 19.84L-42.40 113.13L-76.77 93.29L-22.91 0.00L-76.77 -93.29L-42.40 -113.13z" />
  <path d="M11.46 -19.84L11.46 19.84L-22.91 0.00z" fill="none" stroke-dasharray="2 2" />
  <use transform="matrix(0.5 0.866025 -0.866025 0.5 -54.5947 -99.5421)" xlink:href="#g5" />
  <use transform="matrix(0.5 -0.866025 0.866025 0.5 -58.9086 97.0514)" xlink:href="#g6" />
  <use transform="matrix(1 0 0 1 17.1254 -2.49067)" xlink:href="#g7" />
  <path d="M3.97 6.87L16.56 -5.10" fill="none" stroke="#fb1708" stroke-width="0.8" />
  <path d="M3.97 6.87L-2.88 17.46" fill="none" stroke="#fb1708" stroke-width="0.8" />
  <use xlink:href="#g10" />
  <path d="M5.47 6.87C5.47 7.70 4.80 8.37 3.97 8.37C3.14 8.37 2.47 7.70 2.47 6.87C2.47 6.05 3.14 5.37 3.97 5.37C4.80 5.37 5.47 6.05 5.47 6.87z" fill="#fb1708" stroke="none" />
  <use xlink:href="#g11" />
  <path d="M-7.94 0.00L-3.86 16.89" fill="none" stroke="#29c805" stroke-width="0.8" />
  <path d="M-7.94 0.00L-13.68 -11.22" fill="none" stroke="#29c805" stroke-width="0.8" />
  <path d="M-6.44 0.00C-6.44 0.83 -7.11 1.50 -7.94 1.50C-8.76 1.50 -9.44 0.83 -9.44 0.00C-9.44 -0.83 -8.76 -1.50 -7.94 -1.50C-7.11 -1.50 -6.44 -0.83 -6.44 0.00z" fill="#29c805" stroke="none" />
  <path d="M3.97 -6.87L16.56 -6.24" fill="none" stroke="#262188" stroke-width="0.8" />
  <use xlink:href="#g12" />
  <path d="M3.97 -6.87L-12.70 -11.79" fill="none" stroke="#262188" stroke-width="0.8" />
  <path d="M5.47 -6.87C5.47 -6.05 4.80 -5.37 3.97 -5.37C3.14 -5.37 2.47 -6.05 2.47 -6.87C2.47 -7.70 3.14 -8.37 3.97 -8.37C4.80 -8.37 5.47 -7.70 5.47 -6.87z" fill="#262188" stroke="none" />
 </g>
 <defs>
  <g id="g5" transform="translate(-72, 85.3526)scale(1.0, -1.0)">
<defs>
<g>
<symbol overflow="visible" id="i5-glyph0-0">
<path style="stroke:none;" d=""/>
</symbol>
<symbol overflow="visible" id="i5-glyph0-1">
<path style="stroke:none;" d="M 8.453125 -1.421875 C 8.453125 -1.53125 8.359375 -1.53125 8.328125 -1.53125 C 8.234375 -1.53125 8.234375 -1.5 8.1875 -1.34375 C 8.03125 -0.8125 7.71875 -0.109375 7.171875 -0.109375 C 7 -0.109375 6.921875 -0.203125 6.921875 -0.4375 C 6.921875 -0.6875 7.015625 -0.921875 7.109375 -1.140625 C 7.296875 -1.671875 7.71875 -2.765625 7.71875 -3.34375 C 7.71875 -3.984375 7.3125 -4.40625 6.5625 -4.40625 C 5.828125 -4.40625 5.3125 -3.96875 4.9375 -3.4375 C 4.9375 -3.5625 4.90625 -3.90625 4.625 -4.140625 C 4.375 -4.359375 4.0625 -4.40625 3.8125 -4.40625 C 2.90625 -4.40625 2.421875 -3.765625 2.25 -3.53125 C 2.203125 -4.109375 1.78125 -4.40625 1.328125 -4.40625 C 0.875 -4.40625 0.6875 -4.015625 0.59375 -3.84375 C 0.421875 -3.484375 0.296875 -2.90625 0.296875 -2.875 C 0.296875 -2.765625 0.40625 -2.765625 0.40625 -2.765625 C 0.515625 -2.765625 0.515625 -2.78125 0.578125 -3 C 0.75 -3.703125 0.953125 -4.1875 1.3125 -4.1875 C 1.46875 -4.1875 1.609375 -4.109375 1.609375 -3.734375 C 1.609375 -3.515625 1.578125 -3.40625 1.453125 -2.890625 L 0.875 -0.59375 C 0.84375 -0.4375 0.78125 -0.203125 0.78125 -0.15625 C 0.78125 0.015625 0.921875 0.109375 1.078125 0.109375 C 1.203125 0.109375 1.375 0.03125 1.453125 -0.171875 C 1.453125 -0.1875 1.578125 -0.65625 1.640625 -0.90625 L 1.859375 -1.796875 C 1.90625 -2.03125 1.96875 -2.25 2.03125 -2.46875 L 2.15625 -2.96875 C 2.296875 -3.28125 2.828125 -4.1875 3.78125 -4.1875 C 4.234375 -4.1875 4.3125 -3.8125 4.3125 -3.484375 C 4.3125 -3.234375 4.25 -2.953125 4.171875 -2.65625 L 3.890625 -1.5 C 3.78125 -1.140625 3.78125 -1.078125 3.6875 -0.75 C 3.65625 -0.546875 3.5625 -0.203125 3.5625 -0.15625 C 3.5625 0.015625 3.703125 0.109375 3.84375 0.109375 C 4.15625 0.109375 4.21875 -0.140625 4.296875 -0.453125 L 4.890625 -2.859375 C 4.921875 -2.984375 5.453125 -4.1875 6.546875 -4.1875 C 6.96875 -4.1875 7.078125 -3.84375 7.078125 -3.484375 C 7.078125 -2.921875 6.65625 -1.78125 6.453125 -1.25 C 6.375 -1.015625 6.328125 -0.90625 6.328125 -0.703125 C 6.328125 -0.234375 6.671875 0.109375 7.140625 0.109375 C 8.078125 0.109375 8.453125 -1.34375 8.453125 -1.421875 Z M 8.453125 -1.421875 "/>
</symbol>
<symbol overflow="visible" id="i5-glyph0-2">
<path style="stroke:none;" d="M 5.4375 -1.421875 C 5.4375 -1.53125 5.359375 -1.53125 5.328125 -1.53125 C 5.21875 -1.53125 5.21875 -1.5 5.171875 -1.34375 C 5.03125 -0.8125 4.703125 -0.109375 4.15625 -0.109375 C 3.984375 -0.109375 3.921875 -0.203125 3.921875 -0.4375 C 3.921875 -0.6875 4 -0.921875 4.09375 -1.140625 C 4.25 -1.578125 4.703125 -2.765625 4.703125 -3.34375 C 4.703125 -3.984375 4.3125 -4.40625 3.5625 -4.40625 C 2.9375 -4.40625 2.453125 -4.09375 2.078125 -3.640625 L 2.859375 -6.8125 C 2.859375 -6.8125 2.859375 -6.921875 2.734375 -6.921875 C 2.5 -6.921875 1.78125 -6.84375 1.515625 -6.8125 C 1.4375 -6.8125 1.328125 -6.796875 1.328125 -6.625 C 1.328125 -6.5 1.421875 -6.5 1.5625 -6.5 C 2.046875 -6.5 2.0625 -6.4375 2.0625 -6.328125 L 2.03125 -6.125 L 0.59375 -0.390625 C 0.546875 -0.25 0.546875 -0.234375 0.546875 -0.171875 C 0.546875 0.0625 0.75 0.109375 0.84375 0.109375 C 1 0.109375 1.15625 -0.015625 1.203125 -0.15625 L 1.390625 -0.90625 L 1.609375 -1.796875 C 1.671875 -2.03125 1.734375 -2.25 1.78125 -2.46875 C 1.796875 -2.53125 1.890625 -2.859375 1.890625 -2.921875 C 1.921875 -3.015625 2.234375 -3.5625 2.578125 -3.84375 C 2.796875 -4 3.09375 -4.1875 3.53125 -4.1875 C 3.953125 -4.1875 4.0625 -3.84375 4.0625 -3.484375 C 4.0625 -2.953125 3.6875 -1.859375 3.453125 -1.25 C 3.375 -1.03125 3.3125 -0.90625 3.3125 -0.703125 C 3.3125 -0.234375 3.671875 0.109375 4.140625 0.109375 C 5.078125 0.109375 5.4375 -1.34375 5.4375 -1.421875 Z M 5.4375 -1.421875 "/>
</symbol>
<symbol overflow="visible" id="i5-glyph1-0">
<path style="stroke:none;" d=""/>
</symbol>
<symbol overflow="visible" id="i5-glyph1-1">
<path style="stroke:none;" d="M 4.15625 0 L 4.15625 -0.25 C 3.703125 -0.25 3.640625 -0.25 3.640625 -0.546875 L 3.640625 -4.84375 C 3.578125 -4.828125 3.375 -4.796875 3.359375 -4.796875 C 3.359375 -4.796875 3.328125 -4.796875 3.296875 -4.8125 C 3.03125 -4.90625 2.734375 -4.90625 2.609375 -4.90625 C 1.75 -4.90625 0.859375 -4.53125 0.859375 -3.765625 L 0.859375 -3 L 0.265625 -3 L 0.265625 -2.75 L 0.859375 -2.75 L 0.859375 -0.546875 C 0.859375 -0.25 0.796875 -0.25 0.34375 -0.25 L 0.34375 0 C 0.34375 0 0.84375 -0.03125 1.125 -0.03125 C 1.390625 -0.03125 1.640625 -0.015625 1.90625 0 L 1.90625 -0.25 C 1.453125 -0.25 1.390625 -0.25 1.390625 -0.546875 L 1.390625 -2.75 L 3.109375 -2.75 L 3.109375 -0.546875 C 3.109375 -0.25 3.046875 -0.25 2.59375 -0.25 L 2.59375 0 C 2.59375 0 3.09375 -0.03125 3.375 -0.03125 C 3.640625 -0.03125 3.890625 -0.015625 4.15625 0 Z M 3.109375 -3 L 1.359375 -3 L 1.359375 -3.765625 C 1.359375 -4.375 1.9375 -4.703125 2.59375 -4.703125 C 2.78125 -4.703125 2.90625 -4.703125 3.09375 -4.65625 C 3 -4.609375 2.953125 -4.5 2.953125 -4.390625 C 2.953125 -4.359375 2.96875 -4.203125 3.109375 -4.125 Z M 3.109375 -3 "/>
</symbol>
<symbol overflow="visible" id="i5-glyph1-2">
<path style="stroke:none;" d="M 3.6875 -1.484375 C 3.6875 -2.359375 2.9375 -3.109375 1.984375 -3.109375 C 1.015625 -3.109375 0.265625 -2.359375 0.265625 -1.484375 C 0.265625 -0.625 1.03125 0.0625 1.984375 0.0625 C 2.921875 0.0625 3.6875 -0.625 3.6875 -1.484375 Z M 3.046875 -1.546875 C 3.046875 -1.21875 3.03125 -0.84375 2.828125 -0.5625 C 2.640625 -0.296875 2.328125 -0.15625 1.984375 -0.15625 C 1.71875 -0.15625 1.34375 -0.234375 1.109375 -0.578125 C 0.921875 -0.859375 0.90625 -1.21875 0.90625 -1.546875 C 0.90625 -1.84375 0.90625 -2.265625 1.15625 -2.5625 C 1.328125 -2.765625 1.625 -2.90625 1.984375 -2.90625 C 2.390625 -2.90625 2.6875 -2.71875 2.84375 -2.5 C 3.03125 -2.234375 3.046875 -1.875 3.046875 -1.546875 Z M 3.046875 -1.546875 "/>
</symbol>
<symbol overflow="visible" id="i5-glyph1-3">
<path style="stroke:none;" d="M 5.46875 -2.75 L 5.46875 -3 C 5.28125 -2.984375 5.15625 -2.96875 4.96875 -2.96875 C 4.75 -2.96875 4.484375 -2.984375 4.28125 -3 L 4.28125 -2.75 C 4.515625 -2.75 4.640625 -2.609375 4.640625 -2.453125 C 4.640625 -2.390625 4.640625 -2.375 4.59375 -2.28125 L 3.921875 -0.546875 L 3.171875 -2.453125 C 3.15625 -2.484375 3.140625 -2.53125 3.140625 -2.578125 C 3.140625 -2.734375 3.3125 -2.75 3.515625 -2.75 L 3.515625 -3 C 3.265625 -2.984375 3.015625 -2.96875 2.765625 -2.96875 C 2.5625 -2.96875 2.34375 -2.984375 2.140625 -3 L 2.140625 -2.75 C 2.3125 -2.75 2.453125 -2.75 2.546875 -2.703125 C 2.640625 -2.625 2.703125 -2.390625 2.703125 -2.390625 C 2.703125 -2.390625 2.6875 -2.328125 2.671875 -2.3125 L 2.015625 -0.640625 L 1.3125 -2.453125 C 1.28125 -2.546875 1.28125 -2.546875 1.28125 -2.578125 C 1.28125 -2.75 1.53125 -2.75 1.65625 -2.75 L 1.65625 -3 C 1.65625 -3 1.140625 -2.96875 0.859375 -2.96875 C 0.640625 -2.96875 0.421875 -2.984375 0.203125 -3 L 0.203125 -2.75 C 0.484375 -2.75 0.640625 -2.75 0.703125 -2.546875 L 1.671875 -0.09375 C 1.71875 0.015625 1.734375 0.0625 1.875 0.0625 C 2 0.0625 2.015625 0.015625 2.046875 -0.078125 L 2.84375 -2.0625 L 3.609375 -0.09375 C 3.65625 0 3.671875 0.0625 3.8125 0.0625 C 3.9375 0.0625 3.953125 0.015625 4 -0.09375 L 4.875 -2.328125 C 5.015625 -2.671875 5.25 -2.75 5.46875 -2.75 Z M 5.46875 -2.75 "/>
</symbol>
<symbol overflow="visible" id="i5-glyph1-4">
<path style="stroke:none;" d="M 3.296875 0 L 3.296875 -0.25 L 3.03125 -0.25 C 2.328125 -0.25 2.328125 -0.34375 2.328125 -0.578125 L 2.328125 -4.4375 C 2.328125 -4.625 2.328125 -4.625 2.125 -4.625 C 1.671875 -4.1875 1.046875 -4.1875 0.765625 -4.1875 L 0.765625 -3.9375 C 0.921875 -3.9375 1.390625 -3.9375 1.765625 -4.125 L 1.765625 -0.578125 C 1.765625 -0.34375 1.765625 -0.25 1.078125 -0.25 L 0.8125 -0.25 L 0.8125 0 L 2.046875 -0.03125 Z M 3.296875 0 "/>
</symbol>
<symbol overflow="visible" id="i5-glyph1-5">
<path style="stroke:none;" d="M 4.109375 0 L 4.109375 -0.25 C 3.640625 -0.25 3.59375 -0.296875 3.59375 -0.640625 L 3.59375 -3.078125 L 2.515625 -3 L 2.515625 -2.75 C 2.984375 -2.75 3.03125 -2.703125 3.03125 -2.359375 L 3.03125 -1.15625 C 3.03125 -0.546875 2.640625 -0.125 2.109375 -0.125 C 1.484375 -0.125 1.453125 -0.421875 1.453125 -0.78125 L 1.453125 -3.078125 L 0.375 -3 L 0.375 -2.75 C 0.90625 -2.75 0.90625 -2.71875 0.90625 -2.109375 L 0.90625 -1.0625 C 0.90625 -0.578125 0.90625 0.0625 2.0625 0.0625 C 2.21875 0.0625 2.71875 0.0625 3.0625 -0.515625 L 3.0625 0.0625 Z M 4.109375 0 "/>
</symbol>
<symbol overflow="visible" id="i5-glyph1-6">
<path style="stroke:none;" d="M 2.609375 -0.875 L 2.609375 -1.265625 L 2.375 -1.265625 L 2.375 -0.890625 C 2.375 -0.40625 2.15625 -0.15625 1.875 -0.15625 C 1.40625 -0.15625 1.40625 -0.734375 1.40625 -0.859375 L 1.40625 -2.75 L 2.484375 -2.75 L 2.484375 -3 L 1.40625 -3 L 1.40625 -4.28125 L 1.15625 -4.28125 C 1.15625 -3.65625 0.875 -2.96875 0.203125 -2.953125 L 0.203125 -2.75 L 0.84375 -2.75 L 0.84375 -0.875 C 0.84375 -0.09375 1.4375 0.0625 1.828125 0.0625 C 2.296875 0.0625 2.609375 -0.328125 2.609375 -0.875 Z M 2.609375 -0.875 "/>
</symbol>
<symbol overflow="visible" id="i5-glyph2-0">
<path style="stroke:none;" d=""/>
</symbol>
<symbol overflow="visible" id="i5-glyph2-1">
<path style="stroke:none;" d="M 1.671875 -0.046875 C 1.671875 -0.46875 1.5 -0.796875 1.171875 -0.796875 C 0.953125 -0.796875 0.78125 -0.625 0.78125 -0.40625 C 0.78125 -0.1875 0.9375 0 1.1875 0 C 1.359375 0 1.46875 -0.109375 1.46875 -0.109375 C 1.46875 0.265625 1.40625 0.71875 0.921875 1.15625 C 0.90625 1.1875 0.875 1.21875 0.875 1.25 C 0.875 1.296875 0.9375 1.34375 0.96875 1.34375 C 1.078125 1.34375 1.671875 0.78125 1.671875 -0.046875 Z M 1.671875 -0.046875 "/>
</symbol>
<symbol overflow="visible" id="i5-glyph3-0">
<path style="stroke:none;" d=""/>
</symbol>
<symbol overflow="visible" id="i5-glyph3-1">
<path style="stroke:none;" d="M 2.03125 -0.015625 C 2.03125 -0.640625 1.78125 -1.0625 1.390625 -1.0625 C 1.03125 -1.0625 0.859375 -0.78125 0.859375 -0.53125 C 0.859375 -0.265625 1.03125 0 1.390625 0 C 1.53125 0 1.671875 -0.0625 1.78125 -0.15625 C 1.796875 0.625 1.53125 1.234375 1.09375 1.703125 C 1.03125 1.765625 1.015625 1.78125 1.015625 1.8125 C 1.015625 1.890625 1.0625 1.921875 1.109375 1.921875 C 1.234375 1.921875 2.03125 1.140625 2.03125 -0.015625 Z M 2.03125 -0.015625 "/>
</symbol>
<symbol overflow="visible" id="i5-glyph4-0">
<path style="stroke:none;" d=""/>
</symbol>
<symbol overflow="visible" id="i5-glyph4-1">
<path style="stroke:none;" d="M 4.53125 -0.296875 C 4.53125 -0.609375 4.28125 -0.609375 4.125 -0.609375 L 3.078125 -0.609375 L 3.078125 -3.890625 C 3.078125 -4.203125 3.015625 -4.296875 2.6875 -4.296875 L 1.265625 -4.296875 C 1.109375 -4.296875 0.859375 -4.296875 0.859375 -4 C 0.859375 -3.6875 1.109375 -3.6875 1.265625 -3.6875 L 2.390625 -3.6875 L 2.390625 -0.609375 L 1.1875 -0.609375 C 1.03125 -0.609375 0.78125 -0.609375 0.78125 -0.296875 C 0.78125 0 1.03125 0 1.1875 0 L 4.125 0 C 4.28125 0 4.53125 0 4.53125 -0.296875 Z M 3.125 -5.53125 C 3.125 -5.8125 2.90625 -6.03125 2.625 -6.03125 C 2.34375 -6.03125 2.125 -5.8125 2.125 -5.53125 C 2.125 -5.25 2.34375 -5.03125 2.625 -5.03125 C 2.90625 -5.03125 3.125 -5.25 3.125 -5.53125 Z M 3.125 -5.53125 "/>
</symbol>
<symbol overflow="visible" id="i5-glyph4-2">
<path style="stroke:none;" d="M 5.109375 -0.296875 C 5.109375 -0.609375 4.859375 -0.609375 4.6875 -0.609375 L 4.25 -0.609375 L 4.25 -2.921875 C 4.25 -3.921875 3.75 -4.359375 2.953125 -4.359375 C 2.296875 -4.359375 1.84375 -4.015625 1.65625 -3.828125 C 1.65625 -4.140625 1.65625 -4.296875 1.25 -4.296875 L 0.53125 -4.296875 C 0.375 -4.296875 0.125 -4.296875 0.125 -3.984375 C 0.125 -3.6875 0.375 -3.6875 0.515625 -3.6875 L 0.96875 -3.6875 L 0.96875 -0.609375 L 0.53125 -0.609375 C 0.375 -0.609375 0.125 -0.609375 0.125 -0.296875 C 0.125 0 0.375 0 0.515625 0 L 2.109375 0 C 2.25 0 2.5 0 2.5 -0.296875 C 2.5 -0.609375 2.25 -0.609375 2.09375 -0.609375 L 1.65625 -0.609375 L 1.65625 -2.375 C 1.65625 -3.375 2.390625 -3.75 2.90625 -3.75 C 3.421875 -3.75 3.5625 -3.46875 3.5625 -2.875 L 3.5625 -0.609375 L 3.1875 -0.609375 C 3.015625 -0.609375 2.765625 -0.609375 2.765625 -0.296875 C 2.765625 0 3.046875 0 3.1875 0 L 4.703125 0 C 4.84375 0 5.109375 0 5.109375 -0.296875 Z M 5.109375 -0.296875 "/>
</symbol>
<symbol overflow="visible" id="i5-glyph4-3">
<path style="stroke:none;" d="M 4.703125 -1.65625 C 4.703125 -2.296875 4.34375 -2.71875 4.234375 -2.84375 C 3.8125 -3.234375 3.546875 -3.3125 2.765625 -3.484375 L 1.96875 -3.671875 C 1.546875 -3.78125 1.171875 -4.140625 1.171875 -4.609375 C 1.171875 -5.109375 1.65625 -5.59375 2.359375 -5.59375 C 3.53125 -5.59375 3.6875 -4.65625 3.75 -4.34375 C 3.78125 -4.125 3.890625 -4.0625 4.09375 -4.0625 C 4.4375 -4.0625 4.4375 -4.28125 4.4375 -4.46875 L 4.4375 -5.796875 C 4.4375 -5.953125 4.4375 -6.203125 4.140625 -6.203125 C 3.890625 -6.203125 3.84375 -6.03125 3.765625 -5.734375 C 3.359375 -6.078125 2.828125 -6.203125 2.375 -6.203125 C 1.265625 -6.203125 0.515625 -5.40625 0.515625 -4.5625 C 0.515625 -3.890625 0.984375 -3.234375 1.796875 -3 L 2.953125 -2.734375 C 3.234375 -2.671875 4.0625 -2.46875 4.0625 -1.609375 C 4.0625 -1.09375 3.625 -0.5 2.84375 -0.5 C 2.5625 -0.5 2.078125 -0.53125 1.671875 -0.8125 C 1.25 -1.078125 1.21875 -1.5 1.203125 -1.671875 C 1.203125 -1.84375 1.1875 -2.03125 0.875 -2.03125 C 0.515625 -2.03125 0.515625 -1.8125 0.515625 -1.609375 L 0.515625 -0.296875 C 0.515625 -0.140625 0.515625 0.109375 0.8125 0.109375 C 1.03125 0.109375 1.09375 -0.03125 1.1875 -0.34375 C 1.578125 -0.046875 2.1875 0.109375 2.828125 0.109375 C 3.984375 0.109375 4.703125 -0.765625 4.703125 -1.65625 Z M 4.703125 -1.65625 "/>
</symbol>
<symbol overflow="visible" id="i5-glyph4-4">
<path style="stroke:none;" d="M 4.46875 -1.25 C 4.46875 -1.4375 4.46875 -1.640625 4.125 -1.640625 C 3.796875 -1.640625 3.78125 -1.4375 3.78125 -1.265625 C 3.78125 -0.640625 3.203125 -0.546875 2.984375 -0.546875 C 2.21875 -0.546875 2.21875 -1.0625 2.21875 -1.3125 L 2.21875 -3.6875 L 3.84375 -3.6875 C 4 -3.6875 4.25 -3.6875 4.25 -3.984375 C 4.25 -4.296875 4 -4.296875 3.84375 -4.296875 L 2.21875 -4.296875 L 2.21875 -5.109375 C 2.21875 -5.296875 2.21875 -5.515625 1.875 -5.515625 C 1.53125 -5.515625 1.53125 -5.3125 1.53125 -5.109375 L 1.53125 -4.296875 L 0.65625 -4.296875 C 0.5 -4.296875 0.25 -4.296875 0.25 -3.984375 C 0.25 -3.6875 0.5 -3.6875 0.640625 -3.6875 L 1.53125 -3.6875 L 1.53125 -1.25 C 1.53125 -0.296875 2.203125 0.0625 2.9375 0.0625 C 3.671875 0.0625 4.46875 -0.375 4.46875 -1.25 Z M 4.46875 -1.25 "/>
</symbol>
<symbol overflow="visible" id="i5-glyph4-5">
<path style="stroke:none;" d="M 4.859375 -3.734375 C 4.859375 -3.9375 4.734375 -4.359375 3.90625 -4.359375 C 3.40625 -4.359375 2.765625 -4.171875 2.21875 -3.546875 L 2.21875 -3.890625 C 2.21875 -4.203125 2.15625 -4.296875 1.8125 -4.296875 L 0.71875 -4.296875 C 0.5625 -4.296875 0.3125 -4.296875 0.3125 -4 C 0.3125 -3.6875 0.5625 -3.6875 0.71875 -3.6875 L 1.53125 -3.6875 L 1.53125 -0.609375 L 0.71875 -0.609375 C 0.5625 -0.609375 0.3125 -0.609375 0.3125 -0.3125 C 0.3125 0 0.5625 0 0.71875 0 L 3.3125 0 C 3.46875 0 3.734375 0 3.734375 -0.296875 C 3.734375 -0.609375 3.46875 -0.609375 3.3125 -0.609375 L 2.21875 -0.609375 L 2.21875 -1.859375 C 2.21875 -2.796875 2.796875 -3.75 4 -3.75 C 4.015625 -3.515625 4.1875 -3.3125 4.4375 -3.3125 C 4.65625 -3.3125 4.859375 -3.46875 4.859375 -3.734375 Z M 4.859375 -3.734375 "/>
</symbol>
<symbol overflow="visible" id="i5-glyph4-6">
<path style="stroke:none;" d="M 4.625 -1.09375 C 4.625 -1.359375 4.34375 -1.359375 4.28125 -1.359375 C 4.09375 -1.359375 4.015625 -1.328125 3.953125 -1.140625 C 3.734375 -0.640625 3.1875 -0.546875 2.90625 -0.546875 C 2.15625 -0.546875 1.421875 -1.046875 1.25 -1.90625 L 4.234375 -1.90625 C 4.4375 -1.90625 4.625 -1.90625 4.625 -2.265625 C 4.625 -3.40625 3.984375 -4.390625 2.6875 -4.390625 C 1.5 -4.390625 0.546875 -3.390625 0.546875 -2.15625 C 0.546875 -0.953125 1.5625 0.0625 2.84375 0.0625 C 4.15625 0.0625 4.625 -0.84375 4.625 -1.09375 Z M 3.921875 -2.5 L 1.265625 -2.5 C 1.40625 -3.234375 2 -3.78125 2.6875 -3.78125 C 3.203125 -3.78125 3.828125 -3.53125 3.921875 -2.5 Z M 3.921875 -2.5 "/>
</symbol>
<symbol overflow="visible" id="i5-glyph4-7">
<path style="stroke:none;" d="M 5.171875 -0.3125 C 5.171875 -0.609375 4.921875 -0.609375 4.78125 -0.609375 C 4.359375 -0.609375 4.25 -0.65625 4.171875 -0.6875 L 4.171875 -2.84375 C 4.171875 -3.546875 3.640625 -4.390625 2.203125 -4.390625 C 1.78125 -4.390625 0.75 -4.390625 0.75 -3.65625 C 0.75 -3.359375 0.96875 -3.203125 1.203125 -3.203125 C 1.359375 -3.203125 1.640625 -3.296875 1.640625 -3.65625 C 1.640625 -3.734375 1.65625 -3.75 1.859375 -3.765625 C 2 -3.78125 2.125 -3.78125 2.21875 -3.78125 C 2.96875 -3.78125 3.484375 -3.46875 3.484375 -2.765625 C 1.71875 -2.734375 0.5 -2.234375 0.5 -1.28125 C 0.5 -0.59375 1.125 0.0625 2.140625 0.0625 C 2.515625 0.0625 3.125 -0.015625 3.59375 -0.3125 C 3.8125 -0.015625 4.296875 0 4.671875 0 C 4.953125 0 5.171875 0 5.171875 -0.3125 Z M 3.484375 -1.328125 C 3.484375 -1.109375 3.484375 -0.890625 3.09375 -0.71875 C 2.734375 -0.546875 2.296875 -0.546875 2.21875 -0.546875 C 1.59375 -0.546875 1.1875 -0.890625 1.1875 -1.28125 C 1.1875 -1.765625 2.046875 -2.140625 3.484375 -2.171875 Z M 3.484375 -1.328125 "/>
</symbol>
<symbol overflow="visible" id="i5-glyph4-8">
<path style="stroke:none;" d="M 5.140625 -0.296875 C 5.140625 -0.609375 4.9375 -0.609375 4.578125 -0.609375 L 4.578125 -3.015625 C 4.578125 -3.21875 4.578125 -4.359375 3.6875 -4.359375 C 3.390625 -4.359375 2.984375 -4.234375 2.703125 -3.84375 C 2.546875 -4.171875 2.265625 -4.359375 1.9375 -4.359375 C 1.625 -4.359375 1.328125 -4.21875 1.09375 -4 C 1.0625 -4.296875 0.875 -4.296875 0.6875 -4.296875 L 0.375 -4.296875 C 0.21875 -4.296875 -0.046875 -4.296875 -0.046875 -4 C -0.046875 -3.6875 0.171875 -3.6875 0.53125 -3.6875 L 0.53125 -0.609375 C 0.171875 -0.609375 -0.046875 -0.609375 -0.046875 -0.296875 C -0.046875 0 0.234375 0 0.375 0 L 1.25 0 C 1.390625 0 1.65625 0 1.65625 -0.296875 C 1.65625 -0.609375 1.453125 -0.609375 1.09375 -0.609375 L 1.09375 -2.390625 C 1.09375 -3.28125 1.5 -3.75 1.90625 -3.75 C 2.140625 -3.75 2.265625 -3.578125 2.265625 -2.9375 L 2.265625 -0.609375 C 2.078125 -0.609375 1.828125 -0.609375 1.828125 -0.296875 C 1.828125 0 2.109375 0 2.25 0 L 2.984375 0 C 3.140625 0 3.40625 0 3.40625 -0.296875 C 3.40625 -0.609375 3.1875 -0.609375 2.828125 -0.609375 L 2.828125 -2.390625 C 2.828125 -3.28125 3.234375 -3.75 3.65625 -3.75 C 3.875 -3.75 4.015625 -3.578125 4.015625 -2.9375 L 4.015625 -0.609375 C 3.828125 -0.609375 3.578125 -0.609375 3.578125 -0.296875 C 3.578125 0 3.84375 0 3.984375 0 L 4.734375 0 C 4.890625 0 5.140625 0 5.140625 -0.296875 Z M 5.140625 -0.296875 "/>
</symbol>
<symbol overflow="visible" id="i5-glyph4-9">
<path style="stroke:none;" d="M 4.359375 0.53125 C 4.359375 0.390625 4.28125 0.34375 4.109375 0.234375 C 2.875 -0.609375 2.40625 -1.9375 2.40625 -3.046875 C 2.40625 -4.046875 2.796875 -5.4375 4.125 -6.34375 C 4.28125 -6.453125 4.359375 -6.484375 4.359375 -6.640625 C 4.359375 -6.71875 4.3125 -6.921875 4.046875 -6.921875 C 3.765625 -6.921875 1.71875 -5.609375 1.71875 -3.046875 C 1.71875 -1.859375 2.1875 -0.96875 2.53125 -0.46875 C 3.0625 0.265625 3.8125 0.8125 4.046875 0.8125 C 4.3125 0.8125 4.359375 0.625 4.359375 0.53125 Z M 4.359375 0.53125 "/>
</symbol>
<symbol overflow="visible" id="i5-glyph4-10">
<path style="stroke:none;" d="M 3.515625 -3.046875 C 3.515625 -4.234375 3.046875 -5.140625 2.703125 -5.625 C 2.171875 -6.359375 1.421875 -6.921875 1.1875 -6.921875 C 0.9375 -6.921875 0.875 -6.71875 0.875 -6.640625 C 0.875 -6.484375 0.984375 -6.421875 1.03125 -6.390625 C 2.671875 -5.296875 2.828125 -3.703125 2.828125 -3.046875 C 2.828125 -2.046875 2.453125 -0.671875 1.109375 0.234375 C 0.953125 0.34375 0.875 0.390625 0.875 0.53125 C 0.875 0.625 0.9375 0.8125 1.1875 0.8125 C 1.46875 0.8125 3.515625 -0.5 3.515625 -3.046875 Z M 3.515625 -3.046875 "/>
</symbol>
</g>
<clipPath id="i5-clip1">
  <path d="M 157 91 L 158 91 L 158 93.722656 L 157 93.722656 Z M 157 91 "/>
</clipPath>
</defs>
<g id="i5-surface26">
<g style="fill:rgb(0%,0%,0%);fill-opacity:1;">
  <use xlink:href="#i5-glyph0-1" x="94.737" y="78.918"/>
</g>
<g style="fill:rgb(0%,0%,0%);fill-opacity:1;">
  <use xlink:href="#i5-glyph1-1" x="103.485" y="80.413"/>
  <use xlink:href="#i5-glyph1-2" x="107.996351" y="80.413"/>
</g>
<g style="fill:rgb(0%,0%,0%);fill-opacity:1;">
  <use xlink:href="#i5-glyph1-3" x="111.751045" y="80.413"/>
</g>
<g style="fill:rgb(0%,0%,0%);fill-opacity:1;">
  <use xlink:href="#i5-glyph2-1" x="117.44" y="80.413"/>
</g>
<g style="fill:rgb(0%,0%,0%);fill-opacity:1;">
  <use xlink:href="#i5-glyph1-4" x="119.806" y="80.413"/>
</g>
<g style="fill:rgb(0%,0%,0%);fill-opacity:1;">
  <use xlink:href="#i5-glyph3-1" x="124.275" y="78.918"/>
</g>
<g style="fill:rgb(0%,0%,0%);fill-opacity:1;">
  <use xlink:href="#i5-glyph0-2" x="130.363" y="78.918"/>
</g>
<g style="fill:rgb(0%,0%,0%);fill-opacity:1;">
  <use xlink:href="#i5-glyph1-2" x="136.103" y="80.413"/>
  <use xlink:href="#i5-glyph1-5" x="140.073882" y="80.413"/>
  <use xlink:href="#i5-glyph1-6" x="144.47435" y="80.413"/>
  <use xlink:href="#i5-glyph1-1" x="147.587454" y="80.413"/>
  <use xlink:href="#i5-glyph1-2" x="152.098805" y="80.413"/>
</g>
<g style="fill:rgb(0%,0%,0%);fill-opacity:1;">
  <use xlink:href="#i5-glyph1-3" x="155.853499" y="80.413"/>
</g>
<g style="fill:rgb(0%,0%,0%);fill-opacity:1;">
  <use xlink:href="#i5-glyph2-1" x="161.543" y="80.413"/>
</g>
<g style="fill:rgb(0%,0%,0%);fill-opacity:1;">
  <use xlink:href="#i5-glyph1-4" x="163.909" y="80.413"/>
</g>
<g style="fill:rgb(32.998657%,23.999023%,2.999878%);fill-opacity:1;">
  <use xlink:href="#i5-glyph4-1" x="78.059" y="90.874"/>
  <use xlink:href="#i5-glyph4-2" x="83.289365" y="90.874"/>
  <use xlink:href="#i5-glyph4-3" x="88.51973" y="90.874"/>
  <use xlink:href="#i5-glyph4-4" x="93.750095" y="90.874"/>
  <use xlink:href="#i5-glyph4-5" x="98.98046" y="90.874"/>
  <use xlink:href="#i5-glyph4-6" x="104.210825" y="90.874"/>
  <use xlink:href="#i5-glyph4-7" x="109.44119" y="90.874"/>
  <use xlink:href="#i5-glyph4-8" x="114.671555" y="90.874"/>
</g>
<g style="fill:rgb(0%,0%,0%);fill-opacity:1;">
  <use xlink:href="#i5-glyph4-9" x="119.90192" y="90.874"/>
</g>
<g style="fill:rgb(0%,0%,0%);fill-opacity:1;">
  <use xlink:href="#i5-glyph0-2" x="125.133" y="90.874"/>
</g>
<g style="fill:rgb(0%,0%,0%);fill-opacity:1;">
  <use xlink:href="#i5-glyph1-2" x="130.873" y="92.368"/>
  <use xlink:href="#i5-glyph1-5" x="134.843882" y="92.368"/>
  <use xlink:href="#i5-glyph1-6" x="139.24435" y="92.368"/>
  <use xlink:href="#i5-glyph1-1" x="142.357454" y="92.368"/>
  <use xlink:href="#i5-glyph1-2" x="146.868805" y="92.368"/>
</g>
<g style="fill:rgb(0%,0%,0%);fill-opacity:1;">
  <use xlink:href="#i5-glyph1-3" x="150.623499" y="92.368"/>
</g>
<g> <!-- clip-path="url(#clip1)" clip-rule="nonzero" -->
<g style="fill:rgb(0%,0%,0%);fill-opacity:1;">
  <use xlink:href="#i5-glyph2-1" x="156.312" y="92.368"/>
</g>
</g>
<g style="fill:rgb(0%,0%,0%);fill-opacity:1;">
  <use xlink:href="#i5-glyph1-4" x="158.678" y="92.368"/>
</g>
<g style="fill:rgb(0%,0%,0%);fill-opacity:1;">
  <use xlink:href="#i5-glyph4-10" x="163.148" y="90.874"/>
</g>
</g>
</g>
  <g id="g6" transform="translate(-72, 85.3526)scale(1.0, -1.0)">
<defs>
<g>
<symbol overflow="visible" id="i6-glyph0-0">
<path style="stroke:none;" d=""/>
</symbol>
<symbol overflow="visible" id="i6-glyph0-1">
<path style="stroke:none;" d="M 8.453125 -1.421875 C 8.453125 -1.53125 8.359375 -1.53125 8.328125 -1.53125 C 8.234375 -1.53125 8.234375 -1.5 8.1875 -1.34375 C 8.03125 -0.8125 7.71875 -0.109375 7.171875 -0.109375 C 7 -0.109375 6.921875 -0.203125 6.921875 -0.4375 C 6.921875 -0.6875 7.015625 -0.921875 7.109375 -1.140625 C 7.296875 -1.671875 7.71875 -2.765625 7.71875 -3.34375 C 7.71875 -3.984375 7.3125 -4.40625 6.5625 -4.40625 C 5.828125 -4.40625 5.3125 -3.96875 4.9375 -3.4375 C 4.9375 -3.5625 4.90625 -3.90625 4.625 -4.140625 C 4.375 -4.359375 4.0625 -4.40625 3.8125 -4.40625 C 2.90625 -4.40625 2.421875 -3.765625 2.25 -3.53125 C 2.203125 -4.109375 1.78125 -4.40625 1.328125 -4.40625 C 0.875 -4.40625 0.6875 -4.015625 0.59375 -3.84375 C 0.421875 -3.484375 0.296875 -2.90625 0.296875 -2.875 C 0.296875 -2.765625 0.40625 -2.765625 0.40625 -2.765625 C 0.515625 -2.765625 0.515625 -2.78125 0.578125 -3 C 0.75 -3.703125 0.953125 -4.1875 1.3125 -4.1875 C 1.46875 -4.1875 1.609375 -4.109375 1.609375 -3.734375 C 1.609375 -3.515625 1.578125 -3.40625 1.453125 -2.890625 L 0.875 -0.59375 C 0.84375 -0.4375 0.78125 -0.203125 0.78125 -0.15625 C 0.78125 0.015625 0.921875 0.109375 1.078125 0.109375 C 1.203125 0.109375 1.375 0.03125 1.453125 -0.171875 C 1.453125 -0.1875 1.578125 -0.65625 1.640625 -0.90625 L 1.859375 -1.796875 C 1.90625 -2.03125 1.96875 -2.25 2.03125 -2.46875 L 2.15625 -2.96875 C 2.296875 -3.28125 2.828125 -4.1875 3.78125 -4.1875 C 4.234375 -4.1875 4.3125 -3.8125 4.3125 -3.484375 C 4.3125 -3.234375 4.25 -2.953125 4.171875 -2.65625 L 3.890625 -1.5 C 3.78125 -1.140625 3.78125 -1.078125 3.6875 -0.75 C 3.65625 -0.546875 3.5625 -0.203125 3.5625 -0.15625 C 3.5625 0.015625 3.703125 0.109375 3.84375 0.109375 C 4.15625 0.109375 4.21875 -0.140625 4.296875 -0.453125 L 4.890625 -2.859375 C 4.921875 -2.984375 5.453125 -4.1875 6.546875 -4.1875 C 6.96875 -4.1875 7.078125 -3.84375 7.078125 -3.484375 C 7.078125 -2.921875 6.65625 -1.78125 6.453125 -1.25 C 6.375 -1.015625 6.328125 -0.90625 6.328125 -0.703125 C 6.328125 -0.234375 6.671875 0.109375 7.140625 0.109375 C 8.078125 0.109375 8.453125 -1.34375 8.453125 -1.421875 Z M 8.453125 -1.421875 "/>
</symbol>
<symbol overflow="visible" id="i6-glyph0-2">
<path style="stroke:none;" d="M 5.4375 -1.421875 C 5.4375 -1.53125 5.359375 -1.53125 5.328125 -1.53125 C 5.21875 -1.53125 5.21875 -1.5 5.171875 -1.34375 C 5.03125 -0.8125 4.703125 -0.109375 4.15625 -0.109375 C 3.984375 -0.109375 3.921875 -0.203125 3.921875 -0.4375 C 3.921875 -0.6875 4 -0.921875 4.09375 -1.140625 C 4.25 -1.578125 4.703125 -2.765625 4.703125 -3.34375 C 4.703125 -3.984375 4.3125 -4.40625 3.5625 -4.40625 C 2.9375 -4.40625 2.453125 -4.09375 2.078125 -3.640625 L 2.859375 -6.8125 C 2.859375 -6.8125 2.859375 -6.921875 2.734375 -6.921875 C 2.5 -6.921875 1.78125 -6.84375 1.515625 -6.8125 C 1.4375 -6.8125 1.328125 -6.796875 1.328125 -6.625 C 1.328125 -6.5 1.421875 -6.5 1.5625 -6.5 C 2.046875 -6.5 2.0625 -6.4375 2.0625 -6.328125 L 2.03125 -6.125 L 0.59375 -0.390625 C 0.546875 -0.25 0.546875 -0.234375 0.546875 -0.171875 C 0.546875 0.0625 0.75 0.109375 0.84375 0.109375 C 1 0.109375 1.15625 -0.015625 1.203125 -0.15625 L 1.390625 -0.90625 L 1.609375 -1.796875 C 1.671875 -2.03125 1.734375 -2.25 1.78125 -2.46875 C 1.796875 -2.53125 1.890625 -2.859375 1.890625 -2.921875 C 1.921875 -3.015625 2.234375 -3.5625 2.578125 -3.84375 C 2.796875 -4 3.09375 -4.1875 3.53125 -4.1875 C 3.953125 -4.1875 4.0625 -3.84375 4.0625 -3.484375 C 4.0625 -2.953125 3.6875 -1.859375 3.453125 -1.25 C 3.375 -1.03125 3.3125 -0.90625 3.3125 -0.703125 C 3.3125 -0.234375 3.671875 0.109375 4.140625 0.109375 C 5.078125 0.109375 5.4375 -1.34375 5.4375 -1.421875 Z M 5.4375 -1.421875 "/>
</symbol>
<symbol overflow="visible" id="i6-glyph1-0">
<path style="stroke:none;" d=""/>
</symbol>
<symbol overflow="visible" id="i6-glyph1-1">
<path style="stroke:none;" d="M 4.15625 0 L 4.15625 -0.25 C 3.703125 -0.25 3.640625 -0.25 3.640625 -0.546875 L 3.640625 -4.84375 C 3.578125 -4.828125 3.375 -4.796875 3.359375 -4.796875 C 3.359375 -4.796875 3.328125 -4.796875 3.296875 -4.8125 C 3.03125 -4.90625 2.734375 -4.90625 2.609375 -4.90625 C 1.75 -4.90625 0.859375 -4.53125 0.859375 -3.765625 L 0.859375 -3 L 0.265625 -3 L 0.265625 -2.75 L 0.859375 -2.75 L 0.859375 -0.546875 C 0.859375 -0.25 0.796875 -0.25 0.34375 -0.25 L 0.34375 0 C 0.34375 0 0.84375 -0.03125 1.125 -0.03125 C 1.390625 -0.03125 1.640625 -0.015625 1.90625 0 L 1.90625 -0.25 C 1.453125 -0.25 1.390625 -0.25 1.390625 -0.546875 L 1.390625 -2.75 L 3.109375 -2.75 L 3.109375 -0.546875 C 3.109375 -0.25 3.046875 -0.25 2.59375 -0.25 L 2.59375 0 C 2.59375 0 3.09375 -0.03125 3.375 -0.03125 C 3.640625 -0.03125 3.890625 -0.015625 4.15625 0 Z M 3.109375 -3 L 1.359375 -3 L 1.359375 -3.765625 C 1.359375 -4.375 1.9375 -4.703125 2.59375 -4.703125 C 2.78125 -4.703125 2.90625 -4.703125 3.09375 -4.65625 C 3 -4.609375 2.953125 -4.5 2.953125 -4.390625 C 2.953125 -4.359375 2.96875 -4.203125 3.109375 -4.125 Z M 3.109375 -3 "/>
</symbol>
<symbol overflow="visible" id="i6-glyph1-2">
<path style="stroke:none;" d="M 3.6875 -1.484375 C 3.6875 -2.359375 2.9375 -3.109375 1.984375 -3.109375 C 1.015625 -3.109375 0.265625 -2.359375 0.265625 -1.484375 C 0.265625 -0.625 1.03125 0.0625 1.984375 0.0625 C 2.921875 0.0625 3.6875 -0.625 3.6875 -1.484375 Z M 3.046875 -1.546875 C 3.046875 -1.21875 3.03125 -0.84375 2.828125 -0.5625 C 2.640625 -0.296875 2.328125 -0.15625 1.984375 -0.15625 C 1.71875 -0.15625 1.34375 -0.234375 1.109375 -0.578125 C 0.921875 -0.859375 0.90625 -1.21875 0.90625 -1.546875 C 0.90625 -1.84375 0.90625 -2.265625 1.15625 -2.5625 C 1.328125 -2.765625 1.625 -2.90625 1.984375 -2.90625 C 2.390625 -2.90625 2.6875 -2.71875 2.84375 -2.5 C 3.03125 -2.234375 3.046875 -1.875 3.046875 -1.546875 Z M 3.046875 -1.546875 "/>
</symbol>
<symbol overflow="visible" id="i6-glyph1-3">
<path style="stroke:none;" d="M 5.46875 -2.75 L 5.46875 -3 C 5.28125 -2.984375 5.15625 -2.96875 4.96875 -2.96875 C 4.75 -2.96875 4.484375 -2.984375 4.28125 -3 L 4.28125 -2.75 C 4.515625 -2.75 4.640625 -2.609375 4.640625 -2.453125 C 4.640625 -2.390625 4.640625 -2.375 4.59375 -2.28125 L 3.921875 -0.546875 L 3.171875 -2.453125 C 3.15625 -2.484375 3.140625 -2.53125 3.140625 -2.578125 C 3.140625 -2.734375 3.3125 -2.75 3.515625 -2.75 L 3.515625 -3 C 3.265625 -2.984375 3.015625 -2.96875 2.765625 -2.96875 C 2.5625 -2.96875 2.34375 -2.984375 2.140625 -3 L 2.140625 -2.75 C 2.3125 -2.75 2.453125 -2.75 2.546875 -2.703125 C 2.640625 -2.625 2.703125 -2.390625 2.703125 -2.390625 C 2.703125 -2.390625 2.6875 -2.328125 2.671875 -2.3125 L 2.015625 -0.640625 L 1.3125 -2.453125 C 1.28125 -2.546875 1.28125 -2.546875 1.28125 -2.578125 C 1.28125 -2.75 1.53125 -2.75 1.65625 -2.75 L 1.65625 -3 C 1.65625 -3 1.140625 -2.96875 0.859375 -2.96875 C 0.640625 -2.96875 0.421875 -2.984375 0.203125 -3 L 0.203125 -2.75 C 0.484375 -2.75 0.640625 -2.75 0.703125 -2.546875 L 1.671875 -0.09375 C 1.71875 0.015625 1.734375 0.0625 1.875 0.0625 C 2 0.0625 2.015625 0.015625 2.046875 -0.078125 L 2.84375 -2.0625 L 3.609375 -0.09375 C 3.65625 0 3.671875 0.0625 3.8125 0.0625 C 3.9375 0.0625 3.953125 0.015625 4 -0.09375 L 4.875 -2.328125 C 5.015625 -2.671875 5.25 -2.75 5.46875 -2.75 Z M 5.46875 -2.75 "/>
</symbol>
<symbol overflow="visible" id="i6-glyph1-4">
<path style="stroke:none;" d="M 3.515625 -1.265625 L 3.28125 -1.265625 C 3.265625 -1.109375 3.1875 -0.703125 3.09375 -0.640625 C 3.046875 -0.59375 2.515625 -0.59375 2.40625 -0.59375 L 1.125 -0.59375 C 1.859375 -1.234375 2.109375 -1.4375 2.515625 -1.765625 C 3.03125 -2.171875 3.515625 -2.609375 3.515625 -3.265625 C 3.515625 -4.109375 2.78125 -4.625 1.890625 -4.625 C 1.03125 -4.625 0.4375 -4.015625 0.4375 -3.375 C 0.4375 -3.03125 0.734375 -2.984375 0.8125 -2.984375 C 0.96875 -2.984375 1.171875 -3.109375 1.171875 -3.359375 C 1.171875 -3.484375 1.125 -3.734375 0.765625 -3.734375 C 0.984375 -4.21875 1.453125 -4.375 1.78125 -4.375 C 2.484375 -4.375 2.84375 -3.828125 2.84375 -3.265625 C 2.84375 -2.65625 2.40625 -2.1875 2.1875 -1.9375 L 0.515625 -0.265625 C 0.4375 -0.203125 0.4375 -0.1875 0.4375 0 L 3.3125 0 Z M 3.515625 -1.265625 "/>
</symbol>
<symbol overflow="visible" id="i6-glyph1-5">
<path style="stroke:none;" d="M 4.109375 0 L 4.109375 -0.25 C 3.640625 -0.25 3.59375 -0.296875 3.59375 -0.640625 L 3.59375 -3.078125 L 2.515625 -3 L 2.515625 -2.75 C 2.984375 -2.75 3.03125 -2.703125 3.03125 -2.359375 L 3.03125 -1.15625 C 3.03125 -0.546875 2.640625 -0.125 2.109375 -0.125 C 1.484375 -0.125 1.453125 -0.421875 1.453125 -0.78125 L 1.453125 -3.078125 L 0.375 -3 L 0.375 -2.75 C 0.90625 -2.75 0.90625 -2.71875 0.90625 -2.109375 L 0.90625 -1.0625 C 0.90625 -0.578125 0.90625 0.0625 2.0625 0.0625 C 2.21875 0.0625 2.71875 0.0625 3.0625 -0.515625 L 3.0625 0.0625 Z M 4.109375 0 "/>
</symbol>
<symbol overflow="visible" id="i6-glyph1-6">
<path style="stroke:none;" d="M 2.609375 -0.875 L 2.609375 -1.265625 L 2.375 -1.265625 L 2.375 -0.890625 C 2.375 -0.40625 2.15625 -0.15625 1.875 -0.15625 C 1.40625 -0.15625 1.40625 -0.734375 1.40625 -0.859375 L 1.40625 -2.75 L 2.484375 -2.75 L 2.484375 -3 L 1.40625 -3 L 1.40625 -4.28125 L 1.15625 -4.28125 C 1.15625 -3.65625 0.875 -2.96875 0.203125 -2.953125 L 0.203125 -2.75 L 0.84375 -2.75 L 0.84375 -0.875 C 0.84375 -0.09375 1.4375 0.0625 1.828125 0.0625 C 2.296875 0.0625 2.609375 -0.328125 2.609375 -0.875 Z M 2.609375 -0.875 "/>
</symbol>
<symbol overflow="visible" id="i6-glyph2-0">
<path style="stroke:none;" d=""/>
</symbol>
<symbol overflow="visible" id="i6-glyph2-1">
<path style="stroke:none;" d="M 1.671875 -0.046875 C 1.671875 -0.46875 1.5 -0.796875 1.171875 -0.796875 C 0.953125 -0.796875 0.78125 -0.625 0.78125 -0.40625 C 0.78125 -0.1875 0.9375 0 1.1875 0 C 1.359375 0 1.46875 -0.109375 1.46875 -0.109375 C 1.46875 0.265625 1.40625 0.71875 0.921875 1.15625 C 0.90625 1.1875 0.875 1.21875 0.875 1.25 C 0.875 1.296875 0.9375 1.34375 0.96875 1.34375 C 1.078125 1.34375 1.671875 0.78125 1.671875 -0.046875 Z M 1.671875 -0.046875 "/>
</symbol>
<symbol overflow="visible" id="i6-glyph3-0">
<path style="stroke:none;" d=""/>
</symbol>
<symbol overflow="visible" id="i6-glyph3-1">
<path style="stroke:none;" d="M 2.03125 -0.015625 C 2.03125 -0.640625 1.78125 -1.0625 1.390625 -1.0625 C 1.03125 -1.0625 0.859375 -0.78125 0.859375 -0.53125 C 0.859375 -0.265625 1.03125 0 1.390625 0 C 1.53125 0 1.671875 -0.0625 1.78125 -0.15625 C 1.796875 0.625 1.53125 1.234375 1.09375 1.703125 C 1.03125 1.765625 1.015625 1.78125 1.015625 1.8125 C 1.015625 1.890625 1.0625 1.921875 1.109375 1.921875 C 1.234375 1.921875 2.03125 1.140625 2.03125 -0.015625 Z M 2.03125 -0.015625 "/>
</symbol>
<symbol overflow="visible" id="i6-glyph4-0">
<path style="stroke:none;" d=""/>
</symbol>
<symbol overflow="visible" id="i6-glyph4-1">
<path style="stroke:none;" d="M 4.53125 -0.296875 C 4.53125 -0.609375 4.28125 -0.609375 4.125 -0.609375 L 3.078125 -0.609375 L 3.078125 -3.890625 C 3.078125 -4.203125 3.015625 -4.296875 2.6875 -4.296875 L 1.265625 -4.296875 C 1.109375 -4.296875 0.859375 -4.296875 0.859375 -4 C 0.859375 -3.6875 1.109375 -3.6875 1.265625 -3.6875 L 2.390625 -3.6875 L 2.390625 -0.609375 L 1.1875 -0.609375 C 1.03125 -0.609375 0.78125 -0.609375 0.78125 -0.296875 C 0.78125 0 1.03125 0 1.1875 0 L 4.125 0 C 4.28125 0 4.53125 0 4.53125 -0.296875 Z M 3.125 -5.53125 C 3.125 -5.8125 2.90625 -6.03125 2.625 -6.03125 C 2.34375 -6.03125 2.125 -5.8125 2.125 -5.53125 C 2.125 -5.25 2.34375 -5.03125 2.625 -5.03125 C 2.90625 -5.03125 3.125 -5.25 3.125 -5.53125 Z M 3.125 -5.53125 "/>
</symbol>
<symbol overflow="visible" id="i6-glyph4-2">
<path style="stroke:none;" d="M 5.109375 -0.296875 C 5.109375 -0.609375 4.859375 -0.609375 4.6875 -0.609375 L 4.25 -0.609375 L 4.25 -2.921875 C 4.25 -3.921875 3.75 -4.359375 2.953125 -4.359375 C 2.296875 -4.359375 1.84375 -4.015625 1.65625 -3.828125 C 1.65625 -4.140625 1.65625 -4.296875 1.25 -4.296875 L 0.53125 -4.296875 C 0.375 -4.296875 0.125 -4.296875 0.125 -3.984375 C 0.125 -3.6875 0.375 -3.6875 0.515625 -3.6875 L 0.96875 -3.6875 L 0.96875 -0.609375 L 0.53125 -0.609375 C 0.375 -0.609375 0.125 -0.609375 0.125 -0.296875 C 0.125 0 0.375 0 0.515625 0 L 2.109375 0 C 2.25 0 2.5 0 2.5 -0.296875 C 2.5 -0.609375 2.25 -0.609375 2.09375 -0.609375 L 1.65625 -0.609375 L 1.65625 -2.375 C 1.65625 -3.375 2.390625 -3.75 2.90625 -3.75 C 3.421875 -3.75 3.5625 -3.46875 3.5625 -2.875 L 3.5625 -0.609375 L 3.1875 -0.609375 C 3.015625 -0.609375 2.765625 -0.609375 2.765625 -0.296875 C 2.765625 0 3.046875 0 3.1875 0 L 4.703125 0 C 4.84375 0 5.109375 0 5.109375 -0.296875 Z M 5.109375 -0.296875 "/>
</symbol>
<symbol overflow="visible" id="i6-glyph4-3">
<path style="stroke:none;" d="M 4.703125 -1.65625 C 4.703125 -2.296875 4.34375 -2.71875 4.234375 -2.84375 C 3.8125 -3.234375 3.546875 -3.3125 2.765625 -3.484375 L 1.96875 -3.671875 C 1.546875 -3.78125 1.171875 -4.140625 1.171875 -4.609375 C 1.171875 -5.109375 1.65625 -5.59375 2.359375 -5.59375 C 3.53125 -5.59375 3.6875 -4.65625 3.75 -4.34375 C 3.78125 -4.125 3.890625 -4.0625 4.09375 -4.0625 C 4.4375 -4.0625 4.4375 -4.28125 4.4375 -4.46875 L 4.4375 -5.796875 C 4.4375 -5.953125 4.4375 -6.203125 4.140625 -6.203125 C 3.890625 -6.203125 3.84375 -6.03125 3.765625 -5.734375 C 3.359375 -6.078125 2.828125 -6.203125 2.375 -6.203125 C 1.265625 -6.203125 0.515625 -5.40625 0.515625 -4.5625 C 0.515625 -3.890625 0.984375 -3.234375 1.796875 -3 L 2.953125 -2.734375 C 3.234375 -2.671875 4.0625 -2.46875 4.0625 -1.609375 C 4.0625 -1.09375 3.625 -0.5 2.84375 -0.5 C 2.5625 -0.5 2.078125 -0.53125 1.671875 -0.8125 C 1.25 -1.078125 1.21875 -1.5 1.203125 -1.671875 C 1.203125 -1.84375 1.1875 -2.03125 0.875 -2.03125 C 0.515625 -2.03125 0.515625 -1.8125 0.515625 -1.609375 L 0.515625 -0.296875 C 0.515625 -0.140625 0.515625 0.109375 0.8125 0.109375 C 1.03125 0.109375 1.09375 -0.03125 1.1875 -0.34375 C 1.578125 -0.046875 2.1875 0.109375 2.828125 0.109375 C 3.984375 0.109375 4.703125 -0.765625 4.703125 -1.65625 Z M 4.703125 -1.65625 "/>
</symbol>
<symbol overflow="visible" id="i6-glyph4-4">
<path style="stroke:none;" d="M 4.46875 -1.25 C 4.46875 -1.4375 4.46875 -1.640625 4.125 -1.640625 C 3.796875 -1.640625 3.78125 -1.4375 3.78125 -1.265625 C 3.78125 -0.640625 3.203125 -0.546875 2.984375 -0.546875 C 2.21875 -0.546875 2.21875 -1.0625 2.21875 -1.3125 L 2.21875 -3.6875 L 3.84375 -3.6875 C 4 -3.6875 4.25 -3.6875 4.25 -3.984375 C 4.25 -4.296875 4 -4.296875 3.84375 -4.296875 L 2.21875 -4.296875 L 2.21875 -5.109375 C 2.21875 -5.296875 2.21875 -5.515625 1.875 -5.515625 C 1.53125 -5.515625 1.53125 -5.3125 1.53125 -5.109375 L 1.53125 -4.296875 L 0.65625 -4.296875 C 0.5 -4.296875 0.25 -4.296875 0.25 -3.984375 C 0.25 -3.6875 0.5 -3.6875 0.640625 -3.6875 L 1.53125 -3.6875 L 1.53125 -1.25 C 1.53125 -0.296875 2.203125 0.0625 2.9375 0.0625 C 3.671875 0.0625 4.46875 -0.375 4.46875 -1.25 Z M 4.46875 -1.25 "/>
</symbol>
<symbol overflow="visible" id="i6-glyph4-5">
<path style="stroke:none;" d="M 4.859375 -3.734375 C 4.859375 -3.9375 4.734375 -4.359375 3.90625 -4.359375 C 3.40625 -4.359375 2.765625 -4.171875 2.21875 -3.546875 L 2.21875 -3.890625 C 2.21875 -4.203125 2.15625 -4.296875 1.8125 -4.296875 L 0.71875 -4.296875 C 0.5625 -4.296875 0.3125 -4.296875 0.3125 -4 C 0.3125 -3.6875 0.5625 -3.6875 0.71875 -3.6875 L 1.53125 -3.6875 L 1.53125 -0.609375 L 0.71875 -0.609375 C 0.5625 -0.609375 0.3125 -0.609375 0.3125 -0.3125 C 0.3125 0 0.5625 0 0.71875 0 L 3.3125 0 C 3.46875 0 3.734375 0 3.734375 -0.296875 C 3.734375 -0.609375 3.46875 -0.609375 3.3125 -0.609375 L 2.21875 -0.609375 L 2.21875 -1.859375 C 2.21875 -2.796875 2.796875 -3.75 4 -3.75 C 4.015625 -3.515625 4.1875 -3.3125 4.4375 -3.3125 C 4.65625 -3.3125 4.859375 -3.46875 4.859375 -3.734375 Z M 4.859375 -3.734375 "/>
</symbol>
<symbol overflow="visible" id="i6-glyph4-6">
<path style="stroke:none;" d="M 4.625 -1.09375 C 4.625 -1.359375 4.34375 -1.359375 4.28125 -1.359375 C 4.09375 -1.359375 4.015625 -1.328125 3.953125 -1.140625 C 3.734375 -0.640625 3.1875 -0.546875 2.90625 -0.546875 C 2.15625 -0.546875 1.421875 -1.046875 1.25 -1.90625 L 4.234375 -1.90625 C 4.4375 -1.90625 4.625 -1.90625 4.625 -2.265625 C 4.625 -3.40625 3.984375 -4.390625 2.6875 -4.390625 C 1.5 -4.390625 0.546875 -3.390625 0.546875 -2.15625 C 0.546875 -0.953125 1.5625 0.0625 2.84375 0.0625 C 4.15625 0.0625 4.625 -0.84375 4.625 -1.09375 Z M 3.921875 -2.5 L 1.265625 -2.5 C 1.40625 -3.234375 2 -3.78125 2.6875 -3.78125 C 3.203125 -3.78125 3.828125 -3.53125 3.921875 -2.5 Z M 3.921875 -2.5 "/>
</symbol>
<symbol overflow="visible" id="i6-glyph4-7">
<path style="stroke:none;" d="M 5.171875 -0.3125 C 5.171875 -0.609375 4.921875 -0.609375 4.78125 -0.609375 C 4.359375 -0.609375 4.25 -0.65625 4.171875 -0.6875 L 4.171875 -2.84375 C 4.171875 -3.546875 3.640625 -4.390625 2.203125 -4.390625 C 1.78125 -4.390625 0.75 -4.390625 0.75 -3.65625 C 0.75 -3.359375 0.96875 -3.203125 1.203125 -3.203125 C 1.359375 -3.203125 1.640625 -3.296875 1.640625 -3.65625 C 1.640625 -3.734375 1.65625 -3.75 1.859375 -3.765625 C 2 -3.78125 2.125 -3.78125 2.21875 -3.78125 C 2.96875 -3.78125 3.484375 -3.46875 3.484375 -2.765625 C 1.71875 -2.734375 0.5 -2.234375 0.5 -1.28125 C 0.5 -0.59375 1.125 0.0625 2.140625 0.0625 C 2.515625 0.0625 3.125 -0.015625 3.59375 -0.3125 C 3.8125 -0.015625 4.296875 0 4.671875 0 C 4.953125 0 5.171875 0 5.171875 -0.3125 Z M 3.484375 -1.328125 C 3.484375 -1.109375 3.484375 -0.890625 3.09375 -0.71875 C 2.734375 -0.546875 2.296875 -0.546875 2.21875 -0.546875 C 1.59375 -0.546875 1.1875 -0.890625 1.1875 -1.28125 C 1.1875 -1.765625 2.046875 -2.140625 3.484375 -2.171875 Z M 3.484375 -1.328125 "/>
</symbol>
<symbol overflow="visible" id="i6-glyph4-8">
<path style="stroke:none;" d="M 5.140625 -0.296875 C 5.140625 -0.609375 4.9375 -0.609375 4.578125 -0.609375 L 4.578125 -3.015625 C 4.578125 -3.21875 4.578125 -4.359375 3.6875 -4.359375 C 3.390625 -4.359375 2.984375 -4.234375 2.703125 -3.84375 C 2.546875 -4.171875 2.265625 -4.359375 1.9375 -4.359375 C 1.625 -4.359375 1.328125 -4.21875 1.09375 -4 C 1.0625 -4.296875 0.875 -4.296875 0.6875 -4.296875 L 0.375 -4.296875 C 0.21875 -4.296875 -0.046875 -4.296875 -0.046875 -4 C -0.046875 -3.6875 0.171875 -3.6875 0.53125 -3.6875 L 0.53125 -0.609375 C 0.171875 -0.609375 -0.046875 -0.609375 -0.046875 -0.296875 C -0.046875 0 0.234375 0 0.375 0 L 1.25 0 C 1.390625 0 1.65625 0 1.65625 -0.296875 C 1.65625 -0.609375 1.453125 -0.609375 1.09375 -0.609375 L 1.09375 -2.390625 C 1.09375 -3.28125 1.5 -3.75 1.90625 -3.75 C 2.140625 -3.75 2.265625 -3.578125 2.265625 -2.9375 L 2.265625 -0.609375 C 2.078125 -0.609375 1.828125 -0.609375 1.828125 -0.296875 C 1.828125 0 2.109375 0 2.25 0 L 2.984375 0 C 3.140625 0 3.40625 0 3.40625 -0.296875 C 3.40625 -0.609375 3.1875 -0.609375 2.828125 -0.609375 L 2.828125 -2.390625 C 2.828125 -3.28125 3.234375 -3.75 3.65625 -3.75 C 3.875 -3.75 4.015625 -3.578125 4.015625 -2.9375 L 4.015625 -0.609375 C 3.828125 -0.609375 3.578125 -0.609375 3.578125 -0.296875 C 3.578125 0 3.84375 0 3.984375 0 L 4.734375 0 C 4.890625 0 5.140625 0 5.140625 -0.296875 Z M 5.140625 -0.296875 "/>
</symbol>
<symbol overflow="visible" id="i6-glyph4-9">
<path style="stroke:none;" d="M 4.359375 0.53125 C 4.359375 0.390625 4.28125 0.34375 4.109375 0.234375 C 2.875 -0.609375 2.40625 -1.9375 2.40625 -3.046875 C 2.40625 -4.046875 2.796875 -5.4375 4.125 -6.34375 C 4.28125 -6.453125 4.359375 -6.484375 4.359375 -6.640625 C 4.359375 -6.71875 4.3125 -6.921875 4.046875 -6.921875 C 3.765625 -6.921875 1.71875 -5.609375 1.71875 -3.046875 C 1.71875 -1.859375 2.1875 -0.96875 2.53125 -0.46875 C 3.0625 0.265625 3.8125 0.8125 4.046875 0.8125 C 4.3125 0.8125 4.359375 0.625 4.359375 0.53125 Z M 4.359375 0.53125 "/>
</symbol>
<symbol overflow="visible" id="i6-glyph4-10">
<path style="stroke:none;" d="M 3.515625 -3.046875 C 3.515625 -4.234375 3.046875 -5.140625 2.703125 -5.625 C 2.171875 -6.359375 1.421875 -6.921875 1.1875 -6.921875 C 0.9375 -6.921875 0.875 -6.71875 0.875 -6.640625 C 0.875 -6.484375 0.984375 -6.421875 1.03125 -6.390625 C 2.671875 -5.296875 2.828125 -3.703125 2.828125 -3.046875 C 2.828125 -2.046875 2.453125 -0.671875 1.109375 0.234375 C 0.953125 0.34375 0.875 0.390625 0.875 0.53125 C 0.875 0.625 0.9375 0.8125 1.1875 0.8125 C 1.46875 0.8125 3.515625 -0.5 3.515625 -3.046875 Z M 3.515625 -3.046875 "/>
</symbol>
</g>
<clipPath id="i6-clip1">
  <path d="M 157 91 L 158 91 L 158 93.722656 L 157 93.722656 Z M 157 91 "/>
</clipPath>
</defs>
<g id="i6-surface31">
<g style="fill:rgb(0%,0%,0%);fill-opacity:1;">
  <use xlink:href="#i6-glyph0-1" x="94.737" y="78.918"/>
</g>
<g style="fill:rgb(0%,0%,0%);fill-opacity:1;">
  <use xlink:href="#i6-glyph1-1" x="103.485" y="80.413"/>
  <use xlink:href="#i6-glyph1-2" x="107.996351" y="80.413"/>
</g>
<g style="fill:rgb(0%,0%,0%);fill-opacity:1;">
  <use xlink:href="#i6-glyph1-3" x="111.751045" y="80.413"/>
</g>
<g style="fill:rgb(0%,0%,0%);fill-opacity:1;">
  <use xlink:href="#i6-glyph2-1" x="117.44" y="80.413"/>
</g>
<g style="fill:rgb(0%,0%,0%);fill-opacity:1;">
  <use xlink:href="#i6-glyph1-4" x="119.806" y="80.413"/>
</g>
<g style="fill:rgb(0%,0%,0%);fill-opacity:1;">
  <use xlink:href="#i6-glyph3-1" x="124.275" y="78.918"/>
</g>
<g style="fill:rgb(0%,0%,0%);fill-opacity:1;">
  <use xlink:href="#i6-glyph0-2" x="130.363" y="78.918"/>
</g>
<g style="fill:rgb(0%,0%,0%);fill-opacity:1;">
  <use xlink:href="#i6-glyph1-2" x="136.103" y="80.413"/>
  <use xlink:href="#i6-glyph1-5" x="140.073882" y="80.413"/>
  <use xlink:href="#i6-glyph1-6" x="144.47435" y="80.413"/>
  <use xlink:href="#i6-glyph1-1" x="147.587454" y="80.413"/>
  <use xlink:href="#i6-glyph1-2" x="152.098805" y="80.413"/>
</g>
<g style="fill:rgb(0%,0%,0%);fill-opacity:1;">
  <use xlink:href="#i6-glyph1-3" x="155.853499" y="80.413"/>
</g>
<g style="fill:rgb(0%,0%,0%);fill-opacity:1;">
  <use xlink:href="#i6-glyph2-1" x="161.543" y="80.413"/>
</g>
<g style="fill:rgb(0%,0%,0%);fill-opacity:1;">
  <use xlink:href="#i6-glyph1-4" x="163.909" y="80.413"/>
</g>
<g style="fill:rgb(32.998657%,23.999023%,2.999878%);fill-opacity:1;">
  <use xlink:href="#i6-glyph4-1" x="78.059" y="90.874"/>
  <use xlink:href="#i6-glyph4-2" x="83.289365" y="90.874"/>
  <use xlink:href="#i6-glyph4-3" x="88.51973" y="90.874"/>
  <use xlink:href="#i6-glyph4-4" x="93.750095" y="90.874"/>
  <use xlink:href="#i6-glyph4-5" x="98.98046" y="90.874"/>
  <use xlink:href="#i6-glyph4-6" x="104.210825" y="90.874"/>
  <use xlink:href="#i6-glyph4-7" x="109.44119" y="90.874"/>
  <use xlink:href="#i6-glyph4-8" x="114.671555" y="90.874"/>
</g>
<g style="fill:rgb(0%,0%,0%);fill-opacity:1;">
  <use xlink:href="#i6-glyph4-9" x="119.90192" y="90.874"/>
</g>
<g style="fill:rgb(0%,0%,0%);fill-opacity:1;">
  <use xlink:href="#i6-glyph0-2" x="125.133" y="90.874"/>
</g>
<g style="fill:rgb(0%,0%,0%);fill-opacity:1;">
  <use xlink:href="#i6-glyph1-2" x="130.873" y="92.368"/>
  <use xlink:href="#i6-glyph1-5" x="134.843882" y="92.368"/>
  <use xlink:href="#i6-glyph1-6" x="139.24435" y="92.368"/>
  <use xlink:href="#i6-glyph1-1" x="142.357454" y="92.368"/>
  <use xlink:href="#i6-glyph1-2" x="146.868805" y="92.368"/>
</g>
<g style="fill:rgb(0%,0%,0%);fill-opacity:1;">
  <use xlink:href="#i6-glyph1-3" x="150.623499" y="92.368"/>
</g>
<g> <!-- clip-path="url(#clip1)" clip-rule="nonzero" -->
<g style="fill:rgb(0%,0%,0%);fill-opacity:1;">
  <use xlink:href="#i6-glyph2-1" x="156.312" y="92.368"/>
</g>
</g>
<g style="fill:rgb(0%,0%,0%);fill-opacity:1;">
  <use xlink:href="#i6-glyph1-4" x="158.678" y="92.368"/>
</g>
<g style="fill:rgb(0%,0%,0%);fill-opacity:1;">
  <use xlink:href="#i6-glyph4-10" x="163.148" y="90.874"/>
</g>
</g>
</g>
  <g id="g7" transform="translate(-72, 85.3526)scale(1.0, -1.0)">
<defs>
<g>
<symbol overflow="visible" id="i7-glyph0-0">
<path style="stroke:none;" d=""/>
</symbol>
<symbol overflow="visible" id="i7-glyph0-1">
<path style="stroke:none;" d="M 4.53125 -0.296875 C 4.53125 -0.609375 4.28125 -0.609375 4.125 -0.609375 L 3.078125 -0.609375 L 3.078125 -3.890625 C 3.078125 -4.203125 3.015625 -4.296875 2.6875 -4.296875 L 1.265625 -4.296875 C 1.109375 -4.296875 0.859375 -4.296875 0.859375 -4 C 0.859375 -3.6875 1.109375 -3.6875 1.265625 -3.6875 L 2.390625 -3.6875 L 2.390625 -0.609375 L 1.1875 -0.609375 C 1.03125 -0.609375 0.78125 -0.609375 0.78125 -0.296875 C 0.78125 0 1.03125 0 1.1875 0 L 4.125 0 C 4.28125 0 4.53125 0 4.53125 -0.296875 Z M 3.125 -5.53125 C 3.125 -5.8125 2.90625 -6.03125 2.625 -6.03125 C 2.34375 -6.03125 2.125 -5.8125 2.125 -5.53125 C 2.125 -5.25 2.34375 -5.03125 2.625 -5.03125 C 2.90625 -5.03125 3.125 -5.25 3.125 -5.53125 Z M 3.125 -5.53125 "/>
</symbol>
<symbol overflow="visible" id="i7-glyph0-2">
<path style="stroke:none;" d="M 5.109375 -0.296875 C 5.109375 -0.609375 4.859375 -0.609375 4.6875 -0.609375 L 4.25 -0.609375 L 4.25 -2.921875 C 4.25 -3.921875 3.75 -4.359375 2.953125 -4.359375 C 2.296875 -4.359375 1.84375 -4.015625 1.65625 -3.828125 C 1.65625 -4.140625 1.65625 -4.296875 1.25 -4.296875 L 0.53125 -4.296875 C 0.375 -4.296875 0.125 -4.296875 0.125 -3.984375 C 0.125 -3.6875 0.375 -3.6875 0.515625 -3.6875 L 0.96875 -3.6875 L 0.96875 -0.609375 L 0.53125 -0.609375 C 0.375 -0.609375 0.125 -0.609375 0.125 -0.296875 C 0.125 0 0.375 0 0.515625 0 L 2.109375 0 C 2.25 0 2.5 0 2.5 -0.296875 C 2.5 -0.609375 2.25 -0.609375 2.09375 -0.609375 L 1.65625 -0.609375 L 1.65625 -2.375 C 1.65625 -3.375 2.390625 -3.75 2.90625 -3.75 C 3.421875 -3.75 3.5625 -3.46875 3.5625 -2.875 L 3.5625 -0.609375 L 3.1875 -0.609375 C 3.015625 -0.609375 2.765625 -0.609375 2.765625 -0.296875 C 2.765625 0 3.046875 0 3.1875 0 L 4.703125 0 C 4.84375 0 5.109375 0 5.109375 -0.296875 Z M 5.109375 -0.296875 "/>
</symbol>
<symbol overflow="visible" id="i7-glyph0-3">
<path style="stroke:none;" d="M 4.703125 -1.65625 C 4.703125 -2.296875 4.34375 -2.71875 4.234375 -2.84375 C 3.8125 -3.234375 3.546875 -3.3125 2.765625 -3.484375 L 1.96875 -3.671875 C 1.546875 -3.78125 1.171875 -4.140625 1.171875 -4.609375 C 1.171875 -5.109375 1.65625 -5.59375 2.359375 -5.59375 C 3.53125 -5.59375 3.6875 -4.65625 3.75 -4.34375 C 3.78125 -4.125 3.890625 -4.0625 4.09375 -4.0625 C 4.4375 -4.0625 4.4375 -4.28125 4.4375 -4.46875 L 4.4375 -5.796875 C 4.4375 -5.953125 4.4375 -6.203125 4.140625 -6.203125 C 3.890625 -6.203125 3.84375 -6.03125 3.765625 -5.734375 C 3.359375 -6.078125 2.828125 -6.203125 2.375 -6.203125 C 1.265625 -6.203125 0.515625 -5.40625 0.515625 -4.5625 C 0.515625 -3.890625 0.984375 -3.234375 1.796875 -3 L 2.953125 -2.734375 C 3.234375 -2.671875 4.0625 -2.46875 4.0625 -1.609375 C 4.0625 -1.09375 3.625 -0.5 2.84375 -0.5 C 2.5625 -0.5 2.078125 -0.53125 1.671875 -0.8125 C 1.25 -1.078125 1.21875 -1.5 1.203125 -1.671875 C 1.203125 -1.84375 1.1875 -2.03125 0.875 -2.03125 C 0.515625 -2.03125 0.515625 -1.8125 0.515625 -1.609375 L 0.515625 -0.296875 C 0.515625 -0.140625 0.515625 0.109375 0.8125 0.109375 C 1.03125 0.109375 1.09375 -0.03125 1.1875 -0.34375 C 1.578125 -0.046875 2.1875 0.109375 2.828125 0.109375 C 3.984375 0.109375 4.703125 -0.765625 4.703125 -1.65625 Z M 4.703125 -1.65625 "/>
</symbol>
<symbol overflow="visible" id="i7-glyph0-4">
<path style="stroke:none;" d="M 4.46875 -1.25 C 4.46875 -1.4375 4.46875 -1.640625 4.125 -1.640625 C 3.796875 -1.640625 3.78125 -1.4375 3.78125 -1.265625 C 3.78125 -0.640625 3.203125 -0.546875 2.984375 -0.546875 C 2.21875 -0.546875 2.21875 -1.0625 2.21875 -1.3125 L 2.21875 -3.6875 L 3.84375 -3.6875 C 4 -3.6875 4.25 -3.6875 4.25 -3.984375 C 4.25 -4.296875 4 -4.296875 3.84375 -4.296875 L 2.21875 -4.296875 L 2.21875 -5.109375 C 2.21875 -5.296875 2.21875 -5.515625 1.875 -5.515625 C 1.53125 -5.515625 1.53125 -5.3125 1.53125 -5.109375 L 1.53125 -4.296875 L 0.65625 -4.296875 C 0.5 -4.296875 0.25 -4.296875 0.25 -3.984375 C 0.25 -3.6875 0.5 -3.6875 0.640625 -3.6875 L 1.53125 -3.6875 L 1.53125 -1.25 C 1.53125 -0.296875 2.203125 0.0625 2.9375 0.0625 C 3.671875 0.0625 4.46875 -0.375 4.46875 -1.25 Z M 4.46875 -1.25 "/>
</symbol>
<symbol overflow="visible" id="i7-glyph0-5">
<path style="stroke:none;" d="M 4.859375 -3.734375 C 4.859375 -3.9375 4.734375 -4.359375 3.90625 -4.359375 C 3.40625 -4.359375 2.765625 -4.171875 2.21875 -3.546875 L 2.21875 -3.890625 C 2.21875 -4.203125 2.15625 -4.296875 1.8125 -4.296875 L 0.71875 -4.296875 C 0.5625 -4.296875 0.3125 -4.296875 0.3125 -4 C 0.3125 -3.6875 0.5625 -3.6875 0.71875 -3.6875 L 1.53125 -3.6875 L 1.53125 -0.609375 L 0.71875 -0.609375 C 0.5625 -0.609375 0.3125 -0.609375 0.3125 -0.3125 C 0.3125 0 0.5625 0 0.71875 0 L 3.3125 0 C 3.46875 0 3.734375 0 3.734375 -0.296875 C 3.734375 -0.609375 3.46875 -0.609375 3.3125 -0.609375 L 2.21875 -0.609375 L 2.21875 -1.859375 C 2.21875 -2.796875 2.796875 -3.75 4 -3.75 C 4.015625 -3.515625 4.1875 -3.3125 4.4375 -3.3125 C 4.65625 -3.3125 4.859375 -3.46875 4.859375 -3.734375 Z M 4.859375 -3.734375 "/>
</symbol>
<symbol overflow="visible" id="i7-glyph0-6">
<path style="stroke:none;" d="M 4.625 -1.09375 C 4.625 -1.359375 4.34375 -1.359375 4.28125 -1.359375 C 4.09375 -1.359375 4.015625 -1.328125 3.953125 -1.140625 C 3.734375 -0.640625 3.1875 -0.546875 2.90625 -0.546875 C 2.15625 -0.546875 1.421875 -1.046875 1.25 -1.90625 L 4.234375 -1.90625 C 4.4375 -1.90625 4.625 -1.90625 4.625 -2.265625 C 4.625 -3.40625 3.984375 -4.390625 2.6875 -4.390625 C 1.5 -4.390625 0.546875 -3.390625 0.546875 -2.15625 C 0.546875 -0.953125 1.5625 0.0625 2.84375 0.0625 C 4.15625 0.0625 4.625 -0.84375 4.625 -1.09375 Z M 3.921875 -2.5 L 1.265625 -2.5 C 1.40625 -3.234375 2 -3.78125 2.6875 -3.78125 C 3.203125 -3.78125 3.828125 -3.53125 3.921875 -2.5 Z M 3.921875 -2.5 "/>
</symbol>
<symbol overflow="visible" id="i7-glyph0-7">
<path style="stroke:none;" d="M 5.171875 -0.3125 C 5.171875 -0.609375 4.921875 -0.609375 4.78125 -0.609375 C 4.359375 -0.609375 4.25 -0.65625 4.171875 -0.6875 L 4.171875 -2.84375 C 4.171875 -3.546875 3.640625 -4.390625 2.203125 -4.390625 C 1.78125 -4.390625 0.75 -4.390625 0.75 -3.65625 C 0.75 -3.359375 0.96875 -3.203125 1.203125 -3.203125 C 1.359375 -3.203125 1.640625 -3.296875 1.640625 -3.65625 C 1.640625 -3.734375 1.65625 -3.75 1.859375 -3.765625 C 2 -3.78125 2.125 -3.78125 2.21875 -3.78125 C 2.96875 -3.78125 3.484375 -3.46875 3.484375 -2.765625 C 1.71875 -2.734375 0.5 -2.234375 0.5 -1.28125 C 0.5 -0.59375 1.125 0.0625 2.140625 0.0625 C 2.515625 0.0625 3.125 -0.015625 3.59375 -0.3125 C 3.8125 -0.015625 4.296875 0 4.671875 0 C 4.953125 0 5.171875 0 5.171875 -0.3125 Z M 3.484375 -1.328125 C 3.484375 -1.109375 3.484375 -0.890625 3.09375 -0.71875 C 2.734375 -0.546875 2.296875 -0.546875 2.21875 -0.546875 C 1.59375 -0.546875 1.1875 -0.890625 1.1875 -1.28125 C 1.1875 -1.765625 2.046875 -2.140625 3.484375 -2.171875 Z M 3.484375 -1.328125 "/>
</symbol>
<symbol overflow="visible" id="i7-glyph0-8">
<path style="stroke:none;" d="M 5.140625 -0.296875 C 5.140625 -0.609375 4.9375 -0.609375 4.578125 -0.609375 L 4.578125 -3.015625 C 4.578125 -3.21875 4.578125 -4.359375 3.6875 -4.359375 C 3.390625 -4.359375 2.984375 -4.234375 2.703125 -3.84375 C 2.546875 -4.171875 2.265625 -4.359375 1.9375 -4.359375 C 1.625 -4.359375 1.328125 -4.21875 1.09375 -4 C 1.0625 -4.296875 0.875 -4.296875 0.6875 -4.296875 L 0.375 -4.296875 C 0.21875 -4.296875 -0.046875 -4.296875 -0.046875 -4 C -0.046875 -3.6875 0.171875 -3.6875 0.53125 -3.6875 L 0.53125 -0.609375 C 0.171875 -0.609375 -0.046875 -0.609375 -0.046875 -0.296875 C -0.046875 0 0.234375 0 0.375 0 L 1.25 0 C 1.390625 0 1.65625 0 1.65625 -0.296875 C 1.65625 -0.609375 1.453125 -0.609375 1.09375 -0.609375 L 1.09375 -2.390625 C 1.09375 -3.28125 1.5 -3.75 1.90625 -3.75 C 2.140625 -3.75 2.265625 -3.578125 2.265625 -2.9375 L 2.265625 -0.609375 C 2.078125 -0.609375 1.828125 -0.609375 1.828125 -0.296875 C 1.828125 0 2.109375 0 2.25 0 L 2.984375 0 C 3.140625 0 3.40625 0 3.40625 -0.296875 C 3.40625 -0.609375 3.1875 -0.609375 2.828125 -0.609375 L 2.828125 -2.390625 C 2.828125 -3.28125 3.234375 -3.75 3.65625 -3.75 C 3.875 -3.75 4.015625 -3.578125 4.015625 -2.9375 L 4.015625 -0.609375 C 3.828125 -0.609375 3.578125 -0.609375 3.578125 -0.296875 C 3.578125 0 3.84375 0 3.984375 0 L 4.734375 0 C 4.890625 0 5.140625 0 5.140625 -0.296875 Z M 5.140625 -0.296875 "/>
</symbol>
<symbol overflow="visible" id="i7-glyph0-9">
<path style="stroke:none;" d="M 4.359375 0.53125 C 4.359375 0.390625 4.28125 0.34375 4.109375 0.234375 C 2.875 -0.609375 2.40625 -1.9375 2.40625 -3.046875 C 2.40625 -4.046875 2.796875 -5.4375 4.125 -6.34375 C 4.28125 -6.453125 4.359375 -6.484375 4.359375 -6.640625 C 4.359375 -6.71875 4.3125 -6.921875 4.046875 -6.921875 C 3.765625 -6.921875 1.71875 -5.609375 1.71875 -3.046875 C 1.71875 -1.859375 2.1875 -0.96875 2.53125 -0.46875 C 3.0625 0.265625 3.8125 0.8125 4.046875 0.8125 C 4.3125 0.8125 4.359375 0.625 4.359375 0.53125 Z M 4.359375 0.53125 "/>
</symbol>
<symbol overflow="visible" id="i7-glyph0-10">
<path style="stroke:none;" d="M 3.515625 -3.046875 C 3.515625 -4.234375 3.046875 -5.140625 2.703125 -5.625 C 2.171875 -6.359375 1.421875 -6.921875 1.1875 -6.921875 C 0.9375 -6.921875 0.875 -6.71875 0.875 -6.640625 C 0.875 -6.484375 0.984375 -6.421875 1.03125 -6.390625 C 2.671875 -5.296875 2.828125 -3.703125 2.828125 -3.046875 C 2.828125 -2.046875 2.453125 -0.671875 1.109375 0.234375 C 0.953125 0.34375 0.875 0.390625 0.875 0.53125 C 0.875 0.625 0.9375 0.8125 1.1875 0.8125 C 1.46875 0.8125 3.515625 -0.5 3.515625 -3.046875 Z M 3.515625 -3.046875 "/>
</symbol>
<symbol overflow="visible" id="i7-glyph1-0">
<path style="stroke:none;" d=""/>
</symbol>
<symbol overflow="visible" id="i7-glyph1-1">
<path style="stroke:none;" d="M 5.4375 -1.421875 C 5.4375 -1.53125 5.359375 -1.53125 5.328125 -1.53125 C 5.21875 -1.53125 5.21875 -1.5 5.171875 -1.34375 C 5.03125 -0.8125 4.703125 -0.109375 4.15625 -0.109375 C 3.984375 -0.109375 3.921875 -0.203125 3.921875 -0.4375 C 3.921875 -0.6875 4 -0.921875 4.09375 -1.140625 C 4.25 -1.578125 4.703125 -2.765625 4.703125 -3.34375 C 4.703125 -3.984375 4.3125 -4.40625 3.5625 -4.40625 C 2.9375 -4.40625 2.453125 -4.09375 2.078125 -3.640625 L 2.859375 -6.8125 C 2.859375 -6.8125 2.859375 -6.921875 2.734375 -6.921875 C 2.5 -6.921875 1.78125 -6.84375 1.515625 -6.8125 C 1.4375 -6.8125 1.328125 -6.796875 1.328125 -6.625 C 1.328125 -6.5 1.421875 -6.5 1.5625 -6.5 C 2.046875 -6.5 2.0625 -6.4375 2.0625 -6.328125 L 2.03125 -6.125 L 0.59375 -0.390625 C 0.546875 -0.25 0.546875 -0.234375 0.546875 -0.171875 C 0.546875 0.0625 0.75 0.109375 0.84375 0.109375 C 1 0.109375 1.15625 -0.015625 1.203125 -0.15625 L 1.390625 -0.90625 L 1.609375 -1.796875 C 1.671875 -2.03125 1.734375 -2.25 1.78125 -2.46875 C 1.796875 -2.53125 1.890625 -2.859375 1.890625 -2.921875 C 1.921875 -3.015625 2.234375 -3.5625 2.578125 -3.84375 C 2.796875 -4 3.09375 -4.1875 3.53125 -4.1875 C 3.953125 -4.1875 4.0625 -3.84375 4.0625 -3.484375 C 4.0625 -2.953125 3.6875 -1.859375 3.453125 -1.25 C 3.375 -1.03125 3.3125 -0.90625 3.3125 -0.703125 C 3.3125 -0.234375 3.671875 0.109375 4.140625 0.109375 C 5.078125 0.109375 5.4375 -1.34375 5.4375 -1.421875 Z M 5.4375 -1.421875 "/>
</symbol>
<symbol overflow="visible" id="i7-glyph1-2">
<path style="stroke:none;" d="M 8.453125 -1.421875 C 8.453125 -1.53125 8.359375 -1.53125 8.328125 -1.53125 C 8.234375 -1.53125 8.234375 -1.5 8.1875 -1.34375 C 8.03125 -0.8125 7.71875 -0.109375 7.171875 -0.109375 C 7 -0.109375 6.921875 -0.203125 6.921875 -0.4375 C 6.921875 -0.6875 7.015625 -0.921875 7.109375 -1.140625 C 7.296875 -1.671875 7.71875 -2.765625 7.71875 -3.34375 C 7.71875 -3.984375 7.3125 -4.40625 6.5625 -4.40625 C 5.828125 -4.40625 5.3125 -3.96875 4.9375 -3.4375 C 4.9375 -3.5625 4.90625 -3.90625 4.625 -4.140625 C 4.375 -4.359375 4.0625 -4.40625 3.8125 -4.40625 C 2.90625 -4.40625 2.421875 -3.765625 2.25 -3.53125 C 2.203125 -4.109375 1.78125 -4.40625 1.328125 -4.40625 C 0.875 -4.40625 0.6875 -4.015625 0.59375 -3.84375 C 0.421875 -3.484375 0.296875 -2.90625 0.296875 -2.875 C 0.296875 -2.765625 0.40625 -2.765625 0.40625 -2.765625 C 0.515625 -2.765625 0.515625 -2.78125 0.578125 -3 C 0.75 -3.703125 0.953125 -4.1875 1.3125 -4.1875 C 1.46875 -4.1875 1.609375 -4.109375 1.609375 -3.734375 C 1.609375 -3.515625 1.578125 -3.40625 1.453125 -2.890625 L 0.875 -0.59375 C 0.84375 -0.4375 0.78125 -0.203125 0.78125 -0.15625 C 0.78125 0.015625 0.921875 0.109375 1.078125 0.109375 C 1.203125 0.109375 1.375 0.03125 1.453125 -0.171875 C 1.453125 -0.1875 1.578125 -0.65625 1.640625 -0.90625 L 1.859375 -1.796875 C 1.90625 -2.03125 1.96875 -2.25 2.03125 -2.46875 L 2.15625 -2.96875 C 2.296875 -3.28125 2.828125 -4.1875 3.78125 -4.1875 C 4.234375 -4.1875 4.3125 -3.8125 4.3125 -3.484375 C 4.3125 -3.234375 4.25 -2.953125 4.171875 -2.65625 L 3.890625 -1.5 C 3.78125 -1.140625 3.78125 -1.078125 3.6875 -0.75 C 3.65625 -0.546875 3.5625 -0.203125 3.5625 -0.15625 C 3.5625 0.015625 3.703125 0.109375 3.84375 0.109375 C 4.15625 0.109375 4.21875 -0.140625 4.296875 -0.453125 L 4.890625 -2.859375 C 4.921875 -2.984375 5.453125 -4.1875 6.546875 -4.1875 C 6.96875 -4.1875 7.078125 -3.84375 7.078125 -3.484375 C 7.078125 -2.921875 6.65625 -1.78125 6.453125 -1.25 C 6.375 -1.015625 6.328125 -0.90625 6.328125 -0.703125 C 6.328125 -0.234375 6.671875 0.109375 7.140625 0.109375 C 8.078125 0.109375 8.453125 -1.34375 8.453125 -1.421875 Z M 8.453125 -1.421875 "/>
</symbol>
<symbol overflow="visible" id="i7-glyph2-0">
<path style="stroke:none;" d=""/>
</symbol>
<symbol overflow="visible" id="i7-glyph2-1">
<path style="stroke:none;" d="M 3.6875 -1.484375 C 3.6875 -2.359375 2.9375 -3.109375 1.984375 -3.109375 C 1.015625 -3.109375 0.265625 -2.359375 0.265625 -1.484375 C 0.265625 -0.625 1.03125 0.0625 1.984375 0.0625 C 2.921875 0.0625 3.6875 -0.625 3.6875 -1.484375 Z M 3.046875 -1.546875 C 3.046875 -1.21875 3.03125 -0.84375 2.828125 -0.5625 C 2.640625 -0.296875 2.328125 -0.15625 1.984375 -0.15625 C 1.71875 -0.15625 1.34375 -0.234375 1.109375 -0.578125 C 0.921875 -0.859375 0.90625 -1.21875 0.90625 -1.546875 C 0.90625 -1.84375 0.90625 -2.265625 1.15625 -2.5625 C 1.328125 -2.765625 1.625 -2.90625 1.984375 -2.90625 C 2.390625 -2.90625 2.6875 -2.71875 2.84375 -2.5 C 3.03125 -2.234375 3.046875 -1.875 3.046875 -1.546875 Z M 3.046875 -1.546875 "/>
</symbol>
<symbol overflow="visible" id="i7-glyph2-2">
<path style="stroke:none;" d="M 4.109375 0 L 4.109375 -0.25 C 3.640625 -0.25 3.59375 -0.296875 3.59375 -0.640625 L 3.59375 -3.078125 L 2.515625 -3 L 2.515625 -2.75 C 2.984375 -2.75 3.03125 -2.703125 3.03125 -2.359375 L 3.03125 -1.15625 C 3.03125 -0.546875 2.640625 -0.125 2.109375 -0.125 C 1.484375 -0.125 1.453125 -0.421875 1.453125 -0.78125 L 1.453125 -3.078125 L 0.375 -3 L 0.375 -2.75 C 0.90625 -2.75 0.90625 -2.71875 0.90625 -2.109375 L 0.90625 -1.0625 C 0.90625 -0.578125 0.90625 0.0625 2.0625 0.0625 C 2.21875 0.0625 2.71875 0.0625 3.0625 -0.515625 L 3.0625 0.0625 Z M 4.109375 0 "/>
</symbol>
<symbol overflow="visible" id="i7-glyph2-3">
<path style="stroke:none;" d="M 2.609375 -0.875 L 2.609375 -1.265625 L 2.375 -1.265625 L 2.375 -0.890625 C 2.375 -0.40625 2.15625 -0.15625 1.875 -0.15625 C 1.40625 -0.15625 1.40625 -0.734375 1.40625 -0.859375 L 1.40625 -2.75 L 2.484375 -2.75 L 2.484375 -3 L 1.40625 -3 L 1.40625 -4.28125 L 1.15625 -4.28125 C 1.15625 -3.65625 0.875 -2.96875 0.203125 -2.953125 L 0.203125 -2.75 L 0.84375 -2.75 L 0.84375 -0.875 C 0.84375 -0.09375 1.4375 0.0625 1.828125 0.0625 C 2.296875 0.0625 2.609375 -0.328125 2.609375 -0.875 Z M 2.609375 -0.875 "/>
</symbol>
<symbol overflow="visible" id="i7-glyph2-4">
<path style="stroke:none;" d="M 4.15625 0 L 4.15625 -0.25 C 3.703125 -0.25 3.640625 -0.25 3.640625 -0.546875 L 3.640625 -4.84375 C 3.578125 -4.828125 3.375 -4.796875 3.359375 -4.796875 C 3.359375 -4.796875 3.328125 -4.796875 3.296875 -4.8125 C 3.03125 -4.90625 2.734375 -4.90625 2.609375 -4.90625 C 1.75 -4.90625 0.859375 -4.53125 0.859375 -3.765625 L 0.859375 -3 L 0.265625 -3 L 0.265625 -2.75 L 0.859375 -2.75 L 0.859375 -0.546875 C 0.859375 -0.25 0.796875 -0.25 0.34375 -0.25 L 0.34375 0 C 0.34375 0 0.84375 -0.03125 1.125 -0.03125 C 1.390625 -0.03125 1.640625 -0.015625 1.90625 0 L 1.90625 -0.25 C 1.453125 -0.25 1.390625 -0.25 1.390625 -0.546875 L 1.390625 -2.75 L 3.109375 -2.75 L 3.109375 -0.546875 C 3.109375 -0.25 3.046875 -0.25 2.59375 -0.25 L 2.59375 0 C 2.59375 0 3.09375 -0.03125 3.375 -0.03125 C 3.640625 -0.03125 3.890625 -0.015625 4.15625 0 Z M 3.109375 -3 L 1.359375 -3 L 1.359375 -3.765625 C 1.359375 -4.375 1.9375 -4.703125 2.59375 -4.703125 C 2.78125 -4.703125 2.90625 -4.703125 3.09375 -4.65625 C 3 -4.609375 2.953125 -4.5 2.953125 -4.390625 C 2.953125 -4.359375 2.96875 -4.203125 3.109375 -4.125 Z M 3.109375 -3 "/>
</symbol>
<symbol overflow="visible" id="i7-glyph2-5">
<path style="stroke:none;" d="M 5.46875 -2.75 L 5.46875 -3 C 5.28125 -2.984375 5.15625 -2.96875 4.96875 -2.96875 C 4.75 -2.96875 4.484375 -2.984375 4.28125 -3 L 4.28125 -2.75 C 4.515625 -2.75 4.640625 -2.609375 4.640625 -2.453125 C 4.640625 -2.390625 4.640625 -2.375 4.59375 -2.28125 L 3.921875 -0.546875 L 3.171875 -2.453125 C 3.15625 -2.484375 3.140625 -2.53125 3.140625 -2.578125 C 3.140625 -2.734375 3.3125 -2.75 3.515625 -2.75 L 3.515625 -3 C 3.265625 -2.984375 3.015625 -2.96875 2.765625 -2.96875 C 2.5625 -2.96875 2.34375 -2.984375 2.140625 -3 L 2.140625 -2.75 C 2.3125 -2.75 2.453125 -2.75 2.546875 -2.703125 C 2.640625 -2.625 2.703125 -2.390625 2.703125 -2.390625 C 2.703125 -2.390625 2.6875 -2.328125 2.671875 -2.3125 L 2.015625 -0.640625 L 1.3125 -2.453125 C 1.28125 -2.546875 1.28125 -2.546875 1.28125 -2.578125 C 1.28125 -2.75 1.53125 -2.75 1.65625 -2.75 L 1.65625 -3 C 1.65625 -3 1.140625 -2.96875 0.859375 -2.96875 C 0.640625 -2.96875 0.421875 -2.984375 0.203125 -3 L 0.203125 -2.75 C 0.484375 -2.75 0.640625 -2.75 0.703125 -2.546875 L 1.671875 -0.09375 C 1.71875 0.015625 1.734375 0.0625 1.875 0.0625 C 2 0.0625 2.015625 0.015625 2.046875 -0.078125 L 2.84375 -2.0625 L 3.609375 -0.09375 C 3.65625 0 3.671875 0.0625 3.8125 0.0625 C 3.9375 0.0625 3.953125 0.015625 4 -0.09375 L 4.875 -2.328125 C 5.015625 -2.671875 5.25 -2.75 5.46875 -2.75 Z M 5.46875 -2.75 "/>
</symbol>
<symbol overflow="visible" id="i7-glyph2-6">
<path style="stroke:none;" d="M 3.578125 -1.203125 C 3.578125 -1.75 3.140625 -2.296875 2.375 -2.453125 C 3.09375 -2.71875 3.359375 -3.234375 3.359375 -3.671875 C 3.359375 -4.21875 2.734375 -4.625 1.953125 -4.625 C 1.1875 -4.625 0.59375 -4.25 0.59375 -3.6875 C 0.59375 -3.453125 0.75 -3.328125 0.953125 -3.328125 C 1.171875 -3.328125 1.3125 -3.484375 1.3125 -3.671875 C 1.3125 -3.875 1.171875 -4.03125 0.953125 -4.046875 C 1.203125 -4.34375 1.671875 -4.421875 1.9375 -4.421875 C 2.25 -4.421875 2.6875 -4.265625 2.6875 -3.671875 C 2.6875 -3.375 2.59375 -3.046875 2.40625 -2.84375 C 2.1875 -2.578125 1.984375 -2.5625 1.640625 -2.53125 C 1.46875 -2.515625 1.453125 -2.515625 1.421875 -2.515625 C 1.421875 -2.515625 1.34375 -2.5 1.34375 -2.421875 C 1.34375 -2.328125 1.40625 -2.328125 1.53125 -2.328125 L 1.90625 -2.328125 C 2.453125 -2.328125 2.84375 -1.953125 2.84375 -1.203125 C 2.84375 -0.34375 2.328125 -0.078125 1.9375 -0.078125 C 1.65625 -0.078125 1.03125 -0.15625 0.75 -0.578125 C 1.078125 -0.578125 1.15625 -0.8125 1.15625 -0.96875 C 1.15625 -1.1875 0.984375 -1.34375 0.765625 -1.34375 C 0.578125 -1.34375 0.375 -1.21875 0.375 -0.9375 C 0.375 -0.28125 1.09375 0.140625 1.9375 0.140625 C 2.90625 0.140625 3.578125 -0.515625 3.578125 -1.203125 Z M 3.578125 -1.203125 "/>
</symbol>
<symbol overflow="visible" id="i7-glyph3-0">
<path style="stroke:none;" d=""/>
</symbol>
<symbol overflow="visible" id="i7-glyph3-1">
<path style="stroke:none;" d="M 1.671875 -0.046875 C 1.671875 -0.46875 1.5 -0.796875 1.171875 -0.796875 C 0.953125 -0.796875 0.78125 -0.625 0.78125 -0.40625 C 0.78125 -0.1875 0.9375 0 1.1875 0 C 1.359375 0 1.46875 -0.109375 1.46875 -0.109375 C 1.46875 0.265625 1.40625 0.71875 0.921875 1.15625 C 0.90625 1.1875 0.875 1.21875 0.875 1.25 C 0.875 1.296875 0.9375 1.34375 0.96875 1.34375 C 1.078125 1.34375 1.671875 0.78125 1.671875 -0.046875 Z M 1.671875 -0.046875 "/>
</symbol>
<symbol overflow="visible" id="i7-glyph4-0">
<path style="stroke:none;" d=""/>
</symbol>
<symbol overflow="visible" id="i7-glyph4-1">
<path style="stroke:none;" d="M 2.03125 -0.015625 C 2.03125 -0.640625 1.78125 -1.0625 1.390625 -1.0625 C 1.03125 -1.0625 0.859375 -0.78125 0.859375 -0.53125 C 0.859375 -0.265625 1.03125 0 1.390625 0 C 1.53125 0 1.671875 -0.0625 1.78125 -0.15625 C 1.796875 0.625 1.53125 1.234375 1.09375 1.703125 C 1.03125 1.765625 1.015625 1.78125 1.015625 1.8125 C 1.015625 1.890625 1.0625 1.921875 1.109375 1.921875 C 1.234375 1.921875 2.03125 1.140625 2.03125 -0.015625 Z M 2.03125 -0.015625 "/>
</symbol>
</g>
<clipPath id="i7-clip1">
  <path d="M 95 91 L 97 91 L 97 93.722656 L 95 93.722656 Z M 95 91 "/>
</clipPath>
<clipPath id="i7-clip2">
  <path d="M 139 91 L 141 91 L 141 93.722656 L 139 93.722656 Z M 139 91 "/>
</clipPath>
</defs>
<g id="i7-surface36">
<g style="fill:rgb(32.998657%,23.999023%,2.999878%);fill-opacity:1;">
  <use xlink:href="#i7-glyph0-1" x="72" y="78.918"/>
  <use xlink:href="#i7-glyph0-2" x="77.230365" y="78.918"/>
  <use xlink:href="#i7-glyph0-3" x="82.46073" y="78.918"/>
  <use xlink:href="#i7-glyph0-4" x="87.691095" y="78.918"/>
  <use xlink:href="#i7-glyph0-5" x="92.92146" y="78.918"/>
  <use xlink:href="#i7-glyph0-6" x="98.151825" y="78.918"/>
  <use xlink:href="#i7-glyph0-7" x="103.38219" y="78.918"/>
  <use xlink:href="#i7-glyph0-8" x="108.612555" y="78.918"/>
</g>
<g style="fill:rgb(0%,0%,0%);fill-opacity:1;">
  <use xlink:href="#i7-glyph0-9" x="113.84292" y="78.918"/>
</g>
<g style="fill:rgb(0%,0%,0%);fill-opacity:1;">
  <use xlink:href="#i7-glyph1-1" x="119.073" y="78.918"/>
</g>
<g style="fill:rgb(0%,0%,0%);fill-opacity:1;">
  <use xlink:href="#i7-glyph2-1" x="124.813" y="80.413"/>
  <use xlink:href="#i7-glyph2-2" x="128.783882" y="80.413"/>
  <use xlink:href="#i7-glyph2-3" x="133.18435" y="80.413"/>
  <use xlink:href="#i7-glyph2-4" x="136.297454" y="80.413"/>
  <use xlink:href="#i7-glyph2-1" x="140.808805" y="80.413"/>
</g>
<g style="fill:rgb(0%,0%,0%);fill-opacity:1;">
  <use xlink:href="#i7-glyph2-5" x="144.563499" y="80.413"/>
</g>
<g style="fill:rgb(0%,0%,0%);fill-opacity:1;">
  <use xlink:href="#i7-glyph3-1" x="150.253" y="80.413"/>
</g>
<g style="fill:rgb(0%,0%,0%);fill-opacity:1;">
  <use xlink:href="#i7-glyph2-6" x="152.619" y="80.413"/>
</g>
<g style="fill:rgb(0%,0%,0%);fill-opacity:1;">
  <use xlink:href="#i7-glyph0-10" x="157.088" y="78.918"/>
</g>
<g style="fill:rgb(0%,0%,0%);fill-opacity:1;">
  <use xlink:href="#i7-glyph1-2" x="72" y="90.874"/>
</g>
<g style="fill:rgb(0%,0%,0%);fill-opacity:1;">
  <use xlink:href="#i7-glyph2-4" x="80.747" y="92.368"/>
  <use xlink:href="#i7-glyph2-1" x="85.258351" y="92.368"/>
</g>
<g style="fill:rgb(0%,0%,0%);fill-opacity:1;">
  <use xlink:href="#i7-glyph2-5" x="89.013045" y="92.368"/>
</g>
<g> <!-- clip-path="url(#clip1)" clip-rule="nonzero" -->
<g style="fill:rgb(0%,0%,0%);fill-opacity:1;">
  <use xlink:href="#i7-glyph3-1" x="94.702" y="92.368"/>
</g>
</g>
<g style="fill:rgb(0%,0%,0%);fill-opacity:1;">
  <use xlink:href="#i7-glyph2-6" x="97.068" y="92.368"/>
</g>
<g style="fill:rgb(0%,0%,0%);fill-opacity:1;">
  <use xlink:href="#i7-glyph4-1" x="101.538" y="90.874"/>
</g>
<g style="fill:rgb(0%,0%,0%);fill-opacity:1;">
  <use xlink:href="#i7-glyph1-1" x="107.626" y="90.874"/>
</g>
<g style="fill:rgb(0%,0%,0%);fill-opacity:1;">
  <use xlink:href="#i7-glyph2-1" x="113.366" y="92.368"/>
  <use xlink:href="#i7-glyph2-2" x="117.336882" y="92.368"/>
  <use xlink:href="#i7-glyph2-3" x="121.73735" y="92.368"/>
  <use xlink:href="#i7-glyph2-4" x="124.850454" y="92.368"/>
  <use xlink:href="#i7-glyph2-1" x="129.361805" y="92.368"/>
</g>
<g style="fill:rgb(0%,0%,0%);fill-opacity:1;">
  <use xlink:href="#i7-glyph2-5" x="133.116499" y="92.368"/>
</g>
<g> <!-- clip-path="url(#clip2)" clip-rule="nonzero" -->
<g style="fill:rgb(0%,0%,0%);fill-opacity:1;">
  <use xlink:href="#i7-glyph3-1" x="138.805" y="92.368"/>
</g>
</g>
<g style="fill:rgb(0%,0%,0%);fill-opacity:1;">
  <use xlink:href="#i7-glyph2-6" x="141.171" y="92.368"/>
</g>
</g>
</g>
  <g id="g10" fill="none" fill-rule="nonzero" fill-opacity="1" stroke="#fb1708" stroke-width="0.8" stroke-linecap="butt" stroke-linejoin="miter" stroke-miterlimit="10" stroke-dasharray="none" stroke-opacity="1">
   <path d="M3.97 6.87C3.97 6.87 -0.80 -8.76 -2.65 -14.82" />
   <path d="M-3.37 -17.17C-3.37 -17.17 -3.46 -15.40 -3.60 -12.80L-2.28 -13.62L-0.73 -13.67C-2.30 -15.76 -3.37 -17.17 -3.37 -17.17z" fill="#fb1708" stroke="none" />
  </g>
  <g id="g11" fill="none" fill-rule="nonzero" fill-opacity="1" stroke="#29c805" stroke-width="0.8" stroke-linecap="butt" stroke-linejoin="miter" stroke-miterlimit="10" stroke-dasharray="none" stroke-opacity="1">
   <path d="M-7.94 0.00C-7.94 0.00 7.99 3.69 14.16 5.11" />
   <path d="M16.56 5.67C16.56 5.67 15.07 4.70 12.88 3.28L12.93 4.83L12.21 6.20C14.79 5.88 16.56 5.67 16.56 5.67z" fill="#29c805" stroke="none" />
  </g>
  <g id="g12" fill="none" fill-rule="nonzero" fill-opacity="1" stroke="#262188" stroke-width="0.8" stroke-linecap="butt" stroke-linejoin="miter" stroke-miterlimit="10" stroke-dasharray="none" stroke-opacity="1">
   <path d="M3.97 -6.87C3.97 -6.87 -7.19 5.08 -11.51 9.71" />
   <path d="M-13.19 11.51C-13.19 11.51 -11.61 10.70 -9.28 9.52L-10.65 8.79L-11.47 7.47C-12.49 9.87 -13.19 11.51 -13.19 11.51z" fill="#262188" stroke="none" />
  </g>
 </defs>
</svg>
