<?xml version="1.0" standalone="yes"?>
<!DOCTYPE svg PUBLIC "-//W3C//DTD SVG 1.1//EN"
  "http://www.w3.org/Graphics/SVG/1.1/DTD/svg11.dtd">
<svg version="1.1" xmlns="http://www.w3.org/2000/svg" xmlns:xlink="http://www.w3.org/1999/xlink" width="52.9901mm" height="35.8593mm" viewBox="-9.00394 -78.9358 150.208 101.648" fill="none" stroke="#404040" stroke-width="0.2" stroke-miterlimit="10" stroke-dasharray="2 2">
 <g transform="scale(1.0, -1.0)">
  <use xlink:href="#g9" />
  <use xlink:href="#g10" />
  <use transform="matrix(1 0 0 1 114.414 -11.6044)" xlink:href="#g8" />
  <path d="M20.89 -8.50V78.84" />
  <use transform="matrix(1 0 0 1 16.8522 -20.1083)" xlink:href="#g5" />
  <path d="M79.66 -8.50V78.84" />
  <use transform="matrix(1 0 0 1 75.6315 -20.1083)" xlink:href="#g6" />
  <path d="M113.41 -8.50V78.84" />
  <use transform="matrix(1 0 0 1 109.375 -20.1083)" xlink:href="#g7" />
  <path d="M20.89 41.69H79.66" stroke="#177100" stroke-width="1" stroke-dasharray="none" />
  <path d="M79.66 65.19H113.41" stroke="#177100" stroke-width="1" stroke-dasharray="none" />
  <use transform="matrix(1 0 0 1 24.4565 45.9466)" xlink:href="#g2" />
  <use xlink:href="#g11" />
  <use transform="matrix(1 0 0 1 47.013 4.57841)" xlink:href="#g4" />
  <use xlink:href="#g12" />
  <use transform="matrix(1 0 0 1 84.3912 28.0728)" xlink:href="#g3" />
 </g>
 <defs>
  <g id="g9" fill="none" fill-rule="nonzero" fill-opacity="1" stroke="#000000" stroke-width="1" stroke-linecap="butt" stroke-linejoin="miter" stroke-miterlimit="10" stroke-dasharray="none" stroke-opacity="1">
   <path d="M-8.50 0.00C-8.50 0.00 106.08 0.00 124.95 0.00" />
   <path d="M127.56 0.00C127.56 0.00 126.08 -0.54 123.44 -1.50L123.84 0.00L123.44 1.50C126.08 0.54 127.56 0.00 127.56 0.00z" fill="#000000" stroke="none" />
  </g>
  <g id="g10" fill="none" fill-rule="nonzero" fill-opacity="1" stroke="#000000" stroke-width="1" stroke-linecap="butt" stroke-linejoin="miter" stroke-miterlimit="10" stroke-dasharray="none" stroke-opacity="1">
   <path d="M0.00 -8.50C0.00 -8.50 0.00 61.69 0.00 76.22" />
   <path d="M0.00 78.84C0.00 78.84 0.55 77.33 1.50 74.71L0.00 75.12L-1.50 74.71C-0.55 77.33 0.00 78.84 0.00 78.84z" fill="#000000" stroke="none" />
  </g>
  <g id="g8" transform="translate(-72, 78.274)scale(1.0, -1.0)">
<defs>
<g>
<symbol overflow="visible" id="i8-glyph0-0">
<path style="stroke:none;" d=""/>
</symbol>
<symbol overflow="visible" id="i8-glyph0-1">
<path style="stroke:none;" d="M 3.3125 -1.234375 L 3.3125 -1.796875 L 3.0625 -1.796875 L 3.0625 -1.25 C 3.0625 -0.515625 2.765625 -0.140625 2.390625 -0.140625 C 1.71875 -0.140625 1.71875 -1.046875 1.71875 -1.21875 L 1.71875 -3.984375 L 3.15625 -3.984375 L 3.15625 -4.296875 L 1.71875 -4.296875 L 1.71875 -6.125 L 1.46875 -6.125 C 1.46875 -5.3125 1.171875 -4.25 0.1875 -4.203125 L 0.1875 -3.984375 L 1.03125 -3.984375 L 1.03125 -1.234375 C 1.03125 -0.015625 1.96875 0.109375 2.328125 0.109375 C 3.03125 0.109375 3.3125 -0.59375 3.3125 -1.234375 Z M 3.3125 -1.234375 "/>
</symbol>
<symbol overflow="visible" id="i8-glyph0-2">
<path style="stroke:none;" d="M 2.46875 0 L 2.46875 -0.3125 C 1.796875 -0.3125 1.765625 -0.359375 1.765625 -0.75 L 1.765625 -4.40625 L 0.375 -4.296875 L 0.375 -3.984375 C 1.015625 -3.984375 1.109375 -3.921875 1.109375 -3.4375 L 1.109375 -0.75 C 1.109375 -0.3125 1 -0.3125 0.328125 -0.3125 L 0.328125 0 L 1.421875 -0.03125 C 1.78125 -0.03125 2.125 -0.015625 2.46875 0 Z M 1.90625 -6.015625 C 1.90625 -6.296875 1.6875 -6.546875 1.390625 -6.546875 C 1.046875 -6.546875 0.84375 -6.265625 0.84375 -6.015625 C 0.84375 -5.75 1.078125 -5.5 1.375 -5.5 C 1.71875 -5.5 1.90625 -5.765625 1.90625 -6.015625 Z M 1.90625 -6.015625 "/>
</symbol>
<symbol overflow="visible" id="i8-glyph0-3">
<path style="stroke:none;" d="M 8.109375 0 L 8.109375 -0.3125 C 7.59375 -0.3125 7.34375 -0.3125 7.328125 -0.609375 L 7.328125 -2.515625 C 7.328125 -3.375 7.328125 -3.671875 7.015625 -4.03125 C 6.875 -4.203125 6.546875 -4.40625 5.96875 -4.40625 C 5.140625 -4.40625 4.6875 -3.8125 4.53125 -3.421875 C 4.390625 -4.296875 3.65625 -4.40625 3.203125 -4.40625 C 2.46875 -4.40625 2 -3.984375 1.71875 -3.359375 L 1.71875 -4.40625 L 0.3125 -4.296875 L 0.3125 -3.984375 C 1.015625 -3.984375 1.09375 -3.921875 1.09375 -3.421875 L 1.09375 -0.75 C 1.09375 -0.3125 0.984375 -0.3125 0.3125 -0.3125 L 0.3125 0 L 1.453125 -0.03125 L 2.5625 0 L 2.5625 -0.3125 C 1.890625 -0.3125 1.78125 -0.3125 1.78125 -0.75 L 1.78125 -2.59375 C 1.78125 -3.625 2.5 -4.1875 3.125 -4.1875 C 3.765625 -4.1875 3.875 -3.65625 3.875 -3.078125 L 3.875 -0.75 C 3.875 -0.3125 3.765625 -0.3125 3.09375 -0.3125 L 3.09375 0 L 4.21875 -0.03125 L 5.328125 0 L 5.328125 -0.3125 C 4.671875 -0.3125 4.5625 -0.3125 4.5625 -0.75 L 4.5625 -2.59375 C 4.5625 -3.625 5.265625 -4.1875 5.90625 -4.1875 C 6.53125 -4.1875 6.640625 -3.65625 6.640625 -3.078125 L 6.640625 -0.75 C 6.640625 -0.3125 6.53125 -0.3125 5.859375 -0.3125 L 5.859375 0 L 6.984375 -0.03125 Z M 8.109375 0 "/>
</symbol>
<symbol overflow="visible" id="i8-glyph0-4">
<path style="stroke:none;" d="M 4.140625 -1.1875 C 4.140625 -1.28125 4.0625 -1.3125 4 -1.3125 C 3.921875 -1.3125 3.890625 -1.25 3.875 -1.171875 C 3.53125 -0.140625 2.625 -0.140625 2.53125 -0.140625 C 2.03125 -0.140625 1.640625 -0.4375 1.40625 -0.8125 C 1.109375 -1.28125 1.109375 -1.9375 1.109375 -2.296875 L 3.890625 -2.296875 C 4.109375 -2.296875 4.140625 -2.296875 4.140625 -2.515625 C 4.140625 -3.5 3.59375 -4.46875 2.359375 -4.46875 C 1.203125 -4.46875 0.28125 -3.4375 0.28125 -2.1875 C 0.28125 -0.859375 1.328125 0.109375 2.46875 0.109375 C 3.6875 0.109375 4.140625 -1 4.140625 -1.1875 Z M 3.484375 -2.515625 L 1.109375 -2.515625 C 1.171875 -4 2.015625 -4.25 2.359375 -4.25 C 3.375 -4.25 3.484375 -2.90625 3.484375 -2.515625 Z M 3.484375 -2.515625 "/>
</symbol>
<symbol overflow="visible" id="i8-glyph1-0">
<path style="stroke:none;" d=""/>
</symbol>
<symbol overflow="visible" id="i8-glyph1-1">
<path style="stroke:none;" d="M 3.125 -1.421875 C 3.125 -1.53125 3.046875 -1.53125 3.015625 -1.53125 C 2.921875 -1.53125 2.90625 -1.5 2.859375 -1.390625 C 2.4375 -0.34375 1.90625 -0.109375 1.5625 -0.109375 C 1.359375 -0.109375 1.25 -0.234375 1.25 -0.5625 C 1.25 -0.8125 1.28125 -0.875 1.3125 -1.046875 L 2.046875 -3.984375 L 2.984375 -3.984375 C 3.1875 -3.984375 3.296875 -3.984375 3.296875 -4.1875 C 3.296875 -4.296875 3.1875 -4.296875 3.015625 -4.296875 L 2.140625 -4.296875 C 2.5 -5.71875 2.546875 -5.90625 2.546875 -5.96875 C 2.546875 -6.140625 2.421875 -6.234375 2.25 -6.234375 C 2.21875 -6.234375 1.9375 -6.234375 1.859375 -5.875 L 1.46875 -4.296875 L 0.53125 -4.296875 C 0.328125 -4.296875 0.234375 -4.296875 0.234375 -4.109375 C 0.234375 -3.984375 0.3125 -3.984375 0.515625 -3.984375 L 1.390625 -3.984375 C 0.671875 -1.15625 0.625 -0.984375 0.625 -0.8125 C 0.625 -0.265625 1 0.109375 1.546875 0.109375 C 2.5625 0.109375 3.125 -1.34375 3.125 -1.421875 Z M 3.125 -1.421875 "/>
</symbol>
</g>
<clipPath id="i8-clip1">
  <path d="M 72 72 L 92 72 L 92 78.273438 L 72 78.273438 Z M 72 72 "/>
</clipPath>
<clipPath id="i8-clip2">
  <path d="M 94 72 L 98 72 L 98 78.273438 L 94 78.273438 Z M 94 72 "/>
</clipPath>
</defs>
<g id="i8-surface41">
<g> <!-- clip-path="url(#clip1)" clip-rule="nonzero" -->
<g style="fill:rgb(0%,0%,0%);fill-opacity:1;">
  <use xlink:href="#i8-glyph0-1" x="72" y="78.274"/>
  <use xlink:href="#i8-glyph0-2" x="75.874455" y="78.274"/>
  <use xlink:href="#i8-glyph0-3" x="78.642065" y="78.274"/>
  <use xlink:href="#i8-glyph0-4" x="86.9439" y="78.274"/>
</g>
</g>
<g> <!-- clip-path="url(#clip2)" clip-rule="nonzero" -->
<g style="fill:rgb(0%,0%,0%);fill-opacity:1;">
  <use xlink:href="#i8-glyph1-1" x="94.692" y="78.274"/>
</g>
</g>
</g>
</g>
  <g id="g5" transform="translate(-72, 78.1276)scale(1.0, -1.0)">
<defs>
<g>
<symbol overflow="visible" id="i5-glyph0-0">
<path style="stroke:none;" d=""/>
</symbol>
<symbol overflow="visible" id="i5-glyph0-1">
<path style="stroke:none;" d="M 3.125 -1.421875 C 3.125 -1.53125 3.046875 -1.53125 3.015625 -1.53125 C 2.921875 -1.53125 2.90625 -1.5 2.859375 -1.390625 C 2.4375 -0.34375 1.90625 -0.109375 1.5625 -0.109375 C 1.359375 -0.109375 1.25 -0.234375 1.25 -0.5625 C 1.25 -0.8125 1.28125 -0.875 1.3125 -1.046875 L 2.046875 -3.984375 L 2.984375 -3.984375 C 3.1875 -3.984375 3.296875 -3.984375 3.296875 -4.1875 C 3.296875 -4.296875 3.1875 -4.296875 3.015625 -4.296875 L 2.140625 -4.296875 C 2.5 -5.71875 2.546875 -5.90625 2.546875 -5.96875 C 2.546875 -6.140625 2.421875 -6.234375 2.25 -6.234375 C 2.21875 -6.234375 1.9375 -6.234375 1.859375 -5.875 L 1.46875 -4.296875 L 0.53125 -4.296875 C 0.328125 -4.296875 0.234375 -4.296875 0.234375 -4.109375 C 0.234375 -3.984375 0.3125 -3.984375 0.515625 -3.984375 L 1.390625 -3.984375 C 0.671875 -1.15625 0.625 -0.984375 0.625 -0.8125 C 0.625 -0.265625 1 0.109375 1.546875 0.109375 C 2.5625 0.109375 3.125 -1.34375 3.125 -1.421875 Z M 3.125 -1.421875 "/>
</symbol>
<symbol overflow="visible" id="i5-glyph1-0">
<path style="stroke:none;" d=""/>
</symbol>
<symbol overflow="visible" id="i5-glyph1-1">
<path style="stroke:none;" d="M 3.59375 -2.21875 C 3.59375 -2.984375 3.5 -3.546875 3.1875 -4.03125 C 2.96875 -4.34375 2.53125 -4.625 1.984375 -4.625 C 0.359375 -4.625 0.359375 -2.71875 0.359375 -2.21875 C 0.359375 -1.71875 0.359375 0.140625 1.984375 0.140625 C 3.59375 0.140625 3.59375 -1.71875 3.59375 -2.21875 Z M 2.96875 -2.3125 C 2.96875 -1.796875 2.96875 -1.28125 2.875 -0.84375 C 2.734375 -0.203125 2.265625 -0.0625 1.984375 -0.0625 C 1.65625 -0.0625 1.234375 -0.25 1.09375 -0.8125 C 1 -1.21875 1 -1.796875 1 -2.3125 C 1 -2.828125 1 -3.359375 1.09375 -3.734375 C 1.25 -4.28125 1.6875 -4.4375 1.984375 -4.4375 C 2.359375 -4.4375 2.71875 -4.203125 2.84375 -3.796875 C 2.953125 -3.421875 2.96875 -2.921875 2.96875 -2.3125 Z M 2.96875 -2.3125 "/>
</symbol>
</g>
<clipPath id="i5-clip1">
  <path d="M 72 72 L 76 72 L 76 79 L 72 79 Z M 72 72 "/>
</clipPath>
<clipPath id="i5-clip2">
  <path d="M 75 74 L 80 74 L 80 79.621094 L 75 79.621094 Z M 75 74 "/>
</clipPath>
</defs>
<g id="i5-surface26">
<g> <!-- clip-path="url(#clip1)" clip-rule="nonzero" -->
<g style="fill:rgb(0%,0%,0%);fill-opacity:1;">
  <use xlink:href="#i5-glyph0-1" x="72" y="78.128"/>
</g>
</g>
<g> <!-- clip-path="url(#clip2)" clip-rule="nonzero" -->
<g style="fill:rgb(0%,0%,0%);fill-opacity:1;">
  <use xlink:href="#i5-glyph1-1" x="75.598" y="79.622"/>
</g>
</g>
</g>
</g>
  <g id="g6" transform="translate(-72, 78.1276)scale(1.0, -1.0)">
<defs>
<g>
<symbol overflow="visible" id="i6-glyph0-0">
<path style="stroke:none;" d=""/>
</symbol>
<symbol overflow="visible" id="i6-glyph0-1">
<path style="stroke:none;" d="M 3.125 -1.421875 C 3.125 -1.53125 3.046875 -1.53125 3.015625 -1.53125 C 2.921875 -1.53125 2.90625 -1.5 2.859375 -1.390625 C 2.4375 -0.34375 1.90625 -0.109375 1.5625 -0.109375 C 1.359375 -0.109375 1.25 -0.234375 1.25 -0.5625 C 1.25 -0.8125 1.28125 -0.875 1.3125 -1.046875 L 2.046875 -3.984375 L 2.984375 -3.984375 C 3.1875 -3.984375 3.296875 -3.984375 3.296875 -4.1875 C 3.296875 -4.296875 3.1875 -4.296875 3.015625 -4.296875 L 2.140625 -4.296875 C 2.5 -5.71875 2.546875 -5.90625 2.546875 -5.96875 C 2.546875 -6.140625 2.421875 -6.234375 2.25 -6.234375 C 2.21875 -6.234375 1.9375 -6.234375 1.859375 -5.875 L 1.46875 -4.296875 L 0.53125 -4.296875 C 0.328125 -4.296875 0.234375 -4.296875 0.234375 -4.109375 C 0.234375 -3.984375 0.3125 -3.984375 0.515625 -3.984375 L 1.390625 -3.984375 C 0.671875 -1.15625 0.625 -0.984375 0.625 -0.8125 C 0.625 -0.265625 1 0.109375 1.546875 0.109375 C 2.5625 0.109375 3.125 -1.34375 3.125 -1.421875 Z M 3.125 -1.421875 "/>
</symbol>
<symbol overflow="visible" id="i6-glyph1-0">
<path style="stroke:none;" d=""/>
</symbol>
<symbol overflow="visible" id="i6-glyph1-1">
<path style="stroke:none;" d="M 3.296875 0 L 3.296875 -0.25 L 3.03125 -0.25 C 2.328125 -0.25 2.328125 -0.34375 2.328125 -0.578125 L 2.328125 -4.4375 C 2.328125 -4.625 2.328125 -4.625 2.125 -4.625 C 1.671875 -4.1875 1.046875 -4.1875 0.765625 -4.1875 L 0.765625 -3.9375 C 0.921875 -3.9375 1.390625 -3.9375 1.765625 -4.125 L 1.765625 -0.578125 C 1.765625 -0.34375 1.765625 -0.25 1.078125 -0.25 L 0.8125 -0.25 L 0.8125 0 L 2.046875 -0.03125 Z M 3.296875 0 "/>
</symbol>
</g>
<clipPath id="i6-clip1">
  <path d="M 72 72 L 76 72 L 76 79 L 72 79 Z M 72 72 "/>
</clipPath>
<clipPath id="i6-clip2">
  <path d="M 76 74 L 79 74 L 79 79.621094 L 76 79.621094 Z M 76 74 "/>
</clipPath>
</defs>
<g id="i6-surface31">
<g> <!-- clip-path="url(#clip1)" clip-rule="nonzero" -->
<g style="fill:rgb(0%,0%,0%);fill-opacity:1;">
  <use xlink:href="#i6-glyph0-1" x="72" y="78.128"/>
</g>
</g>
<g> <!-- clip-path="url(#clip2)" clip-rule="nonzero" -->
<g style="fill:rgb(0%,0%,0%);fill-opacity:1;">
  <use xlink:href="#i6-glyph1-1" x="75.598" y="79.622"/>
</g>
</g>
</g>
</g>
  <g id="g7" transform="translate(-72, 78.1276)scale(1.0, -1.0)">
<defs>
<g>
<symbol overflow="visible" id="i7-glyph0-0">
<path style="stroke:none;" d=""/>
</symbol>
<symbol overflow="visible" id="i7-glyph0-1">
<path style="stroke:none;" d="M 3.125 -1.421875 C 3.125 -1.53125 3.046875 -1.53125 3.015625 -1.53125 C 2.921875 -1.53125 2.90625 -1.5 2.859375 -1.390625 C 2.4375 -0.34375 1.90625 -0.109375 1.5625 -0.109375 C 1.359375 -0.109375 1.25 -0.234375 1.25 -0.5625 C 1.25 -0.8125 1.28125 -0.875 1.3125 -1.046875 L 2.046875 -3.984375 L 2.984375 -3.984375 C 3.1875 -3.984375 3.296875 -3.984375 3.296875 -4.1875 C 3.296875 -4.296875 3.1875 -4.296875 3.015625 -4.296875 L 2.140625 -4.296875 C 2.5 -5.71875 2.546875 -5.90625 2.546875 -5.96875 C 2.546875 -6.140625 2.421875 -6.234375 2.25 -6.234375 C 2.21875 -6.234375 1.9375 -6.234375 1.859375 -5.875 L 1.46875 -4.296875 L 0.53125 -4.296875 C 0.328125 -4.296875 0.234375 -4.296875 0.234375 -4.109375 C 0.234375 -3.984375 0.3125 -3.984375 0.515625 -3.984375 L 1.390625 -3.984375 C 0.671875 -1.15625 0.625 -0.984375 0.625 -0.8125 C 0.625 -0.265625 1 0.109375 1.546875 0.109375 C 2.5625 0.109375 3.125 -1.34375 3.125 -1.421875 Z M 3.125 -1.421875 "/>
</symbol>
<symbol overflow="visible" id="i7-glyph1-0">
<path style="stroke:none;" d=""/>
</symbol>
<symbol overflow="visible" id="i7-glyph1-1">
<path style="stroke:none;" d="M 3.515625 -1.265625 L 3.28125 -1.265625 C 3.265625 -1.109375 3.1875 -0.703125 3.09375 -0.640625 C 3.046875 -0.59375 2.515625 -0.59375 2.40625 -0.59375 L 1.125 -0.59375 C 1.859375 -1.234375 2.109375 -1.4375 2.515625 -1.765625 C 3.03125 -2.171875 3.515625 -2.609375 3.515625 -3.265625 C 3.515625 -4.109375 2.78125 -4.625 1.890625 -4.625 C 1.03125 -4.625 0.4375 -4.015625 0.4375 -3.375 C 0.4375 -3.03125 0.734375 -2.984375 0.8125 -2.984375 C 0.96875 -2.984375 1.171875 -3.109375 1.171875 -3.359375 C 1.171875 -3.484375 1.125 -3.734375 0.765625 -3.734375 C 0.984375 -4.21875 1.453125 -4.375 1.78125 -4.375 C 2.484375 -4.375 2.84375 -3.828125 2.84375 -3.265625 C 2.84375 -2.65625 2.40625 -2.1875 2.1875 -1.9375 L 0.515625 -0.265625 C 0.4375 -0.203125 0.4375 -0.1875 0.4375 0 L 3.3125 0 Z M 3.515625 -1.265625 "/>
</symbol>
</g>
<clipPath id="i7-clip1">
  <path d="M 72 72 L 76 72 L 76 79 L 72 79 Z M 72 72 "/>
</clipPath>
<clipPath id="i7-clip2">
  <path d="M 76 74 L 80 74 L 80 79.621094 L 76 79.621094 Z M 76 74 "/>
</clipPath>
</defs>
<g id="i7-surface36">
<g> <!-- clip-path="url(#clip1)" clip-rule="nonzero" -->
<g style="fill:rgb(0%,0%,0%);fill-opacity:1;">
  <use xlink:href="#i7-glyph0-1" x="72" y="78.128"/>
</g>
</g>
<g> <!-- clip-path="url(#clip2)" clip-rule="nonzero" -->
<g style="fill:rgb(0%,0%,0%);fill-opacity:1;">
  <use xlink:href="#i7-glyph1-1" x="75.598" y="79.622"/>
</g>
</g>
</g>
</g>
  <g id="g2" transform="translate(-72, 79.4723)scale(1.0, -1.0)">
<defs>
<g>
<symbol overflow="visible" id="i2-glyph0-0">
<path style="stroke:none;" d=""/>
</symbol>
<symbol overflow="visible" id="i2-glyph0-1">
<path style="stroke:none;" d="M 8.453125 -1.421875 C 8.453125 -1.53125 8.359375 -1.53125 8.328125 -1.53125 C 8.234375 -1.53125 8.234375 -1.5 8.1875 -1.34375 C 8.03125 -0.8125 7.71875 -0.109375 7.171875 -0.109375 C 7 -0.109375 6.921875 -0.203125 6.921875 -0.4375 C 6.921875 -0.6875 7.015625 -0.921875 7.109375 -1.140625 C 7.296875 -1.671875 7.71875 -2.765625 7.71875 -3.34375 C 7.71875 -3.984375 7.3125 -4.40625 6.5625 -4.40625 C 5.828125 -4.40625 5.3125 -3.96875 4.9375 -3.4375 C 4.9375 -3.5625 4.90625 -3.90625 4.625 -4.140625 C 4.375 -4.359375 4.0625 -4.40625 3.8125 -4.40625 C 2.90625 -4.40625 2.421875 -3.765625 2.25 -3.53125 C 2.203125 -4.109375 1.78125 -4.40625 1.328125 -4.40625 C 0.875 -4.40625 0.6875 -4.015625 0.59375 -3.84375 C 0.421875 -3.484375 0.296875 -2.90625 0.296875 -2.875 C 0.296875 -2.765625 0.40625 -2.765625 0.40625 -2.765625 C 0.515625 -2.765625 0.515625 -2.78125 0.578125 -3 C 0.75 -3.703125 0.953125 -4.1875 1.3125 -4.1875 C 1.46875 -4.1875 1.609375 -4.109375 1.609375 -3.734375 C 1.609375 -3.515625 1.578125 -3.40625 1.453125 -2.890625 L 0.875 -0.59375 C 0.84375 -0.4375 0.78125 -0.203125 0.78125 -0.15625 C 0.78125 0.015625 0.921875 0.109375 1.078125 0.109375 C 1.203125 0.109375 1.375 0.03125 1.453125 -0.171875 C 1.453125 -0.1875 1.578125 -0.65625 1.640625 -0.90625 L 1.859375 -1.796875 C 1.90625 -2.03125 1.96875 -2.25 2.03125 -2.46875 L 2.15625 -2.96875 C 2.296875 -3.28125 2.828125 -4.1875 3.78125 -4.1875 C 4.234375 -4.1875 4.3125 -3.8125 4.3125 -3.484375 C 4.3125 -3.234375 4.25 -2.953125 4.171875 -2.65625 L 3.890625 -1.5 C 3.78125 -1.140625 3.78125 -1.078125 3.6875 -0.75 C 3.65625 -0.546875 3.5625 -0.203125 3.5625 -0.15625 C 3.5625 0.015625 3.703125 0.109375 3.84375 0.109375 C 4.15625 0.109375 4.21875 -0.140625 4.296875 -0.453125 L 4.890625 -2.859375 C 4.921875 -2.984375 5.453125 -4.1875 6.546875 -4.1875 C 6.96875 -4.1875 7.078125 -3.84375 7.078125 -3.484375 C 7.078125 -2.921875 6.65625 -1.78125 6.453125 -1.25 C 6.375 -1.015625 6.328125 -0.90625 6.328125 -0.703125 C 6.328125 -0.234375 6.671875 0.109375 7.140625 0.109375 C 8.078125 0.109375 8.453125 -1.34375 8.453125 -1.421875 Z M 8.453125 -1.421875 "/>
</symbol>
<symbol overflow="visible" id="i2-glyph0-2">
<path style="stroke:none;" d="M 3.125 -1.421875 C 3.125 -1.53125 3.046875 -1.53125 3.015625 -1.53125 C 2.921875 -1.53125 2.90625 -1.5 2.859375 -1.390625 C 2.4375 -0.34375 1.90625 -0.109375 1.5625 -0.109375 C 1.359375 -0.109375 1.25 -0.234375 1.25 -0.5625 C 1.25 -0.8125 1.28125 -0.875 1.3125 -1.046875 L 2.046875 -3.984375 L 2.984375 -3.984375 C 3.1875 -3.984375 3.296875 -3.984375 3.296875 -4.1875 C 3.296875 -4.296875 3.1875 -4.296875 3.015625 -4.296875 L 2.140625 -4.296875 C 2.5 -5.71875 2.546875 -5.90625 2.546875 -5.96875 C 2.546875 -6.140625 2.421875 -6.234375 2.25 -6.234375 C 2.21875 -6.234375 1.9375 -6.234375 1.859375 -5.875 L 1.46875 -4.296875 L 0.53125 -4.296875 C 0.328125 -4.296875 0.234375 -4.296875 0.234375 -4.109375 C 0.234375 -3.984375 0.3125 -3.984375 0.515625 -3.984375 L 1.390625 -3.984375 C 0.671875 -1.15625 0.625 -0.984375 0.625 -0.8125 C 0.625 -0.265625 1 0.109375 1.546875 0.109375 C 2.5625 0.109375 3.125 -1.34375 3.125 -1.421875 Z M 3.125 -1.421875 "/>
</symbol>
<symbol overflow="visible" id="i2-glyph1-0">
<path style="stroke:none;" d=""/>
</symbol>
<symbol overflow="visible" id="i2-glyph1-1">
<path style="stroke:none;" d="M 3.296875 2.390625 C 3.296875 2.359375 3.296875 2.34375 3.125 2.171875 C 1.890625 0.921875 1.5625 -0.96875 1.5625 -2.5 C 1.5625 -4.234375 1.9375 -5.96875 3.171875 -7.203125 C 3.296875 -7.328125 3.296875 -7.34375 3.296875 -7.375 C 3.296875 -7.453125 3.265625 -7.484375 3.203125 -7.484375 C 3.09375 -7.484375 2.203125 -6.796875 1.609375 -5.53125 C 1.109375 -4.4375 0.984375 -3.328125 0.984375 -2.5 C 0.984375 -1.71875 1.09375 -0.515625 1.640625 0.625 C 2.25 1.84375 3.09375 2.5 3.203125 2.5 C 3.265625 2.5 3.296875 2.46875 3.296875 2.390625 Z M 3.296875 2.390625 "/>
</symbol>
<symbol overflow="visible" id="i2-glyph1-2">
<path style="stroke:none;" d="M 2.875 -2.5 C 2.875 -3.265625 2.765625 -4.46875 2.21875 -5.609375 C 1.625 -6.828125 0.765625 -7.484375 0.671875 -7.484375 C 0.609375 -7.484375 0.5625 -7.4375 0.5625 -7.375 C 0.5625 -7.34375 0.5625 -7.328125 0.75 -7.140625 C 1.734375 -6.15625 2.296875 -4.578125 2.296875 -2.5 C 2.296875 -0.78125 1.9375 0.96875 0.703125 2.21875 C 0.5625 2.34375 0.5625 2.359375 0.5625 2.390625 C 0.5625 2.453125 0.609375 2.5 0.671875 2.5 C 0.765625 2.5 1.671875 1.8125 2.25 0.546875 C 2.765625 -0.546875 2.875 -1.65625 2.875 -2.5 Z M 2.875 -2.5 "/>
</symbol>
</g>
<clipPath id="i2-clip1">
  <path d="M 81 72 L 85 72 L 85 81.964844 L 81 81.964844 Z M 81 72 "/>
</clipPath>
<clipPath id="i2-clip2">
  <path d="M 88 72 L 92 72 L 92 81.964844 L 88 81.964844 Z M 88 72 "/>
</clipPath>
</defs>
<g id="i2-surface11">
<g style="fill:rgb(0%,0%,0%);fill-opacity:1;">
  <use xlink:href="#i2-glyph0-1" x="72" y="79.472"/>
</g>
<g> <!-- clip-path="url(#clip1)" clip-rule="nonzero" -->
<g style="fill:rgb(0%,0%,0%);fill-opacity:1;">
  <use xlink:href="#i2-glyph1-1" x="80.747" y="79.472"/>
</g>
</g>
<g style="fill:rgb(0%,0%,0%);fill-opacity:1;">
  <use xlink:href="#i2-glyph0-2" x="84.622" y="79.472"/>
</g>
<g> <!-- clip-path="url(#clip2)" clip-rule="nonzero" -->
<g style="fill:rgb(0%,0%,0%);fill-opacity:1;">
  <use xlink:href="#i2-glyph1-2" x="88.219" y="79.472"/>
</g>
</g>
</g>
</g>
  <g id="g11" fill="none" fill-rule="nonzero" fill-opacity="1" stroke="#000000" stroke-width="0.5" stroke-linecap="butt" stroke-linejoin="miter" stroke-miterlimit="10" stroke-dasharray="none" stroke-opacity="1">
   <path d="M62.66 16.18C62.66 16.18 72.01 30.21 76.84 37.46" />
   <path d="M78.09 39.34C77.81 38.17 77.45 36.71 77.05 35.06L76.02 36.23L74.55 36.73C75.91 37.73 77.13 38.62 78.09 39.34z" fill="#000000" stroke="none" />
  </g>
  <g id="g4" transform="translate(-72, 79.9323)scale(1.0, -1.0)">
<defs>
<g>
<symbol overflow="visible" id="i4-glyph0-0">
<path style="stroke:none;" d=""/>
</symbol>
<symbol overflow="visible" id="i4-glyph0-1">
<path style="stroke:none;" d="M 8.453125 -1.421875 C 8.453125 -1.53125 8.359375 -1.53125 8.328125 -1.53125 C 8.234375 -1.53125 8.234375 -1.5 8.1875 -1.34375 C 8.03125 -0.8125 7.71875 -0.109375 7.171875 -0.109375 C 7 -0.109375 6.921875 -0.203125 6.921875 -0.4375 C 6.921875 -0.6875 7.015625 -0.921875 7.109375 -1.140625 C 7.296875 -1.671875 7.71875 -2.765625 7.71875 -3.34375 C 7.71875 -3.984375 7.3125 -4.40625 6.5625 -4.40625 C 5.828125 -4.40625 5.3125 -3.96875 4.9375 -3.4375 C 4.9375 -3.5625 4.90625 -3.90625 4.625 -4.140625 C 4.375 -4.359375 4.0625 -4.40625 3.8125 -4.40625 C 2.90625 -4.40625 2.421875 -3.765625 2.25 -3.53125 C 2.203125 -4.109375 1.78125 -4.40625 1.328125 -4.40625 C 0.875 -4.40625 0.6875 -4.015625 0.59375 -3.84375 C 0.421875 -3.484375 0.296875 -2.90625 0.296875 -2.875 C 0.296875 -2.765625 0.40625 -2.765625 0.40625 -2.765625 C 0.515625 -2.765625 0.515625 -2.78125 0.578125 -3 C 0.75 -3.703125 0.953125 -4.1875 1.3125 -4.1875 C 1.46875 -4.1875 1.609375 -4.109375 1.609375 -3.734375 C 1.609375 -3.515625 1.578125 -3.40625 1.453125 -2.890625 L 0.875 -0.59375 C 0.84375 -0.4375 0.78125 -0.203125 0.78125 -0.15625 C 0.78125 0.015625 0.921875 0.109375 1.078125 0.109375 C 1.203125 0.109375 1.375 0.03125 1.453125 -0.171875 C 1.453125 -0.1875 1.578125 -0.65625 1.640625 -0.90625 L 1.859375 -1.796875 C 1.90625 -2.03125 1.96875 -2.25 2.03125 -2.46875 L 2.15625 -2.96875 C 2.296875 -3.28125 2.828125 -4.1875 3.78125 -4.1875 C 4.234375 -4.1875 4.3125 -3.8125 4.3125 -3.484375 C 4.3125 -3.234375 4.25 -2.953125 4.171875 -2.65625 L 3.890625 -1.5 C 3.78125 -1.140625 3.78125 -1.078125 3.6875 -0.75 C 3.65625 -0.546875 3.5625 -0.203125 3.5625 -0.15625 C 3.5625 0.015625 3.703125 0.109375 3.84375 0.109375 C 4.15625 0.109375 4.21875 -0.140625 4.296875 -0.453125 L 4.890625 -2.859375 C 4.921875 -2.984375 5.453125 -4.1875 6.546875 -4.1875 C 6.96875 -4.1875 7.078125 -3.84375 7.078125 -3.484375 C 7.078125 -2.921875 6.65625 -1.78125 6.453125 -1.25 C 6.375 -1.015625 6.328125 -0.90625 6.328125 -0.703125 C 6.328125 -0.234375 6.671875 0.109375 7.140625 0.109375 C 8.078125 0.109375 8.453125 -1.34375 8.453125 -1.421875 Z M 8.453125 -1.421875 "/>
</symbol>
<symbol overflow="visible" id="i4-glyph0-2">
<path style="stroke:none;" d="M 3.125 -1.421875 C 3.125 -1.53125 3.046875 -1.53125 3.015625 -1.53125 C 2.921875 -1.53125 2.90625 -1.5 2.859375 -1.390625 C 2.4375 -0.34375 1.90625 -0.109375 1.5625 -0.109375 C 1.359375 -0.109375 1.25 -0.234375 1.25 -0.5625 C 1.25 -0.8125 1.28125 -0.875 1.3125 -1.046875 L 2.046875 -3.984375 L 2.984375 -3.984375 C 3.1875 -3.984375 3.296875 -3.984375 3.296875 -4.1875 C 3.296875 -4.296875 3.1875 -4.296875 3.015625 -4.296875 L 2.140625 -4.296875 C 2.5 -5.71875 2.546875 -5.90625 2.546875 -5.96875 C 2.546875 -6.140625 2.421875 -6.234375 2.25 -6.234375 C 2.21875 -6.234375 1.9375 -6.234375 1.859375 -5.875 L 1.46875 -4.296875 L 0.53125 -4.296875 C 0.328125 -4.296875 0.234375 -4.296875 0.234375 -4.109375 C 0.234375 -3.984375 0.3125 -3.984375 0.515625 -3.984375 L 1.390625 -3.984375 C 0.671875 -1.15625 0.625 -0.984375 0.625 -0.8125 C 0.625 -0.265625 1 0.109375 1.546875 0.109375 C 2.5625 0.109375 3.125 -1.34375 3.125 -1.421875 Z M 3.125 -1.421875 "/>
</symbol>
<symbol overflow="visible" id="i4-glyph1-0">
<path style="stroke:none;" d=""/>
</symbol>
<symbol overflow="visible" id="i4-glyph1-1">
<path style="stroke:none;" d="M 5.46875 -1.734375 C 5.46875 -1.921875 5.296875 -1.921875 5.203125 -1.921875 L 1.015625 -1.921875 C 0.90625 -1.921875 0.75 -1.921875 0.75 -1.734375 C 0.75 -1.578125 0.921875 -1.578125 1.015625 -1.578125 L 5.203125 -1.578125 C 5.296875 -1.578125 5.46875 -1.578125 5.46875 -1.734375 Z M 5.46875 -1.734375 "/>
</symbol>
<symbol overflow="visible" id="i4-glyph2-0">
<path style="stroke:none;" d=""/>
</symbol>
<symbol overflow="visible" id="i4-glyph2-1">
<path style="stroke:none;" d="M 3.296875 2.390625 C 3.296875 2.359375 3.296875 2.34375 3.125 2.171875 C 1.890625 0.921875 1.5625 -0.96875 1.5625 -2.5 C 1.5625 -4.234375 1.9375 -5.96875 3.171875 -7.203125 C 3.296875 -7.328125 3.296875 -7.34375 3.296875 -7.375 C 3.296875 -7.453125 3.265625 -7.484375 3.203125 -7.484375 C 3.09375 -7.484375 2.203125 -6.796875 1.609375 -5.53125 C 1.109375 -4.4375 0.984375 -3.328125 0.984375 -2.5 C 0.984375 -1.71875 1.09375 -0.515625 1.640625 0.625 C 2.25 1.84375 3.09375 2.5 3.203125 2.5 C 3.265625 2.5 3.296875 2.46875 3.296875 2.390625 Z M 3.296875 2.390625 "/>
</symbol>
<symbol overflow="visible" id="i4-glyph2-2">
<path style="stroke:none;" d="M 2.875 -2.5 C 2.875 -3.265625 2.765625 -4.46875 2.21875 -5.609375 C 1.625 -6.828125 0.765625 -7.484375 0.671875 -7.484375 C 0.609375 -7.484375 0.5625 -7.4375 0.5625 -7.375 C 0.5625 -7.34375 0.5625 -7.328125 0.75 -7.140625 C 1.734375 -6.15625 2.296875 -4.578125 2.296875 -2.5 C 2.296875 -0.78125 1.9375 0.96875 0.703125 2.21875 C 0.5625 2.34375 0.5625 2.359375 0.5625 2.390625 C 0.5625 2.453125 0.609375 2.5 0.671875 2.5 C 0.765625 2.5 1.671875 1.8125 2.25 0.546875 C 2.765625 -0.546875 2.875 -1.65625 2.875 -2.5 Z M 2.875 -2.5 "/>
</symbol>
<symbol overflow="visible" id="i4-glyph3-0">
<path style="stroke:none;" d=""/>
</symbol>
<symbol overflow="visible" id="i4-glyph3-1">
<path style="stroke:none;" d="M 3.296875 0 L 3.296875 -0.25 L 3.03125 -0.25 C 2.328125 -0.25 2.328125 -0.34375 2.328125 -0.578125 L 2.328125 -4.4375 C 2.328125 -4.625 2.328125 -4.625 2.125 -4.625 C 1.671875 -4.1875 1.046875 -4.1875 0.765625 -4.1875 L 0.765625 -3.9375 C 0.921875 -3.9375 1.390625 -3.9375 1.765625 -4.125 L 1.765625 -0.578125 C 1.765625 -0.34375 1.765625 -0.25 1.078125 -0.25 L 0.8125 -0.25 L 0.8125 0 L 2.046875 -0.03125 Z M 3.296875 0 "/>
</symbol>
</g>
<clipPath id="i4-clip1">
  <path d="M 88 72 L 91 72 L 91 82.421875 L 88 82.421875 Z M 88 72 "/>
</clipPath>
<clipPath id="i4-clip2">
  <path d="M 99 72 L 103 72 L 103 82.421875 L 99 82.421875 Z M 99 72 "/>
</clipPath>
</defs>
<g id="i4-surface21">
<g style="fill:rgb(0%,0%,0%);fill-opacity:1;">
  <use xlink:href="#i4-glyph0-1" x="72" y="79.932"/>
</g>
<g style="fill:rgb(0%,0%,0%);fill-opacity:1;">
  <use xlink:href="#i4-glyph1-1" x="80.747" y="76.317"/>
</g>
<g> <!-- clip-path="url(#clip1)" clip-rule="nonzero" -->
<g style="fill:rgb(0%,0%,0%);fill-opacity:1;">
  <use xlink:href="#i4-glyph2-1" x="87.472" y="79.932"/>
</g>
</g>
<g style="fill:rgb(0%,0%,0%);fill-opacity:1;">
  <use xlink:href="#i4-glyph0-2" x="91.347" y="79.932"/>
</g>
<g style="fill:rgb(0%,0%,0%);fill-opacity:1;">
  <use xlink:href="#i4-glyph3-1" x="94.944" y="81.427"/>
</g>
<g> <!-- clip-path="url(#clip2)" clip-rule="nonzero" -->
<g style="fill:rgb(0%,0%,0%);fill-opacity:1;">
  <use xlink:href="#i4-glyph2-2" x="99.413" y="79.932"/>
</g>
</g>
</g>
</g>
  <g id="g12" fill="none" fill-rule="nonzero" fill-opacity="1" stroke="#000000" stroke-width="0.5" stroke-linecap="butt" stroke-linejoin="miter" stroke-miterlimit="10" stroke-dasharray="none" stroke-opacity="1">
   <path d="M96.67 39.68C96.67 39.68 87.32 53.70 82.49 60.96" />
   <path d="M81.24 62.83C82.20 62.12 83.42 61.22 84.78 60.22L83.31 59.72L82.28 58.56C81.88 60.20 81.52 61.67 81.24 62.83z" fill="#000000" stroke="none" />
  </g>
  <g id="g3" transform="translate(-72, 79.4723)scale(1.0, -1.0)">
<defs>
<g>
<symbol overflow="visible" id="i3-glyph0-0">
<path style="stroke:none;" d=""/>
</symbol>
<symbol overflow="visible" id="i3-glyph0-1">
<path style="stroke:none;" d="M 8.453125 -1.421875 C 8.453125 -1.53125 8.359375 -1.53125 8.328125 -1.53125 C 8.234375 -1.53125 8.234375 -1.5 8.1875 -1.34375 C 8.03125 -0.8125 7.71875 -0.109375 7.171875 -0.109375 C 7 -0.109375 6.921875 -0.203125 6.921875 -0.4375 C 6.921875 -0.6875 7.015625 -0.921875 7.109375 -1.140625 C 7.296875 -1.671875 7.71875 -2.765625 7.71875 -3.34375 C 7.71875 -3.984375 7.3125 -4.40625 6.5625 -4.40625 C 5.828125 -4.40625 5.3125 -3.96875 4.9375 -3.4375 C 4.9375 -3.5625 4.90625 -3.90625 4.625 -4.140625 C 4.375 -4.359375 4.0625 -4.40625 3.8125 -4.40625 C 2.90625 -4.40625 2.421875 -3.765625 2.25 -3.53125 C 2.203125 -4.109375 1.78125 -4.40625 1.328125 -4.40625 C 0.875 -4.40625 0.6875 -4.015625 0.59375 -3.84375 C 0.421875 -3.484375 0.296875 -2.90625 0.296875 -2.875 C 0.296875 -2.765625 0.40625 -2.765625 0.40625 -2.765625 C 0.515625 -2.765625 0.515625 -2.78125 0.578125 -3 C 0.75 -3.703125 0.953125 -4.1875 1.3125 -4.1875 C 1.46875 -4.1875 1.609375 -4.109375 1.609375 -3.734375 C 1.609375 -3.515625 1.578125 -3.40625 1.453125 -2.890625 L 0.875 -0.59375 C 0.84375 -0.4375 0.78125 -0.203125 0.78125 -0.15625 C 0.78125 0.015625 0.921875 0.109375 1.078125 0.109375 C 1.203125 0.109375 1.375 0.03125 1.453125 -0.171875 C 1.453125 -0.1875 1.578125 -0.65625 1.640625 -0.90625 L 1.859375 -1.796875 C 1.90625 -2.03125 1.96875 -2.25 2.03125 -2.46875 L 2.15625 -2.96875 C 2.296875 -3.28125 2.828125 -4.1875 3.78125 -4.1875 C 4.234375 -4.1875 4.3125 -3.8125 4.3125 -3.484375 C 4.3125 -3.234375 4.25 -2.953125 4.171875 -2.65625 L 3.890625 -1.5 C 3.78125 -1.140625 3.78125 -1.078125 3.6875 -0.75 C 3.65625 -0.546875 3.5625 -0.203125 3.5625 -0.15625 C 3.5625 0.015625 3.703125 0.109375 3.84375 0.109375 C 4.15625 0.109375 4.21875 -0.140625 4.296875 -0.453125 L 4.890625 -2.859375 C 4.921875 -2.984375 5.453125 -4.1875 6.546875 -4.1875 C 6.96875 -4.1875 7.078125 -3.84375 7.078125 -3.484375 C 7.078125 -2.921875 6.65625 -1.78125 6.453125 -1.25 C 6.375 -1.015625 6.328125 -0.90625 6.328125 -0.703125 C 6.328125 -0.234375 6.671875 0.109375 7.140625 0.109375 C 8.078125 0.109375 8.453125 -1.34375 8.453125 -1.421875 Z M 8.453125 -1.421875 "/>
</symbol>
<symbol overflow="visible" id="i3-glyph0-2">
<path style="stroke:none;" d="M 3.125 -1.421875 C 3.125 -1.53125 3.046875 -1.53125 3.015625 -1.53125 C 2.921875 -1.53125 2.90625 -1.5 2.859375 -1.390625 C 2.4375 -0.34375 1.90625 -0.109375 1.5625 -0.109375 C 1.359375 -0.109375 1.25 -0.234375 1.25 -0.5625 C 1.25 -0.8125 1.28125 -0.875 1.3125 -1.046875 L 2.046875 -3.984375 L 2.984375 -3.984375 C 3.1875 -3.984375 3.296875 -3.984375 3.296875 -4.1875 C 3.296875 -4.296875 3.1875 -4.296875 3.015625 -4.296875 L 2.140625 -4.296875 C 2.5 -5.71875 2.546875 -5.90625 2.546875 -5.96875 C 2.546875 -6.140625 2.421875 -6.234375 2.25 -6.234375 C 2.21875 -6.234375 1.9375 -6.234375 1.859375 -5.875 L 1.46875 -4.296875 L 0.53125 -4.296875 C 0.328125 -4.296875 0.234375 -4.296875 0.234375 -4.109375 C 0.234375 -3.984375 0.3125 -3.984375 0.515625 -3.984375 L 1.390625 -3.984375 C 0.671875 -1.15625 0.625 -0.984375 0.625 -0.8125 C 0.625 -0.265625 1 0.109375 1.546875 0.109375 C 2.5625 0.109375 3.125 -1.34375 3.125 -1.421875 Z M 3.125 -1.421875 "/>
</symbol>
<symbol overflow="visible" id="i3-glyph1-0">
<path style="stroke:none;" d=""/>
</symbol>
<symbol overflow="visible" id="i3-glyph1-1">
<path style="stroke:none;" d="M 3.296875 2.390625 C 3.296875 2.359375 3.296875 2.34375 3.125 2.171875 C 1.890625 0.921875 1.5625 -0.96875 1.5625 -2.5 C 1.5625 -4.234375 1.9375 -5.96875 3.171875 -7.203125 C 3.296875 -7.328125 3.296875 -7.34375 3.296875 -7.375 C 3.296875 -7.453125 3.265625 -7.484375 3.203125 -7.484375 C 3.09375 -7.484375 2.203125 -6.796875 1.609375 -5.53125 C 1.109375 -4.4375 0.984375 -3.328125 0.984375 -2.5 C 0.984375 -1.71875 1.09375 -0.515625 1.640625 0.625 C 2.25 1.84375 3.09375 2.5 3.203125 2.5 C 3.265625 2.5 3.296875 2.46875 3.296875 2.390625 Z M 3.296875 2.390625 "/>
</symbol>
<symbol overflow="visible" id="i3-glyph1-2">
<path style="stroke:none;" d="M 2.875 -2.5 C 2.875 -3.265625 2.765625 -4.46875 2.21875 -5.609375 C 1.625 -6.828125 0.765625 -7.484375 0.671875 -7.484375 C 0.609375 -7.484375 0.5625 -7.4375 0.5625 -7.375 C 0.5625 -7.34375 0.5625 -7.328125 0.75 -7.140625 C 1.734375 -6.15625 2.296875 -4.578125 2.296875 -2.5 C 2.296875 -0.78125 1.9375 0.96875 0.703125 2.21875 C 0.5625 2.34375 0.5625 2.359375 0.5625 2.390625 C 0.5625 2.453125 0.609375 2.5 0.671875 2.5 C 0.765625 2.5 1.671875 1.8125 2.25 0.546875 C 2.765625 -0.546875 2.875 -1.65625 2.875 -2.5 Z M 2.875 -2.5 "/>
</symbol>
<symbol overflow="visible" id="i3-glyph2-0">
<path style="stroke:none;" d=""/>
</symbol>
<symbol overflow="visible" id="i3-glyph2-1">
<path style="stroke:none;" d="M 3.296875 0 L 3.296875 -0.25 L 3.03125 -0.25 C 2.328125 -0.25 2.328125 -0.34375 2.328125 -0.578125 L 2.328125 -4.4375 C 2.328125 -4.625 2.328125 -4.625 2.125 -4.625 C 1.671875 -4.1875 1.046875 -4.1875 0.765625 -4.1875 L 0.765625 -3.9375 C 0.921875 -3.9375 1.390625 -3.9375 1.765625 -4.125 L 1.765625 -0.578125 C 1.765625 -0.34375 1.765625 -0.25 1.078125 -0.25 L 0.8125 -0.25 L 0.8125 0 L 2.046875 -0.03125 Z M 3.296875 0 "/>
</symbol>
</g>
<clipPath id="i3-clip1">
  <path d="M 81 72 L 85 72 L 85 81.964844 L 81 81.964844 Z M 81 72 "/>
</clipPath>
<clipPath id="i3-clip2">
  <path d="M 93 72 L 96 72 L 96 81.964844 L 93 81.964844 Z M 93 72 "/>
</clipPath>
</defs>
<g id="i3-surface16">
<g style="fill:rgb(0%,0%,0%);fill-opacity:1;">
  <use xlink:href="#i3-glyph0-1" x="72" y="79.472"/>
</g>
<g> <!-- clip-path="url(#clip1)" clip-rule="nonzero" -->
<g style="fill:rgb(0%,0%,0%);fill-opacity:1;">
  <use xlink:href="#i3-glyph1-1" x="80.747" y="79.472"/>
</g>
</g>
<g style="fill:rgb(0%,0%,0%);fill-opacity:1;">
  <use xlink:href="#i3-glyph0-2" x="84.622" y="79.472"/>
</g>
<g style="fill:rgb(0%,0%,0%);fill-opacity:1;">
  <use xlink:href="#i3-glyph2-1" x="88.219" y="80.967"/>
</g>
<g> <!-- clip-path="url(#clip2)" clip-rule="nonzero" -->
<g style="fill:rgb(0%,0%,0%);fill-opacity:1;">
  <use xlink:href="#i3-glyph1-2" x="92.689" y="79.472"/>
</g>
</g>
</g>
</g>
 </defs>
</svg>
