<?xml version="1.0" standalone="yes"?>
<!DOCTYPE svg PUBLIC "-//W3C//DTD SVG 1.1//EN"
  "http://www.w3.org/Graphics/SVG/1.1/DTD/svg11.dtd">
<svg version="1.1" xmlns="http://www.w3.org/2000/svg" xmlns:xlink="http://www.w3.org/1999/xlink" width="90.557mm" height="54.9947mm" viewBox="-128.348 -142.036 256.697 155.89" fill="none" stroke="#b3b3b3" stroke-width="0.3" stroke-miterlimit="10" stroke-dasharray="2 1">
 <g transform="scale(1.0, -1.0)">
  
  <defs>
   <clipPath id="l12">
    <path d="M0.00 0.00H226.77V140.15H0.00z" />
   </clipPath>
  </defs><g transform="matrix(1 0 0 1 -113.386 0)" clip-path="url(#l12)">
   <path d="M0.00 21.56H6.87" />
   <path transform="matrix(1 0 0 1 0 21.5619)" d="M1.00 0.00C1.00 0.55 0.55 1.00 0.00 1.00C-0.55 1.00 -1.00 0.55 -1.00 0.00C-1.00 -0.55 -0.55 -1.00 0.00 -1.00C0.55 -1.00 1.00 -0.55 1.00 0.00z" fill="#b3b3b3" stroke="#000000" stroke-dasharray="none" />
   <path d="M6.87 32.34H13.74" />
   <path transform="matrix(1 0 0 1 6.87187 32.3429)" d="M1.00 0.00C1.00 0.55 0.55 1.00 0.00 1.00C-0.55 1.00 -1.00 0.55 -1.00 0.00C-1.00 -0.55 -0.55 -1.00 0.00 -1.00C0.55 -1.00 1.00 -0.55 1.00 0.00z" fill="#b3b3b3" stroke="#000000" stroke-dasharray="none" />
   <path d="M13.74 43.12H20.62" />
   <path transform="matrix(1 0 0 1 13.7437 43.1239)" d="M1.00 0.00C1.00 0.55 0.55 1.00 0.00 1.00C-0.55 1.00 -1.00 0.55 -1.00 0.00C-1.00 -0.55 -0.55 -1.00 0.00 -1.00C0.55 -1.00 1.00 -0.55 1.00 0.00z" fill="#b3b3b3" stroke="#000000" stroke-dasharray="none" />
   <path d="M20.62 37.73H27.49" />
   <path transform="matrix(1 0 0 1 20.6156 37.7334)" d="M1.00 0.00C1.00 0.55 0.55 1.00 0.00 1.00C-0.55 1.00 -1.00 0.55 -1.00 0.00C-1.00 -0.55 -0.55 -1.00 0.00 -1.00C0.55 -1.00 1.00 -0.55 1.00 0.00z" fill="#b3b3b3" stroke="#000000" stroke-dasharray="none" />
   <path d="M27.49 32.34H34.36" />
   <path transform="matrix(1 0 0 1 27.4875 32.3429)" d="M1.00 0.00C1.00 0.55 0.55 1.00 0.00 1.00C-0.55 1.00 -1.00 0.55 -1.00 0.00C-1.00 -0.55 -0.55 -1.00 0.00 -1.00C0.55 -1.00 1.00 -0.55 1.00 0.00z" fill="#b3b3b3" stroke="#000000" stroke-dasharray="none" />
   <path d="M34.36 26.95H41.23" />
   <path transform="matrix(1 0 0 1 34.3593 26.9524)" d="M1.00 0.00C1.00 0.55 0.55 1.00 0.00 1.00C-0.55 1.00 -1.00 0.55 -1.00 0.00C-1.00 -0.55 -0.55 -1.00 0.00 -1.00C0.55 -1.00 1.00 -0.55 1.00 0.00z" fill="#b3b3b3" stroke="#000000" stroke-dasharray="none" />
   <path d="M41.23 21.56H48.10" />
   <path transform="matrix(1 0 0 1 41.2312 21.5619)" d="M1.00 0.00C1.00 0.55 0.55 1.00 0.00 1.00C-0.55 1.00 -1.00 0.55 -1.00 0.00C-1.00 -0.55 -0.55 -1.00 0.00 -1.00C0.55 -1.00 1.00 -0.55 1.00 0.00z" fill="#b3b3b3" stroke="#000000" stroke-dasharray="none" />
   <path d="M48.10 16.17H54.97" />
   <path transform="matrix(1 0 0 1 48.1031 16.1715)" d="M1.00 0.00C1.00 0.55 0.55 1.00 0.00 1.00C-0.55 1.00 -1.00 0.55 -1.00 0.00C-1.00 -0.55 -0.55 -1.00 0.00 -1.00C0.55 -1.00 1.00 -0.55 1.00 0.00z" fill="#b3b3b3" stroke="#000000" stroke-dasharray="none" />
   <path d="M54.97 10.78H61.85" />
   <path transform="matrix(1 0 0 1 54.9749 10.781)" d="M1.00 0.00C1.00 0.55 0.55 1.00 0.00 1.00C-0.55 1.00 -1.00 0.55 -1.00 0.00C-1.00 -0.55 -0.55 -1.00 0.00 -1.00C0.55 -1.00 1.00 -0.55 1.00 0.00z" fill="#b3b3b3" stroke="#000000" stroke-dasharray="none" />
   <path d="M61.85 10.78H68.72" />
   <path transform="matrix(1 0 0 1 61.8468 10.781)" d="M1.00 0.00C1.00 0.55 0.55 1.00 0.00 1.00C-0.55 1.00 -1.00 0.55 -1.00 0.00C-1.00 -0.55 -0.55 -1.00 0.00 -1.00C0.55 -1.00 1.00 -0.55 1.00 0.00z" fill="#b3b3b3" stroke="#000000" stroke-dasharray="none" />
   <path d="M68.72 21.56H75.59" />
   <path transform="matrix(1 0 0 1 68.7187 21.5619)" d="M1.00 0.00C1.00 0.55 0.55 1.00 0.00 1.00C-0.55 1.00 -1.00 0.55 -1.00 0.00C-1.00 -0.55 -0.55 -1.00 0.00 -1.00C0.55 -1.00 1.00 -0.55 1.00 0.00z" fill="#b3b3b3" stroke="#000000" stroke-dasharray="none" />
   <path d="M75.59 32.34H82.46" />
   <path transform="matrix(1 0 0 1 75.5906 32.3429)" d="M1.00 0.00C1.00 0.55 0.55 1.00 0.00 1.00C-0.55 1.00 -1.00 0.55 -1.00 0.00C-1.00 -0.55 -0.55 -1.00 0.00 -1.00C0.55 -1.00 1.00 -0.55 1.00 0.00z" fill="#b3b3b3" stroke="#000000" stroke-dasharray="none" />
   <path d="M82.46 43.12H89.33" />
   <path transform="matrix(1 0 0 1 82.4624 43.1239)" d="M1.00 0.00C1.00 0.55 0.55 1.00 0.00 1.00C-0.55 1.00 -1.00 0.55 -1.00 0.00C-1.00 -0.55 -0.55 -1.00 0.00 -1.00C0.55 -1.00 1.00 -0.55 1.00 0.00z" fill="#b3b3b3" stroke="#000000" stroke-dasharray="none" />
   <path d="M89.33 37.73H96.21" />
   <path transform="matrix(1 0 0 1 89.3343 37.7334)" d="M1.00 0.00C1.00 0.55 0.55 1.00 0.00 1.00C-0.55 1.00 -1.00 0.55 -1.00 0.00C-1.00 -0.55 -0.55 -1.00 0.00 -1.00C0.55 -1.00 1.00 -0.55 1.00 0.00z" fill="#b3b3b3" stroke="#000000" stroke-dasharray="none" />
   <path d="M96.21 32.34H103.08" />
   <path transform="matrix(1 0 0 1 96.2062 32.3429)" d="M1.00 0.00C1.00 0.55 0.55 1.00 0.00 1.00C-0.55 1.00 -1.00 0.55 -1.00 0.00C-1.00 -0.55 -0.55 -1.00 0.00 -1.00C0.55 -1.00 1.00 -0.55 1.00 0.00z" fill="#b3b3b3" stroke="#000000" stroke-dasharray="none" />
   <path d="M103.08 26.95H109.95" />
   <path transform="matrix(1 0 0 1 103.078 26.9524)" d="M1.00 0.00C1.00 0.55 0.55 1.00 0.00 1.00C-0.55 1.00 -1.00 0.55 -1.00 0.00C-1.00 -0.55 -0.55 -1.00 0.00 -1.00C0.55 -1.00 1.00 -0.55 1.00 0.00z" fill="#b3b3b3" stroke="#000000" stroke-dasharray="none" />
   <path d="M109.95 21.56H116.82" />
   <path transform="matrix(1 0 0 1 109.95 21.5619)" d="M1.00 0.00C1.00 0.55 0.55 1.00 0.00 1.00C-0.55 1.00 -1.00 0.55 -1.00 0.00C-1.00 -0.55 -0.55 -1.00 0.00 -1.00C0.55 -1.00 1.00 -0.55 1.00 0.00z" fill="#b3b3b3" stroke="#000000" stroke-dasharray="none" />
   <path d="M116.82 16.17H123.69" />
   <path transform="matrix(1 0 0 1 116.822 16.1715)" d="M1.00 0.00C1.00 0.55 0.55 1.00 0.00 1.00C-0.55 1.00 -1.00 0.55 -1.00 0.00C-1.00 -0.55 -0.55 -1.00 0.00 -1.00C0.55 -1.00 1.00 -0.55 1.00 0.00z" fill="#b3b3b3" stroke="#000000" stroke-dasharray="none" />
   <path d="M123.69 10.78H130.57" />
   <path transform="matrix(1 0 0 1 123.694 10.781)" d="M1.00 0.00C1.00 0.55 0.55 1.00 0.00 1.00C-0.55 1.00 -1.00 0.55 -1.00 0.00C-1.00 -0.55 -0.55 -1.00 0.00 -1.00C0.55 -1.00 1.00 -0.55 1.00 0.00z" fill="#b3b3b3" stroke="#000000" stroke-dasharray="none" />
   <path d="M130.57 10.78H137.44" />
   <path transform="matrix(1 0 0 1 130.565 10.781)" d="M1.00 0.00C1.00 0.55 0.55 1.00 0.00 1.00C-0.55 1.00 -1.00 0.55 -1.00 0.00C-1.00 -0.55 -0.55 -1.00 0.00 -1.00C0.55 -1.00 1.00 -0.55 1.00 0.00z" fill="#b3b3b3" stroke="#000000" stroke-dasharray="none" />
   <path d="M137.44 10.78H144.31" />
   <path transform="matrix(1 0 0 1 137.437 10.781)" d="M1.00 0.00C1.00 0.55 0.55 1.00 0.00 1.00C-0.55 1.00 -1.00 0.55 -1.00 0.00C-1.00 -0.55 -0.55 -1.00 0.00 -1.00C0.55 -1.00 1.00 -0.55 1.00 0.00z" fill="#b3b3b3" stroke="#000000" stroke-dasharray="none" />
   <path d="M144.31 10.78H151.18" />
   <path transform="matrix(1 0 0 1 144.309 10.781)" d="M1.00 0.00C1.00 0.55 0.55 1.00 0.00 1.00C-0.55 1.00 -1.00 0.55 -1.00 0.00C-1.00 -0.55 -0.55 -1.00 0.00 -1.00C0.55 -1.00 1.00 -0.55 1.00 0.00z" fill="#b3b3b3" stroke="#000000" stroke-dasharray="none" />
   <path d="M151.18 37.73H158.05" />
   <path transform="matrix(1 0 0 1 151.181 37.7334)" d="M1.00 0.00C1.00 0.55 0.55 1.00 0.00 1.00C-0.55 1.00 -1.00 0.55 -1.00 0.00C-1.00 -0.55 -0.55 -1.00 0.00 -1.00C0.55 -1.00 1.00 -0.55 1.00 0.00z" fill="#b3b3b3" stroke="#000000" stroke-dasharray="none" />
   <path d="M158.05 64.69H164.92" />
   <path transform="matrix(1 0 0 1 158.053 64.6858)" d="M1.00 0.00C1.00 0.55 0.55 1.00 0.00 1.00C-0.55 1.00 -1.00 0.55 -1.00 0.00C-1.00 -0.55 -0.55 -1.00 0.00 -1.00C0.55 -1.00 1.00 -0.55 1.00 0.00z" fill="#b3b3b3" stroke="#000000" stroke-dasharray="none" />
   <path d="M164.92 91.64H171.80" />
   <path transform="matrix(1 0 0 1 164.925 91.6382)" d="M1.00 0.00C1.00 0.55 0.55 1.00 0.00 1.00C-0.55 1.00 -1.00 0.55 -1.00 0.00C-1.00 -0.55 -0.55 -1.00 0.00 -1.00C0.55 -1.00 1.00 -0.55 1.00 0.00z" fill="#b3b3b3" stroke="#000000" stroke-dasharray="none" />
   <path d="M171.80 118.59H178.67" />
   <path transform="matrix(1 0 0 1 171.797 118.591)" d="M1.00 0.00C1.00 0.55 0.55 1.00 0.00 1.00C-0.55 1.00 -1.00 0.55 -1.00 0.00C-1.00 -0.55 -0.55 -1.00 0.00 -1.00C0.55 -1.00 1.00 -0.55 1.00 0.00z" fill="#b3b3b3" stroke="#000000" stroke-dasharray="none" />
   <path d="M178.67 129.37H185.54" />
   <path transform="matrix(1 0 0 1 178.669 129.372)" d="M1.00 0.00C1.00 0.55 0.55 1.00 0.00 1.00C-0.55 1.00 -1.00 0.55 -1.00 0.00C-1.00 -0.55 -0.55 -1.00 0.00 -1.00C0.55 -1.00 1.00 -0.55 1.00 0.00z" fill="#b3b3b3" stroke="#000000" stroke-dasharray="none" />
   <path d="M185.54 123.98H192.41" />
   <path transform="matrix(1 0 0 1 185.54 123.981)" d="M1.00 0.00C1.00 0.55 0.55 1.00 0.00 1.00C-0.55 1.00 -1.00 0.55 -1.00 0.00C-1.00 -0.55 -0.55 -1.00 0.00 -1.00C0.55 -1.00 1.00 -0.55 1.00 0.00z" fill="#b3b3b3" stroke="#000000" stroke-dasharray="none" />
   <path d="M192.41 118.59H199.28" />
   <path transform="matrix(1 0 0 1 192.412 118.591)" d="M1.00 0.00C1.00 0.55 0.55 1.00 0.00 1.00C-0.55 1.00 -1.00 0.55 -1.00 0.00C-1.00 -0.55 -0.55 -1.00 0.00 -1.00C0.55 -1.00 1.00 -0.55 1.00 0.00z" fill="#b3b3b3" stroke="#000000" stroke-dasharray="none" />
   <path d="M199.28 113.20H206.16" />
   <path transform="matrix(1 0 0 1 199.284 113.2)" d="M1.00 0.00C1.00 0.55 0.55 1.00 0.00 1.00C-0.55 1.00 -1.00 0.55 -1.00 0.00C-1.00 -0.55 -0.55 -1.00 0.00 -1.00C0.55 -1.00 1.00 -0.55 1.00 0.00z" fill="#b3b3b3" stroke="#000000" stroke-dasharray="none" />
   <path d="M206.16 107.81H206.16" />
   <path transform="matrix(1 0 0 1 206.156 107.81)" d="M1.00 0.00C1.00 0.55 0.55 1.00 0.00 1.00C-0.55 1.00 -1.00 0.55 -1.00 0.00C-1.00 -0.55 -0.55 -1.00 0.00 -1.00C0.55 -1.00 1.00 -0.55 1.00 0.00z" fill="#b3b3b3" stroke="#000000" stroke-dasharray="none" />
  </g>
  <use transform="matrix(1 0 0 1 -113.386 0)" xlink:href="#g11" />
  <g stroke="#000000" stroke-width="0.15" stroke-dasharray="none">
   <path transform="matrix(1 0 0 1 -113.386 0)" d="M0.00 0.00V-3.00" />
   <use transform="matrix(1 0 0 1 -115.876 -12.3524)" xlink:href="#g2" />
   <path transform="matrix(1 0 0 1 -113.386 0)" d="M34.36 0.00V-3.00" />
   <use transform="matrix(1 0 0 1 -81.5171 -12.3524)" xlink:href="#g8" />
   <path transform="matrix(1 0 0 1 -113.386 0)" d="M68.72 0.00V-3.00" />
   <use transform="matrix(1 0 0 1 -49.6485 -12.3524)" xlink:href="#g3" />
   <path transform="matrix(1 0 0 1 -113.386 0)" d="M103.08 0.00V-3.00" />
   <use transform="matrix(1 0 0 1 -15.2891 -12.3524)" xlink:href="#g4" />
   <path transform="matrix(1 0 0 1 -113.386 0)" d="M137.44 0.00V-3.00" />
   <use transform="matrix(1 0 0 1 19.0702 -12.3524)" xlink:href="#g5" />
   <path transform="matrix(1 0 0 1 -113.386 0)" d="M171.80 0.00V-3.00" />
   <use transform="matrix(1 0 0 1 53.4296 -12.3524)" xlink:href="#g6" />
   <path transform="matrix(1 0 0 1 -113.386 0)" d="M206.16 0.00V-3.00" />
   <use transform="matrix(1 0 0 1 87.7889 -12.3524)" xlink:href="#g7" />
  </g>
  <g stroke="#000000" stroke-width="0.15" stroke-dasharray="none">
   <path transform="matrix(1 0 0 1 -113.386 0)" d="M0.00 10.78H-3.00" />
   <use transform="matrix(1 0 0 1 -123.367 7.64411)" xlink:href="#g2" />
   <path transform="matrix(1 0 0 1 -113.386 0)" d="M0.00 37.73H-3.00" />
   <use transform="matrix(1 0 0 1 -123.367 34.5965)" xlink:href="#g8" />
   <path transform="matrix(1 0 0 1 -113.386 0)" d="M0.00 64.69H-3.00" />
   <use transform="matrix(1 0 0 1 -128.348 61.549)" xlink:href="#g3" />
   <path transform="matrix(1 0 0 1 -113.386 0)" d="M0.00 91.64H-3.00" />
   <use transform="matrix(1 0 0 1 -128.348 88.5014)" xlink:href="#g4" />
   <path transform="matrix(1 0 0 1 -113.386 0)" d="M0.00 118.59H-3.00" />
   <use transform="matrix(1 0 0 1 -128.348 115.454)" xlink:href="#g5" />
  </g>
  <use transform="matrix(1 0 0 1 102.925 -11.6044)" xlink:href="#g9" />
  <use transform="matrix(1 0 0 1 -121.451 136.476)" xlink:href="#g10" />
 </g>
 <defs>
  <g id="g11" fill="none" fill-rule="nonzero" fill-opacity="1" stroke="#000000" stroke-width="0.3" stroke-linecap="butt" stroke-linejoin="miter" stroke-miterlimit="10" stroke-dasharray="none" stroke-opacity="1">
   <path d="M0.00 138.07C0.00 120.65 0.00 0.00 0.00 0.00C0.00 0.00 201.89 0.00 224.69 0.00" />
   <path d="M0.00 140.15C0.00 140.15 0.54 138.67 1.50 136.03L0.00 136.43L-1.50 136.03C-0.54 138.67 0.00 140.15 0.00 140.15z" fill="#000000" stroke="none" />
   <path d="M226.77 0.00C226.77 0.00 225.32 -0.53 222.65 -1.50L223.05 0.00L222.65 1.50C225.32 0.53 226.77 0.00 226.77 0.00z" fill="#000000" stroke="none" />
  </g>
  <g id="g2" transform="translate(-72, 78.274)scale(1.0, -1.0)">
<defs>
<g>
<symbol overflow="visible" id="i2-glyph0-0">
<path style="stroke:none;" d=""/>
</symbol>
<symbol overflow="visible" id="i2-glyph0-1">
<path style="stroke:none;" d="M 4.578125 -3.1875 C 4.578125 -3.984375 4.53125 -4.78125 4.1875 -5.515625 C 3.734375 -6.484375 2.90625 -6.640625 2.5 -6.640625 C 1.890625 -6.640625 1.171875 -6.375 0.75 -5.453125 C 0.4375 -4.765625 0.390625 -3.984375 0.390625 -3.1875 C 0.390625 -2.4375 0.421875 -1.546875 0.84375 -0.78125 C 1.265625 0.015625 2 0.21875 2.484375 0.21875 C 3.015625 0.21875 3.78125 0.015625 4.21875 -0.9375 C 4.53125 -1.625 4.578125 -2.40625 4.578125 -3.1875 Z M 3.765625 -3.3125 C 3.765625 -2.5625 3.765625 -1.890625 3.65625 -1.25 C 3.5 -0.296875 2.9375 0 2.484375 0 C 2.09375 0 1.5 -0.25 1.328125 -1.203125 C 1.21875 -1.796875 1.21875 -2.71875 1.21875 -3.3125 C 1.21875 -3.953125 1.21875 -4.609375 1.296875 -5.140625 C 1.484375 -6.328125 2.234375 -6.421875 2.484375 -6.421875 C 2.8125 -6.421875 3.46875 -6.234375 3.65625 -5.25 C 3.765625 -4.6875 3.765625 -3.9375 3.765625 -3.3125 Z M 3.765625 -3.3125 "/>
</symbol>
</g>
<clipPath id="i2-clip1">
  <path d="M 72 72 L 76.980469 72 L 76.980469 78.273438 L 72 78.273438 Z M 72 72 "/>
</clipPath>
</defs>
<g id="i2-surface11">
<g> <!-- clip-path="url(#clip1)" clip-rule="nonzero" -->
<g style="fill:rgb(0%,0%,0%);fill-opacity:1;">
  <use xlink:href="#i2-glyph0-1" x="72" y="78.274"/>
</g>
</g>
</g>
</g>
  <g id="g8" transform="translate(-72, 78.274)scale(1.0, -1.0)">
<defs>
<g>
<symbol overflow="visible" id="i8-glyph0-0">
<path style="stroke:none;" d=""/>
</symbol>
<symbol overflow="visible" id="i8-glyph0-1">
<path style="stroke:none;" d="M 4.46875 -2 C 4.46875 -3.1875 3.65625 -4.1875 2.578125 -4.1875 C 2.109375 -4.1875 1.671875 -4.03125 1.3125 -3.671875 L 1.3125 -5.625 C 1.515625 -5.5625 1.84375 -5.5 2.15625 -5.5 C 3.390625 -5.5 4.09375 -6.40625 4.09375 -6.53125 C 4.09375 -6.59375 4.0625 -6.640625 3.984375 -6.640625 C 3.984375 -6.640625 3.953125 -6.640625 3.90625 -6.609375 C 3.703125 -6.515625 3.21875 -6.3125 2.546875 -6.3125 C 2.15625 -6.3125 1.6875 -6.390625 1.21875 -6.59375 C 1.140625 -6.625 1.109375 -6.625 1.109375 -6.625 C 1 -6.625 1 -6.546875 1 -6.390625 L 1 -3.4375 C 1 -3.265625 1 -3.1875 1.140625 -3.1875 C 1.21875 -3.1875 1.234375 -3.203125 1.28125 -3.265625 C 1.390625 -3.421875 1.75 -3.96875 2.5625 -3.96875 C 3.078125 -3.96875 3.328125 -3.515625 3.40625 -3.328125 C 3.5625 -2.953125 3.59375 -2.578125 3.59375 -2.078125 C 3.59375 -1.71875 3.59375 -1.125 3.34375 -0.703125 C 3.109375 -0.3125 2.734375 -0.0625 2.28125 -0.0625 C 1.5625 -0.0625 0.984375 -0.59375 0.8125 -1.171875 C 0.84375 -1.171875 0.875 -1.15625 0.984375 -1.15625 C 1.3125 -1.15625 1.484375 -1.40625 1.484375 -1.640625 C 1.484375 -1.890625 1.3125 -2.140625 0.984375 -2.140625 C 0.84375 -2.140625 0.5 -2.0625 0.5 -1.609375 C 0.5 -0.75 1.1875 0.21875 2.296875 0.21875 C 3.453125 0.21875 4.46875 -0.734375 4.46875 -2 Z M 4.46875 -2 "/>
</symbol>
</g>
<clipPath id="i8-clip1">
  <path d="M 72 72 L 76.980469 72 L 76.980469 78.273438 L 72 78.273438 Z M 72 72 "/>
</clipPath>
</defs>
<g id="i8-surface41">
<g> <!-- clip-path="url(#clip1)" clip-rule="nonzero" -->
<g style="fill:rgb(0%,0%,0%);fill-opacity:1;">
  <use xlink:href="#i8-glyph0-1" x="72" y="78.274"/>
</g>
</g>
</g>
</g>
  <g id="g3" transform="translate(-72, 78.274)scale(1.0, -1.0)">
<defs>
<g>
<symbol overflow="visible" id="i3-glyph0-0">
<path style="stroke:none;" d=""/>
</symbol>
<symbol overflow="visible" id="i3-glyph0-1">
<path style="stroke:none;" d="M 4.171875 0 L 4.171875 -0.3125 L 3.859375 -0.3125 C 2.953125 -0.3125 2.9375 -0.421875 2.9375 -0.78125 L 2.9375 -6.375 C 2.9375 -6.625 2.9375 -6.640625 2.703125 -6.640625 C 2.078125 -6 1.203125 -6 0.890625 -6 L 0.890625 -5.6875 C 1.09375 -5.6875 1.671875 -5.6875 2.1875 -5.953125 L 2.1875 -0.78125 C 2.1875 -0.421875 2.15625 -0.3125 1.265625 -0.3125 L 0.953125 -0.3125 L 0.953125 0 C 1.296875 -0.03125 2.15625 -0.03125 2.5625 -0.03125 C 2.953125 -0.03125 3.828125 -0.03125 4.171875 0 Z M 4.171875 0 "/>
</symbol>
<symbol overflow="visible" id="i3-glyph0-2">
<path style="stroke:none;" d="M 4.578125 -3.1875 C 4.578125 -3.984375 4.53125 -4.78125 4.1875 -5.515625 C 3.734375 -6.484375 2.90625 -6.640625 2.5 -6.640625 C 1.890625 -6.640625 1.171875 -6.375 0.75 -5.453125 C 0.4375 -4.765625 0.390625 -3.984375 0.390625 -3.1875 C 0.390625 -2.4375 0.421875 -1.546875 0.84375 -0.78125 C 1.265625 0.015625 2 0.21875 2.484375 0.21875 C 3.015625 0.21875 3.78125 0.015625 4.21875 -0.9375 C 4.53125 -1.625 4.578125 -2.40625 4.578125 -3.1875 Z M 3.765625 -3.3125 C 3.765625 -2.5625 3.765625 -1.890625 3.65625 -1.25 C 3.5 -0.296875 2.9375 0 2.484375 0 C 2.09375 0 1.5 -0.25 1.328125 -1.203125 C 1.21875 -1.796875 1.21875 -2.71875 1.21875 -3.3125 C 1.21875 -3.953125 1.21875 -4.609375 1.296875 -5.140625 C 1.484375 -6.328125 2.234375 -6.421875 2.484375 -6.421875 C 2.8125 -6.421875 3.46875 -6.234375 3.65625 -5.25 C 3.765625 -4.6875 3.765625 -3.9375 3.765625 -3.3125 Z M 3.765625 -3.3125 "/>
</symbol>
</g>
<clipPath id="i3-clip1">
  <path d="M 72 72 L 81.964844 72 L 81.964844 78.273438 L 72 78.273438 Z M 72 72 "/>
</clipPath>
</defs>
<g id="i3-surface16">
<g> <!-- clip-path="url(#clip1)" clip-rule="nonzero" -->
<g style="fill:rgb(0%,0%,0%);fill-opacity:1;">
  <use xlink:href="#i3-glyph0-1" x="72" y="78.274"/>
  <use xlink:href="#i3-glyph0-2" x="76.9813" y="78.274"/>
</g>
</g>
</g>
</g>
  <g id="g4" transform="translate(-72, 78.274)scale(1.0, -1.0)">
<defs>
<g>
<symbol overflow="visible" id="i4-glyph0-0">
<path style="stroke:none;" d=""/>
</symbol>
<symbol overflow="visible" id="i4-glyph0-1">
<path style="stroke:none;" d="M 4.171875 0 L 4.171875 -0.3125 L 3.859375 -0.3125 C 2.953125 -0.3125 2.9375 -0.421875 2.9375 -0.78125 L 2.9375 -6.375 C 2.9375 -6.625 2.9375 -6.640625 2.703125 -6.640625 C 2.078125 -6 1.203125 -6 0.890625 -6 L 0.890625 -5.6875 C 1.09375 -5.6875 1.671875 -5.6875 2.1875 -5.953125 L 2.1875 -0.78125 C 2.1875 -0.421875 2.15625 -0.3125 1.265625 -0.3125 L 0.953125 -0.3125 L 0.953125 0 C 1.296875 -0.03125 2.15625 -0.03125 2.5625 -0.03125 C 2.953125 -0.03125 3.828125 -0.03125 4.171875 0 Z M 4.171875 0 "/>
</symbol>
<symbol overflow="visible" id="i4-glyph0-2">
<path style="stroke:none;" d="M 4.46875 -2 C 4.46875 -3.1875 3.65625 -4.1875 2.578125 -4.1875 C 2.109375 -4.1875 1.671875 -4.03125 1.3125 -3.671875 L 1.3125 -5.625 C 1.515625 -5.5625 1.84375 -5.5 2.15625 -5.5 C 3.390625 -5.5 4.09375 -6.40625 4.09375 -6.53125 C 4.09375 -6.59375 4.0625 -6.640625 3.984375 -6.640625 C 3.984375 -6.640625 3.953125 -6.640625 3.90625 -6.609375 C 3.703125 -6.515625 3.21875 -6.3125 2.546875 -6.3125 C 2.15625 -6.3125 1.6875 -6.390625 1.21875 -6.59375 C 1.140625 -6.625 1.109375 -6.625 1.109375 -6.625 C 1 -6.625 1 -6.546875 1 -6.390625 L 1 -3.4375 C 1 -3.265625 1 -3.1875 1.140625 -3.1875 C 1.21875 -3.1875 1.234375 -3.203125 1.28125 -3.265625 C 1.390625 -3.421875 1.75 -3.96875 2.5625 -3.96875 C 3.078125 -3.96875 3.328125 -3.515625 3.40625 -3.328125 C 3.5625 -2.953125 3.59375 -2.578125 3.59375 -2.078125 C 3.59375 -1.71875 3.59375 -1.125 3.34375 -0.703125 C 3.109375 -0.3125 2.734375 -0.0625 2.28125 -0.0625 C 1.5625 -0.0625 0.984375 -0.59375 0.8125 -1.171875 C 0.84375 -1.171875 0.875 -1.15625 0.984375 -1.15625 C 1.3125 -1.15625 1.484375 -1.40625 1.484375 -1.640625 C 1.484375 -1.890625 1.3125 -2.140625 0.984375 -2.140625 C 0.84375 -2.140625 0.5 -2.0625 0.5 -1.609375 C 0.5 -0.75 1.1875 0.21875 2.296875 0.21875 C 3.453125 0.21875 4.46875 -0.734375 4.46875 -2 Z M 4.46875 -2 "/>
</symbol>
</g>
<clipPath id="i4-clip1">
  <path d="M 72 72 L 81.964844 72 L 81.964844 78.273438 L 72 78.273438 Z M 72 72 "/>
</clipPath>
</defs>
<g id="i4-surface21">
<g> <!-- clip-path="url(#clip1)" clip-rule="nonzero" -->
<g style="fill:rgb(0%,0%,0%);fill-opacity:1;">
  <use xlink:href="#i4-glyph0-1" x="72" y="78.274"/>
  <use xlink:href="#i4-glyph0-2" x="76.9813" y="78.274"/>
</g>
</g>
</g>
</g>
  <g id="g5" transform="translate(-72, 78.274)scale(1.0, -1.0)">
<defs>
<g>
<symbol overflow="visible" id="i5-glyph0-0">
<path style="stroke:none;" d=""/>
</symbol>
<symbol overflow="visible" id="i5-glyph0-1">
<path style="stroke:none;" d="M 4.46875 -1.734375 L 4.234375 -1.734375 C 4.171875 -1.4375 4.109375 -1 4 -0.84375 C 3.9375 -0.765625 3.28125 -0.765625 3.0625 -0.765625 L 1.265625 -0.765625 L 2.328125 -1.796875 C 3.875 -3.171875 4.46875 -3.703125 4.46875 -4.703125 C 4.46875 -5.84375 3.578125 -6.640625 2.359375 -6.640625 C 1.234375 -6.640625 0.5 -5.71875 0.5 -4.828125 C 0.5 -4.28125 1 -4.28125 1.03125 -4.28125 C 1.203125 -4.28125 1.546875 -4.390625 1.546875 -4.8125 C 1.546875 -5.0625 1.359375 -5.328125 1.015625 -5.328125 C 0.9375 -5.328125 0.921875 -5.328125 0.890625 -5.3125 C 1.109375 -5.96875 1.65625 -6.328125 2.234375 -6.328125 C 3.140625 -6.328125 3.5625 -5.515625 3.5625 -4.703125 C 3.5625 -3.90625 3.078125 -3.125 2.515625 -2.5 L 0.609375 -0.375 C 0.5 -0.265625 0.5 -0.234375 0.5 0 L 4.203125 0 Z M 4.46875 -1.734375 "/>
</symbol>
<symbol overflow="visible" id="i5-glyph0-2">
<path style="stroke:none;" d="M 4.578125 -3.1875 C 4.578125 -3.984375 4.53125 -4.78125 4.1875 -5.515625 C 3.734375 -6.484375 2.90625 -6.640625 2.5 -6.640625 C 1.890625 -6.640625 1.171875 -6.375 0.75 -5.453125 C 0.4375 -4.765625 0.390625 -3.984375 0.390625 -3.1875 C 0.390625 -2.4375 0.421875 -1.546875 0.84375 -0.78125 C 1.265625 0.015625 2 0.21875 2.484375 0.21875 C 3.015625 0.21875 3.78125 0.015625 4.21875 -0.9375 C 4.53125 -1.625 4.578125 -2.40625 4.578125 -3.1875 Z M 3.765625 -3.3125 C 3.765625 -2.5625 3.765625 -1.890625 3.65625 -1.25 C 3.5 -0.296875 2.9375 0 2.484375 0 C 2.09375 0 1.5 -0.25 1.328125 -1.203125 C 1.21875 -1.796875 1.21875 -2.71875 1.21875 -3.3125 C 1.21875 -3.953125 1.21875 -4.609375 1.296875 -5.140625 C 1.484375 -6.328125 2.234375 -6.421875 2.484375 -6.421875 C 2.8125 -6.421875 3.46875 -6.234375 3.65625 -5.25 C 3.765625 -4.6875 3.765625 -3.9375 3.765625 -3.3125 Z M 3.765625 -3.3125 "/>
</symbol>
</g>
<clipPath id="i5-clip1">
  <path d="M 72 72 L 81.964844 72 L 81.964844 78.273438 L 72 78.273438 Z M 72 72 "/>
</clipPath>
</defs>
<g id="i5-surface26">
<g> <!-- clip-path="url(#clip1)" clip-rule="nonzero" -->
<g style="fill:rgb(0%,0%,0%);fill-opacity:1;">
  <use xlink:href="#i5-glyph0-1" x="72" y="78.274"/>
  <use xlink:href="#i5-glyph0-2" x="76.9813" y="78.274"/>
</g>
</g>
</g>
</g>
  <g id="g6" transform="translate(-72, 78.274)scale(1.0, -1.0)">
<defs>
<g>
<symbol overflow="visible" id="i6-glyph0-0">
<path style="stroke:none;" d=""/>
</symbol>
<symbol overflow="visible" id="i6-glyph0-1">
<path style="stroke:none;" d="M 4.46875 -1.734375 L 4.234375 -1.734375 C 4.171875 -1.4375 4.109375 -1 4 -0.84375 C 3.9375 -0.765625 3.28125 -0.765625 3.0625 -0.765625 L 1.265625 -0.765625 L 2.328125 -1.796875 C 3.875 -3.171875 4.46875 -3.703125 4.46875 -4.703125 C 4.46875 -5.84375 3.578125 -6.640625 2.359375 -6.640625 C 1.234375 -6.640625 0.5 -5.71875 0.5 -4.828125 C 0.5 -4.28125 1 -4.28125 1.03125 -4.28125 C 1.203125 -4.28125 1.546875 -4.390625 1.546875 -4.8125 C 1.546875 -5.0625 1.359375 -5.328125 1.015625 -5.328125 C 0.9375 -5.328125 0.921875 -5.328125 0.890625 -5.3125 C 1.109375 -5.96875 1.65625 -6.328125 2.234375 -6.328125 C 3.140625 -6.328125 3.5625 -5.515625 3.5625 -4.703125 C 3.5625 -3.90625 3.078125 -3.125 2.515625 -2.5 L 0.609375 -0.375 C 0.5 -0.265625 0.5 -0.234375 0.5 0 L 4.203125 0 Z M 4.46875 -1.734375 "/>
</symbol>
<symbol overflow="visible" id="i6-glyph0-2">
<path style="stroke:none;" d="M 4.46875 -2 C 4.46875 -3.1875 3.65625 -4.1875 2.578125 -4.1875 C 2.109375 -4.1875 1.671875 -4.03125 1.3125 -3.671875 L 1.3125 -5.625 C 1.515625 -5.5625 1.84375 -5.5 2.15625 -5.5 C 3.390625 -5.5 4.09375 -6.40625 4.09375 -6.53125 C 4.09375 -6.59375 4.0625 -6.640625 3.984375 -6.640625 C 3.984375 -6.640625 3.953125 -6.640625 3.90625 -6.609375 C 3.703125 -6.515625 3.21875 -6.3125 2.546875 -6.3125 C 2.15625 -6.3125 1.6875 -6.390625 1.21875 -6.59375 C 1.140625 -6.625 1.109375 -6.625 1.109375 -6.625 C 1 -6.625 1 -6.546875 1 -6.390625 L 1 -3.4375 C 1 -3.265625 1 -3.1875 1.140625 -3.1875 C 1.21875 -3.1875 1.234375 -3.203125 1.28125 -3.265625 C 1.390625 -3.421875 1.75 -3.96875 2.5625 -3.96875 C 3.078125 -3.96875 3.328125 -3.515625 3.40625 -3.328125 C 3.5625 -2.953125 3.59375 -2.578125 3.59375 -2.078125 C 3.59375 -1.71875 3.59375 -1.125 3.34375 -0.703125 C 3.109375 -0.3125 2.734375 -0.0625 2.28125 -0.0625 C 1.5625 -0.0625 0.984375 -0.59375 0.8125 -1.171875 C 0.84375 -1.171875 0.875 -1.15625 0.984375 -1.15625 C 1.3125 -1.15625 1.484375 -1.40625 1.484375 -1.640625 C 1.484375 -1.890625 1.3125 -2.140625 0.984375 -2.140625 C 0.84375 -2.140625 0.5 -2.0625 0.5 -1.609375 C 0.5 -0.75 1.1875 0.21875 2.296875 0.21875 C 3.453125 0.21875 4.46875 -0.734375 4.46875 -2 Z M 4.46875 -2 "/>
</symbol>
</g>
<clipPath id="i6-clip1">
  <path d="M 72 72 L 81.964844 72 L 81.964844 78.273438 L 72 78.273438 Z M 72 72 "/>
</clipPath>
</defs>
<g id="i6-surface31">
<g> <!-- clip-path="url(#clip1)" clip-rule="nonzero" -->
<g style="fill:rgb(0%,0%,0%);fill-opacity:1;">
  <use xlink:href="#i6-glyph0-1" x="72" y="78.274"/>
  <use xlink:href="#i6-glyph0-2" x="76.9813" y="78.274"/>
</g>
</g>
</g>
</g>
  <g id="g7" transform="translate(-72, 78.274)scale(1.0, -1.0)">
<defs>
<g>
<symbol overflow="visible" id="i7-glyph0-0">
<path style="stroke:none;" d=""/>
</symbol>
<symbol overflow="visible" id="i7-glyph0-1">
<path style="stroke:none;" d="M 4.5625 -1.703125 C 4.5625 -2.515625 3.921875 -3.296875 2.890625 -3.515625 C 3.703125 -3.78125 4.28125 -4.46875 4.28125 -5.265625 C 4.28125 -6.078125 3.40625 -6.640625 2.453125 -6.640625 C 1.453125 -6.640625 0.6875 -6.046875 0.6875 -5.28125 C 0.6875 -4.953125 0.90625 -4.765625 1.203125 -4.765625 C 1.5 -4.765625 1.703125 -4.984375 1.703125 -5.28125 C 1.703125 -5.765625 1.234375 -5.765625 1.09375 -5.765625 C 1.390625 -6.265625 2.046875 -6.390625 2.40625 -6.390625 C 2.828125 -6.390625 3.375 -6.171875 3.375 -5.28125 C 3.375 -5.15625 3.34375 -4.578125 3.09375 -4.140625 C 2.796875 -3.65625 2.453125 -3.625 2.203125 -3.625 C 2.125 -3.609375 1.890625 -3.59375 1.8125 -3.59375 C 1.734375 -3.578125 1.671875 -3.5625 1.671875 -3.46875 C 1.671875 -3.359375 1.734375 -3.359375 1.90625 -3.359375 L 2.34375 -3.359375 C 3.15625 -3.359375 3.53125 -2.6875 3.53125 -1.703125 C 3.53125 -0.34375 2.84375 -0.0625 2.40625 -0.0625 C 1.96875 -0.0625 1.21875 -0.234375 0.875 -0.8125 C 1.21875 -0.765625 1.53125 -0.984375 1.53125 -1.359375 C 1.53125 -1.71875 1.265625 -1.921875 0.984375 -1.921875 C 0.734375 -1.921875 0.421875 -1.78125 0.421875 -1.34375 C 0.421875 -0.4375 1.34375 0.21875 2.4375 0.21875 C 3.65625 0.21875 4.5625 -0.6875 4.5625 -1.703125 Z M 4.5625 -1.703125 "/>
</symbol>
<symbol overflow="visible" id="i7-glyph0-2">
<path style="stroke:none;" d="M 4.578125 -3.1875 C 4.578125 -3.984375 4.53125 -4.78125 4.1875 -5.515625 C 3.734375 -6.484375 2.90625 -6.640625 2.5 -6.640625 C 1.890625 -6.640625 1.171875 -6.375 0.75 -5.453125 C 0.4375 -4.765625 0.390625 -3.984375 0.390625 -3.1875 C 0.390625 -2.4375 0.421875 -1.546875 0.84375 -0.78125 C 1.265625 0.015625 2 0.21875 2.484375 0.21875 C 3.015625 0.21875 3.78125 0.015625 4.21875 -0.9375 C 4.53125 -1.625 4.578125 -2.40625 4.578125 -3.1875 Z M 3.765625 -3.3125 C 3.765625 -2.5625 3.765625 -1.890625 3.65625 -1.25 C 3.5 -0.296875 2.9375 0 2.484375 0 C 2.09375 0 1.5 -0.25 1.328125 -1.203125 C 1.21875 -1.796875 1.21875 -2.71875 1.21875 -3.3125 C 1.21875 -3.953125 1.21875 -4.609375 1.296875 -5.140625 C 1.484375 -6.328125 2.234375 -6.421875 2.484375 -6.421875 C 2.8125 -6.421875 3.46875 -6.234375 3.65625 -5.25 C 3.765625 -4.6875 3.765625 -3.9375 3.765625 -3.3125 Z M 3.765625 -3.3125 "/>
</symbol>
</g>
<clipPath id="i7-clip1">
  <path d="M 72 72 L 81.964844 72 L 81.964844 78.273438 L 72 78.273438 Z M 72 72 "/>
</clipPath>
</defs>
<g id="i7-surface36">
<g> <!-- clip-path="url(#clip1)" clip-rule="nonzero" -->
<g style="fill:rgb(0%,0%,0%);fill-opacity:1;">
  <use xlink:href="#i7-glyph0-1" x="72" y="78.274"/>
  <use xlink:href="#i7-glyph0-2" x="76.9813" y="78.274"/>
</g>
</g>
</g>
</g>
  <g id="g9" transform="translate(-72, 77.968)scale(1.0, -1.0)">
<defs>
<g>
<symbol overflow="visible" id="i9-glyph0-0">
<path style="stroke:none;" d=""/>
</symbol>
<symbol overflow="visible" id="i9-glyph0-1">
<path style="stroke:none;" d="M 4.46875 -1.25 C 4.46875 -1.4375 4.46875 -1.640625 4.125 -1.640625 C 3.796875 -1.640625 3.78125 -1.4375 3.78125 -1.265625 C 3.78125 -0.640625 3.203125 -0.546875 2.984375 -0.546875 C 2.21875 -0.546875 2.21875 -1.0625 2.21875 -1.3125 L 2.21875 -3.6875 L 3.84375 -3.6875 C 4 -3.6875 4.25 -3.6875 4.25 -3.984375 C 4.25 -4.296875 4 -4.296875 3.84375 -4.296875 L 2.21875 -4.296875 L 2.21875 -5.109375 C 2.21875 -5.296875 2.21875 -5.515625 1.875 -5.515625 C 1.53125 -5.515625 1.53125 -5.3125 1.53125 -5.109375 L 1.53125 -4.296875 L 0.65625 -4.296875 C 0.5 -4.296875 0.25 -4.296875 0.25 -3.984375 C 0.25 -3.6875 0.5 -3.6875 0.640625 -3.6875 L 1.53125 -3.6875 L 1.53125 -1.25 C 1.53125 -0.296875 2.203125 0.0625 2.9375 0.0625 C 3.671875 0.0625 4.46875 -0.375 4.46875 -1.25 Z M 4.46875 -1.25 "/>
</symbol>
<symbol overflow="visible" id="i9-glyph0-2">
<path style="stroke:none;" d="M 4.53125 -0.296875 C 4.53125 -0.609375 4.28125 -0.609375 4.125 -0.609375 L 3.078125 -0.609375 L 3.078125 -3.890625 C 3.078125 -4.203125 3.015625 -4.296875 2.6875 -4.296875 L 1.265625 -4.296875 C 1.109375 -4.296875 0.859375 -4.296875 0.859375 -4 C 0.859375 -3.6875 1.109375 -3.6875 1.265625 -3.6875 L 2.390625 -3.6875 L 2.390625 -0.609375 L 1.1875 -0.609375 C 1.03125 -0.609375 0.78125 -0.609375 0.78125 -0.296875 C 0.78125 0 1.03125 0 1.1875 0 L 4.125 0 C 4.28125 0 4.53125 0 4.53125 -0.296875 Z M 3.125 -5.53125 C 3.125 -5.8125 2.90625 -6.03125 2.625 -6.03125 C 2.34375 -6.03125 2.125 -5.8125 2.125 -5.53125 C 2.125 -5.25 2.34375 -5.03125 2.625 -5.03125 C 2.90625 -5.03125 3.125 -5.25 3.125 -5.53125 Z M 3.125 -5.53125 "/>
</symbol>
<symbol overflow="visible" id="i9-glyph0-3">
<path style="stroke:none;" d="M 5.140625 -0.296875 C 5.140625 -0.609375 4.9375 -0.609375 4.578125 -0.609375 L 4.578125 -3.015625 C 4.578125 -3.21875 4.578125 -4.359375 3.6875 -4.359375 C 3.390625 -4.359375 2.984375 -4.234375 2.703125 -3.84375 C 2.546875 -4.171875 2.265625 -4.359375 1.9375 -4.359375 C 1.625 -4.359375 1.328125 -4.21875 1.09375 -4 C 1.0625 -4.296875 0.875 -4.296875 0.6875 -4.296875 L 0.375 -4.296875 C 0.21875 -4.296875 -0.046875 -4.296875 -0.046875 -4 C -0.046875 -3.6875 0.171875 -3.6875 0.53125 -3.6875 L 0.53125 -0.609375 C 0.171875 -0.609375 -0.046875 -0.609375 -0.046875 -0.296875 C -0.046875 0 0.234375 0 0.375 0 L 1.25 0 C 1.390625 0 1.65625 0 1.65625 -0.296875 C 1.65625 -0.609375 1.453125 -0.609375 1.09375 -0.609375 L 1.09375 -2.390625 C 1.09375 -3.28125 1.5 -3.75 1.90625 -3.75 C 2.140625 -3.75 2.265625 -3.578125 2.265625 -2.9375 L 2.265625 -0.609375 C 2.078125 -0.609375 1.828125 -0.609375 1.828125 -0.296875 C 1.828125 0 2.109375 0 2.25 0 L 2.984375 0 C 3.140625 0 3.40625 0 3.40625 -0.296875 C 3.40625 -0.609375 3.1875 -0.609375 2.828125 -0.609375 L 2.828125 -2.390625 C 2.828125 -3.28125 3.234375 -3.75 3.65625 -3.75 C 3.875 -3.75 4.015625 -3.578125 4.015625 -2.9375 L 4.015625 -0.609375 C 3.828125 -0.609375 3.578125 -0.609375 3.578125 -0.296875 C 3.578125 0 3.84375 0 3.984375 0 L 4.734375 0 C 4.890625 0 5.140625 0 5.140625 -0.296875 Z M 5.140625 -0.296875 "/>
</symbol>
<symbol overflow="visible" id="i9-glyph0-4">
<path style="stroke:none;" d="M 4.625 -1.09375 C 4.625 -1.359375 4.34375 -1.359375 4.28125 -1.359375 C 4.09375 -1.359375 4.015625 -1.328125 3.953125 -1.140625 C 3.734375 -0.640625 3.1875 -0.546875 2.90625 -0.546875 C 2.15625 -0.546875 1.421875 -1.046875 1.25 -1.90625 L 4.234375 -1.90625 C 4.4375 -1.90625 4.625 -1.90625 4.625 -2.265625 C 4.625 -3.40625 3.984375 -4.390625 2.6875 -4.390625 C 1.5 -4.390625 0.546875 -3.390625 0.546875 -2.15625 C 0.546875 -0.953125 1.5625 0.0625 2.84375 0.0625 C 4.15625 0.0625 4.625 -0.84375 4.625 -1.09375 Z M 3.921875 -2.5 L 1.265625 -2.5 C 1.40625 -3.234375 2 -3.78125 2.6875 -3.78125 C 3.203125 -3.78125 3.828125 -3.53125 3.921875 -2.5 Z M 3.921875 -2.5 "/>
</symbol>
</g>
<clipPath id="i9-clip1">
  <path d="M 72 72 L 92.921875 72 L 92.921875 77.96875 L 72 77.96875 Z M 72 72 "/>
</clipPath>
</defs>
<g id="i9-surface46">
<g> <!-- clip-path="url(#clip1)" clip-rule="nonzero" -->
<g style="fill:rgb(0%,0%,0%);fill-opacity:1;">
  <use xlink:href="#i9-glyph0-1" x="72" y="77.968"/>
  <use xlink:href="#i9-glyph0-2" x="77.230365" y="77.968"/>
  <use xlink:href="#i9-glyph0-3" x="82.46073" y="77.968"/>
  <use xlink:href="#i9-glyph0-4" x="87.691095" y="77.968"/>
</g>
</g>
</g>
</g>
  <g id="g10" transform="translate(-72, 76.222)scale(1.0, -1.0)">
<defs>
<g>
<symbol overflow="visible" id="i10-glyph0-0">
<path style="stroke:none;" d=""/>
</symbol>
<symbol overflow="visible" id="i10-glyph0-1">
<path style="stroke:none;" d="M 4.984375 -3.984375 C 4.984375 -4.296875 4.75 -4.296875 4.578125 -4.296875 L 3.421875 -4.296875 C 3.265625 -4.296875 3.015625 -4.296875 3.015625 -4 C 3.015625 -3.6875 3.265625 -3.6875 3.421875 -3.6875 L 3.703125 -3.6875 L 2.609375 -0.484375 L 1.53125 -3.6875 L 1.796875 -3.6875 C 1.953125 -3.6875 2.203125 -3.6875 2.203125 -3.984375 C 2.203125 -4.296875 1.96875 -4.296875 1.796875 -4.296875 L 0.640625 -4.296875 C 0.484375 -4.296875 0.234375 -4.296875 0.234375 -3.984375 C 0.234375 -3.6875 0.484375 -3.6875 0.640625 -3.6875 L 0.9375 -3.6875 L 2.078125 -0.296875 C 2.203125 0.046875 2.40625 0.046875 2.609375 0.046875 C 2.796875 0.046875 3.03125 0.046875 3.140625 -0.296875 L 4.28125 -3.6875 L 4.578125 -3.6875 C 4.734375 -3.6875 4.984375 -3.6875 4.984375 -3.984375 Z M 4.984375 -3.984375 "/>
</symbol>
</g>
<clipPath id="i10-clip1">
  <path d="M 72 72 L 77 72 L 77 76.222656 L 72 76.222656 Z M 72 72 "/>
</clipPath>
</defs>
<g id="i10-surface51">
<g> <!-- clip-path="url(#clip1)" clip-rule="nonzero" -->
<g style="fill:rgb(0%,0%,0%);fill-opacity:1;">
  <use xlink:href="#i10-glyph0-1" x="72" y="76.222"/>
</g>
</g>
</g>
</g>
 </defs>
</svg>
