<?xml version="1.0" standalone="yes"?>
<!DOCTYPE svg PUBLIC "-//W3C//DTD SVG 1.1//EN"
  "http://www.w3.org/Graphics/SVG/1.1/DTD/svg11.dtd">
<svg version="1.1" xmlns="http://www.w3.org/2000/svg" xmlns:xlink="http://www.w3.org/1999/xlink" width="91.1863mm" height="53.7992mm" viewBox="-85.7389 -38.6243 258.481 152.502" fill="#dadada" stroke="#000000" stroke-width="0.3" stroke-miterlimit="10">
 <g transform="scale(1.0, -1.0)">
  <path d="M0.00 28.35C33.44 38.19 81.14 45.08 113.39 28.35C145.63 11.62 182.65 -16.79 170.08 -56.69C157.51 -96.59 102.00 -116.64 56.69 -113.39C11.38 -110.13 -78.21 -75.38 -85.04 -28.35C-91.87 18.68 -33.44 18.50 0.00 28.35z" />
  <path d="M14.17 -28.35C31.14 -20.96 96.37 -24.08 113.39 -28.35C130.40 -32.61 159.32 -33.18 155.91 -56.69C152.49 -80.21 105.10 -95.53 85.04 -99.21C64.98 -102.90 42.71 -89.18 28.35 -85.04C13.99 -80.90 -8.60 -88.87 -14.17 -70.87C-19.75 -52.86 -2.79 -35.73 14.17 -28.35z" fill="#f3f3f3" />
  <use transform="matrix(1 0 0 1 -28.3465 0)" xlink:href="#g1" />
  <use transform="matrix(1 0 0 1 -56.6929 -28.3465)" xlink:href="#g3" />
  <use transform="matrix(1 0 0 1 0 -56.6929)" xlink:href="#g2" />
  <use transform="matrix(1 0 0 1 56.6929 -85.0394)" xlink:href="#g4" />
 </g>
 <defs>
  <g id="g1" transform="translate(-72, 84.868)scale(1.0, -1.0)">
<defs>
<g>
<symbol overflow="visible" id="i1-glyph0-0">
<path style="stroke:none;" d=""/>
</symbol>
<symbol overflow="visible" id="i1-glyph0-1">
<path style="stroke:none;" d="M 6.828125 -4.5 L 6.640625 -6.75 L 0.546875 -6.75 L 0.359375 -4.5 L 0.609375 -4.5 C 0.75 -6.109375 0.890625 -6.4375 2.40625 -6.4375 C 2.578125 -6.4375 2.84375 -6.4375 2.9375 -6.421875 C 3.15625 -6.375 3.15625 -6.265625 3.15625 -6.046875 L 3.15625 -0.78125 C 3.15625 -0.453125 3.15625 -0.3125 2.109375 -0.3125 L 1.703125 -0.3125 L 1.703125 0 C 2.109375 -0.03125 3.125 -0.03125 3.59375 -0.03125 C 4.046875 -0.03125 5.078125 -0.03125 5.484375 0 L 5.484375 -0.3125 L 5.078125 -0.3125 C 4.03125 -0.3125 4.03125 -0.453125 4.03125 -0.78125 L 4.03125 -6.046875 C 4.03125 -6.234375 4.03125 -6.375 4.21875 -6.421875 C 4.328125 -6.4375 4.59375 -6.4375 4.78125 -6.4375 C 6.296875 -6.4375 6.4375 -6.109375 6.578125 -4.5 Z M 6.828125 -4.5 "/>
</symbol>
<symbol overflow="visible" id="i1-glyph0-2">
<path style="stroke:none;" d="M 5.0625 -3.984375 L 5.0625 -4.296875 C 4.828125 -4.28125 4.546875 -4.265625 4.3125 -4.265625 L 3.453125 -4.296875 L 3.453125 -3.984375 C 3.765625 -3.984375 3.921875 -3.8125 3.921875 -3.5625 C 3.921875 -3.453125 3.90625 -3.4375 3.859375 -3.3125 L 2.84375 -0.875 L 1.75 -3.546875 C 1.703125 -3.65625 1.6875 -3.6875 1.6875 -3.734375 C 1.6875 -3.984375 2.046875 -3.984375 2.25 -3.984375 L 2.25 -4.296875 L 1.15625 -4.265625 C 0.890625 -4.265625 0.484375 -4.28125 0.1875 -4.296875 L 0.1875 -3.984375 C 0.671875 -3.984375 0.859375 -3.984375 1 -3.640625 L 2.5 0 L 2.25 0.59375 C 2.03125 1.140625 1.75 1.828125 1.109375 1.828125 C 1.0625 1.828125 0.828125 1.828125 0.640625 1.640625 C 0.953125 1.609375 1.03125 1.390625 1.03125 1.21875 C 1.03125 0.96875 0.84375 0.8125 0.609375 0.8125 C 0.40625 0.8125 0.1875 0.9375 0.1875 1.234375 C 0.1875 1.6875 0.609375 2.046875 1.109375 2.046875 C 1.734375 2.046875 2.140625 1.46875 2.375 0.90625 L 4.140625 -3.34375 C 4.390625 -3.984375 4.90625 -3.984375 5.0625 -3.984375 Z M 5.0625 -3.984375 "/>
</symbol>
<symbol overflow="visible" id="i1-glyph0-3">
<path style="stroke:none;" d="M 5.1875 -2.15625 C 5.1875 -3.421875 4.234375 -4.40625 3.109375 -4.40625 C 2.328125 -4.40625 1.90625 -3.96875 1.71875 -3.75 L 1.71875 -4.40625 L 0.28125 -4.296875 L 0.28125 -3.984375 C 0.984375 -3.984375 1.0625 -3.921875 1.0625 -3.484375 L 1.0625 1.171875 C 1.0625 1.625 0.953125 1.625 0.28125 1.625 L 0.28125 1.9375 L 1.390625 1.90625 L 2.515625 1.9375 L 2.515625 1.625 C 1.859375 1.625 1.75 1.625 1.75 1.171875 L 1.75 -0.59375 C 1.796875 -0.421875 2.21875 0.109375 2.96875 0.109375 C 4.15625 0.109375 5.1875 -0.875 5.1875 -2.15625 Z M 4.359375 -2.15625 C 4.359375 -0.953125 3.671875 -0.109375 2.9375 -0.109375 C 2.53125 -0.109375 2.15625 -0.3125 1.890625 -0.71875 C 1.75 -0.921875 1.75 -0.9375 1.75 -1.140625 L 1.75 -3.359375 C 2.03125 -3.875 2.515625 -4.15625 3.03125 -4.15625 C 3.765625 -4.15625 4.359375 -3.28125 4.359375 -2.15625 Z M 4.359375 -2.15625 "/>
</symbol>
<symbol overflow="visible" id="i1-glyph0-4">
<path style="stroke:none;" d="M 4.140625 -1.1875 C 4.140625 -1.28125 4.0625 -1.3125 4 -1.3125 C 3.921875 -1.3125 3.890625 -1.25 3.875 -1.171875 C 3.53125 -0.140625 2.625 -0.140625 2.53125 -0.140625 C 2.03125 -0.140625 1.640625 -0.4375 1.40625 -0.8125 C 1.109375 -1.28125 1.109375 -1.9375 1.109375 -2.296875 L 3.890625 -2.296875 C 4.109375 -2.296875 4.140625 -2.296875 4.140625 -2.515625 C 4.140625 -3.5 3.59375 -4.46875 2.359375 -4.46875 C 1.203125 -4.46875 0.28125 -3.4375 0.28125 -2.1875 C 0.28125 -0.859375 1.328125 0.109375 2.46875 0.109375 C 3.6875 0.109375 4.140625 -1 4.140625 -1.1875 Z M 3.484375 -2.515625 L 1.109375 -2.515625 C 1.171875 -4 2.015625 -4.25 2.359375 -4.25 C 3.375 -4.25 3.484375 -2.90625 3.484375 -2.515625 Z M 3.484375 -2.515625 "/>
</symbol>
<symbol overflow="visible" id="i1-glyph0-5">
<path style="stroke:none;" d="M 1.90625 -3.765625 C 1.90625 -4.0625 1.671875 -4.296875 1.390625 -4.296875 C 1.09375 -4.296875 0.859375 -4.0625 0.859375 -3.765625 C 0.859375 -3.484375 1.09375 -3.234375 1.390625 -3.234375 C 1.671875 -3.234375 1.90625 -3.484375 1.90625 -3.765625 Z M 1.90625 -0.53125 C 1.90625 -0.8125 1.671875 -1.0625 1.390625 -1.0625 C 1.09375 -1.0625 0.859375 -0.8125 0.859375 -0.53125 C 0.859375 -0.234375 1.09375 0 1.390625 0 C 1.671875 0 1.90625 -0.234375 1.90625 -0.53125 Z M 1.90625 -0.53125 "/>
</symbol>
<symbol overflow="visible" id="i1-glyph0-6">
<path style="stroke:none;" d="M 7.296875 -0.875 C 7.296875 -0.9375 7.296875 -1.046875 7.171875 -1.046875 C 7.0625 -1.046875 7.0625 -0.953125 7.046875 -0.890625 C 6.984375 -0.171875 6.640625 0 6.390625 0 C 5.90625 0 5.828125 -0.515625 5.6875 -1.4375 L 5.546875 -2.234375 C 5.375 -2.875 4.890625 -3.203125 4.34375 -3.390625 C 5.296875 -3.625 6.078125 -4.234375 6.078125 -5.015625 C 6.078125 -5.96875 4.9375 -6.8125 3.484375 -6.8125 L 0.34375 -6.8125 L 0.34375 -6.5 L 0.59375 -6.5 C 1.359375 -6.5 1.375 -6.390625 1.375 -6.03125 L 1.375 -0.78125 C 1.375 -0.421875 1.359375 -0.3125 0.59375 -0.3125 L 0.34375 -0.3125 L 0.34375 0 C 0.703125 -0.03125 1.421875 -0.03125 1.796875 -0.03125 C 2.1875 -0.03125 2.90625 -0.03125 3.265625 0 L 3.265625 -0.3125 L 3.015625 -0.3125 C 2.25 -0.3125 2.234375 -0.421875 2.234375 -0.78125 L 2.234375 -3.296875 L 3.375 -3.296875 C 3.53125 -3.296875 3.953125 -3.296875 4.3125 -2.953125 C 4.6875 -2.609375 4.6875 -2.296875 4.6875 -1.625 C 4.6875 -0.984375 4.6875 -0.578125 5.09375 -0.203125 C 5.5 0.15625 6.046875 0.21875 6.34375 0.21875 C 7.125 0.21875 7.296875 -0.59375 7.296875 -0.875 Z M 5.046875 -5.015625 C 5.046875 -4.328125 4.8125 -3.515625 3.34375 -3.515625 L 2.234375 -3.515625 L 2.234375 -6.09375 C 2.234375 -6.328125 2.234375 -6.453125 2.453125 -6.484375 C 2.546875 -6.5 2.84375 -6.5 3.046875 -6.5 C 3.9375 -6.5 5.046875 -6.453125 5.046875 -5.015625 Z M 5.046875 -5.015625 "/>
</symbol>
<symbol overflow="visible" id="i1-glyph0-7">
<path style="stroke:none;" d="M 4.140625 -1.1875 C 4.140625 -1.28125 4.03125 -1.28125 4 -1.28125 C 3.921875 -1.28125 3.890625 -1.25 3.875 -1.1875 C 3.59375 -0.265625 2.9375 -0.140625 2.578125 -0.140625 C 2.046875 -0.140625 1.171875 -0.5625 1.171875 -2.171875 C 1.171875 -3.796875 1.984375 -4.21875 2.515625 -4.21875 C 2.609375 -4.21875 3.234375 -4.203125 3.578125 -3.84375 C 3.171875 -3.8125 3.109375 -3.515625 3.109375 -3.390625 C 3.109375 -3.125 3.296875 -2.9375 3.5625 -2.9375 C 3.828125 -2.9375 4.03125 -3.09375 4.03125 -3.40625 C 4.03125 -4.078125 3.265625 -4.46875 2.5 -4.46875 C 1.25 -4.46875 0.34375 -3.390625 0.34375 -2.15625 C 0.34375 -0.875 1.328125 0.109375 2.484375 0.109375 C 3.8125 0.109375 4.140625 -1.09375 4.140625 -1.1875 Z M 4.140625 -1.1875 "/>
</symbol>
<symbol overflow="visible" id="i1-glyph0-8">
<path style="stroke:none;" d="M 4.6875 -2.140625 C 4.6875 -3.40625 3.703125 -4.46875 2.5 -4.46875 C 1.25 -4.46875 0.28125 -3.375 0.28125 -2.140625 C 0.28125 -0.84375 1.3125 0.109375 2.484375 0.109375 C 3.6875 0.109375 4.6875 -0.875 4.6875 -2.140625 Z M 3.875 -2.21875 C 3.875 -1.859375 3.875 -1.3125 3.65625 -0.875 C 3.421875 -0.421875 2.984375 -0.140625 2.5 -0.140625 C 2.0625 -0.140625 1.625 -0.34375 1.359375 -0.8125 C 1.109375 -1.25 1.109375 -1.859375 1.109375 -2.21875 C 1.109375 -2.609375 1.109375 -3.140625 1.34375 -3.578125 C 1.609375 -4.03125 2.078125 -4.25 2.484375 -4.25 C 2.921875 -4.25 3.34375 -4.03125 3.609375 -3.59375 C 3.875 -3.171875 3.875 -2.59375 3.875 -2.21875 Z M 3.875 -2.21875 "/>
</symbol>
<symbol overflow="visible" id="i1-glyph0-9">
<path style="stroke:none;" d="M 3.625 -3.796875 C 3.625 -4.109375 3.3125 -4.40625 2.890625 -4.40625 C 2.15625 -4.40625 1.796875 -3.734375 1.671875 -3.3125 L 1.671875 -4.40625 L 0.28125 -4.296875 L 0.28125 -3.984375 C 0.984375 -3.984375 1.0625 -3.921875 1.0625 -3.421875 L 1.0625 -0.75 C 1.0625 -0.3125 0.953125 -0.3125 0.28125 -0.3125 L 0.28125 0 L 1.421875 -0.03125 C 1.8125 -0.03125 2.28125 -0.03125 2.6875 0 L 2.6875 -0.3125 L 2.46875 -0.3125 C 1.734375 -0.3125 1.71875 -0.421875 1.71875 -0.78125 L 1.71875 -2.3125 C 1.71875 -3.296875 2.140625 -4.1875 2.890625 -4.1875 C 2.953125 -4.1875 2.984375 -4.1875 3 -4.171875 C 2.96875 -4.171875 2.765625 -4.046875 2.765625 -3.78125 C 2.765625 -3.515625 2.984375 -3.359375 3.203125 -3.359375 C 3.375 -3.359375 3.625 -3.484375 3.625 -3.796875 Z M 3.625 -3.796875 "/>
</symbol>
<symbol overflow="visible" id="i1-glyph0-10">
<path style="stroke:none;" d="M 5.25 0 L 5.25 -0.3125 C 4.5625 -0.3125 4.46875 -0.375 4.46875 -0.875 L 4.46875 -6.921875 L 3.046875 -6.8125 L 3.046875 -6.5 C 3.734375 -6.5 3.8125 -6.4375 3.8125 -5.9375 L 3.8125 -3.78125 C 3.53125 -4.140625 3.09375 -4.40625 2.5625 -4.40625 C 1.390625 -4.40625 0.34375 -3.421875 0.34375 -2.140625 C 0.34375 -0.875 1.3125 0.109375 2.453125 0.109375 C 3.09375 0.109375 3.53125 -0.234375 3.78125 -0.546875 L 3.78125 0.109375 Z M 3.78125 -1.171875 C 3.78125 -1 3.78125 -0.984375 3.671875 -0.8125 C 3.375 -0.328125 2.9375 -0.109375 2.5 -0.109375 C 2.046875 -0.109375 1.6875 -0.375 1.453125 -0.75 C 1.203125 -1.15625 1.171875 -1.71875 1.171875 -2.140625 C 1.171875 -2.5 1.1875 -3.09375 1.46875 -3.546875 C 1.6875 -3.859375 2.0625 -4.1875 2.609375 -4.1875 C 2.953125 -4.1875 3.375 -4.03125 3.671875 -3.59375 C 3.78125 -3.421875 3.78125 -3.40625 3.78125 -3.21875 Z M 3.78125 -1.171875 "/>
</symbol>
<symbol overflow="visible" id="i1-glyph0-11">
<path style="stroke:none;" d="M 3.59375 -1.28125 C 3.59375 -1.796875 3.296875 -2.109375 3.171875 -2.21875 C 2.84375 -2.546875 2.453125 -2.625 2.03125 -2.703125 C 1.46875 -2.8125 0.8125 -2.9375 0.8125 -3.515625 C 0.8125 -3.875 1.0625 -4.28125 1.921875 -4.28125 C 3.015625 -4.28125 3.078125 -3.375 3.09375 -3.078125 C 3.09375 -2.984375 3.203125 -2.984375 3.203125 -2.984375 C 3.34375 -2.984375 3.34375 -3.03125 3.34375 -3.21875 L 3.34375 -4.234375 C 3.34375 -4.390625 3.34375 -4.46875 3.234375 -4.46875 C 3.1875 -4.46875 3.15625 -4.46875 3.03125 -4.34375 C 3 -4.3125 2.90625 -4.21875 2.859375 -4.1875 C 2.484375 -4.46875 2.078125 -4.46875 1.921875 -4.46875 C 0.703125 -4.46875 0.328125 -3.796875 0.328125 -3.234375 C 0.328125 -2.890625 0.484375 -2.609375 0.75 -2.390625 C 1.078125 -2.140625 1.359375 -2.078125 2.078125 -1.9375 C 2.296875 -1.890625 3.109375 -1.734375 3.109375 -1.015625 C 3.109375 -0.515625 2.765625 -0.109375 1.984375 -0.109375 C 1.140625 -0.109375 0.78125 -0.671875 0.59375 -1.53125 C 0.5625 -1.65625 0.5625 -1.6875 0.453125 -1.6875 C 0.328125 -1.6875 0.328125 -1.625 0.328125 -1.453125 L 0.328125 -0.125 C 0.328125 0.046875 0.328125 0.109375 0.4375 0.109375 C 0.484375 0.109375 0.5 0.09375 0.6875 -0.09375 C 0.703125 -0.109375 0.703125 -0.125 0.890625 -0.3125 C 1.328125 0.09375 1.78125 0.109375 1.984375 0.109375 C 3.125 0.109375 3.59375 -0.5625 3.59375 -1.28125 Z M 3.59375 -1.28125 "/>
</symbol>
<symbol overflow="visible" id="i1-glyph0-12">
<path style="stroke:none;" d="M 7.015625 -3.984375 L 7.015625 -4.296875 C 6.78125 -4.28125 6.5 -4.265625 6.28125 -4.265625 L 5.359375 -4.296875 L 5.359375 -3.984375 C 5.71875 -3.984375 5.9375 -3.796875 5.9375 -3.515625 C 5.9375 -3.453125 5.9375 -3.421875 5.875 -3.296875 L 4.96875 -0.75 L 3.984375 -3.53125 C 3.953125 -3.65625 3.9375 -3.671875 3.9375 -3.71875 C 3.9375 -3.984375 4.328125 -3.984375 4.53125 -3.984375 L 4.53125 -4.296875 L 3.484375 -4.265625 C 3.1875 -4.265625 2.90625 -4.28125 2.609375 -4.296875 L 2.609375 -3.984375 C 2.96875 -3.984375 3.125 -3.96875 3.234375 -3.84375 C 3.28125 -3.78125 3.390625 -3.484375 3.453125 -3.296875 L 2.609375 -0.875 L 1.65625 -3.53125 C 1.609375 -3.65625 1.609375 -3.671875 1.609375 -3.71875 C 1.609375 -3.984375 2 -3.984375 2.1875 -3.984375 L 2.1875 -4.296875 L 1.109375 -4.265625 L 0.171875 -4.296875 L 0.171875 -3.984375 C 0.671875 -3.984375 0.796875 -3.953125 0.921875 -3.640625 L 2.171875 -0.109375 C 2.21875 0.03125 2.25 0.109375 2.375 0.109375 C 2.515625 0.109375 2.53125 0.046875 2.578125 -0.09375 L 3.59375 -2.90625 L 4.609375 -0.078125 C 4.640625 0.03125 4.671875 0.109375 4.8125 0.109375 C 4.9375 0.109375 4.96875 0.015625 5 -0.078125 L 6.171875 -3.34375 C 6.34375 -3.84375 6.65625 -3.984375 7.015625 -3.984375 Z M 7.015625 -3.984375 "/>
</symbol>
<symbol overflow="visible" id="i1-glyph0-13">
<path style="stroke:none;" d="M 2.46875 0 L 2.46875 -0.3125 C 1.796875 -0.3125 1.765625 -0.359375 1.765625 -0.75 L 1.765625 -4.40625 L 0.375 -4.296875 L 0.375 -3.984375 C 1.015625 -3.984375 1.109375 -3.921875 1.109375 -3.4375 L 1.109375 -0.75 C 1.109375 -0.3125 1 -0.3125 0.328125 -0.3125 L 0.328125 0 L 1.421875 -0.03125 C 1.78125 -0.03125 2.125 -0.015625 2.46875 0 Z M 1.90625 -6.015625 C 1.90625 -6.296875 1.6875 -6.546875 1.390625 -6.546875 C 1.046875 -6.546875 0.84375 -6.265625 0.84375 -6.015625 C 0.84375 -5.75 1.078125 -5.5 1.375 -5.5 C 1.71875 -5.5 1.90625 -5.765625 1.90625 -6.015625 Z M 1.90625 -6.015625 "/>
</symbol>
<symbol overflow="visible" id="i1-glyph0-14">
<path style="stroke:none;" d="M 3.3125 -1.234375 L 3.3125 -1.796875 L 3.0625 -1.796875 L 3.0625 -1.25 C 3.0625 -0.515625 2.765625 -0.140625 2.390625 -0.140625 C 1.71875 -0.140625 1.71875 -1.046875 1.71875 -1.21875 L 1.71875 -3.984375 L 3.15625 -3.984375 L 3.15625 -4.296875 L 1.71875 -4.296875 L 1.71875 -6.125 L 1.46875 -6.125 C 1.46875 -5.3125 1.171875 -4.25 0.1875 -4.203125 L 0.1875 -3.984375 L 1.03125 -3.984375 L 1.03125 -1.234375 C 1.03125 -0.015625 1.96875 0.109375 2.328125 0.109375 C 3.03125 0.109375 3.3125 -0.59375 3.3125 -1.234375 Z M 3.3125 -1.234375 "/>
</symbol>
<symbol overflow="visible" id="i1-glyph0-15">
<path style="stroke:none;" d="M 5.328125 0 L 5.328125 -0.3125 C 4.8125 -0.3125 4.5625 -0.3125 4.5625 -0.609375 L 4.5625 -2.515625 C 4.5625 -3.375 4.5625 -3.671875 4.25 -4.03125 C 4.109375 -4.203125 3.78125 -4.40625 3.203125 -4.40625 C 2.359375 -4.40625 1.921875 -3.8125 1.765625 -3.453125 L 1.75 -3.453125 L 1.75 -6.921875 L 0.3125 -6.8125 L 0.3125 -6.5 C 1.015625 -6.5 1.09375 -6.4375 1.09375 -5.9375 L 1.09375 -0.75 C 1.09375 -0.3125 0.984375 -0.3125 0.3125 -0.3125 L 0.3125 0 L 1.453125 -0.03125 L 2.5625 0 L 2.5625 -0.3125 C 1.890625 -0.3125 1.78125 -0.3125 1.78125 -0.75 L 1.78125 -2.59375 C 1.78125 -3.625 2.5 -4.1875 3.125 -4.1875 C 3.765625 -4.1875 3.875 -3.65625 3.875 -3.078125 L 3.875 -0.75 C 3.875 -0.3125 3.765625 -0.3125 3.09375 -0.3125 L 3.09375 0 L 4.21875 -0.03125 Z M 5.328125 0 "/>
</symbol>
<symbol overflow="visible" id="i1-glyph0-16">
<path style="stroke:none;" d="M 4.8125 -0.890625 L 4.8125 -1.453125 L 4.5625 -1.453125 L 4.5625 -0.890625 C 4.5625 -0.3125 4.3125 -0.25 4.203125 -0.25 C 3.875 -0.25 3.84375 -0.703125 3.84375 -0.75 L 3.84375 -2.734375 C 3.84375 -3.15625 3.84375 -3.546875 3.484375 -3.921875 C 3.09375 -4.3125 2.59375 -4.46875 2.109375 -4.46875 C 1.296875 -4.46875 0.609375 -4 0.609375 -3.34375 C 0.609375 -3.046875 0.8125 -2.875 1.0625 -2.875 C 1.34375 -2.875 1.53125 -3.078125 1.53125 -3.328125 C 1.53125 -3.453125 1.46875 -3.78125 1.015625 -3.78125 C 1.28125 -4.140625 1.78125 -4.25 2.09375 -4.25 C 2.578125 -4.25 3.15625 -3.859375 3.15625 -2.96875 L 3.15625 -2.609375 C 2.640625 -2.578125 1.9375 -2.546875 1.3125 -2.25 C 0.5625 -1.90625 0.3125 -1.390625 0.3125 -0.953125 C 0.3125 -0.140625 1.28125 0.109375 1.90625 0.109375 C 2.578125 0.109375 3.03125 -0.296875 3.21875 -0.75 C 3.265625 -0.359375 3.53125 0.0625 4 0.0625 C 4.203125 0.0625 4.8125 -0.078125 4.8125 -0.890625 Z M 3.15625 -1.390625 C 3.15625 -0.453125 2.4375 -0.109375 1.984375 -0.109375 C 1.5 -0.109375 1.09375 -0.453125 1.09375 -0.953125 C 1.09375 -1.5 1.5 -2.328125 3.15625 -2.390625 Z M 3.15625 -1.390625 "/>
</symbol>
<symbol overflow="visible" id="i1-glyph0-17">
<path style="stroke:none;" d="M 2.546875 0 L 2.546875 -0.3125 C 1.875 -0.3125 1.765625 -0.3125 1.765625 -0.75 L 1.765625 -6.921875 L 0.328125 -6.8125 L 0.328125 -6.5 C 1.03125 -6.5 1.109375 -6.4375 1.109375 -5.9375 L 1.109375 -0.75 C 1.109375 -0.3125 1 -0.3125 0.328125 -0.3125 L 0.328125 0 L 1.4375 -0.03125 Z M 2.546875 0 "/>
</symbol>
<symbol overflow="visible" id="i1-glyph0-18">
<path style="stroke:none;" d="M 8.109375 0 L 8.109375 -0.3125 C 7.59375 -0.3125 7.34375 -0.3125 7.328125 -0.609375 L 7.328125 -2.515625 C 7.328125 -3.375 7.328125 -3.671875 7.015625 -4.03125 C 6.875 -4.203125 6.546875 -4.40625 5.96875 -4.40625 C 5.140625 -4.40625 4.6875 -3.8125 4.53125 -3.421875 C 4.390625 -4.296875 3.65625 -4.40625 3.203125 -4.40625 C 2.46875 -4.40625 2 -3.984375 1.71875 -3.359375 L 1.71875 -4.40625 L 0.3125 -4.296875 L 0.3125 -3.984375 C 1.015625 -3.984375 1.09375 -3.921875 1.09375 -3.421875 L 1.09375 -0.75 C 1.09375 -0.3125 0.984375 -0.3125 0.3125 -0.3125 L 0.3125 0 L 1.453125 -0.03125 L 2.5625 0 L 2.5625 -0.3125 C 1.890625 -0.3125 1.78125 -0.3125 1.78125 -0.75 L 1.78125 -2.59375 C 1.78125 -3.625 2.5 -4.1875 3.125 -4.1875 C 3.765625 -4.1875 3.875 -3.65625 3.875 -3.078125 L 3.875 -0.75 C 3.875 -0.3125 3.765625 -0.3125 3.09375 -0.3125 L 3.09375 0 L 4.21875 -0.03125 L 5.328125 0 L 5.328125 -0.3125 C 4.671875 -0.3125 4.5625 -0.3125 4.5625 -0.75 L 4.5625 -2.59375 C 4.5625 -3.625 5.265625 -4.1875 5.90625 -4.1875 C 6.53125 -4.1875 6.640625 -3.65625 6.640625 -3.078125 L 6.640625 -0.75 C 6.640625 -0.3125 6.53125 -0.3125 5.859375 -0.3125 L 5.859375 0 L 6.984375 -0.03125 Z M 8.109375 0 "/>
</symbol>
<symbol overflow="visible" id="i1-glyph0-19">
<path style="stroke:none;" d="M 5.328125 0 L 5.328125 -0.3125 C 4.8125 -0.3125 4.5625 -0.3125 4.5625 -0.609375 L 4.5625 -2.515625 C 4.5625 -3.375 4.5625 -3.671875 4.25 -4.03125 C 4.109375 -4.203125 3.78125 -4.40625 3.203125 -4.40625 C 2.46875 -4.40625 2 -3.984375 1.71875 -3.359375 L 1.71875 -4.40625 L 0.3125 -4.296875 L 0.3125 -3.984375 C 1.015625 -3.984375 1.09375 -3.921875 1.09375 -3.421875 L 1.09375 -0.75 C 1.09375 -0.3125 0.984375 -0.3125 0.3125 -0.3125 L 0.3125 0 L 1.453125 -0.03125 L 2.5625 0 L 2.5625 -0.3125 C 1.890625 -0.3125 1.78125 -0.3125 1.78125 -0.75 L 1.78125 -2.59375 C 1.78125 -3.625 2.5 -4.1875 3.125 -4.1875 C 3.765625 -4.1875 3.875 -3.65625 3.875 -3.078125 L 3.875 -0.75 C 3.875 -0.3125 3.765625 -0.3125 3.09375 -0.3125 L 3.09375 0 L 4.21875 -0.03125 Z M 5.328125 0 "/>
</symbol>
<symbol overflow="visible" id="i1-glyph1-0">
<path style="stroke:none;" d=""/>
</symbol>
<symbol overflow="visible" id="i1-glyph1-1">
<path style="stroke:none;" d="M 5.203125 -0.921875 C 5.203125 -1.25 4.96875 -1.25 4.859375 -1.25 C 4.75 -1.25 4.53125 -1.25 4.515625 -0.953125 C 4.515625 -0.875 4.5 -0.5 4.328125 -0.5 C 4.046875 -0.5 4.046875 -0.953125 4.046875 -1.484375 C 4.046875 -2.109375 4.046875 -2.1875 3.953125 -2.421875 C 3.84375 -2.71875 3.609375 -2.921875 3.46875 -3.03125 C 4.125 -3.40625 4.3125 -4 4.3125 -4.421875 C 4.3125 -5.28125 3.5625 -6.09375 2.375 -6.09375 L 0.625 -6.09375 C 0.453125 -6.09375 0.21875 -6.09375 0.21875 -5.78125 C 0.21875 -5.484375 0.46875 -5.484375 0.625 -5.484375 L 0.875 -5.484375 L 0.875 -0.609375 L 0.625 -0.609375 C 0.453125 -0.609375 0.21875 -0.609375 0.21875 -0.296875 C 0.21875 0 0.46875 0 0.625 0 L 1.796875 0 C 1.953125 0 2.203125 0 2.203125 -0.296875 C 2.203125 -0.609375 1.96875 -0.609375 1.796875 -0.609375 L 1.5625 -0.609375 L 1.5625 -2.734375 L 2.328125 -2.734375 C 2.515625 -2.734375 2.828125 -2.734375 3.140625 -2.46875 C 3.359375 -2.25 3.359375 -2.03125 3.359375 -1.609375 C 3.359375 -0.96875 3.359375 -0.671875 3.546875 -0.34375 C 3.71875 -0.046875 4 0.109375 4.34375 0.109375 C 4.96875 0.109375 5.203125 -0.546875 5.203125 -0.921875 Z M 3.625 -4.421875 C 3.625 -3.921875 3.1875 -3.34375 2.265625 -3.34375 L 1.5625 -3.34375 L 1.5625 -5.484375 L 2.265625 -5.484375 C 3.1875 -5.484375 3.625 -4.890625 3.625 -4.421875 Z M 3.625 -4.421875 "/>
</symbol>
<symbol overflow="visible" id="i1-glyph1-2">
<path style="stroke:none;" d="M 4.9375 -0.296875 C 4.9375 -0.609375 4.6875 -0.609375 4.53125 -0.609375 L 4.140625 -0.609375 L 2.859375 -2.21875 L 4 -3.6875 L 4.390625 -3.6875 C 4.53125 -3.6875 4.8125 -3.6875 4.8125 -3.984375 C 4.8125 -4.296875 4.546875 -4.296875 4.390625 -4.296875 L 3.234375 -4.296875 C 3.078125 -4.296875 2.828125 -4.296875 2.828125 -4 C 2.828125 -3.6875 3.046875 -3.6875 3.3125 -3.6875 L 2.578125 -2.6875 L 1.828125 -3.6875 C 2.078125 -3.6875 2.296875 -3.6875 2.296875 -4 C 2.296875 -4.296875 2.046875 -4.296875 1.90625 -4.296875 L 0.734375 -4.296875 C 0.59375 -4.296875 0.328125 -4.296875 0.328125 -3.984375 C 0.328125 -3.6875 0.59375 -3.6875 0.734375 -3.6875 L 1.140625 -3.6875 L 2.3125 -2.21875 L 1.078125 -0.609375 L 0.671875 -0.609375 C 0.53125 -0.609375 0.265625 -0.609375 0.265625 -0.296875 C 0.265625 0 0.53125 0 0.671875 0 L 1.84375 0 C 2 0 2.25 0 2.25 -0.296875 C 2.25 -0.609375 2.03125 -0.609375 1.71875 -0.609375 L 2.578125 -1.828125 L 3.46875 -0.609375 C 3.1875 -0.609375 2.96875 -0.609375 2.96875 -0.296875 C 2.96875 0 3.21875 0 3.375 0 L 4.53125 0 C 4.671875 0 4.9375 0 4.9375 -0.296875 Z M 4.9375 -0.296875 "/>
</symbol>
<symbol overflow="visible" id="i1-glyph1-3">
<path style="stroke:none;" d="M 4.859375 -2.15625 C 4.859375 -3.375 3.984375 -4.359375 2.921875 -4.359375 C 2.4375 -4.359375 2 -4.171875 1.65625 -3.875 L 1.65625 -5.6875 C 1.65625 -5.984375 1.59375 -6.09375 1.25 -6.09375 L 0.53125 -6.09375 C 0.375 -6.09375 0.125 -6.09375 0.125 -5.78125 C 0.125 -5.484375 0.375 -5.484375 0.515625 -5.484375 L 0.96875 -5.484375 L 0.96875 -0.40625 C 0.96875 -0.203125 0.96875 0 1.3125 0 C 1.65625 0 1.65625 -0.203125 1.65625 -0.453125 C 2.0625 -0.03125 2.5 0.0625 2.8125 0.0625 C 3.890625 0.0625 4.859375 -0.890625 4.859375 -2.15625 Z M 4.171875 -2.15625 C 4.171875 -1.203125 3.484375 -0.546875 2.78125 -0.546875 C 2 -0.546875 1.65625 -1.421875 1.65625 -1.90625 L 1.65625 -2.625 C 1.65625 -3.21875 2.234375 -3.75 2.859375 -3.75 C 3.59375 -3.75 4.171875 -3.015625 4.171875 -2.15625 Z M 4.171875 -2.15625 "/>
</symbol>
</g>
<clipPath id="i1-clip1">
  <path d="M 115 72 L 150 72 L 150 80 L 115 80 Z M 115 72 "/>
</clipPath>
<clipPath id="i1-clip2">
  <path d="M 153 72 L 173 72 L 173 79 L 153 79 Z M 153 72 "/>
</clipPath>
<clipPath id="i1-clip3">
  <path d="M 188 72 L 208 72 L 208 79 L 188 79 Z M 188 72 "/>
</clipPath>
<clipPath id="i1-clip4">
  <path d="M 83 86 L 106 86 L 106 92.753906 L 83 92.753906 Z M 83 86 "/>
</clipPath>
</defs>
<g id="i1-surface6">
<g style="fill:rgb(0%,0%,0%);fill-opacity:1;">
  <use xlink:href="#i1-glyph0-1" x="77.431" y="78.863"/>
</g>
<g style="fill:rgb(0%,0%,0%);fill-opacity:1;">
  <use xlink:href="#i1-glyph0-2" x="84.347037" y="78.863"/>
  <use xlink:href="#i1-glyph0-3" x="89.605297" y="78.863"/>
</g>
<g style="fill:rgb(0%,0%,0%);fill-opacity:1;">
  <use xlink:href="#i1-glyph0-4" x="95.419471" y="78.863"/>
</g>
<g style="fill:rgb(0%,0%,0%);fill-opacity:1;">
  <use xlink:href="#i1-glyph1-1" x="103.168" y="78.863"/>
</g>
<g style="fill:rgb(0%,0%,0%);fill-opacity:1;">
  <use xlink:href="#i1-glyph0-5" x="108.398" y="78.863"/>
</g>
<g> <!-- clip-path="url(#clip1)" clip-rule="nonzero" -->
<g style="fill:rgb(0%,0%,0%);fill-opacity:1;">
  <use xlink:href="#i1-glyph0-6" x="115.589005" y="78.863"/>
  <use xlink:href="#i1-glyph0-4" x="122.922475" y="78.863"/>
  <use xlink:href="#i1-glyph0-7" x="127.35085" y="78.863"/>
  <use xlink:href="#i1-glyph0-8" x="131.779226" y="78.863"/>
  <use xlink:href="#i1-glyph0-9" x="136.760526" y="78.863"/>
  <use xlink:href="#i1-glyph0-10" x="140.662876" y="78.863"/>
  <use xlink:href="#i1-glyph0-11" x="146.198097" y="78.863"/>
</g>
</g>
<g> <!-- clip-path="url(#clip2)" clip-rule="nonzero" -->
<g style="fill:rgb(0%,0%,0%);fill-opacity:1;">
  <use xlink:href="#i1-glyph0-12" x="153.455851" y="78.863"/>
  <use xlink:href="#i1-glyph0-13" x="160.650841" y="78.863"/>
  <use xlink:href="#i1-glyph0-14" x="163.418451" y="78.863"/>
  <use xlink:href="#i1-glyph0-15" x="167.292906" y="78.863"/>
</g>
</g>
<g style="fill:rgb(0%,0%,0%);fill-opacity:1;">
  <use xlink:href="#i1-glyph0-16" x="176.145673" y="78.863"/>
  <use xlink:href="#i1-glyph0-14" x="181.126973" y="78.863"/>
</g>
<g> <!-- clip-path="url(#clip3)" clip-rule="nonzero" -->
<g style="fill:rgb(0%,0%,0%);fill-opacity:1;">
  <use xlink:href="#i1-glyph0-17" x="188.318973" y="78.863"/>
  <use xlink:href="#i1-glyph0-4" x="191.086584" y="78.863"/>
  <use xlink:href="#i1-glyph0-16" x="195.514959" y="78.863"/>
  <use xlink:href="#i1-glyph0-11" x="200.496259" y="78.863"/>
  <use xlink:href="#i1-glyph0-14" x="204.426505" y="78.863"/>
</g>
</g>
<g> <!-- clip-path="url(#clip4)" clip-rule="nonzero" -->
<g style="fill:rgb(0%,0%,0%);fill-opacity:1;">
  <use xlink:href="#i1-glyph0-7" x="82.814" y="90.818"/>
  <use xlink:href="#i1-glyph0-8" x="87.242376" y="90.818"/>
  <use xlink:href="#i1-glyph0-18" x="92.223676" y="90.818"/>
  <use xlink:href="#i1-glyph0-3" x="100.52551" y="90.818"/>
</g>
</g>
<g style="fill:rgb(0%,0%,0%);fill-opacity:1;">
  <use xlink:href="#i1-glyph0-8" x="106.339684" y="90.818"/>
  <use xlink:href="#i1-glyph0-19" x="111.320984" y="90.818"/>
  <use xlink:href="#i1-glyph0-4" x="116.856204" y="90.818"/>
  <use xlink:href="#i1-glyph0-19" x="121.28458" y="90.818"/>
</g>
<g style="fill:rgb(0%,0%,0%);fill-opacity:1;">
  <use xlink:href="#i1-glyph0-14" x="126.540848" y="90.818"/>
  <use xlink:href="#i1-glyph0-11" x="130.415303" y="90.818"/>
</g>
<g style="fill:rgb(0%,0%,0%);fill-opacity:1;">
  <use xlink:href="#i1-glyph0-19" x="137.663094" y="90.818"/>
  <use xlink:href="#i1-glyph0-16" x="143.198315" y="90.818"/>
  <use xlink:href="#i1-glyph0-18" x="148.179615" y="90.818"/>
  <use xlink:href="#i1-glyph0-4" x="156.481449" y="90.818"/>
  <use xlink:href="#i1-glyph0-10" x="160.909825" y="90.818"/>
</g>
<g style="fill:rgb(0%,0%,0%);fill-opacity:1;">
  <use xlink:href="#i1-glyph1-2" x="169.765" y="90.818"/>
</g>
<g style="fill:rgb(0%,0%,0%);fill-opacity:1;">
  <use xlink:href="#i1-glyph0-16" x="178.316" y="90.818"/>
  <use xlink:href="#i1-glyph0-19" x="183.2973" y="90.818"/>
  <use xlink:href="#i1-glyph0-10" x="188.832521" y="90.818"/>
</g>
<g style="fill:rgb(0%,0%,0%);fill-opacity:1;">
  <use xlink:href="#i1-glyph1-3" x="197.688" y="90.818"/>
</g>
</g>
</g>
  <g id="g3" transform="translate(-72, 78.274)scale(1.0, -1.0)">
<defs>
<g>
<symbol overflow="visible" id="i3-glyph0-0">
<path style="stroke:none;" d=""/>
</symbol>
<symbol overflow="visible" id="i3-glyph0-1">
<path style="stroke:none;" d="M 2.46875 0 L 2.46875 -0.3125 C 1.796875 -0.3125 1.765625 -0.359375 1.765625 -0.75 L 1.765625 -4.40625 L 0.375 -4.296875 L 0.375 -3.984375 C 1.015625 -3.984375 1.109375 -3.921875 1.109375 -3.4375 L 1.109375 -0.75 C 1.109375 -0.3125 1 -0.3125 0.328125 -0.3125 L 0.328125 0 L 1.421875 -0.03125 C 1.78125 -0.03125 2.125 -0.015625 2.46875 0 Z M 1.90625 -6.015625 C 1.90625 -6.296875 1.6875 -6.546875 1.390625 -6.546875 C 1.046875 -6.546875 0.84375 -6.265625 0.84375 -6.015625 C 0.84375 -5.75 1.078125 -5.5 1.375 -5.5 C 1.71875 -5.5 1.90625 -5.765625 1.90625 -6.015625 Z M 1.90625 -6.015625 "/>
</symbol>
<symbol overflow="visible" id="i3-glyph0-2">
<path style="stroke:none;" d="M 5.328125 0 L 5.328125 -0.3125 C 4.8125 -0.3125 4.5625 -0.3125 4.5625 -0.609375 L 4.5625 -2.515625 C 4.5625 -3.375 4.5625 -3.671875 4.25 -4.03125 C 4.109375 -4.203125 3.78125 -4.40625 3.203125 -4.40625 C 2.46875 -4.40625 2 -3.984375 1.71875 -3.359375 L 1.71875 -4.40625 L 0.3125 -4.296875 L 0.3125 -3.984375 C 1.015625 -3.984375 1.09375 -3.921875 1.09375 -3.421875 L 1.09375 -0.75 C 1.09375 -0.3125 0.984375 -0.3125 0.3125 -0.3125 L 0.3125 0 L 1.453125 -0.03125 L 2.5625 0 L 2.5625 -0.3125 C 1.890625 -0.3125 1.78125 -0.3125 1.78125 -0.75 L 1.78125 -2.59375 C 1.78125 -3.625 2.5 -4.1875 3.125 -4.1875 C 3.765625 -4.1875 3.875 -3.65625 3.875 -3.078125 L 3.875 -0.75 C 3.875 -0.3125 3.765625 -0.3125 3.09375 -0.3125 L 3.09375 0 L 4.21875 -0.03125 Z M 5.328125 0 "/>
</symbol>
<symbol overflow="visible" id="i3-glyph0-3">
<path style="stroke:none;" d="M 3.59375 -1.28125 C 3.59375 -1.796875 3.296875 -2.109375 3.171875 -2.21875 C 2.84375 -2.546875 2.453125 -2.625 2.03125 -2.703125 C 1.46875 -2.8125 0.8125 -2.9375 0.8125 -3.515625 C 0.8125 -3.875 1.0625 -4.28125 1.921875 -4.28125 C 3.015625 -4.28125 3.078125 -3.375 3.09375 -3.078125 C 3.09375 -2.984375 3.203125 -2.984375 3.203125 -2.984375 C 3.34375 -2.984375 3.34375 -3.03125 3.34375 -3.21875 L 3.34375 -4.234375 C 3.34375 -4.390625 3.34375 -4.46875 3.234375 -4.46875 C 3.1875 -4.46875 3.15625 -4.46875 3.03125 -4.34375 C 3 -4.3125 2.90625 -4.21875 2.859375 -4.1875 C 2.484375 -4.46875 2.078125 -4.46875 1.921875 -4.46875 C 0.703125 -4.46875 0.328125 -3.796875 0.328125 -3.234375 C 0.328125 -2.890625 0.484375 -2.609375 0.75 -2.390625 C 1.078125 -2.140625 1.359375 -2.078125 2.078125 -1.9375 C 2.296875 -1.890625 3.109375 -1.734375 3.109375 -1.015625 C 3.109375 -0.515625 2.765625 -0.109375 1.984375 -0.109375 C 1.140625 -0.109375 0.78125 -0.671875 0.59375 -1.53125 C 0.5625 -1.65625 0.5625 -1.6875 0.453125 -1.6875 C 0.328125 -1.6875 0.328125 -1.625 0.328125 -1.453125 L 0.328125 -0.125 C 0.328125 0.046875 0.328125 0.109375 0.4375 0.109375 C 0.484375 0.109375 0.5 0.09375 0.6875 -0.09375 C 0.703125 -0.109375 0.703125 -0.125 0.890625 -0.3125 C 1.328125 0.09375 1.78125 0.109375 1.984375 0.109375 C 3.125 0.109375 3.59375 -0.5625 3.59375 -1.28125 Z M 3.59375 -1.28125 "/>
</symbol>
<symbol overflow="visible" id="i3-glyph0-4">
<path style="stroke:none;" d="M 3.3125 -1.234375 L 3.3125 -1.796875 L 3.0625 -1.796875 L 3.0625 -1.25 C 3.0625 -0.515625 2.765625 -0.140625 2.390625 -0.140625 C 1.71875 -0.140625 1.71875 -1.046875 1.71875 -1.21875 L 1.71875 -3.984375 L 3.15625 -3.984375 L 3.15625 -4.296875 L 1.71875 -4.296875 L 1.71875 -6.125 L 1.46875 -6.125 C 1.46875 -5.3125 1.171875 -4.25 0.1875 -4.203125 L 0.1875 -3.984375 L 1.03125 -3.984375 L 1.03125 -1.234375 C 1.03125 -0.015625 1.96875 0.109375 2.328125 0.109375 C 3.03125 0.109375 3.3125 -0.59375 3.3125 -1.234375 Z M 3.3125 -1.234375 "/>
</symbol>
<symbol overflow="visible" id="i3-glyph0-5">
<path style="stroke:none;" d="M 4.8125 -0.890625 L 4.8125 -1.453125 L 4.5625 -1.453125 L 4.5625 -0.890625 C 4.5625 -0.3125 4.3125 -0.25 4.203125 -0.25 C 3.875 -0.25 3.84375 -0.703125 3.84375 -0.75 L 3.84375 -2.734375 C 3.84375 -3.15625 3.84375 -3.546875 3.484375 -3.921875 C 3.09375 -4.3125 2.59375 -4.46875 2.109375 -4.46875 C 1.296875 -4.46875 0.609375 -4 0.609375 -3.34375 C 0.609375 -3.046875 0.8125 -2.875 1.0625 -2.875 C 1.34375 -2.875 1.53125 -3.078125 1.53125 -3.328125 C 1.53125 -3.453125 1.46875 -3.78125 1.015625 -3.78125 C 1.28125 -4.140625 1.78125 -4.25 2.09375 -4.25 C 2.578125 -4.25 3.15625 -3.859375 3.15625 -2.96875 L 3.15625 -2.609375 C 2.640625 -2.578125 1.9375 -2.546875 1.3125 -2.25 C 0.5625 -1.90625 0.3125 -1.390625 0.3125 -0.953125 C 0.3125 -0.140625 1.28125 0.109375 1.90625 0.109375 C 2.578125 0.109375 3.03125 -0.296875 3.21875 -0.75 C 3.265625 -0.359375 3.53125 0.0625 4 0.0625 C 4.203125 0.0625 4.8125 -0.078125 4.8125 -0.890625 Z M 3.15625 -1.390625 C 3.15625 -0.453125 2.4375 -0.109375 1.984375 -0.109375 C 1.5 -0.109375 1.09375 -0.453125 1.09375 -0.953125 C 1.09375 -1.5 1.5 -2.328125 3.15625 -2.390625 Z M 3.15625 -1.390625 "/>
</symbol>
<symbol overflow="visible" id="i3-glyph0-6">
<path style="stroke:none;" d="M 4.140625 -1.1875 C 4.140625 -1.28125 4.03125 -1.28125 4 -1.28125 C 3.921875 -1.28125 3.890625 -1.25 3.875 -1.1875 C 3.59375 -0.265625 2.9375 -0.140625 2.578125 -0.140625 C 2.046875 -0.140625 1.171875 -0.5625 1.171875 -2.171875 C 1.171875 -3.796875 1.984375 -4.21875 2.515625 -4.21875 C 2.609375 -4.21875 3.234375 -4.203125 3.578125 -3.84375 C 3.171875 -3.8125 3.109375 -3.515625 3.109375 -3.390625 C 3.109375 -3.125 3.296875 -2.9375 3.5625 -2.9375 C 3.828125 -2.9375 4.03125 -3.09375 4.03125 -3.40625 C 4.03125 -4.078125 3.265625 -4.46875 2.5 -4.46875 C 1.25 -4.46875 0.34375 -3.390625 0.34375 -2.15625 C 0.34375 -0.875 1.328125 0.109375 2.484375 0.109375 C 3.8125 0.109375 4.140625 -1.09375 4.140625 -1.1875 Z M 4.140625 -1.1875 "/>
</symbol>
<symbol overflow="visible" id="i3-glyph0-7">
<path style="stroke:none;" d="M 4.140625 -1.1875 C 4.140625 -1.28125 4.0625 -1.3125 4 -1.3125 C 3.921875 -1.3125 3.890625 -1.25 3.875 -1.171875 C 3.53125 -0.140625 2.625 -0.140625 2.53125 -0.140625 C 2.03125 -0.140625 1.640625 -0.4375 1.40625 -0.8125 C 1.109375 -1.28125 1.109375 -1.9375 1.109375 -2.296875 L 3.890625 -2.296875 C 4.109375 -2.296875 4.140625 -2.296875 4.140625 -2.515625 C 4.140625 -3.5 3.59375 -4.46875 2.359375 -4.46875 C 1.203125 -4.46875 0.28125 -3.4375 0.28125 -2.1875 C 0.28125 -0.859375 1.328125 0.109375 2.46875 0.109375 C 3.6875 0.109375 4.140625 -1 4.140625 -1.1875 Z M 3.484375 -2.515625 L 1.109375 -2.515625 C 1.171875 -4 2.015625 -4.25 2.359375 -4.25 C 3.375 -4.25 3.484375 -2.90625 3.484375 -2.515625 Z M 3.484375 -2.515625 "/>
</symbol>
<symbol overflow="visible" id="i3-glyph1-0">
<path style="stroke:none;" d=""/>
</symbol>
<symbol overflow="visible" id="i3-glyph1-1">
<path style="stroke:none;" d="M 4.859375 -3.734375 C 4.859375 -3.9375 4.734375 -4.359375 3.90625 -4.359375 C 3.40625 -4.359375 2.765625 -4.171875 2.21875 -3.546875 L 2.21875 -3.890625 C 2.21875 -4.203125 2.15625 -4.296875 1.8125 -4.296875 L 0.71875 -4.296875 C 0.5625 -4.296875 0.3125 -4.296875 0.3125 -4 C 0.3125 -3.6875 0.5625 -3.6875 0.71875 -3.6875 L 1.53125 -3.6875 L 1.53125 -0.609375 L 0.71875 -0.609375 C 0.5625 -0.609375 0.3125 -0.609375 0.3125 -0.3125 C 0.3125 0 0.5625 0 0.71875 0 L 3.3125 0 C 3.46875 0 3.734375 0 3.734375 -0.296875 C 3.734375 -0.609375 3.46875 -0.609375 3.3125 -0.609375 L 2.21875 -0.609375 L 2.21875 -1.859375 C 2.21875 -2.796875 2.796875 -3.75 4 -3.75 C 4.015625 -3.515625 4.1875 -3.3125 4.4375 -3.3125 C 4.65625 -3.3125 4.859375 -3.46875 4.859375 -3.734375 Z M 4.859375 -3.734375 "/>
</symbol>
</g>
<clipPath id="i3-clip1">
  <path d="M 72 72 L 108 72 L 108 78.273438 L 72 78.273438 Z M 72 72 "/>
</clipPath>
<clipPath id="i3-clip2">
  <path d="M 111 73 L 116 73 L 116 78.273438 L 111 78.273438 Z M 111 73 "/>
</clipPath>
</defs>
<g id="i3-surface16">
<g> <!-- clip-path="url(#clip1)" clip-rule="nonzero" -->
<g style="fill:rgb(0%,0%,0%);fill-opacity:1;">
  <use xlink:href="#i3-glyph0-1" x="72" y="78.274"/>
  <use xlink:href="#i3-glyph0-2" x="74.76761" y="78.274"/>
  <use xlink:href="#i3-glyph0-3" x="80.302831" y="78.274"/>
  <use xlink:href="#i3-glyph0-4" x="84.233077" y="78.274"/>
  <use xlink:href="#i3-glyph0-5" x="88.107532" y="78.274"/>
  <use xlink:href="#i3-glyph0-2" x="93.088832" y="78.274"/>
  <use xlink:href="#i3-glyph0-6" x="98.624052" y="78.274"/>
  <use xlink:href="#i3-glyph0-7" x="103.052428" y="78.274"/>
</g>
</g>
<g> <!-- clip-path="url(#clip2)" clip-rule="nonzero" -->
<g style="fill:rgb(0%,0%,0%);fill-opacity:1;">
  <use xlink:href="#i3-glyph1-1" x="110.799" y="78.274"/>
</g>
</g>
</g>
</g>
  <g id="g2" transform="translate(-72, 85.0066)scale(1.0, -1.0)">
<defs>
<g>
<symbol overflow="visible" id="i2-glyph0-0">
<path style="stroke:none;" d=""/>
</symbol>
<symbol overflow="visible" id="i2-glyph0-1">
<path style="stroke:none;" d="M 6.828125 -4.5 L 6.640625 -6.75 L 0.546875 -6.75 L 0.359375 -4.5 L 0.609375 -4.5 C 0.75 -6.109375 0.890625 -6.4375 2.40625 -6.4375 C 2.578125 -6.4375 2.84375 -6.4375 2.9375 -6.421875 C 3.15625 -6.375 3.15625 -6.265625 3.15625 -6.046875 L 3.15625 -0.78125 C 3.15625 -0.453125 3.15625 -0.3125 2.109375 -0.3125 L 1.703125 -0.3125 L 1.703125 0 C 2.109375 -0.03125 3.125 -0.03125 3.59375 -0.03125 C 4.046875 -0.03125 5.078125 -0.03125 5.484375 0 L 5.484375 -0.3125 L 5.078125 -0.3125 C 4.03125 -0.3125 4.03125 -0.453125 4.03125 -0.78125 L 4.03125 -6.046875 C 4.03125 -6.234375 4.03125 -6.375 4.21875 -6.421875 C 4.328125 -6.4375 4.59375 -6.4375 4.78125 -6.4375 C 6.296875 -6.4375 6.4375 -6.109375 6.578125 -4.5 Z M 6.828125 -4.5 "/>
</symbol>
<symbol overflow="visible" id="i2-glyph0-2">
<path style="stroke:none;" d="M 5.0625 -3.984375 L 5.0625 -4.296875 C 4.828125 -4.28125 4.546875 -4.265625 4.3125 -4.265625 L 3.453125 -4.296875 L 3.453125 -3.984375 C 3.765625 -3.984375 3.921875 -3.8125 3.921875 -3.5625 C 3.921875 -3.453125 3.90625 -3.4375 3.859375 -3.3125 L 2.84375 -0.875 L 1.75 -3.546875 C 1.703125 -3.65625 1.6875 -3.6875 1.6875 -3.734375 C 1.6875 -3.984375 2.046875 -3.984375 2.25 -3.984375 L 2.25 -4.296875 L 1.15625 -4.265625 C 0.890625 -4.265625 0.484375 -4.28125 0.1875 -4.296875 L 0.1875 -3.984375 C 0.671875 -3.984375 0.859375 -3.984375 1 -3.640625 L 2.5 0 L 2.25 0.59375 C 2.03125 1.140625 1.75 1.828125 1.109375 1.828125 C 1.0625 1.828125 0.828125 1.828125 0.640625 1.640625 C 0.953125 1.609375 1.03125 1.390625 1.03125 1.21875 C 1.03125 0.96875 0.84375 0.8125 0.609375 0.8125 C 0.40625 0.8125 0.1875 0.9375 0.1875 1.234375 C 0.1875 1.6875 0.609375 2.046875 1.109375 2.046875 C 1.734375 2.046875 2.140625 1.46875 2.375 0.90625 L 4.140625 -3.34375 C 4.390625 -3.984375 4.90625 -3.984375 5.0625 -3.984375 Z M 5.0625 -3.984375 "/>
</symbol>
<symbol overflow="visible" id="i2-glyph0-3">
<path style="stroke:none;" d="M 5.1875 -2.15625 C 5.1875 -3.421875 4.234375 -4.40625 3.109375 -4.40625 C 2.328125 -4.40625 1.90625 -3.96875 1.71875 -3.75 L 1.71875 -4.40625 L 0.28125 -4.296875 L 0.28125 -3.984375 C 0.984375 -3.984375 1.0625 -3.921875 1.0625 -3.484375 L 1.0625 1.171875 C 1.0625 1.625 0.953125 1.625 0.28125 1.625 L 0.28125 1.9375 L 1.390625 1.90625 L 2.515625 1.9375 L 2.515625 1.625 C 1.859375 1.625 1.75 1.625 1.75 1.171875 L 1.75 -0.59375 C 1.796875 -0.421875 2.21875 0.109375 2.96875 0.109375 C 4.15625 0.109375 5.1875 -0.875 5.1875 -2.15625 Z M 4.359375 -2.15625 C 4.359375 -0.953125 3.671875 -0.109375 2.9375 -0.109375 C 2.53125 -0.109375 2.15625 -0.3125 1.890625 -0.71875 C 1.75 -0.921875 1.75 -0.9375 1.75 -1.140625 L 1.75 -3.359375 C 2.03125 -3.875 2.515625 -4.15625 3.03125 -4.15625 C 3.765625 -4.15625 4.359375 -3.28125 4.359375 -2.15625 Z M 4.359375 -2.15625 "/>
</symbol>
<symbol overflow="visible" id="i2-glyph0-4">
<path style="stroke:none;" d="M 4.140625 -1.1875 C 4.140625 -1.28125 4.0625 -1.3125 4 -1.3125 C 3.921875 -1.3125 3.890625 -1.25 3.875 -1.171875 C 3.53125 -0.140625 2.625 -0.140625 2.53125 -0.140625 C 2.03125 -0.140625 1.640625 -0.4375 1.40625 -0.8125 C 1.109375 -1.28125 1.109375 -1.9375 1.109375 -2.296875 L 3.890625 -2.296875 C 4.109375 -2.296875 4.140625 -2.296875 4.140625 -2.515625 C 4.140625 -3.5 3.59375 -4.46875 2.359375 -4.46875 C 1.203125 -4.46875 0.28125 -3.4375 0.28125 -2.1875 C 0.28125 -0.859375 1.328125 0.109375 2.46875 0.109375 C 3.6875 0.109375 4.140625 -1 4.140625 -1.1875 Z M 3.484375 -2.515625 L 1.109375 -2.515625 C 1.171875 -4 2.015625 -4.25 2.359375 -4.25 C 3.375 -4.25 3.484375 -2.90625 3.484375 -2.515625 Z M 3.484375 -2.515625 "/>
</symbol>
<symbol overflow="visible" id="i2-glyph0-5">
<path style="stroke:none;" d="M 1.90625 -3.765625 C 1.90625 -4.0625 1.671875 -4.296875 1.390625 -4.296875 C 1.09375 -4.296875 0.859375 -4.0625 0.859375 -3.765625 C 0.859375 -3.484375 1.09375 -3.234375 1.390625 -3.234375 C 1.671875 -3.234375 1.90625 -3.484375 1.90625 -3.765625 Z M 1.90625 -0.53125 C 1.90625 -0.8125 1.671875 -1.0625 1.390625 -1.0625 C 1.09375 -1.0625 0.859375 -0.8125 0.859375 -0.53125 C 0.859375 -0.234375 1.09375 0 1.390625 0 C 1.671875 0 1.90625 -0.234375 1.90625 -0.53125 Z M 1.90625 -0.53125 "/>
</symbol>
<symbol overflow="visible" id="i2-glyph0-6">
<path style="stroke:none;" d="M 7.296875 -0.875 C 7.296875 -0.9375 7.296875 -1.046875 7.171875 -1.046875 C 7.0625 -1.046875 7.0625 -0.953125 7.046875 -0.890625 C 6.984375 -0.171875 6.640625 0 6.390625 0 C 5.90625 0 5.828125 -0.515625 5.6875 -1.4375 L 5.546875 -2.234375 C 5.375 -2.875 4.890625 -3.203125 4.34375 -3.390625 C 5.296875 -3.625 6.078125 -4.234375 6.078125 -5.015625 C 6.078125 -5.96875 4.9375 -6.8125 3.484375 -6.8125 L 0.34375 -6.8125 L 0.34375 -6.5 L 0.59375 -6.5 C 1.359375 -6.5 1.375 -6.390625 1.375 -6.03125 L 1.375 -0.78125 C 1.375 -0.421875 1.359375 -0.3125 0.59375 -0.3125 L 0.34375 -0.3125 L 0.34375 0 C 0.703125 -0.03125 1.421875 -0.03125 1.796875 -0.03125 C 2.1875 -0.03125 2.90625 -0.03125 3.265625 0 L 3.265625 -0.3125 L 3.015625 -0.3125 C 2.25 -0.3125 2.234375 -0.421875 2.234375 -0.78125 L 2.234375 -3.296875 L 3.375 -3.296875 C 3.53125 -3.296875 3.953125 -3.296875 4.3125 -2.953125 C 4.6875 -2.609375 4.6875 -2.296875 4.6875 -1.625 C 4.6875 -0.984375 4.6875 -0.578125 5.09375 -0.203125 C 5.5 0.15625 6.046875 0.21875 6.34375 0.21875 C 7.125 0.21875 7.296875 -0.59375 7.296875 -0.875 Z M 5.046875 -5.015625 C 5.046875 -4.328125 4.8125 -3.515625 3.34375 -3.515625 L 2.234375 -3.515625 L 2.234375 -6.09375 C 2.234375 -6.328125 2.234375 -6.453125 2.453125 -6.484375 C 2.546875 -6.5 2.84375 -6.5 3.046875 -6.5 C 3.9375 -6.5 5.046875 -6.453125 5.046875 -5.015625 Z M 5.046875 -5.015625 "/>
</symbol>
<symbol overflow="visible" id="i2-glyph0-7">
<path style="stroke:none;" d="M 4.140625 -1.1875 C 4.140625 -1.28125 4.03125 -1.28125 4 -1.28125 C 3.921875 -1.28125 3.890625 -1.25 3.875 -1.1875 C 3.59375 -0.265625 2.9375 -0.140625 2.578125 -0.140625 C 2.046875 -0.140625 1.171875 -0.5625 1.171875 -2.171875 C 1.171875 -3.796875 1.984375 -4.21875 2.515625 -4.21875 C 2.609375 -4.21875 3.234375 -4.203125 3.578125 -3.84375 C 3.171875 -3.8125 3.109375 -3.515625 3.109375 -3.390625 C 3.109375 -3.125 3.296875 -2.9375 3.5625 -2.9375 C 3.828125 -2.9375 4.03125 -3.09375 4.03125 -3.40625 C 4.03125 -4.078125 3.265625 -4.46875 2.5 -4.46875 C 1.25 -4.46875 0.34375 -3.390625 0.34375 -2.15625 C 0.34375 -0.875 1.328125 0.109375 2.484375 0.109375 C 3.8125 0.109375 4.140625 -1.09375 4.140625 -1.1875 Z M 4.140625 -1.1875 "/>
</symbol>
<symbol overflow="visible" id="i2-glyph0-8">
<path style="stroke:none;" d="M 4.6875 -2.140625 C 4.6875 -3.40625 3.703125 -4.46875 2.5 -4.46875 C 1.25 -4.46875 0.28125 -3.375 0.28125 -2.140625 C 0.28125 -0.84375 1.3125 0.109375 2.484375 0.109375 C 3.6875 0.109375 4.6875 -0.875 4.6875 -2.140625 Z M 3.875 -2.21875 C 3.875 -1.859375 3.875 -1.3125 3.65625 -0.875 C 3.421875 -0.421875 2.984375 -0.140625 2.5 -0.140625 C 2.0625 -0.140625 1.625 -0.34375 1.359375 -0.8125 C 1.109375 -1.25 1.109375 -1.859375 1.109375 -2.21875 C 1.109375 -2.609375 1.109375 -3.140625 1.34375 -3.578125 C 1.609375 -4.03125 2.078125 -4.25 2.484375 -4.25 C 2.921875 -4.25 3.34375 -4.03125 3.609375 -3.59375 C 3.875 -3.171875 3.875 -2.59375 3.875 -2.21875 Z M 3.875 -2.21875 "/>
</symbol>
<symbol overflow="visible" id="i2-glyph0-9">
<path style="stroke:none;" d="M 3.625 -3.796875 C 3.625 -4.109375 3.3125 -4.40625 2.890625 -4.40625 C 2.15625 -4.40625 1.796875 -3.734375 1.671875 -3.3125 L 1.671875 -4.40625 L 0.28125 -4.296875 L 0.28125 -3.984375 C 0.984375 -3.984375 1.0625 -3.921875 1.0625 -3.421875 L 1.0625 -0.75 C 1.0625 -0.3125 0.953125 -0.3125 0.28125 -0.3125 L 0.28125 0 L 1.421875 -0.03125 C 1.8125 -0.03125 2.28125 -0.03125 2.6875 0 L 2.6875 -0.3125 L 2.46875 -0.3125 C 1.734375 -0.3125 1.71875 -0.421875 1.71875 -0.78125 L 1.71875 -2.3125 C 1.71875 -3.296875 2.140625 -4.1875 2.890625 -4.1875 C 2.953125 -4.1875 2.984375 -4.1875 3 -4.171875 C 2.96875 -4.171875 2.765625 -4.046875 2.765625 -3.78125 C 2.765625 -3.515625 2.984375 -3.359375 3.203125 -3.359375 C 3.375 -3.359375 3.625 -3.484375 3.625 -3.796875 Z M 3.625 -3.796875 "/>
</symbol>
<symbol overflow="visible" id="i2-glyph0-10">
<path style="stroke:none;" d="M 5.25 0 L 5.25 -0.3125 C 4.5625 -0.3125 4.46875 -0.375 4.46875 -0.875 L 4.46875 -6.921875 L 3.046875 -6.8125 L 3.046875 -6.5 C 3.734375 -6.5 3.8125 -6.4375 3.8125 -5.9375 L 3.8125 -3.78125 C 3.53125 -4.140625 3.09375 -4.40625 2.5625 -4.40625 C 1.390625 -4.40625 0.34375 -3.421875 0.34375 -2.140625 C 0.34375 -0.875 1.3125 0.109375 2.453125 0.109375 C 3.09375 0.109375 3.53125 -0.234375 3.78125 -0.546875 L 3.78125 0.109375 Z M 3.78125 -1.171875 C 3.78125 -1 3.78125 -0.984375 3.671875 -0.8125 C 3.375 -0.328125 2.9375 -0.109375 2.5 -0.109375 C 2.046875 -0.109375 1.6875 -0.375 1.453125 -0.75 C 1.203125 -1.15625 1.171875 -1.71875 1.171875 -2.140625 C 1.171875 -2.5 1.1875 -3.09375 1.46875 -3.546875 C 1.6875 -3.859375 2.0625 -4.1875 2.609375 -4.1875 C 2.953125 -4.1875 3.375 -4.03125 3.671875 -3.59375 C 3.78125 -3.421875 3.78125 -3.40625 3.78125 -3.21875 Z M 3.78125 -1.171875 "/>
</symbol>
<symbol overflow="visible" id="i2-glyph0-11">
<path style="stroke:none;" d="M 3.59375 -1.28125 C 3.59375 -1.796875 3.296875 -2.109375 3.171875 -2.21875 C 2.84375 -2.546875 2.453125 -2.625 2.03125 -2.703125 C 1.46875 -2.8125 0.8125 -2.9375 0.8125 -3.515625 C 0.8125 -3.875 1.0625 -4.28125 1.921875 -4.28125 C 3.015625 -4.28125 3.078125 -3.375 3.09375 -3.078125 C 3.09375 -2.984375 3.203125 -2.984375 3.203125 -2.984375 C 3.34375 -2.984375 3.34375 -3.03125 3.34375 -3.21875 L 3.34375 -4.234375 C 3.34375 -4.390625 3.34375 -4.46875 3.234375 -4.46875 C 3.1875 -4.46875 3.15625 -4.46875 3.03125 -4.34375 C 3 -4.3125 2.90625 -4.21875 2.859375 -4.1875 C 2.484375 -4.46875 2.078125 -4.46875 1.921875 -4.46875 C 0.703125 -4.46875 0.328125 -3.796875 0.328125 -3.234375 C 0.328125 -2.890625 0.484375 -2.609375 0.75 -2.390625 C 1.078125 -2.140625 1.359375 -2.078125 2.078125 -1.9375 C 2.296875 -1.890625 3.109375 -1.734375 3.109375 -1.015625 C 3.109375 -0.515625 2.765625 -0.109375 1.984375 -0.109375 C 1.140625 -0.109375 0.78125 -0.671875 0.59375 -1.53125 C 0.5625 -1.65625 0.5625 -1.6875 0.453125 -1.6875 C 0.328125 -1.6875 0.328125 -1.625 0.328125 -1.453125 L 0.328125 -0.125 C 0.328125 0.046875 0.328125 0.109375 0.4375 0.109375 C 0.484375 0.109375 0.5 0.09375 0.6875 -0.09375 C 0.703125 -0.109375 0.703125 -0.125 0.890625 -0.3125 C 1.328125 0.09375 1.78125 0.109375 1.984375 0.109375 C 3.125 0.109375 3.59375 -0.5625 3.59375 -1.28125 Z M 3.59375 -1.28125 "/>
</symbol>
<symbol overflow="visible" id="i2-glyph0-12">
<path style="stroke:none;" d="M 7.015625 -3.984375 L 7.015625 -4.296875 C 6.78125 -4.28125 6.5 -4.265625 6.28125 -4.265625 L 5.359375 -4.296875 L 5.359375 -3.984375 C 5.71875 -3.984375 5.9375 -3.796875 5.9375 -3.515625 C 5.9375 -3.453125 5.9375 -3.421875 5.875 -3.296875 L 4.96875 -0.75 L 3.984375 -3.53125 C 3.953125 -3.65625 3.9375 -3.671875 3.9375 -3.71875 C 3.9375 -3.984375 4.328125 -3.984375 4.53125 -3.984375 L 4.53125 -4.296875 L 3.484375 -4.265625 C 3.1875 -4.265625 2.90625 -4.28125 2.609375 -4.296875 L 2.609375 -3.984375 C 2.96875 -3.984375 3.125 -3.96875 3.234375 -3.84375 C 3.28125 -3.78125 3.390625 -3.484375 3.453125 -3.296875 L 2.609375 -0.875 L 1.65625 -3.53125 C 1.609375 -3.65625 1.609375 -3.671875 1.609375 -3.71875 C 1.609375 -3.984375 2 -3.984375 2.1875 -3.984375 L 2.1875 -4.296875 L 1.109375 -4.265625 L 0.171875 -4.296875 L 0.171875 -3.984375 C 0.671875 -3.984375 0.796875 -3.953125 0.921875 -3.640625 L 2.171875 -0.109375 C 2.21875 0.03125 2.25 0.109375 2.375 0.109375 C 2.515625 0.109375 2.53125 0.046875 2.578125 -0.09375 L 3.59375 -2.90625 L 4.609375 -0.078125 C 4.640625 0.03125 4.671875 0.109375 4.8125 0.109375 C 4.9375 0.109375 4.96875 0.015625 5 -0.078125 L 6.171875 -3.34375 C 6.34375 -3.84375 6.65625 -3.984375 7.015625 -3.984375 Z M 7.015625 -3.984375 "/>
</symbol>
<symbol overflow="visible" id="i2-glyph0-13">
<path style="stroke:none;" d="M 2.46875 0 L 2.46875 -0.3125 C 1.796875 -0.3125 1.765625 -0.359375 1.765625 -0.75 L 1.765625 -4.40625 L 0.375 -4.296875 L 0.375 -3.984375 C 1.015625 -3.984375 1.109375 -3.921875 1.109375 -3.4375 L 1.109375 -0.75 C 1.109375 -0.3125 1 -0.3125 0.328125 -0.3125 L 0.328125 0 L 1.421875 -0.03125 C 1.78125 -0.03125 2.125 -0.015625 2.46875 0 Z M 1.90625 -6.015625 C 1.90625 -6.296875 1.6875 -6.546875 1.390625 -6.546875 C 1.046875 -6.546875 0.84375 -6.265625 0.84375 -6.015625 C 0.84375 -5.75 1.078125 -5.5 1.375 -5.5 C 1.71875 -5.5 1.90625 -5.765625 1.90625 -6.015625 Z M 1.90625 -6.015625 "/>
</symbol>
<symbol overflow="visible" id="i2-glyph0-14">
<path style="stroke:none;" d="M 3.3125 -1.234375 L 3.3125 -1.796875 L 3.0625 -1.796875 L 3.0625 -1.25 C 3.0625 -0.515625 2.765625 -0.140625 2.390625 -0.140625 C 1.71875 -0.140625 1.71875 -1.046875 1.71875 -1.21875 L 1.71875 -3.984375 L 3.15625 -3.984375 L 3.15625 -4.296875 L 1.71875 -4.296875 L 1.71875 -6.125 L 1.46875 -6.125 C 1.46875 -5.3125 1.171875 -4.25 0.1875 -4.203125 L 0.1875 -3.984375 L 1.03125 -3.984375 L 1.03125 -1.234375 C 1.03125 -0.015625 1.96875 0.109375 2.328125 0.109375 C 3.03125 0.109375 3.3125 -0.59375 3.3125 -1.234375 Z M 3.3125 -1.234375 "/>
</symbol>
<symbol overflow="visible" id="i2-glyph0-15">
<path style="stroke:none;" d="M 5.328125 0 L 5.328125 -0.3125 C 4.8125 -0.3125 4.5625 -0.3125 4.5625 -0.609375 L 4.5625 -2.515625 C 4.5625 -3.375 4.5625 -3.671875 4.25 -4.03125 C 4.109375 -4.203125 3.78125 -4.40625 3.203125 -4.40625 C 2.359375 -4.40625 1.921875 -3.8125 1.765625 -3.453125 L 1.75 -3.453125 L 1.75 -6.921875 L 0.3125 -6.8125 L 0.3125 -6.5 C 1.015625 -6.5 1.09375 -6.4375 1.09375 -5.9375 L 1.09375 -0.75 C 1.09375 -0.3125 0.984375 -0.3125 0.3125 -0.3125 L 0.3125 0 L 1.453125 -0.03125 L 2.5625 0 L 2.5625 -0.3125 C 1.890625 -0.3125 1.78125 -0.3125 1.78125 -0.75 L 1.78125 -2.59375 C 1.78125 -3.625 2.5 -4.1875 3.125 -4.1875 C 3.765625 -4.1875 3.875 -3.65625 3.875 -3.078125 L 3.875 -0.75 C 3.875 -0.3125 3.765625 -0.3125 3.09375 -0.3125 L 3.09375 0 L 4.21875 -0.03125 Z M 5.328125 0 "/>
</symbol>
<symbol overflow="visible" id="i2-glyph0-16">
<path style="stroke:none;" d="M 4.8125 -0.890625 L 4.8125 -1.453125 L 4.5625 -1.453125 L 4.5625 -0.890625 C 4.5625 -0.3125 4.3125 -0.25 4.203125 -0.25 C 3.875 -0.25 3.84375 -0.703125 3.84375 -0.75 L 3.84375 -2.734375 C 3.84375 -3.15625 3.84375 -3.546875 3.484375 -3.921875 C 3.09375 -4.3125 2.59375 -4.46875 2.109375 -4.46875 C 1.296875 -4.46875 0.609375 -4 0.609375 -3.34375 C 0.609375 -3.046875 0.8125 -2.875 1.0625 -2.875 C 1.34375 -2.875 1.53125 -3.078125 1.53125 -3.328125 C 1.53125 -3.453125 1.46875 -3.78125 1.015625 -3.78125 C 1.28125 -4.140625 1.78125 -4.25 2.09375 -4.25 C 2.578125 -4.25 3.15625 -3.859375 3.15625 -2.96875 L 3.15625 -2.609375 C 2.640625 -2.578125 1.9375 -2.546875 1.3125 -2.25 C 0.5625 -1.90625 0.3125 -1.390625 0.3125 -0.953125 C 0.3125 -0.140625 1.28125 0.109375 1.90625 0.109375 C 2.578125 0.109375 3.03125 -0.296875 3.21875 -0.75 C 3.265625 -0.359375 3.53125 0.0625 4 0.0625 C 4.203125 0.0625 4.8125 -0.078125 4.8125 -0.890625 Z M 3.15625 -1.390625 C 3.15625 -0.453125 2.4375 -0.109375 1.984375 -0.109375 C 1.5 -0.109375 1.09375 -0.453125 1.09375 -0.953125 C 1.09375 -1.5 1.5 -2.328125 3.15625 -2.390625 Z M 3.15625 -1.390625 "/>
</symbol>
<symbol overflow="visible" id="i2-glyph0-17">
<path style="stroke:none;" d="M 2.546875 0 L 2.546875 -0.3125 C 1.875 -0.3125 1.765625 -0.3125 1.765625 -0.75 L 1.765625 -6.921875 L 0.328125 -6.8125 L 0.328125 -6.5 C 1.03125 -6.5 1.109375 -6.4375 1.109375 -5.9375 L 1.109375 -0.75 C 1.109375 -0.3125 1 -0.3125 0.328125 -0.3125 L 0.328125 0 L 1.4375 -0.03125 Z M 2.546875 0 "/>
</symbol>
<symbol overflow="visible" id="i2-glyph0-18">
<path style="stroke:none;" d="M 8.109375 0 L 8.109375 -0.3125 C 7.59375 -0.3125 7.34375 -0.3125 7.328125 -0.609375 L 7.328125 -2.515625 C 7.328125 -3.375 7.328125 -3.671875 7.015625 -4.03125 C 6.875 -4.203125 6.546875 -4.40625 5.96875 -4.40625 C 5.140625 -4.40625 4.6875 -3.8125 4.53125 -3.421875 C 4.390625 -4.296875 3.65625 -4.40625 3.203125 -4.40625 C 2.46875 -4.40625 2 -3.984375 1.71875 -3.359375 L 1.71875 -4.40625 L 0.3125 -4.296875 L 0.3125 -3.984375 C 1.015625 -3.984375 1.09375 -3.921875 1.09375 -3.421875 L 1.09375 -0.75 C 1.09375 -0.3125 0.984375 -0.3125 0.3125 -0.3125 L 0.3125 0 L 1.453125 -0.03125 L 2.5625 0 L 2.5625 -0.3125 C 1.890625 -0.3125 1.78125 -0.3125 1.78125 -0.75 L 1.78125 -2.59375 C 1.78125 -3.625 2.5 -4.1875 3.125 -4.1875 C 3.765625 -4.1875 3.875 -3.65625 3.875 -3.078125 L 3.875 -0.75 C 3.875 -0.3125 3.765625 -0.3125 3.09375 -0.3125 L 3.09375 0 L 4.21875 -0.03125 L 5.328125 0 L 5.328125 -0.3125 C 4.671875 -0.3125 4.5625 -0.3125 4.5625 -0.75 L 4.5625 -2.59375 C 4.5625 -3.625 5.265625 -4.1875 5.90625 -4.1875 C 6.53125 -4.1875 6.640625 -3.65625 6.640625 -3.078125 L 6.640625 -0.75 C 6.640625 -0.3125 6.53125 -0.3125 5.859375 -0.3125 L 5.859375 0 L 6.984375 -0.03125 Z M 8.109375 0 "/>
</symbol>
<symbol overflow="visible" id="i2-glyph0-19">
<path style="stroke:none;" d="M 5.328125 0 L 5.328125 -0.3125 C 4.8125 -0.3125 4.5625 -0.3125 4.5625 -0.609375 L 4.5625 -2.515625 C 4.5625 -3.375 4.5625 -3.671875 4.25 -4.03125 C 4.109375 -4.203125 3.78125 -4.40625 3.203125 -4.40625 C 2.46875 -4.40625 2 -3.984375 1.71875 -3.359375 L 1.71875 -4.40625 L 0.3125 -4.296875 L 0.3125 -3.984375 C 1.015625 -3.984375 1.09375 -3.921875 1.09375 -3.421875 L 1.09375 -0.75 C 1.09375 -0.3125 0.984375 -0.3125 0.3125 -0.3125 L 0.3125 0 L 1.453125 -0.03125 L 2.5625 0 L 2.5625 -0.3125 C 1.890625 -0.3125 1.78125 -0.3125 1.78125 -0.75 L 1.78125 -2.59375 C 1.78125 -3.625 2.5 -4.1875 3.125 -4.1875 C 3.765625 -4.1875 3.875 -3.65625 3.875 -3.078125 L 3.875 -0.75 C 3.875 -0.3125 3.765625 -0.3125 3.09375 -0.3125 L 3.09375 0 L 4.21875 -0.03125 Z M 5.328125 0 "/>
</symbol>
<symbol overflow="visible" id="i2-glyph0-20">
<path style="stroke:none;" d="M 2.03125 -0.015625 C 2.03125 -0.640625 1.78125 -1.0625 1.390625 -1.0625 C 1.03125 -1.0625 0.859375 -0.78125 0.859375 -0.53125 C 0.859375 -0.265625 1.03125 0 1.390625 0 C 1.53125 0 1.671875 -0.0625 1.78125 -0.15625 C 1.796875 0.625 1.53125 1.234375 1.09375 1.703125 C 1.03125 1.765625 1.015625 1.78125 1.015625 1.8125 C 1.015625 1.890625 1.0625 1.921875 1.109375 1.921875 C 1.234375 1.921875 2.03125 1.140625 2.03125 -0.015625 Z M 2.03125 -0.015625 "/>
</symbol>
<symbol overflow="visible" id="i2-glyph1-0">
<path style="stroke:none;" d=""/>
</symbol>
<symbol overflow="visible" id="i2-glyph1-1">
<path style="stroke:none;" d="M 5.203125 -0.921875 C 5.203125 -1.25 4.96875 -1.25 4.859375 -1.25 C 4.75 -1.25 4.53125 -1.25 4.515625 -0.953125 C 4.515625 -0.875 4.5 -0.5 4.328125 -0.5 C 4.046875 -0.5 4.046875 -0.953125 4.046875 -1.484375 C 4.046875 -2.109375 4.046875 -2.1875 3.953125 -2.421875 C 3.84375 -2.71875 3.609375 -2.921875 3.46875 -3.03125 C 4.125 -3.40625 4.3125 -4 4.3125 -4.421875 C 4.3125 -5.28125 3.5625 -6.09375 2.375 -6.09375 L 0.625 -6.09375 C 0.453125 -6.09375 0.21875 -6.09375 0.21875 -5.78125 C 0.21875 -5.484375 0.46875 -5.484375 0.625 -5.484375 L 0.875 -5.484375 L 0.875 -0.609375 L 0.625 -0.609375 C 0.453125 -0.609375 0.21875 -0.609375 0.21875 -0.296875 C 0.21875 0 0.46875 0 0.625 0 L 1.796875 0 C 1.953125 0 2.203125 0 2.203125 -0.296875 C 2.203125 -0.609375 1.96875 -0.609375 1.796875 -0.609375 L 1.5625 -0.609375 L 1.5625 -2.734375 L 2.328125 -2.734375 C 2.515625 -2.734375 2.828125 -2.734375 3.140625 -2.46875 C 3.359375 -2.25 3.359375 -2.03125 3.359375 -1.609375 C 3.359375 -0.96875 3.359375 -0.671875 3.546875 -0.34375 C 3.71875 -0.046875 4 0.109375 4.34375 0.109375 C 4.96875 0.109375 5.203125 -0.546875 5.203125 -0.921875 Z M 3.625 -4.421875 C 3.625 -3.921875 3.1875 -3.34375 2.265625 -3.34375 L 1.5625 -3.34375 L 1.5625 -5.484375 L 2.265625 -5.484375 C 3.1875 -5.484375 3.625 -4.890625 3.625 -4.421875 Z M 3.625 -4.421875 "/>
</symbol>
<symbol overflow="visible" id="i2-glyph1-2">
<path style="stroke:none;" d="M 4.703125 -0.40625 L 4.703125 -0.671875 C 4.703125 -0.859375 4.703125 -1.078125 4.359375 -1.078125 C 4.015625 -1.078125 4.015625 -0.890625 4.015625 -0.609375 L 1.640625 -0.609375 C 2.234375 -1.109375 3.1875 -1.859375 3.625 -2.265625 C 4.25 -2.828125 4.703125 -3.453125 4.703125 -4.25 C 4.703125 -5.453125 3.703125 -6.203125 2.484375 -6.203125 C 1.3125 -6.203125 0.515625 -5.390625 0.515625 -4.53125 C 0.515625 -4.171875 0.796875 -4.0625 0.96875 -4.0625 C 1.171875 -4.0625 1.40625 -4.234375 1.40625 -4.5 C 1.40625 -4.625 1.359375 -4.75 1.265625 -4.828125 C 1.421875 -5.28125 1.890625 -5.59375 2.4375 -5.59375 C 3.25 -5.59375 4.015625 -5.140625 4.015625 -4.25 C 4.015625 -3.5625 3.53125 -2.984375 2.875 -2.4375 L 0.671875 -0.578125 C 0.578125 -0.5 0.515625 -0.453125 0.515625 -0.3125 C 0.515625 0 0.765625 0 0.921875 0 L 4.3125 0 C 4.640625 0 4.703125 -0.09375 4.703125 -0.40625 Z M 4.703125 -0.40625 "/>
</symbol>
<symbol overflow="visible" id="i2-glyph1-3">
<path style="stroke:none;" d="M 4.9375 -0.296875 C 4.9375 -0.609375 4.6875 -0.609375 4.53125 -0.609375 L 4.140625 -0.609375 L 2.859375 -2.21875 L 4 -3.6875 L 4.390625 -3.6875 C 4.53125 -3.6875 4.8125 -3.6875 4.8125 -3.984375 C 4.8125 -4.296875 4.546875 -4.296875 4.390625 -4.296875 L 3.234375 -4.296875 C 3.078125 -4.296875 2.828125 -4.296875 2.828125 -4 C 2.828125 -3.6875 3.046875 -3.6875 3.3125 -3.6875 L 2.578125 -2.6875 L 1.828125 -3.6875 C 2.078125 -3.6875 2.296875 -3.6875 2.296875 -4 C 2.296875 -4.296875 2.046875 -4.296875 1.90625 -4.296875 L 0.734375 -4.296875 C 0.59375 -4.296875 0.328125 -4.296875 0.328125 -3.984375 C 0.328125 -3.6875 0.59375 -3.6875 0.734375 -3.6875 L 1.140625 -3.6875 L 2.3125 -2.21875 L 1.078125 -0.609375 L 0.671875 -0.609375 C 0.53125 -0.609375 0.265625 -0.609375 0.265625 -0.296875 C 0.265625 0 0.53125 0 0.671875 0 L 1.84375 0 C 2 0 2.25 0 2.25 -0.296875 C 2.25 -0.609375 2.03125 -0.609375 1.71875 -0.609375 L 2.578125 -1.828125 L 3.46875 -0.609375 C 3.1875 -0.609375 2.96875 -0.609375 2.96875 -0.296875 C 2.96875 0 3.21875 0 3.375 0 L 4.53125 0 C 4.671875 0 4.9375 0 4.9375 -0.296875 Z M 4.9375 -0.296875 "/>
</symbol>
<symbol overflow="visible" id="i2-glyph1-4">
<path style="stroke:none;" d="M 4.859375 -2.15625 C 4.859375 -3.375 3.984375 -4.359375 2.921875 -4.359375 C 2.4375 -4.359375 2 -4.171875 1.65625 -3.875 L 1.65625 -5.6875 C 1.65625 -5.984375 1.59375 -6.09375 1.25 -6.09375 L 0.53125 -6.09375 C 0.375 -6.09375 0.125 -6.09375 0.125 -5.78125 C 0.125 -5.484375 0.375 -5.484375 0.515625 -5.484375 L 0.96875 -5.484375 L 0.96875 -0.40625 C 0.96875 -0.203125 0.96875 0 1.3125 0 C 1.65625 0 1.65625 -0.203125 1.65625 -0.453125 C 2.0625 -0.03125 2.5 0.0625 2.8125 0.0625 C 3.890625 0.0625 4.859375 -0.890625 4.859375 -2.15625 Z M 4.171875 -2.15625 C 4.171875 -1.203125 3.484375 -0.546875 2.78125 -0.546875 C 2 -0.546875 1.65625 -1.421875 1.65625 -1.90625 L 1.65625 -2.625 C 1.65625 -3.21875 2.234375 -3.75 2.859375 -3.75 C 3.59375 -3.75 4.171875 -3.015625 4.171875 -2.15625 Z M 4.171875 -2.15625 "/>
</symbol>
<symbol overflow="visible" id="i2-glyph1-5">
<path style="stroke:none;" d="M 4.984375 -3.984375 C 4.984375 -4.296875 4.75 -4.296875 4.578125 -4.296875 L 3.421875 -4.296875 C 3.265625 -4.296875 3.015625 -4.296875 3.015625 -4 C 3.015625 -3.6875 3.265625 -3.6875 3.421875 -3.6875 L 3.703125 -3.6875 L 2.984375 -1.5625 C 2.84375 -1.203125 2.796875 -1.015625 2.71875 -0.703125 C 2.65625 -0.890625 2.578125 -1.109375 2.5 -1.296875 L 1.578125 -3.6875 L 1.828125 -3.6875 C 1.96875 -3.6875 2.21875 -3.6875 2.21875 -3.984375 C 2.21875 -4.296875 1.984375 -4.296875 1.828125 -4.296875 L 0.65625 -4.296875 C 0.5 -4.296875 0.265625 -4.296875 0.265625 -3.984375 C 0.265625 -3.6875 0.515625 -3.6875 0.65625 -3.6875 L 0.96875 -3.6875 L 2.375 -0.125 C 2.421875 -0.03125 2.421875 0 2.421875 0 C 2.421875 0 2.171875 0.84375 2.046875 1.09375 C 1.75 1.640625 1.390625 1.65625 1.25 1.671875 C 1.25 1.671875 1.296875 1.578125 1.296875 1.453125 C 1.296875 1.203125 1.109375 1.015625 0.875 1.015625 C 0.59375 1.015625 0.421875 1.203125 0.421875 1.453125 C 0.421875 1.875 0.765625 2.265625 1.25 2.265625 C 2.25 2.265625 2.703125 0.953125 2.734375 0.84375 L 4.28125 -3.6875 L 4.578125 -3.6875 C 4.734375 -3.6875 4.984375 -3.6875 4.984375 -3.984375 Z M 4.984375 -3.984375 "/>
</symbol>
</g>
<clipPath id="i2-clip1">
  <path d="M 118 72 L 153 72 L 153 80 L 118 80 Z M 118 72 "/>
</clipPath>
<clipPath id="i2-clip2">
  <path d="M 156 72 L 176 72 L 176 79 L 156 79 Z M 156 72 "/>
</clipPath>
<clipPath id="i2-clip3">
  <path d="M 191 72 L 211 72 L 211 79 L 191 79 Z M 191 72 "/>
</clipPath>
<clipPath id="i2-clip4">
  <path d="M 203 86 L 209 86 L 209 93.03125 L 203 93.03125 Z M 203 86 "/>
</clipPath>
</defs>
<g id="i2-surface11">
<g style="fill:rgb(0%,0%,0%);fill-opacity:1;">
  <use xlink:href="#i2-glyph0-1" x="74.816" y="78.863"/>
</g>
<g style="fill:rgb(0%,0%,0%);fill-opacity:1;">
  <use xlink:href="#i2-glyph0-2" x="81.732037" y="78.863"/>
  <use xlink:href="#i2-glyph0-3" x="86.990297" y="78.863"/>
</g>
<g style="fill:rgb(0%,0%,0%);fill-opacity:1;">
  <use xlink:href="#i2-glyph0-4" x="92.804471" y="78.863"/>
</g>
<g style="fill:rgb(0%,0%,0%);fill-opacity:1;">
  <use xlink:href="#i2-glyph1-1" x="100.553" y="78.863"/>
  <use xlink:href="#i2-glyph1-2" x="105.783365" y="78.863"/>
</g>
<g style="fill:rgb(0%,0%,0%);fill-opacity:1;">
  <use xlink:href="#i2-glyph0-5" x="111.013" y="78.863"/>
</g>
<g> <!-- clip-path="url(#clip1)" clip-rule="nonzero" -->
<g style="fill:rgb(0%,0%,0%);fill-opacity:1;">
  <use xlink:href="#i2-glyph0-6" x="118.204005" y="78.863"/>
  <use xlink:href="#i2-glyph0-4" x="125.537475" y="78.863"/>
  <use xlink:href="#i2-glyph0-7" x="129.96585" y="78.863"/>
  <use xlink:href="#i2-glyph0-8" x="134.394226" y="78.863"/>
  <use xlink:href="#i2-glyph0-9" x="139.375526" y="78.863"/>
  <use xlink:href="#i2-glyph0-10" x="143.277876" y="78.863"/>
  <use xlink:href="#i2-glyph0-11" x="148.813097" y="78.863"/>
</g>
</g>
<g> <!-- clip-path="url(#clip2)" clip-rule="nonzero" -->
<g style="fill:rgb(0%,0%,0%);fill-opacity:1;">
  <use xlink:href="#i2-glyph0-12" x="156.070851" y="78.863"/>
  <use xlink:href="#i2-glyph0-13" x="163.265841" y="78.863"/>
  <use xlink:href="#i2-glyph0-14" x="166.033451" y="78.863"/>
  <use xlink:href="#i2-glyph0-15" x="169.907906" y="78.863"/>
</g>
</g>
<g style="fill:rgb(0%,0%,0%);fill-opacity:1;">
  <use xlink:href="#i2-glyph0-16" x="178.760673" y="78.863"/>
  <use xlink:href="#i2-glyph0-14" x="183.741973" y="78.863"/>
</g>
<g> <!-- clip-path="url(#clip3)" clip-rule="nonzero" -->
<g style="fill:rgb(0%,0%,0%);fill-opacity:1;">
  <use xlink:href="#i2-glyph0-17" x="190.933973" y="78.863"/>
  <use xlink:href="#i2-glyph0-4" x="193.701584" y="78.863"/>
  <use xlink:href="#i2-glyph0-16" x="198.129959" y="78.863"/>
  <use xlink:href="#i2-glyph0-11" x="203.111259" y="78.863"/>
  <use xlink:href="#i2-glyph0-14" x="207.041505" y="78.863"/>
</g>
</g>
<g style="fill:rgb(0%,0%,0%);fill-opacity:1;">
  <use xlink:href="#i2-glyph0-7" x="77.155" y="90.818"/>
  <use xlink:href="#i2-glyph0-8" x="81.583376" y="90.818"/>
  <use xlink:href="#i2-glyph0-18" x="86.564676" y="90.818"/>
  <use xlink:href="#i2-glyph0-3" x="94.86651" y="90.818"/>
</g>
<g style="fill:rgb(0%,0%,0%);fill-opacity:1;">
  <use xlink:href="#i2-glyph0-8" x="100.680684" y="90.818"/>
  <use xlink:href="#i2-glyph0-19" x="105.661984" y="90.818"/>
  <use xlink:href="#i2-glyph0-4" x="111.197204" y="90.818"/>
  <use xlink:href="#i2-glyph0-19" x="115.62558" y="90.818"/>
</g>
<g style="fill:rgb(0%,0%,0%);fill-opacity:1;">
  <use xlink:href="#i2-glyph0-14" x="120.881848" y="90.818"/>
  <use xlink:href="#i2-glyph0-11" x="124.756303" y="90.818"/>
</g>
<g style="fill:rgb(0%,0%,0%);fill-opacity:1;">
  <use xlink:href="#i2-glyph0-19" x="132.004094" y="90.818"/>
  <use xlink:href="#i2-glyph0-16" x="137.539315" y="90.818"/>
  <use xlink:href="#i2-glyph0-18" x="142.520615" y="90.818"/>
  <use xlink:href="#i2-glyph0-4" x="150.822449" y="90.818"/>
  <use xlink:href="#i2-glyph0-10" x="155.250825" y="90.818"/>
</g>
<g style="fill:rgb(0%,0%,0%);fill-opacity:1;">
  <use xlink:href="#i2-glyph1-3" x="164.106" y="90.818"/>
</g>
<g style="fill:rgb(0%,0%,0%);fill-opacity:1;">
  <use xlink:href="#i2-glyph0-20" x="169.336" y="90.818"/>
</g>
<g style="fill:rgb(0%,0%,0%);fill-opacity:1;">
  <use xlink:href="#i2-glyph1-4" x="175.424" y="90.818"/>
</g>
<g style="fill:rgb(0%,0%,0%);fill-opacity:1;">
  <use xlink:href="#i2-glyph0-16" x="183.976" y="90.818"/>
  <use xlink:href="#i2-glyph0-19" x="188.9573" y="90.818"/>
  <use xlink:href="#i2-glyph0-10" x="194.492521" y="90.818"/>
</g>
<g> <!-- clip-path="url(#clip4)" clip-rule="nonzero" -->
<g style="fill:rgb(0%,0%,0%);fill-opacity:1;">
  <use xlink:href="#i2-glyph1-5" x="203.347" y="90.818"/>
</g>
</g>
</g>
</g>
  <g id="g4" transform="translate(-72, 78.274)scale(1.0, -1.0)">
<defs>
<g>
<symbol overflow="visible" id="i4-glyph0-0">
<path style="stroke:none;" d=""/>
</symbol>
<symbol overflow="visible" id="i4-glyph0-1">
<path style="stroke:none;" d="M 2.46875 0 L 2.46875 -0.3125 C 1.796875 -0.3125 1.765625 -0.359375 1.765625 -0.75 L 1.765625 -4.40625 L 0.375 -4.296875 L 0.375 -3.984375 C 1.015625 -3.984375 1.109375 -3.921875 1.109375 -3.4375 L 1.109375 -0.75 C 1.109375 -0.3125 1 -0.3125 0.328125 -0.3125 L 0.328125 0 L 1.421875 -0.03125 C 1.78125 -0.03125 2.125 -0.015625 2.46875 0 Z M 1.90625 -6.015625 C 1.90625 -6.296875 1.6875 -6.546875 1.390625 -6.546875 C 1.046875 -6.546875 0.84375 -6.265625 0.84375 -6.015625 C 0.84375 -5.75 1.078125 -5.5 1.375 -5.5 C 1.71875 -5.5 1.90625 -5.765625 1.90625 -6.015625 Z M 1.90625 -6.015625 "/>
</symbol>
<symbol overflow="visible" id="i4-glyph0-2">
<path style="stroke:none;" d="M 5.328125 0 L 5.328125 -0.3125 C 4.8125 -0.3125 4.5625 -0.3125 4.5625 -0.609375 L 4.5625 -2.515625 C 4.5625 -3.375 4.5625 -3.671875 4.25 -4.03125 C 4.109375 -4.203125 3.78125 -4.40625 3.203125 -4.40625 C 2.46875 -4.40625 2 -3.984375 1.71875 -3.359375 L 1.71875 -4.40625 L 0.3125 -4.296875 L 0.3125 -3.984375 C 1.015625 -3.984375 1.09375 -3.921875 1.09375 -3.421875 L 1.09375 -0.75 C 1.09375 -0.3125 0.984375 -0.3125 0.3125 -0.3125 L 0.3125 0 L 1.453125 -0.03125 L 2.5625 0 L 2.5625 -0.3125 C 1.890625 -0.3125 1.78125 -0.3125 1.78125 -0.75 L 1.78125 -2.59375 C 1.78125 -3.625 2.5 -4.1875 3.125 -4.1875 C 3.765625 -4.1875 3.875 -3.65625 3.875 -3.078125 L 3.875 -0.75 C 3.875 -0.3125 3.765625 -0.3125 3.09375 -0.3125 L 3.09375 0 L 4.21875 -0.03125 Z M 5.328125 0 "/>
</symbol>
<symbol overflow="visible" id="i4-glyph0-3">
<path style="stroke:none;" d="M 3.59375 -1.28125 C 3.59375 -1.796875 3.296875 -2.109375 3.171875 -2.21875 C 2.84375 -2.546875 2.453125 -2.625 2.03125 -2.703125 C 1.46875 -2.8125 0.8125 -2.9375 0.8125 -3.515625 C 0.8125 -3.875 1.0625 -4.28125 1.921875 -4.28125 C 3.015625 -4.28125 3.078125 -3.375 3.09375 -3.078125 C 3.09375 -2.984375 3.203125 -2.984375 3.203125 -2.984375 C 3.34375 -2.984375 3.34375 -3.03125 3.34375 -3.21875 L 3.34375 -4.234375 C 3.34375 -4.390625 3.34375 -4.46875 3.234375 -4.46875 C 3.1875 -4.46875 3.15625 -4.46875 3.03125 -4.34375 C 3 -4.3125 2.90625 -4.21875 2.859375 -4.1875 C 2.484375 -4.46875 2.078125 -4.46875 1.921875 -4.46875 C 0.703125 -4.46875 0.328125 -3.796875 0.328125 -3.234375 C 0.328125 -2.890625 0.484375 -2.609375 0.75 -2.390625 C 1.078125 -2.140625 1.359375 -2.078125 2.078125 -1.9375 C 2.296875 -1.890625 3.109375 -1.734375 3.109375 -1.015625 C 3.109375 -0.515625 2.765625 -0.109375 1.984375 -0.109375 C 1.140625 -0.109375 0.78125 -0.671875 0.59375 -1.53125 C 0.5625 -1.65625 0.5625 -1.6875 0.453125 -1.6875 C 0.328125 -1.6875 0.328125 -1.625 0.328125 -1.453125 L 0.328125 -0.125 C 0.328125 0.046875 0.328125 0.109375 0.4375 0.109375 C 0.484375 0.109375 0.5 0.09375 0.6875 -0.09375 C 0.703125 -0.109375 0.703125 -0.125 0.890625 -0.3125 C 1.328125 0.09375 1.78125 0.109375 1.984375 0.109375 C 3.125 0.109375 3.59375 -0.5625 3.59375 -1.28125 Z M 3.59375 -1.28125 "/>
</symbol>
<symbol overflow="visible" id="i4-glyph0-4">
<path style="stroke:none;" d="M 3.3125 -1.234375 L 3.3125 -1.796875 L 3.0625 -1.796875 L 3.0625 -1.25 C 3.0625 -0.515625 2.765625 -0.140625 2.390625 -0.140625 C 1.71875 -0.140625 1.71875 -1.046875 1.71875 -1.21875 L 1.71875 -3.984375 L 3.15625 -3.984375 L 3.15625 -4.296875 L 1.71875 -4.296875 L 1.71875 -6.125 L 1.46875 -6.125 C 1.46875 -5.3125 1.171875 -4.25 0.1875 -4.203125 L 0.1875 -3.984375 L 1.03125 -3.984375 L 1.03125 -1.234375 C 1.03125 -0.015625 1.96875 0.109375 2.328125 0.109375 C 3.03125 0.109375 3.3125 -0.59375 3.3125 -1.234375 Z M 3.3125 -1.234375 "/>
</symbol>
<symbol overflow="visible" id="i4-glyph0-5">
<path style="stroke:none;" d="M 4.8125 -0.890625 L 4.8125 -1.453125 L 4.5625 -1.453125 L 4.5625 -0.890625 C 4.5625 -0.3125 4.3125 -0.25 4.203125 -0.25 C 3.875 -0.25 3.84375 -0.703125 3.84375 -0.75 L 3.84375 -2.734375 C 3.84375 -3.15625 3.84375 -3.546875 3.484375 -3.921875 C 3.09375 -4.3125 2.59375 -4.46875 2.109375 -4.46875 C 1.296875 -4.46875 0.609375 -4 0.609375 -3.34375 C 0.609375 -3.046875 0.8125 -2.875 1.0625 -2.875 C 1.34375 -2.875 1.53125 -3.078125 1.53125 -3.328125 C 1.53125 -3.453125 1.46875 -3.78125 1.015625 -3.78125 C 1.28125 -4.140625 1.78125 -4.25 2.09375 -4.25 C 2.578125 -4.25 3.15625 -3.859375 3.15625 -2.96875 L 3.15625 -2.609375 C 2.640625 -2.578125 1.9375 -2.546875 1.3125 -2.25 C 0.5625 -1.90625 0.3125 -1.390625 0.3125 -0.953125 C 0.3125 -0.140625 1.28125 0.109375 1.90625 0.109375 C 2.578125 0.109375 3.03125 -0.296875 3.21875 -0.75 C 3.265625 -0.359375 3.53125 0.0625 4 0.0625 C 4.203125 0.0625 4.8125 -0.078125 4.8125 -0.890625 Z M 3.15625 -1.390625 C 3.15625 -0.453125 2.4375 -0.109375 1.984375 -0.109375 C 1.5 -0.109375 1.09375 -0.453125 1.09375 -0.953125 C 1.09375 -1.5 1.5 -2.328125 3.15625 -2.390625 Z M 3.15625 -1.390625 "/>
</symbol>
<symbol overflow="visible" id="i4-glyph0-6">
<path style="stroke:none;" d="M 4.140625 -1.1875 C 4.140625 -1.28125 4.03125 -1.28125 4 -1.28125 C 3.921875 -1.28125 3.890625 -1.25 3.875 -1.1875 C 3.59375 -0.265625 2.9375 -0.140625 2.578125 -0.140625 C 2.046875 -0.140625 1.171875 -0.5625 1.171875 -2.171875 C 1.171875 -3.796875 1.984375 -4.21875 2.515625 -4.21875 C 2.609375 -4.21875 3.234375 -4.203125 3.578125 -3.84375 C 3.171875 -3.8125 3.109375 -3.515625 3.109375 -3.390625 C 3.109375 -3.125 3.296875 -2.9375 3.5625 -2.9375 C 3.828125 -2.9375 4.03125 -3.09375 4.03125 -3.40625 C 4.03125 -4.078125 3.265625 -4.46875 2.5 -4.46875 C 1.25 -4.46875 0.34375 -3.390625 0.34375 -2.15625 C 0.34375 -0.875 1.328125 0.109375 2.484375 0.109375 C 3.8125 0.109375 4.140625 -1.09375 4.140625 -1.1875 Z M 4.140625 -1.1875 "/>
</symbol>
<symbol overflow="visible" id="i4-glyph0-7">
<path style="stroke:none;" d="M 4.140625 -1.1875 C 4.140625 -1.28125 4.0625 -1.3125 4 -1.3125 C 3.921875 -1.3125 3.890625 -1.25 3.875 -1.171875 C 3.53125 -0.140625 2.625 -0.140625 2.53125 -0.140625 C 2.03125 -0.140625 1.640625 -0.4375 1.40625 -0.8125 C 1.109375 -1.28125 1.109375 -1.9375 1.109375 -2.296875 L 3.890625 -2.296875 C 4.109375 -2.296875 4.140625 -2.296875 4.140625 -2.515625 C 4.140625 -3.5 3.59375 -4.46875 2.359375 -4.46875 C 1.203125 -4.46875 0.28125 -3.4375 0.28125 -2.1875 C 0.28125 -0.859375 1.328125 0.109375 2.46875 0.109375 C 3.6875 0.109375 4.140625 -1 4.140625 -1.1875 Z M 3.484375 -2.515625 L 1.109375 -2.515625 C 1.171875 -4 2.015625 -4.25 2.359375 -4.25 C 3.375 -4.25 3.484375 -2.90625 3.484375 -2.515625 Z M 3.484375 -2.515625 "/>
</symbol>
<symbol overflow="visible" id="i4-glyph1-0">
<path style="stroke:none;" d=""/>
</symbol>
<symbol overflow="visible" id="i4-glyph1-1">
<path style="stroke:none;" d="M 4.859375 -3.734375 C 4.859375 -3.9375 4.734375 -4.359375 3.90625 -4.359375 C 3.40625 -4.359375 2.765625 -4.171875 2.21875 -3.546875 L 2.21875 -3.890625 C 2.21875 -4.203125 2.15625 -4.296875 1.8125 -4.296875 L 0.71875 -4.296875 C 0.5625 -4.296875 0.3125 -4.296875 0.3125 -4 C 0.3125 -3.6875 0.5625 -3.6875 0.71875 -3.6875 L 1.53125 -3.6875 L 1.53125 -0.609375 L 0.71875 -0.609375 C 0.5625 -0.609375 0.3125 -0.609375 0.3125 -0.3125 C 0.3125 0 0.5625 0 0.71875 0 L 3.3125 0 C 3.46875 0 3.734375 0 3.734375 -0.296875 C 3.734375 -0.609375 3.46875 -0.609375 3.3125 -0.609375 L 2.21875 -0.609375 L 2.21875 -1.859375 C 2.21875 -2.796875 2.796875 -3.75 4 -3.75 C 4.015625 -3.515625 4.1875 -3.3125 4.4375 -3.3125 C 4.65625 -3.3125 4.859375 -3.46875 4.859375 -3.734375 Z M 4.859375 -3.734375 "/>
</symbol>
<symbol overflow="visible" id="i4-glyph1-2">
<path style="stroke:none;" d="M 4.703125 -0.40625 L 4.703125 -0.671875 C 4.703125 -0.859375 4.703125 -1.078125 4.359375 -1.078125 C 4.015625 -1.078125 4.015625 -0.890625 4.015625 -0.609375 L 1.640625 -0.609375 C 2.234375 -1.109375 3.1875 -1.859375 3.625 -2.265625 C 4.25 -2.828125 4.703125 -3.453125 4.703125 -4.25 C 4.703125 -5.453125 3.703125 -6.203125 2.484375 -6.203125 C 1.3125 -6.203125 0.515625 -5.390625 0.515625 -4.53125 C 0.515625 -4.171875 0.796875 -4.0625 0.96875 -4.0625 C 1.171875 -4.0625 1.40625 -4.234375 1.40625 -4.5 C 1.40625 -4.625 1.359375 -4.75 1.265625 -4.828125 C 1.421875 -5.28125 1.890625 -5.59375 2.4375 -5.59375 C 3.25 -5.59375 4.015625 -5.140625 4.015625 -4.25 C 4.015625 -3.5625 3.53125 -2.984375 2.875 -2.4375 L 0.671875 -0.578125 C 0.578125 -0.5 0.515625 -0.453125 0.515625 -0.3125 C 0.515625 0 0.765625 0 0.921875 0 L 4.3125 0 C 4.640625 0 4.703125 -0.09375 4.703125 -0.40625 Z M 4.703125 -0.40625 "/>
</symbol>
</g>
<clipPath id="i4-clip1">
  <path d="M 72 72 L 108 72 L 108 78.273438 L 72 78.273438 Z M 72 72 "/>
</clipPath>
<clipPath id="i4-clip2">
  <path d="M 111 72 L 121 72 L 121 78.273438 L 111 78.273438 Z M 111 72 "/>
</clipPath>
</defs>
<g id="i4-surface21">
<g> <!-- clip-path="url(#clip1)" clip-rule="nonzero" -->
<g style="fill:rgb(0%,0%,0%);fill-opacity:1;">
  <use xlink:href="#i4-glyph0-1" x="72" y="78.274"/>
  <use xlink:href="#i4-glyph0-2" x="74.76761" y="78.274"/>
  <use xlink:href="#i4-glyph0-3" x="80.302831" y="78.274"/>
  <use xlink:href="#i4-glyph0-4" x="84.233077" y="78.274"/>
  <use xlink:href="#i4-glyph0-5" x="88.107532" y="78.274"/>
  <use xlink:href="#i4-glyph0-2" x="93.088832" y="78.274"/>
  <use xlink:href="#i4-glyph0-6" x="98.624052" y="78.274"/>
  <use xlink:href="#i4-glyph0-7" x="103.052428" y="78.274"/>
</g>
</g>
<g> <!-- clip-path="url(#clip2)" clip-rule="nonzero" -->
<g style="fill:rgb(0%,0%,0%);fill-opacity:1;">
  <use xlink:href="#i4-glyph1-1" x="110.799" y="78.274"/>
  <use xlink:href="#i4-glyph1-2" x="116.029365" y="78.274"/>
</g>
</g>
</g>
</g>
 </defs>
</svg>
