<?xml version="1.0" encoding="UTF-8" standalone="no"?>
<!DOCTYPE svg PUBLIC "-//W3C//DTD SVG 1.1//EN" "http://www.w3.org/Graphics/SVG/1.1/DTD/svg11.dtd">
<svg width="100%" height="100%" viewBox="0 0 32 32" version="1.1" xmlns="http://www.w3.org/2000/svg" xmlns:xlink="http://www.w3.org/1999/xlink" xml:space="preserve" xmlns:serif="http://www.serif.com/" style="fill-rule:evenodd;clip-rule:evenodd;stroke-linejoin:round;stroke-miterlimit:2;">
    <g transform="matrix(0.0211667,0,0,0.0211667,0,0)">
        <path d="M1511.81,240.41C1511.81,107.724 1404.09,0 1271.4,0L240.41,0C107.724,0 0,107.724 0,240.41L0,1271.4C0,1404.09 107.724,1511.81 240.41,1511.81L1271.4,1511.81C1404.09,1511.81 1511.81,1404.09 1511.81,1271.4L1511.81,240.41Z" style="fill:white;fill-opacity:0.9;"/>
    </g>
    <g transform="matrix(0.072,0,0,0.072,-2,-2)">
        <g id="svg182">
            <g id="g212">
                <g id="g208">
                    <g id="g262">
                        <path id="path264" d="M294.93,349.23C294.93,327.12 312.85,309.2 334.96,309.2C357.07,309.2 374.99,327.12 374.99,349.23C374.99,371.34 357.07,389.26 334.96,389.26C312.85,389.26 294.93,371.34 294.93,349.23" style="fill:rgb(221,29,48);fill-rule:nonzero;"/>
                    </g>
                    <g id="g266">
                        <path id="path268" d="M405.24,129.41C367.47,130.79 325.09,171.79 325.09,171.33C325.55,147.84 308.05,125.27 275.81,130.33C243.52,135.4 202.9,176.06 202.57,175.93C203.95,158.89 191.73,136.13 174.93,132.17C130.22,121.64 75.94,180.1 57.08,203.6C42.68,221.54 61.44,239.65 75.96,225.84C95.65,207.1 142.71,151.28 165.43,165.22C178.85,174.51 176.97,188.84 163.96,214.16C150.91,239.55 89.4,328 74.27,355.43C65.61,371.14 87.29,382.86 101.71,363.87C122.55,336.42 176.82,254.19 183.66,245.46C197.02,228.42 264.04,141.72 291.94,172.69C307.11,189.53 252.19,267.45 232.55,301.38C220.94,321.43 245.21,331.28 259.28,310.88C259.28,310.88 368.41,150.59 407.56,165.33C431.04,174.17 389.62,226.31 373.71,258.13C365.74,274.07 384.53,283.47 396.22,267.98C406.3,254.62 430.62,218.65 442.41,195.06C459.41,161.06 443.03,128.03 405.26,129.41" style="fill:rgb(31,37,47);fill-rule:nonzero;"/>
                    </g>
                </g>
                <rect id="rect210" x="0" y="0" width="500" height="500" style="fill:none;"/>
            </g>
        </g>
    </g>
</svg>
