<?xml version="1.0" encoding="UTF-8" standalone="no"?>
<!DOCTYPE svg PUBLIC "-//W3C//DTD SVG 1.1//EN" "http://www.w3.org/Graphics/SVG/1.1/DTD/svg11.dtd">
<svg width="100%" height="100%" viewBox="0 0 16 16" version="1.1" xmlns="http://www.w3.org/2000/svg" xmlns:xlink="http://www.w3.org/1999/xlink" xml:space="preserve" xmlns:serif="http://www.serif.com/" style="fill-rule:evenodd;clip-rule:evenodd;stroke-linejoin:round;stroke-miterlimit:2;">
    <path d="M0,3C-0,1.903 0.903,1 2,1L14,1C15.097,1 16,1.903 16,3L16,13C16,14.097 15.097,15 14,15L2,15C0.903,15 0,14.097 0,13L0,3ZM5,2L5,14L14,14C14.549,14 15,13.549 15,13L15,3C15,2.451 14.549,2 14,2L5,2ZM4,2L2,2C1.451,2 1,2.451 1,3L1,13C1,13.549 1.451,14 2,14L4,14L4,2Z" style="fill:white;fill-rule:nonzero;"/>
</svg>
