<?xml version="1.0" encoding="UTF-8" standalone="no"?><!DOCTYPE svg PUBLIC "-//W3C//DTD SVG 1.1//EN" "http://www.w3.org/Graphics/SVG/1.1/DTD/svg11.dtd"><svg width="100%" height="100%" viewBox="0 0 230 151" version="1.1" xmlns="http://www.w3.org/2000/svg" xmlns:xlink="http://www.w3.org/1999/xlink" xml:space="preserve" xmlns:serif="http://www.serif.com/" style="fill-rule:evenodd;clip-rule:evenodd;stroke-linejoin:round;stroke-miterlimit:2;"><g id="m-ball"><path id="path264" d="M140.719,127.341c-0,-12.806 10.376,-23.185 23.179,-23.185c12.803,0 23.179,10.379 23.179,23.185c0,12.806 -10.376,23.185 -23.179,23.185c-12.803,-0 -23.179,-10.379 -23.179,-23.185" style="fill:#cc173a;fill-rule:nonzero;"/><path id="path268" d="M204.594,0.025c-21.871,0.799 -46.411,24.546 -46.411,24.279c0.266,-13.605 -9.867,-26.677 -28.536,-23.746c-18.697,2.936 -42.218,26.486 -42.409,26.41c0.799,-9.869 -6.277,-23.051 -16.005,-25.345c-25.889,-6.099 -57.32,27.761 -68.24,41.371c-8.339,10.391 2.524,20.88 10.932,12.881c11.401,-10.853 38.651,-43.184 51.807,-35.11c7.771,5.381 6.682,13.681 -0.851,28.346c-7.557,14.705 -43.174,65.934 -51.935,81.821c-5.014,9.099 7.54,15.887 15.889,4.888c12.068,-15.898 43.493,-63.525 47.453,-68.581c7.736,-9.869 46.544,-60.085 62.699,-42.147c8.785,9.753 -23.017,54.883 -34.389,74.535c-6.723,11.613 7.331,17.318 15.478,5.502c-0,0 63.191,-92.837 85.861,-84.3c13.596,5.12 -10.388,35.319 -19.601,53.748c-4.615,9.233 6.265,14.677 13.035,5.705c5.836,-7.738 19.919,-28.571 26.746,-42.234c9.844,-19.692 0.359,-38.823 -21.512,-38.023" style="fill:#fff;fill-rule:nonzero;"/></g></svg>