<?xml version="1.0" encoding="UTF-8" standalone="no"?>
<!DOCTYPE svg PUBLIC "-//W3C//DTD SVG 1.1//EN" "http://www.w3.org/Graphics/SVG/1.1/DTD/svg11.dtd">
<svg width="100%" height="100%" viewBox="0 0 16 16" version="1.1" xmlns="http://www.w3.org/2000/svg" xmlns:xlink="http://www.w3.org/1999/xlink" xml:space="preserve" xmlns:serif="http://www.serif.com/" style="fill-rule:evenodd;clip-rule:evenodd;stroke-linejoin:round;stroke-miterlimit:2;">
    <path d="M6,4.5C6,5.323 5.323,6 4.5,6C3.677,6 3,5.323 3,4.5C3,3.677 3.677,3 4.5,3C5.323,3 6,3.677 6,4.5M5,4.5C5,4.226 4.774,4 4.5,4C4.226,4 4,4.226 4,4.5C4,4.774 4.226,5 4.5,5C4.774,5 5,4.774 5,4.5" style="fill:white;fill-rule:nonzero;"/>
    <path d="M2,1L6.586,1C6.851,1 7.106,1.106 7.293,1.293L14.293,8.293C14.681,8.681 14.681,9.319 14.293,9.707L9.707,14.293C9.319,14.681 8.681,14.681 8.293,14.293L1.293,7.293C1.106,7.106 1,6.851 1,6.586L1,2C1,1.451 1.451,1 2,1M2,6.586L9,13.586L13.586,9L6.586,2L2,2L2,6.586Z" style="fill:white;fill-rule:nonzero;"/>
</svg>
