<?xml version="1.0" encoding="UTF-8" standalone="no"?><!DOCTYPE svg PUBLIC "-//W3C//DTD SVG 1.1//EN" "http://www.w3.org/Graphics/SVG/1.1/DTD/svg11.dtd"><svg width="100%" height="100%" viewBox="0 0 228 115" version="1.1" xmlns="http://www.w3.org/2000/svg" xmlns:xlink="http://www.w3.org/1999/xlink" xml:space="preserve" xmlns:serif="http://www.serif.com/" style="fill-rule:evenodd;clip-rule:evenodd;stroke-linejoin:round;stroke-miterlimit:2;"><g id="Modelica-Language"><g id="g368"><path id="path370" d="M111.95,90.195l2.139,-0l-0,15.785l7.994,0l0,2.036l-10.133,0l0,-17.821" style="fill:#fff;fill-rule:nonzero;"/><path id="path372" d="M133.337,104.656l0,-1.655c0,0 -1.171,-0.84 -3.08,-0.84c-1.833,0 -2.979,0.917 -2.979,2.139c0,1.528 1.374,2.138 2.699,2.138c2.087,0 3.36,-1.782 3.36,-1.782Zm2.139,-4.379l-0,7.739l-1.961,0l0,-1.705c0,0 -1.324,2.011 -3.997,2.011c-2.113,0 -4.379,-1.477 -4.379,-4.022c0,-2.292 2.012,-3.921 4.659,-3.921c2.164,-0 3.539,0.967 3.539,0.967l0,-0.636c0,-2.444 -2.037,-2.775 -2.979,-2.775c-1.782,-0 -3.513,0.993 -3.513,0.993l-0.891,-1.783c0,0 1.832,-1.196 4.404,-1.196c3.463,0 5.118,2.138 5.118,4.328" style="fill:#fff;fill-rule:nonzero;"/><path id="path374" d="M150.549,100.455l-0,7.561l-2.139,0l-0,-7.204c-0,-2.012 -1.247,-2.877 -2.826,-2.877c-1.91,-0 -2.928,1.986 -2.928,1.986l-0,8.095l-2.138,0l-0,-11.762l1.985,0l0,1.655c0,-0 1.069,-1.96 3.615,-1.96c2.343,0 4.431,1.604 4.431,4.506" style="fill:#fff;fill-rule:nonzero;"/><path id="path376" d="M164.271,99.921c0,-0 -1.145,-1.986 -3.462,-1.986c-2.393,-0 -3.896,1.884 -3.896,4.2c0,2.317 1.503,4.202 3.896,4.202c2.343,-0 3.462,-1.986 3.462,-1.986l0,-4.43Zm0,6.619c-0.407,0.535 -1.629,1.782 -3.793,1.782c-3.182,0 -5.703,-2.724 -5.703,-6.187c0,-3.462 2.521,-6.186 5.703,-6.186c2.827,0 3.972,2.011 3.972,2.011l-0,-1.706l1.961,0l-0,11.813c-0,4.074 -2.776,6.111 -6.188,6.111c-3.233,-0 -5.142,-2.241 -5.142,-2.241l1.298,-1.603c-0,-0 1.426,1.858 3.844,1.858c2.496,0 4.048,-1.374 4.048,-4.023l0,-1.629" style="fill:#fff;fill-rule:nonzero;"/><path id="path378" d="M171.452,103.816l-0,-7.562l2.139,0l-0,7.206c-0,2.011 1.247,2.877 2.826,2.877c1.985,-0 2.927,-1.936 2.927,-1.936l0,-8.147l2.139,0l-0,11.762l-1.986,0l0,-1.807c0,0 -1.07,2.113 -3.615,2.113c-2.342,0 -4.43,-1.603 -4.43,-4.506" style="fill:#fff;fill-rule:nonzero;"/><path id="path380" d="M194.163,104.656l0,-1.655c0,0 -1.172,-0.84 -3.081,-0.84c-1.833,0 -2.978,0.917 -2.978,2.139c-0,1.528 1.374,2.138 2.698,2.138c2.088,0 3.361,-1.782 3.361,-1.782Zm2.138,-4.379l0,7.739l-1.96,0l-0,-1.705c-0,0 -1.324,2.011 -3.997,2.011c-2.113,0 -4.379,-1.477 -4.379,-4.022c-0,-2.292 2.011,-3.921 4.659,-3.921c2.164,-0 3.539,0.967 3.539,0.967l0,-0.636c0,-2.444 -2.037,-2.775 -2.979,-2.775c-1.783,-0 -3.513,0.993 -3.513,0.993l-0.891,-1.783c-0,0 1.832,-1.196 4.404,-1.196c3.463,0 5.117,2.138 5.117,4.328" style="fill:#fff;fill-rule:nonzero;"/><path id="path382" d="M210.024,99.921c0,-0 -1.145,-1.986 -3.462,-1.986c-2.393,-0 -3.896,1.884 -3.896,4.2c0,2.317 1.503,4.202 3.896,4.202c2.343,-0 3.462,-1.986 3.462,-1.986l0,-4.43Zm0,6.619c-0.406,0.535 -1.629,1.782 -3.793,1.782c-3.182,0 -5.703,-2.724 -5.703,-6.187c0,-3.462 2.521,-6.186 5.703,-6.186c2.827,0 3.972,2.011 3.972,2.011l-0,-1.706l1.961,0l-0,11.813c-0,4.074 -2.776,6.111 -6.187,6.111c-3.234,-0 -5.143,-2.241 -5.143,-2.241l1.299,-1.603c-0,-0 1.425,1.858 3.844,1.858c2.495,0 4.047,-1.374 4.047,-4.023l0,-1.629" style="fill:#fff;fill-rule:nonzero;"/><path id="path384" d="M225.912,101.117c-0.076,-1.324 -1.273,-3.182 -3.64,-3.182c-2.546,-0 -3.59,1.961 -3.743,3.182l7.383,-0Zm2.088,1.095c-0,0.229 -0,0.408 -0.025,0.687l-9.497,0c0.127,1.782 1.833,3.438 4.048,3.438c2.317,-0 3.539,-1.732 3.539,-1.732l1.35,1.4c-0,0 -1.782,2.317 -4.889,2.317c-3.564,0 -6.135,-2.698 -6.135,-6.187c-0,-3.437 2.342,-6.186 5.881,-6.186c3.284,0 5.728,2.47 5.728,6.263" style="fill:#fff;fill-rule:nonzero;"/><path id="path386" d="M157.778,41.841c-0,-3.426 2.777,-6.202 6.203,-6.202c3.425,-0 6.202,2.776 6.202,6.202c0,3.426 -2.777,6.203 -6.202,6.203c-3.426,0 -6.203,-2.777 -6.203,-6.203" style="fill:#cc173a;fill-rule:nonzero;"/><path id="path388" d="M38.713,86.763l-18.946,21.379l16.582,0l11.466,-14.024c-3.612,-1.666 -6.728,-4.207 -9.102,-7.355Zm136.532,-86.247c-7.742,0.283 -16.428,8.686 -16.428,8.592c0.094,-4.816 -3.493,-9.442 -10.102,-8.403c-6.61,1.039 -14.918,9.347 -15.013,9.347c0.283,-3.493 -2.033,-7.6 -5.664,-8.969c-5.183,-1.956 -12.872,-0.501 -22.817,10.512c-7.823,8.661 -27.694,31.317 -35.177,39.807c2.649,1.571 4.966,3.631 6.835,6.068l23.779,-29.385c-0,-0 13.779,-18.067 21.337,-19.826c6.257,-1.458 7.232,4.525 4.909,10.102c-4.726,11.341 -16.334,30.212 -16.334,30.212c0,0 16.24,-21.054 18.978,-24.548c2.737,-3.493 16.428,-20.677 22.471,-14.634c5.889,5.889 -11.802,31.346 -11.802,31.346l9.064,-11.708c0,-0 18.411,-24.17 26.436,-21.148c8.025,3.021 -5.193,25.114 -5.193,25.02c0,-0 7.917,-6.035 12.18,-18.978c1.949,-5.919 0.284,-13.69 -7.459,-13.407" style="fill:#707a84;fill-rule:nonzero;"/><path id="path390" d="M0.003,60.559c0,-5.203 4.193,-9.598 10.457,-9.598c3.283,0 6.062,1.212 7.88,3.081c1.87,-1.869 4.597,-3.081 7.881,-3.081c6.315,0 10.306,4.395 10.306,9.598l-0.004,22.86l-5.759,-0l0.003,-22.001c0,-3.587 -1.818,-5.557 -4.647,-5.557c-2.779,0 -4.951,1.97 -4.951,5.557l-0.003,22.001l-5.809,-0l0.003,-22.001c0,-3.587 -2.172,-5.557 -5.001,-5.557c-2.779,0 -4.598,1.97 -4.598,5.557l-0.002,22.001l-5.759,-0l0.003,-22.86" style="fill:#fff;fill-rule:nonzero;"/><path id="path392" d="M90.124,78.29c3.284,-0 5.91,-2.626 5.91,-5.91c0,-3.284 -2.626,-5.911 -5.91,-5.911c-3.283,0 -5.91,2.627 -5.91,5.911c-0,3.284 2.627,5.91 5.91,5.91Zm5.861,-26.774l5.809,0l0,20.662c0,6.414 -5.204,11.668 -11.67,11.668c-6.415,-0 -11.619,-5.254 -11.619,-11.668c0,-6.466 4.901,-11.67 11.214,-11.67c2.729,-0 4.952,1.263 6.266,2.375l-0,-11.367" style="fill:#fff;fill-rule:nonzero;"/><path id="path394" d="M63.813,72.253c-0,-3.359 -2.272,-6.221 -5.95,-6.221c-3.678,-0 -5.947,2.862 -5.947,6.221c-0,3.36 2.269,6.222 5.947,6.222c3.678,-0 5.95,-2.862 5.95,-6.222Zm5.539,0c0,6.312 -5.086,11.307 -11.489,11.307c-6.403,-0 -11.487,-4.995 -11.487,-11.307c-0,-6.357 5.084,-11.305 11.487,-11.305c6.403,-0 11.489,4.948 11.489,11.305" style="fill:#fff;fill-rule:nonzero;"/><path id="path396" d="M127.101,70.256c-0.092,-1.862 -1.818,-4.36 -5.405,-4.36c-3.496,0 -5.084,2.452 -5.266,4.36l10.671,-0Zm5.448,1.907c-0,0.409 -0,1.225 -0.045,2.043l-16.074,0c0.407,1.907 2.633,4.359 6.038,4.359c3.769,0 5.903,-2.18 5.903,-2.18l2.725,4.087c0,0 -3.406,3.088 -8.628,3.088c-6.538,-0 -11.578,-4.995 -11.578,-11.307c0,-6.312 4.587,-11.305 10.806,-11.305c5.904,-0 10.853,4.584 10.853,11.215" style="fill:#fff;fill-rule:nonzero;"/><path id="path398" d="M143.237,51.516l5.667,0l-0,31.903l-5.667,-0l-0,-31.903" style="fill:#fff;fill-rule:nonzero;"/><path id="path400" d="M193.021,75.84l3.587,3.634c-0,-0 -3.087,4.086 -8.9,4.086c-6.447,-0 -11.578,-4.995 -11.578,-11.307c0,-6.357 5.131,-11.305 11.578,-11.305c5.768,-0 8.809,3.996 8.809,3.996l-3.768,3.359c-0,0 -1.769,-2.271 -5.041,-2.271c-3.677,-0 -6.038,2.862 -6.038,6.221c0,3.36 2.361,6.222 6.038,6.222c3.679,-0 5.313,-2.635 5.313,-2.635" style="fill:#fff;fill-rule:nonzero;"/><path id="path402" d="M161.011,60.965l5.713,0l0,22.454l-5.713,-0l0,-22.454" style="fill:#fff;fill-rule:nonzero;"/><path id="path404" d="M216.149,78.475c-3.678,-0 -5.948,-2.862 -5.948,-6.222c0,-3.359 2.27,-6.221 5.948,-6.221c3.678,-0 5.949,2.862 5.949,6.221c0,3.36 -2.271,6.222 -5.949,6.222Zm5.949,-17.51l0,1.589c-1.731,-1.017 -3.759,-1.606 -5.949,-1.606c-6.403,-0 -11.488,4.948 -11.488,11.305c0,6.312 5.085,11.307 11.488,11.307c2.19,-0 4.218,-0.596 5.949,-1.617l0,1.491l5.713,-0l0,-22.469l-5.713,0" style="fill:#fff;fill-rule:nonzero;"/></g></g></svg>